<svg width="50" height="50" viewBox="0 0 50 50" fill="none" xmlns="http://www.w3.org/2000/svg">
<path fill-rule="evenodd" clip-rule="evenodd" d="M38.3522 33.5401H46.2169C46.722 33.5401 47.1314 33.9336 47.1314 34.419V42.4023C47.1314 45.2132 44.752 47.5 41.8273 47.5H8.1733C5.24861 47.5 2.86914 45.2132 2.86914 42.4023V27.1242C2.86914 26.6388 3.27857 26.2453 3.78365 26.2453C4.28873 26.2453 4.69817 26.6388 4.69817 27.1242V42.4023C4.69817 44.2439 6.25712 45.7422 8.1733 45.7422H37.8252C37.0152 44.8468 36.5231 43.6792 36.5231 42.4023V30.1069L28.5813 37.7395C28.4984 37.819 28.4036 37.8796 28.3024 37.9223L25.361 39.1657H30.5466C31.0517 39.1657 31.4611 39.5592 31.4611 40.0446C31.4611 40.53 31.0517 40.9235 30.5466 40.9235H10.0841C9.57906 40.9235 9.16963 40.53 9.16963 40.0446C9.16963 39.5592 9.57906 39.1657 10.0841 39.1657H20.4127L23.2179 33.0354C23.2632 32.9365 23.3271 32.8455 23.4081 32.7676L26.6278 29.6732H16.132C15.6269 29.6732 15.2175 29.2797 15.2175 28.7943C15.2175 28.3088 15.6269 27.9153 16.132 27.9153H28.4568L36.5231 20.1631V4.25782H4.69817V19.214C4.69817 19.6994 4.28873 20.0929 3.78365 20.0929C3.27857 20.0929 2.86914 19.6994 2.86914 19.214V3.37891C2.86914 2.89348 3.27857 2.5 3.78365 2.5H37.4377C37.9427 2.5 38.3522 2.89348 38.3522 3.37891V18.4053L41.6864 15.2011C42.0435 14.8579 42.6225 14.8578 42.9796 15.2011L46.8596 18.9299C47.0311 19.0947 47.1275 19.3183 47.1275 19.5514C47.1275 19.7845 47.0311 20.0081 46.8596 20.1728L38.3522 28.3492V33.5401ZM24.3536 34.9193L22.7926 38.331L26.3424 36.8307L24.3536 34.9193ZM27.9347 35.8751L44.9197 19.5513L42.333 17.0654L25.348 33.3891L27.9347 35.8751ZM41.8273 45.7422C43.7435 45.7422 45.3024 44.2439 45.3024 42.4023V35.2979H38.3522V42.4023C38.3522 44.2439 39.9111 45.7422 41.8273 45.7422Z" fill="#367FD3"/>
<path d="M16.4663 35.2969H10.0841C9.57898 35.2969 9.16955 34.9034 9.16955 34.418C9.16955 33.9326 9.57898 33.5391 10.0841 33.5391H16.4663C16.9714 33.5391 17.3808 33.9326 17.3808 34.418C17.3808 34.9034 16.9714 35.2969 16.4663 35.2969ZM10.0841 27.9141C9.57898 27.9141 9.16955 28.3076 9.16955 28.793C9.16955 29.2784 9.57898 29.6719 10.0841 29.6719H11.0107C11.5158 29.6719 11.9252 29.2784 11.9252 28.793C11.9252 28.3076 11.5158 27.9141 11.0107 27.9141H10.0841ZM4.43021 23.7893C4.26011 23.9528 4.02417 24.0469 3.78365 24.0469C3.54313 24.0469 3.30719 23.9528 3.13709 23.7893C2.96699 23.6259 2.86914 23.3991 2.86914 23.168C2.86914 22.9368 2.96699 22.7101 3.13709 22.5466C3.30719 22.3831 3.54313 22.2891 3.78365 22.2891C4.02417 22.2891 4.26011 22.3831 4.43021 22.5466C4.6003 22.7101 4.69816 22.9368 4.69816 23.168C4.69816 23.3991 4.6003 23.6259 4.43021 23.7893Z" fill="#367FD3"/>
</svg>
