<svg width="50" height="50" viewBox="0 0 50 50" fill="none" xmlns="http://www.w3.org/2000/svg">
<path d="M25 27.7441C32.6465 27.7441 38.8672 21.5211 38.8672 13.872C38.8672 6.22297 32.6465 0 25 0C17.3536 0 11.1329 6.22297 11.1329 13.872C11.1329 21.5211 17.3536 27.7441 25 27.7441ZM25 1.95381C31.5695 1.95381 36.9141 7.30029 36.9141 13.872C36.9141 20.4438 31.5695 25.7902 25 25.7902C18.4306 25.7902 13.0859 20.4438 13.0859 13.872C13.0859 7.30029 18.4306 1.95381 25 1.95381ZM33.7427 14.8599H34.5721C35.1114 14.8599 35.5487 14.4225 35.5487 13.883C35.5487 13.3435 35.1114 12.9061 34.5721 12.9061H33.7427C33.2035 12.9061 32.7661 13.3435 32.7661 13.883C32.7661 14.4225 33.2035 14.8599 33.7427 14.8599ZM17.234 13.861C17.234 13.3215 16.7968 12.8842 16.2574 12.8842H15.4281C14.8889 12.8842 14.4515 13.3215 14.4515 13.861C14.4515 14.4006 14.8889 14.8379 15.4281 14.8379H16.2574C16.7968 14.8379 17.234 14.4006 17.234 13.861ZM25.011 6.10333C25.5503 6.10333 25.9876 5.66597 25.9876 5.12643V4.29675C25.9876 3.7572 25.5503 3.31984 25.011 3.31984C24.4718 3.31984 24.0345 3.7572 24.0345 4.29675V5.12643C24.0345 5.66597 24.4718 6.10333 25.011 6.10333ZM24.989 21.6406C24.4498 21.6406 24.0125 22.078 24.0125 22.6175V23.4473C24.0125 23.9868 24.4498 24.4241 24.989 24.4241C25.5283 24.4241 25.9656 23.9868 25.9656 23.4473V22.6175C25.9656 22.078 25.5283 21.6406 24.989 21.6406ZM24.3 14.5533L24.3109 14.5642C24.5014 14.7541 24.7506 14.8489 25 14.8489C25.25 14.8489 25.4998 14.7535 25.6905 14.5628L32.4413 7.80957C32.8227 7.4281 32.8227 6.80952 32.4413 6.42794C32.0599 6.04647 31.4417 6.04656 31.0602 6.42794L25 12.4905L21.4792 8.96854C21.0979 8.58708 20.4797 8.58708 20.098 8.96854C19.7167 9.35009 19.7167 9.96864 20.098 10.3501L24.3 14.5533ZM46.2231 27.5498C44.8101 26.413 42.7777 26.5231 41.4955 27.8058L34.6161 34.6875C34.4442 33.3278 33.458 32.1938 32.1004 31.8534L22.8651 29.5389C20.9435 29.0571 18.9154 29.2914 17.1543 30.1981L11.4924 33.1129L10.9586 32.1882C10.7518 31.8298 10.4179 31.5734 10.0182 31.4663C9.6191 31.3595 9.2016 31.4144 8.84326 31.6211L3.24339 34.8552C2.50403 35.2823 2.24974 36.2315 2.67659 36.9712L9.74868 49.2246C9.95552 49.583 10.2894 49.8394 10.6889 49.9466C10.8223 49.9823 10.9578 50 11.0924 50C11.3606 50 11.6254 49.9296 11.864 49.7918L17.4637 46.5577C18.2032 46.1306 18.4576 45.1814 18.0306 44.4416L12.4699 34.8069L18.0478 31.9353C19.3872 31.2458 20.9293 31.0678 22.3903 31.434L31.6256 33.7486C32.2521 33.9056 32.6896 34.4667 32.6896 35.1126C32.6896 35.8881 32.0591 36.5188 31.2839 36.5188H30.2285H24.0252C23.4859 36.5188 23.0486 36.9563 23.0486 37.4957C23.0486 38.0352 23.4859 38.4726 24.0252 38.4726H30.2285H31.2839H32.1245C33.0724 38.4726 33.9635 38.1034 34.6337 37.433L42.8764 29.1873C43.4519 28.6115 44.3645 28.562 44.9988 29.0724C45.3557 29.3594 45.566 29.7696 45.5907 30.227C45.6156 30.6844 45.4508 31.1148 45.127 31.4386L36.4404 40.1282C35.256 41.3131 33.6811 41.9658 32.006 41.9658H24.0375C23.4982 41.9658 23.0609 42.4032 23.0609 42.9426C23.0609 43.4821 23.4982 43.9195 24.0375 43.9195H32.006C34.2027 43.9195 36.2681 43.0637 37.8216 41.5098L46.5082 32.8203C47.2188 32.1092 47.5954 31.1254 47.541 30.1214C47.4869 29.1172 47.0065 28.1799 46.2231 27.5498ZM14.5754 45.9697L12.1477 41.7635C11.8779 41.2964 11.2807 41.1361 10.8137 41.4059C10.3466 41.6757 10.1866 42.2731 10.4563 42.7403L12.8839 46.9467L11.238 47.8973L4.57044 36.3449L9.46935 33.5155L16.1368 45.0678L14.5754 45.9697ZM45.1172 3.303C45.6565 3.303 46.0938 2.86565 46.0938 2.3261V0.9769C46.0938 0.437359 45.6565 0 45.1172 0C44.578 0 44.1407 0.437359 44.1407 0.9769V2.3261C44.1407 2.86565 44.578 3.303 45.1172 3.303ZM45.1172 9.76907C45.6565 9.76907 46.0938 9.33175 46.0938 8.79215V7.44298C46.0938 6.90344 45.6565 6.46608 45.1172 6.46608C44.578 6.46608 44.1407 6.90344 44.1407 7.44298V8.79215C44.1407 9.33175 44.578 9.76907 45.1172 9.76907ZM49.0235 3.90761H47.6747C47.1354 3.90761 46.6981 4.34497 46.6981 4.88451C46.6981 5.42406 47.1354 5.86142 47.6747 5.86142H49.0235C49.5627 5.86142 50 5.42406 50 4.88451C50 4.34497 49.5627 3.90761 49.0235 3.90761ZM41.211 5.86142H42.5598C43.0991 5.86142 43.5364 5.42406 43.5364 4.88451C43.5364 4.34497 43.0991 3.90761 42.5598 3.90761H41.211C40.6717 3.90761 40.2344 4.34497 40.2344 4.88451C40.2344 5.42406 40.6717 5.86142 41.211 5.86142ZM4.88282 23.4272C5.42208 23.4272 5.85938 22.9898 5.85938 22.4503V21.1011C5.85938 20.5616 5.42208 20.1242 4.88282 20.1242C4.34357 20.1242 3.90626 20.5616 3.90626 21.1011V22.4503C3.90626 22.9898 4.34357 23.4272 4.88282 23.4272ZM4.88282 29.8932C5.42208 29.8932 5.85938 29.4557 5.85938 28.9162V27.5669C5.85938 27.0275 5.42208 26.5901 4.88282 26.5901C4.34357 26.5901 3.90626 27.0275 3.90626 27.5669V28.9162C3.90626 29.4557 4.34357 29.8932 4.88282 29.8932ZM7.4402 25.9856H8.78901C9.32826 25.9856 9.7656 25.5481 9.7656 25.0087C9.7656 24.4692 9.32826 24.0318 8.78901 24.0318H7.4402C6.90094 24.0318 6.46364 24.4692 6.46364 25.0087C6.46364 25.5481 6.90094 25.9856 7.4402 25.9856ZM3.30196 25.0087C3.30196 24.4692 2.86465 24.0318 2.3254 24.0318H0.976568C0.437306 24.0318 0 24.4692 0 25.0087C0 25.5481 0.437306 25.9856 0.976568 25.9856H2.3254C2.86465 25.9856 3.30196 25.5481 3.30196 25.0087ZM20.1319 41.9655C19.874 41.9655 19.6231 42.0701 19.4415 42.2517C19.2589 42.4334 19.1553 42.6854 19.1553 42.9424C19.1553 43.1993 19.2589 43.4514 19.4415 43.6331C19.6231 43.8147 19.875 43.9193 20.1319 43.9193C20.3888 43.9193 20.6406 43.8148 20.8223 43.6331C21.004 43.4514 21.1084 43.1993 21.1084 42.9424C21.1084 42.6854 21.004 42.4334 20.8223 42.2517C20.6406 42.0701 20.3888 41.9655 20.1319 41.9655ZM8.65826 38.177C8.4766 38.3588 8.37201 38.6108 8.37201 38.8677C8.37201 39.1246 8.47651 39.3766 8.65826 39.5584C8.83976 39.74 9.09176 39.8446 9.3486 39.8446C9.60652 39.8446 9.85735 39.7401 10.039 39.5584C10.2216 39.3766 10.3251 39.1246 10.3251 38.8677C10.3251 38.6108 10.2216 38.3588 10.039 38.177C9.85735 37.9954 9.60635 37.8908 9.3486 37.8908C9.09185 37.8908 8.83985 37.9953 8.65826 38.177Z" fill="#367FD3"/>
</svg>
