<svg width="50" height="50" viewBox="0 0 50 50" fill="none" xmlns="http://www.w3.org/2000/svg">
<path d="M49.0039 40.7807C48.4537 40.7807 48.0078 41.218 48.0078 41.7573V47.6136C48.0078 47.8526 47.8093 48.047 47.5656 48.047H14.6874C14.4435 48.047 14.2452 47.8526 14.2452 47.6136V35.7645L14.9214 35.1018C15.3104 34.7205 15.3104 34.102 14.9214 33.7206L14.6775 33.4815L16.9463 31.2574C20.7874 33.0539 25.5513 32.2593 28.5527 29.2971C30.48 27.4076 31.5414 24.8953 31.5414 22.223C31.5414 16.7689 26.8993 12.2182 21.3358 12.2182C18.7022 12.2182 16.1399 13.233 14.2452 15.0277V6.61594C14.2452 6.37688 14.4436 6.18245 14.6874 6.18245H18.4085V7.35071C18.4085 8.93578 19.7606 10.2624 21.3774 10.2624H40.8755C42.4918 10.2624 43.8454 8.93511 43.8454 7.35071V6.18245H47.5655C47.8093 6.18245 48.0077 6.37688 48.0077 6.61594V33.1726C48.0077 33.7119 48.4537 34.1491 49.0038 34.1491C49.5541 34.1491 50 33.7119 50 33.1726V6.61594C50 5.29992 48.9079 4.22931 47.5655 4.22931L38.7185 4.22785V3.55607C38.7185 1.59522 37.0913 0 35.0912 0H27.1626C25.1624 0 23.5352 1.59522 23.5352 3.55607V4.22785L14.6874 4.22931C13.345 4.22931 12.2529 5.30002 12.2529 6.61594V17.6608C10.7942 20.4567 10.7639 23.7895 12.1624 26.6076L9.91348 28.8123L9.69102 28.5943C9.30203 28.2129 8.67137 28.2131 8.28229 28.5943L1.35633 35.384C-0.45201 37.157 -0.45221 40.1186 1.35633 41.8917C3.16487 43.6647 6.18624 43.6647 7.99488 41.8916L12.2529 37.7168V47.6133C12.2529 48.9293 13.345 50 14.6874 50H47.5655C48.9079 50 50 48.9292 50 47.6133V41.7571C50.0001 41.2179 49.5541 40.7807 49.0039 40.7807ZM24.5313 6.18098C25.0816 6.18098 25.5275 5.74367 25.5275 5.20441V3.55607C25.5275 2.67218 26.261 1.95313 27.1626 1.95313H35.0912C35.9927 1.95313 36.7263 2.67218 36.7263 3.55607V5.20441C36.7263 5.74367 37.1723 6.18098 37.7225 6.18098H41.8517V7.35227C41.8517 7.87278 41.4075 8.30804 40.8766 8.30804H21.3775C20.8471 8.30804 20.4012 7.87278 20.4012 7.35227V6.18098H24.5313ZM15.2928 27.6735C12.7758 24.9959 12.4301 20.8466 14.4701 17.8031C15.9755 15.5551 18.5933 14.1713 21.3358 14.1713C23.8157 14.1713 26.1834 15.2905 27.7391 17.1818C30.1533 20.1241 30.1466 24.3565 27.7178 27.291C24.6071 31.0429 18.6361 31.233 15.2928 27.6735ZM13.2393 28.3142C13.8068 29.038 14.476 29.6357 15.1935 30.2129L13.2681 32.1005L11.3224 30.1934L13.2393 28.3142ZM6.586 40.5106C5.54491 41.5313 3.807 41.5321 2.76521 40.5107C1.71186 39.4781 1.71186 37.7979 2.76521 36.7651L8.98674 30.6659L12.8076 34.4109L6.586 40.5106ZM32.9591 4.15406C32.9574 4.15406 32.9558 4.15406 32.9541 4.15406C32.4283 4.15651 29.8533 4.15651 29.3254 4.15406C29.3237 4.15406 29.3221 4.15406 29.3204 4.15406C28.7725 4.15406 28.327 4.58815 28.3244 5.12585C28.3216 5.66511 28.7655 6.10446 29.3156 6.1072H32.9637C33.5138 6.10456 33.9577 5.6652 33.9551 5.12585C33.9525 4.58825 33.5069 4.15406 32.9591 4.15406ZM23.8466 34.4485C20.9099 34.4485 18.5208 36.7906 18.5208 39.6696C18.5208 42.5485 20.9099 44.8906 23.8466 44.8906C26.0098 44.8906 27.9422 43.6246 28.7694 41.6652C28.9798 41.1668 28.7383 40.5956 28.2298 40.3894C27.7214 40.1831 27.1389 40.4199 26.9285 40.9183C26.4105 42.1451 25.2008 42.9376 23.8465 42.9376C22.0084 42.9376 20.5131 41.4716 20.5131 39.6698C20.5131 37.8678 22.0085 36.4018 23.8465 36.4018C24.3967 36.4018 24.8427 35.9645 24.8427 35.4252C24.8427 34.886 24.3968 34.4485 23.8466 34.4485ZM42.3308 18.6469H34.1465C33.5963 18.6469 33.1503 19.0842 33.1503 19.6235C33.1503 20.1627 33.5963 20.6001 34.1465 20.6001H42.3308C42.881 20.6001 43.3269 20.1627 43.3269 19.6235C43.3269 19.0842 42.8809 18.6469 42.3308 18.6469ZM39.2316 25.2334C39.7818 25.2334 40.2278 24.7962 40.2278 24.2569C40.2278 23.7176 39.7818 23.2803 39.2316 23.2803H34.1465C33.5963 23.2803 33.1503 23.7176 33.1503 24.2569C33.1503 24.7962 33.5963 25.2334 34.1465 25.2334H39.2316ZM43.3266 37.2574C43.3266 36.7181 42.8806 36.2809 42.3304 36.2809H33.4629C32.9127 36.2809 32.4667 36.7181 32.4667 37.2574C32.4667 37.7966 32.9127 38.234 33.4629 38.234H42.3304C42.8806 38.234 43.3266 37.7966 43.3266 37.2574ZM33.4629 40.9142C32.9127 40.9142 32.4667 41.3516 32.4667 41.8908C32.4667 42.4301 32.9127 42.8674 33.4629 42.8674H39.2313C39.7815 42.8674 40.2274 42.4301 40.2274 41.8908C40.2274 41.3516 39.7815 40.9142 39.2313 40.9142H33.4629ZM23.5693 38.2805C23.1803 37.8992 22.5495 37.8992 22.1605 38.2805C21.7715 38.6618 21.7715 39.2801 22.1605 39.6616L23.5201 40.9943C23.9009 41.3676 24.5471 41.3685 24.9289 40.9943L28.5535 37.4411C28.9425 37.0598 28.9426 36.4414 28.5535 36.06C28.1645 35.6788 27.5337 35.6787 27.1447 36.06L24.2244 38.9226L23.5693 38.2805ZM49.9255 37.1066C49.7166 36.6153 49.1272 36.3749 48.6246 36.5783C48.123 36.7813 47.8776 37.3624 48.0857 37.8538C48.2938 38.3455 48.8845 38.5858 49.3867 38.382C49.887 38.1788 50.1344 37.5975 49.9255 37.1066ZM19.3503 25.8003C19.7311 26.1736 20.3773 26.1745 20.7591 25.8003L25.9759 20.6863C26.3649 20.3049 26.3649 19.6866 25.9759 19.3051C25.5868 18.924 24.9561 18.9239 24.5671 19.3051L20.0546 23.7287L18.2062 21.9167C17.8172 21.5354 17.1864 21.5354 16.7974 21.9167C16.4084 22.298 16.4084 22.9164 16.7974 23.2978L19.3503 25.8003Z" fill="#367FD3"/>
</svg>
