<svg width="50" height="50" viewBox="0 0 50 50" fill="none" xmlns="http://www.w3.org/2000/svg">
<path d="M49.1967 0.803362C48.1983 -0.195326 46.4989 -0.265134 44.4107 0.606524C42.8348 1.26456 41.1293 2.41126 39.5347 3.87572C39.4489 3.78989 39.3647 3.70292 39.2777 3.61861C39.0854 3.43131 38.8306 3.3264 38.5612 3.32946L24.0379 3.63577C23.7854 3.64112 23.5443 3.74411 23.3654 3.92264L18.3407 8.94733C17.9581 9.33033 17.9581 9.95142 18.3407 10.334C18.7237 10.717 19.3443 10.717 19.7273 10.334L24.4736 5.58813L38.1142 5.30012C36.9187 6.60781 35.9387 7.98797 35.2653 9.30975C33.8684 9.30667 32.4703 9.83658 31.4067 10.9001C30.3795 11.9274 29.8134 13.2938 29.8134 14.7468C29.8134 16.1998 30.3791 17.5659 31.4067 18.5932C32.4341 19.6209 33.8005 20.1866 35.2535 20.1866C36.7066 20.1866 38.0726 19.6209 39.1002 18.5932C40.1276 17.5659 40.6932 16.1998 40.6932 14.7468C40.6932 14.5046 40.6761 14.2651 40.6452 14.0293C40.6448 14.0258 40.6445 14.0224 40.6441 14.019C40.4877 12.8417 39.954 11.7538 39.1002 10.9001C38.5639 10.3642 37.9429 9.964 37.2802 9.69883C37.851 8.69442 38.6207 7.65417 39.5363 6.65053L44.7014 11.8157L44.4122 25.5268L22.3057 47.633L2.36702 27.6943L14.1464 15.9149C14.5294 15.5319 14.5294 14.9113 14.1464 14.5283C13.7634 14.1453 13.1432 14.1453 12.7597 14.5283L0.287247 27.0012C0.103378 27.1851 0 27.4342 0 27.6943C0 27.9545 0.103378 28.2036 0.287247 28.3874L21.6126 49.7127C21.8041 49.9042 22.0547 50 22.3057 50C22.5567 50 22.8077 49.9042 22.9992 49.7127L46.0773 26.6346C46.2559 26.4557 46.3589 26.2146 46.3642 25.9617L46.6709 11.4383C46.6762 11.1713 46.5725 10.9134 46.3837 10.7247L46.1242 10.4653C47.5887 8.87067 48.7354 7.16513 49.3935 5.58928C50.2652 3.5015 50.1953 1.80167 49.1967 0.803362ZM35.2532 18.2258C34.3239 18.2258 33.4503 17.8638 32.7931 17.2066C32.1362 16.5497 31.7742 15.6758 31.7742 14.7465C31.7742 13.8172 32.1357 12.9437 32.7931 12.2863C33.2702 11.8092 33.8527 11.5009 34.4662 11.3594C34.0759 12.8868 34.28 14.1285 35.0757 14.9242C35.6117 15.4602 36.3461 15.7288 37.2337 15.7288C37.6682 15.7288 38.1401 15.6623 38.6425 15.5338C38.4979 16.1621 38.1806 16.7393 37.7137 17.2066C37.0563 17.8638 36.1827 18.2258 35.2532 18.2258ZM38.5147 13.5315C37.3859 13.8993 36.7119 13.7874 36.4624 13.5376C36.1488 13.224 36.1595 12.4497 36.4689 11.4879C36.9232 11.6566 37.3489 11.9221 37.7137 12.2863C38.0726 12.6453 38.3427 13.0695 38.5147 13.5315ZM47.5837 4.83397C47.0192 6.1859 46.0212 7.66791 44.7361 9.07708L40.9229 5.26351C42.3321 3.97833 43.8137 2.98041 45.166 2.41583C46.3962 1.90237 47.4342 1.81349 47.81 2.18962C48.1865 2.56575 48.0976 3.60373 47.5837 4.83397ZM15.868 26.9032C14.8552 27.9159 14.2975 29.2622 14.2975 30.6946C14.2975 31.707 14.5775 32.6756 15.0986 33.5148L14.1296 34.4837C13.7466 34.8667 13.7466 35.4873 14.1296 35.8703C14.3211 36.0618 14.5721 36.1576 14.8227 36.1576C15.0737 36.1576 15.3247 36.0618 15.5162 35.8703L16.4207 34.9659C17.3492 35.6689 18.4891 36.0562 19.6621 36.0562C19.7463 36.0562 19.8314 36.0542 19.9162 36.05C21.4199 35.9783 22.7699 35.2371 23.6198 34.0172C24.4384 32.8422 24.6605 31.3858 24.229 30.0212C24.0265 29.3808 23.6892 28.7586 23.2238 28.1627L27.2106 24.1757C27.399 24.6025 27.499 25.0675 27.499 25.5482C27.499 26.4564 27.1453 27.3106 26.503 27.9529C26.12 28.3356 26.12 28.9566 26.503 29.3396C26.8856 29.7222 27.5062 29.7226 27.8896 29.3396C28.902 28.3267 29.4597 26.9802 29.4597 25.5482C29.4597 24.5357 29.1801 23.5668 28.659 22.7276L29.628 21.7587C30.0106 21.376 30.0106 20.755 29.628 20.372C29.245 19.9894 28.6243 19.9894 28.2413 20.372L27.3365 21.2768C26.3405 20.5231 25.1018 20.1313 23.8411 20.1923C22.3373 20.2641 20.9873 21.0052 20.1374 22.2252C19.3187 23.4005 19.0971 24.8569 19.5282 26.2211C19.7307 26.8616 20.0683 27.4837 20.5337 28.0796L16.5466 32.0667C16.3582 31.6398 16.2582 31.1748 16.2582 30.6942C16.2582 29.7859 16.6122 28.9318 17.2546 28.2897C17.6372 27.9068 17.6372 27.2862 17.2546 26.9032C16.8716 26.5202 16.251 26.5202 15.868 26.9032ZM22.3594 30.6126C22.6058 31.3922 22.4792 32.2247 22.0112 32.8964C21.5114 33.6136 20.7142 34.0488 19.8227 34.0916C19.1139 34.1259 18.4166 33.9352 17.8276 33.559L21.8219 29.5647C22.0672 29.9114 22.2484 30.262 22.3594 30.6126ZM21.3977 25.6298C21.1513 24.8504 21.2783 24.0181 21.7464 23.3459C22.2457 22.6292 23.0434 22.1935 23.9345 22.1512C24.6425 22.1172 25.3402 22.3076 25.9296 22.6838L21.9352 26.6781C21.69 26.3309 21.5087 25.9807 21.3977 25.6298ZM15.3387 12.8051C15.4966 13.187 15.893 13.4357 16.3053 13.409C16.6978 13.3838 17.0454 13.1175 17.172 12.7452C17.3025 12.3626 17.1777 11.9297 16.8657 11.6729C16.5407 11.4055 16.0665 11.378 15.7129 11.6062C15.3207 11.8594 15.1602 12.3733 15.3387 12.8051Z" fill="#367FD3"/>
</svg>
