<svg width="50" height="50" viewBox="0 0 50 50" fill="none" xmlns="http://www.w3.org/2000/svg">
<path d="M47.8401 8.82884L40.0851 7.03436V3.04554C40.0851 1.36614 38.7967 0 37.213 0H12.7861C11.203 0 9.91496 1.36614 9.91496 3.04554V7.03436L2.16004 8.82884C0.681418 9.1708 -0.259118 10.7253 0.063345 12.2942L6.97452 45.8994C7.29289 47.4485 8.77872 48.4619 10.2404 48.1236L18.5486 46.2012C19.8949 48.4803 22.2826 50 24.9997 50C27.7169 50 30.1044 48.4804 31.4509 46.2012L39.7598 48.1237C41.2212 48.4618 42.7072 47.4488 43.0256 45.8997L46.1321 30.7941C46.2471 30.2351 45.9131 29.683 45.3861 29.5612C44.8595 29.4396 44.3387 29.7935 44.2239 30.3526L41.1173 45.4583C41.0255 45.9049 40.5971 46.1972 40.1759 46.0995L32.283 44.2733C32.4053 43.8469 32.4938 43.4071 32.5469 42.9649H37.213C38.7967 42.9649 40.085 41.5983 40.085 39.9184V9.15491L47.4239 10.8532C47.8502 10.9518 48.1214 11.4003 48.0284 11.8526L46.055 21.4482C45.94 22.0072 46.274 22.5592 46.801 22.6812C47.3277 22.8024 47.8484 22.4487 47.9632 21.8898L49.9366 12.294C50.2592 10.7253 49.3186 9.1708 47.8401 8.82884ZM17.7159 44.2733L9.82397 46.0994C9.40269 46.1974 8.97451 45.9044 8.88276 45.458L1.97156 11.8529C1.87849 11.4003 2.14968 10.9518 2.57615 10.8532L9.91488 9.15491V39.9184C9.91488 41.5765 11.2234 42.9656 12.787 42.9649H17.452C17.5052 43.4071 17.5937 43.8469 17.7159 44.2733ZM24.9996 47.9282C21.9206 47.9282 19.3438 45.1925 19.3438 41.9287C19.3438 38.6206 21.881 35.9293 24.9996 35.9293C28.0761 35.9293 30.6553 38.6638 30.6553 41.929C30.6553 45.1905 28.0786 47.9282 24.9996 47.9282ZM38.1319 39.9182C38.1319 40.4557 37.7198 40.893 37.213 40.893H32.5461C32.0645 36.9208 28.7628 33.8571 25.0001 33.8571C21.2378 33.8571 17.9341 36.9255 17.453 40.893H12.7871C12.2879 40.893 11.8681 40.4475 11.8681 39.9182V3.04554C11.8681 2.50853 12.28 2.07179 12.7861 2.07179H37.213C37.7198 2.07179 38.1319 2.50863 38.1319 3.04554V39.9182ZM27.0063 39.7772L24.1893 42.7653L23.2167 41.7336C22.8352 41.3293 22.217 41.3293 21.8357 41.7336C21.4543 42.138 21.4542 42.794 21.8357 43.1986L23.4989 44.9629C23.8748 45.3615 24.504 45.3617 24.8799 44.9629L28.3874 41.2423C28.7688 40.8379 28.7689 40.1819 28.3874 39.7772C28.006 39.3729 27.3876 39.3729 27.0063 39.7772ZM33.0047 7.24662H27.5033C26.9641 7.24662 26.5268 7.71049 26.5268 8.28251C26.5268 8.85453 26.9641 9.31839 27.5033 9.31839H33.0047C33.5441 9.31839 33.9812 8.85453 33.9812 8.28251C33.9812 7.71049 33.5441 7.24662 33.0047 7.24662ZM27.7158 28.3213H16.491C15.9516 28.3213 15.5144 28.7852 15.5144 29.3572C15.5144 29.9292 15.9516 30.393 16.491 30.393H27.7158C28.2552 30.393 28.6924 29.9292 28.6924 29.3572C28.6924 28.7852 28.2552 28.3213 27.7158 28.3213ZM33.0046 14.2713H16.4909C15.9515 14.2713 15.5144 14.7353 15.5144 15.3072C15.5144 15.8793 15.9515 16.3431 16.4909 16.3431H33.0046C33.5439 16.3431 33.9812 15.8793 33.9812 15.3072C33.9812 14.7353 33.5439 14.2713 33.0046 14.2713ZM33.0046 21.2963H16.4909C15.9515 21.2963 15.5144 21.7603 15.5144 22.3322C15.5144 22.9043 15.9515 23.3681 16.4909 23.3681H33.0046C33.5439 23.3681 33.9812 22.9043 33.9812 22.3322C33.9812 21.7603 33.5439 21.2963 33.0046 21.2963ZM47.0031 25.6868C46.6766 24.8549 45.5261 24.8494 45.1994 25.6868C45.0408 26.0932 45.1474 26.5812 45.4639 26.8674C45.7809 27.1544 46.2448 27.1981 46.6035 26.9713C47.0147 26.7112 47.1837 26.1548 47.0031 25.6868Z" fill="#367FD3"/>
</svg>
