<svg width="50" height="50" viewBox="0 0 50 50" fill="none" xmlns="http://www.w3.org/2000/svg">
<path d="M25 0C11.7282 0 0 10.7216 0 24.4141V34.375C0 38.1443 3.06663 41.2109 6.83593 41.2109H10.7422C12.3577 41.2109 13.6718 39.8967 13.6718 38.2812V22.4609C13.6718 20.8454 12.3577 19.5312 10.7422 19.5312C10.7422 19.5312 6.62193 19.5347 6.5155 19.5397C8.32557 13.0886 13.921 7.86552 20.8447 6.31943C21.3711 6.20193 21.7026 5.68008 21.5851 5.15366C21.4672 4.62722 20.9457 4.29573 20.4189 4.41322C12.458 6.19125 6.08749 12.4088 4.39033 19.9829C3.55682 20.3026 2.80876 20.7794 2.1759 21.3726C3.7529 10.574 13.5632 1.95312 25 1.95312C36.4365 1.95312 46.2471 10.574 47.8241 21.3726C47.1912 20.779 46.4432 20.3022 45.6097 19.9829C43.9125 12.4084 37.542 6.19087 29.5811 4.41322C29.055 4.29535 28.5327 4.62722 28.4153 5.15366C28.2978 5.68008 28.6289 6.20193 29.1553 6.31943C36.079 7.86552 41.6744 13.0886 43.4849 19.5397C43.3781 19.5347 43.2713 19.5312 43.1641 19.5312H39.2578C37.6423 19.5312 36.3282 20.8454 36.3282 22.4609V38.2812C36.3282 39.8967 37.6423 41.2109 39.2578 41.2109H42.1875V43.1641C42.1875 44.2409 41.3112 45.1172 40.2343 45.1172H28.7827C28.3477 43.4342 26.8169 42.1875 25 42.1875C22.8462 42.1875 21.0938 43.94 21.0938 46.0938C21.0938 48.2475 22.8462 50 25 50C26.8169 50 28.3477 48.7533 28.7827 47.0703H40.2343C42.3882 47.0703 44.1407 45.3178 44.1407 43.1641V41.14C47.4491 40.6647 50 37.8128 50 34.375V24.4141C50 10.836 38.4014 0 25 0ZM11.7188 22.4609V38.2812C11.7188 38.8199 11.2808 39.2578 10.7422 39.2578H7.8125V21.4843H10.7422C11.2808 21.4843 11.7188 21.9223 11.7188 22.4609ZM5.85938 21.5824V39.1594C3.63312 38.7058 1.95312 36.7328 1.95312 34.375V26.3672C1.95312 24.0742 3.57704 22.0455 5.85938 21.5824ZM25 48.0468C23.9231 48.0468 23.0468 47.1707 23.0468 46.0938C23.0468 45.0168 23.9231 44.1407 25 44.1407C26.0769 44.1407 26.9532 45.0168 26.9532 46.0938C26.9532 47.1707 26.0769 48.0468 25 48.0468ZM38.2812 38.2812V22.4609C38.2812 21.9223 38.7192 21.4843 39.2578 21.4843H42.1875V39.2578H39.2578C38.7192 39.2578 38.2812 38.8199 38.2812 38.2812ZM44.1407 39.1594V21.5824C46.4333 22.0482 48.0468 24.0837 48.0468 26.3672V34.375C48.0468 36.7328 46.3669 38.7058 44.1407 39.1594ZM25.9766 4.88282C25.9766 5.42221 25.5394 5.85938 25 5.85938C24.4606 5.85938 24.0234 5.42221 24.0234 4.88282C24.0234 4.34342 24.4606 3.90625 25 3.90625C25.5394 3.90625 25.9766 4.34342 25.9766 4.88282Z" fill="#367FD3"/>
</svg>
