<svg width="30" height="30" viewBox="0 0 30 30" fill="none" xmlns="http://www.w3.org/2000/svg">
<path d="M4 12V25" stroke="black" stroke-width="0.586815" stroke-miterlimit="10"/>
<path d="M26 25V15" stroke="black" stroke-width="0.586815" stroke-miterlimit="10"/>
<path d="M27.5 25H2.5C2.224 25 2 25.224 2 25.5V26C2 27.1045 2.8955 28 4 28H26C27.1045 28 28 27.1045 28 26V25.5C28 25.224 27.776 25 27.5 25Z" stroke="black" stroke-width="0.586815" stroke-miterlimit="10"/>
<path d="M15.734 17.5C15.3285 17.5 15 17.1715 15 16.766V15H13.4375C13.196 15 13 14.804 13 14.5625V6C13 5.4475 13.4475 5 14 5H27C27.5525 5 28 5.4475 28 6V14C28 14.5525 27.5525 15 27 15H18.5L16.204 17.33C16.0725 17.44 15.906 17.5 15.734 17.5Z" stroke="black" stroke-width="0.586815" stroke-miterlimit="10"/>
<path d="M20.5 13C21.3284 13 22 12.3284 22 11.5C22 10.6716 21.3284 10 20.5 10C19.6716 10 19 10.6716 19 11.5C19 12.3284 19.6716 13 20.5 13Z" stroke="black" stroke-width="0.586815" stroke-miterlimit="10"/>
<path d="M16.5 10C17.3284 10 18 9.32843 18 8.5C18 7.67157 17.3284 7 16.5 7C15.6716 7 15 7.67157 15 8.5C15 9.32843 15.6716 10 16.5 10Z" stroke="black" stroke-width="0.586815" stroke-miterlimit="10"/>
<path d="M24.5 10C25.3284 10 26 9.32843 26 8.5C26 7.67157 25.3284 7 24.5 7C23.6716 7 23 7.67157 23 8.5C23 9.32843 23.6716 10 24.5 10Z" stroke="black" stroke-width="0.586815" stroke-miterlimit="10"/>
<path d="M11.5 12H10V13.795C10 14.185 9.685 14.5 9.295 14.5C9.105 14.5 8.925 14.425 8.795 14.295L6.5 12H3C2.4475 12 2 11.5525 2 11V3C2 2.4475 2.4475 2 3 2H14.5C15.0525 2 15.5 2.4475 15.5 3V3.5" stroke="black" stroke-width="0.586815" stroke-miterlimit="10"/>
<path d="M3.5 4H7.5" stroke="black" stroke-width="0.586815" stroke-miterlimit="10"/>
<path d="M3.5 6H11.5" stroke="black" stroke-width="0.586815" stroke-miterlimit="10"/>
<path d="M3.5 8H7" stroke="black" stroke-width="0.586815" stroke-miterlimit="10"/>
<path d="M8 8H9" stroke="black" stroke-width="0.586815" stroke-miterlimit="10"/>
<path d="M10 8H11.5" stroke="black" stroke-width="0.586815" stroke-miterlimit="10"/>
<path d="M6.5 14.5H5.5V15.5H6.5V14.5Z" fill="black"/>
<path d="M6.5 16.5H5.5V17.5H6.5V16.5Z" fill="black"/>
<path d="M6.5 18.5H5.5V19.5H6.5V18.5Z" fill="black"/>
<path d="M6.5 20.5H5.5V21.5H6.5V20.5Z" fill="black"/>
<path d="M6.5 22.5H5.5V23.5H6.5V22.5Z" fill="black"/>
<path d="M21.7002 10.6004L23.3002 9.40039" stroke="black" stroke-width="0.586815" stroke-miterlimit="10"/>
<path d="M17.7002 9.40039L19.3002 10.6004" stroke="black" stroke-width="0.586815" stroke-miterlimit="10"/>
<path d="M24 21C24 21.289 23.789 21.494 23.5 21.494H21.703L20.3645 22.827C20.2715 22.937 20.144 23 20 23C19.729 23 19.5 22.7805 19.5 22.5095V17.236C19.5 17.095 19.6155 17.0005 19.7365 17C19.7915 17 19.848 17.0195 19.895 17.063L23.826 20.5875C23.937 20.6865 24 20.8515 24 21V21Z" stroke="black" stroke-width="0.586815" stroke-miterlimit="10"/>
<path d="M21.5 26.5V28" stroke="black" stroke-width="0.586815" stroke-miterlimit="10"/>
<path d="M23.5 26.5V28" stroke="black" stroke-width="0.586815" stroke-miterlimit="10"/>
<path d="M19.5 26.5V28" stroke="black" stroke-width="0.586815" stroke-miterlimit="10"/>
</svg>
