<svg width="30" height="30" viewBox="0 0 30 30" fill="none" xmlns="http://www.w3.org/2000/svg">
<g clip-path="url(#clip0_628_4536)">
<path d="M3.46148 6.5C4.82685 6.5 5.9337 5.26878 5.9337 3.75C5.9337 2.23122 4.82685 1 3.46148 1C2.09611 1 0.989258 2.23122 0.989258 3.75C0.989258 5.26878 2.09611 6.5 3.46148 6.5Z" stroke="black" stroke-width="0.586815" stroke-miterlimit="10"/>
<path d="M12.0127 7.29395L16.7114 9.64594" stroke="black" stroke-width="0.586815" stroke-miterlimit="10"/>
<path d="M15.3281 8.9541V12.0041" stroke="black" stroke-width="0.586815" stroke-miterlimit="10"/>
<path d="M7.80273 16.109C7.80273 16.109 8.99533 25.8255 9.39831 29.064C9.42896 29.31 9.63712 29.5 9.8888 29.5H16.3166C16.5648 29.5 16.7705 29.315 16.8056 29.0735L19.2778 12.0735C19.2813 12.0495 19.2832 12.025 19.2832 12C19.2832 11.724 19.0617 11.5 18.7888 11.5C18.7656 11.5 18.7423 11.5015 18.7196 11.505L11.9477 12.5" stroke="black" stroke-width="0.586815" stroke-miterlimit="10"/>
<path d="M25.796 18.586C26.1535 18.224 26.648 18 27.1943 18C28.2865 18 29.1721 18.8955 29.1721 20V22.5H19.2832" stroke="black" stroke-width="0.586815" stroke-miterlimit="10"/>
<path d="M20.7666 21V20C20.7666 18.8955 21.6522 18 22.7444 18C23.8366 18 24.7222 18.8955 24.7222 20V22.5" stroke="black" stroke-width="0.586815" stroke-miterlimit="10"/>
<path d="M22.7451 16.5C22.7451 15.3955 23.6307 14.5 24.7229 14.5C25.8151 14.5 26.7007 15.3955 26.7007 16.5V18.0645" stroke="black" stroke-width="0.586815" stroke-miterlimit="10"/>
<path d="M19.2832 24.5H23.7332" stroke="black" stroke-width="0.586815" stroke-miterlimit="10"/>
<path d="M24.7227 24.5H26.206" stroke="black" stroke-width="0.586815" stroke-miterlimit="10"/>
<path d="M14.3385 3H13.3496V4H14.3385V3Z" fill="black"/>
<path d="M16.317 3H15.3281V4H16.317V3Z" fill="black"/>
<path d="M12.361 3H11.3721V4H12.361V3Z" fill="black"/>
<path d="M11.2483 5.5L8.72765 7.4575C8.59613 7.56 8.40527 7.465 8.40527 7.297V2C8.40527 1.724 8.62678 1.5 8.89972 1.5H18.7886C19.0615 1.5 19.2831 1.724 19.2831 2V5C19.2831 5.276 19.0615 5.5 18.7886 5.5H11.2483Z" stroke="black" stroke-width="0.586815" stroke-miterlimit="10"/>
<path d="M18.7798 15.5H15.3281" stroke="black" stroke-width="0.586815" stroke-miterlimit="10"/>
<path d="M14.3385 15.5H13.3496" stroke="black" stroke-width="0.586815" stroke-miterlimit="10"/>
<path d="M5.43895 15V27.5L5.98581 27.6845C6.54503 27.873 6.92229 28.404 6.92229 29C6.92229 29.276 6.70078 29.5 6.42784 29.5H3.95562C3.40926 29.5 2.96673 29.0525 2.96673 28.5V20.831C2.96673 20.2875 2.82038 19.754 2.54398 19.2875L1.90615 18.2125C1.62975 17.7465 1.4834 17.213 1.4834 16.669V10.0405C1.4834 9.196 2.16721 8.5 3.00283 8.5C3.58479 8.5 4.11038 8.7415 4.51138 9.147C5.2476 9.8915 7.45579 12.1255 7.45579 12.1255L10.2059 13.0525C10.5965 13.186 10.8778 13.56 10.8778 14C10.8778 14.5525 10.4353 15 9.88895 15C9.77919 15 9.67338 14.982 9.57449 14.9485L6.60881 13.9485C6.46394 13.8995 6.33241 13.8175 6.22463 13.7085L4.13214 11.5925" stroke="black" stroke-width="0.586815" stroke-miterlimit="10"/>
</g>
<defs>
<clipPath id="clip0_628_4536">
<rect width="29.6667" height="30" fill="white"/>
</clipPath>
</defs>
</svg>
