<svg width="30" height="30" viewBox="0 0 30 30" fill="none" xmlns="http://www.w3.org/2000/svg">
<path d="M18.6895 7.3525C20.388 6.18 21.5005 4.22 21.5005 2" stroke="black" stroke-width="0.586815" stroke-miterlimit="10"/>
<path d="M8.5 2C8.5 5.59 11.41 8.5 15 8.5C18.59 8.5 21.5 11.41 21.5 15C21.5 17.2225 20.3845 19.184 18.6835 20.3565" stroke="black" stroke-width="0.586815" stroke-miterlimit="10"/>
<path d="M11.324 22.6387C9.6185 23.8102 8.5 25.7742 8.5 27.9997" stroke="black" stroke-width="0.586815" stroke-miterlimit="10"/>
<path d="M21.5 27.9999C21.5 24.4099 18.59 21.4999 15 21.4999C11.41 21.4999 8.5 18.5899 8.5 14.9999C8.5 12.7814 9.6115 10.8224 11.308 9.64941" stroke="black" stroke-width="0.586815" stroke-miterlimit="10"/>
<path d="M8.5 15H18" stroke="black" stroke-width="0.586815" stroke-miterlimit="10"/>
<path d="M9.23242 12H15.9999" stroke="black" stroke-width="0.586815" stroke-miterlimit="10"/>
<path d="M9.23242 18H15.9999" stroke="black" stroke-width="0.586815" stroke-miterlimit="10"/>
<path d="M19.5 15H21.5" stroke="black" stroke-width="0.586815" stroke-miterlimit="10"/>
<path d="M18.5 12H20.768" stroke="black" stroke-width="0.586815" stroke-miterlimit="10"/>
<path d="M18.5 18H20.768" stroke="black" stroke-width="0.586815" stroke-miterlimit="10"/>
<path d="M9.52246 5.5H17.0005" stroke="black" stroke-width="0.586815" stroke-miterlimit="10"/>
<path d="M18.5 5.5H20.4775" stroke="black" stroke-width="0.586815" stroke-miterlimit="10"/>
<path d="M9.52246 24.5H17.0005" stroke="black" stroke-width="0.586815" stroke-miterlimit="10"/>
<path d="M18.5 24.5H20.4775" stroke="black" stroke-width="0.586815" stroke-miterlimit="10"/>
<path d="M3 9C3.82843 9 4.5 8.32843 4.5 7.5C4.5 6.67157 3.82843 6 3 6C2.17157 6 1.5 6.67157 1.5 7.5C1.5 8.32843 2.17157 9 3 9Z" stroke="black" stroke-width="0.586815" stroke-miterlimit="10"/>
<path d="M3 24C3.82843 24 4.5 23.3284 4.5 22.5C4.5 21.6716 3.82843 21 3 21C2.17157 21 1.5 21.6716 1.5 22.5C1.5 23.3284 2.17157 24 3 24Z" stroke="black" stroke-width="0.586815" stroke-miterlimit="10"/>
<path d="M3.5 16.5C4.32843 16.5 5 15.8284 5 15C5 14.1716 4.32843 13.5 3.5 13.5C2.67157 13.5 2 14.1716 2 15C2 15.8284 2.67157 16.5 3.5 16.5Z" stroke="black" stroke-width="0.586815" stroke-miterlimit="10"/>
<path d="M4.5 7.5H6.2345L7.634 11.4145" stroke="black" stroke-width="0.586815" stroke-miterlimit="10"/>
<path d="M7.32617 19.4454L7.63367 18.5859" stroke="black" stroke-width="0.586815" stroke-miterlimit="10"/>
<path d="M4.5 22.4999H6.2345L6.9115 20.6064" stroke="black" stroke-width="0.586815" stroke-miterlimit="10"/>
<path d="M5 15H7" stroke="black" stroke-width="0.586815" stroke-miterlimit="10"/>
<path d="M27 24C27.8284 24 28.5 23.3284 28.5 22.5C28.5 21.6716 27.8284 21 27 21C26.1716 21 25.5 21.6716 25.5 22.5C25.5 23.3284 26.1716 24 27 24Z" stroke="black" stroke-width="0.586815" stroke-miterlimit="10"/>
<path d="M27 9C27.8284 9 28.5 8.32843 28.5 7.5C28.5 6.67157 27.8284 6 27 6C26.1716 6 25.5 6.67157 25.5 7.5C25.5 8.32843 26.1716 9 27 9Z" stroke="black" stroke-width="0.586815" stroke-miterlimit="10"/>
<path d="M26.5 16.5C27.3284 16.5 28 15.8284 28 15C28 14.1716 27.3284 13.5 26.5 13.5C25.6716 13.5 25 14.1716 25 15C25 15.8284 25.6716 16.5 26.5 16.5Z" stroke="black" stroke-width="0.586815" stroke-miterlimit="10"/>
<path d="M25.5002 22.4999H23.7657L22.3662 18.5859" stroke="black" stroke-width="0.586815" stroke-miterlimit="10"/>
<path d="M22.6737 10.5547L22.3662 11.4147" stroke="black" stroke-width="0.586815" stroke-miterlimit="10"/>
<path d="M25.5004 7.5H23.7659L23.0889 9.394" stroke="black" stroke-width="0.586815" stroke-miterlimit="10"/>
<path d="M25 15H23" stroke="black" stroke-width="0.586815" stroke-miterlimit="10"/>
</svg>
