<svg width="30" height="30" viewBox="0 0 30 30" fill="none" xmlns="http://www.w3.org/2000/svg">
<path d="M0.5 20.5H3C3.5525 20.5 4 20.9475 4 21.5V27.5C4 28.0525 3.5525 28.5 3 28.5H0.5" stroke="#252525" stroke-width="0.586815" stroke-miterlimit="10"/>
<path d="M2.5 22H1.5V23H2.5V22Z" fill="#252525"/>
<path d="M4 22H4.989C5.2995 22 5.591 21.858 5.78 21.6115C6.5485 20.6065 8.8465 18 12 18H19C19.8285 18 20.5 18.6715 20.5 19.5C20.5 20.3285 19.8285 21 19 21H13" stroke="#252525" stroke-width="0.586815" stroke-miterlimit="10"/>
<path d="M19.732 20.8095L27.139 16.659C27.3255 16.555 27.54 16.5 27.7535 16.5C28.442 16.5 29 17.058 29 17.7465C29 18.1165 28.8355 18.467 28.5515 18.704L21.54 24.55C21.1835 24.847 20.7715 25.0705 20.328 25.207L15.2905 26.757C14.7665 26.918 14.221 27 13.673 27H4" stroke="#252525" stroke-width="0.586815" stroke-miterlimit="10"/>
<path d="M20 4.5V7.5" stroke="#252525" stroke-width="0.586815" stroke-miterlimit="10"/>
<path d="M18 1.5V4.5" stroke="#252525" stroke-width="0.586815" stroke-miterlimit="10"/>
<path d="M13 11V14" stroke="#252525" stroke-width="0.586815" stroke-miterlimit="10"/>
<path d="M11 14.5V16.5" stroke="#252525" stroke-width="0.586815" stroke-miterlimit="10"/>
<path d="M13.1905 6.69195C14.4837 5.39874 14.8869 3.7052 14.091 2.90931C13.2951 2.11343 11.6016 2.5166 10.3084 3.80981C9.01515 5.10301 8.61199 6.79656 9.40787 7.59244C10.2037 8.38832 11.8973 7.98515 13.1905 6.69195Z" stroke="#252525" stroke-width="0.586815" stroke-miterlimit="10"/>
<path d="M9.4082 7.5917L10.9082 9.0917C11.7042 9.8877 13.3977 9.4842 14.6912 8.1912C15.9842 6.8977 16.3877 5.2042 15.5917 4.4082L14.0917 2.9082" stroke="#252525" stroke-width="0.586815" stroke-miterlimit="10"/>
<path d="M21.6326 14.8768C22.6126 14.4083 22.7881 12.7403 22.0246 11.1513C21.2611 9.56277 19.8471 8.65477 18.8671 9.12327C17.8871 9.59177 17.7116 11.2598 18.4751 12.8488C19.2386 14.4378 20.6521 15.3458 21.6326 14.8768Z" stroke="#252525" stroke-width="0.586815" stroke-miterlimit="10"/>
<path d="M18.8479 9.13379L16.8494 10.1368C15.8869 10.6183 15.7169 12.2718 16.4754 13.8498C17.2389 15.4383 18.6529 16.3463 19.6329 15.8778C19.6394 15.8748 21.6524 14.8683 21.6524 14.8683" stroke="#252525" stroke-width="0.586815" stroke-miterlimit="10"/>
<path d="M18 5.5V6.5" stroke="#252525" stroke-width="0.586815" stroke-miterlimit="10"/>
</svg>
