<svg width="30" height="30" viewBox="0 0 30 30" fill="none" xmlns="http://www.w3.org/2000/svg">
<path d="M8 28.5V18.5" stroke="#252525" stroke-width="0.586815" stroke-miterlimit="10"/>
<path d="M6 28.5V18.5" stroke="#252525" stroke-width="0.586815" stroke-miterlimit="10"/>
<path d="M4 28.5V18.5" stroke="#252525" stroke-width="0.586815" stroke-miterlimit="10"/>
<path d="M2 26V18.5" stroke="#252525" stroke-width="0.586815" stroke-miterlimit="10"/>
<path d="M2 28.5V27" stroke="#252525" stroke-width="0.586815" stroke-miterlimit="10"/>
<path d="M15 9C16.3807 9 17.5 7.88071 17.5 6.5C17.5 5.11929 16.3807 4 15 4C13.6193 4 12.5 5.11929 12.5 6.5C12.5 7.88071 13.6193 9 15 9Z" stroke="#252525" stroke-width="0.586815" stroke-miterlimit="10"/>
<path d="M24 7C25.3807 7 26.5 5.88071 26.5 4.5C26.5 3.11929 25.3807 2 24 2C22.6193 2 21.5 3.11929 21.5 4.5C21.5 5.88071 22.6193 7 24 7Z" stroke="#252525" stroke-width="0.586815" stroke-miterlimit="10"/>
<path d="M6 7C7.38071 7 8.5 5.88071 8.5 4.5C8.5 3.11929 7.38071 2 6 2C4.61929 2 3.5 3.11929 3.5 4.5C3.5 5.88071 4.61929 7 6 7Z" stroke="#252525" stroke-width="0.586815" stroke-miterlimit="10"/>
<path d="M10 19H28V28H10V19Z" stroke="#252525" stroke-width="0.586815" stroke-miterlimit="10"/>
<path d="M19 26C20.3807 26 21.5 24.8807 21.5 23.5C21.5 22.1193 20.3807 21 19 21C17.6193 21 16.5 22.1193 16.5 23.5C16.5 24.8807 17.6193 26 19 26Z" stroke="#252525" stroke-width="0.586815" stroke-miterlimit="10"/>
<path d="M13 23H12V24H13V23Z" fill="#252525"/>
<path d="M15 23H14V24H15V23Z" fill="#252525"/>
<path d="M24 23H23V24H24V23Z" fill="#252525"/>
<path d="M26 23H25V24H26V23Z" fill="#252525"/>
<path d="M27.5 17.5V10.5C27.5 9.6715 26.8285 9 26 9H25.499L24 10.5L22.501 9H22C21.1715 9 20.5 9.6715 20.5 10.5V17.5" stroke="#252525" stroke-width="0.586815" stroke-miterlimit="10"/>
<path d="M9.5 17.501V10.501C9.5 9.67248 8.8285 9.00098 8 9.00098H7.499L6 10.501L4.501 9.00098H4C3.1715 9.00098 2.5 9.67248 2.5 10.501V17.501" stroke="#252525" stroke-width="0.586815" stroke-miterlimit="10"/>
<path d="M18.5 17.5V12.5C18.5 11.6715 17.8285 11 17 11H16.499L15 12.5L13.501 11H13C12.1715 11 11.5 11.6715 11.5 12.5V17.5" stroke="#252525" stroke-width="0.586815" stroke-miterlimit="10"/>
</svg>
