<svg width="31" height="30" viewBox="0 0 31 30" fill="none" xmlns="http://www.w3.org/2000/svg">
<g clip-path="url(#clip0_628_4453)">
<path d="M2.52857 8.5C3.36631 8.5 4.04543 7.82843 4.04543 7C4.04543 6.17157 3.36631 5.5 2.52857 5.5C1.69084 5.5 1.01172 6.17157 1.01172 7C1.01172 7.82843 1.69084 8.5 2.52857 8.5Z" stroke="black" stroke-width="0.586815" stroke-miterlimit="10"/>
<path d="M5.56178 4.5C6.39951 4.5 7.07863 3.82843 7.07863 3C7.07863 2.17157 6.39951 1.5 5.56178 1.5C4.72404 1.5 4.04492 2.17157 4.04492 3C4.04492 3.82843 4.72404 4.5 5.56178 4.5Z" stroke="black" stroke-width="0.586815" stroke-miterlimit="10"/>
<path d="M11.6292 4.5C12.4669 4.5 13.146 3.82843 13.146 3C13.146 2.17157 12.4669 1.5 11.6292 1.5C10.7914 1.5 10.1123 2.17157 10.1123 3C10.1123 3.82843 10.7914 4.5 11.6292 4.5Z" stroke="black" stroke-width="0.586815" stroke-miterlimit="10"/>
<path d="M18.7083 4.5C19.546 4.5 20.2251 3.82843 20.2251 3C20.2251 2.17157 19.546 1.5 18.7083 1.5C17.8705 1.5 17.1914 2.17157 17.1914 3C17.1914 3.82843 17.8705 4.5 18.7083 4.5Z" stroke="black" stroke-width="0.586815" stroke-miterlimit="10"/>
<path d="M24.7756 4.5C25.6134 4.5 26.2925 3.82843 26.2925 3C26.2925 2.17157 25.6134 1.5 24.7756 1.5C23.9379 1.5 23.2588 2.17157 23.2588 3C23.2588 3.82843 23.9379 4.5 24.7756 4.5Z" stroke="black" stroke-width="0.586815" stroke-miterlimit="10"/>
<path d="M8.59596 8.5C9.43369 8.5 10.1128 7.82843 10.1128 7C10.1128 6.17157 9.43369 5.5 8.59596 5.5C7.75822 5.5 7.0791 6.17157 7.0791 7C7.0791 7.82843 7.75822 8.5 8.59596 8.5Z" stroke="black" stroke-width="0.586815" stroke-miterlimit="10"/>
<path d="M10.618 14H0" stroke="black" stroke-width="0.586815" stroke-miterlimit="10"/>
<path d="M1.04883 10.19C1.48619 10.069 1.99079 10 2.52776 10C4.20338 10 5.56147 10.6715 5.56147 11.5V14" stroke="black" stroke-width="0.586815" stroke-miterlimit="10"/>
<path d="M10.0742 10.19C9.6368 10.069 9.1322 10 8.59523 10C6.91961 10 5.56152 10.6715 5.56152 11.5" stroke="black" stroke-width="0.586815" stroke-miterlimit="10"/>
<path d="M22.2473 8.5C23.0851 8.5 23.7642 7.82843 23.7642 7C23.7642 6.17157 23.0851 5.5 22.2473 5.5C21.4096 5.5 20.7305 6.17157 20.7305 7C20.7305 7.82843 21.4096 8.5 22.2473 8.5Z" stroke="black" stroke-width="0.586815" stroke-miterlimit="10"/>
<path d="M28.3147 8.5C29.1524 8.5 29.8316 7.82843 29.8316 7C29.8316 6.17157 29.1524 5.5 28.3147 5.5C27.477 5.5 26.7979 6.17157 26.7979 7C26.7979 7.82843 27.477 8.5 28.3147 8.5Z" stroke="black" stroke-width="0.586815" stroke-miterlimit="10"/>
<path d="M30.3367 14H19.7188" stroke="black" stroke-width="0.586815" stroke-miterlimit="10"/>
<path d="M20.7686 10.19C21.2059 10.069 21.7105 10 22.2475 10C23.9231 10 25.2812 10.6715 25.2812 11.5V14" stroke="black" stroke-width="0.586815" stroke-miterlimit="10"/>
<path d="M29.7939 10.19C29.3565 10.069 28.8519 10 28.315 10C26.6393 10 25.2812 10.6715 25.2812 11.5" stroke="black" stroke-width="0.586815" stroke-miterlimit="10"/>
<path d="M11.6865 6.0165C11.8326 6.0055 11.9828 6 12.135 6C13.8106 6 15.1687 6.6715 15.1687 7.5" stroke="black" stroke-width="0.586815" stroke-miterlimit="10"/>
<path d="M18.6511 6.0165C18.505 6.0055 18.3548 6 18.2027 6C16.527 6 15.1689 6.6715 15.1689 7.5" stroke="black" stroke-width="0.586815" stroke-miterlimit="10"/>
<path d="M15.1685 16C16.8439 16 18.2022 14.433 18.2022 12.5C18.2022 10.567 16.8439 9 15.1685 9C13.493 9 12.1348 10.567 12.1348 12.5C12.1348 14.433 13.493 16 15.1685 16Z" stroke="black" stroke-width="0.586815" stroke-miterlimit="10"/>
<path d="M11.6289 25H8.59522C8.03651 25 7.58398 25.4475 7.58398 26V29" stroke="black" stroke-width="0.586815" stroke-miterlimit="10"/>
<path d="M18.708 25H21.7417C22.3004 25 22.753 25.4475 22.753 26V29" stroke="black" stroke-width="0.586815" stroke-miterlimit="10"/>
<path d="M18.7081 29V21.2745L22.841 22.4425C22.974 22.48 23.1141 22.5 23.2587 22.5C23.5696 22.5 23.8583 22.4075 24.099 22.249L27.1327 20.249C27.5407 19.98 27.8092 19.521 27.8092 19C27.8092 18.1715 27.1302 17.5 26.2924 17.5C25.9814 17.5 25.6927 17.5925 25.452 17.751L23.0013 19.3665L18.7764 18.173C18.3698 18.0585 17.9487 18 17.526 18H12.8116C12.3889 18 11.9682 18.0585 11.5617 18.173L7.33675 19.3665L4.88602 17.751C4.64484 17.5925 4.35613 17.5 4.04517 17.5C3.20737 17.5 2.52832 18.1715 2.52832 19C2.52832 19.521 2.7968 19.98 3.20484 20.249L6.23855 22.249C6.47922 22.4075 6.76793 22.5 7.07888 22.5C7.22349 22.5 7.36355 22.48 7.49652 22.4425L11.6294 21.2745V29" stroke="black" stroke-width="0.586815" stroke-miterlimit="10"/>
</g>
<defs>
<clipPath id="clip0_628_4453">
<rect width="30.3371" height="30" fill="white"/>
</clipPath>
</defs>
</svg>
