<svg width="30" height="30" viewBox="0 0 30 30" fill="none" xmlns="http://www.w3.org/2000/svg">
<path d="M24.135 28.9205L23.6005 27.992C23.2475 27.378 22.725 26.884 22.0915 26.5675C20.4885 25.766 17.3 24.172 15.692 23.3675C15.2825 23.162 15.001 22.7385 15.001 22.249C15.001 21.5585 15.5605 20.999 16.251 20.999C16.452 20.999 16.641 21.048 16.809 21.1305C17.501 21.471 19.587 22.4705 19.587 22.4705C19.8495 22.593 20.1095 22.297 19.954 22.053L16.1525 16.0295C16.0565 15.8755 16.001 15.694 16.001 15.499C16.001 14.947 16.449 14.499 17.001 14.499C17.3595 14.499 17.67 14.689 17.8495 14.97C18.5035 15.993 20.5075 19.0345 20.5075 19.0345L23.6265 17.6795C23.8735 17.572 24.139 17.5015 24.408 17.499C25.274 17.499 26.0205 18.032 26.3135 18.83L29.265 26.873" stroke="black" stroke-width="0.586815" stroke-miterlimit="10"/>
<path d="M26.6963 16.1689C27.3648 16.6304 27.8858 17.3094 28.1908 18.1414L29.2063 20.9089" stroke="black" stroke-width="0.586815" stroke-miterlimit="10"/>
<path d="M24.501 15.499C24.8215 15.499 25.131 15.5355 25.426 15.6055" stroke="black" stroke-width="0.586815" stroke-miterlimit="10"/>
<path d="M18.339 24.6914L9.92347 26.4664C9.09647 26.6409 8.28347 26.1144 8.10797 25.2909L4.03347 6.15743C3.85847 5.33443 4.38697 4.52493 5.21447 4.35093L18.5775 1.53243C19.4045 1.35793 20.2175 1.88443 20.393 2.70793L23.5855 17.7009" stroke="black" stroke-width="0.586815" stroke-miterlimit="10"/>
<path d="M12.4433 4.86996L6.09082 6.20996L6.88832 9.95996L19.3338 7.33496L18.5353 3.58496L15.5663 4.21146" stroke="black" stroke-width="0.586815" stroke-miterlimit="10"/>
<path d="M14.4266 4.45117L13.5801 4.62967" stroke="black" stroke-width="0.586815" stroke-miterlimit="10"/>
<path d="M15.2147 22.9434L9.89174 24.0659L7.32324 12.0059L19.7687 9.38086L21.7132 18.5139" stroke="black" stroke-width="0.586815" stroke-miterlimit="10"/>
<path d="M18.6152 13.9138L20.6432 13.4863" stroke="black" stroke-width="0.586815" stroke-miterlimit="10"/>
<path d="M8.19824 16.1117L14.8897 14.7002" stroke="black" stroke-width="0.586815" stroke-miterlimit="10"/>
<path d="M9.04395 20.0826L15.8699 18.6426" stroke="black" stroke-width="0.586815" stroke-miterlimit="10"/>
<path d="M13.6416 21.4153L11.4521 11.1328" stroke="black" stroke-width="0.586815" stroke-miterlimit="10"/>
<path d="M16.2961 12.9089L15.7256 10.2314" stroke="black" stroke-width="0.586815" stroke-miterlimit="10"/>
<path d="M9.5 7H8.5V8H9.5V7Z" fill="black"/>
<path d="M11.5 6.5H10.5V7.5H11.5V6.5Z" fill="black"/>
<path d="M13.5 6H12.5V7H13.5V6Z" fill="black"/>
<path d="M3 21V23" stroke="black" stroke-width="0.586815" stroke-miterlimit="10"/>
<path d="M3 25V27" stroke="black" stroke-width="0.586815" stroke-miterlimit="10"/>
<path d="M6 24H4" stroke="black" stroke-width="0.586815" stroke-miterlimit="10"/>
<path d="M2 24H0" stroke="black" stroke-width="0.586815" stroke-miterlimit="10"/>
<path d="M26 1V3.5" stroke="black" stroke-width="0.586815" stroke-miterlimit="10"/>
<path d="M26 5.5V8" stroke="black" stroke-width="0.586815" stroke-miterlimit="10"/>
<path d="M29.5 4.5H27" stroke="black" stroke-width="0.586815" stroke-miterlimit="10"/>
<path d="M25 4.5H22.5" stroke="black" stroke-width="0.586815" stroke-miterlimit="10"/>
</svg>
