<svg width="30" height="30" viewBox="0 0 30 30" fill="none" xmlns="http://www.w3.org/2000/svg">
<path d="M15.5 12.001V25.501" stroke="black" stroke-width="0.586815" stroke-miterlimit="10"/>
<path d="M12.793 17.001C13.1835 17.001 13.5 16.6845 13.5 16.294V5.50098C13.5 4.67248 12.8285 4.00098 12 4.00098H2.5C1.6715 4.00098 1 4.67248 1 5.50098V13.001C1 13.8295 1.6715 14.501 2.5 14.501H10L12.293 16.794C12.4255 16.9265 12.6055 17.001 12.793 17.001Z" stroke="black" stroke-width="0.586815" stroke-miterlimit="10"/>
<path d="M5 12.501C6.10457 12.501 7 11.6055 7 10.501C7 9.39641 6.10457 8.50098 5 8.50098C3.89543 8.50098 3 9.39641 3 10.501C3 11.6055 3.89543 12.501 5 12.501Z" stroke="black" stroke-width="0.586815" stroke-miterlimit="10"/>
<path d="M9.5 9.00098C10.3284 9.00098 11 8.3294 11 7.50098C11 6.67255 10.3284 6.00098 9.5 6.00098C8.67157 6.00098 8 6.67255 8 7.50098C8 8.3294 8.67157 9.00098 9.5 9.00098Z" stroke="black" stroke-width="0.586815" stroke-miterlimit="10"/>
<path d="M11 12.501C11.2761 12.501 11.5 12.2771 11.5 12.001C11.5 11.7248 11.2761 11.501 11 11.501C10.7239 11.501 10.5 11.7248 10.5 12.001C10.5 12.2771 10.7239 12.501 11 12.501Z" stroke="black" stroke-width="0.586815" stroke-miterlimit="10"/>
<path d="M13.5014 11.3265C14.1259 11.4795 14.7899 11.6965 15.4999 12.001C17.4754 11.1545 19.0949 11.0015 20.4999 11.001C24.0079 10.9995 25.7699 13.001 28.9999 13.001L26.4999 26.001C23.5329 26.001 22.4999 25.001 19.4999 25.001C18.4579 25.001 17.1789 25.1135 15.4999 25.501C13.8209 25.1135 12.5419 25.001 11.4999 25.001C8.49992 25.001 7.46692 26.001 4.49992 26.001L2.29492 14.4865" stroke="black" stroke-width="0.586815" stroke-miterlimit="10"/>
<path d="M8.24258 8.31934L6.64258 9.36084" stroke="black" stroke-width="0.586815" stroke-miterlimit="10"/>
<path d="M10.8421 11.5268L9.97461 8.92383" stroke="black" stroke-width="0.586815" stroke-miterlimit="10"/>
<path d="M24.084 14.7061C24.5185 14.8611 24.959 15.0051 25.4 15.1186" stroke="black" stroke-width="0.586815" stroke-miterlimit="10"/>
<path d="M17.6094 14.1405C18.3874 13.7195 19.1089 13.501 20.0004 13.501C20.8494 13.501 21.8559 13.868 22.9329 14.2765" stroke="black" stroke-width="0.586815" stroke-miterlimit="10"/>
<path d="M17.6094 16.6405C18.3874 16.2195 19.1089 16.001 20.0004 16.001C20.8494 16.001 21.8559 16.368 22.9329 16.7765" stroke="black" stroke-width="0.586815" stroke-miterlimit="10"/>
<path d="M25.7695 19.501C24.7355 18.8675 23.373 18.586 22 18.5L21.5 22.501C22.6945 22.6815 23.861 23.088 25 23.574L25.7695 19.501Z" stroke="black" stroke-width="0.586815" stroke-miterlimit="10"/>
<path d="M17.6094 19.6405C18.3874 19.2195 19.1089 19.001 20.0004 19.001" stroke="black" stroke-width="0.586815" stroke-miterlimit="10"/>
<path d="M17.6094 22.1405C18.3874 21.7195 19.1089 21.501 20.0004 21.501" stroke="black" stroke-width="0.586815" stroke-miterlimit="10"/>
<path d="M11.5 22.001C9.09205 22.001 7.95155 22.645 6.06055 22.8995" stroke="black" stroke-width="0.586815" stroke-miterlimit="10"/>
<path d="M13.933 22.1966C13.429 22.1186 12.968 22.0681 12.543 22.0381" stroke="black" stroke-width="0.586815" stroke-miterlimit="10"/>
<path d="M13.906 19.6925C12.9715 19.5495 12.185 19.501 11.5005 19.501C9.0935 19.501 7.9525 20.145 6.0625 20.3995" stroke="black" stroke-width="0.586815" stroke-miterlimit="10"/>
<path d="M25.5291 25.9624L25.1081 26.5889C24.7281 27.1584 24.0891 27.5004 23.4041 27.5004H7.59606C6.91156 27.5004 6.27206 27.1584 5.89206 26.5884L5.47656 25.9619" stroke="black" stroke-width="0.586815" stroke-miterlimit="10"/>
<path d="M19.3479 3.08594L18.2959 5.43644" stroke="black" stroke-width="0.586815" stroke-miterlimit="10"/>
<path d="M20.229 1.11523L19.8525 1.95673" stroke="black" stroke-width="0.586815" stroke-miterlimit="10"/>
<path d="M22.2984 5.16699L20.6914 6.90049" stroke="black" stroke-width="0.586815" stroke-miterlimit="10"/>
<path d="M23.758 3.59375L23.042 4.36575" stroke="black" stroke-width="0.586815" stroke-miterlimit="10"/>
<path d="M24.4606 7.8584L22.0771 9.1884" stroke="black" stroke-width="0.586815" stroke-miterlimit="10"/>
<path d="M26.4058 6.77246L25.5928 7.22646" stroke="black" stroke-width="0.586815" stroke-miterlimit="10"/>
</svg>
