<svg width="30" height="30" viewBox="0 0 30 30" fill="none" xmlns="http://www.w3.org/2000/svg">
<path d="M10.744 26.756L11.941 25.559C12.3085 25.1915 12.757 24.9145 13.25 24.75C13.743 24.5855 14.1915 24.3085 14.559 23.941L17.025 21.475C17.649 20.851 18 20.004 18 19.1215C18 17.9495 17.0505 17 15.8785 17C15.316 17 14.7765 17.2235 14.3785 17.6215L11.61 20.39C11.5365 20.4635 11.4455 20.5 11.356 20.5C11.178 20.5 11 20.351 11 20.137V17.5C11 16.9475 10.5525 16.5 10 16.5C9.4475 16.5 9 16.9475 9 17.5V21.5915C9 22.184 8.8245 22.763 8.496 23.2555L8 24" stroke="black" stroke-width="0.586815" stroke-miterlimit="10"/>
<path d="M9 27H8V28H9V27Z" fill="black"/>
<path d="M9 18.999L7.61 20.389C7.5365 20.4625 7.4455 20.499 7.356 20.499C7.178 20.499 7 20.35 7 20.136V17.499C7 16.9465 6.5525 16.499 6 16.499C5.4475 16.499 5 16.9465 5 17.499V21.5905C5 22.183 4.8245 22.762 4.496 23.2545L4 23.999" stroke="black" stroke-width="0.586815" stroke-miterlimit="10"/>
<path d="M13.7935 18.2065C13.452 17.4925 12.723 16.999 11.8785 16.999C11.5565 16.999 11.242 17.0725 10.957 17.2095" stroke="black" stroke-width="0.586815" stroke-miterlimit="10"/>
<path d="M4.99972 24.999L3.85222 23.8515C3.62572 23.625 3.32022 23.4985 2.99972 23.499C2.68072 23.4995 2.37272 23.626 2.14722 23.8515L1.69922 24.2995" stroke="black" stroke-width="0.586815" stroke-miterlimit="10"/>
<path d="M17 4.99902C18.1046 4.99902 19 3.99166 19 2.74902C19 1.50638 18.1046 0.499023 17 0.499023C15.8954 0.499023 15 1.50638 15 2.74902C15 3.99166 15.8954 4.99902 17 4.99902Z" stroke="black" stroke-width="0.586815" stroke-miterlimit="10"/>
<path d="M20 0.499023H26.5C26.776 0.499023 27 0.723023 27 0.999023V6.99902C27 7.27502 26.776 7.49902 26.5 7.49902H22" stroke="black" stroke-width="0.586815" stroke-miterlimit="10"/>
<path d="M18 12.999H11C10.4475 12.999 10 12.5515 10 11.999V11.499C10 10.9465 10.4475 10.499 11 10.499H23C23.5525 10.499 24 10.9465 24 11.499V11.999C24 12.5515 23.5525 12.999 23 12.999H20" stroke="black" stroke-width="0.586815" stroke-miterlimit="10"/>
<path d="M10.8223 12.9834L11.6113 15.4059" stroke="black" stroke-width="0.586815" stroke-miterlimit="10"/>
<path d="M23.1767 12.9834L22.3877 16.4169" stroke="black" stroke-width="0.586815" stroke-miterlimit="10"/>
<path d="M13.5 10.499V8.99902C13.5 7.89452 14.3955 6.99902 15.5 6.99902H18.5C19.6045 6.99902 20.5 7.89452 20.5 8.99902V10.499" stroke="black" stroke-width="0.586815" stroke-miterlimit="10"/>
<path d="M14 0.499023H7.5C7.224 0.499023 7 0.723023 7 0.999023V6.99902C7 7.27502 7.224 7.49902 7.5 7.49902H10" stroke="black" stroke-width="0.586815" stroke-miterlimit="10"/>
<path d="M11.5 10.4987V7.49874L13.3005 5.69824" stroke="black" stroke-width="0.586815" stroke-miterlimit="10"/>
<path d="M20.5 20.999H22.5" stroke="black" stroke-width="0.586815" stroke-miterlimit="10"/>
<path d="M20.0928 19.146L22.3878 18.3105" stroke="black" stroke-width="0.586815" stroke-miterlimit="10"/>
<path d="M20.0879 22.8506L22.3949 23.6901" stroke="black" stroke-width="0.586815" stroke-miterlimit="10"/>
<path d="M19.0742 24.418L20.6847 25.769" stroke="black" stroke-width="0.586815" stroke-miterlimit="10"/>
<path d="M17.6855 25.6504L18.902 27.7574" stroke="black" stroke-width="0.586815" stroke-miterlimit="10"/>
<path d="M15.9092 26.1543L16.4272 28.3583" stroke="black" stroke-width="0.586815" stroke-miterlimit="10"/>
<path d="M3.69922 26.2995L6.14722 23.8515C6.37272 23.626 6.68072 23.4995 6.99972 23.499C7.32022 23.4985 7.62572 23.625 7.85222 23.8515L10.6462 26.6455C10.8727 26.872 10.9997 27.1785 10.9997 27.499C10.9997 27.819 10.8727 28.126 10.6467 28.352L9.69922 29.2995" stroke="black" stroke-width="0.586815" stroke-miterlimit="10"/>
</svg>
