<svg width="30" height="30" viewBox="0 0 30 30" fill="none" xmlns="http://www.w3.org/2000/svg">
<path d="M10.6565 6.62402C9.625 9.49902 6.7655 11.499 4.5 11.499C4.5 13.708 6.179 15.499 8.25 15.499C10.321 15.499 12 13.708 12 11.499C12 10.615 11.731 9.79752 11.2755 9.13552" stroke="black" stroke-width="0.586815" stroke-miterlimit="10"/>
<path d="M4 22.499V29.999" stroke="black" stroke-width="0.586815" stroke-miterlimit="10"/>
<path d="M1 29.9985V21.9985C1 19.237 3.2385 16.9985 6 16.9985H7V15.2705" stroke="black" stroke-width="0.586815" stroke-miterlimit="10"/>
<path d="M12.5 22.499V29.999" stroke="black" stroke-width="0.586815" stroke-miterlimit="10"/>
<path d="M9.5 15.2715V16.999H11.3225C12.383 16.999 13.3865 17.48 14.051 18.307L17.8375 23.0195L20.7065 21.2265C20.9365 21.082 21.2085 20.999 21.5 20.999C22.3285 20.999 23 21.6705 23 22.499C23 23.036 22.718 23.507 22.294 23.772L18.294 26.272C18.0635 26.416 17.7915 26.499 17.5 26.499C17.026 26.499 16.603 26.279 16.328 25.9355L14.1435 23.2045" stroke="black" stroke-width="0.586815" stroke-miterlimit="10"/>
<path d="M21.7663 24.1016L20.3828 27.8691" stroke="black" stroke-width="0.586815" stroke-miterlimit="10"/>
<path d="M24.6875 16.1445L22.6895 21.5855" stroke="black" stroke-width="0.586815" stroke-miterlimit="10"/>
<path d="M2.5 18.4285V10.249C2.5 7.07352 5.0745 4.49902 8.25 4.49902C11.4255 4.49902 14 7.07352 14 10.249V18.245" stroke="black" stroke-width="0.586815" stroke-miterlimit="10"/>
<path d="M19.653 14.931L21.317 13.8915C21.7005 13.962 22.096 13.999 22.5 13.999C26.09 13.999 29 11.089 29 7.49902C29 3.90902 26.09 0.999023 22.5 0.999023C18.91 0.999023 16 3.90902 16 7.49902C16 9.73352 17.1615 11.6395 18.879 12.8085" stroke="black" stroke-width="0.586815" stroke-miterlimit="10"/>
<path d="M17.48 11.5449L16.512 15.8904C16.504 15.9254 16.5 15.9619 16.5 15.9994C16.5 16.2754 16.724 16.4994 17 16.4994C17.097 16.4994 17.188 16.4719 17.2645 16.4239L20.0695 14.6714" stroke="black" stroke-width="0.586815" stroke-miterlimit="10"/>
<path d="M5.12402 17.076L7.69352 20.7115C7.82152 20.8925 8.02952 20.9995 8.25152 20.999C8.47352 20.9995 8.68152 20.8925 8.80952 20.7115L11.433 16.999" stroke="black" stroke-width="0.586815" stroke-miterlimit="10"/>
</svg>
