<svg width="30" height="30" viewBox="0 0 30 30" fill="none" xmlns="http://www.w3.org/2000/svg">
<path d="M12.3791 6.86417L9.86914 5.95117" stroke="black" stroke-width="0.586815" stroke-miterlimit="10"/>
<path d="M14.5 7.63498L13.5 7.27148" stroke="black" stroke-width="0.586815" stroke-miterlimit="10"/>
<path d="M21.0335 10.0111L15.501 7.95215" stroke="black" stroke-width="0.586815" stroke-miterlimit="10"/>
<path d="M9.42188 6.92676L21.5789 18.0708" stroke="black" stroke-width="0.586815" stroke-miterlimit="10"/>
<path d="M11.4998 13.999L9.96582 14.5095" stroke="black" stroke-width="0.586815" stroke-miterlimit="10"/>
<path d="M13.4375 13.4053L12.584 13.6763" stroke="black" stroke-width="0.586815" stroke-miterlimit="10"/>
<path d="M21.0341 10.9883L15.7021 12.6843" stroke="black" stroke-width="0.586815" stroke-miterlimit="10"/>
<path d="M15.1099 17.8574L9.42188 23.0719" stroke="black" stroke-width="0.586815" stroke-miterlimit="10"/>
<path d="M21.3876 12.1016L16.7461 16.3571" stroke="black" stroke-width="0.586815" stroke-miterlimit="10"/>
<path d="M9.86816 15.9512L20.9997 19.9992" stroke="black" stroke-width="0.586815" stroke-miterlimit="10"/>
<path d="M12.926 23.9355L10 24.9995" stroke="black" stroke-width="0.586815" stroke-miterlimit="10"/>
<path d="M14.8675 23.2295L14.042 23.53" stroke="black" stroke-width="0.586815" stroke-miterlimit="10"/>
<path d="M21.1309 20.9512L16.0684 22.7927" stroke="black" stroke-width="0.586815" stroke-miterlimit="10"/>
<path d="M6.5 8.5C8.433 8.5 10 6.933 10 5C10 3.067 8.433 1.5 6.5 1.5C4.567 1.5 3 3.067 3 5C3 6.933 4.567 8.5 6.5 8.5Z" stroke="black" stroke-width="0.586815" stroke-miterlimit="10"/>
<path d="M24.5 13.999C26.433 13.999 28 12.432 28 10.499C28 8.56603 26.433 6.99902 24.5 6.99902C22.567 6.99902 21 8.56603 21 10.499C21 12.432 22.567 13.999 24.5 13.999Z" stroke="black" stroke-width="0.586815" stroke-miterlimit="10"/>
<path d="M6.5 18.499C8.433 18.499 10 16.932 10 14.999C10 13.066 8.433 11.499 6.5 11.499C4.567 11.499 3 13.066 3 14.999C3 16.932 4.567 18.499 6.5 18.499Z" stroke="black" stroke-width="0.586815" stroke-miterlimit="10"/>
<path d="M6.5 28.499C8.433 28.499 10 26.932 10 24.999C10 23.066 8.433 21.499 6.5 21.499C4.567 21.499 3 23.066 3 24.999C3 26.932 4.567 28.499 6.5 28.499Z" stroke="black" stroke-width="0.586815" stroke-miterlimit="10"/>
<path d="M24.5 23.499C26.433 23.499 28 21.932 28 19.999C28 18.066 26.433 16.499 24.5 16.499C22.567 16.499 21 18.066 21 19.999C21 21.932 22.567 23.499 24.5 23.499Z" stroke="black" stroke-width="0.586815" stroke-miterlimit="10"/>
</svg>
