<svg width="30" height="30" viewBox="0 0 30 30" fill="none" xmlns="http://www.w3.org/2000/svg">
<path d="M17.5 20.001H19.673C19.8715 20.001 20.0515 19.8835 20.131 19.7015L21.5545 16.4525C21.675 16.178 21.946 16.001 22.2455 16.001C22.6625 16.001 23 16.3385 23 16.7555V18.501C23 18.777 23.224 19.001 23.5 19.001H25.1605C25.8995 19.001 26.5 19.607 26.5 20.3405C26.4995 20.4475 26.481 20.5535 26.4555 20.6575L25.783 23.363C25.6165 24.0315 25.016 24.501 24.327 24.501H19" stroke="black" stroke-width="0.586815" stroke-miterlimit="10"/>
<path d="M22.25 27.501C25.9779 27.501 29 24.4789 29 20.751C29 17.0231 25.9779 14.001 22.25 14.001C18.5221 14.001 15.5 17.0231 15.5 20.751C15.5 24.4789 18.5221 27.501 22.25 27.501Z" stroke="black" stroke-width="0.586815" stroke-miterlimit="10"/>
<path d="M24.5 14.3855V2.00098H20.5V14.23" stroke="black" stroke-width="0.586815" stroke-miterlimit="10"/>
<path d="M18.5 15.1375V6.50098H14.5V17.001" stroke="black" stroke-width="0.586815" stroke-miterlimit="10"/>
<path d="M12.5 14.001V9.00098H8.5V15.501" stroke="black" stroke-width="0.586815" stroke-miterlimit="10"/>
<path d="M12.5 16.001V15.001" stroke="black" stroke-width="0.586815" stroke-miterlimit="10"/>
<path d="M26.5 2.50098V5.00098" stroke="black" stroke-width="0.586815" stroke-miterlimit="10"/>
<path d="M26.5 6.00098V7.00098" stroke="black" stroke-width="0.586815" stroke-miterlimit="10"/>
<path d="M6 3.50098V1.50098" stroke="black" stroke-width="0.586815" stroke-miterlimit="10"/>
<path d="M6 7.50098V5.50098" stroke="black" stroke-width="0.586815" stroke-miterlimit="10"/>
<path d="M7 4.50098H8.5" stroke="black" stroke-width="0.586815" stroke-miterlimit="10"/>
<path d="M5 4.50098H3.5" stroke="black" stroke-width="0.586815" stroke-miterlimit="10"/>
<path d="M3.5 17.501C4.88071 17.501 6 16.3817 6 15.001C6 13.6203 4.88071 12.501 3.5 12.501C2.11929 12.501 1 13.6203 1 15.001C1 16.3817 2.11929 17.501 3.5 17.501Z" stroke="black" stroke-width="0.586815" stroke-miterlimit="10"/>
<path d="M3.5 26.501C4.88071 26.501 6 25.3817 6 24.001C6 22.6203 4.88071 21.501 3.5 21.501C2.11929 21.501 1 22.6203 1 24.001C1 25.3817 2.11929 26.501 3.5 26.501Z" stroke="black" stroke-width="0.586815" stroke-miterlimit="10"/>
<path d="M11 22.501C12.3807 22.501 13.5 21.3817 13.5 20.001C13.5 18.6203 12.3807 17.501 11 17.501C9.61929 17.501 8.5 18.6203 8.5 20.001C8.5 21.3817 9.61929 22.501 11 22.501Z" stroke="black" stroke-width="0.586815" stroke-miterlimit="10"/>
<path d="M9 18.501L5.5 16.501" stroke="black" stroke-width="0.586815" stroke-miterlimit="10"/>
<path d="M8.65677 20.875L5.84277 23.126" stroke="black" stroke-width="0.586815" stroke-miterlimit="10"/>
</svg>
