<svg width="30" height="30" viewBox="0 0 30 30" fill="none" xmlns="http://www.w3.org/2000/svg">
<path d="M14.5 10V12" stroke="#252525" stroke-width="0.586815" stroke-miterlimit="10"/>
<path d="M2.5 27V6.8455C2.5 6.4285 2.7585 6.0555 3.149 5.909L13.3555 2.0545C13.451 2.0185 13.5525 2 13.6545 2C14.1215 2 14.5 2.3785 14.5 2.8455V5" stroke="#252525" stroke-width="0.586815" stroke-miterlimit="10"/>
<path d="M27.5 27V16C27.5 15.724 27.276 15.5 27 15.5H13C12.724 15.5 12.5 15.724 12.5 16V27" stroke="#252525" stroke-width="0.586815" stroke-miterlimit="10"/>
<path d="M26 13.5H14" stroke="#252525" stroke-width="0.586815" stroke-miterlimit="10"/>
<path d="M21 20H14.5V17.5H25.5V20H23.5" stroke="#252525" stroke-width="0.586815" stroke-miterlimit="10"/>
<path d="M21 24.5H14.5V22H25.5V24.5H23.5" stroke="#252525" stroke-width="0.586815" stroke-miterlimit="10"/>
<path d="M29 28.5H6.5" stroke="#252525" stroke-width="0.586815" stroke-miterlimit="10"/>
<path d="M1 28.5H5.5" stroke="#252525" stroke-width="0.586815" stroke-miterlimit="10"/>
<path d="M4 10.5H7.5" stroke="#252525" stroke-width="0.586815" stroke-miterlimit="10"/>
<path d="M9.5 10.5H13" stroke="#252525" stroke-width="0.586815" stroke-miterlimit="10"/>
<path d="M4 15.5H7.5" stroke="#252525" stroke-width="0.586815" stroke-miterlimit="10"/>
<path d="M9.5 15.5H11" stroke="#252525" stroke-width="0.586815" stroke-miterlimit="10"/>
<path d="M4 18.5H7.5" stroke="#252525" stroke-width="0.586815" stroke-miterlimit="10"/>
<path d="M9.5 18.5H11" stroke="#252525" stroke-width="0.586815" stroke-miterlimit="10"/>
<path d="M4 21.5H7.5" stroke="#252525" stroke-width="0.586815" stroke-miterlimit="10"/>
<path d="M9.5 21.5H11" stroke="#252525" stroke-width="0.586815" stroke-miterlimit="10"/>
<path d="M4 24.5H7.5" stroke="#252525" stroke-width="0.586815" stroke-miterlimit="10"/>
<path d="M9.5 24.5H11" stroke="#252525" stroke-width="0.586815" stroke-miterlimit="10"/>
<path d="M21.25 6.5C21.154 6.5 21 6.5 21 6.5C21 6.5 21 6.3345 21 6.25C21 5.0075 19.9925 4 18.75 4C17.593 4 16.651 4.8765 16.525 6H16.5C15.6715 6 15 6.6715 15 7.5C15 8.3285 15.6715 9 16.5 9H21.25C21.9405 9 22.5 8.4405 22.5 7.75C22.5 7.0595 21.9405 6.5 21.25 6.5Z" stroke="#252525" stroke-width="0.586815" stroke-miterlimit="10"/>
</svg>
