<svg width="31" height="30" viewBox="0 0 31 30" fill="none" xmlns="http://www.w3.org/2000/svg">
<path d="M5.07154 8C3.95126 8 3.04297 7.067 3.04297 5.9165V5.083C3.04297 3.9325 3.95126 3 5.07154 3C6.19182 3 7.10011 3.9325 7.10011 5.0835V5.917C7.10011 7.067 6.19182 8 5.07154 8Z" stroke="black" stroke-width="0.586815" stroke-miterlimit="10"/>
<path d="M1.52148 15V12C1.52148 10.8955 2.42978 10 3.55006 10H6.59291C7.71319 10 8.62148 10.8955 8.62148 12V15" stroke="black" stroke-width="0.586815" stroke-miterlimit="10"/>
<path d="M20.793 19V15.5C20.793 14.1195 21.9285 13 23.3287 13H26.3715C27.7718 13 28.9073 14.1195 28.9073 15.5V19" stroke="black" stroke-width="0.586815" stroke-miterlimit="10"/>
<path d="M13.6926 21C12.5724 21 11.6641 20.067 11.6641 18.9165V18.083C11.6641 16.933 12.5724 16 13.6926 16C14.8129 16 15.7212 16.933 15.7212 18.0835V18.917C15.7212 20.067 14.8129 21 13.6926 21Z" stroke="black" stroke-width="0.586815" stroke-miterlimit="10"/>
<path d="M10.1426 28V25C10.1426 23.8955 11.0509 23 12.1711 23H15.214C16.3343 23 17.2426 23.8955 17.2426 25V28" stroke="black" stroke-width="0.586815" stroke-miterlimit="10"/>
<path d="M24.8502 11C23.4342 11 22.3145 9.8805 22.3145 8.5V7.5C22.3145 6.1195 23.4449 5 24.8502 5C26.2504 5 27.3859 6.1195 27.3859 7.5V8.5C27.3859 9.8805 26.2504 11 24.8502 11Z" stroke="black" stroke-width="0.586815" stroke-miterlimit="10"/>
<path d="M12.8203 3.95898C13.5389 4.11598 14.184 4.30198 14.7074 4.49948C16.2146 5.06898 17.7102 5.74798 20.1115 7.84598" stroke="black" stroke-width="0.586815" stroke-miterlimit="10"/>
<path d="M10.7734 3.625C11.0265 3.6535 11.2765 3.6865 11.5225 3.723" stroke="black" stroke-width="0.586815" stroke-miterlimit="10"/>
<path d="M8.62109 3.5C8.91676 3.5 9.21344 3.5075 9.5091 3.522" stroke="black" stroke-width="0.586815" stroke-miterlimit="10"/>
<path d="M16.1143 12.3235C17.3664 10.9735 19.0643 10 20.2855 10" stroke="black" stroke-width="0.586815" stroke-miterlimit="10"/>
<path d="M14.7842 14.3094C14.879 14.0869 14.9911 13.8669 15.1179 13.6504" stroke="black" stroke-width="0.586815" stroke-miterlimit="10"/>
</svg>
