<svg width="30" height="30" viewBox="0 0 30 30" fill="none" xmlns="http://www.w3.org/2000/svg">
<path d="M15 20.297C15.698 18.052 17.5 17.5 17.5 16C17.5 14.6215 16.3785 13.5 15 13.5C13.6215 13.5 12.5 14.6215 12.5 16C12.5 16.678 12.791 17.2675 13.209 17.87" stroke="black" stroke-width="0.586815" stroke-miterlimit="10"/>
<path d="M20.478 16.418C20.4925 16.2805 20.5 16.141 20.5 16C20.5 12.9675 18.0325 10.5 15 10.5C11.9675 10.5 9.5 12.9675 9.5 16C9.5 17.558 10.428 18.902 11.503 20.458C12.125 21.358 12.7905 22.322 13.278 23.3915" stroke="black" stroke-width="0.586815" stroke-miterlimit="10"/>
<path d="M19.834 18.3614C19.973 18.0974 20.095 17.8334 20.1955 17.5674" stroke="black" stroke-width="0.586815" stroke-miterlimit="10"/>
<path d="M16.1992 24.8746C16.6127 23.1856 17.6007 21.7556 18.4972 20.4581C18.7142 20.1441 18.9247 19.8391 19.1232 19.5391" stroke="black" stroke-width="0.586815" stroke-miterlimit="10"/>
<path d="M12.5645 8.3775C13.3325 8.1325 14.1505 8 14.9995 8C19.4175 8 22.9995 11.5815 22.9995 16C22.9995 20.4185 18.4995 23 18.4995 26.5" stroke="black" stroke-width="0.586815" stroke-miterlimit="10"/>
<path d="M10.5908 9.3229C10.8468 9.1534 11.1133 8.9984 11.3888 8.8584" stroke="black" stroke-width="0.586815" stroke-miterlimit="10"/>
<path d="M11.5 26.5001C11.5 23.0001 7 20.4186 7 16.0001C7 13.7401 7.937 11.6991 9.444 10.2441" stroke="black" stroke-width="0.586815" stroke-miterlimit="10"/>
<path d="M11.5 6.5C12.6046 6.5 13.5 5.60457 13.5 4.5C13.5 3.39543 12.6046 2.5 11.5 2.5C10.3954 2.5 9.5 3.39543 9.5 4.5C9.5 5.60457 10.3954 6.5 11.5 6.5Z" stroke="black" stroke-width="0.586815" stroke-miterlimit="10"/>
<path d="M4 9C5.10457 9 6 8.10457 6 7C6 5.89543 5.10457 5 4 5C2.89543 5 2 5.89543 2 7C2 8.10457 2.89543 9 4 9Z" stroke="black" stroke-width="0.586815" stroke-miterlimit="10"/>
<path d="M25.5 6.5C26.6046 6.5 27.5 5.60457 27.5 4.5C27.5 3.39543 26.6046 2.5 25.5 2.5C24.3954 2.5 23.5 3.39543 23.5 4.5C23.5 5.60457 24.3954 6.5 25.5 6.5Z" stroke="black" stroke-width="0.586815" stroke-miterlimit="10"/>
<path d="M26 25.5C27.1046 25.5 28 24.6046 28 23.5C28 22.3954 27.1046 21.5 26 21.5C24.8954 21.5 24 22.3954 24 23.5C24 24.6046 24.8954 25.5 26 25.5Z" stroke="black" stroke-width="0.586815" stroke-miterlimit="10"/>
<path d="M4.5 28C5.60457 28 6.5 27.1046 6.5 26C6.5 24.8954 5.60457 24 4.5 24C3.39543 24 2.5 24.8954 2.5 26C2.5 27.1046 3.39543 28 4.5 28Z" stroke="black" stroke-width="0.586815" stroke-miterlimit="10"/>
<path d="M4.5 24V20.5C4.5 20.2235 4.724 20 5 20H8.2195" stroke="black" stroke-width="0.586815" stroke-miterlimit="10"/>
<path d="M25.9999 21.5V16C25.9999 15.7235 25.7759 15.5 25.4999 15.5H22.9844" stroke="black" stroke-width="0.586815" stroke-miterlimit="10"/>
<path d="M4 9V12.5C4 12.7765 4.224 13 4.5 13H7.5815" stroke="black" stroke-width="0.586815" stroke-miterlimit="10"/>
<path d="M13.5 4.5H15.5C15.776 4.5 16 4.7235 16 5V8.062" stroke="black" stroke-width="0.586815" stroke-miterlimit="10"/>
<path d="M25.4995 6.5V9.5C25.4995 9.7765 25.2755 10 24.9995 10H20.291" stroke="black" stroke-width="0.586815" stroke-miterlimit="10"/>
</svg>
