<svg width="30" height="29" viewBox="0 0 30 29" fill="none" xmlns="http://www.w3.org/2000/svg">
<path d="M5 12.5V4.5C5 3.6715 5.6715 3 6.5 3H27C27.828 3 28.5 3.6715 28.5 4.5V20.4995" stroke="black" stroke-width="0.586815" stroke-miterlimit="10"/>
<path d="M3 6.5V4.5C3 2.5705 4.5705 1 6.5 1" stroke="black" stroke-width="0.586815" stroke-miterlimit="10"/>
<path d="M7.50098 1H8.49998" stroke="black" stroke-width="0.586815" stroke-miterlimit="10"/>
<path d="M17 23.5H27.5C28.6045 23.5 29.5 22.6045 29.5 21.5V20.5H17" stroke="black" stroke-width="0.586815" stroke-miterlimit="10"/>
<path d="M8 6.5H11" stroke="black" stroke-width="0.586815" stroke-miterlimit="10"/>
<path d="M12 6.5H13" stroke="black" stroke-width="0.586815" stroke-miterlimit="10"/>
<path d="M8 8.5H14" stroke="black" stroke-width="0.586815" stroke-miterlimit="10"/>
<path d="M15.7461 6.74609L18.2541 9.25409" stroke="black" stroke-width="0.586815" stroke-miterlimit="10"/>
<path d="M18.2541 6.74609L15.7461 9.25409" stroke="black" stroke-width="0.586815" stroke-miterlimit="10"/>
<path d="M15.6953 15.1954L16.9998 16.4999L19.2653 14.2344" stroke="black" stroke-width="0.586815" stroke-miterlimit="10"/>
<path d="M4 16.05C4 14.9455 4.8955 14 6 14C7.1045 14 8 14.8955 8 16" stroke="black" stroke-width="0.586815" stroke-miterlimit="10"/>
<path d="M8 26C8 27.1045 7.1045 28 6 28C4.8955 28 4 27.1045 4 26C4 25.7675 4.027 25.5825 4.0995 25.375" stroke="black" stroke-width="0.586815" stroke-miterlimit="10"/>
<path d="M4.5 20.792C4.1935 20.926 3.8555 21 3.5 21" stroke="black" stroke-width="0.586815" stroke-miterlimit="10"/>
<path d="M2.499 20.7915C1.616 20.4055 1 19.525 1 18.5C1 17.119 2.119 16 3.5 16C4.25 16 4.8895 16.294 5.3475 16.817" stroke="black" stroke-width="0.586815" stroke-miterlimit="10"/>
<path d="M4.0875 25.37C3.8215 25.456 3.5445 25.5 3.25 25.5C1.7315 25.5 0.5 24.2685 0.5 22.75C0.5 21.82 1.138 20.8715 1.8445 20.374" stroke="black" stroke-width="0.586815" stroke-miterlimit="10"/>
<path d="M5.8585 25.104C5.5565 25.3515 5.171 25.5 4.75 25.5C3.7835 25.5 3 24.717 3 23.75C3 23.4815 3.0325 23.2885 3.1405 23.0615" stroke="black" stroke-width="0.586815" stroke-miterlimit="10"/>
<path d="M11.9999 25.3965C12.2654 25.4825 12.4549 25.5 12.7499 25.5C14.2684 25.5 15.4999 24.2685 15.4999 22.75C15.4999 21.82 14.8494 20.8825 14.1424 20.385C14.6679 19.9265 14.9999 19.252 14.9999 18.5C14.9999 17.119 13.8809 16 12.4999 16C11.7614 16 11.0859 16.335 10.6289 16.8435" stroke="black" stroke-width="0.586815" stroke-miterlimit="10"/>
<path d="M12 23.9525V26C12 26 11.1045 28 10 28C8.8955 28 8 27.1045 8 26V16C8 14.8955 8.8955 14 10 14C11.1045 14 12 14.9455 12 16.0505" stroke="black" stroke-width="0.586815" stroke-miterlimit="10"/>
<path d="M13.4999 22.5C13.4999 23.3285 12.6044 24 11.4999 24C10.9589 24 10.4679 23.839 10.1074 23.5765" stroke="black" stroke-width="0.586815" stroke-miterlimit="10"/>
<path d="M9.5 20.5C9.5 19.6715 10.1715 19 11 19" stroke="black" stroke-width="0.586815" stroke-miterlimit="10"/>
<path d="M22 10C22 9.1715 22.448 8.5 23 8.5C23.552 8.5 24 9.1715 24 10" stroke="black" stroke-width="0.586815" stroke-miterlimit="10"/>
<path d="M23 14C23.2761 14 23.5 13.7761 23.5 13.5C23.5 13.2239 23.2761 13 23 13C22.7239 13 22.5 13.2239 22.5 13.5C22.5 13.7761 22.7239 14 23 14Z" stroke="black" stroke-width="0.586815" stroke-miterlimit="10"/>
<path d="M22 17.5C22 16.6715 22.448 16 23 16C23.552 16 24 16.6715 24 17.5" stroke="black" stroke-width="0.586815" stroke-miterlimit="10"/>
<path d="M23 6.5C23.2761 6.5 23.5 6.27614 23.5 6C23.5 5.72386 23.2761 5.5 23 5.5C22.7239 5.5 22.5 5.72386 22.5 6C22.5 6.27614 22.7239 6.5 23 6.5Z" stroke="black" stroke-width="0.586815" stroke-miterlimit="10"/>
</svg>
