<svg width="1380" height="430" viewBox="0 0 1380 430" fill="none" xmlns="http://www.w3.org/2000/svg">
<path d="M636.748 273.356C635.93 272.421 634.862 271.741 633.669 271.393C631.819 270.926 627.824 268.978 628.29 269.989C628.757 271 630.983 272.218 630.611 272.959C630.611 272.959 624.264 271.204 624.077 272.31C623.891 273.415 626.314 277.684 629.031 278.597C629.93 278.898 636.186 277.698 636.186 277.698L636.748 273.356Z" fill="white"/>
<path d="M1001.36 292.171C1001.36 292.171 998.868 289.457 995.547 289.889C993.848 290.107 991.39 287.432 991.516 289.187C991.643 290.942 994.097 294.934 994.932 295.622C996.576 296.973 1000.2 296.527 1000.2 296.527L1004.63 299.258L1001.36 292.171Z" fill="white"/>
<path d="M77.6579 218.383C77.6579 218.383 59.3208 237.388 58.4571 244.542C57.5934 251.696 67.2342 262.866 67.2342 262.866L77.6579 218.383Z" fill="#CEE2FA"/>
<path d="M85.9434 415.375C85.9434 415.375 86.5894 425.457 88.5414 425.597C88.8012 425.597 98.435 425.597 98.435 425.597L110.723 425.499C110.723 425.499 110.635 422.536 107.04 421.918C103.445 421.301 97.4168 418.787 95.2296 414.038C92.9405 409.042 85.9434 415.375 85.9434 415.375Z" fill="#B5BAC2"/>
<path d="M58.542 415.435C58.542 415.435 59.1915 425.516 61.14 425.657C61.3998 425.657 71.0371 425.657 71.0371 425.657L83.3251 425.559C83.3251 425.559 83.2373 422.596 79.6422 421.978C76.0471 421.36 70.019 418.847 67.8317 414.097C65.5426 409.102 58.542 415.435 58.542 415.435Z" fill="#B5BAC2"/>
<path d="M99.3306 306.971C99.3306 306.971 96.1708 327.552 84.2339 364.102C72.297 400.652 70.7101 416.47 70.7101 416.47L57.8358 416.119C57.8358 416.119 57.6392 376.206 63.1302 357.826C68.6212 339.445 64.1835 291.613 64.1835 291.613L99.3306 306.971Z" fill="#102439"/>
<path d="M105.565 292.67C105.565 292.67 106.088 323.67 100.804 361.75C95.5202 399.831 97.3774 415.985 97.3774 415.985L84.5277 416.438C84.5277 416.438 76.7652 378.375 78.9103 359.318C81.0555 340.26 68.2549 293.958 68.2549 293.958L105.565 292.67Z" fill="#102439"/>
<path d="M80.5332 220.17L87.3864 224.635L97.28 222.768C97.1395 221.971 96.4795 218.661 95.8756 215.666C95.837 215.487 95.8019 215.315 95.7668 215.14C95.2542 212.591 94.8083 210.401 94.8083 210.401L85.5607 206.35L82.1131 204.837C82.1131 204.89 82.3869 207.666 82.422 208.073C83.0856 215.273 80.5332 220.17 80.5332 220.17Z" fill="white"/>
<path d="M94.7346 217.874C94.5415 217.793 82.7977 214.364 81.5373 214.781C80.2769 215.199 79.5186 217.67 79.5186 217.67L98.7018 221.964C98.7018 221.964 97.1852 218.899 94.7346 217.874Z" fill="#B6D7FF"/>
<path d="M63.3364 296.597C65.3446 305.658 98.4168 306.658 106.924 298.416C107.889 297.475 107.928 293.112 107.549 287.228C106.811 275.739 104.477 258.443 104.368 249.622C104.27 245.391 103.788 241.177 102.928 237.034C101.911 231.913 100.503 226.879 98.7152 221.974C98.7152 221.974 82.5653 216.786 79.5319 217.681C64.9654 221.981 61.3282 287.527 63.3364 296.597Z" fill="#B6D7FF"/>
<path d="M107.538 287.218C106.801 275.729 104.466 258.433 104.357 249.612C104.259 245.381 103.778 241.167 102.918 237.024L93.196 235.328C93.196 235.328 83.7904 274.149 107.538 287.218Z" fill="#C6E0FF"/>
<path d="M102.272 271.212C102.091 271.672 102.065 272.179 102.197 272.656C102.329 273.133 102.613 273.554 103.006 273.855C104.41 274.908 105.305 276.635 104.989 277.896C104.673 279.156 101.626 281.213 100.569 280.883C99.5124 280.553 97.3532 278.903 97.5849 278.24C97.8166 277.576 96.1244 272.416 98.6978 270.425C101.271 268.435 102.272 271.212 102.272 271.212Z" fill="white"/>
<path d="M91.2769 219.654C91.2769 219.654 100.756 221.409 108.333 232.516C115.909 243.623 120.88 251.886 119.511 255.899C118.142 259.911 105.468 273.847 103.295 273.851C101.121 273.854 97.5789 272.275 97.3718 268.698C97.3718 268.698 105.724 254.797 103.962 252.799C103.207 251.943 92.8954 243.672 91.3577 247.653C88.8123 254.231 91.2769 219.654 91.2769 219.654Z" fill="#B6D7FF"/>
<path d="M83.1174 208.2C85.1537 211.633 92.7231 214.588 95.8793 215.673C95.8407 215.494 95.8056 215.322 95.7705 215.147C95.2579 212.598 94.812 210.408 94.812 210.408L85.5609 206.35C83.5176 206.325 82.2607 206.785 83.1174 208.2Z" fill="#FFF4ED"/>
<path d="M98.2941 209.836C98.2941 209.836 83.4186 214.512 80.6486 205.206C77.8785 195.9 74.0938 190.234 83.4748 186.854C92.8558 183.473 95.7628 186.474 97.4445 189.356C99.1262 192.238 102.093 208.383 98.2941 209.836Z" fill="white"/>
<path d="M96.8591 188.479C96.8591 188.479 95.9357 199.319 93.6993 198.852C91.4629 198.385 89.4231 198.044 89.7566 201.309C90.0901 204.574 93.2078 208.33 86.3019 208.934C79.3961 209.537 69.4253 191.733 71.3176 188.359C76.7629 178.597 104.748 176.572 96.8591 188.479Z" fill="#163560"/>
<path d="M1269.66 256.446C1269.66 256.446 1268.39 254.34 1267.61 253.196C1266.84 252.051 1265.29 250.595 1264.9 250.967C1264.51 251.339 1266.09 252.869 1266.02 253.382C1265.95 253.894 1263.29 252.174 1263 251.788C1262.43 251.012 1260.9 250.177 1260.73 251.153C1260.56 252.129 1261.67 255.193 1262.18 256.067C1262.69 256.941 1264.83 258.342 1266.02 258.763C1267.2 259.184 1269.22 260.167 1269.22 260.167L1269.66 256.446Z" fill="white"/>
<path d="M1323.45 187.675C1318.92 185.326 1315.29 186.801 1315.29 186.801C1301.44 185.175 1297.41 201.323 1297.59 206.88C1297.78 212.437 1298.41 218.404 1292.23 225.622C1274.36 246.473 1311.78 247.386 1311.78 247.386C1312.1 230.726 1332.07 236.806 1331.19 238.494C1356.8 244.644 1333.74 193.014 1323.45 187.675Z" fill="#102439"/>
<path d="M1305.25 258.334C1304.18 260.318 1302.93 262.198 1301.52 263.951C1298.63 267.577 1294.17 271.765 1288.56 272.59C1285.89 272.983 1283.27 272.408 1280.87 271.34C1274.06 268.321 1268.95 261.378 1268.95 261.378C1268.59 260.475 1268.47 259.495 1268.6 258.532C1268.73 257.569 1269.12 256.658 1269.71 255.888C1269.71 255.888 1283.45 258.977 1284.76 258.324C1286.06 257.671 1293.7 235.682 1295.52 232.919C1297.34 230.157 1303.53 228.707 1303.53 228.707L1305.25 258.334Z" fill="#B6D7FF"/>
<path d="M1301.52 263.952C1298.63 267.578 1294.17 271.766 1288.56 272.591C1285.89 272.984 1283.27 272.408 1280.87 271.341C1281.13 271.376 1287.93 272.215 1290.63 267.371C1293.4 262.428 1296.38 254.576 1300.49 257.191C1302.26 258.335 1302.18 261.143 1301.52 263.952Z" fill="#C6E0FF"/>
<path d="M1356.51 406.613C1356.51 406.613 1360.7 410.439 1359.88 413.156C1359.06 415.873 1355.28 417.688 1354.77 421.009C1354.25 424.33 1352.21 426.145 1350.37 426.145H1341.59C1341.59 426.145 1340.24 423.807 1343.51 423.101C1346.78 422.396 1348.02 418.492 1347.81 414.869C1347.61 411.247 1348.12 406.413 1348.12 406.413L1355.07 404.802L1356.51 406.613Z" fill="#B5BAC2"/>
<path d="M1321.02 408.228C1321.02 408.228 1322.53 424.431 1320.69 425.337L1297.14 425.291C1297.14 425.291 1297.14 422.571 1300.92 421.967C1304.7 421.363 1311.35 419.159 1312.47 414.216C1313.59 409.274 1321.02 408.228 1321.02 408.228Z" fill="#B5BAC2"/>
<path d="M1337.81 291.971C1332.96 281.089 1329.99 277.982 1330.56 274.609C1330.98 272.099 1329.28 227.795 1329.28 227.795C1328.7 227.619 1327.55 227.444 1326.92 227.317C1325.94 227.108 1325.03 226.654 1324.27 225.997C1323.52 225.34 1322.94 224.502 1322.6 223.561C1321.78 221.252 1321.12 217.839 1321.14 213.567L1320.51 213.69L1310.07 215.754C1310.07 215.754 1310.31 219.04 1310.32 222.136V222.213C1310.33 223.521 1309.91 224.795 1309.12 225.843C1308.34 226.891 1307.24 227.655 1305.98 228.02L1303.53 228.722C1303.53 228.722 1299.69 239.663 1298.96 250.907C1298.23 262.151 1305.93 267.034 1298.9 289.5C1291.72 312.447 1340.48 297.978 1337.81 291.971Z" fill="white"/>
<path d="M1308.12 218.686C1308.12 218.686 1321.94 218.914 1321.95 210.307C1321.96 201.699 1323.76 195.914 1314.93 195.419C1306.11 194.924 1304.4 198.192 1303.7 201.064C1303 203.935 1304.53 218.405 1308.12 218.686Z" fill="white"/>
<path d="M1308.63 195.208C1308.63 195.208 1312.41 205.307 1318.22 206.792C1324.03 208.277 1326.55 206.729 1326.55 206.729C1323.68 204.213 1321.78 200.779 1321.17 197.016C1321.17 197.016 1311.49 190.399 1308.63 195.208Z" fill="#0C1B31"/>
<path d="M1309.57 196.026C1309.57 196.026 1306.76 197.079 1305.61 199.122C1304.21 201.513 1303.56 204.265 1303.74 207.028C1303.74 207.028 1300.89 200.161 1304.09 196.279C1307.49 192.161 1309.57 196.026 1309.57 196.026Z" fill="#0C1B31"/>
<path d="M1339.14 247.394C1339.35 251.018 1339.35 254.652 1339.14 258.276C1338.91 262.211 1334.93 267.484 1334.36 268.79C1332.96 272.058 1331.35 272.591 1331.35 272.591L1318.98 275.621L1314.63 276.674L1300.91 272.595C1300.91 272.595 1294.67 255.176 1297.18 245.347C1298.63 239.575 1300.76 233.994 1303.52 228.722C1303.52 228.722 1314.71 239.675 1329.28 227.792L1339.14 247.394Z" fill="#B6D7FF"/>
<path d="M1335.52 259.887C1335.29 263.822 1334.93 267.487 1334.36 268.793C1332.96 272.061 1331.35 272.594 1331.35 272.594L1318.98 275.624L1313.61 274.048C1313.61 274.048 1331.54 271.331 1329.55 255.906L1335.52 259.887Z" fill="#F2CCAA"/>
<path d="M1301.79 275.241C1301.79 275.241 1295 296.374 1294.56 303.57C1294.13 310.766 1307.55 405.795 1308.08 409.109C1308.59 412.237 1312.47 414.227 1312.47 414.227C1313.82 414.894 1315.37 415.019 1316.81 414.578C1320.34 413.581 1321.46 412.384 1321.46 412.384C1321.46 412.384 1326.74 344.613 1323.47 320.413C1321.48 305.443 1320.38 290.369 1320.16 275.269L1301.79 275.241Z" fill="#102439"/>
<path d="M1330.56 274.609C1330.56 274.609 1340.93 288.524 1341.89 297.901C1342.84 307.277 1343.4 340.295 1345.46 349.454C1347.52 358.612 1355.08 376.238 1355.08 404.802C1355.08 404.802 1354.29 406.437 1351.86 407.312C1350.94 407.622 1350 407.882 1349.05 408.091C1348.08 408.313 1347.06 408.201 1346.16 407.774C1345.26 407.346 1344.53 406.628 1344.09 405.735C1338.98 395.447 1322.7 362.263 1321.86 355.376C1321.27 350.5 1316.13 318.24 1304.92 299.308C1302.23 294.745 1306.57 276.691 1306.57 276.691L1330.56 274.609Z" fill="#102439"/>
<path d="M1300.7 271.977C1300.7 271.977 1303.43 274.132 1308.84 274.244C1315.31 274.374 1331.35 272.594 1331.35 272.594C1331.79 273.913 1332.02 275.293 1332.03 276.684C1332.03 276.684 1312.45 281.623 1301.11 277.407C1301.11 277.407 1299.64 274.651 1300.7 271.977Z" fill="#233862"/>
<path d="M1307.29 279.815C1305.67 279.815 1304.34 278.32 1304.34 276.477C1304.34 274.634 1305.67 273.135 1307.29 273.135C1308.92 273.135 1310.25 274.634 1310.25 276.477C1310.25 278.32 1308.92 279.815 1307.29 279.815ZM1307.29 274.114C1306.2 274.114 1305.32 275.167 1305.32 276.477C1305.32 277.786 1306.2 278.839 1307.29 278.839C1308.38 278.839 1309.27 277.786 1309.27 276.477C1309.27 275.167 1308.38 274.132 1307.29 274.132V274.114Z" fill="white"/>
<path d="M1328.5 248.317L1308.44 265.779L1332.35 293.232L1352.41 275.769L1328.5 248.317Z" fill="#367FD3"/>
<path d="M1326.82 275.866C1326.82 275.866 1319.02 277.063 1319.04 278.808C1319.07 280.553 1320.66 283.705 1322.24 283.954C1324.24 284.274 1328.2 279.11 1328.2 279.11L1326.82 275.866Z" fill="white"/>
<path d="M1326.66 276.277C1326.66 276.277 1324.04 275.322 1322.13 275.719C1320.21 276.115 1318.44 275.82 1318.88 276.519C1319.31 277.217 1321.91 276.954 1322.32 277.221C1322.73 277.488 1322.73 277.323 1322.73 277.323L1326.66 276.277Z" fill="white"/>
<path d="M1329.28 227.795C1329.28 227.795 1339.11 228.497 1342.85 237.624C1346.59 246.751 1353.73 262.116 1353.73 264.699C1353.73 267.283 1349.75 275.23 1328.34 279.815C1328.34 279.815 1326.13 277.488 1326.26 275.645C1326.26 275.645 1339.62 264.169 1339.6 262.828C1339.53 260.29 1337.41 256.941 1325.68 245.206C1322.49 242.015 1329.28 227.795 1329.28 227.795Z" fill="#B6D7FF"/>
<path d="M295.325 425.969C290.166 425.971 285.018 425.515 279.94 424.607C275.332 423.781 270.799 422.578 266.388 421.009C259.551 421.658 252.667 421.665 245.829 421.03C224.764 419.067 205.422 412.763 189.371 402.934C185.496 403.767 181.528 404.078 177.571 403.86C167.74 403.351 158.415 399.648 149.881 392.859C141.77 386.403 134.766 377.494 129.061 366.377C119.045 346.887 114.13 322.396 115.127 297.412C116.25 269.737 124.536 243.135 139.092 220.479C150.548 202.647 163.204 188.795 176.714 179.317C188.409 171.11 201.079 165.949 214.371 163.98C218.018 163.442 221.696 163.132 225.381 163.053C237.426 155.934 250.578 150.882 264.292 148.11C280.677 144.761 305.59 143.985 331.237 159.322C357.902 175.266 379.234 204.956 394.643 247.52C395.526 249.956 396.345 252.385 397.101 254.807C400.636 256.636 404.452 258.693 408.715 260.989L408.996 261.14C422.316 268.315 605.239 257.521 626.726 259.964C644.631 261.996 694.475 332.676 719.5 324.5C742.886 316.858 958.786 264.838 967.985 245.542L970 246.5C960.521 266.369 744.181 318.782 720.192 326.638C694.787 334.936 644.606 264.257 626.473 262.196C604.706 259.739 421.494 270.421 407.939 263.116L407.658 262.969C404.147 261.077 400.959 259.36 397.996 257.805C404.189 279.179 405.39 300.063 401.553 320.03C397.673 340.207 388.685 358.545 375.572 373.068C371.833 377.214 367.742 381.029 363.344 384.469C363.045 385.126 362.737 385.779 362.428 386.425C363.958 389.342 364.885 392.157 364.71 394.59C364.446 398.584 359.91 402.095 351.228 405.026C350.526 405.268 349.774 405.503 349.013 405.728C341.935 412.889 333.392 418.13 323.383 421.451C314.332 424.445 304.859 425.971 295.325 425.969ZM271.683 420.38C274.528 421.211 277.416 421.89 280.333 422.413C294.484 424.917 309.036 423.858 322.674 419.331C330.693 416.731 338.098 412.528 344.441 406.978C332.715 409.909 316.909 411.825 299.878 412.478C299.215 412.766 298.541 413.047 297.867 413.321C289.458 416.731 280.665 419.101 271.683 420.38ZM192.422 402.158C207.806 411.166 226.147 416.958 246.046 418.811C251.21 419.29 256.402 419.396 261.582 419.127C255.934 416.72 250.574 413.69 245.6 410.091C238.22 409.111 230.906 407.681 223.7 405.809C215.193 403.534 208.213 400.785 202.821 397.584C199.561 399.541 196.067 401.078 192.422 402.158ZM250.452 410.709C255.539 413.992 260.978 416.693 266.669 418.758C275.782 417.857 284.746 415.817 293.352 412.685C285.034 412.843 276.521 412.707 268.123 412.24C262.007 411.885 256.087 411.387 250.442 410.709H250.452ZM246.482 407.971C253.247 408.887 260.525 409.568 268.249 409.997C278.652 410.572 289.226 410.646 299.362 410.27C305.48 407.625 311.329 404.398 316.829 400.634C313.882 400.445 310.958 399.989 308.094 399.272C301.405 397.594 295.925 393.61 291.438 387.046C284.306 387.242 277.17 386.838 270.106 385.838C252.801 383.42 238.628 378.168 227.737 370.161C225.936 373.32 224.139 376.129 222.387 378.621C227.204 388.963 234.283 398.091 243.101 405.331C244.189 406.239 245.318 407.119 246.489 407.971H246.482ZM320.533 400.743C315.709 404.259 310.594 407.356 305.243 410C321.99 409.077 337.156 406.907 347.833 403.745C349.956 401.558 351.919 399.221 353.707 396.752C355.875 393.745 357.811 390.576 359.496 387.274C354.335 390.899 348.766 393.904 342.904 396.229C335.352 399.199 327.786 400.708 320.522 400.743H320.533ZM204.973 396.229C213.634 401.084 226.287 404.868 242.002 407.322L241.672 407.048C232.922 399.862 225.834 390.864 220.898 380.675C218.853 383.434 216.624 386.053 214.227 388.513C211.414 391.398 208.309 393.984 204.962 396.229H204.973ZM361.164 388.896C358.663 393.698 355.63 398.204 352.123 402.33C358.639 399.915 362.305 397.135 362.48 394.428C362.568 392.901 362.122 391.027 361.153 388.896H361.164ZM221.614 165.409C219.178 165.588 216.889 165.862 214.701 166.184C201.753 168.119 189.402 173.135 177.992 181.142C164.724 190.455 152.268 204.093 140.966 221.683C126.625 244.006 118.462 270.225 117.352 297.507C116.355 322.111 121.214 346.21 131.045 365.362C136.606 376.199 143.41 384.862 151.271 391.121C159.434 397.616 168.32 401.154 177.683 401.652C180.663 401.814 183.652 401.662 186.601 401.2C176.503 394.6 167.821 386.561 160.971 377.301C157.55 372.676 154.583 367.732 152.113 362.536C144.548 358.464 138.33 352.564 133.541 344.89C126.913 334.271 123.419 320.711 123.437 305.669C123.458 299.303 124.099 292.954 125.35 286.713C124.648 268.596 132.126 247.625 146.44 227.525C160.164 208.253 178.087 192.793 195.613 185.109C197.572 184.248 199.503 183.495 201.406 182.852C203.944 179.948 206.661 177.204 209.54 174.637C213.329 171.264 217.365 168.179 221.614 165.409ZM155.414 364.137C157.552 368.268 160.017 372.22 162.786 375.957C169.903 385.593 179.066 393.859 189.771 400.554C193.593 399.628 197.267 398.176 200.69 396.239C198.33 394.696 196.183 392.85 194.303 390.749C188.441 384.063 183.163 376.886 178.529 369.297C174.831 369.104 171.152 368.648 167.519 367.932C163.354 367.127 159.293 365.854 155.414 364.137ZM294.092 386.955C298.105 392.364 302.898 395.688 308.624 397.135C312.275 398.043 316.022 398.514 319.785 398.539C326.132 393.857 331.857 388.388 336.823 382.261C339.36 379.123 341.669 375.806 343.732 372.337C329.015 381.05 312.142 386.017 294.099 386.941L294.092 386.955ZM347.183 370.775C344.699 375.317 341.812 379.626 338.557 383.651C334.133 389.108 329.115 394.054 323.594 398.398C329.938 397.95 336.174 396.519 342.079 394.158C348.069 391.778 353.744 388.672 358.976 384.908C356.87 381.57 353.837 377.764 349.964 373.629C349.077 372.686 348.152 371.73 347.19 370.761L347.183 370.775ZM181.187 369.399C185.573 376.41 190.517 383.055 195.971 389.271C197.968 391.485 200.275 393.397 202.821 394.948C206.381 392.661 209.667 389.974 212.616 386.941C215.22 384.271 217.624 381.413 219.806 378.389C219.13 376.885 218.495 375.35 217.903 373.787C217.285 372.163 216.719 370.514 216.204 368.841C215.401 368.67 214.605 368.475 213.817 368.255C211.832 367.7 209.895 366.987 208.024 366.124C199.352 368.322 190.315 369.613 181.187 369.399ZM230.69 369.529C241.057 376.662 254.339 381.384 270.401 383.63C276.9 384.548 283.461 384.955 290.023 384.848C287.155 380.078 284.725 374.135 282.65 366.946C282.391 366.033 282.138 365.106 281.892 364.165C278.929 363.758 275.969 363.243 273.013 362.621C269.309 361.849 265.658 360.838 262.084 359.595C255.196 362.944 248.163 365.78 241.212 367.595C237.76 368.512 234.242 369.158 230.69 369.529ZM284.294 364.467C284.462 365.097 284.634 365.718 284.81 366.331C286.976 373.903 289.546 380.022 292.604 384.775C311.871 384.016 329.819 378.575 345.203 368.795C342.18 365.85 338.884 362.859 335.352 359.865C332.115 360.843 328.865 361.694 325.602 362.417C312.047 365.42 298.083 366.113 284.297 364.467H284.294ZM348.728 369.15C349.718 370.147 350.672 371.136 351.59 372.116C354.749 375.497 358.204 379.562 360.77 383.602L361.522 383.03C364.541 376.248 366.907 368.637 368.596 360.213C369.298 356.777 369.883 353.2 370.352 349.481C364.136 357.042 356.859 363.664 348.746 369.139L348.728 369.15ZM372.953 346.143C372.419 351.221 371.693 356.058 370.773 360.651C369.474 367.272 367.594 373.766 365.156 380.057C368.237 377.411 371.148 374.573 373.869 371.558C386.508 357.562 395.247 339.93 399.148 320.517C392.719 327.094 385.718 333.085 378.226 338.42C376.604 341.067 374.851 343.641 372.967 346.143H372.953ZM218.683 369.283C219.09 370.528 219.524 371.762 219.985 372.983C220.404 374.086 220.843 375.174 221.302 376.248C222.641 374.292 223.995 372.139 225.364 369.789C223.132 369.786 220.904 369.617 218.697 369.283H218.683ZM217.949 366.903C220.073 367.277 222.222 367.488 224.377 367.535C222.578 366.02 220.867 364.404 219.251 362.694C218.512 362.954 217.768 363.209 217.019 363.46C217.313 364.618 217.628 365.766 217.963 366.903H217.949ZM234.492 356.372C232.775 360.423 231.009 364.095 229.226 367.398C233.082 367.087 236.902 366.426 240.64 365.426C246.784 363.821 253.019 361.389 259.166 358.503C254.173 356.553 249.435 354.007 245.053 350.921C241.742 352.785 238.207 354.621 234.506 356.379L234.492 356.372ZM179.782 367.128C188.321 367.479 196.807 366.454 205.008 364.555C199.422 361.357 194.433 356.692 190.111 350.612C187.763 347.316 185.664 343.85 183.83 340.242C178.687 339.296 173.607 338.029 168.621 336.448C168.27 336.335 167.919 336.223 167.547 336.096C169.173 345.669 173.375 356.313 179.782 367.128ZM337.862 359.082C340.969 361.757 343.901 364.425 346.608 367.058C348.746 362.77 350.486 358.296 351.807 353.69C347.259 355.737 342.604 357.537 337.862 359.082ZM153.823 360.897C158.275 363.176 163.028 364.811 167.94 365.752C170.978 366.352 174.05 366.765 177.139 366.988C174.976 363.267 173.016 359.431 171.269 355.498C168.14 348.414 166.094 341.608 165.167 335.289C158.637 332.958 151.826 329.718 145.72 325.214C146.001 337.897 148.722 349.896 153.823 360.89V360.897ZM221.562 361.863C223.285 363.62 225.114 365.27 227.039 366.805C228.527 364.053 230.009 361.052 231.469 357.773C228.267 359.23 224.957 360.602 221.562 361.863ZM211.538 365.162C212.834 365.643 214.156 366.049 215.498 366.38C215.292 365.641 215.096 364.897 214.909 364.148C213.79 364.503 212.665 364.842 211.535 365.162H211.538ZM354.465 352.458C353.271 357.02 351.68 361.469 349.708 365.752C357.723 360.016 364.839 353.118 370.819 345.283C370.886 344.625 370.95 343.964 371.008 343.3C369.474 344.276 367.89 345.248 366.258 346.203C362.373 348.489 358.44 350.574 354.461 352.458H354.465ZM186.608 340.713C188.204 343.691 189.987 346.565 191.944 349.32C196.656 355.944 202.069 360.75 208.248 363.758C210.32 363.217 212.37 362.621 214.396 361.982C213.886 359.693 213.462 357.37 213.125 355.014L212.742 354.438C210.194 350.536 208.075 346.369 206.423 342.011C199.791 342.195 193.156 341.761 186.604 340.713H186.608ZM283.704 362.15C297.52 363.896 311.534 363.25 325.132 360.241C327.87 359.637 330.598 358.935 333.316 358.135C323.472 350.019 313.078 342.595 302.209 335.914C299.752 337.427 297.206 339.052 294.542 340.744C290.28 343.447 285.729 346.333 280.983 349.194C281.78 353.725 282.672 358.064 283.704 362.15ZM264.935 358.187C267.75 359.08 270.61 359.83 273.501 360.434C276.106 360.986 278.716 361.454 281.33 361.838C280.446 358.208 279.659 354.392 278.947 350.422C274.403 353.115 269.706 355.754 264.924 358.187H264.935ZM216.06 358.998C216.208 359.763 216.366 360.529 216.534 361.287L217.654 360.904C217.102 360.279 216.567 359.644 216.05 358.998H216.06ZM215.27 354.192C216.69 356.261 218.244 358.235 219.922 360.1C224.377 358.479 228.699 356.66 232.793 354.733C234.197 351.377 235.559 347.75 236.879 343.851C236.411 343.371 235.958 342.881 235.521 342.38C234.232 340.936 233.02 339.424 231.891 337.852C230.847 338.168 229.8 338.466 228.752 338.747C224.039 340.01 219.238 340.913 214.389 341.45C214.401 345.712 214.691 349.968 215.26 354.192H215.27ZM126.295 295.06C125.89 298.577 125.683 302.114 125.673 305.655C125.656 320.275 129.033 333.429 135.44 343.693C139.234 349.896 144.406 355.141 150.555 359.023C145.899 347.997 143.533 336.051 143.463 323.459C135.293 316.793 128.703 307.634 126.295 295.06ZM304.333 334.598C315.362 341.444 325.897 349.054 335.861 357.373C341.56 355.58 347.136 353.416 352.552 350.893C354.597 342.529 355.292 333.892 354.609 325.309C351.365 328.003 347.759 330.229 343.897 331.923C333.916 336.216 324.84 336.37 316.927 332.386C315.455 331.638 314.046 330.773 312.714 329.799C310.151 331.126 307.349 332.755 304.333 334.598ZM247.236 349.692C251.819 352.789 256.773 355.298 261.982 357.159C267.642 354.35 273.217 351.23 278.543 348.032C277.567 342.271 276.735 336.209 275.973 329.925C271.907 333.221 267.712 336.391 263.467 339.368C258.952 342.556 253.468 346.14 247.236 349.71V349.692ZM238.628 345.589C237.692 348.284 236.741 350.847 235.777 353.276C238.308 352.03 240.762 350.745 243.115 349.45C241.554 348.246 240.057 346.963 238.628 345.606V345.589ZM208.765 341.896C209.838 344.61 211.095 347.248 212.528 349.79C212.294 347.12 212.169 344.409 212.153 341.657C211.029 341.773 209.899 341.853 208.765 341.913V341.896ZM356.698 323.487C357.558 332.234 357.032 341.061 355.139 349.643C358.498 348.005 361.827 346.215 365.127 344.272C367.234 343.026 369.288 341.759 371.236 340.491C372.062 329.518 372.03 317.493 371.138 304.415C367.097 312.043 362.182 318.524 356.698 323.505V323.487ZM239.418 343.247C241.24 345.054 243.186 346.731 245.242 348.267C251.773 344.567 257.509 340.828 262.172 337.553C266.897 334.236 271.405 330.799 275.646 327.324C275.412 325.386 275.191 323.43 274.983 321.455C272.509 320.378 270.093 319.4 267.736 318.52C259.966 324.834 251.372 330.061 242.191 334.057C241.311 337.289 240.387 340.358 239.418 343.265V343.247ZM278.002 328.261C278.764 334.699 279.6 340.899 280.579 346.807C285.038 344.1 289.321 341.383 293.348 338.831C295.672 337.357 297.912 335.931 300.075 334.587L298.291 333.534C292.734 330.241 287.327 327.314 282.141 324.758C280.777 325.949 279.397 327.123 278.002 328.279V328.261ZM234.12 337.143C235.08 338.441 236.097 339.693 237.171 340.899L237.666 341.443C238.314 339.421 238.95 337.326 239.572 335.159C237.768 335.875 235.95 336.536 234.12 337.143ZM185.337 338.241C192.028 339.414 198.817 339.936 205.608 339.8C201.557 328.099 200.08 314.302 201.178 298.409C200.071 297.403 199.004 296.35 197.979 295.25C197.35 294.569 196.736 293.867 196.14 293.144C191.077 295.485 186.611 297.742 182.974 299.778C180.833 300.963 178.823 302.368 176.974 303.97C176.974 304.215 176.974 304.458 176.998 304.703C177.38 316.346 180.222 327.775 185.337 338.241ZM203.305 300.231C202.42 315.398 203.97 328.562 207.954 339.723C209.358 339.657 210.762 339.561 212.167 339.435C212.236 335.076 212.554 330.724 213.118 326.401C213.153 325.572 213.536 318.169 216.509 308.122C211.749 306.145 207.301 303.487 203.305 300.231ZM218.623 308.954C215.67 319.057 215.354 326.422 215.351 326.534V326.636C214.806 330.806 214.493 335.002 214.414 339.207C219.063 338.682 223.667 337.811 228.187 336.598C228.987 336.384 229.781 336.16 230.577 335.924C225.627 328.374 222.446 319.507 221.26 309.86C220.356 309.577 219.473 309.275 218.609 308.954H218.623ZM373.101 300.529C374.208 314.454 374.373 327.262 373.596 338.954C374.623 338.252 375.625 337.55 376.601 336.848C386.689 320.282 391.853 301.187 391.487 281.795C391.339 272.815 388.678 266.767 383.384 263.309C382.806 262.931 382.204 262.59 381.583 262.288C381.685 274.921 378.662 288.566 373.087 300.526L373.101 300.529ZM167.203 333.632C167.905 333.866 168.607 334.1 169.31 334.334C173.683 335.716 178.128 336.857 182.626 337.753C177.993 327.797 175.338 317.034 174.811 306.065C170.889 310.236 168.393 315.326 167.361 321.279C166.703 325.367 166.65 329.529 167.203 333.632ZM223.577 310.555C224.841 319.714 227.979 328.107 232.775 335.236C235.317 334.415 237.834 333.479 240.327 332.428C242.142 325.709 243.55 319.138 244.589 313.002C243.765 312.953 242.96 312.928 242.174 312.928C235.897 312.974 229.642 312.175 223.577 310.555ZM381.509 259.809C382.583 260.262 383.614 260.808 384.592 261.442C390.479 265.282 393.548 272.117 393.72 281.76C394.052 299.825 389.698 317.669 381.081 333.551C392.094 325.127 398.723 317.807 399.923 316.445C403.083 297.138 401.524 276.986 395.247 256.362C389.767 253.554 385.023 251.332 380.34 249.65C380.928 252.705 381.305 255.797 381.47 258.904C381.481 259.202 381.495 259.504 381.509 259.809ZM283.939 323.185C288.938 325.643 294.12 328.472 299.429 331.61C300.365 332.158 301.29 332.714 302.202 333.278C305.271 331.389 308.139 329.697 310.776 328.286C305.822 324.151 301.609 318.362 297.94 311.471C297.144 311.689 296.349 311.885 295.553 312.061C291.954 315.796 288.05 319.535 283.939 323.185ZM314.978 328.669C315.927 329.303 316.913 329.88 317.931 330.396C325.332 334.124 333.537 333.952 343.016 329.876C347.15 328.052 350.977 325.599 354.36 322.603C353.679 316.413 352.386 310.307 350.498 304.373C349.747 301.986 348.839 299.652 347.78 297.384C337.567 312.9 326.364 324.133 317.798 327.45C316.895 327.798 315.961 328.191 314.978 328.669ZM145.696 322.424C150.983 326.571 157.37 330.031 164.858 332.804C164.415 328.83 164.517 324.815 165.16 320.869C166.403 313.714 169.601 307.726 174.706 302.966C174.495 289.556 177.185 276.26 182.591 263.987C181.131 256.877 180.425 249.634 180.485 242.377C178.144 242.257 175.823 242.22 173.523 242.265C161.112 260.146 152.324 280.268 148.101 300.536C146.572 307.734 145.766 315.066 145.696 322.424ZM246.808 313.198C245.843 318.941 244.561 325.056 242.925 331.312C250.9 327.682 258.405 323.098 265.275 317.66C258.485 315.266 252.271 313.76 246.815 313.198H246.808ZM300.142 310.815C304.063 318.078 308.304 323.498 312.935 327.18C314.36 326.478 315.712 325.864 316.973 325.372C325.048 322.248 336.18 310.98 346.035 295.952L346.608 295.071C343.711 289.546 339.713 284.673 334.86 280.752C332.052 286.909 327.677 292.814 322.007 297.977C315.709 303.752 308.259 308.127 300.149 310.815H300.142ZM277.321 322.522C277.438 323.568 277.555 324.608 277.672 325.643C278.43 325.004 279.181 324.366 279.923 323.729C279.064 323.315 278.203 322.913 277.342 322.522H277.321ZM277.04 319.959C278.592 320.647 280.162 321.373 281.752 322.136C285.34 318.976 288.686 315.817 291.761 312.728C288.912 313.123 286.028 313.195 283.163 312.942C280.867 312.704 278.677 311.855 276.819 310.485L276.117 311.187C276.433 314.133 276.748 317.057 277.061 319.959H277.04ZM349.188 295.194C350.551 297.937 351.695 300.784 352.611 303.706C354.381 309.261 355.645 314.964 356.389 320.746C361.617 315.705 366.283 309.225 370.081 301.625C370.332 301.124 370.577 300.621 370.819 300.115C370.098 291.276 369 281.997 367.525 272.278C367.001 268.783 366.298 265.317 365.419 261.894C361.312 273.583 355.866 284.757 349.188 295.194ZM127.594 286.857L127.625 287.51C128.198 298.111 131.708 307.371 138.056 315.031C139.717 317.027 141.534 318.887 143.491 320.595C143.672 313.695 144.482 306.826 145.91 300.073C150.088 280.04 158.658 260.143 170.746 242.363C166.66 242.559 162.593 243.049 158.577 243.827C149.579 245.582 141.223 253.143 135.054 265.106C131.715 271.548 129.181 279.018 127.594 286.857ZM269.716 316.912C271.355 317.542 273.018 318.216 274.705 318.934C274.497 316.997 274.291 315.044 274.087 313.076C272.648 314.4 271.191 315.679 269.716 316.912ZM247.191 310.99C253.131 311.622 259.914 313.318 267.326 316.007C269.409 314.298 271.459 312.501 273.477 310.615L273.828 310.292C273.729 309.358 273.635 308.417 273.54 307.484C270.566 304.229 267.922 299.733 265.433 294.534C259.711 296.166 255.083 296.847 251.962 296.089C251.039 295.864 250.038 295.59 248.974 295.274C248.655 299.936 248.076 305.261 247.191 310.99ZM278.466 308.884C279.935 309.897 281.634 310.527 283.409 310.717C287.097 311.021 290.81 310.785 294.429 310.014C295.047 309.365 295.655 308.723 296.244 308.084C294.18 303.787 292.338 299.388 290.725 294.902C286.921 299.811 282.817 304.481 278.437 308.884H278.466ZM223.307 308.147C229.448 309.892 235.807 310.755 242.191 310.71C243.093 310.71 244.018 310.74 244.968 310.801C245.909 304.833 246.499 299.339 246.78 294.576C240.52 292.451 234.496 289.685 228.805 286.323C227.84 287.833 226.92 289.382 226.045 290.971C224.936 292.982 223.938 294.983 223.054 296.938C222.844 300.677 222.922 304.427 223.289 308.154L223.307 308.147ZM298.941 308.456L299.12 308.807C306.63 306.451 314.136 302.137 320.536 296.321C326.125 291.227 330.391 285.4 333.073 279.351C329.641 276.878 325.91 274.847 321.969 273.307C321.484 273.114 321 272.931 320.508 272.752C319.338 273.22 318.167 273.688 316.997 274.156C316.642 277.503 316.056 280.821 315.242 284.087C313.7 289.858 307.778 298.725 298.923 308.463L298.941 308.456ZM275.674 306.536C276.025 306.887 276.348 307.203 276.693 307.508C281.407 302.766 285.8 297.714 289.841 292.385C289.139 290.389 288.466 288.352 287.822 286.274C282.959 288.278 278.343 290.114 274.109 291.655C274.621 296.394 275.106 301.133 275.587 305.823C275.629 306.076 275.629 306.308 275.657 306.543L275.674 306.536ZM219.28 306.806C219.848 307.021 220.422 307.226 221 307.42C220.859 305.82 220.772 304.208 220.737 302.587C220.189 304.035 219.697 305.444 219.262 306.813L219.28 306.806ZM292.361 292.765C293.236 295.222 294.148 297.637 295.107 299.975C296.017 302.193 296.943 304.3 297.884 306.294C306.279 296.966 311.703 288.742 313.054 283.518C313.753 280.745 314.278 277.932 314.627 275.093C309.81 277.052 305.053 279.05 300.458 280.987C297.881 285.076 295.176 289.008 292.344 292.786L292.361 292.765ZM203.474 297.472C207.557 301.016 212.179 303.887 217.166 305.978C218.212 302.722 219.437 299.526 220.835 296.405C221.114 291.73 221.788 287.086 222.85 282.525L222.632 282.37C216.169 284.663 209.976 287.12 204.274 289.535C203.939 292.238 203.673 294.884 203.474 297.472ZM267.554 293.891C269.11 297.251 270.964 300.464 273.094 303.492C272.719 299.82 272.334 296.136 271.939 292.438C270.433 292.968 268.958 293.456 267.554 293.891ZM183.476 267.673C179.247 278.318 177.027 289.655 176.928 301.109C178.495 299.89 180.154 298.794 181.889 297.83C185.449 295.84 189.792 293.639 194.707 291.35C189.613 284.712 185.846 276.754 183.476 267.673ZM367.202 259.95C368.276 263.889 369.12 267.887 369.73 271.924C370.989 280.215 371.975 288.196 372.686 295.868C377.215 284.831 379.575 272.636 379.325 261.343C375.864 260.167 371.763 259.76 367.202 259.964V259.95ZM198.243 292.178C198.692 292.705 199.148 293.231 199.615 293.723C200.198 294.352 200.793 294.963 201.399 295.555C201.542 293.917 201.712 292.25 201.911 290.553C200.662 291.098 199.439 291.64 198.243 292.178ZM249.076 292.986C250.291 293.361 251.428 293.688 252.464 293.927C255.129 294.576 259.289 293.948 264.45 292.491C262.094 287.338 259.858 281.609 257.579 275.767L256.337 272.608C253.075 273.31 249.922 274.079 246.921 274.862C248.11 277.688 248.829 280.691 249.048 283.75C249.23 286.826 249.239 289.909 249.076 292.986ZM335.794 278.618C340.774 282.525 344.923 287.387 347.998 292.919C354.449 282.663 359.695 271.696 363.632 260.238C356.087 261.034 347.482 263.242 338.536 266.181C338.317 270.451 337.386 274.655 335.78 278.618H335.794ZM230.005 284.484C235.359 287.63 241.011 290.239 246.878 292.273C247.015 289.48 247.002 286.682 246.84 283.89C246.62 280.969 245.908 278.107 244.733 275.423C241.345 276.34 237.957 277.326 234.604 278.372C232.985 280.317 231.452 282.354 230.005 284.484ZM258.548 272.124L259.654 274.957C261.968 280.878 264.218 286.692 266.606 291.855C268.223 291.352 269.922 290.787 271.704 290.16C270.97 283.49 270.18 276.792 269.246 270.189C265.605 270.748 262.021 271.404 258.548 272.124ZM224.844 283.866C224.339 286.155 223.931 288.454 223.626 290.75C223.78 290.469 223.931 290.184 224.089 289.904C224.979 288.287 225.915 286.712 226.898 285.179C226.196 284.754 225.511 284.312 224.83 283.866H224.844ZM184.936 264.229C187.201 274.409 191.172 283.227 196.786 290.395C198.539 289.597 200.353 288.794 202.227 287.987C203.112 281.226 204.417 274.136 206.142 266.718C203.938 263.799 202.027 260.67 200.437 257.377C198.655 253.693 197.339 249.801 196.519 245.792C192.146 250.917 188.486 256.609 185.635 262.712C185.4 263.204 185.168 263.716 184.936 264.229ZM289.89 285.435C290.4 287.05 290.923 288.652 291.459 290.241C293.299 287.744 295.082 285.175 296.81 282.535C294.461 283.525 292.147 284.498 289.89 285.435ZM271.465 269.87C272.364 276.322 273.143 282.858 273.859 289.381C278.009 287.864 282.492 286.074 287.158 284.15C285.628 279.137 284.199 273.942 282.84 268.666C279.02 268.929 275.214 269.343 271.465 269.87ZM207.918 268.964C206.514 275.21 205.413 281.214 204.615 286.976C209.586 284.87 214.916 282.792 220.456 280.787C215.824 277.354 211.615 273.386 207.915 268.964H207.918ZM225.378 281.57C226.28 282.181 227.19 282.764 228.099 283.325C228.963 282.047 229.859 280.801 230.788 279.587C228.987 280.176 227.193 280.777 225.42 281.391L225.378 281.57ZM285.108 268.515C286.379 273.43 287.745 278.4 289.237 283.283C292.182 282.058 295.205 280.787 298.232 279.509L298.934 279.211C300.982 275.935 302.937 272.558 304.8 269.08C298.266 268.313 291.676 268.124 285.108 268.515ZM208.571 266.191C212.7 271.41 217.546 276.02 222.966 279.882L223.563 279.671C225.162 273.714 227.376 267.94 230.17 262.442C230.655 261.487 231.154 260.551 231.669 259.634C226.522 255.688 220.242 252.234 213.276 249.454C212.504 251.576 211.801 253.773 211.17 256.043C210.21 259.502 209.337 262.889 208.55 266.205L208.571 266.191ZM233.453 261.034C233.018 261.828 232.593 262.633 232.178 263.45C229.676 268.361 227.649 273.5 226.126 278.797C228.503 277.989 230.911 277.2 233.334 276.438C235.659 273.702 238.172 271.131 240.854 268.743C238.691 265.896 236.2 263.313 233.432 261.048L233.453 261.034ZM307.181 269.407C305.678 272.236 304.111 275.012 302.48 277.733C306.542 276.027 310.716 274.286 314.933 272.58C314.982 272.071 315.028 271.558 315.07 271.039C312.458 270.356 309.812 269.816 307.142 269.421L307.181 269.407ZM323.598 271.548C327.254 273.046 330.732 274.949 333.965 277.221C335.236 273.921 336.017 270.454 336.286 266.928C332.062 268.357 327.811 269.919 323.559 271.562L323.598 271.548ZM198.611 186.246C197.93 186.524 197.242 186.811 196.554 187.113C179.639 194.531 161.6 210.11 148.301 228.785C136.947 244.725 129.988 261.185 128.103 276.224C129.43 272.043 131.101 267.98 133.099 264.074C139.597 251.49 148.508 243.518 158.191 241.608C162.854 240.724 167.581 240.213 172.325 240.081C175.169 236.044 178.143 232.19 181.246 228.518C182.958 213.09 188.96 198.45 198.573 186.26L198.611 186.246ZM242.135 270.583C240.497 272.043 238.93 273.576 237.434 275.181C239.541 274.556 241.654 273.955 243.775 273.377C243.283 272.436 242.737 271.505 242.135 270.583ZM243.834 269.108C244.623 270.29 245.34 271.519 245.98 272.787C249.21 271.942 252.386 271.175 255.508 270.484C254.493 267.925 253.465 265.373 252.408 262.87C251.334 263.542 250.28 264.244 249.248 264.977C247.376 266.268 245.571 267.646 243.834 269.108ZM317.38 269.393C318.433 269.702 319.444 270.028 320.445 270.379C325.767 268.29 331.107 266.3 336.324 264.545C336.243 258.132 334.518 251.847 331.314 246.291C326.975 246.614 322.246 247.014 317.057 247.488C316.899 247.902 316.744 248.313 316.583 248.727C317.533 255.572 317.8 262.495 317.38 269.393ZM254.335 261.701C255.494 264.436 256.614 267.22 257.716 270.01C261.548 269.208 265.293 268.526 268.951 267.964C268.354 263.836 267.699 259.752 266.985 255.713C262.607 257.348 258.375 259.351 254.335 261.701ZM308.238 267.318C310.641 267.711 312.958 268.197 315.189 268.775C315.484 263.525 315.374 258.26 314.859 253.027C312.844 257.909 310.637 262.676 308.238 267.329V267.318ZM269.106 254.944C269.857 259.125 270.531 263.369 271.149 267.641C274.966 267.1 278.675 266.701 282.275 266.444C281.222 262.231 280.193 258.019 279.196 253.768C279.069 253.227 278.95 252.683 278.845 252.139C275.551 252.901 272.3 253.838 269.106 254.944ZM234.552 259.079C237.532 261.486 240.215 264.24 242.542 267.283C244.289 265.823 246.099 264.438 247.974 263.13C249.132 262.323 250.316 261.545 251.523 260.796C249.224 255.495 246.773 250.458 244.056 246.08C240.44 250.068 237.255 254.425 234.552 259.079ZM291.923 266.1C296.601 266.085 301.275 266.385 305.913 266.999C309.043 260.977 311.843 254.79 314.301 248.464C314.266 248.229 314.231 247.993 314.192 247.762C307.911 248.348 300.977 249.029 293.278 249.798C289.159 250.199 285.066 250.822 281.014 251.665C281.123 252.202 281.239 252.718 281.365 253.266C282.356 257.478 283.405 261.859 284.525 266.307L285.505 266.258C287.691 266.143 289.829 266.085 291.919 266.082L291.923 266.1ZM198.632 244.929C199.4 248.905 200.682 252.765 202.445 256.411C203.698 259.01 205.159 261.502 206.816 263.864C207.49 261.105 208.22 258.296 209.007 255.439C209.653 253.099 210.376 250.833 211.177 248.643C207.079 247.138 202.889 245.897 198.632 244.929ZM333.758 246.101C336.714 251.55 338.353 257.615 338.543 263.811C341.264 262.927 343.95 262.112 346.573 261.385C353.222 259.546 359.13 258.392 364.295 257.924C363.023 253.705 361.473 249.573 359.658 245.557C352.678 245.136 344.441 245.347 333.758 246.101ZM182.707 242.517C182.681 248.563 183.183 254.599 184.206 260.557C187.077 254.648 190.701 249.135 194.988 244.157C190.93 243.37 186.829 242.823 182.707 242.517ZM245.632 244.402C248.5 248.934 251.06 254.151 253.451 259.637C257.641 257.217 262.03 255.158 266.571 253.484C265.822 249.463 264.997 245.516 264.096 241.643C263.358 238.496 262.572 235.464 261.736 232.548C255.728 235.547 250.281 239.557 245.632 244.402ZM369.369 257.682C372.706 257.628 376.033 258.068 379.241 258.988C379.061 255.564 378.61 252.16 377.893 248.808C375.191 247.941 372.436 247.247 369.646 246.73C368.888 250.345 367.926 254.024 366.77 257.738C367.655 257.707 368.519 257.682 369.369 257.682ZM214.069 247.348C220.996 250.1 227.372 253.575 232.782 257.682C235.626 252.823 238.986 248.285 242.802 244.146C236.886 235.346 230.455 231.042 223.18 231.028C219.413 236.027 216.348 241.518 214.069 247.348ZM362.182 245.743C363.406 248.538 364.504 251.381 365.475 254.273C366.233 251.613 366.889 248.978 367.441 246.368C365.752 246.108 364.011 245.901 362.182 245.743ZM379.782 247.105C384.448 248.688 389.092 250.77 394.303 253.385C393.748 251.686 393.163 249.985 392.547 248.281C377.317 206.199 356.305 176.912 330.093 161.224C305.06 146.253 280.734 147.011 264.738 150.283C252.527 152.758 240.759 157.062 229.833 163.05C238.789 163.281 247.458 164.77 255.845 166.943C266.68 163.945 277.862 162.832 288.096 163.854C302.245 165.258 313.177 170.474 319.693 178.615C332.066 175.694 344.712 179.527 356.241 189.929C366.581 199.252 371.809 212.521 371.689 228.813C372.04 229.276 372.346 229.743 372.662 230.217C376.012 235.382 378.422 241.098 379.782 247.102V247.105ZM263.783 231.597C264.663 234.639 265.492 237.817 266.269 241.131C267.156 244.924 267.966 248.786 268.698 252.715C271.895 251.625 275.146 250.7 278.437 249.942C277.237 242.43 277.542 234.398 279.298 226.373C273.964 227.589 268.766 229.339 263.783 231.597ZM281.688 225.885C279.807 233.913 279.428 241.956 280.611 249.461C284.717 248.601 288.867 247.965 293.043 247.555C300.71 246.789 307.595 246.115 313.816 245.54C313.186 241.962 312.34 238.425 311.285 234.949C310.512 232.404 309.61 229.9 308.582 227.447C300.496 224.607 291.385 224.088 281.699 225.885H281.688ZM199.31 242.774C203.611 243.759 207.845 245.021 211.984 246.551C214.107 241.128 216.884 235.985 220.252 231.235C213.041 232.19 205.784 236.276 199.31 242.774ZM370.071 244.557C372.504 245.011 374.912 245.597 377.282 246.312C376.059 241.506 374.129 236.907 371.556 232.667C371.329 236.516 370.86 240.346 370.151 244.136C370.127 244.269 370.102 244.413 370.071 244.557ZM321.358 234.563C320.346 238.073 319.195 241.605 317.906 245.164C322.27 244.774 326.294 244.434 330.019 244.153C327.647 240.526 324.725 237.291 321.358 234.563ZM311.439 228.564C312.198 230.526 312.844 232.446 313.42 234.3C314.415 237.575 315.226 240.903 315.849 244.269C317.204 240.513 318.405 236.781 319.451 233.11C318.815 232.653 318.167 232.213 317.51 231.79C315.576 230.553 313.546 229.474 311.439 228.564ZM361.125 243.43C362.607 243.539 364.032 243.676 365.419 243.844C366.247 243.945 367.067 244.062 367.876 244.195L367.961 243.739C368.842 239.054 369.334 234.305 369.432 229.539C363.983 222.227 356.494 217.074 347.141 214.213C344.54 213.42 341.703 212.595 338.67 211.781C348.282 221.418 355.771 231.967 361.136 243.43H361.125ZM322.014 232.239C326.204 235.481 329.773 239.454 332.547 243.967C343.395 243.191 351.635 242.939 358.601 243.265C352.878 231.407 344.786 220.525 334.323 210.619C331.781 209.983 329.124 209.365 326.378 208.776C325.771 215.937 324.296 223.933 322.014 232.239ZM224.9 228.869C232.14 229.476 238.54 233.966 244.382 242.5C249.219 237.531 254.874 233.43 261.101 230.378C258.766 222.617 256.084 215.744 253.026 209.709C249.424 210.982 245.93 212.542 242.578 214.375C235.825 218.05 229.827 222.967 224.9 228.869ZM182.728 240.292C187.157 240.606 191.562 241.192 195.918 242.047C194.763 232.569 196.392 222.568 200.795 212.132C194.512 217.396 188.689 223.186 183.388 229.438C183.283 230.374 183.193 231.323 183.118 232.285C182.907 235.011 182.777 237.68 182.728 240.292ZM204.65 209.049C204.453 209.443 204.264 209.843 204.074 210.243C199.068 220.985 197.052 231.246 198.042 240.913C205.331 233.717 213.581 229.392 221.744 228.851L222.057 228.83C227.358 222.1 233.973 216.518 241.5 212.423C244.866 210.584 248.371 209.011 251.983 207.719C248.567 201.365 244.709 195.998 240.373 191.571L240.004 191.196C232.523 193 224.837 196.17 217.085 200.674C212.764 203.194 208.61 205.99 204.65 209.046V209.049ZM175.436 240.035C177.117 240.035 178.805 240.076 180.502 240.158C180.548 237.648 180.671 235.082 180.853 232.474C178.875 234.913 176.952 237.433 175.081 240.035H175.436ZM310.253 225.685C313.211 226.79 316.046 228.202 318.71 229.898C319.179 230.197 319.636 230.502 320.083 230.814C322.235 222.803 323.622 215.154 324.17 208.323C314.88 206.392 305.463 205.139 295.992 204.574C302.627 211.093 307.163 218.552 310.263 225.689L310.253 225.685ZM255.132 208.99C258.377 215.567 261.052 222.41 263.127 229.445C268.492 227.033 274.099 225.198 279.852 223.972C280.776 220.379 281.965 216.859 283.409 213.441C284.729 210.311 286.265 207.277 288.005 204.36H287.653C276.612 204.342 265.475 205.641 255.153 208.986L255.132 208.99ZM335.398 208.639C339.919 209.78 344.08 210.959 347.77 212.089C356.593 214.789 363.839 219.433 369.379 225.931C368.965 213.894 365.345 201.2 354.721 191.621C344.097 182.041 332.505 178.299 321.143 180.612C323.171 183.624 324.641 186.976 325.483 190.508C326.265 193.977 326.659 197.522 326.659 201.077C328.787 202.767 330.886 204.533 332.957 206.375C333.795 207.116 334.616 207.864 335.419 208.618L335.398 208.639ZM202.687 184.768C198.562 189.552 195.002 194.795 192.077 200.393C188.011 208.247 185.251 216.712 183.908 225.453C189.671 218.943 196.017 212.973 202.866 207.617C206.609 200.165 212.995 190.989 223.784 182.694C222.696 182.502 221.583 182.361 220.445 182.272C214.958 181.848 209.003 182.68 202.701 184.747L202.687 184.768ZM292.67 222.628C297.644 222.604 302.594 223.314 307.36 224.734C304.091 217.766 299.369 210.587 292.541 204.451C291.895 204.43 291.252 204.412 290.603 204.398C288.634 207.564 286.918 210.88 285.47 214.315C284.21 217.307 283.15 220.379 282.299 223.512C285.729 222.918 289.203 222.615 292.684 222.606L292.67 222.628ZM326.536 206.55C328.022 206.866 329.481 207.19 330.911 207.522C329.506 206.285 328.086 205.083 326.648 203.917C326.62 204.781 326.583 205.658 326.536 206.55ZM242.564 190.61C246.875 195.148 250.702 200.593 254.118 206.982C265.31 203.307 277.423 201.99 289.398 202.131C289.451 202.053 289.5 201.976 289.549 201.899C283.79 197.428 277.28 194.018 270.324 191.831C261.656 189.044 252.299 188.654 242.564 190.61ZM293.471 202.236C303.848 202.695 314.171 203.986 324.342 206.097C324.412 204.754 324.451 203.447 324.458 202.176C318.072 197.219 311.327 192.744 304.277 188.788C299.774 192.416 295.824 196.682 292.551 201.45C292.853 201.706 293.158 201.969 293.464 202.236H293.471ZM226.67 183.34C219.627 188.482 212.563 195.356 207.164 204.402C210.057 202.349 212.99 200.456 215.965 198.722C223.408 194.394 230.806 191.266 238.038 189.363C234.734 186.55 230.854 184.493 226.67 183.34ZM254.458 187.159C260.073 187.14 265.657 188.001 271.005 189.711C278.163 191.96 284.867 195.457 290.806 200.042C294.013 195.405 297.835 191.226 302.167 187.619C294.061 183.203 285.65 179.37 276.998 176.15C269.025 173.177 262.003 170.945 255.747 169.298C250.458 170.798 245.308 172.753 240.355 175.139C236.408 177.046 232.605 179.237 228.977 181.697C233.333 183.174 237.322 185.568 240.675 188.717C245.198 187.695 249.821 187.172 254.458 187.159ZM306.212 187.324C312.53 190.918 318.604 194.925 324.395 199.319C324.304 196.529 323.945 193.755 323.32 191.034C322.473 187.486 320.942 184.136 318.812 181.174C315.523 182.105 312.37 183.467 309.438 185.225C308.345 185.866 307.27 186.566 306.212 187.324ZM260.181 168.147C266.195 169.884 272.062 171.931 277.777 174.062C286.826 177.43 295.613 181.461 304.067 186.123C305.42 185.113 306.826 184.176 308.28 183.315C311.115 181.622 314.14 180.269 317.292 179.285C311.078 172.043 300.917 167.399 287.857 166.097C279.08 165.209 269.558 165.949 260.181 168.147ZM226.126 165.205C220.761 168.42 215.708 172.127 211.029 176.277C209.112 177.987 207.288 179.756 205.556 181.581C210.839 180.198 215.881 179.682 220.628 180.043C222.504 180.184 224.366 180.474 226.196 180.91C230.366 177.957 234.777 175.359 239.383 173.146C243.322 171.243 247.385 169.609 251.544 168.252C241.159 165.819 233.014 165.082 226.126 165.205Z" fill="#123351"/>
<path d="M223.955 77.1997C230.191 52.9782 240.73 31.916 269.245 31.916C294.267 31.916 316.965 53.9576 315.315 81.1172C313.798 106.09 292.108 127.243 265.559 124.27C240.706 121.472 216.814 104.949 223.955 77.1997Z" fill="#367FD3"/>
<g opacity="0.8">
<path d="M262.42 93.4049C262.401 91.6748 262.519 89.9458 262.771 88.2341C263.181 85.4942 264.317 82.9138 266.061 80.7606C267.048 79.5371 268.11 78.3765 269.242 77.2853C270.178 76.3656 271.064 75.4939 271.899 74.6701C272.691 73.8853 273.419 73.039 274.076 72.1391C274.695 71.2889 275.196 70.3583 275.565 69.373C275.939 68.3258 276.123 67.2202 276.109 66.1083C276.109 63.4872 275.459 61.4852 274.16 60.1021C272.861 58.719 270.956 58.0275 268.445 58.0275C267.453 58.0256 266.467 58.1675 265.517 58.4487C264.584 58.7187 263.714 59.1736 262.961 59.7862C262.189 60.425 261.567 61.2255 261.138 62.1311C260.648 63.2077 260.408 64.3815 260.436 65.5642H250.255C250.229 63.1773 250.722 60.8132 251.698 58.6348C252.594 56.6933 253.914 54.9769 255.56 53.6114C257.259 52.2255 259.214 51.1877 261.314 50.5574C266.11 49.1693 271.205 49.1913 275.989 50.6206C278.067 51.2685 279.982 52.3529 281.607 53.801C283.156 55.2094 284.358 56.9577 285.118 58.9086C285.945 61.0871 286.35 63.4029 286.311 65.7327C286.318 67.4894 286.011 69.2333 285.406 70.8824C284.828 72.4697 284.047 73.9753 283.081 75.3616C282.074 76.7898 280.953 78.1339 279.728 79.381C278.476 80.6658 277.178 81.9354 275.835 83.1897C274.415 84.413 273.353 85.997 272.759 87.7743C272.219 89.5976 271.944 91.4891 271.941 93.3908L262.42 93.4049ZM261.718 106.425C261.711 105.682 261.839 104.945 262.097 104.248C262.342 103.579 262.729 102.971 263.23 102.465C263.732 101.959 264.337 101.568 265.004 101.317C266.594 100.757 268.329 100.757 269.919 101.317C270.597 101.574 271.211 101.974 271.72 102.49C272.21 102.994 272.594 103.591 272.851 104.245C273.119 104.939 273.254 105.677 273.247 106.421C273.268 107.133 273.146 107.842 272.887 108.505C272.628 109.168 272.239 109.773 271.741 110.283C270.735 111.315 269.311 111.831 267.469 111.831C265.627 111.831 264.21 111.315 263.22 110.283C262.724 109.773 262.334 109.169 262.074 108.507C261.814 107.844 261.689 107.136 261.707 106.425H261.718Z" fill="white"/>
</g>
<path d="M393.434 20.5995L352.778 32.2819L377.695 9.69629L379.931 15.5165L390.271 15.9377L393.434 20.5995Z" fill="#EABE96"/>
<path d="M352.778 32.2823L384.822 9.68961L418.414 3.2832L352.778 32.2823Z" fill="#F9DDBF"/>
<path d="M377.695 9.69561L352.778 32.2813L370.01 0L377.695 9.69561Z" fill="#F9DDBF"/>
<path d="M1145.41 187.988L1187.78 194.022L1159.66 174.866L1158.23 181.009L1147.93 182.877L1145.41 187.988Z" fill="#EDCBAB"/>
<path d="M1187.78 194.022L1152.52 175.852L1117.96 174.125L1187.78 194.022Z" fill="#F9DDBF"/>
<path d="M1159.66 174.865L1187.78 194.021L1166.01 164.078L1159.66 174.865Z" fill="#F9DDBF"/>
<path d="M1123.01 398.662C1083.22 398.662 1043.8 381.11 1017.56 351.735C995.09 326.573 984.688 295.37 988.262 263.871L988.795 263.931L988.262 263.871C993.156 220.792 1007.72 187.412 1031.54 164.658C1054.14 143.073 1084.9 131.144 1122.98 129.203C1167.52 126.932 1201.8 139.618 1224.85 166.911C1234.94 178.847 1242.87 193.65 1248.43 210.9C1253.49 226.602 1256.63 244.434 1257.75 263.906C1258.94 284.466 1257.12 303.156 1252.34 319.451C1247.46 336.086 1239.45 350.387 1228.53 361.954C1205.53 386.309 1170.03 398.662 1123.01 398.662ZM1132.95 130.018C1129.7 130.018 1126.4 130.104 1123.04 130.277C1085.22 132.204 1054.69 144.031 1032.28 165.434C1008.64 188.012 994.192 221.171 989.329 263.994C985.787 295.194 996.098 326.085 1018.36 351.009C1044.4 380.169 1083.52 397.577 1123.01 397.577C1169.72 397.577 1204.97 385.34 1227.75 361.206C1238.55 349.759 1246.48 335.605 1251.31 319.135C1256.06 302.955 1257.86 284.382 1256.68 263.952C1255.56 244.578 1252.44 226.833 1247.41 211.216C1241.89 194.103 1234.03 179.426 1224.03 167.592C1202.95 142.641 1172.34 130.018 1132.95 130.018Z" fill="#123351"/>
<path d="M1123.01 399.405C1083.01 399.405 1043.39 381.769 1017.01 352.23C994.571 327.103 984.088 295.983 987.444 264.527L987.612 263.052C992.608 220.152 1007.21 186.878 1031.03 164.124C1053.76 142.412 1084.69 130.424 1122.95 128.465C1167.74 126.18 1202.22 138.958 1225.42 166.433C1235.57 178.449 1243.55 193.333 1249.14 210.664C1254.22 226.425 1257.37 244.318 1258.5 263.849C1259.69 284.497 1257.86 303.271 1253.06 319.664C1248.14 336.415 1240.07 350.818 1229.07 362.49C1205.93 386.975 1170.24 399.405 1123.01 399.405ZM1132.95 130.761C1129.73 130.761 1126.41 130.845 1123.07 131.017C1085.45 132.934 1055.07 144.708 1032.8 165.97C1009.27 188.436 994.912 221.434 990.07 264.077C986.559 295.053 996.797 325.755 1018.92 350.524C1044.82 379.53 1083.73 396.86 1123.01 396.86C1169.51 396.86 1204.57 384.704 1227.21 360.704C1237.93 349.348 1245.81 335.292 1250.6 318.93C1255.32 302.835 1257.12 284.353 1255.94 264C1254.83 244.693 1251.73 227.008 1246.7 211.45C1241.22 194.428 1233.4 179.836 1223.46 168.08C1202.55 143.318 1172.09 130.761 1132.95 130.761Z" fill="#123351"/>
<path d="M1127.8 404.64C1105.45 404.64 1080.86 398.293 1054.27 385.628C1018.35 368.522 990.305 335.735 979.253 297.925C969.791 265.545 973.815 232.902 990.593 206.003C1013.54 169.214 1041.04 145.34 1072.34 135.037C1102.02 125.268 1134.92 127.729 1170.13 142.346C1211.33 159.448 1236.82 185.639 1245.89 220.191C1249.86 235.286 1250.66 252.076 1248.26 270.039C1246.07 286.393 1241.24 303.843 1233.88 321.901C1226.11 340.976 1216.43 357.064 1205.09 369.722C1193.53 382.644 1180.15 392.108 1165.31 397.858C1153.66 402.379 1141.16 404.64 1127.8 404.64ZM991.046 206.305L991.503 206.589C974.893 233.225 970.908 265.563 980.268 297.641C991.236 335.163 1019.07 367.7 1054.7 384.676C1096.87 404.763 1133.95 408.866 1164.9 396.875C1179.58 391.188 1192.83 381.815 1204.27 369.024C1215.51 356.457 1225.13 340.474 1232.85 321.515C1240.17 303.538 1244.99 286.179 1247.16 269.912C1249.54 252.09 1248.75 235.455 1244.82 220.476C1235.83 186.267 1210.56 160.319 1169.69 143.35C1134.72 128.834 1102.07 126.384 1072.63 136.073C1041.58 146.291 1014.27 170.014 991.464 206.585L991.046 206.305Z" fill="#123351"/>
<path d="M1127.8 405.381C1105.38 405.381 1080.54 398.961 1053.95 386.302C1017.84 369.101 989.652 336.143 978.54 298.132C969.015 265.549 973.07 232.692 989.961 205.61C1013 168.67 1040.64 144.688 1072.11 134.35C1101.96 124.521 1135.05 126.978 1170.42 141.676C1211.85 158.876 1237.48 185.232 1246.6 220.02C1250.6 235.23 1251.4 252.098 1248.99 270.158C1246.8 286.573 1241.94 304.083 1234.56 322.199C1226.76 341.352 1217.03 357.514 1205.65 370.235C1194.01 383.245 1180.53 392.775 1165.59 398.567C1153.9 403.085 1141.18 405.381 1127.8 405.381ZM992.134 206.965C975.633 233.419 971.68 265.542 980.998 297.416C991.906 334.738 1019.59 367.1 1055.05 383.989C1097.04 403.998 1133.92 408.08 1164.67 396.163C1179.23 390.522 1192.38 381.216 1203.75 368.508C1214.94 356.008 1224.51 340.099 1232.19 321.217C1239.49 303.314 1244.28 286.001 1246.45 269.8C1248.81 252.073 1248.03 235.536 1244.12 220.655C1235.2 186.682 1210.07 160.898 1169.43 144.028C1134.63 129.579 1102.15 127.139 1072.88 136.768C1042.02 146.927 1014.85 170.545 992.134 206.965Z" fill="#123351"/>
<path d="M1135.36 412.908C1102.93 412.908 1069.63 397.329 1036.24 366.518C1005.97 338.586 988.304 297.568 988.974 256.791C989.55 221.877 1003.54 190.835 1028.38 169.383L1028.73 169.805L1028.38 169.383C1062.35 140.037 1096.87 124.872 1130.98 124.289C1163.32 123.731 1195.11 136.256 1225.42 161.499C1260.91 191.046 1278.09 224.756 1276.45 261.702C1275.74 277.85 1271.38 294.7 1263.5 311.718C1256.32 327.22 1246.18 342.988 1233.37 358.585C1219.83 375.062 1205.32 388.002 1190.24 397.041C1174.85 406.273 1158.71 411.528 1142.28 412.662C1139.98 412.823 1137.68 412.905 1135.36 412.908ZM1133.04 125.381C1132.35 125.381 1131.68 125.381 1131 125.399C1097.16 125.981 1062.88 141.062 1029.11 170.222C1004.51 191.464 990.656 222.214 990.087 256.812C989.42 297.276 1006.94 337.983 1036.99 365.7C1072.53 398.494 1107.93 413.926 1142.22 411.56C1158.47 410.436 1174.44 405.241 1189.69 396.114C1204.65 387.138 1219.07 374.283 1232.52 357.904C1245.27 342.381 1255.36 326.69 1262.49 311.276C1270.32 294.384 1274.64 277.696 1275.35 261.678C1276.96 225.1 1259.92 191.688 1224.72 162.38C1195.23 137.818 1164.4 125.381 1133.04 125.381Z" fill="#123351"/>
<path d="M1135.36 413.651C1102.75 413.651 1069.24 397.978 1035.73 367.062C1005.31 338.979 987.555 297.764 988.229 256.78C988.805 221.912 1002.69 190.88 1027.34 169.309L1028.46 168.337C1062.39 139.201 1096.87 124.131 1130.98 123.545C1163.5 122.979 1195.46 135.564 1225.93 160.937C1261.6 190.638 1278.85 224.552 1277.21 261.744C1276.51 278.004 1272.12 294.924 1264.2 312.037C1256.99 327.595 1246.82 343.416 1233.97 359.076C1220.38 375.617 1205.81 388.612 1190.65 397.69C1175.16 406.982 1158.91 412.272 1142.36 413.413C1140.05 413.571 1137.7 413.655 1135.37 413.655L1135.36 413.651ZM1133.03 126.125C1132.36 126.125 1131.69 126.125 1131.01 126.142C1097.35 126.718 1063.23 141.739 1029.59 170.787C1005.16 191.888 991.393 222.442 990.828 256.822C990.164 297.079 1007.61 337.561 1037.5 365.152C1070.53 395.636 1103.42 411.05 1135.36 411.05C1137.63 411.05 1139.9 410.973 1142.17 410.818C1158.32 409.706 1174.16 404.535 1189.3 395.457C1204.2 386.527 1218.54 373.724 1231.95 357.415C1244.66 341.938 1254.71 326.303 1261.82 310.945C1269.6 294.141 1273.9 277.548 1274.6 261.628C1276.2 225.292 1259.26 192.084 1224.25 162.931C1194.91 138.509 1164.23 126.125 1133.03 126.125Z" fill="#123351"/>
<path d="M1095.34 410.524C1082.62 410.524 1070.49 408.418 1059.13 404.205C1026.62 392.137 1000.5 363.296 981.492 318.482C965.412 280.57 966.206 235.915 983.599 199.032C998.502 167.438 1024.04 144.927 1055.51 135.607C1098.55 122.857 1136.26 123.243 1167.58 136.754C1197.28 149.567 1221.09 174.063 1238.33 209.563C1258.49 251.094 1260.25 288.897 1243.55 321.894C1236.24 336.329 1225.34 349.868 1211.15 362.137C1198.22 373.307 1182.49 383.505 1164.39 392.442C1145.27 401.885 1126.72 407.702 1109.27 409.731C1104.65 410.264 1099.99 410.528 1095.34 410.524ZM1055.67 136.119L1055.82 136.653C1024.67 145.881 999.369 168.197 984.603 199.488C967.329 236.087 966.543 280.402 982.496 318.033C1001.38 362.551 1027.28 391.189 1059.5 403.149C1074.77 408.818 1091.47 410.65 1109.12 408.6C1126.46 406.582 1144.89 400.804 1163.89 391.4C1181.91 382.504 1197.56 372.359 1210.41 361.253C1224.5 349.079 1235.31 335.651 1242.55 321.347C1259.08 288.676 1257.33 251.217 1237.32 210.012C1220.22 174.789 1196.6 150.462 1167.14 137.755C1136.07 124.352 1098.62 123.98 1055.85 136.653L1055.67 136.119Z" fill="#123351"/>
<path d="M1095.34 411.267C1082.9 411.328 1070.55 409.167 1058.87 404.885C1026.16 392.74 999.886 363.762 980.808 318.755C964.658 280.647 965.445 235.767 982.939 198.701C997.92 166.922 1023.64 144.248 1055.31 134.876C1098.53 122.077 1136.41 122.473 1167.88 136.052C1197.76 148.938 1221.69 173.556 1239 209.222C1259.28 250.97 1261.03 288.984 1244.22 322.199C1236.88 336.721 1225.91 350.338 1211.65 362.67C1198.66 373.882 1182.89 384.115 1164.73 393.08C1145.54 402.558 1126.91 408.399 1109.35 410.439C1104.7 410.986 1100.02 411.262 1095.34 411.267ZM1056.05 137.364C1025.09 146.534 999.963 168.708 985.288 199.807C968.106 236.216 967.323 280.303 983.182 317.755C1001.98 362.077 1027.74 390.577 1059.76 402.463C1074.92 408.08 1091.5 409.912 1109.04 407.873C1126.29 405.868 1144.64 400.111 1163.57 390.763C1181.52 381.896 1197.12 371.786 1209.93 360.722C1223.94 348.607 1234.69 335.258 1241.88 321.055C1258.3 288.601 1256.54 251.367 1236.64 210.383C1219.6 175.28 1196.11 151.097 1166.82 138.467C1135.94 125.103 1098.66 124.745 1056.05 137.364Z" fill="#123351"/>
<path d="M1130.79 398.662C1091 398.662 1057.33 377.775 1031.08 348.394C1008.61 323.231 992.46 295.387 996.034 263.871C1000.92 220.792 1015.49 187.412 1039.31 164.658C1061.91 143.073 1092.68 131.144 1130.75 129.203C1175.3 126.932 1209.57 139.618 1232.63 166.911C1242.71 178.847 1250.64 193.65 1256.2 210.9C1261.27 226.602 1264.4 244.434 1265.53 263.906C1266.71 284.466 1264.89 303.156 1260.11 319.451C1255.23 336.086 1247.22 350.387 1236.3 361.954C1213.31 386.309 1177.81 398.662 1130.79 398.662ZM996.575 263.931L997.109 263.994C993.566 295.18 1010.61 323.021 1032.87 347.951C1058.91 377.112 1091.3 397.588 1130.79 397.588C1177.5 397.588 1212.74 385.351 1235.53 361.217C1246.33 349.77 1254.26 335.616 1259.09 319.145C1263.84 302.966 1265.64 284.393 1264.46 263.962C1263.34 244.589 1260.22 226.844 1255.19 211.226C1249.67 194.113 1241.8 179.436 1231.81 167.603C1208.99 140.573 1175.01 128.024 1130.81 130.277C1093 132.204 1062.47 144.031 1040.06 165.434C1016.42 188.012 1001.97 221.171 997.109 263.994L996.575 263.931Z" fill="#123351"/>
<path d="M1130.79 399.406C1111.77 399.406 1093.17 394.625 1075.51 385.203C1059.61 376.719 1044.47 364.492 1030.53 348.889C1017.95 334.802 1008.99 321.694 1003.12 308.814C996.157 293.527 993.597 278.797 995.304 263.787C1000.22 220.532 1014.85 186.998 1038.81 164.121C1061.54 142.409 1092.46 130.421 1130.72 128.463C1175.52 126.181 1209.99 138.955 1233.2 166.431C1243.35 178.447 1251.33 193.331 1256.92 210.661C1262 226.426 1265.15 244.319 1266.27 263.847C1267.47 284.495 1265.64 303.268 1260.83 319.661C1255.92 336.413 1247.84 350.816 1236.85 362.488C1213.71 386.976 1178.03 399.406 1130.79 399.406ZM997.846 264.078C994.854 290.427 1006.16 316.923 1033.43 347.456C1062.69 380.229 1095.45 396.844 1130.79 396.844C1177.29 396.844 1212.35 384.687 1234.99 360.687C1245.71 349.331 1253.59 335.275 1258.38 318.914C1263.1 302.819 1264.9 284.337 1263.72 263.984C1262.6 244.677 1259.51 226.991 1254.48 211.434C1248.99 194.412 1241.18 179.819 1231.24 168.063C1208.58 141.226 1174.8 128.747 1130.85 130.997C1093.22 132.914 1062.85 144.688 1040.58 165.95C1017.06 188.423 1002.69 221.431 997.846 264.078ZM1005.18 309.713C1010.99 321.964 1019.66 334.472 1031.64 347.888C1036.59 353.446 1041.87 358.708 1047.44 363.646C1042.13 358.855 1037.09 353.777 1032.34 348.436C1020.2 334.861 1011.2 322.08 1005.18 309.724V309.713Z" fill="#123351"/>
<path d="M1104.43 323.95C1104.37 324.066 1104.3 324.186 1104.23 324.302C1102.61 327.11 1098.91 333.98 1094.83 341.502C1092.9 345.072 1090.88 348.79 1088.96 352.286C1085.66 358.317 1082.64 363.691 1080.89 366.531C1079.13 369.371 1077.8 371.446 1077.27 372.26C1077.12 372.514 1077.06 372.808 1077.09 373.099C1077.27 375.619 1077.23 378.15 1076.98 380.664C1074.52 405.138 1058.02 418.253 1058.02 418.253L1053.1 418.979C1053.1 418.979 1060.05 393.252 1062.09 378.709C1062.45 376.251 1062.59 374.243 1062.47 372.941C1062.12 369.153 1062.78 363.589 1064.05 357.201C1066.32 345.852 1070.48 331.926 1074.09 320.767C1074.32 320.064 1081.22 295.092 1081.22 295.092C1087.01 300.154 1108.14 302.242 1108.14 302.242C1108.14 302.242 1111.73 310.962 1104.43 323.95Z" fill="#102439"/>
<path d="M1042.81 425.2H1063.29C1063.29 425.2 1063.78 422.079 1062.71 419.71C1061.69 417.438 1060.23 417.365 1062.53 413.802C1061.22 415.143 1057.04 415.697 1054.08 415.301C1053.73 415.887 1051.74 419.833 1050.53 420.703C1049.18 421.665 1043.21 421.324 1042.81 425.2Z" fill="#B5BAC2"/>
<path d="M1104.43 323.951C1104.36 324.067 1104.29 324.187 1104.22 324.302C1102.61 327.111 1093.88 343.23 1089.8 350.753C1094.53 331.309 1091.24 311.865 1091.24 311.865L1104.43 323.951Z" fill="#102439"/>
<path d="M1025.37 227.908C1025.37 227.908 1024.56 219.072 1034.43 219.072C1034.43 219.072 1031.44 219.883 1029.89 221.505C1029.89 221.505 1036.19 217.809 1043.05 223.488C1049.9 229.168 1045.64 243.417 1047.73 246.123C1049.81 248.83 1057.93 249.37 1056.93 258.118C1055.94 266.866 1031.18 277.818 1032.77 285.056C1032.77 285.056 1023.06 270.79 1030 264.279C1030 264.279 1026.61 267.466 1026.27 271.25C1026.27 271.25 1025.35 263.857 1030.06 261.491C1034.22 259.385 1037.64 251.747 1037.27 250.378C1036.91 249.009 1025.37 227.908 1025.37 227.908Z" fill="#102439"/>
<path d="M1039.31 265.005C1039.31 265.005 1025.27 300.46 1022.23 299.14C1019.19 297.82 1001.36 292.161 1001.36 292.161C1001.36 292.161 1002 297.216 1002.28 297.444C1004.9 299.512 1018.03 309.643 1025.9 310.159C1034.64 310.731 1046.47 284.993 1046.47 284.993L1039.31 265.005Z" fill="white"/>
<path d="M1028.16 226.665C1028.03 226.128 1039.86 232.011 1040.45 232.678C1046 238.832 1044.42 246.864 1041.24 246.941C1039.21 246.99 1039.6 250.378 1039.6 250.378L1016.92 240.784C1016.92 240.784 1019.66 224.854 1028.16 226.665Z" fill="#102439"/>
<path d="M1035.79 265.752C1035.79 265.752 1032.77 268.883 1032.77 278.245C1032.77 278.245 1036.93 284.817 1047.73 286.481C1047.73 286.481 1038.44 265.748 1035.79 265.752Z" fill="#B6D7FF"/>
<path d="M1088.46 303.781L1088.39 299.947C1096.02 300.913 1114.72 290.82 1114.72 290.82C1114.72 290.82 1122.71 296.131 1123.8 311.296C1124.34 318.7 1127.71 350.005 1128.09 359.353C1128.22 362.741 1128.27 365.159 1128.28 366.125C1128.3 366.415 1128.41 366.692 1128.6 366.911C1130.16 368.901 1131.55 371.022 1132.74 373.251C1144.39 394.917 1138.3 424.358 1138.3 424.358L1135.59 423.656C1135.59 423.656 1125.74 393.137 1119.31 379.934C1118.22 377.695 1117.22 375.954 1116.39 374.946C1113.97 372.008 1111.42 367.016 1108.91 361.01C1104.14 349.686 1088.46 303.781 1088.46 303.781Z" fill="#102439"/>
<path d="M1121.99 425.201H1142.48C1142.48 425.201 1142.97 422.08 1141.9 419.711C1140.87 417.439 1139.27 416.404 1139.65 413.655C1138.35 414.996 1136.23 416.495 1133.27 416.113C1132.92 416.702 1130.92 419.848 1129.71 420.718C1128.38 421.666 1122.41 421.325 1121.99 425.201Z" fill="#B5BAC2"/>
<path d="M1049.11 290.879C1051.86 291.346 1048.66 293.533 1052.44 293.948C1057.83 294.534 1063.39 294.937 1066.3 296.099C1067.36 296.521 1068.06 297.044 1068.3 297.714C1069.56 301.509 1075.13 307.368 1075.13 307.368C1110.79 305.746 1114.71 290.827 1114.71 290.827C1091.56 268.361 1070.28 255.091 1054.02 253.336C1051.24 253.038 1047.72 254.804 1045.22 255.916C1039.53 258.451 1035.79 265.745 1035.79 265.745C1035.79 265.745 1038.65 289.096 1049.11 290.879Z" fill="#B6D7FF"/>
<path d="M1052.44 293.948C1057.83 294.534 1063.39 294.938 1066.3 296.1C1067.49 278.313 1059.1 264.935 1059.1 264.935C1059.1 264.935 1053.62 287.215 1052.44 293.948Z" fill="#163560"/>
<path d="M1047.8 261.924C1047.8 261.924 1061.34 261.183 1063.75 269.685C1066.16 278.187 1059.23 312.129 1057.74 315.629C1055.02 322.007 1041.81 340.201 1041.81 340.201L1038.16 338.327C1038.16 338.327 1045.76 310.914 1047.72 308.162C1050.81 303.851 1043.74 265.623 1047.8 261.924Z" fill="white"/>
<path d="M1039.12 335.791C1039.12 335.791 1037.99 339.786 1035.78 341.994C1034.76 343.012 1033.86 346.073 1033.81 347.649C1033.81 347.649 1033.64 348.955 1034.21 348.825C1034.78 348.695 1035.42 345.869 1036.43 346.017C1036.43 346.017 1035.89 349.176 1035.35 350.064C1034.82 350.952 1034.5 353.708 1035.26 354.041C1037.11 354.856 1039.83 351.373 1041.47 349.19C1043.1 347.007 1041.49 338.143 1041.49 338.143L1039.12 335.791Z" fill="white"/>
<path d="M1066.42 281.054C1066.38 281.254 1053.6 283.406 1045.61 279.348C1045.61 279.348 1038.94 258.43 1048.47 259.43C1058.01 260.431 1063.67 263.436 1063.92 268.006C1064.17 272.577 1066.42 281.054 1066.42 281.054Z" fill="#B6D7FF"/>
<path d="M1045.22 255.916C1045.22 255.916 1041.46 269.958 1035.79 265.745C1035.95 265.068 1034.96 263.095 1033.79 261.094C1032.31 258.535 1030.53 255.92 1030.53 255.92L1038.2 249.208L1038.65 248.808C1041 252.908 1043.31 254.519 1045.22 255.916Z" fill="white"/>
<path d="M1030.53 255.931C1030.53 255.931 1032.29 258.539 1033.79 261.102C1038.56 258.163 1038.56 252.266 1038.2 249.212L1030.53 255.931Z" fill="#FFF6F0"/>
<path d="M1030.32 259.293C1030.32 259.293 1041.9 252.859 1037.77 245.715C1033.63 238.571 1032.36 232.93 1024.81 236.739C1017.25 240.548 1017.39 244.093 1018.19 246.81C1018.98 249.527 1027.2 260.792 1030.32 259.293Z" fill="white"/>
<path d="M1016.24 242.647C1016.77 239.488 1018.37 239.172 1019.5 239.382C1023.77 232.32 1030.75 235.075 1030.75 235.075C1033.07 237.905 1036.3 239.841 1039.88 240.551C1039.88 240.551 1038.54 243.051 1033.01 244.595C1031.32 245.069 1029.4 244.781 1027.55 244.16C1030.02 245.498 1032.66 246.494 1035.4 247.119C1028.11 247.786 1021.18 241.124 1020.46 240.411C1020.11 241.443 1019.53 243.605 1019.88 245.185C1020.36 247.333 1022.27 251.223 1021.11 251.725C1021.09 251.725 1015.44 247.4 1016.24 242.647Z" fill="#102439"/>
<path d="M1003.85 293.79C1003.85 293.79 1001.79 294.71 999.683 292.565C998.608 291.47 996.684 290.876 997.681 290.29C998.678 289.704 1001.33 290.908 1001.95 291.122C1002.57 291.336 1003.85 293.79 1003.85 293.79Z" fill="white"/>
<path d="M1081.32 58.867C1087.54 34.7193 1098.04 13.7168 1126.48 13.7168C1151.41 13.7168 1174.04 35.6846 1172.39 62.753C1170.88 87.6415 1149.27 108.739 1122.8 105.762C1098.02 102.985 1074.21 86.5182 1081.32 58.867Z" fill="#367FD3"/>
<g opacity="0.8">
<path d="M1119.77 89.5879C1119.76 88.7478 1119.91 87.9136 1120.22 87.1306C1120.51 86.3937 1120.94 85.7217 1121.49 85.1543C1122.06 84.5742 1122.75 84.125 1123.51 83.8379C1125.29 83.2108 1127.23 83.2108 1129.01 83.8379C1129.77 84.125 1130.46 84.5742 1131.03 85.1543C1131.58 85.7227 1132.02 86.3944 1132.31 87.1306C1132.61 87.9136 1132.76 88.7478 1132.75 89.5879C1132.77 90.3858 1132.63 91.18 1132.34 91.9235C1132.05 92.6669 1131.62 93.3445 1131.06 93.9161C1129.93 95.0862 1128.33 95.6655 1126.26 95.6538C1124.19 95.6421 1122.59 95.0628 1121.46 93.9161C1120.91 93.3445 1120.47 92.6669 1120.18 91.9235C1119.89 91.18 1119.75 90.3858 1119.77 89.5879ZM1131.01 74.8233H1121.18L1120.1 26.5312H1132.14L1131.01 74.8233Z" fill="white"/>
</g>
<path d="M624.974 108.719C638.926 54.4984 662.515 7.34375 726.364 7.34375C782.358 7.34375 833.15 56.6643 829.456 117.446C826.065 173.331 777.527 220.668 718.11 214.016C662.463 207.785 608.996 170.804 624.974 108.719Z" fill="#367FD3"/>
<path d="M769.389 102.475C769.463 112.479 766.021 122.192 759.664 129.919C754.364 136.318 751.449 144.357 751.417 152.666V164.647C751.405 168.311 749.944 171.822 747.352 174.413C744.761 177.004 741.249 178.465 737.584 178.477H715.466C711.801 178.466 708.289 177.006 705.698 174.414C703.107 171.823 701.647 168.311 701.637 164.647V152.694C701.619 144.399 698.718 136.368 693.428 129.978C688.773 124.321 685.646 117.566 684.345 110.357C683.044 103.147 683.611 95.7251 685.994 88.7978C688.377 81.8705 692.496 75.6692 697.957 70.7857C703.418 65.9021 710.039 62.4991 717.19 60.9015C717.737 60.7786 718.285 60.6698 718.84 60.5715C719.135 60.5153 719.426 60.4662 719.724 60.417C725.828 59.4411 732.07 59.7956 738.024 61.4564C743.978 63.1172 749.502 66.045 754.219 70.0392C758.936 74.0335 762.733 78.9999 765.352 84.5982C767.97 90.1965 769.347 96.2946 769.389 102.475Z" fill="#F9DDBF"/>
<path d="M737.521 178.484L737.472 178.853L736.864 183.511L736.706 184.74L736.541 185.975L735.938 190.634L735.776 191.862L735.615 193.101L735.527 193.783C735.218 196.148 732.514 197.953 729.281 197.953H721.992C721.252 197.954 720.514 197.858 719.798 197.665C719.205 197.505 718.635 197.269 718.102 196.963L718.06 196.938C717.661 196.704 717.29 196.422 716.958 196.099C716.316 195.498 715.893 194.7 715.754 193.832L715.494 192.024L715.329 190.886V190.862L715.167 189.746L714.549 185.428L714.388 184.294V184.269L714.23 183.15L713.566 178.484H737.521Z" fill="#ED7D2B"/>
<path d="M734.631 178.484H730.513C723.87 180.405 717.28 182.3 714.229 183.164L714.387 184.283V184.308L714.549 185.442C717.007 184.74 722.975 183.058 737.464 178.853L737.513 178.484H734.631Z" fill="#FD8C04"/>
<path d="M715.322 190.876V190.901L715.487 192.038C718.344 191.234 724.243 189.542 736.527 185.983L736.692 184.747L736.85 183.519C729.088 185.769 719.693 188.482 715.16 189.767L715.322 190.876Z" fill="#FD8C04"/>
<path d="M718.067 196.957L718.109 196.982C718.641 197.288 719.211 197.524 719.805 197.684C723.175 196.718 728.174 195.272 735.603 193.12L735.765 191.881L735.926 190.652C729.284 192.576 721.662 194.777 716.968 196.125C717.3 196.445 717.668 196.724 718.067 196.957Z" fill="#FD8C04"/>
<path d="M710.505 123.529L708.595 123.853L717.881 178.69L719.792 178.367L710.505 123.529Z" fill="#ED7D2B"/>
<path d="M741.605 126.304L731.727 180.077L733.626 180.426L743.504 126.653L741.605 126.304Z" fill="#ED7D2B"/>
<path d="M731.65 133.595C731.368 133.592 731.086 133.558 730.811 133.493C730.562 133.441 730.336 133.31 730.165 133.121C729.995 132.932 729.889 132.693 729.863 132.44C729.642 131.229 730.59 129.007 731.928 127.125C731.226 125.907 730.299 124.903 729.326 124.608C727.887 124.169 725.678 125.5 724.137 127.195C724.415 127.59 724.669 128.001 724.896 128.427C725.682 129.916 726.251 131.819 725.475 132.7C725.187 133.026 724.601 133.321 723.439 132.882C721.985 132.335 721.462 131.102 722.006 129.505C722.322 128.646 722.788 127.849 723.382 127.153C722.192 125.602 720.598 124.419 719.029 124.619C718.256 124.71 717.518 124.988 716.877 125.43C717.881 127.297 718.109 129.667 717.414 130.937C716.94 131.804 716.111 132.078 715.079 131.71C714.342 131.446 713.956 130.428 714.096 129.116C714.267 127.631 714.984 126.264 716.108 125.279C715.809 124.803 715.433 124.38 714.995 124.029C712.292 121.923 710.055 124.183 709.964 124.282L709.539 123.871C709.567 123.843 712.242 121.151 715.353 123.566C715.834 123.946 716.248 124.405 716.575 124.924C717.287 124.441 718.104 124.137 718.959 124.036C720.714 123.815 722.47 125.054 723.772 126.704C725.447 124.886 727.831 123.545 729.495 124.047C730.548 124.363 731.538 125.377 732.303 126.627C732.934 125.773 733.696 125.024 734.561 124.408C735.786 123.597 736.583 123.783 737.019 124.082C737.489 124.397 737.893 124.802 738.209 125.272C738.561 124.987 738.942 124.741 739.346 124.538C740.751 123.836 742.067 123.882 743.015 124.682L742.636 125.131C741.614 124.268 740.301 124.717 739.61 125.061C739.221 125.255 738.855 125.491 738.518 125.763C739.462 127.469 739.645 129.688 739.104 130.762C739.04 130.915 738.946 131.055 738.827 131.171C738.708 131.287 738.566 131.378 738.412 131.439C738.257 131.5 738.091 131.528 737.925 131.524C737.758 131.519 737.595 131.481 737.443 131.411C736.162 130.944 735.849 130.06 735.811 129.403C735.744 128.143 736.615 126.711 737.756 125.654C737.481 125.226 737.123 124.857 736.703 124.57C736.148 124.219 735.403 124.545 734.873 124.893C733.999 125.525 733.233 126.296 732.605 127.174C733.487 128.849 733.943 130.8 733.609 132.057C733.523 132.506 733.277 132.909 732.917 133.192C732.557 133.474 732.107 133.617 731.65 133.595ZM732.23 127.711C731.071 129.403 730.253 131.32 730.439 132.345C730.449 132.482 730.503 132.612 730.594 132.716C730.684 132.819 730.806 132.89 730.941 132.917C732.093 133.181 732.798 132.844 733.048 131.92C733.325 130.857 732.953 129.189 732.23 127.711ZM723.744 127.666C723.237 128.274 722.837 128.963 722.561 129.705C722.115 131.018 722.48 131.906 723.646 132.345C724.113 132.521 724.734 132.661 725.05 132.32C725.51 131.797 725.24 130.316 724.39 128.715C724.196 128.354 723.981 128.003 723.747 127.666H723.744ZM716.41 125.809C715.443 126.689 714.828 127.89 714.679 129.189C714.57 130.193 714.816 131.004 715.279 131.169C716.024 131.432 716.571 131.264 716.898 130.667C717.495 129.575 717.277 127.483 716.41 125.809ZM738.065 126.184C737.043 127.164 736.351 128.417 736.404 129.382C736.446 130.084 736.864 130.586 737.654 130.874C737.737 130.919 737.829 130.946 737.923 130.953C738.018 130.959 738.113 130.945 738.201 130.912C738.29 130.879 738.37 130.827 738.437 130.76C738.503 130.693 738.555 130.612 738.588 130.523C739.041 129.61 738.844 127.683 738.065 126.184Z" fill="#ED7D2B"/>
<path d="M748.675 76.3618C752.186 79.6826 751.754 85.7907 747.222 87.1492C743.806 88.1742 738.708 86.7981 736.191 82.4453C733.673 78.0924 734.832 74.4978 737.921 72.7146C741.011 70.9313 744.996 72.9076 748.675 76.3618Z" fill="#FFF0E3"/>
<path d="M725.595 32.2012H725.181C724.428 32.2012 723.818 32.811 723.818 33.5632V50.455C723.818 51.2073 724.428 51.8171 725.181 51.8171H725.595C726.347 51.8171 726.957 51.2073 726.957 50.455V33.5632C726.957 32.811 726.347 32.2012 725.595 32.2012Z" fill="#FFF0E3"/>
<path d="M786.842 67.5313L786.618 67.1404C786.246 66.4944 785.422 66.2717 784.775 66.6429L776.458 71.4223C775.812 71.7936 775.589 72.6182 775.961 73.2642L776.185 73.6551C776.557 74.3011 777.381 74.5239 778.028 74.1526L786.345 69.3732C786.991 69.002 787.214 68.1773 786.842 67.5313Z" fill="#FFF0E3"/>
<path d="M782.351 95.0789C782.352 94.6636 782.517 94.2656 782.81 93.9716C783.103 93.6776 783.501 93.5116 783.916 93.5098H804.848C805.264 93.5107 805.663 93.6763 805.957 93.9704C806.251 94.2645 806.417 94.663 806.417 95.0789C806.416 95.4942 806.25 95.8918 805.956 96.1852C805.662 96.4785 805.263 96.6436 804.848 96.6445H783.902C783.49 96.639 783.096 96.4718 782.806 96.179C782.516 95.8862 782.352 95.4911 782.351 95.0789Z" fill="#FFF0E3"/>
<path d="M753.074 58.8981C752.692 58.7336 752.39 58.4244 752.236 58.0382C752.081 57.652 752.086 57.2202 752.249 56.8375L763.368 30.7766C763.532 30.3948 763.84 30.0933 764.225 29.9381C764.611 29.7828 765.042 29.7865 765.425 29.9482C765.807 30.1135 766.108 30.4225 766.263 30.8083C766.418 31.194 766.414 31.6254 766.254 32.0087L755.135 58.0696C754.97 58.4517 754.661 58.7532 754.275 58.9084C753.889 59.0636 753.457 59.0599 753.074 58.8981Z" fill="#FFF0E3"/>
<path d="M676.183 71.4582L676.407 71.065C676.585 70.7567 676.632 70.3907 676.54 70.0473C676.448 69.7039 676.224 69.411 675.916 69.2326L667.634 64.4515C667.325 64.2734 666.958 64.2251 666.614 64.3172C666.27 64.4094 665.976 64.6344 665.798 64.9429L665.573 65.3326C665.397 65.6417 665.349 66.0078 665.441 66.3515C665.533 66.6952 665.757 66.9888 666.064 67.1685L674.347 71.9356C674.654 72.114 675.019 72.1639 675.363 72.0745C675.707 71.9851 676.001 71.7636 676.183 71.4582Z" fill="#FFF0E3"/>
<path d="M670.523 95.0789C670.522 94.663 670.356 94.2645 670.062 93.9704C669.768 93.6763 669.37 93.5107 668.954 93.5098H648.008C647.592 93.5107 647.193 93.6763 646.899 93.9704C646.605 94.2645 646.439 94.663 646.438 95.0789C646.44 95.4942 646.606 95.8918 646.9 96.1852C647.194 96.4785 647.592 96.6436 648.008 96.6445H668.954C669.369 96.6436 669.767 96.4785 670.061 96.1852C670.355 95.8918 670.521 95.4942 670.523 95.0789Z" fill="#FFF0E3"/>
<path d="M699.796 58.8981C700.178 58.7328 700.479 58.4237 700.634 58.038C700.789 57.6522 700.786 57.2209 700.625 56.8375L689.506 30.7766C689.342 30.3948 689.034 30.0933 688.648 29.9381C688.263 29.7828 687.831 29.7865 687.449 29.9482C687.067 30.1135 686.766 30.4225 686.611 30.8083C686.456 31.194 686.459 31.6254 686.62 32.0087L697.739 58.0696C697.903 58.4515 698.211 58.7529 698.597 58.9082C698.982 59.0634 699.414 59.0598 699.796 58.8981Z" fill="#FFF0E3"/>
<path d="M685.09 183.024C685.111 182.431 685.571 176.042 695.306 175.705C695.306 175.705 690.517 176.277 689.689 178.38C689.689 178.38 692.947 175.782 695.601 176.625C698.255 177.467 699.814 182.111 699.832 183.646C699.849 185.18 698.371 190.108 696.672 190.526C695.999 190.661 695.305 190.661 694.632 190.526C695.114 191.276 695.55 192.054 695.938 192.857C699.825 200.832 695.819 208.622 692.529 207.762C690.423 207.211 689.822 210.809 689.822 210.809L669.333 194.222C669.333 194.222 676.878 178.65 685.09 183.024Z" fill="#102439"/>
<path d="M677.956 417.895L682.31 419.513C682.31 419.513 701.212 393.301 703.54 370.235C703.954 366.117 703.817 362.129 702.918 358.443C702.918 358.443 703.101 357.39 703.427 355.523C703.575 354.652 703.778 353.606 703.968 352.406C704.582 348.895 705.428 344.065 706.397 338.582C708.62 325.944 711.502 309.821 713.742 297.96L712.57 297.581L699.874 293.491L697.255 285.161L687.804 282.676C687.804 282.676 685.698 286.804 683.809 306.304C683.458 308.863 683.145 311.682 682.906 314.729C682.036 326.116 682.337 337.563 683.805 348.888C684.238 352.277 684.792 355.771 685.466 359.37C685.961 362.006 686.035 365.597 685.817 369.726C684.879 388.594 677.956 417.895 677.956 417.895Z" fill="#102439"/>
<path d="M682.909 314.743L703.427 355.523C703.574 354.653 703.778 353.606 703.967 352.406C704.582 348.896 705.428 344.065 706.397 338.582C708.619 325.945 711.502 309.822 713.741 297.96L712.569 297.581L699.874 293.492L697.255 285.161L684.967 278.358C684.967 278.358 684.967 280.261 683.913 301.007C683.569 303.563 683.148 311.693 682.909 314.743Z" fill="#0B1A30"/>
<path d="M691.936 287.909L692.41 283.837C700.365 285.944 722.547 276.065 722.547 276.065C722.547 276.065 729.333 284.708 728.322 300.947C727.827 308.873 726.918 342.555 725.984 352.521C725.633 356.133 725.345 358.706 725.222 359.731C725.199 360.043 725.279 360.354 725.45 360.616C726.822 362.947 727.986 365.394 728.929 367.928C738.181 392.574 727.504 422.925 727.504 422.925L724.734 421.809C724.734 421.809 718.66 388.032 713.724 373.109C712.888 370.578 712.084 368.591 711.347 367.401C709.202 363.937 707.211 358.275 705.403 351.549C701.987 338.827 699.235 322.272 697.405 309.495C695.847 298.683 691.936 287.909 691.936 287.909Z" fill="#102439"/>
<path d="M635.474 273.219L634.856 277.902C634.856 277.902 637.665 277.526 638.136 277.491C639.586 277.393 643.876 277.115 647.861 276.687C653.854 276.094 658.2 275.957 661.03 274.209C665.345 271.576 672.426 263.509 677.039 255.439C677.161 255.248 677.27 255.05 677.366 254.846C679.771 250.567 681.452 246.316 681.579 242.91C681.683 241.093 681.494 239.27 681.021 237.512C680.541 235.74 679.712 234.083 678.584 232.636C678.457 232.429 678.301 232.241 678.121 232.078C677.249 231.005 676.189 230.101 674.992 229.41C674.203 229.08 671.576 232.264 670.688 233.218L669.944 235.426C669.217 236.185 661.262 261.754 657.656 265.742C656.108 267.455 648.879 270.147 642.328 271.966C638.083 273.163 635.474 273.219 635.474 273.219Z" fill="white"/>
<path d="M676.733 238.516C679.623 239.809 682.733 240.537 685.897 240.661C699.589 241.412 702.682 229.427 703.247 221.462C701.741 220.942 700.142 220.74 698.553 220.869C697.76 220.911 696.938 220.989 696.208 221.069C695.863 221.109 695.517 221.012 695.243 220.799C693.519 219.447 690.896 215.354 689.32 208.902L688.73 209.176L678.857 213.817C678.857 213.817 679.911 217.029 680.68 220.1C680.998 221.302 681.245 222.521 681.42 223.751C681.475 224.216 681.376 224.687 681.14 225.091C680.904 225.496 680.543 225.813 680.111 225.994C678.589 230.051 677.458 234.244 676.733 238.516Z" fill="white"/>
<path d="M725.404 280.517C725.292 285.579 689.66 290.062 683.53 286.667C683.53 286.667 681.94 278.997 679.914 270.379C679.307 267.785 678.654 265.114 678.001 262.53C676.46 256.46 674.873 250.928 673.654 248.302C673.528 248.029 673.416 247.765 673.303 247.488C670.575 240.253 675.687 232.513 672.155 230.224C672.155 230.224 674.262 228.297 680.104 226.012C680.013 226.363 679.493 231.158 680.494 233.032C682.477 236.746 690.215 234.805 693.747 230.224C695.815 227.542 697.416 224.829 698.146 222.291C698.308 221.718 698.55 220.886 698.55 220.886C698.55 220.886 705.08 220.002 708.731 221.487C707.804 223.604 707.139 225.826 706.751 228.104C706.699 228.437 706.66 228.767 706.625 229.097C706.553 229.789 706.535 230.485 706.572 231.179C706.625 232.081 707.095 232.878 707.833 233.664C708.645 234.466 709.526 235.196 710.466 235.844C711.143 236.336 711.87 236.848 712.621 237.406C712.688 241.496 712.4 248.215 713.158 255.386C713.352 257.197 713.952 258.941 714.914 260.487C715.294 261.109 715.727 261.696 716.209 262.242C720.071 266.535 725.534 279.927 725.404 280.517Z" fill="#B6D7FF"/>
<path d="M678.858 213.819C678.858 213.819 679.912 217.028 680.681 220.103C686.452 218.492 688.204 212.429 688.731 209.179L678.858 213.819Z" fill="#FFF2E9"/>
<path d="M677.644 217.214C677.644 217.214 691.448 214.02 689.324 205.458C687.2 196.896 687.569 190.715 678.655 192.389C669.741 194.063 668.852 197.756 668.866 200.789C668.88 203.822 673.999 217.825 677.644 217.214Z" fill="white"/>
<path d="M668.089 195.928C669.574 192.821 671.319 192.986 672.411 193.537C678.899 187.538 685.261 192.438 685.261 192.438C686.802 196.029 689.544 198.972 693.016 200.765C693.016 200.765 690.91 202.934 684.748 202.889C682.87 202.871 680.985 202.011 679.268 200.825C681.412 202.933 683.833 204.738 686.465 206.192C678.769 204.718 673.612 195.812 673.082 194.868C672.432 195.829 671.182 197.876 671.08 199.606C670.937 201.958 671.744 206.522 670.399 206.697C670.399 206.704 665.863 200.582 668.089 195.928Z" fill="#102439"/>
<path d="M672.162 230.221C672.162 230.221 670.937 230.923 668.697 237.771C668.697 237.771 671.264 240.959 674.392 240.661C674.392 240.661 674.81 231.004 672.162 230.221Z" fill="#B6D7FF"/>
<path d="M711.399 425.201H733.321C733.321 425.201 733.848 421.859 732.7 419.324C731.604 416.895 729.891 415.789 730.298 412.848C728.894 414.28 726.633 415.888 723.466 415.459C723.077 416.088 720.959 419.458 719.66 420.374C718.228 421.42 711.842 421.051 711.399 425.201Z" fill="#B5BAC2"/>
<path d="M664.337 425.201H686.255C686.255 425.201 687.077 421.691 685.637 419.325C684.363 417.218 684.851 416.021 685.795 414.28C684.632 414.786 683.37 415.026 682.102 414.982C680.943 414.852 679.829 414.46 678.844 413.838C677.899 414.912 673.858 419.49 672.598 420.395C671.166 421.42 664.765 421.052 664.337 425.201Z" fill="#B5BAC2"/>
<path d="M644.536 257.822C644.536 257.822 642.615 255.232 641.414 254.691C640.214 254.151 639.073 250.802 638.409 251.823C638.005 252.448 639.027 254.765 638.76 255.284C638.493 255.804 635.846 254.705 635.383 253.961C635.07 253.463 632.339 250.166 632.276 251.686C632.212 253.206 634.6 259.037 635.786 259.781C636.973 260.525 641.404 261.536 641.404 261.536L644.536 257.822Z" fill="white"/>
<path d="M704.28 243.608C699.322 255.733 680.244 270.751 680.244 270.751L679.914 270.378C679.307 267.784 678.654 265.113 678.001 262.529L698.322 243.608H704.28Z" fill="#C6E0FF"/>
<path d="M642.036 258.069L641.415 261.527C641.415 261.527 652.299 264.019 654.721 264.545H654.753C658.903 265.37 663.59 266.22 667.669 266.652C670.552 266.929 673.132 267.003 675.042 266.739C675.23 266.72 675.415 266.685 675.597 266.634C680.266 265.704 687.885 260.14 694.794 253.611C695.753 252.709 696.679 251.796 697.603 250.911C700.709 247.864 703.59 244.597 706.225 241.135C707.467 239.552 708.571 237.865 709.526 236.094C709.797 235.603 710.042 235.098 710.259 234.581C714.191 225.879 710.435 222.698 710.435 222.698C710.361 222.628 710.284 222.558 710.179 222.474C709.476 222.007 708.472 222.158 707.212 222.772C705.629 223.53 703.627 225.04 701.405 226.953C697.926 230.028 677.04 255.45 672.163 256.419C667.925 257.247 642.036 258.069 642.036 258.069Z" fill="white"/>
<path d="M708.229 221.279C708.229 221.279 712.484 222.473 712.856 226.931C713.229 231.389 712.649 245.185 712.649 245.185C712.649 245.185 698.736 241.194 693.069 232.688C693.069 232.709 703.286 221.388 708.229 221.279Z" fill="#B6D7FF"/>
<path d="M1378.05 424.004H1.94958C0.872855 424.004 0 424.877 0 425.953V427.755C0 428.831 0.872855 429.704 1.94958 429.704H1378.05C1379.13 429.704 1380 428.831 1380 427.755V425.953C1380 424.877 1379.13 424.004 1378.05 424.004Z" fill="#2E3552"/>
</svg>
