<svg width="604" height="363" viewBox="0 0 604 363" fill="none" xmlns="http://www.w3.org/2000/svg">
<g clip-path="url(#clip0_197_4679)">
<path d="M395.35 303.79C327.49 303.79 272.478 248.718 272.478 180.783C272.478 112.848 327.49 57.7754 395.35 57.7754C463.209 57.7754 518.221 112.848 518.221 180.783C518.221 248.718 463.209 303.79 395.35 303.79Z" stroke="#B6D7FF"/>
<path d="M285.829 361.879C285.829 361.879 273.237 333.365 225.244 333.365C177.252 333.365 151.753 361.879 151.753 361.879H285.829Z" fill="white" stroke="#0E101A" stroke-linecap="round" stroke-linejoin="round"/>
<path d="M179.177 362.014C179.177 362.014 167.232 337.942 141.149 337.942C115.065 337.942 105.258 354.301 103.123 362.014H179.177Z" fill="#B6D7FF" stroke="#0E101A" stroke-linecap="round" stroke-linejoin="round"/>
<path d="M571.81 361.668C571.81 361.668 596.783 363.725 603.187 324.629C578.525 328.155 564.614 361.687 564.614 361.687L571.81 361.668Z" fill="white" stroke="#0E101A" stroke-linecap="round" stroke-linejoin="round"/>
<path d="M565.624 360.944H565.668C574.877 359 584.638 349.254 591.21 341.418C595.62 336.132 599.68 330.564 603.366 324.748C603.396 324.701 603.407 324.643 603.394 324.588C603.382 324.532 603.348 324.484 603.301 324.453C603.253 324.423 603.195 324.412 603.139 324.425C603.084 324.437 603.036 324.471 603.005 324.519C599.331 330.32 595.282 335.875 590.884 341.146C584.349 348.929 574.67 358.608 565.59 360.526C565.563 360.531 565.537 360.542 565.514 360.558C565.49 360.574 565.471 360.594 565.455 360.617C565.44 360.64 565.43 360.666 565.424 360.694C565.419 360.721 565.42 360.749 565.426 360.777C565.435 360.823 565.46 360.864 565.496 360.894C565.532 360.925 565.577 360.942 565.624 360.944Z" fill="#0E101A"/>
<path d="M578.857 320.678C578.857 320.678 580.136 352.065 566.691 361.688L556.127 361.669C556.127 361.669 564.665 325.163 578.857 320.678Z" fill="#B6D7FF" stroke="#0E101A" stroke-linecap="round" stroke-linejoin="round"/>
<path d="M556.661 343.158C556.661 343.158 561.247 351.318 558.794 361.686C550.044 361.686 548.229 361.667 548.229 361.667C548.229 361.667 550.044 347.587 556.661 343.158Z" fill="#0E101A" stroke="#0E101A" stroke-linecap="round" stroke-linejoin="round"/>
<path d="M578.856 320.678C578.856 320.678 569.572 356.408 561.151 361.669L578.856 320.678Z" fill="#B6D7FF"/>
<path d="M561.142 361.879C561.182 361.879 561.22 361.868 561.254 361.848C569.658 356.602 578.679 322.193 579.061 320.73C579.075 320.676 579.067 320.618 579.038 320.57C579.01 320.521 578.963 320.486 578.909 320.473C578.855 320.459 578.797 320.467 578.749 320.495C578.701 320.524 578.666 320.57 578.652 320.625C578.559 320.981 569.293 356.335 561.031 361.489C561.007 361.503 560.987 361.523 560.97 361.545C560.954 361.568 560.943 361.594 560.937 361.621C560.93 361.648 560.929 361.676 560.934 361.703C560.939 361.731 560.948 361.757 560.963 361.781C560.982 361.811 561.009 361.836 561.04 361.854C561.071 361.87 561.106 361.879 561.142 361.879Z" fill="#0E101A"/>
<path d="M521.828 74.7124C517.683 74.7124 514.323 71.3486 514.323 67.199C514.323 63.0495 517.683 59.6855 521.828 59.6855C525.973 59.6855 529.333 63.0495 529.333 67.199C529.333 71.3486 525.973 74.7124 521.828 74.7124Z" fill="#0E101A" stroke="#0E101A" stroke-linecap="round" stroke-linejoin="round"/>
<path d="M103.123 93.3452C100.213 93.3452 97.8524 90.9828 97.8524 88.0687C97.8524 85.1544 100.213 82.792 103.123 82.792C106.034 82.792 108.394 85.1544 108.394 88.0687C108.394 90.9828 106.034 93.3452 103.123 93.3452Z" fill="#0E101A"/>
<path d="M519.584 202.264C499.011 202.264 482.333 185.567 482.333 164.972C482.333 144.376 499.011 127.68 519.584 127.68C540.157 127.68 556.835 144.376 556.835 164.972C556.835 185.567 540.157 202.264 519.584 202.264Z" fill="#B6D7FF"/>
<path d="M504.399 185.319C504.399 185.319 529.716 183.581 542.46 203.48L560.908 175.515C560.908 175.515 542.313 156.328 522.342 159.497L504.399 185.319Z" fill="white"/>
<path d="M543.873 201.332C537.418 191.682 528.012 187.238 520.185 185.21C516.185 184.174 512.589 183.766 509.992 183.616C508.694 183.541 507.643 183.531 506.916 183.539C506.868 183.54 506.822 183.541 506.777 183.541L524.037 158.704C533.777 157.234 543.21 161.144 550.266 165.489C553.812 167.673 556.74 169.957 558.781 171.694C559.802 172.563 560.599 173.294 561.141 173.807C561.368 174.022 561.55 174.198 561.685 174.331L543.873 201.332Z" stroke="black"/>
<path d="M48.9846 189.868C47.4427 189.868 46.1929 188.617 46.1929 187.074C46.1929 185.531 47.4427 184.279 48.9846 184.279C50.5255 184.279 51.7754 185.531 51.7754 187.074C51.7754 188.617 50.5255 189.868 48.9846 189.868Z" fill="#0E101A" stroke="#0E101A" stroke-linecap="round" stroke-linejoin="round"/>
<path d="M375.315 6.30469C375.315 6.30469 355.856 43.926 316.522 42.7729L340.307 96.0082C340.307 96.0082 383.697 88.1672 396.49 56.7511L375.315 6.30469Z" fill="white"/>
<path d="M323 44.2182C342.457 44.5432 357.019 35.4591 366.728 26.266C371.649 21.6079 375.33 16.9149 377.783 13.386C379.009 11.6211 379.929 10.1464 380.543 9.11128C380.706 8.83788 380.846 8.59512 380.966 8.38574L401.654 57.6731C395.288 73.113 381.431 82.8047 369.08 88.6468C362.886 91.5766 357.089 93.5297 352.84 94.7503C350.716 95.3605 348.98 95.7872 347.777 96.0611C347.175 96.1981 346.706 96.2969 346.389 96.3612C346.359 96.3672 346.331 96.373 346.305 96.3784L323 44.2182Z" stroke="black"/>
<path d="M389.012 59.7189L375.348 26.5859L374.562 26.9066L388.225 60.0395L389.012 59.7189Z" fill="#0E101A"/>
<path d="M385.813 63.8021L372.76 31.4629L371.971 31.7774L385.025 64.1165L385.813 63.8021Z" fill="#0E101A"/>
<path d="M382.077 66.5556L369.432 35.9932L368.646 36.3149L381.291 66.8773L382.077 66.5556Z" fill="#0E101A"/>
<path d="M377.627 70.5282L365.227 39.2852L364.437 39.5948L376.837 70.8378L377.627 70.5282Z" fill="#0E101A"/>
<path d="M374.033 73.0475L361.733 42.1953L360.944 42.5062L373.244 73.3584L374.033 73.0475Z" fill="#0E101A"/>
<path d="M369.94 76.8947L355.819 43.5576L355.035 43.8864L369.156 77.2235L369.94 76.8947Z" fill="#0E101A"/>
<path d="M348.827 72.5084C344.638 72.5084 341.243 69.1091 341.243 64.9158C341.243 60.7226 344.638 57.3232 348.827 57.3232C353.016 57.3232 356.411 60.7226 356.411 64.9158C356.411 69.1091 353.016 72.5084 348.827 72.5084Z" fill="#B6D7FF"/>
<path d="M348.616 79.9484C350.137 76.7176 351.916 72.7011 354.926 70.5791C355.394 70.2497 355.702 70.3971 355.67 71.0445C355.587 72.7461 353.674 73.8054 352.455 74.6645C351.789 75.1336 350.699 76.2061 349.79 75.9049C348.491 75.4742 348.722 73.6227 348.957 72.6127C349.209 71.5326 349.605 70.4531 350.266 69.5552C350.807 68.8209 349.857 70.2952 349.678 70.4769C347.913 72.2726 348.753 67.7413 348.925 67.0763C349.045 66.6169 349.749 65.2351 349.574 64.7444C349.468 64.4483 347.935 65.7281 347.78 65.8917C347.25 66.4496 347.181 66.0308 347.082 65.3425C346.855 63.7633 346.77 62.1652 346.557 60.5837C346.479 60.0156 346.481 59.1275 346.047 58.677C344.986 57.5725 344.982 56.5438 344.69 55.0645" stroke="black" stroke-width="0.85" stroke-linecap="round"/>
<path d="M187.137 290.983H0.396744C0.396744 290.983 2.5546 254.604 43.5379 251.214C84.5202 247.824 93.7666 268.471 93.7666 268.471C93.7666 268.471 95.5955 237.339 127.313 237.719C154.267 238.043 158.41 262.88 154.167 274.939C164.913 262.422 189.903 266.553 187.137 290.983Z" fill="#E1EFFF"/>
<path d="M261.462 126.185L253.959 136.204C253.959 136.204 248.542 131.719 244.538 129.563C238.812 126.466 235.697 124.003 234.209 122.651C230.533 119.313 230.966 115.604 235.171 117.647C232.782 116.215 230.886 114.124 231.829 112.57C233.291 110.139 237.343 113.563 237.343 113.563C237.343 113.563 232.685 109.985 233.301 108.611C234.607 105.692 239.64 109.306 239.64 109.306C239.64 109.306 238.051 108.345 234.867 105.731C232.59 104.199 228.162 100.414 230.398 98.5458C233.324 96.108 247.787 113.281 249.777 112.433C251.765 111.583 246.013 103.688 249.424 101.345C251.027 100.24 252.477 102.325 254.197 107.23C255.916 112.134 258.563 122.225 258.563 122.225L261.462 126.185Z" fill="white" stroke="black" stroke-linecap="round" stroke-linejoin="round"/>
<path d="M363.26 183.236C363.26 183.236 321.643 180.129 298.339 160.13C276.526 141.423 261.292 121.479 261.292 121.479C261.292 121.479 249.295 126.838 249.613 137.791C261.064 151.245 292.824 206.793 350.525 208.715" fill="#B6D7FF"/>
<path d="M363.26 183.236C363.26 183.236 321.643 180.129 298.339 160.13C276.526 141.423 261.292 121.479 261.292 121.479C261.292 121.479 249.295 126.838 249.613 137.791C261.064 151.245 292.824 206.793 350.525 208.715" stroke="black" stroke-linecap="round" stroke-linejoin="round"/>
<path d="M239.63 109.306C239.63 109.306 244.824 113.05 243.861 114.787C242.9 116.523 238.248 114.995 237.337 113.563" fill="black"/>
<path d="M237.039 113.33C237.039 113.33 243.346 117.699 242.527 119.435C241.709 121.171 235.15 117.648 235.15 117.648" fill="black"/>
<path d="M236.333 124.4C236.333 124.4 240.634 126.226 241.199 124.184C241.764 122.144 234.858 117.506 234.858 117.506" fill="black"/>
<path d="M362.227 183.54L362.066 183.732C362.066 183.63 362.066 183.527 362.066 183.411C362.066 183.361 362.066 183.309 362.066 183.255C362.083 183.366 362.141 183.467 362.227 183.54Z" fill="url(#paint0_linear_197_4679)"/>
<path d="M495.429 322.299H495.461C495.511 322.321 495.557 322.35 495.599 322.385C495.773 322.528 495.931 322.69 496.067 322.868C496.552 323.512 496.993 324.188 497.389 324.89C498.412 326.626 499.705 329.054 501.306 331.694C504.513 336.998 508.953 343.258 515.099 346.996C518.743 349.21 522.114 350.949 524.995 352.387C527.875 353.826 530.268 354.985 531.917 355.998C533.024 356.667 533.8 357.278 534.163 357.827C534.355 358.066 534.467 358.359 534.483 358.666C534.48 358.889 534.424 359.108 534.32 359.307C534.265 359.398 534.191 359.475 534.102 359.534C533.932 359.654 533.749 359.755 533.556 359.831C532.986 360.058 532.395 360.229 531.792 360.344C526.195 356.929 520.318 354.233 514.826 350.943C509.283 347.637 504.134 343.751 500.013 337.963C496.719 333.158 494.63 328.125 492.613 322.859C493.616 322.603 494.445 322.413 494.977 322.331C495.126 322.311 495.278 322.3 495.429 322.299Z" fill="black"/>
<path d="M532.18 360.928C532.196 360.833 532.184 360.734 532.145 360.647C532.105 360.558 532.041 360.483 531.958 360.432L531.792 360.335C532.394 360.22 532.985 360.048 533.556 359.823C533.749 359.745 533.932 359.645 534.101 359.526C534.19 359.467 534.265 359.389 534.319 359.297C534.424 359.1 534.48 358.88 534.483 358.657C534.472 358.353 534.366 358.06 534.181 357.817C533.809 357.28 533.033 356.659 531.936 355.988C530.278 354.976 527.885 353.833 525.007 352.391C522.13 350.95 518.755 349.214 515.111 347C508.965 343.261 504.526 337.003 501.319 331.697C499.714 329.049 498.431 326.63 497.401 324.894C497.006 324.192 496.564 323.517 496.08 322.873C495.942 322.694 495.786 322.532 495.611 322.389C495.57 322.354 495.524 322.325 495.474 322.302H495.441C495.289 322.308 495.139 322.323 494.989 322.347C494.456 322.431 493.629 322.619 492.625 322.876C492.561 322.709 492.497 322.555 492.436 322.376C492.393 322.265 492.31 322.175 492.205 322.121C492.099 322.067 491.976 322.054 491.862 322.085C492.696 321.863 493.437 321.678 494.04 321.549C494.342 321.485 494.611 321.435 494.842 321.399C495.041 321.365 495.243 321.346 495.445 321.342C495.586 321.343 495.726 321.373 495.856 321.431C496.098 321.545 496.316 321.707 496.496 321.905C496.949 322.408 497.35 322.953 497.694 323.536C498.457 324.749 499.361 326.419 500.445 328.312C502.259 331.612 504.309 334.777 506.576 337.785C509.081 341.007 512.061 344.046 515.586 346.189C521.087 349.534 525.97 351.783 529.508 353.589C530.989 354.295 532.407 355.124 533.748 356.069C534.214 356.41 534.626 356.819 534.97 357.283C535.267 357.685 535.433 358.167 535.445 358.667C535.441 359.036 535.35 359.399 535.179 359.727C535.058 359.953 534.885 360.149 534.675 360.298C534.308 360.548 533.904 360.742 533.479 360.874C532.93 361.055 532.37 361.2 531.801 361.306C531.895 361.288 531.981 361.243 532.048 361.175C532.116 361.107 532.162 361.022 532.18 360.928Z" fill="black"/>
<path d="M503.404 355.61C503.303 355.532 503.176 355.498 503.049 355.514C502.922 355.53 502.808 355.596 502.73 355.697L499.564 359.803C499.149 359.582 498.777 359.288 498.467 358.935C498.314 358.76 498.142 358.604 497.954 358.467C497.749 358.31 497.504 358.147 497.225 357.957C496.67 357.596 495.981 357.18 495.224 356.715C493.552 355.734 491.946 354.647 490.412 353.461C489.485 352.746 488.666 351.902 487.978 350.956C487.94 350.902 487.893 350.857 487.837 350.822C487.783 350.787 487.721 350.764 487.657 350.753C487.145 350.663 486.624 350.618 486.104 350.619C485.954 350.619 485.806 350.619 485.659 350.619C487.621 338.718 483.808 329.041 482.332 325.873C485.325 324.937 488.94 323.839 491.66 323.105C493.694 328.417 495.83 333.562 499.205 338.507C503.43 344.443 508.709 348.419 514.313 351.76C519.551 354.883 525.075 357.468 530.336 360.578C524.851 361.442 519.307 361.877 513.755 361.879C512.597 361.879 511.458 361.853 510.348 361.809L512.19 358.586C512.225 358.531 512.248 358.47 512.259 358.405C512.269 358.341 512.267 358.276 512.251 358.213C512.236 358.15 512.207 358.09 512.168 358.038C512.129 357.986 512.08 357.942 512.023 357.911C511.967 357.879 511.904 357.858 511.84 357.851C511.775 357.843 511.709 357.849 511.647 357.867C511.585 357.886 511.527 357.917 511.477 357.957C511.426 357.999 511.385 358.05 511.356 358.108L509.431 361.495C509.385 361.574 509.363 361.667 509.37 361.76C508.283 361.699 507.231 361.616 506.239 361.501C503.955 361.241 501.973 360.825 500.532 360.248L500.44 360.206L503.481 356.26C503.553 356.162 503.586 356.041 503.571 355.92C503.557 355.798 503.498 355.688 503.404 355.61Z" fill="white"/>
<path d="M503.908 362.155C503.652 362.11 503.402 362.062 503.157 362.011C502.144 361.815 501.148 361.53 500.184 361.159L499.844 361.015L500.45 360.233L500.543 360.275C501.983 360.852 503.966 361.267 506.25 361.527C507.241 361.642 508.293 361.726 509.381 361.787C509.386 361.867 509.41 361.944 509.452 362.012C509.494 362.08 509.552 362.137 509.621 362.178C509.676 362.209 509.737 362.229 509.8 362.237C509.862 362.246 509.926 362.241 509.987 362.224C510.048 362.208 510.106 362.179 510.156 362.14C510.206 362.101 510.248 362.053 510.279 361.998L510.372 361.835C511.482 361.88 512.617 361.906 513.779 361.906C519.331 361.903 524.875 361.468 530.359 360.604C525.099 357.494 519.575 354.909 514.321 351.785C508.717 348.445 503.436 344.47 499.212 338.534C495.822 333.588 493.701 328.443 491.667 323.131C488.947 323.865 485.332 324.964 482.339 325.9C482.157 325.506 482.018 325.211 481.913 325.025C485.091 324.032 489.008 322.84 491.838 322.09C491.952 322.06 492.075 322.072 492.181 322.126C492.286 322.18 492.369 322.272 492.412 322.382C492.473 322.549 492.537 322.703 492.601 322.882C494.619 328.149 496.707 333.175 500.001 337.985C504.123 343.775 509.272 347.66 514.815 350.966C520.306 354.243 526.183 356.94 531.78 360.345L531.947 360.442C532.029 360.492 532.094 360.567 532.134 360.656C532.173 360.744 532.185 360.843 532.169 360.937C532.152 361.032 532.106 361.12 532.039 361.189C531.971 361.257 531.885 361.303 531.79 361.322C530.536 361.575 529.018 361.812 527.334 362.023C522.833 362.577 518.301 362.86 513.766 362.873C510.195 362.86 506.737 362.658 503.908 362.155Z" fill="black"/>
<path d="M487.676 350.755C487.74 350.765 487.802 350.789 487.857 350.823C487.913 350.858 487.959 350.904 487.997 350.957C488.684 351.904 489.504 352.748 490.431 353.462C491.964 354.647 493.572 355.734 495.243 356.717C496 357.181 496.69 357.597 497.245 357.959C497.524 358.142 497.768 358.311 497.973 358.469C498.161 358.604 498.333 358.762 498.487 358.937C498.797 359.29 499.168 359.583 499.583 359.804L498.993 360.57C498.523 360.303 498.101 359.959 497.745 359.552C497.58 359.376 497.394 359.222 497.194 359.09C496.703 358.738 495.968 358.286 495.115 357.764C493.832 356.982 492.286 356.038 490.845 354.983C489.475 353.974 488.206 352.872 487.346 351.678C486.948 351.615 486.545 351.583 486.143 351.582C485.937 351.582 485.732 351.582 485.524 351.604C485.584 351.284 485.642 350.964 485.697 350.642C485.844 350.642 485.992 350.642 486.143 350.642C486.656 350.635 487.169 350.672 487.676 350.755Z" fill="black"/>
<path d="M193.278 356.069C195.979 352.865 199.733 349.06 204.358 345.978C205.031 345.53 205.723 345.102 206.434 344.697L208.679 348.791C208.708 348.848 208.748 348.899 208.798 348.941C208.847 348.983 208.904 349.014 208.965 349.033C209.027 349.052 209.092 349.059 209.157 349.052C209.22 349.046 209.282 349.027 209.339 348.996C209.396 348.965 209.446 348.922 209.486 348.872C209.525 348.821 209.555 348.763 209.572 348.702C209.589 348.639 209.593 348.574 209.585 348.51C209.576 348.446 209.555 348.385 209.522 348.33L207.277 344.22C210.069 342.661 213.073 341.516 216.194 340.821L220.31 346.747C220.345 346.803 220.39 346.851 220.443 346.888C220.497 346.925 220.558 346.951 220.622 346.964C220.685 346.977 220.751 346.977 220.815 346.964C220.88 346.951 220.94 346.925 220.993 346.889C221.047 346.851 221.093 346.804 221.127 346.748C221.162 346.693 221.185 346.631 221.195 346.566C221.205 346.502 221.201 346.436 221.185 346.373C221.168 346.31 221.139 346.251 221.099 346.199L217.218 340.613C219.971 340.119 222.782 340.036 225.558 340.366C225.665 340.378 225.774 340.355 225.865 340.298C225.958 340.241 226.028 340.155 226.065 340.053C226.102 339.952 226.104 339.841 226.07 339.738C226.036 339.637 225.969 339.548 225.879 339.488C225.518 339.267 225.203 338.98 224.948 338.642C224.82 338.474 224.747 338.268 224.74 338.057C224.742 337.913 224.779 337.773 224.846 337.646C224.92 337.509 225.015 337.383 225.125 337.272C225.263 337.13 225.419 337.007 225.587 336.903C225.678 336.851 225.751 336.77 225.793 336.675C225.833 336.578 225.842 336.47 225.817 336.369V336.314L225.773 336.102C225.732 335.917 225.68 335.647 225.625 335.324C225.493 334.524 225.423 333.714 225.417 332.902C225.417 332.656 225.417 332.405 225.446 332.162C232.035 333.684 247.48 333.444 254.52 333.226L257.764 356.069H193.278Z" fill="white"/>
<path d="M258.319 356.068H257.763L254.514 333.203L255.476 333.174L258.79 356.481C258.774 356.367 258.718 356.262 258.632 356.186C258.545 356.111 258.434 356.069 258.319 356.068Z" fill="black"/>
<path d="M216.188 340.818C213.067 341.514 210.063 342.658 207.271 344.217L206.81 343.374C209.567 341.838 212.525 340.691 215.598 339.966L216.188 340.818Z" fill="black"/>
<path d="M225.619 335.308C225.674 335.628 225.725 335.901 225.767 336.086L225.812 336.298V336.352C225.837 336.454 225.828 336.562 225.786 336.658C225.744 336.755 225.672 336.835 225.58 336.887C225.413 336.991 225.257 337.115 225.119 337.255C225.008 337.367 224.915 337.492 224.84 337.63C224.772 337.757 224.736 337.897 224.734 338.04C224.74 338.252 224.814 338.458 224.942 338.626C225.197 338.963 225.513 339.251 225.872 339.472C225.962 339.532 226.03 339.62 226.064 339.722C226.098 339.825 226.096 339.936 226.059 340.037C226.022 340.138 225.951 340.225 225.859 340.281C225.768 340.338 225.659 340.362 225.551 340.35C222.775 340.02 219.964 340.103 217.212 340.597L216.615 339.734C218.458 339.374 220.332 339.192 222.21 339.19C222.876 339.19 223.553 339.216 224.234 339.261C224.211 339.232 224.182 339.2 224.16 339.168C223.923 338.839 223.792 338.445 223.784 338.04C223.786 337.735 223.865 337.434 224.013 337.165C224.187 336.849 224.422 336.571 224.705 336.346C224.743 336.311 224.779 336.285 224.814 336.256C224.579 335.142 224.454 334.008 224.442 332.87C224.442 332.55 224.442 332.21 224.484 331.877C224.776 331.967 225.09 332.05 225.446 332.13C225.427 332.374 225.417 332.623 225.417 332.87C225.42 333.687 225.488 334.502 225.619 335.308Z" fill="black"/>
<path d="M206.434 344.693C205.724 345.106 205.032 345.533 204.358 345.975C199.733 349.056 195.98 352.859 193.279 356.066H192.256C192.184 356.065 192.114 356.081 192.049 356.112C191.985 356.142 191.929 356.187 191.884 356.242C194.659 352.837 198.703 348.586 203.826 345.178C204.521 344.714 205.237 344.269 205.972 343.842L206.434 344.693Z" fill="black"/>
<path d="M192.492 357.03H257.902L258.617 362.015H192.466L192.434 361.976C191.86 361.315 191.535 360.477 191.514 359.602C191.544 358.66 191.888 357.754 192.492 357.03Z" fill="black"/>
<path d="M190.546 359.593C190.546 358.6 190.902 357.441 191.884 356.243C191.928 356.187 191.985 356.142 192.05 356.112C192.114 356.081 192.185 356.065 192.256 356.066H258.336C258.451 356.066 258.564 356.107 258.651 356.184C258.738 356.26 258.795 356.365 258.81 356.479L259.58 362.015L259.638 362.428C259.647 362.497 259.642 362.566 259.623 362.632C259.603 362.698 259.569 362.759 259.525 362.811C259.479 362.863 259.423 362.905 259.36 362.934C259.297 362.961 259.229 362.976 259.16 362.976H192.252C192.134 362.974 192.019 362.929 191.931 362.848C191.677 362.598 191.454 362.319 191.268 362.015C191.258 361.996 191.246 361.978 191.233 361.96C190.79 361.249 190.553 360.43 190.546 359.593ZM192.429 361.967L192.462 362.005H258.618L257.903 357.031H192.494C191.889 357.752 191.543 358.653 191.509 359.593C191.53 360.467 191.855 361.307 192.429 361.967Z" fill="black"/>
<path d="M482.351 325.89C483.827 329.058 487.641 338.736 485.678 350.636C485.623 350.956 485.565 351.276 485.504 351.596C484.814 355.205 483.646 358.706 482.034 362.007C481.957 362.168 481.883 362.328 481.803 362.488H314.037C314.037 362.488 313.787 362.325 313.364 362.007C310.079 359.557 296.122 347.871 303.552 331.124C307.847 321.44 320.665 306.596 332.152 294.414C332.238 294.495 332.35 294.542 332.469 294.545C332.588 294.548 332.703 294.507 332.793 294.43L333.358 293.959L409.455 283.951L411.274 276.689L413.609 277.183H413.692C413.433 284.352 411.944 296.528 405.263 304.187C393.714 317.41 370.674 320.998 374.333 322.683C381.147 325.826 481.793 324.778 481.793 324.778L481.915 325.008C482.021 325.201 482.168 325.496 482.351 325.89Z" fill="black"/>
<path d="M282.737 213.581C282.789 213.914 282.921 214.229 283.122 214.5C283.312 214.75 283.559 214.95 283.843 215.084C284.452 215.337 285.109 215.453 285.768 215.42C286.449 215.42 287.192 215.352 287.959 215.285C288.488 215.24 289.027 215.198 289.563 215.176C289.509 215.201 289.454 215.221 289.399 215.25C288.983 215.443 288.623 215.74 288.353 216.112C288.199 216.342 288.116 216.613 288.113 216.89C288.117 217.149 288.185 217.402 288.309 217.63C288.474 217.924 288.726 218.16 289.03 218.306C289.355 218.464 289.699 218.578 290.054 218.645C290.923 218.805 291.807 218.879 292.691 218.863C293.178 218.863 293.679 218.863 294.172 218.821C294.143 218.86 294.108 218.889 294.082 218.927C293.899 219.194 293.8 219.511 293.8 219.834C293.807 220.143 293.881 220.447 294.019 220.724C294.162 221.031 294.374 221.302 294.638 221.516C294.901 221.724 295.199 221.887 295.517 221.996C296.228 222.216 296.972 222.317 297.717 222.294C298.999 222.258 300.277 222.151 301.547 221.974C302.799 221.796 304.059 221.69 305.322 221.654C305.535 221.654 305.74 221.654 305.938 221.654C306.691 221.719 307.431 221.886 308.139 222.15C310.31 223.303 312.529 224.57 314.799 225.949C314.734 226.065 314.673 226.173 314.612 226.289C314.567 226.372 314.547 226.467 314.556 226.562C314.565 226.657 314.602 226.747 314.663 226.82C318.856 231.945 324.852 236.677 332.002 240.915C335.248 242.837 338.738 244.666 342.391 246.377C343.655 247.458 344.938 248.569 346.241 249.711C347.283 257.7 348.197 263.038 348.197 263.044C348.213 263.138 348.257 263.227 348.325 263.296C348.392 263.365 348.478 263.413 348.573 263.432L411.274 276.69L409.455 283.952L333.358 293.959L343.979 284.836C344.076 284.751 344.136 284.631 344.144 284.503C344.153 284.374 344.109 284.247 344.024 284.151C343.939 284.054 343.819 283.995 343.69 283.986C343.562 283.978 343.435 284.021 343.337 284.106L332.174 293.696C328.137 288.603 283.904 234.114 261.604 260.218C248.324 271.389 258.108 333.082 258.108 333.082C258.108 333.082 257.117 333.127 255.461 333.18L254.5 333.209C247.442 333.418 232.013 333.668 225.424 332.146C225.081 332.067 224.767 331.983 224.462 331.893C224.244 331.826 224.038 331.758 223.849 331.685C214.258 313.97 211.108 254.869 236.308 228.348C238.643 225.872 241.265 223.682 244.119 221.826C255.667 214.376 268.049 210.749 282.692 213.097C282.689 213.144 282.689 213.191 282.692 213.238C282.697 213.354 282.712 213.468 282.737 213.581Z" fill="black"/>
<path d="M410.157 262.009C412.702 262.009 415.175 261.919 417.555 261.739C417.542 264.042 417.365 266.341 417.025 268.618C416.657 270.933 416.083 272.852 415.293 274.246C414.882 275.018 414.304 275.691 413.603 276.216L349.075 262.608C349.041 262.39 348.986 262.067 348.919 261.647C348.783 260.804 348.598 259.574 348.357 258.024C347.988 255.567 347.52 252.303 347.032 248.501C350.026 249.781 353.109 250.978 356.281 252.088C373.907 258.309 393.59 262.009 410.157 262.009Z" fill="#B6D7FF"/>
<path d="M362.548 183.655C363.026 183.655 363.511 183.636 363.998 183.636C365.628 183.636 367.311 183.7 369.024 183.814L370.083 187.505C370.099 187.56 370.125 187.611 370.16 187.656C370.613 188.207 371.188 188.646 371.841 188.937C372.648 189.324 373.488 189.635 374.353 189.866C375.556 190.195 376.777 190.459 378.01 190.658C378.17 190.824 378.33 190.978 378.51 191.141C380.499 192.906 383.321 193.925 386.651 193.925C388.427 193.911 390.192 193.654 391.899 193.163C394.465 192.448 396.659 190.943 398.539 189.072C400.348 189.543 401.904 189.971 403.13 190.32L407.103 223.712C407.042 223.718 406.981 223.737 406.926 223.767C406.871 223.796 406.822 223.837 406.782 223.885C406.704 223.985 406.666 224.111 406.679 224.238C406.693 224.365 406.755 224.48 406.853 224.561L406.879 224.58L406.982 224.667C407.072 224.744 407.203 224.856 407.364 224.987C407.684 225.275 408.137 225.692 408.646 226.202C409.802 227.345 410.802 228.638 411.616 230.045C412.122 230.892 412.412 231.848 412.461 232.832C412.468 233.351 412.339 233.861 412.089 234.315C411.766 234.86 411.315 235.316 410.776 235.648C409.493 236.484 407.357 237.163 404.018 237.471C402.238 237.637 400.419 237.714 398.565 237.714C383.168 237.714 365.788 232.269 351.998 226.627C349.396 225.564 346.914 224.491 344.584 223.45C344.308 218.895 344.139 214.301 344.139 209.881C344.139 208.458 344.158 207.051 344.194 205.671C344.195 205.598 344.18 205.527 344.15 205.461C344.12 205.395 344.076 205.336 344.02 205.29L362.071 183.729L362.23 183.536C362.319 183.612 362.431 183.654 362.548 183.655Z" fill="#B6D7FF"/>
<path d="M362.529 182.695C363.013 182.695 363.492 182.676 364.001 182.676C365.544 182.676 367.136 182.737 368.745 182.835L369.028 183.816C367.315 183.7 365.631 183.636 364.001 183.636C363.514 183.636 363.039 183.636 362.552 183.655C362.434 183.656 362.321 183.615 362.231 183.54C362.147 183.471 362.09 183.375 362.07 183.268C362.068 183.24 362.068 183.212 362.07 183.184C362.067 183.146 362.067 183.108 362.07 183.07C362.093 182.965 362.151 182.87 362.235 182.802C362.318 182.735 362.421 182.697 362.529 182.695Z" fill="black"/>
<path d="M411.275 276.69L348.546 263.492C348.453 263.473 348.366 263.426 348.298 263.356C348.231 263.288 348.187 263.2 348.172 263.104C348.172 263.104 347.258 257.762 346.215 249.772C346.14 249.214 346.066 248.645 345.994 248.062L347.02 248.503C347.508 252.306 347.982 255.57 348.345 258.027C348.575 259.578 348.772 260.807 348.906 261.65C348.974 262.07 349.028 262.393 349.064 262.611L413.603 276.2C414.305 275.674 414.882 275.002 415.293 274.229C416.083 272.836 416.657 270.918 417.026 268.602C417.364 266.329 417.542 264.037 417.555 261.74L418.518 261.663C418.466 265.257 418.165 268.434 417.523 271.013C417.223 272.301 416.75 273.542 416.118 274.704C415.606 275.673 414.864 276.502 413.956 277.119C413.873 277.17 413.777 277.195 413.681 277.193H413.597L411.275 276.69Z" fill="black"/>
<path d="M344.203 205.668C344.167 207.049 344.148 208.455 344.148 209.877C344.148 214.298 344.318 218.892 344.594 223.447L343.603 222.998C343.343 218.593 343.185 214.157 343.185 209.864C343.185 208.433 343.203 207.022 343.24 205.63C343.243 205.502 343.297 205.382 343.39 205.294C343.482 205.206 343.606 205.158 343.735 205.162C343.862 205.165 343.983 205.219 344.07 205.312C344.158 205.405 344.206 205.528 344.203 205.655V205.668Z" fill="black"/>
<path d="M398.542 189.081C398.71 188.914 398.863 188.761 399.037 188.575C399.126 188.483 399.21 188.383 399.3 188.284C400.685 188.649 401.91 188.985 402.937 189.276C402.832 189.305 402.74 189.369 402.677 189.458C402.613 189.546 402.581 189.652 402.586 189.761C402.59 189.87 402.632 189.973 402.703 190.055C402.774 190.137 402.872 190.192 402.979 190.212L403.123 190.238V190.331C401.907 189.982 400.351 189.552 398.542 189.081Z" fill="black"/>
<path d="M372.278 188.088C371.789 187.869 371.352 187.549 370.994 187.15L364.027 162.908C363.995 162.797 363.924 162.701 363.828 162.638C363.731 162.576 363.615 162.55 363.501 162.565H363.456L363.269 162.581C363.103 162.581 362.856 162.602 362.552 162.602C361.346 162.602 360.147 162.428 358.991 162.084C357.37 161.611 355.893 160.743 354.693 159.557C354.494 159.338 354.356 159.074 354.288 158.788C354.178 158.354 354.129 157.908 354.138 157.462C354.203 155.788 354.51 154.134 355.049 152.547C355.721 150.421 356.573 148.356 357.592 146.371C358.965 143.65 360.637 141.091 362.581 138.741C362.647 138.847 362.721 138.953 362.798 139.061C363.918 140.631 366.08 142.441 370.157 143.735C369.947 145.187 369.84 146.653 369.836 148.12C369.836 151.913 370.683 154.629 371.844 156.581C372.78 158.156 374.082 159.483 375.638 160.45C375.982 160.699 376.258 161.029 376.441 161.412C376.733 161.981 376.955 162.585 377.102 163.209C377.491 165.003 377.667 166.838 377.625 168.674C377.599 172.649 377.025 176.601 375.917 180.42C375.57 181.574 375.388 182.773 375.379 183.979C375.352 185.955 375.938 187.891 377.057 189.52L376.788 189.469C375.233 189.198 373.717 188.734 372.278 188.088Z" fill="white"/>
<path d="M362.567 138.751C360.625 141.1 358.951 143.66 357.579 146.382C356.559 148.365 355.708 150.431 355.035 152.558C354.498 154.14 354.191 155.792 354.124 157.462C354.115 157.909 354.166 158.355 354.275 158.787C354.342 159.075 354.482 159.339 354.679 159.556C355.879 160.743 357.357 161.612 358.978 162.084C360.133 162.428 361.332 162.603 362.538 162.603C362.843 162.603 363.091 162.603 363.257 162.581L363.443 162.565H363.488C363.602 162.549 363.718 162.576 363.814 162.639C363.911 162.702 363.982 162.796 364.013 162.907L370.974 187.147C371.332 187.546 371.77 187.865 372.258 188.086C373.701 188.732 375.219 189.196 376.777 189.466L377.047 189.518C377.33 189.926 377.646 190.309 377.993 190.665C376.761 190.466 375.54 190.202 374.336 189.873C373.472 189.642 372.631 189.331 371.825 188.944C371.173 188.653 370.597 188.214 370.144 187.663C370.109 187.618 370.082 187.567 370.067 187.512L369.008 183.822L368.726 182.842L364.521 168.197L363.209 163.548C363.033 163.548 362.807 163.567 362.538 163.567C361.235 163.568 359.938 163.379 358.689 163.007C356.916 162.489 355.3 161.538 353.99 160.239C353.677 159.904 353.455 159.495 353.348 159.051C353.214 158.527 353.151 157.989 353.162 157.449C353.162 155.526 353.765 152.999 354.817 150.213C356.526 145.707 358.98 141.52 362.077 137.825C362.217 138.145 362.382 138.454 362.567 138.751Z" fill="black"/>
<path d="M391.691 162.852C393.662 164.566 395.764 166.12 397.978 167.504C401.741 169.919 405.456 171.879 406.591 172.469C406.591 172.469 406.592 172.501 406.575 172.52C406.492 172.796 406.367 173.199 406.2 173.705C405.879 174.711 405.356 176.124 404.666 177.725C403.294 180.929 401.19 184.895 398.334 187.918C396.432 189.937 394.206 191.532 391.643 192.246C390.022 192.714 388.343 192.958 386.655 192.973C383.511 192.973 380.939 192.012 379.153 190.433C378.246 189.623 377.525 188.626 377.041 187.512C376.555 186.398 376.317 185.193 376.342 183.978C376.349 182.86 376.516 181.749 376.839 180.679C377.972 176.776 378.56 172.736 378.588 168.673C378.601 167.183 378.495 165.695 378.267 164.224C378.108 163.092 377.769 161.994 377.263 160.969C377.003 160.443 376.613 159.992 376.131 159.658C374.701 158.771 373.507 157.554 372.647 156.109C371.585 154.319 370.773 151.791 370.773 148.14C370.782 146.582 370.91 145.028 371.155 143.492C371.173 143.377 371.148 143.26 371.086 143.163C371.025 143.065 370.929 142.993 370.818 142.959C366.648 141.701 364.589 139.942 363.572 138.523C363.042 137.825 362.696 137.006 362.565 136.14C362.677 136.031 362.844 135.877 363.062 135.681C363.495 135.297 364.124 134.759 364.907 134.16C366.793 132.682 368.873 131.469 371.088 130.553C372.697 129.895 374.414 129.541 376.153 129.509C377.716 129.495 379.258 129.865 380.644 130.588C382.186 131.443 383.466 132.698 384.352 134.221C385.371 135.947 386.139 137.81 386.63 139.753C387.739 143.847 388.108 148.492 388.278 152.247C388.39 154.748 388.416 156.849 388.526 158.162C388.645 159.008 388.987 159.806 389.516 160.476C390.155 161.342 390.884 162.139 391.691 162.852Z" fill="black"/>
<path d="M389.32 154.649C389.371 156.081 389.406 157.279 389.474 158.096C389.582 158.768 389.862 159.401 390.288 159.932C391.157 161.15 392.668 162.527 394.44 163.878C397.146 165.879 399.974 167.71 402.908 169.363C404.191 170.096 405.314 170.705 406.116 171.131L407.049 171.621L407.299 171.749L407.383 171.794C407.481 171.843 407.56 171.925 407.605 172.025C407.651 172.125 407.661 172.238 407.633 172.345C406.702 175.537 405.453 178.627 403.905 181.57C402.658 183.995 401.113 186.254 399.305 188.298C399.216 188.396 399.132 188.496 399.042 188.589C398.879 188.761 398.721 188.928 398.548 189.096C396.669 190.965 394.465 192.471 391.908 193.185C390.202 193.678 388.436 193.934 386.66 193.948C383.324 193.948 380.508 192.929 378.519 191.165C378.346 191.01 378.179 190.844 378.019 190.681C377.672 190.325 377.356 189.941 377.073 189.534C375.954 187.904 375.368 185.968 375.395 183.993C375.403 182.783 375.583 181.581 375.931 180.423C377.033 176.603 377.603 172.65 377.624 168.674C377.653 166.843 377.467 165.015 377.066 163.228C376.92 162.605 376.697 162.001 376.405 161.431C376.223 161.049 375.947 160.719 375.603 160.47C374.046 159.503 372.744 158.176 371.809 156.6C370.647 154.649 369.797 151.933 369.8 148.14C369.804 146.672 369.912 145.207 370.121 143.755C366.045 142.474 363.883 140.651 362.762 139.081C362.686 138.973 362.612 138.867 362.545 138.761C362.36 138.472 362.196 138.17 362.054 137.858C361.764 137.263 361.596 136.616 361.563 135.955C361.563 135.827 361.614 135.706 361.704 135.615C363.065 134.313 364.545 133.139 366.121 132.108C368.784 130.358 372.374 128.584 376.129 128.584C377.845 128.572 379.537 128.981 381.057 129.776C382.181 130.375 383.178 131.188 383.992 132.168C385.448 133.886 386.475 136.09 387.221 138.495C387.463 139.277 387.671 140.081 387.863 140.894C388.496 143.816 388.901 146.783 389.072 149.768C389.211 151.539 389.272 153.214 389.32 154.649ZM388.268 152.26C388.098 148.505 387.729 143.861 386.618 139.766C386.127 137.824 385.361 135.961 384.341 134.235C383.456 132.712 382.174 131.457 380.633 130.602C379.248 129.88 377.705 129.509 376.142 129.523C374.408 129.552 372.694 129.902 371.087 130.554C368.877 131.459 366.8 132.661 364.915 134.126C364.133 134.724 363.504 135.263 363.07 135.648C362.852 135.843 362.686 135.997 362.573 136.106C362.705 136.971 363.051 137.791 363.581 138.489C364.597 139.908 366.641 141.666 370.827 142.926C370.937 142.959 371.033 143.03 371.095 143.128C371.157 143.226 371.182 143.343 371.164 143.457C370.918 144.994 370.791 146.549 370.782 148.105C370.782 151.757 371.594 154.284 372.656 156.076C373.516 157.52 374.71 158.737 376.139 159.625C376.622 159.959 377.011 160.41 377.271 160.934C377.777 161.967 378.113 163.075 378.266 164.215C378.494 165.69 378.601 167.181 378.587 168.674C378.561 172.74 377.973 176.783 376.842 180.69C376.519 181.76 376.351 182.871 376.345 183.989C376.319 185.203 376.555 186.408 377.038 187.522C377.522 188.636 378.24 189.633 379.145 190.444C380.931 192.029 383.504 192.984 386.647 192.984C388.336 192.969 390.014 192.725 391.636 192.257C394.202 191.543 396.425 189.947 398.327 187.929C401.182 184.905 403.286 180.939 404.659 177.736C405.348 176.134 405.859 174.722 406.193 173.716C406.359 173.209 406.485 172.806 406.567 172.53C406.567 172.511 406.567 172.495 406.583 172.479C405.448 171.89 401.733 169.916 397.971 167.514C395.756 166.131 393.654 164.576 391.684 162.863C390.874 162.155 390.142 161.362 389.499 160.499C388.97 159.829 388.628 159.031 388.508 158.186C388.406 156.863 388.38 154.762 388.268 152.26Z" fill="black"/>
<path d="M309.539 221.704C308.412 221.195 307.21 220.871 305.979 220.744C305.761 220.744 305.536 220.744 305.308 220.744C304.007 220.776 302.71 220.883 301.421 221.064C300.188 221.24 298.947 221.348 297.703 221.384C297.203 221.395 296.704 221.35 296.214 221.249C295.858 221.185 295.523 221.039 295.233 220.823C295.082 220.701 294.96 220.545 294.877 220.369C294.799 220.219 294.755 220.053 294.749 219.885C294.748 219.758 294.786 219.634 294.858 219.529C294.951 219.393 295.073 219.279 295.214 219.193C295.611 218.956 296.045 218.787 296.497 218.69C297.78 218.559 298.742 218.411 298.922 218.386L302.174 218.235C302.237 218.232 302.3 218.217 302.357 218.19C302.415 218.163 302.466 218.125 302.508 218.079C302.551 218.032 302.584 217.977 302.605 217.917C302.627 217.859 302.636 217.796 302.633 217.732C302.63 217.669 302.615 217.607 302.588 217.55C302.561 217.493 302.523 217.442 302.476 217.399C302.43 217.357 302.375 217.323 302.315 217.302C302.256 217.281 302.192 217.271 302.13 217.274L298.857 217.428C298.804 217.428 298.315 217.428 297.661 217.514C297.222 217.564 296.786 217.639 296.356 217.739C295.138 217.871 293.914 217.943 292.689 217.953C292.051 217.959 291.414 217.922 290.78 217.845C290.332 217.801 289.892 217.684 289.482 217.499C289.35 217.443 289.238 217.349 289.161 217.229C289.108 217.139 289.078 217.036 289.074 216.931C289.077 216.843 289.105 216.758 289.155 216.685C289.23 216.57 289.327 216.471 289.44 216.394C289.778 216.158 290.148 215.975 290.54 215.849C291.147 215.647 291.771 215.497 292.404 215.403L299.304 214.581C299.367 214.573 299.428 214.553 299.483 214.522C299.539 214.49 299.588 214.449 299.627 214.398C299.666 214.348 299.696 214.291 299.713 214.231C299.73 214.169 299.735 214.105 299.727 214.042C299.72 213.979 299.7 213.917 299.669 213.863C299.637 213.807 299.595 213.758 299.545 213.719C299.495 213.68 299.438 213.651 299.377 213.633C299.315 213.616 299.251 213.611 299.188 213.619L292.359 214.433C291.673 214.29 290.975 214.223 290.274 214.231C289.456 214.231 288.641 214.298 287.871 214.365C287.101 214.433 286.38 214.494 285.761 214.494C285.352 214.504 284.945 214.46 284.548 214.362C284.291 214.303 284.059 214.162 283.89 213.958C283.783 213.809 283.714 213.635 283.689 213.453C283.683 213.393 283.683 213.333 283.689 213.273C283.689 213.084 283.753 212.899 283.871 212.751C284.035 212.551 284.236 212.388 284.464 212.267C285.129 211.931 285.843 211.7 286.578 211.585C287.693 211.385 288.824 211.278 289.956 211.265C290.027 211.265 290.097 211.25 290.161 211.22L295.826 210.81C295.954 210.801 296.073 210.742 296.157 210.646C296.241 210.551 296.284 210.425 296.276 210.297C296.267 210.17 296.208 210.051 296.112 209.967C296.016 209.883 295.89 209.841 295.763 209.849L289.411 210.278H289.344C289.097 210.278 288.786 210.3 288.429 210.329C287.478 210.392 286.533 210.536 285.606 210.758C284.982 210.903 284.383 211.139 283.829 211.46C283.592 211.601 283.376 211.776 283.188 211.979C283.112 211.929 283.023 211.899 282.931 211.893H282.912H282.832C282.737 211.882 282.642 211.865 282.549 211.841C282.313 211.787 282.093 211.678 281.908 211.521C281.798 211.424 281.722 211.294 281.693 211.149C281.703 211.052 281.737 210.961 281.793 210.88C281.921 210.683 282.077 210.506 282.257 210.355C282.987 209.774 283.811 209.325 284.695 209.029C287.088 208.131 291.146 207.343 297.633 207.309H297.767C304.151 207.309 310.537 209.872 315.41 212.51C317.573 213.687 319.665 214.991 321.671 216.418C319.962 217.943 317.854 220.522 315.378 224.885L314.801 224.52C313.121 223.448 311.363 222.507 309.539 221.704Z" fill="white"/>
<path d="M321.809 216.303L321.681 216.419C319.674 214.992 317.583 213.687 315.42 212.511C310.541 209.858 304.154 207.305 297.777 207.309H297.642C291.156 207.344 287.098 208.132 284.705 209.028C283.821 209.326 282.997 209.774 282.267 210.355C282.088 210.506 281.93 210.683 281.803 210.88C281.747 210.96 281.713 211.053 281.703 211.15C281.732 211.293 281.808 211.424 281.918 211.522C282.103 211.677 282.323 211.787 282.559 211.842C282.652 211.866 282.747 211.883 282.841 211.893H282.922H282.941C283.033 211.899 283.121 211.928 283.198 211.979C283.386 211.776 283.602 211.601 283.839 211.461C284.393 211.14 284.992 210.903 285.616 210.759C286.543 210.536 287.488 210.393 288.439 210.33C288.796 210.301 289.107 210.288 289.354 210.278C289.229 210.298 289.118 210.365 289.043 210.466C288.968 210.566 288.936 210.693 288.954 210.818C288.971 210.941 289.038 211.054 289.138 211.13C289.237 211.205 289.364 211.239 289.488 211.223L290.13 211.182C290.065 211.211 289.996 211.226 289.925 211.226C288.792 211.239 287.661 211.347 286.547 211.547C285.811 211.662 285.097 211.893 284.433 212.229C284.205 212.349 284.003 212.514 283.839 212.712C283.721 212.861 283.657 213.045 283.657 213.235C283.651 213.295 283.651 213.355 283.657 213.414C283.683 213.597 283.751 213.77 283.859 213.92C284.027 214.123 284.259 214.265 284.516 214.324C284.913 214.422 285.32 214.465 285.729 214.456C286.348 214.456 287.069 214.392 287.84 214.327C288.609 214.263 289.425 214.192 290.242 214.192C290.943 214.184 291.641 214.252 292.327 214.395H292.253C292.126 214.41 292.009 214.474 291.929 214.575C291.85 214.676 291.814 214.804 291.829 214.931C291.844 215.059 291.908 215.175 292.009 215.254C292.11 215.334 292.238 215.37 292.366 215.355C291.733 215.45 291.109 215.598 290.502 215.801C290.11 215.926 289.74 216.11 289.402 216.345C289.289 216.424 289.192 216.523 289.117 216.637C289.067 216.71 289.039 216.795 289.036 216.884C289.04 216.989 289.07 217.09 289.123 217.181C289.2 217.301 289.312 217.394 289.444 217.45C289.854 217.637 290.294 217.753 290.742 217.796C291.375 217.875 292.013 217.911 292.651 217.905C293.876 217.895 295.1 217.823 296.318 217.691C296.748 217.591 297.184 217.516 297.623 217.466C298.264 217.389 298.765 217.38 298.819 217.38C298.757 217.383 298.695 217.398 298.637 217.425C298.58 217.452 298.528 217.49 298.486 217.537C298.444 217.583 298.411 217.638 298.389 217.698C298.367 217.756 298.358 217.82 298.361 217.883C298.364 217.946 298.379 218.008 298.406 218.066C298.433 218.122 298.471 218.173 298.517 218.216C298.564 218.259 298.619 218.292 298.679 218.313C298.738 218.335 298.802 218.344 298.864 218.341H298.89C298.724 218.367 297.755 218.514 296.465 218.645C296.013 218.742 295.579 218.912 295.182 219.149C295.041 219.234 294.919 219.349 294.826 219.485C294.754 219.589 294.716 219.713 294.717 219.841C294.724 220.009 294.767 220.174 294.846 220.324C294.928 220.5 295.05 220.655 295.201 220.779C295.491 220.994 295.827 221.14 296.183 221.205C296.673 221.306 297.172 221.351 297.671 221.34C298.915 221.303 300.157 221.196 301.389 221.019C302.678 220.839 303.975 220.731 305.277 220.698C305.504 220.698 305.729 220.698 305.947 220.698C307.178 220.826 308.38 221.151 309.508 221.66C311.338 222.461 313.103 223.403 314.788 224.476L315.365 224.841C315.211 225.116 315.045 225.394 314.897 225.684C314.159 225.209 313.255 224.651 312.273 224.101C311.198 223.495 310.086 222.956 308.943 222.489C308.668 222.378 308.395 222.272 308.126 222.169C307.417 221.906 306.677 221.738 305.925 221.673C305.726 221.673 305.52 221.673 305.309 221.673C304.045 221.709 302.785 221.815 301.534 221.993C300.264 222.17 298.985 222.277 297.703 222.313C296.959 222.336 296.215 222.235 295.502 222.016C295.185 221.906 294.888 221.743 294.623 221.535C294.36 221.322 294.149 221.05 294.004 220.743C293.868 220.466 293.793 220.162 293.787 219.853C293.787 219.53 293.885 219.213 294.069 218.946C294.094 218.908 294.13 218.879 294.159 218.84C293.665 218.866 293.164 218.882 292.677 218.882C291.797 218.891 290.918 218.812 290.053 218.645C289.699 218.575 289.356 218.457 289.033 218.296C288.728 218.15 288.476 217.915 288.311 217.62C288.187 217.393 288.12 217.139 288.115 216.88C288.118 216.603 288.202 216.332 288.356 216.102C288.625 215.73 288.985 215.434 289.402 215.24C289.456 215.211 289.51 215.192 289.565 215.167C289.03 215.189 288.491 215.23 287.961 215.275C287.195 215.343 286.45 215.41 285.771 215.41C285.112 215.443 284.454 215.328 283.846 215.074C283.562 214.94 283.314 214.74 283.124 214.49C282.857 214.123 282.712 213.683 282.71 213.229C282.707 213.182 282.707 213.134 282.71 213.087C282.716 213.006 282.728 212.924 282.746 212.844C282.488 212.815 282.234 212.755 281.992 212.664C281.724 212.568 281.477 212.421 281.264 212.233C281.006 212 280.829 211.693 280.756 211.354C280.741 211.284 280.733 211.212 280.734 211.14C280.743 210.869 280.825 210.606 280.972 210.378C281.341 209.829 281.835 209.375 282.412 209.051C283.483 208.385 285.136 207.725 287.596 207.219C290.057 206.713 293.325 206.364 297.629 206.338H297.771C304.625 206.338 311.339 209.138 316.353 211.919C318.457 213.081 320.492 214.365 322.448 215.762C322.236 215.935 322.024 216.116 321.809 216.303Z" fill="black"/>
<path d="M403.123 190.239C405.452 190.749 407.734 191.456 409.942 192.353C413.529 193.76 416.996 195.452 420.31 197.414C427.784 201.835 435.804 208.415 441.01 217.57C444.805 224.242 446.771 231.795 446.714 239.468C446.714 240.307 446.691 241.161 446.646 242.031C446.533 245.138 445.458 248.133 443.566 250.603C441.735 252.998 439.13 254.959 435.89 256.513C429.414 259.617 420.404 261.055 410.158 261.052C385.516 261.052 353.734 252.768 332.482 240.144C325.515 236.005 319.683 231.405 315.603 226.504C318.381 221.378 320.7 218.556 322.451 217.031C324.203 215.507 325.412 215.273 325.942 215.273C326.049 215.271 326.157 215.282 326.262 215.305C334.042 219.671 342.075 223.569 350.321 226.978C364.37 232.818 382.436 238.677 398.574 238.68C400.448 238.68 402.296 238.603 404.105 238.433C406.671 238.196 408.596 237.747 410.039 237.129C411.482 236.511 412.406 235.72 412.925 234.788C413.257 234.191 413.429 233.519 413.423 232.837C413.376 231.692 413.045 230.577 412.461 229.592C411.883 228.562 411.196 227.595 410.415 226.709C409.507 225.668 408.52 224.697 407.464 223.807C407.414 223.766 407.356 223.735 407.294 223.718C407.232 223.7 407.168 223.695 407.104 223.704L403.133 190.322L403.123 190.239Z" fill="#B6D7FF"/>
<path d="M417.554 261.74C415.174 261.919 412.701 262.009 410.158 262.009C393.59 262.009 373.91 258.309 356.267 252.078C353.109 250.959 350.026 249.764 347.02 248.49L345.993 248.049C344.772 247.521 343.567 246.979 342.378 246.424C338.718 244.714 335.234 242.901 331.989 240.963C324.838 236.719 318.836 231.994 314.65 226.868C314.589 226.795 314.551 226.705 314.542 226.61C314.533 226.515 314.553 226.42 314.599 226.336C314.66 226.221 314.721 226.112 314.785 225.996L314.929 225.734C315.087 225.446 315.25 225.167 315.398 224.891C317.874 220.528 319.981 217.949 321.692 216.425L321.819 216.31C322.034 216.121 322.247 215.949 322.461 215.79C324.065 214.577 325.239 214.31 325.948 214.314C326.185 214.307 326.42 214.343 326.644 214.42L326.705 214.449L326.817 214.516C327.741 215.047 334.217 218.728 343.61 223.005L344.585 223.45C346.904 224.494 349.397 225.567 351.998 226.635C365.792 232.272 383.155 237.724 398.565 237.721C400.409 237.721 402.228 237.644 404.018 237.478C407.357 237.158 409.51 236.49 410.777 235.655C411.316 235.324 411.766 234.866 412.088 234.322C412.34 233.869 412.468 233.357 412.461 232.839C412.412 231.855 412.122 230.898 411.617 230.052C410.802 228.645 409.803 227.353 408.647 226.208C408.146 225.699 407.685 225.282 407.364 224.994C407.204 224.849 407.072 224.738 406.982 224.674L406.88 224.587L406.854 224.568C406.755 224.487 406.693 224.371 406.679 224.244C406.666 224.118 406.703 223.992 406.783 223.892C406.823 223.843 406.872 223.803 406.926 223.773C406.981 223.743 407.042 223.726 407.104 223.72C407.168 223.711 407.232 223.715 407.294 223.732C407.356 223.75 407.414 223.78 407.463 223.821C408.52 224.712 409.507 225.682 410.414 226.724C411.196 227.61 411.883 228.576 412.461 229.607C413.045 230.593 413.376 231.708 413.423 232.851C413.429 233.534 413.258 234.206 412.926 234.803C412.406 235.734 411.466 236.529 410.039 237.145C408.612 237.759 406.677 238.211 404.105 238.448C402.296 238.617 400.448 238.694 398.574 238.694C382.44 238.694 364.37 232.832 350.314 226.99C342.069 223.581 334.035 219.683 326.256 215.317C326.151 215.294 326.043 215.283 325.935 215.285C325.405 215.285 324.231 215.493 322.445 217.043C320.658 218.594 318.375 221.39 315.597 226.516C319.676 231.416 325.508 236.017 332.476 240.155C353.727 252.779 385.509 261.07 410.151 261.064C420.397 261.064 429.398 259.629 435.884 256.524C439.124 254.97 441.728 253.001 443.56 250.614C445.451 248.144 446.527 245.149 446.639 242.042C446.684 241.177 446.707 240.323 446.707 239.479C446.766 231.805 444.799 224.251 441.004 217.578C435.797 208.423 427.777 201.844 420.304 197.423C416.99 195.46 413.523 193.768 409.937 192.362C407.728 191.464 405.446 190.757 403.117 190.248L402.973 190.222C402.865 190.202 402.768 190.147 402.696 190.065C402.626 189.982 402.584 189.879 402.579 189.771C402.574 189.662 402.607 189.556 402.671 189.467C402.734 189.379 402.826 189.315 402.931 189.286C403 189.27 403.072 189.27 403.142 189.286C405.211 189.638 408.997 190.776 413.552 192.823C420.365 195.888 428.882 200.994 435.714 208.615C438.471 211.671 440.829 215.063 442.729 218.712C446.031 225.131 447.728 232.251 447.676 239.467C447.676 240.322 447.653 241.193 447.608 242.074C447.486 245.373 446.347 248.554 444.346 251.181C441.42 254.999 436.734 257.697 430.873 259.449C426.846 260.599 422.713 261.341 418.536 261.663L417.554 261.74Z" fill="black"/>
<path d="M155.459 345.137C154.035 345.848 152.594 346.52 151.138 347.154C152.594 346.518 154.035 345.846 155.459 345.137Z" fill="black"/>
<path d="M332.174 293.709H332.19L343.353 284.119C343.45 284.034 343.577 283.991 343.705 283.999C343.834 284.008 343.955 284.067 344.039 284.164C344.124 284.26 344.168 284.387 344.159 284.516C344.151 284.644 344.091 284.764 343.995 284.85L333.358 293.96L332.8 294.437C332.71 294.514 332.594 294.555 332.476 294.552C332.357 294.549 332.243 294.502 332.158 294.42C332.144 294.41 332.131 294.399 332.12 294.385C332.078 294.338 332.047 294.283 332.027 294.222C332.008 294.162 332 294.099 332.005 294.036C332.011 293.974 332.028 293.912 332.057 293.856C332.086 293.8 332.126 293.75 332.174 293.709Z" fill="white"/>
<path d="M217.218 340.613L221.086 346.2C221.126 346.251 221.156 346.31 221.172 346.374C221.188 346.437 221.192 346.503 221.182 346.566C221.172 346.631 221.149 346.693 221.114 346.749C221.08 346.804 221.035 346.852 220.981 346.889C220.927 346.926 220.867 346.951 220.802 346.965C220.739 346.978 220.673 346.978 220.609 346.964C220.545 346.951 220.484 346.926 220.431 346.889C220.378 346.851 220.332 346.803 220.297 346.748L216.176 340.818L215.586 339.966L215.236 339.463C215.196 339.411 215.167 339.352 215.15 339.29C215.134 339.227 215.13 339.161 215.14 339.096C215.15 339.031 215.173 338.969 215.208 338.915C215.243 338.859 215.288 338.812 215.341 338.774C215.395 338.737 215.456 338.711 215.52 338.698C215.584 338.685 215.649 338.685 215.713 338.698C215.777 338.711 215.838 338.737 215.892 338.775C215.945 338.812 215.99 338.86 216.025 338.916L216.608 339.751L217.218 340.613Z" fill="black"/>
<path d="M207.27 344.216L209.515 348.326C209.548 348.381 209.57 348.443 209.578 348.507C209.587 348.57 209.582 348.635 209.565 348.698C209.548 348.76 209.518 348.818 209.478 348.869C209.438 348.918 209.388 348.96 209.331 348.991C209.276 349.023 209.213 349.042 209.149 349.048C209.084 349.055 209.019 349.048 208.959 349.029C208.897 349.01 208.84 348.979 208.79 348.937C208.741 348.896 208.701 348.845 208.672 348.787L206.426 344.693L205.965 343.85L205.534 343.063C205.473 342.951 205.459 342.819 205.495 342.697C205.531 342.574 205.615 342.47 205.727 342.409C205.839 342.349 205.972 342.334 206.094 342.371C206.217 342.406 206.32 342.489 206.381 342.602L206.802 343.374L207.27 344.216Z" fill="black"/>
<path d="M511.387 358.133C511.417 358.075 511.458 358.023 511.508 357.982C511.558 357.94 511.616 357.909 511.679 357.891C511.741 357.873 511.807 357.867 511.871 357.875C511.936 357.882 511.998 357.903 512.055 357.934C512.111 357.967 512.161 358.01 512.2 358.062C512.239 358.114 512.267 358.174 512.283 358.237C512.298 358.299 512.301 358.365 512.29 358.429C512.28 358.494 512.256 358.555 512.221 358.61L510.37 361.836L510.277 361.999C510.246 362.054 510.204 362.102 510.154 362.141C510.104 362.18 510.046 362.209 509.985 362.225C509.924 362.242 509.86 362.247 509.798 362.239C509.735 362.23 509.674 362.21 509.619 362.179C509.55 362.138 509.492 362.081 509.45 362.013C509.408 361.944 509.384 361.868 509.379 361.788C509.372 361.695 509.393 361.602 509.439 361.522L511.387 358.133Z" fill="black"/>
<path d="M499.564 359.804L502.727 355.697C502.764 355.643 502.812 355.597 502.866 355.562C502.922 355.527 502.984 355.503 503.049 355.493C503.114 355.482 503.18 355.485 503.244 355.502C503.308 355.518 503.368 355.547 503.42 355.587C503.471 355.626 503.514 355.677 503.546 355.734C503.578 355.792 503.598 355.855 503.604 355.921C503.611 355.985 503.603 356.051 503.583 356.114C503.563 356.177 503.53 356.235 503.487 356.284L500.449 360.234L499.843 361.022L499.073 362.018L498.477 362.79C498.44 362.844 498.392 362.89 498.336 362.925C498.282 362.96 498.22 362.984 498.154 362.994C498.089 363.005 498.023 363.002 497.96 362.985C497.896 362.969 497.836 362.94 497.784 362.9C497.732 362.861 497.69 362.81 497.658 362.753C497.626 362.695 497.606 362.632 497.6 362.566C497.593 362.502 497.6 362.436 497.621 362.373C497.641 362.31 497.674 362.253 497.716 362.203L497.861 362.018L498.974 360.573L499.564 359.804Z" fill="black"/>
<path d="M302.621 217.684C302.625 217.747 302.615 217.81 302.594 217.87C302.572 217.929 302.539 217.984 302.497 218.03C302.454 218.077 302.403 218.115 302.345 218.142C302.288 218.169 302.227 218.184 302.163 218.187L298.911 218.338H298.885C298.757 218.344 298.632 218.299 298.538 218.213C298.443 218.126 298.387 218.006 298.381 217.88C298.375 217.752 298.42 217.627 298.506 217.533C298.593 217.439 298.712 217.382 298.84 217.376L302.112 217.223C302.176 217.219 302.239 217.228 302.3 217.25C302.361 217.27 302.416 217.303 302.464 217.346C302.512 217.389 302.549 217.441 302.577 217.499C302.604 217.558 302.619 217.621 302.621 217.684Z" fill="black"/>
<path d="M299.721 214.004C299.729 214.067 299.724 214.13 299.707 214.19C299.69 214.251 299.661 214.308 299.622 214.357C299.582 214.407 299.535 214.448 299.48 214.478C299.424 214.509 299.364 214.528 299.301 214.535L292.401 215.359C292.274 215.374 292.145 215.337 292.044 215.257C291.944 215.179 291.879 215.062 291.864 214.934C291.849 214.808 291.886 214.679 291.965 214.578C292.044 214.477 292.161 214.413 292.289 214.398H292.362L299.192 213.585C299.317 213.571 299.444 213.608 299.542 213.686C299.642 213.764 299.706 213.879 299.721 214.004Z" fill="black"/>
<path d="M295.76 209.853C295.823 209.849 295.887 209.857 295.947 209.876C296.006 209.896 296.062 209.928 296.11 209.97C296.157 210.012 296.197 210.063 296.225 210.119C296.252 210.176 296.269 210.238 296.273 210.3C296.277 210.364 296.269 210.427 296.249 210.487C296.229 210.547 296.197 210.602 296.155 210.649C296.113 210.697 296.062 210.736 296.006 210.764C295.949 210.792 295.888 210.809 295.824 210.813L290.143 211.198L289.502 211.239C289.377 211.255 289.251 211.222 289.151 211.146C289.051 211.069 288.985 210.958 288.968 210.833C288.95 210.709 288.982 210.583 289.056 210.482C289.131 210.381 289.243 210.313 289.367 210.294H289.434L295.76 209.853Z" fill="black"/>
<path d="M585.47 362.018H81.6264" stroke="black" stroke-linejoin="round"/>
<path d="M166.349 41.3242H245.048C248.993 41.3342 252.783 42.8629 255.633 45.5937C258.483 48.3243 260.174 52.0478 260.357 55.9928H176.211C176.074 52.876 175.082 49.8572 173.342 47.269C171.601 44.6809 169.181 42.6237 166.349 41.3242Z" fill="white"/>
<path d="M261.136 57.5112H245.792V56.7524C245.792 56.5512 245.712 56.3582 245.57 56.2159C245.427 56.0737 245.235 55.9937 245.033 55.9937H260.359C260.175 52.0487 258.484 48.3252 255.633 45.5945C252.784 42.8638 248.994 41.3351 245.049 41.325H166.35C164.165 40.3229 161.79 39.8052 159.387 39.8076H245.049C247.266 39.8129 249.461 40.2554 251.508 41.1098C253.554 41.9643 255.413 43.2139 256.977 44.7874C258.542 46.3609 259.781 48.2274 260.625 50.2804C261.468 52.3333 261.899 54.5326 261.894 56.7524C261.892 56.9534 261.813 57.1459 261.672 57.2887C261.53 57.431 261.337 57.5111 261.136 57.5112Z" fill="#1A1A1A"/>
<path d="M144.062 56.7518C144.053 52.6633 145.667 48.7388 148.548 45.8414C149.969 44.4102 151.657 43.2744 153.517 42.4993C155.377 41.7242 157.372 41.3252 159.386 41.3252C161.402 41.3252 163.396 41.7242 165.256 42.4993C167.116 43.2744 168.804 44.4102 170.224 45.8414C173.105 48.7395 174.721 52.6632 174.716 56.7518C174.716 56.8511 174.734 56.9496 174.771 57.0416C174.808 57.1336 174.864 57.2173 174.933 57.288C175.077 57.4306 175.272 57.5106 175.474 57.5105H244.275V172.922C244.281 174.943 243.89 176.944 243.122 178.813C242.356 180.682 241.228 182.38 239.805 183.812C238.382 185.245 236.69 186.382 234.829 187.16C232.966 187.938 230.968 188.341 228.951 188.345H144.067V56.7518H144.062ZM160.594 161.997H233.564C234.511 161.997 235.42 161.62 236.089 160.949C236.759 160.279 237.136 159.37 237.136 158.421C237.136 157.473 236.759 156.563 236.089 155.892C235.42 155.222 234.511 154.845 233.564 154.845H160.594C159.647 154.845 158.739 155.222 158.068 155.892C157.398 156.563 157.022 157.473 157.022 158.421C157.022 159.37 157.398 160.279 158.068 160.949C158.739 161.62 159.647 161.997 160.594 161.997ZM160.594 145.598H233.564C234.511 145.598 235.42 145.221 236.089 144.551C236.759 143.88 237.136 142.971 237.136 142.022C237.136 141.074 236.759 140.164 236.089 139.493C235.42 138.823 234.511 138.446 233.564 138.446H160.594C159.647 138.446 158.739 138.823 158.068 139.493C157.398 140.164 157.022 141.074 157.022 142.022C157.022 142.971 157.398 143.88 158.068 144.551C158.739 145.221 159.647 145.598 160.594 145.598ZM160.594 129.2H233.564C234.511 129.2 235.42 128.823 236.089 128.153C236.759 127.481 237.136 126.572 237.136 125.623C237.136 124.675 236.759 123.766 236.089 123.095C235.42 122.424 234.511 122.047 233.564 122.047H160.594C159.647 122.047 158.739 122.424 158.068 123.095C157.398 123.766 157.022 124.675 157.022 125.623C157.022 126.572 157.398 127.481 158.068 128.153C158.739 128.823 159.647 129.2 160.594 129.2Z" fill="white"/>
<path d="M166.349 41.325C169.182 42.6246 171.602 44.6817 173.343 47.2699C175.083 49.858 176.075 52.8768 176.212 55.9937H245.048C245.249 55.9937 245.442 56.0737 245.584 56.2159C245.726 56.3582 245.807 56.5512 245.807 56.7524V172.923C245.812 175.143 245.38 177.341 244.537 179.393C243.694 181.445 242.455 183.311 240.891 184.885C239.327 186.458 237.469 187.707 235.423 188.561C233.377 189.415 231.183 189.857 228.965 189.863H143.304C143.504 189.861 143.697 189.781 143.839 189.641C143.982 189.498 144.061 189.306 144.061 189.104V188.345H228.945C230.964 188.341 232.962 187.94 234.825 187.162C236.688 186.385 238.379 185.247 239.803 183.815C241.227 182.383 242.355 180.684 243.121 178.815C243.889 176.946 244.282 174.943 244.276 172.923V57.5111H175.459C175.256 57.5112 175.062 57.4313 174.918 57.2887C174.849 57.218 174.794 57.1343 174.756 57.0422C174.719 56.9502 174.7 56.8518 174.701 56.7524C174.705 52.6637 173.09 48.7401 170.209 45.842C168.79 44.4108 167.101 43.275 165.241 42.4999C163.381 41.7248 161.386 41.3257 159.372 41.3257C157.356 41.3257 155.362 41.7248 153.501 42.4999C151.641 43.275 149.953 44.4108 148.534 45.842C145.652 48.7394 144.039 52.6639 144.047 56.7524V172.923C144.047 172.722 143.967 172.529 143.824 172.387C143.682 172.246 143.489 172.166 143.289 172.164H142.531V56.7524C142.525 54.5311 142.956 52.3303 143.801 50.2761C144.646 48.2218 145.886 46.3544 147.452 44.7805C149.018 43.2068 150.879 41.9575 152.927 41.1041C154.976 40.2509 157.173 39.8103 159.392 39.8076C161.793 39.806 164.166 40.3236 166.349 41.325Z" fill="#1A1A1A"/>
<path d="M142.546 173.682V188.325C138.738 188.127 135.139 186.518 132.45 183.813C129.76 181.106 128.172 177.495 127.994 173.682H142.546Z" fill="white"/>
<path d="M143.839 172.387C143.982 172.529 144.062 172.722 144.062 172.923V189.109C144.062 189.311 143.982 189.503 143.839 189.646C143.697 189.786 143.504 189.867 143.304 189.868C141.086 189.863 138.892 189.421 136.845 188.568C134.798 187.714 132.94 186.465 131.376 184.892C129.812 183.318 128.572 181.452 127.729 179.4C126.884 177.347 126.453 175.148 126.459 172.928C126.459 172.727 126.539 172.534 126.68 172.391C126.823 172.25 127.015 172.17 127.216 172.17H143.304C143.503 172.169 143.696 172.248 143.839 172.387ZM142.546 188.325V173.682H127.995C128.172 177.495 129.76 181.106 132.45 183.813C135.139 186.518 138.737 188.127 142.546 188.325Z" fill="#1A1A1A"/>
<path d="M178.01 92.6729L191.749 100.626L179.076 115.814L177.381 105.446L167.152 105.711L178.01 92.6729Z" fill="#B6D7FF"/>
<path d="M200.905 103.617L209.962 90.5693L224.029 104.473L213.568 105.303L212.984 115.53L200.905 103.617Z" fill="#B6D7FF"/>
<path d="M174.804 86.1116C174.804 81.2655 176.578 76.5874 179.79 72.9624C183.004 69.3376 187.432 67.0176 192.238 66.4414C188.011 67.7088 184.306 70.3072 181.67 73.8507C179.035 77.3942 177.613 81.694 177.613 86.1116C177.613 90.5291 179.035 94.8289 181.67 98.3725C184.306 101.916 188.011 104.515 192.238 105.782C187.433 105.205 183.005 102.884 179.791 99.2596C176.579 95.635 174.805 90.9574 174.804 86.1116Z" fill="black"/>
<path d="M192.251 66.4408C187.442 67.0135 183.009 69.3321 179.794 72.9573C176.578 76.5825 174.802 81.2626 174.802 86.111C174.802 90.9595 176.578 95.6396 179.794 99.2648C183.009 102.89 187.442 105.208 192.251 105.782C193.592 106.181 194.972 106.442 196.366 106.56C195.783 106.61 195.196 106.642 194.601 106.642C189.162 106.642 183.946 104.479 180.1 100.629C176.254 96.7782 174.093 91.5561 174.093 86.111C174.093 80.6659 176.254 75.4438 180.1 71.5935C183.946 67.7432 189.162 65.5801 194.601 65.5801C195.196 65.5801 195.783 65.6112 196.366 65.6591C194.972 65.7772 193.592 66.0392 192.251 66.4408Z" fill="black"/>
<path d="M212.123 72.0997C215.361 75.3412 217.378 79.6066 217.826 84.1692C218.276 88.7316 217.131 93.3089 214.587 97.1211C212.042 100.933 208.257 103.744 203.874 105.076C199.492 106.407 194.785 106.176 190.554 104.42C186.323 102.666 182.83 99.4978 180.671 95.4547C178.512 91.4114 177.821 86.744 178.714 82.2475C179.607 77.7508 182.03 73.7035 185.57 70.7951C189.11 67.8866 193.549 66.2969 198.128 66.2969C200.728 66.2931 203.302 66.8038 205.704 67.7997C208.105 68.7955 210.287 70.2569 212.123 72.0997ZM180.956 86.1105C180.956 89.5111 181.963 92.8353 183.851 95.6628C185.738 98.4902 188.42 100.694 191.558 101.995C194.697 103.296 198.15 103.637 201.481 102.973C204.813 102.309 207.873 100.672 210.275 98.267C212.676 95.8624 214.312 92.7986 214.975 89.4633C215.638 86.128 215.297 82.6709 213.996 79.5293C212.696 76.3877 210.495 73.7027 207.67 71.8138C204.845 69.9248 201.524 68.9169 198.128 68.9174C195.873 68.9174 193.639 69.3621 191.556 70.2262C189.472 71.0902 187.579 72.3567 185.985 73.9533C184.39 75.5498 183.125 77.4452 182.262 79.5311C181.4 81.6171 180.955 83.8528 180.956 86.1105Z" fill="white"/>
<path d="M198.128 106.642C197.533 106.642 196.934 106.61 196.363 106.56C191.247 106.121 186.483 103.775 183.012 99.9886C179.54 96.2023 177.615 91.2496 177.615 86.1098C177.615 80.9701 179.54 76.0173 183.012 72.2307C186.483 68.444 191.247 66.0989 196.363 65.6591C196.946 65.6112 197.533 65.5801 198.128 65.5801C203.567 65.5801 208.783 67.7432 212.63 71.5935C216.476 75.4438 218.636 80.6659 218.636 86.111C218.636 91.5561 216.476 96.7782 212.63 100.629C208.783 104.479 203.567 106.642 198.128 106.642ZM198.128 66.2974C193.55 66.2979 189.113 67.8875 185.574 70.7954C182.035 73.7034 179.613 77.7497 178.72 82.2451C177.828 86.7404 178.52 91.4065 180.677 95.4486C182.836 99.4906 186.328 102.658 190.558 104.412C194.788 106.166 199.494 106.397 203.875 105.067C208.256 103.736 212.041 100.926 214.584 97.1149C217.128 93.304 218.273 88.728 217.823 84.1668C217.375 79.6055 215.361 75.3411 212.123 72.1002C210.287 70.2576 208.106 68.7964 205.704 67.8006C203.303 66.8047 200.727 66.2939 198.128 66.2974Z" fill="black"/>
<path d="M193.398 91.2036C193.399 90.0103 193.85 88.8614 194.661 87.9867C195.471 87.112 196.582 86.5762 197.771 86.4863V95.9209C196.581 95.8322 195.47 95.2967 194.659 94.4218C193.849 93.5469 193.398 92.3972 193.398 91.2036Z" fill="white"/>
<path d="M202.86 81.0161C202.862 82.21 202.412 83.3603 201.601 84.2355C200.789 85.1106 199.677 85.6458 198.488 85.7334V76.2988C199.677 76.3864 200.789 76.9216 201.601 77.7968C202.412 78.6719 202.862 79.8221 202.86 81.0161Z" fill="white"/>
<path d="M186.492 74.4593C189.184 71.7638 192.726 70.0862 196.516 69.7123C200.305 69.3384 204.107 70.2914 207.272 72.4089C210.439 74.5263 212.773 77.6772 213.878 81.3248C214.985 84.9723 214.792 88.8908 213.335 92.4126C211.879 95.9343 209.248 98.8413 205.89 100.638C202.532 102.435 198.655 103.012 194.921 102.269C191.187 101.525 187.825 99.5084 185.409 96.562C182.994 93.6157 181.673 89.922 181.672 86.1103C181.669 83.9461 182.093 81.8026 182.92 79.8031C183.747 77.8036 184.961 75.9875 186.492 74.4593ZM192.68 91.1958C192.681 92.5799 193.206 93.912 194.151 94.9221C195.097 95.9323 196.39 96.5447 197.77 96.6351V98.5933C197.77 98.6885 197.808 98.7796 197.874 98.8469C197.941 98.9141 198.033 98.9519 198.128 98.9519C198.223 98.9519 198.314 98.9141 198.381 98.8469C198.448 98.7796 198.486 98.6885 198.486 98.5933V96.6351C199.866 96.5447 201.159 95.9323 202.104 94.9221C203.049 93.912 203.576 92.5799 203.576 91.1958C203.576 91.1007 203.538 91.0094 203.471 90.9422C203.403 90.8749 203.312 90.8372 203.217 90.8372C203.122 90.8372 203.031 90.8749 202.964 90.9422C202.897 91.0094 202.859 91.1007 202.859 91.1958C202.86 92.3897 202.41 93.5399 201.599 94.4151C200.788 95.2902 199.675 95.8255 198.486 95.9131V86.4546C199.865 86.363 201.158 85.7501 202.101 84.7401C203.045 83.7302 203.571 82.3985 203.571 81.0152C203.571 79.6319 203.045 78.3003 202.101 77.2903C201.158 76.2803 199.865 75.6674 198.486 75.5758V73.6177C198.486 73.5226 198.448 73.4313 198.381 73.3641C198.314 73.2968 198.223 73.259 198.128 73.259C198.033 73.259 197.941 73.2968 197.874 73.3641C197.808 73.4313 197.77 73.5226 197.77 73.6177V75.5758C196.39 75.6663 195.097 76.2787 194.151 77.2888C193.206 78.2989 192.681 79.6312 192.68 81.0152C192.68 81.1104 192.717 81.2015 192.785 81.2689C192.852 81.3361 192.944 81.3739 193.038 81.3739C193.133 81.3739 193.225 81.3361 193.292 81.2689C193.358 81.2015 193.396 81.1104 193.396 81.0152C193.395 79.8212 193.846 78.671 194.657 77.7959C195.468 76.9207 196.58 76.3855 197.77 76.2979V85.7636C196.39 85.854 195.097 86.4664 194.151 87.4766C193.206 88.4867 192.681 89.8189 192.68 91.203V91.1958Z" fill="white"/>
<mask id="mask0_197_4679" style="mask-type:alpha" maskUnits="userSpaceOnUse" x="180" y="68" width="36" height="36">
<path d="M215.302 86.1102C215.302 89.5107 214.294 92.8348 212.407 95.6622C210.52 98.4896 207.837 100.693 204.7 101.994C201.561 103.296 198.108 103.636 194.777 102.973C191.445 102.31 188.385 100.672 185.983 98.2675C183.581 95.8631 181.945 92.7995 181.283 89.4644C180.621 86.1293 180.96 82.6723 182.26 79.5307C183.56 76.389 185.762 73.7038 188.585 71.8146C191.41 69.9254 194.731 68.917 198.128 68.917C202.683 68.917 207.05 70.7285 210.271 73.9528C213.492 77.1771 215.302 81.5503 215.302 86.1102ZM198.128 102.584C201.934 102.584 205.624 101.262 208.566 98.8442C211.509 96.4264 213.524 93.0619 214.266 89.3239C215.009 85.5859 214.434 81.7057 212.64 78.3445C210.844 74.9833 207.941 72.349 204.424 70.8907C200.906 69.4322 196.993 69.2397 193.35 70.3461C189.707 71.4524 186.56 73.7892 184.445 76.9581C182.33 80.127 181.378 83.9321 181.751 87.725C182.124 91.5178 183.799 95.0639 186.491 97.7587C188.018 99.2909 189.831 100.506 191.828 101.334C193.825 102.162 195.966 102.587 198.128 102.584Z" fill="white"/>
</mask>
<g mask="url(#mask0_197_4679)">
<path d="M215.302 86.1102C215.302 89.5107 214.294 92.8348 212.407 95.6622C210.52 98.4896 207.837 100.693 204.7 101.994C201.561 103.296 198.108 103.636 194.777 102.973C191.445 102.31 188.385 100.672 185.983 98.2675C183.581 95.8631 181.945 92.7995 181.283 89.4644C180.621 86.1293 180.96 82.6723 182.26 79.5307C183.56 76.389 185.762 73.7038 188.585 71.8146C191.41 69.9254 194.731 68.917 198.128 68.917C202.683 68.917 207.05 70.7285 210.271 73.9528C213.492 77.1771 215.302 81.5503 215.302 86.1102ZM198.128 102.584C201.934 102.584 205.624 101.262 208.566 98.8442C211.509 96.4264 213.524 93.0619 214.266 89.3239C215.009 85.5859 214.434 81.7057 212.64 78.3445C210.844 74.9833 207.941 72.349 204.424 70.8907C200.906 69.4322 196.993 69.2397 193.35 70.3461C189.707 71.4524 186.56 73.7892 184.445 76.9581C182.33 80.127 181.378 83.9321 181.751 87.725C182.124 91.5178 183.799 95.0639 186.491 97.7587C188.018 99.2909 189.831 100.506 191.828 101.334C193.825 102.162 195.966 102.587 198.128 102.584Z" fill="black"/>
<path d="M198.128 68.9162V67.9189V68.9162ZM186.492 97.7579L187.197 97.053V97.054L186.492 97.7579ZM191.829 101.333L191.447 102.254L191.829 101.333ZM216.299 86.1094C216.299 89.707 215.232 93.2238 213.236 96.2152L211.578 95.1075C213.357 92.4442 214.305 89.3127 214.305 86.1094H216.299ZM213.236 96.2152C211.24 99.2066 208.402 101.538 205.081 102.915L204.318 101.072C207.275 99.8466 209.801 97.771 211.578 95.1075L213.236 96.2152ZM205.081 102.915C201.761 104.292 198.107 104.652 194.583 103.95L194.971 101.994C198.11 102.619 201.362 102.298 204.318 101.072L205.081 102.915ZM194.583 103.95C191.057 103.248 187.82 101.516 185.279 98.9718L186.689 97.5618C188.951 99.8266 191.834 101.369 194.971 101.994L194.583 103.95ZM185.279 98.9718C182.737 96.4277 181.007 93.1865 180.306 89.6581L182.261 89.2691C182.885 92.411 184.426 95.2968 186.689 97.5618L185.279 98.9718ZM180.306 89.6581C179.604 86.1296 179.964 82.4722 181.34 79.1484L183.181 79.9113C181.957 82.8708 181.637 86.1274 182.261 89.2691L180.306 89.6581ZM181.34 79.1484C182.715 75.8246 185.044 72.9836 188.032 70.9848L189.14 72.6428C186.48 74.4224 184.406 76.9519 183.181 79.9113L181.34 79.1484ZM188.032 70.9848C191.021 68.9859 194.534 67.9189 198.128 67.9189V69.9135C194.928 69.9135 191.8 70.8633 189.14 72.6428L188.032 70.9848ZM198.128 67.9189C202.947 67.9189 207.569 69.8356 210.976 73.2471L209.566 74.657C206.533 71.6197 202.418 69.9135 198.128 69.9135V67.9189ZM210.976 73.2471C214.384 76.6585 216.299 81.2851 216.299 86.1094H214.305C214.305 81.8138 212.6 77.6942 209.566 74.657L210.976 73.2471ZM198.128 101.586C201.704 101.586 205.17 100.344 207.934 98.0728L209.199 99.6141C206.078 102.178 202.166 103.58 198.128 103.58V101.586ZM207.934 98.0728C210.698 95.8013 212.591 92.6404 213.289 89.1286L215.244 89.5175C214.457 93.4816 212.32 97.0499 209.199 99.6141L207.934 98.0728ZM213.289 89.1286C213.986 85.6168 213.446 81.9713 211.761 78.8136L213.519 77.8738C215.422 81.4384 216.032 85.5534 215.244 89.5175L213.289 89.1286ZM211.761 78.8136C210.074 75.6558 207.347 73.1811 204.042 71.8111L204.806 69.9686C208.537 71.5153 211.615 74.3091 213.519 77.8738L211.761 78.8136ZM204.042 71.8111C200.738 70.441 197.063 70.2602 193.64 71.2995L193.061 69.391C196.925 68.2176 201.075 68.4218 204.806 69.9686L204.042 71.8111ZM193.64 71.2995C190.217 72.3389 187.261 74.534 185.274 77.5111L183.616 76.4035C185.86 73.0427 189.198 70.5645 193.061 69.391L193.64 71.2995ZM185.274 77.5111C183.287 80.4882 182.392 84.0631 182.743 87.6265L180.759 87.8219C180.364 83.7996 181.373 79.7642 183.616 76.4035L185.274 77.5111ZM182.743 87.6265C183.094 91.1899 184.668 94.5213 187.197 97.053L185.787 98.463C182.931 95.6049 181.155 91.8442 180.759 87.8219L182.743 87.6265ZM187.197 97.054C188.631 98.493 190.335 99.6342 192.211 100.412L191.447 102.254C189.329 101.376 187.404 100.087 185.786 98.462L187.197 97.054ZM192.211 100.412C194.085 101.19 196.096 101.589 198.126 101.586L198.129 103.58C195.837 103.583 193.565 103.133 191.447 102.254L192.211 100.412Z" fill="black"/>
<path d="M197.928 100.637C189.799 100.637 183.208 94.039 183.208 85.9004C183.208 77.7617 189.799 71.1641 197.928 71.1641C206.058 71.1641 212.648 77.7617 212.648 85.9004C212.648 94.039 206.058 100.637 197.928 100.637Z" fill="white"/>
<path d="M187.35 82.8128L192.875 88.2612L191.603 95.9204L198.486 92.3424L205.369 95.9204L204.097 88.2612L209.622 82.8128L201.954 81.6573L198.486 74.7119L195.017 81.6573L187.35 82.8128Z" fill="#B6D7FF" stroke="#B6D7FF" stroke-linecap="round" stroke-linejoin="round"/>
<path d="M184.605 83.2298L190.129 88.6783L188.859 96.3375L195.741 92.7595L202.624 96.3375L201.352 88.6783L206.877 83.2298L199.21 82.0743L195.741 75.1289L192.272 82.0743L184.605 83.2298Z" stroke="black" stroke-linejoin="round"/>
</g>
</g>
<defs>
<linearGradient id="paint0_linear_197_4679" x1="458.134" y1="182.435" x2="361.95" y2="182.435" gradientUnits="userSpaceOnUse">
<stop stop-color="#FBD027"/>
<stop offset="1" stop-color="#FCEFBC"/>
</linearGradient>
<clipPath id="clip0_197_4679">
<rect width="604" height="363" fill="white" transform="matrix(-1 0 0 1 604 0)"/>
</clipPath>
</defs>
</svg>
