<svg width="55" height="56" viewBox="0 0 55 56" fill="none" xmlns="http://www.w3.org/2000/svg">
<path d="M0.76051 27.8029C4.45823 13.4177 10.7088 0.90625 27.6306 0.90625C42.4632 0.90625 55.9275 13.9928 54.9498 30.1178C54.0515 44.9442 41.1889 57.5121 25.4433 55.7388C10.6942 54.0847 -3.47411 44.275 0.76051 27.8029Z" fill="#367FD3"/>
<g opacity="0.8">
<path d="M23.6395 46.1028C23.6334 45.6023 23.7235 45.1054 23.9048 44.6389C24.076 44.2 24.3331 43.7997 24.6611 43.4616C25.0007 43.116 25.4113 42.8485 25.8644 42.6774C26.9237 42.3039 28.0787 42.3039 29.138 42.6774C29.5911 42.8485 30.0017 43.116 30.3413 43.4616C30.6686 43.8002 30.9257 44.2004 31.0976 44.6389C31.2789 45.1054 31.369 45.6023 31.3629 46.1028C31.3759 46.5781 31.2935 47.0512 31.1205 47.4941C30.9476 47.937 30.6876 48.3406 30.356 48.6812C29.6833 49.3782 28.7314 49.7233 27.5002 49.7163C26.269 49.7093 25.3177 49.3643 24.6464 48.6812C24.3148 48.3406 24.0549 47.937 23.8819 47.4941C23.709 47.0512 23.6265 46.5781 23.6395 46.1028ZM30.3247 37.3073H24.4751L23.8338 8.53906H30.9973L30.3247 37.3073Z" fill="white"/>
</g>
</svg>
