<svg width="55" height="56" viewBox="0 0 55 56" fill="none" xmlns="http://www.w3.org/2000/svg">
<path d="M0.760753 27.7928C4.45915 13.4116 10.7106 0.90625 27.6241 0.90625C42.4656 0.90625 55.9285 13.9931 54.9497 30.1188C54.0501 44.9459 41.1849 57.5055 25.4375 55.7402C10.696 54.079 -3.47491 44.2686 0.760753 27.7928Z" fill="#367FD3"/>
<g opacity="0.8">
<path d="M23.6976 37.3598C23.6865 36.3299 23.7564 35.3006 23.9066 34.2816C24.1509 32.6505 24.827 31.1144 25.865 29.8326C26.4525 29.1043 27.0849 28.4133 27.7585 27.7637C28.3159 27.2162 28.8432 26.6973 29.3407 26.2069C29.8118 25.7397 30.2451 25.2359 30.6365 24.7002C31.0053 24.1941 31.3034 23.6401 31.5227 23.0535C31.7455 22.4301 31.8552 21.772 31.8466 21.11C31.8466 19.5497 31.46 18.3578 30.6866 17.5345C29.9133 16.7111 28.7791 16.2995 27.2841 16.2995C26.694 16.2983 26.1068 16.3828 25.541 16.5502C24.9856 16.711 24.4681 16.9817 24.0195 17.3464C23.56 17.7267 23.1897 18.2032 22.9347 18.7424C22.6427 19.3833 22.4998 20.082 22.5167 20.7861H16.4556C16.4405 19.3652 16.7335 17.9578 17.3146 16.661C17.8483 15.5052 18.6339 14.4835 19.6137 13.6706C20.625 12.8455 21.789 12.2277 23.0392 11.8525C25.8946 11.0261 28.9274 11.0392 31.7755 11.8901C33.0124 12.2758 34.1525 12.9213 35.1196 13.7834C36.0419 14.6218 36.7573 15.6626 37.2096 16.824C37.7019 18.1208 37.9431 19.4995 37.9202 20.8864C37.924 21.9322 37.7414 22.9703 37.381 23.9521C37.0371 24.897 36.572 25.7933 35.9974 26.6186C35.3978 27.4687 34.7303 28.2689 34.0014 29.0113C33.256 29.7762 32.4834 30.5319 31.6836 31.2787C30.8386 32.0069 30.206 32.9499 29.8527 34.0079C29.5311 35.0933 29.3671 36.2194 29.3658 37.3514L23.6976 37.3598ZM23.2796 45.1106C23.2755 44.6686 23.352 44.2296 23.5053 43.815C23.6512 43.4168 23.8813 43.0547 24.18 42.7535C24.4786 42.4524 24.8388 42.2193 25.2359 42.0701C26.1827 41.7366 27.2151 41.7366 28.1619 42.0701C28.5653 42.2229 28.9311 42.461 29.2341 42.768C29.5254 43.0683 29.7541 43.4235 29.9071 43.8129C30.0669 44.226 30.147 44.6656 30.1432 45.1085C30.1556 45.5322 30.0826 45.9541 29.9286 46.349C29.7746 46.7439 29.5426 47.1038 29.2466 47.4072C28.6475 48.0216 27.7996 48.3288 26.7031 48.3288C25.6065 48.3288 24.7635 48.0216 24.1741 47.4072C23.8784 47.1039 23.6463 46.7444 23.4916 46.35C23.3369 45.9555 23.2627 45.5342 23.2733 45.1106H23.2796Z" fill="white"/>
</g>
</svg>
