<svg width="55" height="56" viewBox="0 0 55 56" fill="none" xmlns="http://www.w3.org/2000/svg">
<path d="M0.760365 27.8031C4.45778 13.4172 10.7091 0.90625 27.6294 0.90625C42.4684 0.90625 55.9285 13.9919 54.9497 30.1184C54.0509 44.9457 41.1881 57.5052 25.442 55.7402C10.6952 54.0871 -3.47389 44.2752 0.760365 27.8031Z" fill="#367FD3"/>
<path d="M39.0314 26.1491C39.0511 28.8035 38.1389 31.3805 36.4542 33.4305C35.0498 35.1283 34.2774 37.2614 34.2687 39.4657V42.6444C34.2655 43.6167 33.8783 44.5482 33.1915 45.2357C32.5047 45.9232 31.5742 46.3108 30.6029 46.314H24.7414C23.7702 46.3111 22.8396 45.9235 22.1529 45.2359C21.4662 44.5483 21.0793 43.6167 21.0766 42.6444V39.4732C21.072 37.2724 20.303 35.1417 18.9013 33.4463C17.6678 31.9453 16.839 30.153 16.4942 28.2403C16.1493 26.3276 16.2998 24.3583 16.9313 22.5204C17.5627 20.6824 18.6542 19.0371 20.1014 17.7414C21.5486 16.4457 23.3034 15.5429 25.1982 15.119C25.3434 15.0864 25.4885 15.0575 25.6355 15.0314C25.7137 15.0165 25.7909 15.0035 25.87 14.9904C27.4875 14.7315 29.1417 14.8256 30.7195 15.2662C32.2973 15.7068 33.7613 16.4836 35.0113 17.5434C36.2612 18.6031 37.2676 19.9208 37.9615 21.4061C38.6554 22.8915 39.0204 24.5094 39.0314 26.1491Z" fill="#F9DDBF"/>
<path d="M30.5864 46.3164L30.5734 46.4142L30.4124 47.6501L30.3706 47.9761L30.3268 48.3039L30.1668 49.5399L30.124 49.8658L30.0812 50.1946L30.0579 50.3753C29.9761 51.003 29.2597 51.4817 28.4028 51.4817H26.4712C26.2749 51.4822 26.0793 51.4565 25.8897 51.4054C25.7325 51.3629 25.5815 51.3003 25.4404 51.2191L25.4292 51.2126C25.3232 51.1504 25.2252 51.0756 25.1371 50.99C24.967 50.8303 24.8548 50.6187 24.8179 50.3883L24.7491 49.9087L24.7053 49.6069V49.6004L24.6625 49.3042L24.4988 48.1586L24.456 47.8578V47.8513L24.4141 47.5542L24.2383 46.3164H30.5864Z" fill="#ED7D2B"/>
<path d="M29.8201 46.3164H28.7288C26.9685 46.8259 25.2221 47.3288 24.4136 47.5579L24.4554 47.855V47.8615L24.4982 48.1624C25.1495 47.9761 26.7312 47.53 30.571 46.4142L30.584 46.3164H29.8201Z" fill="#FD8C04"/>
<path d="M24.7034 49.6045V49.611L24.7472 49.9128C25.5045 49.6995 27.0676 49.2506 30.3231 48.3062L30.3668 47.9783L30.4087 47.6523C28.3515 48.2493 25.8618 48.9693 24.6606 49.3102L24.7034 49.6045Z" fill="#FD8C04"/>
<path d="M25.4314 51.2157L25.4425 51.2222C25.5837 51.3035 25.7347 51.3661 25.8919 51.4085C26.7851 51.1524 28.11 50.7686 30.0787 50.1977L30.1215 49.8689L30.1643 49.543C28.404 50.0534 26.3841 50.6373 25.1401 50.995C25.2281 51.0799 25.3258 51.154 25.4314 51.2157Z" fill="#FD8C04"/>
<path d="M23.4274 31.7305L22.9204 31.8164L25.3814 46.3663L25.8884 46.2804L23.4274 31.7305Z" fill="#ED7D2B"/>
<path d="M31.6682 32.4708L29.0503 46.7383L29.5542 46.8309L32.172 32.5634L31.6682 32.4708Z" fill="#ED7D2B"/>
<path d="M29.0301 34.4041C28.9552 34.4034 28.8806 34.3943 28.8077 34.3771C28.7416 34.3632 28.6817 34.3287 28.6365 34.2785C28.5914 34.2282 28.5634 34.1649 28.5565 34.0977C28.4979 33.7764 28.7491 33.1868 29.1036 32.6876C28.9175 32.3645 28.6719 32.0981 28.4142 32.0198C28.0327 31.9034 27.4475 32.2564 27.039 32.7063C27.1127 32.811 27.1798 32.9201 27.24 33.0332C27.4484 33.4281 27.5991 33.9329 27.3935 34.1666C27.3172 34.2533 27.1618 34.3315 26.8539 34.2151C26.4687 34.0698 26.3301 33.7429 26.4743 33.3191C26.5579 33.0911 26.6814 32.8798 26.839 32.6951C26.5236 32.2834 26.1012 31.9696 25.6853 32.0226C25.4805 32.0469 25.2848 32.1207 25.115 32.2378C25.381 32.7333 25.4415 33.3619 25.2573 33.6991C25.1317 33.9291 24.9121 34.0018 24.6386 33.904C24.4432 33.8341 24.3409 33.564 24.3781 33.2157C24.4233 32.8219 24.6134 32.459 24.9112 32.1977C24.8321 32.0715 24.7324 31.9594 24.6162 31.8662C23.8998 31.3074 23.3072 31.9072 23.283 31.9332L23.1704 31.8243C23.1779 31.8168 23.8868 31.1025 24.7111 31.7432C24.8387 31.8441 24.9482 31.966 25.0349 32.1037C25.2236 31.9755 25.4403 31.8947 25.6667 31.868C26.1319 31.8094 26.5971 32.1381 26.9422 32.5759C27.3861 32.0934 28.0178 31.7376 28.4588 31.8708C28.7379 31.9547 29.0003 32.2238 29.2031 32.5554C29.3703 32.3288 29.5722 32.1302 29.8014 31.9668C30.1261 31.7516 30.3373 31.801 30.4527 31.8801C30.5773 31.9639 30.6844 32.0711 30.7681 32.1959C30.8613 32.1205 30.9624 32.0552 31.0695 32.0012C31.4417 31.8149 31.7906 31.8271 32.0418 32.0394L31.9413 32.1586C31.6706 31.9295 31.3226 32.0487 31.1393 32.14C31.0364 32.1915 30.9394 32.2539 30.8499 32.3263C31.1002 32.7789 31.1486 33.3675 31.0053 33.6525C30.9883 33.6933 30.9633 33.7302 30.9318 33.761C30.9003 33.7919 30.8629 33.8161 30.8218 33.8322C30.7807 33.8483 30.7369 33.8559 30.6928 33.8546C30.6487 33.8534 30.6053 33.8432 30.5652 33.8248C30.2256 33.701 30.1428 33.4663 30.1326 33.2921C30.1149 32.9577 30.3457 32.5777 30.648 32.2974C30.5751 32.1838 30.4802 32.0859 30.3689 32.0096C30.2219 31.9165 30.0247 32.0031 29.8842 32.0953C29.6524 32.2632 29.4495 32.4677 29.2831 32.7007C29.5167 33.1449 29.6376 33.6628 29.5492 33.9962C29.5263 34.1154 29.4612 34.2223 29.3658 34.2972C29.2704 34.3722 29.1512 34.4101 29.0301 34.4041ZM29.1836 32.8432C28.8766 33.2921 28.6598 33.8006 28.7091 34.0726C28.7116 34.109 28.726 34.1435 28.75 34.1709C28.7741 34.1984 28.8064 34.2171 28.8421 34.2244C29.1473 34.2942 29.3343 34.2048 29.4004 33.9599C29.4739 33.6777 29.3753 33.2353 29.1836 32.8432ZM26.9348 32.8311C26.8004 32.9923 26.6944 33.1753 26.6213 33.3722C26.5031 33.7205 26.5999 33.9562 26.9088 34.0726C27.0325 34.1191 27.1972 34.1564 27.2809 34.0661C27.4028 33.9273 27.3312 33.5342 27.106 33.1095C27.0546 33.0136 26.9977 32.9206 26.9357 32.8311H26.9348ZM24.9912 32.3384C24.7349 32.5719 24.5719 32.8906 24.5325 33.2353C24.5037 33.5016 24.5688 33.7168 24.6916 33.7606C24.8889 33.8304 25.034 33.7857 25.1205 33.6274C25.2787 33.3377 25.221 32.7826 24.9912 32.3384ZM30.7299 32.438C30.4592 32.6979 30.2759 33.0304 30.2898 33.2865C30.301 33.4728 30.4117 33.606 30.6211 33.6823C30.6431 33.6943 30.6674 33.7014 30.6925 33.7031C30.7175 33.7048 30.7426 33.7012 30.766 33.6923C30.7895 33.6835 30.8108 33.6697 30.8285 33.6519C30.8462 33.6341 30.8598 33.6127 30.8685 33.5892C30.9886 33.347 30.9365 32.8357 30.7299 32.438Z" fill="#ED7D2B"/>
<path d="M33.5421 19.2193C34.4725 20.1004 34.358 21.721 33.1569 22.0814C32.2516 22.3534 30.9006 21.9883 30.2335 20.8334C29.5664 19.6785 29.8735 18.7248 30.6922 18.2516C31.511 17.7785 32.567 18.3029 33.5421 19.2193Z" fill="#FFF0E3"/>
<path d="M27.4259 7.5H27.316C27.1164 7.5 26.9546 7.66179 26.9546 7.86137V12.3431C26.9546 12.5427 27.1164 12.7045 27.316 12.7045H27.4259C27.6255 12.7045 27.7874 12.5427 27.7874 12.3431V7.86137C27.7874 7.66179 27.6255 7.5 27.4259 7.5Z" fill="#FFF0E3"/>
<path d="M43.6567 16.875L43.5971 16.7713C43.4987 16.5999 43.2801 16.5408 43.1089 16.6393L40.9048 17.9073C40.7336 18.0058 40.6745 18.2246 40.7729 18.396L40.8325 18.4998C40.9309 18.6711 41.1495 18.7302 41.3207 18.6317L43.5248 17.3637C43.696 17.2652 43.7551 17.0464 43.6567 16.875Z" fill="#FFF0E3"/>
<path d="M42.4658 24.1859C42.4661 24.0757 42.5098 23.9701 42.5876 23.8921C42.6653 23.8141 42.7707 23.77 42.8808 23.7695H48.4278C48.5381 23.7698 48.6437 23.8137 48.7216 23.8917C48.7996 23.9698 48.8435 24.0755 48.8437 24.1859C48.8432 24.296 48.7992 24.4015 48.7213 24.4794C48.6434 24.5572 48.5379 24.601 48.4278 24.6012H42.8771C42.7678 24.5998 42.6635 24.5554 42.5866 24.4777C42.5097 24.4 42.4663 24.2952 42.4658 24.1859Z" fill="#FFF0E3"/>
<path d="M34.7075 14.5849C34.6063 14.5413 34.5264 14.4592 34.4854 14.3568C34.4444 14.2543 34.4457 14.1398 34.4889 14.0382L37.4355 7.12378C37.4789 7.02247 37.5606 6.94249 37.6628 6.9013C37.7649 6.86012 37.8792 6.86108 37.9807 6.90398C38.0818 6.94784 38.1615 7.02984 38.2027 7.13218C38.2438 7.23453 38.2429 7.34897 38.2003 7.45068L35.2537 14.3651C35.2101 14.4665 35.1282 14.5465 35.0259 14.5877C34.9235 14.6288 34.8091 14.6279 34.7075 14.5849Z" fill="#FFF0E3"/>
<path d="M14.3309 17.9185L14.3904 17.8142C14.4373 17.7324 14.45 17.6353 14.4256 17.5442C14.4012 17.453 14.3417 17.3753 14.2602 17.328L12.0654 16.0595C11.9835 16.0122 11.8863 15.9994 11.7951 16.0239C11.7038 16.0483 11.626 16.108 11.5787 16.1899L11.5192 16.2933C11.4725 16.3753 11.46 16.4724 11.4844 16.5636C11.5087 16.6548 11.5681 16.7327 11.6495 16.7804L13.8443 18.0451C13.9257 18.0925 14.0225 18.1057 14.1136 18.082C14.2047 18.0583 14.2828 17.9995 14.3309 17.9185Z" fill="#FFF0E3"/>
<path d="M12.8308 24.1859C12.8305 24.0755 12.7867 23.9698 12.7087 23.8917C12.6308 23.8137 12.5251 23.7698 12.4149 23.7695H6.86413C6.7539 23.7698 6.64826 23.8137 6.57032 23.8917C6.49238 23.9698 6.44849 24.0755 6.44824 24.1859C6.44873 24.296 6.49274 24.4015 6.57065 24.4794C6.64857 24.5572 6.75406 24.601 6.86413 24.6012H12.4149C12.525 24.601 12.6305 24.5572 12.7084 24.4794C12.7863 24.4015 12.8303 24.296 12.8308 24.1859Z" fill="#FFF0E3"/>
<path d="M20.5889 14.5849C20.69 14.5411 20.7697 14.4591 20.8108 14.3567C20.8519 14.2544 20.8511 14.1399 20.8084 14.0382L17.8618 7.12378C17.8184 7.02247 17.7367 6.94249 17.6345 6.9013C17.5324 6.86012 17.4181 6.86108 17.3166 6.90398C17.2155 6.94784 17.1358 7.02984 17.0947 7.13218C17.0536 7.23453 17.0544 7.34897 17.0971 7.45068L20.0436 14.3651C20.0871 14.4664 20.1688 14.5464 20.271 14.5876C20.3731 14.6288 20.4874 14.6278 20.5889 14.5849Z" fill="#FFF0E3"/>
</svg>
