<svg width="509" height="445" viewBox="0 0 509 445" fill="none" xmlns="http://www.w3.org/2000/svg">
<path d="M4.92497 362.787C4.92497 362.787 -0.66507 376.355 13.4411 385.334C31.2754 385.334 39.793 385.411 39.793 385.411C39.793 385.411 27.4147 362.654 4.92497 362.787Z" fill="#1A2E44" stroke="#1A2E44" stroke-linecap="round" stroke-linejoin="round"/>
<path d="M42.5864 344.017C42.5522 344.018 42.5179 344.011 42.4867 343.997C42.4242 343.97 42.375 343.92 42.3497 343.857C42.3244 343.795 42.3244 343.725 42.3512 343.662C42.4867 343.345 42.6905 342.872 42.9659 342.254C42.9808 342.223 43.0001 342.196 43.0239 342.172C43.0492 342.15 43.0775 342.132 43.1088 342.119C43.14 342.107 43.1743 342.103 43.207 342.103C43.2412 342.104 43.2739 342.111 43.3052 342.125C43.3365 342.14 43.3633 342.159 43.3871 342.183C43.4094 342.208 43.4273 342.237 43.4392 342.268C43.4511 342.299 43.457 342.333 43.457 342.366C43.4555 342.4 43.4481 342.433 43.4347 342.464C43.1579 343.077 42.957 343.546 42.8215 343.863C42.8007 343.909 42.768 343.948 42.7263 343.975C42.6846 344.003 42.6355 344.017 42.5864 344.017Z" fill="#1A2E44"/>
<path d="M36.298 385.336C36.298 385.336 21.4135 376.986 18.8298 357.531C47.3785 351.547 59.0557 385.412 59.0557 385.412L36.298 385.336Z" fill="#69AEFF" stroke="#1A2E44" stroke-linecap="round" stroke-linejoin="round"/>
<path d="M62.9508 385.666C62.8897 385.668 62.8317 385.647 62.7856 385.61C62.7379 385.572 62.7067 385.519 62.6948 385.459C56.49 352.105 22.0998 284.893 21.753 284.219C21.7217 284.159 21.7158 284.088 21.7351 284.024C21.756 283.958 21.8021 283.905 21.8616 283.873C21.9226 283.842 21.9926 283.836 22.0566 283.857C22.1221 283.878 22.1756 283.924 22.2069 283.983C22.5537 284.661 56.9782 351.94 63.2008 385.365C63.2067 385.398 63.2067 385.432 63.1993 385.465C63.1933 385.498 63.1799 385.529 63.1606 385.557C63.1412 385.584 63.1175 385.608 63.0892 385.627C63.0609 385.645 63.0296 385.657 62.9969 385.665L62.9508 385.666Z" fill="#1A2E44"/>
<path d="M47.678 385.325C47.6304 385.325 47.5843 385.312 47.5426 385.286C47.5024 385.261 47.4697 385.224 47.4488 385.181C37.7406 365.461 21.9021 359.923 21.7309 359.869C21.6669 359.847 21.6133 359.801 21.5836 359.74C21.5538 359.679 21.5493 359.609 21.5702 359.545C21.5925 359.481 21.6386 359.427 21.6996 359.397C21.7606 359.366 21.8306 359.362 21.8946 359.384C21.9363 359.399 25.9815 360.789 31.1906 364.622C35.9859 368.154 42.7785 374.551 47.9087 384.956C47.9281 384.996 47.937 385.039 47.934 385.082C47.9325 385.125 47.9191 385.167 47.8953 385.204C47.873 385.242 47.8402 385.271 47.803 385.292C47.7643 385.313 47.7212 385.325 47.678 385.325Z" fill="#1A2E44"/>
<path d="M491.772 259.87C491.817 259.87 491.861 259.861 491.902 259.843C491.938 259.825 491.97 259.8 491.997 259.77C492.023 259.739 492.044 259.703 492.057 259.665C492.07 259.626 492.076 259.586 492.074 259.544C492.071 259.502 492.061 259.464 492.044 259.427C491.549 258.345 491.021 257.215 490.475 256.073C490.44 256 490.377 255.942 490.301 255.915C490.264 255.902 490.224 255.898 490.184 255.899C490.145 255.902 490.106 255.913 490.07 255.93C490.035 255.948 490.003 255.974 489.977 256.005C489.95 256.035 489.93 256.07 489.917 256.109C489.904 256.148 489.899 256.189 489.901 256.23C489.904 256.271 489.914 256.311 489.932 256.347C490.478 257.489 491.006 258.614 491.501 259.693C491.525 259.747 491.564 259.791 491.612 259.822C491.66 259.854 491.715 259.87 491.772 259.87ZM488.586 253.198C488.634 253.198 488.682 253.186 488.725 253.163C488.795 253.125 488.848 253.061 488.873 252.982C488.897 252.904 488.89 252.82 488.854 252.747C488.317 251.662 487.759 250.548 487.192 249.444C487.176 249.404 487.152 249.367 487.122 249.337C487.091 249.307 487.055 249.285 487.015 249.27C486.976 249.255 486.934 249.249 486.892 249.252C486.85 249.255 486.809 249.267 486.772 249.286C486.734 249.307 486.702 249.335 486.676 249.37C486.65 249.404 486.631 249.443 486.62 249.484C486.61 249.526 486.608 249.571 486.615 249.614C486.622 249.655 486.638 249.697 486.661 249.733C487.222 250.837 487.78 251.944 488.317 253.03C488.343 253.08 488.381 253.122 488.429 253.152C488.476 253.181 488.53 253.198 488.586 253.198ZM485.215 246.624C485.268 246.624 485.319 246.609 485.365 246.583C485.411 246.557 485.449 246.518 485.475 246.472C485.502 246.424 485.517 246.372 485.518 246.318C485.519 246.263 485.506 246.21 485.481 246.164C484.92 245.099 484.334 243.986 483.74 242.907C483.7 242.834 483.634 242.782 483.556 242.76C483.478 242.739 483.395 242.749 483.325 242.791C483.255 242.831 483.204 242.9 483.182 242.98C483.161 243.06 483.172 243.145 483.212 243.218C483.815 244.309 484.389 245.394 484.95 246.467C484.977 246.515 485.015 246.555 485.062 246.583C485.109 246.61 485.162 246.624 485.215 246.624ZM481.703 240.139C481.756 240.139 481.808 240.124 481.854 240.096C481.923 240.055 481.973 239.987 481.994 239.908C482.015 239.829 482.005 239.744 481.965 239.673C481.362 238.609 480.759 237.527 480.155 236.458C480.113 236.39 480.048 236.342 479.972 236.323C479.897 236.303 479.817 236.315 479.749 236.355C479.682 236.395 479.632 236.461 479.611 236.537C479.589 236.614 479.597 236.698 479.633 236.769C480.259 237.859 480.862 238.927 481.444 239.975C481.47 240.026 481.509 240.067 481.557 240.097C481.605 240.125 481.659 240.14 481.715 240.139H481.703ZM478.052 233.736C478.106 233.736 478.159 233.721 478.206 233.693C478.274 233.651 478.323 233.581 478.343 233.502C478.362 233.422 478.349 233.337 478.308 233.267C477.705 232.228 477.077 231.168 476.432 230.095C476.412 230.058 476.385 230.027 476.352 230C476.32 229.975 476.283 229.957 476.244 229.945C476.205 229.934 476.163 229.933 476.123 229.939C476.083 229.945 476.044 229.96 476.01 229.982C475.975 230.004 475.945 230.033 475.921 230.067C475.898 230.101 475.882 230.141 475.873 230.182C475.865 230.223 475.864 230.265 475.872 230.307C475.88 230.348 475.896 230.387 475.919 230.421C476.562 231.493 477.187 232.548 477.792 233.587C477.821 233.635 477.861 233.673 477.908 233.7C477.956 233.727 478.01 233.739 478.064 233.736H478.052ZM474.28 227.435C474.337 227.435 474.392 227.421 474.44 227.389C474.474 227.367 474.503 227.339 474.525 227.306C474.548 227.272 474.564 227.235 474.573 227.194C474.582 227.154 474.583 227.114 474.576 227.074C474.569 227.034 474.555 226.995 474.533 226.961C473.902 225.923 473.254 224.881 472.59 223.832C472.57 223.795 472.543 223.764 472.51 223.738C472.477 223.712 472.44 223.694 472.4 223.683C472.36 223.674 472.319 223.673 472.279 223.679C472.238 223.686 472.2 223.701 472.165 223.725C472.131 223.747 472.101 223.777 472.078 223.811C472.055 223.847 472.039 223.886 472.032 223.927C472.024 223.969 472.025 224.012 472.034 224.054C472.043 224.094 472.059 224.133 472.083 224.167C472.747 225.222 473.394 226.26 474.024 227.278C474.049 227.324 474.086 227.364 474.131 227.392C474.176 227.419 474.228 227.435 474.28 227.435ZM470.357 221.217C470.412 221.216 470.465 221.201 470.511 221.172C470.558 221.143 470.596 221.101 470.622 221.052C470.648 221.003 470.66 220.948 470.657 220.891C470.655 220.836 470.638 220.781 470.608 220.735C469.952 219.718 469.284 218.69 468.604 217.649C468.559 217.581 468.49 217.533 468.411 217.518C468.333 217.502 468.251 217.52 468.185 217.566C468.118 217.612 468.072 217.684 468.057 217.764C468.042 217.846 468.058 217.929 468.103 217.998C468.785 219.035 469.452 220.062 470.104 221.08C470.136 221.119 470.176 221.149 470.222 221.168C470.268 221.187 470.317 221.193 470.366 221.189L470.357 221.217ZM466.317 215.072C466.387 215.07 466.454 215.043 466.507 214.997C466.54 214.973 466.569 214.944 466.59 214.909C466.612 214.875 466.627 214.836 466.635 214.796C466.642 214.756 466.641 214.714 466.633 214.674C466.624 214.634 466.608 214.595 466.586 214.561C465.908 213.556 465.218 212.543 464.516 211.52C464.493 211.488 464.463 211.459 464.43 211.437C464.396 211.415 464.359 211.401 464.32 211.394C464.281 211.386 464.241 211.388 464.202 211.397C464.163 211.407 464.127 211.424 464.095 211.447C464.062 211.471 464.035 211.501 464.014 211.535C463.993 211.569 463.979 211.608 463.972 211.648C463.965 211.689 463.967 211.73 463.975 211.77C463.984 211.811 464.001 211.848 464.024 211.881C464.724 212.902 465.412 213.912 466.088 214.917C466.115 214.955 466.151 214.987 466.192 215.009C466.234 215.031 466.279 215.043 466.326 215.043L466.317 215.072ZM462.156 209.017C462.212 209.017 462.266 209.001 462.314 208.971C462.362 208.941 462.4 208.898 462.426 208.847C462.451 208.795 462.462 208.739 462.458 208.681C462.453 208.624 462.433 208.569 462.4 208.523C461.704 207.53 460.995 206.531 460.273 205.528C460.225 205.461 460.154 205.417 460.075 205.405C459.996 205.393 459.915 205.414 459.851 205.463C459.786 205.512 459.743 205.585 459.731 205.667C459.72 205.748 459.74 205.832 459.787 205.897C460.507 206.899 461.212 207.896 461.899 208.889C461.932 208.928 461.974 208.956 462.02 208.974C462.067 208.99 462.116 208.996 462.165 208.989L462.156 209.017ZM457.874 203.053C457.94 203.051 458.003 203.029 458.055 202.987C458.087 202.962 458.114 202.932 458.134 202.897C458.154 202.861 458.167 202.822 458.173 202.782C458.179 202.742 458.176 202.7 458.166 202.662C458.157 202.621 458.139 202.584 458.116 202.551C457.394 201.575 456.667 200.59 455.925 199.603C455.902 199.569 455.872 199.539 455.837 199.515C455.802 199.493 455.764 199.478 455.723 199.47C455.682 199.465 455.641 199.466 455.601 199.476C455.561 199.487 455.523 199.506 455.491 199.531C455.458 199.558 455.431 199.591 455.411 199.628C455.391 199.665 455.379 199.706 455.375 199.747C455.371 199.79 455.375 199.834 455.388 199.874C455.4 199.914 455.421 199.951 455.448 199.982C456.186 200.968 456.915 201.95 457.633 202.928C457.665 202.962 457.704 202.989 457.747 203.007C457.791 203.023 457.837 203.029 457.883 203.025L457.874 203.053ZM453.469 197.181C453.537 197.181 453.603 197.156 453.656 197.113C453.718 197.062 453.759 196.988 453.769 196.906C453.778 196.824 453.756 196.742 453.707 196.677C452.969 195.714 452.219 194.746 451.459 193.776C451.434 193.745 451.403 193.718 451.368 193.697C451.334 193.678 451.295 193.666 451.256 193.661C451.216 193.657 451.176 193.661 451.138 193.672C451.1 193.684 451.064 193.703 451.034 193.73C450.972 193.78 450.933 193.856 450.924 193.937C450.916 194.019 450.939 194.1 450.988 194.164C451.749 195.135 452.497 196.101 453.233 197.062C453.265 197.097 453.303 197.12 453.346 197.137C453.388 197.152 453.433 197.158 453.478 197.153L453.469 197.181ZM448.943 191.406C449.013 191.408 449.081 191.383 449.136 191.338C449.166 191.313 449.192 191.28 449.211 191.244C449.229 191.209 449.241 191.168 449.245 191.128C449.249 191.086 449.245 191.046 449.234 191.006C449.222 190.967 449.203 190.932 449.178 190.899C448.417 189.952 447.648 189.001 446.869 188.047C446.844 188.016 446.813 187.991 446.778 187.971C446.742 187.953 446.704 187.942 446.664 187.939C446.625 187.934 446.585 187.94 446.547 187.952C446.509 187.964 446.474 187.985 446.444 188.01C446.414 188.037 446.389 188.07 446.371 188.105C446.352 188.141 446.341 188.181 446.338 188.221C446.334 188.263 446.339 188.303 446.351 188.342C446.363 188.382 446.382 188.418 446.408 188.449C447.186 189.4 447.954 190.348 448.71 191.295C448.742 191.326 448.781 191.35 448.823 191.365C448.865 191.38 448.91 191.384 448.955 191.378L448.943 191.406ZM444.302 185.737C444.374 185.736 444.444 185.709 444.498 185.66C444.528 185.633 444.553 185.6 444.571 185.565C444.589 185.527 444.599 185.489 444.602 185.447C444.606 185.407 444.601 185.365 444.589 185.326C444.576 185.288 444.557 185.252 444.531 185.221C443.75 184.291 442.961 183.357 442.162 182.423C442.109 182.36 442.035 182.323 441.955 182.317C441.875 182.313 441.797 182.339 441.737 182.394C441.707 182.421 441.682 182.454 441.664 182.491C441.647 182.528 441.636 182.569 441.634 182.609C441.631 182.65 441.637 182.692 441.65 182.731C441.663 182.769 441.683 182.805 441.71 182.836C442.514 183.767 443.302 184.7 444.072 185.635C444.105 185.664 444.144 185.687 444.185 185.699C444.227 185.712 444.271 185.715 444.314 185.709L444.302 185.737ZM439.543 180.171C439.602 180.171 439.659 180.153 439.707 180.12C439.756 180.087 439.795 180.041 439.818 179.986C439.842 179.931 439.85 179.87 439.84 179.811C439.831 179.751 439.806 179.696 439.766 179.651C438.962 178.737 438.157 177.822 437.353 176.905C437.298 176.844 437.222 176.809 437.142 176.804C437.062 176.801 436.983 176.831 436.924 176.887C436.865 176.942 436.83 177.021 436.826 177.103C436.823 177.187 436.851 177.267 436.906 177.328C437.725 178.243 438.529 179.156 439.32 180.068C439.352 180.096 439.389 180.119 439.43 180.131C439.47 180.144 439.513 180.148 439.555 180.142L439.543 180.171ZM434.664 174.713C434.723 174.713 434.78 174.695 434.829 174.662C434.878 174.628 434.916 174.582 434.94 174.525C434.963 174.47 434.97 174.409 434.96 174.35C434.951 174.29 434.924 174.235 434.884 174.19C434.06 173.291 433.225 172.387 432.398 171.501C432.342 171.441 432.266 171.407 432.186 171.406C432.106 171.404 432.028 171.435 431.971 171.494C431.913 171.55 431.88 171.629 431.879 171.711C431.877 171.794 431.908 171.873 431.963 171.933C432.79 172.817 433.623 173.719 434.444 174.616C434.476 174.644 434.513 174.664 434.553 174.676C434.593 174.688 434.635 174.691 434.676 174.685L434.664 174.713ZM429.667 169.374C429.727 169.374 429.786 169.358 429.837 169.323C429.887 169.289 429.926 169.24 429.95 169.184C429.973 169.126 429.979 169.063 429.968 169.002C429.956 168.941 429.927 168.886 429.884 168.841C429.045 167.968 428.191 167.085 427.338 166.214C427.279 166.164 427.205 166.137 427.129 166.141C427.053 166.144 426.981 166.177 426.928 166.234C426.875 166.289 426.844 166.363 426.841 166.442C426.839 166.521 426.865 166.597 426.915 166.656C427.763 167.523 428.617 168.407 429.453 169.28C429.484 169.306 429.521 169.325 429.559 169.337C429.598 169.347 429.639 169.35 429.679 169.346L429.667 169.374ZM40.0233 168.496C40.0694 168.496 40.1141 168.486 40.1558 168.465C40.1974 168.444 40.2331 168.413 40.2614 168.375C40.9892 167.414 41.7423 166.441 42.5028 165.483C42.5281 165.451 42.5474 165.415 42.5579 165.376C42.5698 165.336 42.5727 165.294 42.5698 165.254C42.5653 165.214 42.5534 165.174 42.5341 165.138C42.5147 165.102 42.4894 165.071 42.4582 165.044C42.3956 164.994 42.3168 164.969 42.2379 164.977C42.159 164.985 42.0861 165.025 42.0355 165.089C41.272 166.049 40.5263 167.028 39.7851 167.993C39.7494 168.039 39.7271 168.094 39.7211 168.152C39.7152 168.21 39.7256 168.27 39.7494 168.322C39.7747 168.374 39.8134 168.419 39.8625 168.45C39.9102 168.481 39.9667 168.497 40.0233 168.496ZM424.564 164.122C424.625 164.122 424.684 164.104 424.734 164.07C424.784 164.034 424.823 163.985 424.846 163.928C424.868 163.87 424.874 163.806 424.861 163.747C424.849 163.686 424.819 163.629 424.776 163.586C423.916 162.731 423.041 161.867 422.172 161.021C422.113 160.971 422.037 160.945 421.961 160.951C421.885 160.956 421.814 160.992 421.761 161.048C421.709 161.105 421.679 161.181 421.679 161.259C421.678 161.338 421.707 161.414 421.758 161.472C422.624 162.318 423.496 163.179 424.353 164.034C424.41 164.09 424.486 164.122 424.564 164.122ZM44.5849 162.721C44.6296 162.723 44.6712 162.712 44.7114 162.693C44.7516 162.675 44.7858 162.647 44.8141 162.612C45.5895 161.681 46.3873 160.747 47.1835 159.814C47.2371 159.753 47.2654 159.673 47.2609 159.591C47.2564 159.508 47.2207 159.432 47.1627 159.375C47.1329 159.348 47.0987 159.328 47.06 159.313C47.0228 159.299 46.9826 159.293 46.9424 159.296C46.9037 159.298 46.8635 159.308 46.8278 159.326C46.7921 159.344 46.7608 159.369 46.734 159.401C45.9348 160.334 45.1341 161.267 44.3557 162.199C44.3304 162.23 44.3111 162.266 44.2977 162.306C44.2858 162.345 44.2813 162.385 44.2843 162.426C44.2873 162.467 44.2977 162.507 44.317 162.542C44.3349 162.578 44.3587 162.611 44.3885 162.638C44.4435 162.69 44.515 162.72 44.5879 162.721H44.5849ZM419.338 159.021C419.38 159.021 419.422 159.014 419.46 158.996C419.499 158.978 419.533 158.954 419.561 158.921C419.589 158.891 419.61 158.856 419.624 158.817C419.637 158.778 419.643 158.738 419.642 158.697C419.64 158.656 419.631 158.616 419.614 158.579C419.597 158.542 419.573 158.507 419.543 158.481C418.662 157.64 417.766 156.797 416.885 155.992C416.825 155.937 416.747 155.909 416.667 155.913C416.587 155.918 416.512 155.953 416.458 156.016C416.404 156.077 416.377 156.157 416.381 156.241C416.385 156.323 416.421 156.4 416.481 156.455C417.359 157.274 418.252 158.113 419.136 158.944C419.192 158.994 419.264 159.022 419.338 159.021ZM49.3981 157.18C49.4398 157.18 49.48 157.171 49.5187 157.155C49.5559 157.137 49.5901 157.111 49.6184 157.08C50.437 156.183 51.2719 155.281 52.1053 154.397C52.1366 154.368 52.1619 154.334 52.1783 154.295C52.1961 154.257 52.205 154.214 52.2065 154.172C52.208 154.129 52.2006 154.086 52.1842 154.047C52.1693 154.007 52.1455 153.971 52.1157 153.941C52.086 153.911 52.0503 153.888 52.0116 153.873C51.9729 153.858 51.9312 153.852 51.8895 153.853C51.8479 153.856 51.8077 153.867 51.7705 153.886C51.7332 153.905 51.7005 153.932 51.6737 153.965C50.8373 154.848 49.9949 155.753 49.1778 156.657C49.1376 156.702 49.1109 156.757 49.1019 156.817C49.0915 156.876 49.099 156.937 49.1228 156.994C49.1451 157.049 49.1838 157.097 49.2329 157.129C49.282 157.162 49.3401 157.18 49.3981 157.18ZM414.003 154.045C414.065 154.047 414.125 154.027 414.176 153.992C414.227 153.956 414.266 153.905 414.288 153.846C414.31 153.786 414.314 153.722 414.299 153.66C414.284 153.599 414.252 153.544 414.206 153.502C413.3 152.686 412.395 151.866 411.49 151.067C411.461 151.036 411.426 151.012 411.387 150.996C411.348 150.979 411.306 150.972 411.264 150.973C411.223 150.975 411.182 150.984 411.144 151.003C411.106 151.021 411.073 151.048 411.045 151.081C411.018 151.113 410.998 151.152 410.985 151.192C410.973 151.234 410.969 151.277 410.974 151.32C410.979 151.363 410.993 151.405 411.014 151.442C411.035 151.478 411.064 151.511 411.098 151.536C412.003 152.338 412.908 153.157 413.813 153.968C413.866 154.016 413.933 154.044 414.003 154.045ZM54.4434 151.869C54.5223 151.868 54.5982 151.837 54.6548 151.779C55.5091 150.914 56.3812 150.046 57.2489 149.204C57.2816 149.177 57.3084 149.143 57.3278 149.105C57.3457 149.067 57.3576 149.025 57.359 148.983C57.362 148.94 57.3561 148.897 57.3427 148.857C57.3278 148.817 57.3069 148.781 57.2787 148.75C57.2489 148.718 57.2147 148.693 57.1775 148.677C57.1388 148.66 57.0971 148.651 57.0569 148.651C57.0152 148.653 56.9736 148.662 56.9364 148.678C56.8977 148.696 56.8649 148.721 56.8366 148.753C55.9645 149.598 55.0894 150.466 54.2321 151.334C54.1889 151.377 54.1592 151.433 54.1458 151.493C54.1339 151.554 54.1398 151.618 54.1622 151.674C54.1845 151.732 54.2232 151.782 54.2738 151.816C54.3244 151.851 54.3824 151.869 54.4434 151.869ZM408.539 149.216C408.6 149.216 408.66 149.196 408.71 149.159C408.76 149.122 408.798 149.071 408.819 149.012C408.84 148.952 408.843 148.887 408.828 148.826C408.812 148.765 408.779 148.71 408.732 148.669C407.827 147.885 406.891 147.086 405.959 146.299C405.928 146.273 405.893 146.254 405.855 146.242C405.817 146.23 405.777 146.226 405.737 146.23C405.698 146.234 405.66 146.246 405.625 146.265C405.59 146.285 405.558 146.311 405.533 146.343C405.508 146.374 405.489 146.411 405.478 146.45C405.466 146.489 405.462 146.53 405.466 146.571C405.47 146.612 405.482 146.651 405.501 146.687C405.519 146.723 405.545 146.755 405.576 146.781C406.508 147.568 407.44 148.361 408.346 149.144C408.4 149.19 408.468 149.216 408.539 149.216ZM59.6852 146.759C59.7597 146.759 59.8311 146.73 59.8862 146.679C60.7747 145.851 61.6974 145.024 62.5845 144.213C62.6157 144.186 62.6411 144.154 62.6604 144.117C62.6798 144.08 62.6916 144.04 62.6946 143.998C62.6976 143.957 62.6931 143.915 62.6812 143.875C62.6678 143.836 62.6485 143.799 62.6217 143.768C62.5949 143.736 62.5636 143.711 62.5264 143.692C62.4907 143.674 62.4506 143.663 62.4104 143.661C62.3702 143.659 62.33 143.665 62.2913 143.679C62.2541 143.693 62.2184 143.715 62.1886 143.743C61.2837 144.558 60.3788 145.388 59.4739 146.231C59.4278 146.273 59.3965 146.328 59.3831 146.389C59.3682 146.45 59.3727 146.514 59.3951 146.573C59.4174 146.631 59.4546 146.681 59.5052 146.717C59.5558 146.753 59.6153 146.772 59.6763 146.772L59.6852 146.759ZM402.969 144.52C403.031 144.52 403.092 144.5 403.142 144.462C403.193 144.425 403.231 144.372 403.252 144.312C403.272 144.251 403.274 144.185 403.257 144.124C403.24 144.062 403.204 144.007 403.156 143.967C402.217 143.196 401.264 142.412 400.325 141.669C400.262 141.618 400.182 141.595 400.102 141.605C400.023 141.616 399.951 141.658 399.901 141.723C399.852 141.788 399.83 141.871 399.84 141.953C399.85 142.035 399.891 142.109 399.954 142.16C400.893 142.91 401.84 143.681 402.778 144.452C402.832 144.497 402.899 144.521 402.969 144.52ZM65.1339 141.877C65.2054 141.876 65.2739 141.85 65.3274 141.802C66.2323 141.022 67.1744 140.232 68.1091 139.458C68.1403 139.432 68.1656 139.4 68.1849 139.364C68.2043 139.328 68.2162 139.289 68.2207 139.248C68.2252 139.207 68.2207 139.166 68.2088 139.127C68.1984 139.088 68.179 139.051 68.1552 139.019C68.1299 138.987 68.0986 138.961 68.0644 138.941C68.0287 138.922 67.9915 138.909 67.9513 138.905C67.9111 138.901 67.8724 138.904 67.8337 138.916C67.795 138.928 67.7608 138.947 67.7295 138.973C66.7904 139.75 65.8558 140.528 64.9405 141.327C64.9107 141.353 64.8854 141.385 64.8676 141.421C64.8497 141.458 64.8378 141.497 64.8348 141.538C64.8318 141.579 64.8363 141.62 64.8482 141.659C64.8601 141.698 64.8795 141.734 64.9048 141.765C64.933 141.8 64.9673 141.828 65.0075 141.847C65.0476 141.866 65.0908 141.877 65.1339 141.877ZM397.284 139.968C397.33 139.968 397.376 139.957 397.418 139.936C397.46 139.915 397.497 139.884 397.525 139.846C397.573 139.781 397.595 139.698 397.584 139.616C397.573 139.535 397.531 139.461 397.468 139.411C396.517 138.668 395.549 137.922 394.583 137.188C394.519 137.138 394.438 137.118 394.359 137.13C394.28 137.142 394.208 137.186 394.161 137.253C394.113 137.319 394.093 137.402 394.105 137.484C394.117 137.566 394.16 137.639 394.224 137.688C395.186 138.419 396.155 139.165 397.103 139.906C397.155 139.946 397.218 139.968 397.284 139.968ZM70.7463 137.231C70.8133 137.231 70.8788 137.208 70.9309 137.166C71.8715 136.416 72.8344 135.664 73.7914 134.93C73.8226 134.906 73.8509 134.875 73.8703 134.84C73.8911 134.805 73.9045 134.766 73.9105 134.726C73.9164 134.685 73.9149 134.644 73.9045 134.604C73.8956 134.565 73.8777 134.527 73.8539 134.495C73.8316 134.462 73.8018 134.434 73.7676 134.413C73.7334 134.392 73.6962 134.378 73.656 134.372C73.6173 134.365 73.5771 134.367 73.5384 134.377C73.4997 134.387 73.464 134.405 73.4327 134.429C72.4728 135.166 71.5039 135.922 70.5603 136.674C70.5097 136.714 70.474 136.769 70.4546 136.832C70.4368 136.894 70.4383 136.96 70.4591 137.022C70.4799 137.083 70.5186 137.137 70.5707 137.174C70.6213 137.212 70.6838 137.232 70.7463 137.231ZM391.502 135.567C391.55 135.567 391.597 135.555 391.64 135.533C391.682 135.51 391.719 135.477 391.747 135.437C391.77 135.403 391.787 135.366 391.796 135.326C391.805 135.286 391.806 135.245 391.8 135.204C391.793 135.164 391.779 135.125 391.758 135.09C391.737 135.055 391.71 135.025 391.677 135.001C390.7 134.28 389.713 133.559 388.738 132.859C388.673 132.811 388.592 132.793 388.514 132.807C388.435 132.821 388.365 132.866 388.319 132.933C388.296 132.967 388.279 133.005 388.27 133.045C388.261 133.085 388.26 133.126 388.267 133.167C388.274 133.207 388.288 133.246 388.309 133.28C388.331 133.315 388.359 133.345 388.391 133.369C389.363 134.065 390.35 134.787 391.327 135.508C391.376 135.544 391.433 135.565 391.493 135.567H391.502ZM76.5284 132.806C76.5909 132.806 76.6519 132.785 76.7025 132.747C77.6655 132.035 78.6552 131.319 79.6419 130.617C79.6791 130.595 79.7104 130.567 79.7357 130.532C79.761 130.498 79.7789 130.458 79.7878 130.416C79.7982 130.374 79.7982 130.33 79.7908 130.288C79.7833 130.245 79.767 130.205 79.7432 130.169C79.7193 130.133 79.6881 130.103 79.6524 130.081C79.6166 130.058 79.5764 130.043 79.5348 130.037C79.4931 130.032 79.4514 130.035 79.4112 130.047C79.371 130.058 79.3339 130.079 79.3011 130.107C78.3114 130.809 77.3187 131.528 76.3528 132.24C76.3007 132.278 76.2605 132.332 76.2397 132.395C76.2188 132.458 76.2188 132.526 76.2382 132.589C76.2575 132.653 76.2962 132.708 76.3483 132.747C76.4004 132.786 76.4644 132.806 76.5284 132.806ZM385.591 131.319C385.641 131.32 385.689 131.307 385.733 131.283C385.777 131.259 385.814 131.225 385.841 131.183C385.887 131.115 385.904 131.031 385.889 130.95C385.874 130.869 385.829 130.797 385.763 130.75C384.767 130.054 383.759 129.36 382.77 128.685C382.737 128.662 382.699 128.646 382.66 128.638C382.621 128.629 382.581 128.629 382.541 128.637C382.502 128.645 382.465 128.661 382.431 128.684C382.398 128.707 382.37 128.737 382.348 128.771C382.326 128.806 382.31 128.844 382.303 128.885C382.296 128.925 382.296 128.967 382.304 129.008C382.313 129.048 382.329 129.086 382.352 129.12C382.375 129.154 382.404 129.183 382.438 129.205C383.425 129.877 384.429 130.57 385.422 131.267C385.472 131.3 385.531 131.318 385.591 131.319ZM82.4429 128.595C82.501 128.595 82.559 128.576 82.6081 128.542C83.6008 127.864 84.6144 127.184 85.6264 126.521C85.6592 126.499 85.6889 126.47 85.7112 126.437C85.7335 126.403 85.7499 126.365 85.7589 126.325C85.7663 126.285 85.7678 126.244 85.7604 126.204C85.7544 126.163 85.7395 126.125 85.7172 126.09C85.6963 126.056 85.6681 126.026 85.6353 126.003C85.6041 125.979 85.5669 125.963 85.5282 125.954C85.4895 125.945 85.4493 125.944 85.4106 125.951C85.3704 125.958 85.3332 125.973 85.3004 125.995C84.2914 126.661 83.2749 127.342 82.2822 128.023C82.2271 128.06 82.1854 128.113 82.1631 128.177C82.1408 128.24 82.1378 128.309 82.1571 128.373C82.1765 128.438 82.2137 128.494 82.2673 128.534C82.3194 128.574 82.3834 128.596 82.4489 128.595H82.4429ZM379.586 127.233C379.637 127.234 379.688 127.221 379.732 127.196C379.777 127.171 379.815 127.134 379.843 127.09C379.864 127.056 379.878 127.017 379.885 126.977C379.892 126.937 379.891 126.896 379.882 126.856C379.874 126.816 379.857 126.778 379.834 126.745C379.812 126.711 379.783 126.683 379.749 126.661C378.747 125.999 377.725 125.33 376.705 124.677C376.671 124.647 376.632 124.624 376.589 124.611C376.547 124.598 376.502 124.595 376.458 124.603C376.414 124.61 376.372 124.627 376.335 124.652C376.298 124.678 376.267 124.712 376.245 124.751C376.222 124.791 376.208 124.835 376.204 124.881C376.2 124.926 376.206 124.972 376.221 125.015C376.236 125.058 376.26 125.098 376.291 125.13C376.323 125.162 376.361 125.187 376.403 125.202C377.417 125.856 378.44 126.521 379.438 127.184C379.483 127.213 379.534 127.23 379.586 127.233ZM88.5048 124.596C88.5613 124.596 88.6164 124.58 88.664 124.55C89.6805 123.903 90.7164 123.259 91.7359 122.631C91.7761 122.614 91.8118 122.588 91.8416 122.556C91.8713 122.523 91.8937 122.485 91.9071 122.443C91.9205 122.4 91.9264 122.356 91.9219 122.312C91.9175 122.267 91.904 122.225 91.8817 122.186C91.8594 122.148 91.8297 122.115 91.7954 122.089C91.7597 122.064 91.7195 122.046 91.6778 122.038C91.6347 122.029 91.5915 122.031 91.5498 122.041C91.5082 122.052 91.468 122.071 91.4338 122.099C90.4113 122.721 89.374 123.371 88.353 124.021C88.2979 124.056 88.2548 124.11 88.231 124.172C88.2071 124.235 88.2041 124.304 88.222 124.369C88.2399 124.434 88.2771 124.491 88.3292 124.532C88.3812 124.573 88.4453 124.596 88.5107 124.596H88.5048ZM373.479 123.312C373.531 123.312 373.583 123.298 373.628 123.271C373.674 123.244 373.712 123.206 373.738 123.159C373.779 123.089 373.792 123.004 373.773 122.925C373.753 122.845 373.704 122.776 373.636 122.733C372.616 122.111 371.572 121.458 370.54 120.833C370.506 120.811 370.467 120.796 370.427 120.789C370.387 120.782 370.346 120.784 370.306 120.794C370.267 120.804 370.23 120.822 370.197 120.847C370.165 120.872 370.137 120.904 370.117 120.94C370.097 120.976 370.083 121.017 370.079 121.058C370.074 121.1 370.077 121.142 370.088 121.182C370.1 121.223 370.119 121.26 370.145 121.293C370.17 121.325 370.202 121.352 370.238 121.371C371.27 121.993 372.308 122.631 373.325 123.265C373.371 123.295 373.425 123.311 373.479 123.312ZM94.6931 120.808C94.7452 120.808 94.7958 120.794 94.8405 120.768C95.8734 120.146 96.9286 119.549 97.9734 118.952C98.0076 118.932 98.0389 118.904 98.0627 118.872C98.0865 118.839 98.1058 118.802 98.1163 118.762C98.1267 118.723 98.1296 118.681 98.1237 118.64C98.1192 118.599 98.1058 118.56 98.0865 118.524C98.0671 118.489 98.0403 118.457 98.0091 118.432C97.9763 118.407 97.9406 118.388 97.9019 118.377C97.8632 118.367 97.823 118.364 97.7843 118.369C97.7442 118.374 97.7055 118.387 97.6712 118.408C96.622 119.005 95.5594 119.617 94.5309 120.227C94.4729 120.261 94.4268 120.314 94.4015 120.377C94.3747 120.441 94.3702 120.511 94.3881 120.578C94.4044 120.644 94.4431 120.703 94.4967 120.745C94.5488 120.786 94.6143 120.809 94.6812 120.808H94.6931ZM367.272 119.565C367.326 119.564 367.378 119.55 367.424 119.522C367.47 119.494 367.508 119.454 367.535 119.406C367.574 119.334 367.584 119.249 367.562 119.17C367.541 119.091 367.489 119.024 367.42 118.983C366.379 118.361 365.308 117.761 364.276 117.17C364.241 117.15 364.203 117.136 364.163 117.131C364.124 117.126 364.083 117.129 364.045 117.14C364.006 117.151 363.97 117.169 363.939 117.194C363.907 117.219 363.881 117.251 363.861 117.287C363.841 117.322 363.828 117.362 363.823 117.403C363.818 117.443 363.821 117.485 363.832 117.525C363.842 117.564 363.86 117.602 363.884 117.634C363.909 117.667 363.939 117.694 363.974 117.714C365.015 118.305 366.086 118.915 367.109 119.521C367.159 119.55 367.215 119.564 367.272 119.561V119.565ZM100.993 117.229C101.044 117.229 101.091 117.216 101.136 117.192C102.179 116.62 103.248 116.044 104.322 115.478C104.392 115.44 104.446 115.376 104.47 115.298C104.494 115.219 104.488 115.135 104.452 115.062C104.416 114.988 104.352 114.933 104.276 114.907C104.2 114.882 104.119 114.888 104.047 114.925C102.976 115.491 101.9 116.069 100.852 116.644C100.792 116.677 100.746 116.729 100.719 116.793C100.693 116.856 100.687 116.927 100.703 116.994C100.719 117.061 100.757 117.12 100.809 117.163C100.862 117.205 100.926 117.229 100.993 117.229ZM360.966 115.985C361.021 115.986 361.075 115.97 361.122 115.941C361.17 115.912 361.208 115.871 361.234 115.82C361.253 115.784 361.265 115.744 361.268 115.703C361.272 115.662 361.268 115.621 361.257 115.582C361.245 115.542 361.225 115.506 361.2 115.474C361.174 115.442 361.143 115.416 361.107 115.397C360.052 114.819 358.977 114.238 357.918 113.678C357.883 113.655 357.843 113.641 357.801 113.635C357.761 113.629 357.72 113.632 357.679 113.643C357.639 113.654 357.602 113.674 357.569 113.701C357.538 113.728 357.511 113.761 357.492 113.799C357.473 113.837 357.462 113.879 357.459 113.921C357.456 113.964 357.462 114.007 357.476 114.047C357.489 114.087 357.511 114.124 357.54 114.155C357.568 114.186 357.602 114.211 357.641 114.228C358.699 114.791 359.771 115.369 360.824 115.948C360.867 115.972 360.916 115.985 360.966 115.985ZM107.4 113.846C107.446 113.846 107.491 113.835 107.533 113.815C108.607 113.267 109.695 112.726 110.77 112.201C110.843 112.165 110.898 112.102 110.926 112.024C110.953 111.946 110.948 111.86 110.914 111.785C110.878 111.711 110.817 111.653 110.742 111.626C110.666 111.598 110.584 111.602 110.511 111.638C109.433 112.166 108.344 112.711 107.266 113.255C107.205 113.286 107.156 113.337 107.126 113.401C107.097 113.464 107.089 113.536 107.104 113.605C107.121 113.674 107.158 113.735 107.211 113.778C107.265 113.822 107.332 113.846 107.4 113.846ZM354.569 112.602C354.637 112.603 354.704 112.58 354.758 112.536C354.813 112.493 354.85 112.431 354.867 112.362C354.883 112.294 354.875 112.221 354.846 112.157C354.816 112.093 354.767 112.042 354.704 112.011C353.627 111.457 352.537 110.91 351.47 110.381C351.435 110.362 351.394 110.351 351.354 110.347C351.314 110.344 351.274 110.349 351.235 110.362C351.198 110.376 351.162 110.396 351.131 110.424C351.101 110.451 351.077 110.485 351.059 110.522C351.042 110.56 351.031 110.6 351.03 110.642C351.027 110.683 351.034 110.725 351.048 110.764C351.061 110.803 351.082 110.839 351.11 110.869C351.137 110.9 351.17 110.924 351.207 110.941C352.272 111.47 353.359 112.017 354.436 112.568C354.475 112.584 354.517 112.591 354.56 112.589L354.569 112.602ZM113.903 110.677C113.944 110.677 113.988 110.667 114.026 110.649C115.107 110.142 116.211 109.632 117.306 109.134C117.342 109.118 117.375 109.095 117.403 109.065C117.431 109.036 117.452 109.001 117.467 108.963C117.482 108.925 117.49 108.884 117.488 108.843C117.488 108.802 117.479 108.761 117.463 108.724C117.446 108.686 117.424 108.653 117.396 108.625C117.366 108.596 117.333 108.574 117.296 108.56C117.259 108.545 117.219 108.538 117.18 108.539C117.14 108.54 117.101 108.549 117.065 108.565C115.967 109.063 114.858 109.573 113.776 110.083C113.739 110.1 113.708 110.124 113.679 110.154C113.653 110.184 113.632 110.22 113.618 110.258C113.605 110.296 113.599 110.337 113.601 110.378C113.602 110.419 113.611 110.459 113.627 110.496C113.654 110.548 113.693 110.591 113.742 110.621C113.79 110.651 113.846 110.666 113.903 110.664V110.677ZM348.084 109.389C348.153 109.39 348.22 109.366 348.275 109.321C348.328 109.277 348.366 109.215 348.381 109.145C348.395 109.076 348.386 109.003 348.355 108.939C348.325 108.876 348.273 108.825 348.211 108.795C347.124 108.276 346.02 107.76 344.934 107.259C344.898 107.239 344.858 107.228 344.816 107.224C344.776 107.221 344.734 107.226 344.695 107.24C344.657 107.254 344.62 107.276 344.59 107.305C344.56 107.333 344.535 107.368 344.518 107.407C344.501 107.445 344.492 107.487 344.492 107.53C344.49 107.572 344.499 107.614 344.514 107.653C344.53 107.693 344.554 107.728 344.584 107.758C344.612 107.787 344.648 107.81 344.687 107.825C345.773 108.326 346.874 108.842 347.958 109.361C347.998 109.375 348.041 109.381 348.084 109.377V109.389ZM120.49 107.691C120.53 107.692 120.57 107.684 120.608 107.667C121.697 107.191 122.816 106.715 123.926 106.249C123.964 106.233 123.996 106.21 124.025 106.181C124.053 106.153 124.075 106.118 124.09 106.081C124.105 106.043 124.114 106.003 124.114 105.962C124.114 105.921 124.107 105.88 124.09 105.843C124.075 105.805 124.053 105.771 124.026 105.742C123.998 105.713 123.965 105.69 123.928 105.674C123.891 105.658 123.852 105.65 123.812 105.65C123.773 105.65 123.733 105.658 123.697 105.673C122.581 106.14 121.462 106.606 120.378 107.094C120.314 107.122 120.261 107.172 120.229 107.236C120.197 107.299 120.186 107.372 120.2 107.442C120.215 107.513 120.252 107.576 120.305 107.621C120.359 107.666 120.426 107.691 120.496 107.691H120.49ZM341.515 106.364C341.585 106.363 341.652 106.339 341.705 106.293C341.759 106.248 341.796 106.185 341.81 106.115C341.825 106.044 341.814 105.971 341.781 105.908C341.749 105.845 341.697 105.795 341.633 105.767C340.528 105.278 339.412 104.793 338.314 104.327C338.242 104.304 338.165 104.31 338.096 104.343C338.029 104.376 337.976 104.434 337.946 104.505C337.918 104.577 337.916 104.657 337.942 104.729C337.967 104.802 338.017 104.863 338.084 104.899C339.177 105.365 340.293 105.851 341.403 106.339C341.439 106.351 341.478 106.355 341.515 106.351V106.364ZM127.169 104.893C127.208 104.893 127.244 104.886 127.278 104.871C128.393 104.423 129.524 103.978 130.649 103.543C130.686 103.529 130.721 103.507 130.749 103.479C130.779 103.451 130.801 103.417 130.817 103.38C130.834 103.343 130.843 103.302 130.844 103.262C130.846 103.221 130.838 103.18 130.825 103.142C130.81 103.104 130.789 103.069 130.762 103.039C130.734 103.009 130.703 102.985 130.665 102.969C130.63 102.952 130.591 102.943 130.551 102.941C130.512 102.94 130.472 102.947 130.435 102.961C129.31 103.397 128.176 103.845 127.058 104.293C126.994 104.319 126.939 104.368 126.905 104.432C126.872 104.495 126.86 104.569 126.873 104.64C126.887 104.711 126.924 104.776 126.977 104.822C127.031 104.868 127.099 104.893 127.169 104.893ZM334.865 103.531C334.935 103.531 335.004 103.506 335.057 103.46C335.111 103.413 335.148 103.349 335.161 103.278C335.175 103.207 335.163 103.133 335.13 103.07C335.096 103.006 335.041 102.957 334.977 102.93C333.856 102.473 332.728 102.019 331.618 101.584C331.543 101.555 331.46 101.557 331.387 101.591C331.314 101.625 331.258 101.687 331.228 101.764C331.2 101.841 331.203 101.927 331.235 102.002C331.268 102.077 331.329 102.136 331.403 102.165C332.511 102.601 333.636 103.052 334.754 103.509C334.789 103.519 334.827 103.522 334.865 103.518V103.531ZM133.932 102.287C133.967 102.287 134.002 102.28 134.035 102.268C135.169 101.848 136.317 101.432 137.436 101.024C137.509 100.995 137.568 100.938 137.601 100.865C137.634 100.792 137.638 100.709 137.613 100.633C137.588 100.557 137.534 100.494 137.464 100.457C137.394 100.42 137.314 100.413 137.239 100.436C136.117 100.834 134.97 101.251 133.83 101.68C133.763 101.705 133.708 101.754 133.672 101.817C133.636 101.88 133.623 101.954 133.636 102.026C133.648 102.098 133.684 102.164 133.739 102.211C133.792 102.258 133.861 102.283 133.932 102.284V102.287ZM328.141 100.869C328.213 100.869 328.281 100.843 328.336 100.796C328.39 100.749 328.427 100.683 328.439 100.611C328.451 100.539 328.439 100.465 328.403 100.402C328.367 100.339 328.311 100.29 328.244 100.265C327.125 99.8455 325.985 99.4257 324.852 99.0214C324.778 98.9942 324.694 98.9991 324.621 99.035C324.55 99.0708 324.495 99.1347 324.468 99.2127C324.441 99.2907 324.446 99.3761 324.481 99.4505C324.516 99.5249 324.578 99.582 324.654 99.6092C325.782 100.017 326.922 100.433 328.035 100.853C328.07 100.864 328.105 100.87 328.141 100.869ZM140.758 99.833C140.789 99.839 140.82 99.839 140.851 99.833C141.988 99.4474 143.142 99.0619 144.285 98.6918C144.361 98.6666 144.425 98.6112 144.462 98.5377C144.499 98.4643 144.505 98.3788 144.481 98.3C144.458 98.2213 144.403 98.1556 144.331 98.1177C144.261 98.0799 144.178 98.0727 144.1 98.0979C142.957 98.471 141.802 98.8567 140.664 99.2422C140.595 99.2654 140.539 99.3126 140.5 99.3757C140.463 99.4388 140.45 99.5135 140.46 99.5864C140.472 99.6595 140.508 99.7259 140.563 99.774C140.616 99.822 140.686 99.8485 140.758 99.8487V99.833ZM321.347 98.4274C321.412 98.4308 321.478 98.4116 321.533 98.3728C321.587 98.3341 321.628 98.2778 321.648 98.213C321.673 98.135 321.667 98.05 321.631 97.9766C321.596 97.9032 321.533 97.8473 321.459 97.8211C320.326 97.4323 319.174 97.0468 318.033 96.6704C317.957 96.6452 317.873 96.6524 317.802 96.6903C317.732 96.7283 317.677 96.7938 317.653 96.8725C317.629 96.9514 317.635 97.0368 317.672 97.1104C317.71 97.1839 317.772 97.2393 317.849 97.2644C318.989 97.6375 320.14 98.0232 321.268 98.4088C321.292 98.4225 321.319 98.4319 321.347 98.4368V98.4274ZM147.641 97.5941C147.671 97.5933 147.699 97.5881 147.727 97.5785C148.857 97.2271 150.021 96.8756 151.186 96.5274C151.262 96.5043 151.326 96.4512 151.365 96.3796C151.403 96.308 151.412 96.2236 151.392 96.1449C151.369 96.0658 151.319 95.9988 151.249 95.9587C151.179 95.9185 151.097 95.9084 151.02 95.9304C149.853 96.2787 148.684 96.6332 147.553 96.9846C147.473 96.9965 147.401 97.0407 147.352 97.1075C147.305 97.1742 147.284 97.2582 147.294 97.3406C147.306 97.4231 147.349 97.4975 147.415 97.5474C147.479 97.5972 147.561 97.6185 147.641 97.6064V97.5941ZM314.49 96.2039C314.571 96.216 314.653 96.1947 314.717 96.1449C314.782 96.095 314.825 96.0206 314.836 95.9381C314.848 95.8557 314.827 95.7717 314.779 95.705C314.73 95.6382 314.659 95.594 314.578 95.5821C313.438 95.2276 312.276 94.873 311.124 94.534C311.046 94.5109 310.965 94.5203 310.893 94.5599C310.823 94.5996 310.771 94.6663 310.749 94.7455C310.738 94.7848 310.734 94.8259 310.738 94.8664C310.743 94.907 310.755 94.9463 310.774 94.9821C310.793 95.0179 310.819 95.0496 310.85 95.075C310.881 95.1006 310.917 95.1197 310.954 95.1311C312.105 95.47 313.265 95.8214 314.403 96.176C314.431 96.1903 314.461 96.1996 314.49 96.2039ZM154.566 95.5571C154.593 95.5602 154.62 95.5602 154.646 95.5571C155.791 95.2462 156.961 94.9104 158.126 94.5962C158.168 94.5888 158.207 94.5727 158.241 94.5489C158.275 94.5252 158.305 94.4943 158.327 94.4582C158.351 94.4221 158.366 94.3816 158.372 94.3392C158.379 94.2969 158.376 94.2536 158.366 94.2121C158.355 94.1704 158.337 94.1315 158.311 94.0979C158.285 94.0641 158.253 94.0361 158.217 94.0159C158.18 93.9956 158.14 93.9834 158.098 93.98C158.056 93.9766 158.015 93.9821 157.976 93.9961C156.808 94.307 155.633 94.6336 154.487 94.957C154.407 94.9677 154.334 95.0107 154.285 95.0767C154.236 95.1426 154.215 95.2259 154.225 95.3084C154.236 95.3908 154.277 95.4657 154.341 95.5165C154.405 95.5672 154.486 95.5897 154.566 95.579V95.5571ZM307.55 94.1577C307.619 94.1601 307.686 94.1387 307.741 94.097C307.794 94.0552 307.835 93.9955 307.853 93.9276C307.863 93.8882 307.866 93.8471 307.861 93.8065C307.855 93.766 307.844 93.7269 307.824 93.6913C307.803 93.6557 307.778 93.6246 307.747 93.5994C307.716 93.5744 307.68 93.556 307.641 93.5451C306.498 93.2342 305.327 92.9231 304.159 92.6122C304.081 92.5917 303.999 92.6036 303.929 92.6455C303.861 92.6875 303.81 92.7561 303.791 92.8361C303.77 92.9161 303.782 93.001 303.824 93.0723C303.864 93.1434 303.931 93.1949 304.008 93.2154C305.172 93.5265 306.343 93.8374 307.485 94.1485C307.515 94.1537 307.544 94.1527 307.574 94.1454L307.55 94.1577ZM161.53 93.6789H161.606C162.77 93.3679 163.95 93.088 165.105 92.805C165.146 92.7984 165.187 92.7832 165.221 92.7602C165.257 92.7371 165.286 92.7069 165.31 92.6713C165.333 92.6357 165.349 92.5955 165.356 92.5533C165.364 92.511 165.362 92.4677 165.353 92.426C165.343 92.3842 165.325 92.345 165.3 92.3107C165.276 92.2764 165.243 92.2479 165.208 92.2269C165.172 92.2057 165.132 92.1926 165.09 92.1883C165.048 92.184 165.007 92.1886 164.966 92.2017C163.809 92.4817 162.628 92.777 161.457 93.0755C161.38 93.0955 161.313 93.1462 161.272 93.2168C161.231 93.2873 161.217 93.3719 161.237 93.4518C161.258 93.5195 161.301 93.5777 161.359 93.6169C161.417 93.6559 161.485 93.6734 161.554 93.6664L161.53 93.6789ZM300.581 92.3136C300.649 92.3156 300.718 92.2928 300.773 92.2492C300.828 92.2056 300.866 92.1438 300.881 92.0742C300.901 91.9942 300.887 91.9101 300.846 91.8402C300.804 91.7702 300.737 91.7202 300.658 91.701C299.5 91.4118 298.32 91.1258 297.153 90.8521C297.074 90.8336 296.992 90.8477 296.924 90.8914C296.857 90.9351 296.808 91.0049 296.79 91.0853C296.772 91.1658 296.785 91.2502 296.829 91.3202C296.87 91.3903 296.939 91.44 297.016 91.4586C298.184 91.7321 299.362 92.0151 300.517 92.3044L300.581 92.3136ZM168.552 91.9779H168.617C169.789 91.7104 170.975 91.4461 172.136 91.1942C172.177 91.1889 172.217 91.1749 172.253 91.1529C172.29 91.131 172.32 91.1015 172.345 91.0664C172.369 91.0314 172.387 90.9915 172.395 90.9494C172.403 90.9073 172.403 90.8637 172.395 90.8215C172.387 90.7793 172.369 90.7395 172.345 90.7044C172.32 90.6694 172.289 90.64 172.253 90.6179C172.217 90.5961 172.177 90.5819 172.136 90.5767C172.095 90.5715 172.052 90.5754 172.012 90.5877C170.848 90.8397 169.662 91.104 168.485 91.3714C168.407 91.3892 168.339 91.4382 168.296 91.5077C168.253 91.577 168.239 91.6611 168.256 91.7415C168.275 91.8115 168.318 91.8722 168.376 91.9131C168.434 91.954 168.506 91.9725 168.576 91.9654L168.552 91.9779ZM293.565 90.6685C293.645 90.6773 293.724 90.6528 293.787 90.6007C293.851 90.5484 293.889 90.4728 293.898 90.3902C293.907 90.3078 293.883 90.2253 293.833 90.1609C293.782 90.0964 293.708 90.0553 293.627 90.0467C292.463 89.7916 291.274 89.5398 290.1 89.3003C290.061 89.2921 290.021 89.2919 289.982 89.2997C289.944 89.3074 289.907 89.3231 289.874 89.3455C289.841 89.3682 289.813 89.3972 289.79 89.431C289.768 89.4649 289.752 89.5029 289.744 89.5429C289.737 89.5831 289.737 89.6246 289.744 89.6648C289.752 89.7051 289.768 89.7434 289.789 89.7776C289.811 89.8117 289.84 89.8409 289.874 89.8636C289.907 89.8863 289.944 89.902 289.982 89.9098C291.157 90.1492 292.34 90.4012 293.501 90.6562L293.565 90.6685ZM175.606 90.4509H175.667C176.843 90.2115 178.032 89.9751 179.204 89.7544C179.242 89.7469 179.279 89.7315 179.312 89.7091C179.346 89.6868 179.375 89.6579 179.397 89.6242C179.419 89.5904 179.436 89.5523 179.443 89.5122C179.452 89.472 179.452 89.4307 179.445 89.3905C179.437 89.3503 179.422 89.3119 179.4 89.2775C179.379 89.2431 179.351 89.2137 179.318 89.1906C179.285 89.1674 179.248 89.1512 179.209 89.1428C179.171 89.1345 179.131 89.134 179.092 89.1418C177.921 89.3656 176.728 89.5988 175.548 89.8383C175.51 89.8461 175.472 89.8618 175.44 89.8845C175.407 89.9072 175.377 89.9366 175.356 89.9706C175.334 90.0047 175.318 90.043 175.31 90.0833C175.303 90.1235 175.303 90.165 175.31 90.2052C175.328 90.2759 175.37 90.338 175.426 90.3805C175.484 90.4231 175.554 90.4437 175.624 90.4384L175.606 90.4509ZM286.507 89.2257C286.586 89.2332 286.667 89.2074 286.728 89.1544C286.79 89.1013 286.829 89.0252 286.836 88.9426C286.844 88.8602 286.818 88.7782 286.766 88.7146C286.716 88.6511 286.641 88.6112 286.561 88.6037C285.459 88.3922 284.34 88.187 283.242 87.9817L283.025 87.9445C282.984 87.9377 282.944 87.9392 282.906 87.9485C282.867 87.9579 282.83 87.9752 282.797 87.9993C282.764 88.0234 282.736 88.0539 282.715 88.089C282.694 88.1242 282.679 88.1633 282.673 88.2041C282.666 88.245 282.667 88.2867 282.676 88.327C282.687 88.3674 282.703 88.4055 282.727 88.4391C282.749 88.4727 282.779 88.5013 282.813 88.5231C282.848 88.5449 282.886 88.5597 282.925 88.5664L283.139 88.6037C284.247 88.7996 285.366 89.0048 286.458 89.2257H286.507ZM182.707 89.1013H182.758C183.926 88.8929 185.121 88.6877 186.306 88.4793C186.346 88.473 186.383 88.4588 186.419 88.4372C186.453 88.4157 186.483 88.3875 186.505 88.3541C186.529 88.3208 186.547 88.283 186.556 88.2428C186.566 88.2028 186.568 88.1609 186.562 88.1202C186.556 88.0794 186.541 88.0401 186.52 88.0048C186.499 87.9695 186.472 87.9387 186.44 87.9145C186.407 87.89 186.371 87.8723 186.331 87.8627C186.292 87.8528 186.252 87.8511 186.212 87.8575C185.005 88.0533 183.826 88.2586 182.655 88.4793C182.575 88.4863 182.502 88.5259 182.45 88.5891C182.397 88.6524 182.372 88.7343 182.38 88.8167C182.386 88.8992 182.424 88.9755 182.485 89.0289C182.546 89.0822 182.627 89.1083 182.707 89.1013ZM279.424 87.9694C279.465 87.9724 279.505 87.9674 279.542 87.9546C279.579 87.9418 279.615 87.9215 279.645 87.8948C279.674 87.868 279.7 87.8354 279.718 87.799C279.735 87.7623 279.746 87.7225 279.749 87.6817C279.752 87.6409 279.747 87.5998 279.735 87.561C279.722 87.522 279.703 87.486 279.677 87.455C279.651 87.4239 279.619 87.3984 279.584 87.38C279.548 87.3615 279.509 87.3505 279.471 87.3474C278.299 87.1576 277.101 86.9743 275.909 86.797C275.83 86.7849 275.748 86.8064 275.683 86.8562C275.619 86.9061 275.576 86.9804 275.564 87.0628C275.552 87.1453 275.573 87.2292 275.622 87.2959C275.669 87.3627 275.742 87.4069 275.823 87.419C277.013 87.5961 278.208 87.7796 279.377 87.9694H279.424ZM189.806 87.9134H189.852C191.022 87.733 192.223 87.5589 193.412 87.391C193.493 87.3798 193.564 87.3364 193.613 87.2701C193.662 87.2039 193.685 87.1204 193.673 87.038C193.662 86.9555 193.621 86.8808 193.557 86.8303C193.491 86.7799 193.411 86.7578 193.331 86.769C192.123 86.9369 190.937 87.111 189.765 87.2914C189.724 87.2943 189.686 87.3051 189.65 87.3234C189.614 87.3417 189.583 87.367 189.558 87.3978C189.531 87.4288 189.512 87.4647 189.498 87.5035C189.486 87.5424 189.48 87.5833 189.483 87.6242C189.486 87.665 189.497 87.7049 189.514 87.7415C189.532 87.7781 189.556 87.8109 189.587 87.8377C189.617 87.8646 189.651 87.885 189.689 87.8981C189.727 87.911 189.768 87.9162 189.806 87.9134ZM272.288 86.9183C272.362 86.9189 272.434 86.8918 272.489 86.8419C272.545 86.7921 272.581 86.723 272.59 86.6477C272.601 86.566 272.58 86.4835 272.531 86.4183C272.481 86.353 272.41 86.3103 272.331 86.2994C271.163 86.1439 269.959 85.9884 268.755 85.8485C268.676 85.8388 268.597 85.8618 268.533 85.9126C268.47 85.9632 268.43 86.0375 268.42 86.119C268.415 86.1597 268.418 86.2009 268.43 86.2402C268.441 86.2796 268.459 86.3164 268.484 86.3484C268.508 86.3805 268.539 86.4072 268.573 86.4271C268.607 86.4469 268.646 86.4596 268.686 86.4642C269.893 86.6103 271.1 86.7753 272.252 86.9183H272.288ZM196.943 86.9183H196.978C198.185 86.7659 199.375 86.6072 200.552 86.4798C200.631 86.4704 200.704 86.4292 200.753 86.3651C200.802 86.3011 200.826 86.2194 200.817 86.1376C200.814 86.097 200.802 86.0577 200.782 86.0217C200.763 85.9858 200.738 85.9541 200.707 85.9284C200.677 85.9028 200.641 85.8836 200.602 85.872C200.565 85.8604 200.525 85.8566 200.485 85.861C199.303 86.0009 198.099 86.147 196.907 86.2994C196.827 86.3043 196.752 86.3418 196.699 86.4036C196.645 86.4655 196.618 86.5465 196.623 86.6291C196.627 86.7116 196.664 86.7887 196.724 86.8434C196.783 86.8983 196.862 86.9263 196.943 86.9214V86.9183ZM204.097 86.0879H204.127C205.304 85.9635 206.508 85.8453 207.706 85.7365C207.746 85.733 207.785 85.7215 207.819 85.7024C207.855 85.6835 207.886 85.6575 207.911 85.6259C207.937 85.5945 207.956 85.5581 207.968 85.5189C207.98 85.4796 207.984 85.4384 207.98 85.3976C207.972 85.3155 207.934 85.24 207.873 85.1875C207.81 85.1349 207.731 85.1099 207.651 85.1177C206.444 85.2265 205.238 85.3446 204.067 85.4691C204.027 85.4711 203.988 85.4813 203.953 85.4987C203.917 85.5162 203.884 85.5408 203.857 85.5712C203.832 85.6015 203.811 85.637 203.798 85.6755C203.784 85.7139 203.778 85.7548 203.78 85.7956C203.783 85.8364 203.792 85.8764 203.81 85.9135C203.826 85.9504 203.85 85.9836 203.88 86.011C203.909 86.0384 203.944 86.0597 203.981 86.0733C204.018 86.087 204.058 86.0931 204.097 86.0911V86.0879ZM265.14 86.0725C265.22 86.0769 265.299 86.0485 265.358 85.9934C265.418 85.9383 265.454 85.861 265.458 85.7785C265.463 85.696 265.436 85.6151 265.382 85.5536C265.329 85.4921 265.253 85.4549 265.174 85.4505C263.985 85.326 262.781 85.2047 261.586 85.0928C261.505 85.0854 261.426 85.111 261.364 85.1641C261.303 85.2172 261.264 85.2933 261.257 85.3757C261.249 85.4583 261.275 85.5404 261.327 85.6039C261.377 85.6675 261.452 85.7074 261.532 85.7148C262.739 85.8267 263.927 85.948 265.11 86.0725H265.14ZM211.263 85.4287H211.288C212.495 85.3323 213.701 85.2452 214.872 85.1644C214.953 85.1587 215.025 85.1209 215.079 85.0592C215.131 84.9974 215.158 84.9167 215.153 84.8347C215.151 84.7938 215.14 84.7539 215.124 84.717C215.106 84.6802 215.082 84.6472 215.052 84.6201C215.023 84.593 214.988 84.572 214.95 84.5588C214.912 84.5454 214.872 84.5399 214.834 84.5424C213.647 84.6232 212.44 84.7134 211.242 84.8099C211.162 84.8127 211.087 84.8483 211.032 84.9085C210.977 84.969 210.949 85.0492 210.951 85.1316C210.954 85.2141 210.989 85.2921 211.047 85.3484C211.105 85.4046 211.184 85.4347 211.263 85.4317V85.4287ZM258 85.3914C258.081 85.3946 258.16 85.365 258.218 85.3091C258.277 85.2531 258.311 85.1753 258.314 85.0928C258.317 85.0103 258.289 84.93 258.235 84.8692C258.18 84.8087 258.104 84.7727 258.026 84.7694C256.842 84.6729 255.635 84.5827 254.431 84.5019C254.391 84.4994 254.352 84.505 254.314 84.5183C254.277 84.5317 254.242 84.5525 254.213 84.5796C254.183 84.6068 254.159 84.6397 254.141 84.6767C254.123 84.7134 254.114 84.7535 254.111 84.7942C254.107 84.8762 254.134 84.9569 254.186 85.0187C254.238 85.0805 254.312 85.1183 254.393 85.1239C255.6 85.2047 256.807 85.2949 257.979 85.3882L258 85.3914ZM218.472 84.9341C219.679 84.8658 220.886 84.8067 222.064 84.757C222.104 84.757 222.144 84.7485 222.183 84.7319C222.22 84.7154 222.254 84.6909 222.282 84.6604C222.311 84.6299 222.332 84.5938 222.346 84.5542C222.36 84.5147 222.367 84.4726 222.364 84.4305C222.361 84.3507 222.327 84.2755 222.271 84.2205C222.215 84.1655 222.141 84.1349 222.064 84.135C220.88 84.1847 219.67 84.247 218.469 84.3123C218.389 84.3123 218.313 84.345 218.255 84.4034C218.199 84.4617 218.167 84.5408 218.167 84.6232C218.167 84.7057 218.199 84.7849 218.255 84.8431C218.313 84.9014 218.389 84.9341 218.469 84.9341H218.472ZM250.825 84.9062C250.906 84.9062 250.983 84.8734 251.039 84.8151C251.096 84.7569 251.127 84.6777 251.127 84.5952C251.127 84.5128 251.096 84.4336 251.039 84.3754C250.983 84.3171 250.906 84.2843 250.825 84.2843C249.618 84.219 248.411 84.1599 247.225 84.1102C247.146 84.1068 247.067 84.1364 247.009 84.1923C246.95 84.2484 246.915 84.3261 246.912 84.4086C246.908 84.4912 246.938 84.5716 246.991 84.6322C247.046 84.6929 247.121 84.7287 247.201 84.732C248.387 84.7819 249.594 84.841 250.792 84.9062H250.825ZM225.656 84.6201C226.84 84.5827 228.047 84.5518 229.248 84.5299C229.328 84.5299 229.404 84.4972 229.461 84.4388C229.517 84.3806 229.55 84.3014 229.55 84.219C229.55 84.1365 229.517 84.0573 229.461 83.9991C229.404 83.9408 229.328 83.9081 229.248 83.9081C228.041 83.9298 226.834 83.9609 225.651 83.9981C225.57 83.9981 225.494 84.031 225.438 84.0892C225.381 84.1475 225.348 84.2267 225.348 84.3092C225.348 84.3916 225.381 84.4707 225.438 84.529C225.494 84.5874 225.57 84.6201 225.651 84.6201H225.656ZM243.635 84.6046C243.716 84.6046 243.791 84.5719 243.848 84.5135C243.905 84.4552 243.937 84.376 243.937 84.2935C243.937 84.2111 243.905 84.1321 243.848 84.0737C243.791 84.0154 243.716 83.9826 243.635 83.9826C242.428 83.9453 241.221 83.9173 240.032 83.8956C239.952 83.8956 239.876 83.9283 239.819 83.9866C239.763 84.045 239.73 84.124 239.73 84.2065C239.73 84.2889 239.763 84.3681 239.819 84.4265C239.876 84.4848 239.952 84.5175 240.032 84.5175C241.239 84.5393 242.446 84.5673 243.626 84.6046H243.635ZM232.845 84.4833C234.052 84.4833 235.249 84.4833 236.438 84.4833C236.518 84.4833 236.596 84.4506 236.652 84.3922C236.709 84.3339 236.74 84.2549 236.74 84.1724C236.74 84.0898 236.709 84.0108 236.652 83.9524C236.596 83.8941 236.518 83.8613 236.438 83.8613C235.231 83.8613 234.031 83.8613 232.839 83.8613C232.759 83.8613 232.681 83.8941 232.625 83.9524C232.568 84.0108 232.537 84.0898 232.537 84.1724C232.537 84.2549 232.568 84.3339 232.625 84.3922C232.681 84.4506 232.759 84.4833 232.839 84.4833H232.845Z" fill="#1A2E44"/>
<path d="M18.1048 10.4052C18.1033 9.10335 18.3623 7.8139 18.8668 6.61061C19.3713 5.40732 20.1125 4.31383 21.0487 3.39271C21.9833 2.47158 23.0936 1.74093 24.317 1.24254C25.5389 0.744163 26.85 0.487853 28.1731 0.488282H159.333C160.656 0.487853 161.967 0.744133 163.191 1.24248C164.413 1.74082 165.524 2.47143 166.459 3.39251C167.395 4.31359 168.136 5.40707 168.642 6.61037C169.147 7.81368 169.406 9.1032 169.404 10.4052V12.6812H18.1048V10.4052Z" fill="#1A2E44" stroke="#1A2E44" stroke-width="0.254932" stroke-linecap="round" stroke-linejoin="round"/>
<path d="M169.404 12.6807V105.841C169.406 107.142 169.145 108.431 168.639 109.634C168.135 110.836 167.392 111.929 166.457 112.849C165.521 113.77 164.411 114.5 163.189 114.998C161.966 115.496 160.656 115.752 159.333 115.751H28.1731C26.8515 115.752 25.5418 115.496 24.3199 114.999C23.0995 114.501 21.9893 113.772 21.0546 112.853C20.1199 111.933 19.3773 110.842 18.8712 109.64C18.3652 108.439 18.1048 107.151 18.1048 105.851V12.6807H169.404Z" fill="white" stroke="#1A2E44" stroke-width="0.509865" stroke-linecap="round" stroke-linejoin="round"/>
<path d="M31.5275 32.7754H127.575V36.7941H31.5275V32.7754Z" fill="white" stroke="#1A2E44" stroke-width="0.509865" stroke-linecap="round" stroke-linejoin="round"/>
<path d="M91.9467 42.1553H127.575V46.174H91.9467V42.1553Z" fill="white" stroke="#1A2E44" stroke-width="0.509865" stroke-linecap="round" stroke-linejoin="round"/>
<path d="M147.586 51.0124C141.384 51.0124 136.355 46.0688 136.355 39.9706C136.355 33.8723 141.384 28.9287 147.586 28.9287C153.789 28.9287 158.818 33.8723 158.818 39.9706C158.818 46.0688 153.789 51.0124 147.586 51.0124Z" fill="#69AEFF" stroke="#1A2E44" stroke-width="0.509865" stroke-linecap="round" stroke-linejoin="round"/>
<path d="M31.5275 70.5049H127.575V74.5236H31.5275V70.5049Z" fill="white" stroke="#1A2E44" stroke-width="0.509865" stroke-linecap="round" stroke-linejoin="round"/>
<path d="M91.9467 79.8848H127.575V83.9035H91.9467V79.8848Z" fill="white" stroke="#1A2E44" stroke-width="0.509865" stroke-linecap="round" stroke-linejoin="round"/>
<path d="M147.586 88.7419C141.384 88.7419 136.355 83.7983 136.355 77.7001C136.355 71.6018 141.384 66.6582 147.586 66.6582C153.789 66.6582 158.818 71.6018 158.818 77.7001C158.818 83.7983 153.789 88.7419 147.586 88.7419Z" fill="#69AEFF" stroke="#1A2E44" stroke-width="0.509865" stroke-linecap="round" stroke-linejoin="round"/>
<path d="M147.585 80.8412C147.91 80.8424 148.222 80.7268 148.465 80.5162L155.697 74.166C155.96 73.9362 156.119 73.6131 156.14 73.2676C156.161 72.9222 156.042 72.5828 155.808 72.3242C155.575 72.0653 155.246 71.9086 154.895 71.8882C154.543 71.8677 154.198 71.9854 153.935 72.2152L147.74 77.6516L138.031 65.8294C137.804 65.5815 137.49 65.4281 137.154 65.4009C136.816 65.3736 136.481 65.4745 136.218 65.6827C135.953 65.891 135.78 66.1909 135.736 66.5206C135.689 66.8502 135.773 67.1847 135.971 67.4551L146.548 80.3405C146.661 80.4775 146.8 80.5906 146.959 80.6727C147.118 80.7549 147.291 80.8045 147.469 80.8185L147.585 80.8412Z" fill="#1A2E44"/>
<path d="M460.403 249.794C460.201 249.282 476.372 205.597 507.513 209.784C501.144 240.185 488.55 257.077 478.968 259.345H460.401L460.403 249.794Z" fill="#69AEFF" stroke="#1A2E44" stroke-linecap="round" stroke-linejoin="round"/>
<path d="M440.981 259.397C440.981 259.397 416.048 241.861 426.022 216.798C446.279 218.53 452.048 259.397 452.048 259.397H440.981Z" fill="#1A2E44" stroke="#1A2E44" stroke-linecap="round" stroke-linejoin="round"/>
<path d="M465.405 259.334C465.405 259.334 469.797 208.311 445.244 193.678C439.254 240.707 444.644 259.334 444.644 259.334H465.405Z" fill="#69AEFF" stroke="#1A2E44" stroke-linecap="round" stroke-linejoin="round"/>
<path d="M466.391 260.321C466.362 260.321 466.333 260.316 466.306 260.308C466.274 260.297 466.245 260.279 466.219 260.257C466.194 260.235 466.173 260.208 466.159 260.178C466.144 260.147 466.135 260.114 466.134 260.08C466.132 260.047 466.136 260.013 466.148 259.982C470.805 246.696 480.402 234.562 487.637 226.728C495.47 218.245 502.295 212.826 502.364 212.772C502.418 212.73 502.485 212.711 502.553 212.718C502.62 212.727 502.681 212.762 502.723 212.815C502.765 212.867 502.784 212.936 502.777 213.003C502.769 213.07 502.734 213.132 502.681 213.174C502.41 213.388 475.488 234.865 466.631 260.15C466.613 260.199 466.581 260.242 466.538 260.273C466.495 260.305 466.443 260.321 466.391 260.321Z" fill="#1A2E44"/>
<path d="M454.052 259.591H453.998C453.932 259.576 453.875 259.535 453.839 259.479C453.802 259.421 453.79 259.352 453.804 259.285C458.957 235.354 446.317 197.082 446.189 196.695C446.176 196.664 446.169 196.628 446.169 196.594C446.17 196.558 446.178 196.524 446.192 196.492C446.207 196.46 446.227 196.431 446.253 196.408C446.279 196.385 446.31 196.366 446.343 196.356C446.376 196.344 446.411 196.341 446.446 196.342C446.481 196.345 446.515 196.356 446.546 196.372C446.577 196.388 446.604 196.412 446.625 196.439C446.647 196.467 446.663 196.498 446.672 196.533C449.004 203.849 450.934 211.29 452.453 218.82C454.793 230.383 457.013 246.807 454.302 259.391C454.289 259.448 454.258 259.498 454.212 259.534C454.167 259.571 454.11 259.591 454.052 259.591Z" fill="#1A2E44"/>
<path d="M366.503 182.252C371.332 182.252 375.247 178.34 375.247 173.511C375.247 168.683 371.332 164.769 366.503 164.769C361.673 164.769 357.758 168.683 357.758 173.511C357.758 178.34 361.673 182.252 366.503 182.252Z" fill="white" stroke="#1A2E44" stroke-linecap="round" stroke-linejoin="round"/>
<path d="M400.878 240.637C400.467 241.441 400.391 242.375 400.669 243.236C400.947 244.096 401.554 244.809 402.359 245.221C403.163 245.633 404.098 245.708 404.957 245.431C405.817 245.153 406.531 244.545 406.943 243.74L416.497 225.091L410.808 221.26L400.878 240.637Z" fill="#1A2E44" stroke="#1A2E44" stroke-linecap="round" stroke-linejoin="round"/>
<path d="M410.808 221.254L416.497 225.097L424.879 208.738L418.945 205.379L410.808 221.254Z" fill="white" stroke="#1A2E44" stroke-linecap="round" stroke-linejoin="round"/>
<path d="M425.647 186.081C425.366 190.761 423.91 195.684 421.281 200.815L418.943 205.379L424.878 208.738L427.346 203.92C430.618 197.534 432.342 191.355 432.519 185.435L425.647 186.081Z" fill="white" stroke="#1A2E44" stroke-linecap="round" stroke-linejoin="round"/>
<path d="M394.592 143.034C394.166 142.898 393.717 142.848 393.271 142.885C392.826 142.923 392.392 143.048 391.994 143.254C391.192 143.668 390.587 144.385 390.313 145.246C390.177 145.672 390.127 146.121 390.165 146.567C390.202 147.012 390.328 147.446 390.533 147.843C390.738 148.241 391.02 148.594 391.362 148.882C391.704 149.171 392.099 149.39 392.525 149.525C398.148 151.494 403.505 154.154 408.471 157.445L412.397 151.858C406.869 148.159 400.884 145.193 394.592 143.034Z" fill="#1A2E44" stroke="#1A2E44" stroke-linecap="round" stroke-linejoin="round"/>
<path d="M430.011 171.84C426.348 163.05 419.282 156.488 412.384 151.866L408.458 157.452C414.492 161.481 420.641 167.107 423.706 174.463C425.236 178.134 425.896 182.111 425.635 186.081L432.507 185.435C432.659 180.776 431.808 176.14 430.011 171.84Z" fill="white" stroke="#1A2E44" stroke-linecap="round" stroke-linejoin="round"/>
<path d="M396.799 136.484C398.483 137.745 399.598 139.622 399.898 141.705C400.198 143.787 399.659 145.903 398.399 147.588L392.454 155.535C392.413 155.59 392.353 155.626 392.286 155.634C392.219 155.645 392.15 155.627 392.096 155.587L379.79 146.38C379.736 146.34 379.7 146.279 379.69 146.212C379.681 146.145 379.698 146.077 379.739 146.023L385.682 138.077C386.942 136.393 388.82 135.278 390.902 134.978C392.984 134.678 395.101 135.217 396.785 136.477L396.799 136.484Z" fill="#69AEFF" stroke="#1A2E44" stroke-linecap="round" stroke-linejoin="round"/>
<path d="M386.855 192.212L342.939 156.717L381.207 144.089L393.559 154.071L386.855 192.212Z" fill="#1A2E44" stroke="#1A2E44" stroke-linecap="round" stroke-linejoin="round"/>
<path d="M416.162 252.782C399.639 251.735 383.115 252.65 366.602 253.229C366.544 253.832 366.513 254.44 366.513 255.058V258.337H427.167C424.316 255.193 420.287 253.114 416.162 252.782Z" fill="#1A2E44" stroke="#1A2E44" stroke-linecap="round" stroke-linejoin="round"/>
<path d="M437.559 255.058C437.557 250.228 435.637 245.595 432.221 242.18C428.805 238.765 424.172 236.848 419.342 236.848H384.727C380.211 236.845 375.855 238.519 372.504 241.545C369.152 244.572 367.045 248.735 366.589 253.229C383.112 252.648 399.636 251.734 416.148 252.782C420.274 253.114 424.303 255.193 427.133 258.335H437.559V255.058Z" fill="white" stroke="#1A2E44" stroke-linecap="round" stroke-linejoin="round"/>
<path d="M207.507 255.578L227.328 288.826L320.752 281.045L321.945 278.888L300.011 249.962L207.507 255.578Z" fill="#1A2E44" stroke="#1A2E44" stroke-linecap="round" stroke-linejoin="round"/>
<path d="M62.9506 246.269C62.9506 246.269 69.5363 220.467 86.0059 217.761C85.7067 246.198 76.4227 259.404 76.4227 259.404H62.9506C62.9506 259.404 61.0366 252.031 62.9506 246.269Z" fill="#1A2E44" stroke="#1A2E44" stroke-linecap="round" stroke-linejoin="round"/>
<path d="M127.029 246.271L99.778 259.335H145.892L127.029 246.271Z" fill="#1A2E44" stroke="#1A2E44" stroke-linecap="round" stroke-linejoin="round"/>
<path d="M491.743 259.334H1.4897C1.4897 259.334 55.7652 300.026 164.358 288.826C197.098 326.314 318.868 270.431 361.389 301.571C402.074 340.681 490.024 297.566 491.743 259.334Z" fill="white" stroke="#1A2E44" stroke-linecap="round" stroke-linejoin="round"/>
<path d="M217.063 184.919C217.063 184.919 228.173 182.205 260.378 184.533C292.584 186.859 317.333 195.178 317.333 195.178L353.403 232.42L289.923 243.196C289.923 243.196 248.716 252.602 237.581 248.947C226.445 245.291 192.62 241.707 190.809 241.707C188.998 241.707 153.979 239.612 153.979 239.612V221.354L217.063 184.919Z" fill="#69AEFF" stroke="#1A2E44" stroke-linecap="round" stroke-linejoin="round"/>
<path d="M238.087 184.533C238.087 184.533 248.999 215.616 254.988 216.688L263.64 211.642C263.64 211.642 251.584 201.254 251.227 193.681C249.932 188.631 249.894 185.026 247.886 183.59C244.21 180.954 238.087 184.533 238.087 184.533Z" fill="white" stroke="#1A2E44" stroke-linecap="round" stroke-linejoin="round"/>
<path d="M273.614 206.989C273.614 206.989 279.49 212.575 280.41 214.704C286.397 210.581 297.942 192.054 296.61 188.33C295.479 188.17 292.569 186.707 291.32 187.133C283.346 189.861 273.614 206.989 273.614 206.989Z" fill="white" stroke="#1A2E44" stroke-linecap="round" stroke-linejoin="round"/>
<path d="M207.506 252.905L226.351 287.399L319.773 279.617L300.01 247.289L207.506 252.905Z" fill="#1A2E44" stroke="#1A2E44" stroke-linecap="round" stroke-linejoin="round"/>
<path d="M209.674 251.886L228.519 286.379L321.942 278.595L302.181 246.271H279.302C279.302 246.271 265.283 251.886 248.584 249.524C233.51 247.391 209.674 251.886 209.674 251.886Z" fill="white" stroke="#1A2E44" stroke-linecap="round" stroke-linejoin="round"/>
<path d="M227.719 236.893C227.719 236.893 246.084 236.292 249.479 251.659C250.935 262.606 252.569 268.708 250.406 269.333C246.939 270.335 244.907 257.58 244.907 257.58C244.907 257.58 243.949 259.196 242.149 259.482C239.952 259.83 239.46 257.58 239.46 257.58C239.46 257.58 238.332 258.775 236.141 258.27C234.714 257.943 233.931 256.35 233.258 256.13C231.259 255.477 229.851 254.862 227.719 252.256C219.723 242.48 227.719 236.893 227.719 236.893Z" fill="white" stroke="#1A2E44" stroke-linecap="round" stroke-linejoin="round"/>
<path d="M221.44 184.533C180.328 187.433 99.4806 214.771 114.146 245.673C131.801 282.932 229.116 256.435 229.116 256.435C232.453 248.119 234.629 240.242 233.309 233.699C233.309 233.699 180.607 224.719 162.643 234.897L221.44 184.533Z" fill="#69AEFF"/>
<path d="M490.759 161.936C487.532 161.936 484.917 159.32 484.917 156.093C484.917 152.866 487.532 150.251 490.759 150.251C493.985 150.251 496.601 152.866 496.601 156.093C496.601 159.32 493.985 161.936 490.759 161.936Z" fill="#1A2E44" stroke="#1A2E44" stroke-linecap="round" stroke-linejoin="round"/>
<path d="M329.09 29.8233C326.959 29.8233 325.231 28.0953 325.231 25.9635C325.231 23.8317 326.959 22.1035 329.09 22.1035C331.221 22.1035 332.949 23.8317 332.949 25.9635C332.949 28.0953 331.221 29.8233 329.09 29.8233Z" fill="#1A2E44" stroke="#1A2E44" stroke-linecap="round" stroke-linejoin="round"/>
<path d="M146.134 171.879C144.426 171.879 143.042 170.493 143.042 168.785C143.042 167.076 144.426 165.69 146.134 165.69C147.843 165.69 149.229 167.076 149.229 168.785C149.229 170.493 147.843 171.879 146.134 171.879Z" fill="#1A2E44" stroke="#1A2E44" stroke-linecap="round" stroke-linejoin="round"/>
<path d="M164.31 265.828C154.833 265.828 146.523 264.993 139.496 263.323C126.576 260.267 117.978 254.352 113.891 245.779C111.203 240.107 111.571 234.267 114.989 228.407C121.12 217.913 137.411 207.265 160.857 198.433C180.783 190.924 203.988 185.496 221.421 184.267C221.455 184.264 221.488 184.268 221.521 184.278C221.552 184.29 221.582 184.307 221.607 184.329C221.632 184.351 221.653 184.378 221.668 184.408C221.683 184.438 221.692 184.47 221.695 184.505C221.696 184.537 221.693 184.572 221.681 184.603C221.671 184.636 221.655 184.665 221.632 184.691C221.61 184.716 221.583 184.737 221.553 184.752C221.524 184.767 221.491 184.776 221.457 184.777C204.07 186.003 180.918 191.42 161.036 198.911C137.699 207.701 121.504 218.27 115.428 228.665C112.106 234.359 111.739 240.042 114.352 245.552C118.348 253.982 126.842 259.784 139.6 262.814C149.841 265.249 162.847 265.905 178.215 264.768C203.464 262.899 227.008 256.731 228.916 256.223C232.858 246.364 234.149 239.466 233.08 233.91C229.732 233.358 179.927 225.383 162.758 235.108C162.698 235.141 162.628 235.15 162.563 235.132C162.499 235.114 162.442 235.069 162.41 235.011C162.377 234.952 162.368 234.883 162.386 234.818C162.404 234.752 162.445 234.697 162.505 234.663C170 230.418 184.203 228.921 204.719 230.216C219.976 231.179 233.208 233.414 233.33 233.438C233.381 233.445 233.429 233.469 233.464 233.505C233.501 233.541 233.527 233.587 233.537 233.636C234.689 239.348 233.391 246.411 229.333 256.531C229.318 256.569 229.295 256.601 229.266 256.627C229.237 256.654 229.202 256.671 229.165 256.683C228.909 256.749 204.508 263.324 178.248 265.277C173.365 265.646 168.72 265.831 164.31 265.828Z" fill="#1A2E44"/>
<path d="M277.826 236.89C277.826 236.89 273.614 239.115 267.179 241.015C262.254 242.471 257.272 243.255 253.977 248.666C254.613 251.105 261.417 249.367 265.166 250.038C269.271 251.13 270.35 252.562 276.097 253.446C277.734 253.774 281.155 252.583 281.155 252.583L277.826 236.89Z" fill="white" stroke="#1A2E44" stroke-linecap="round" stroke-linejoin="round"/>
<path d="M312.403 193.681C312.403 193.681 412.373 209.155 393.208 245.672C374.044 282.19 278.223 256.435 278.223 256.435C274.724 248.395 272.682 240.673 274.03 233.699C274.03 233.699 326.145 218.05 344.101 228.226L312.403 193.681Z" fill="#69AEFF"/>
<path d="M342.073 265.513C337.78 265.513 333.26 265.342 328.513 265.001C302.441 263.157 278.409 256.757 278.153 256.691C278.117 256.681 278.083 256.661 278.053 256.636C278.025 256.612 278.003 256.58 277.988 256.545C273.899 247.179 272.569 239.904 273.777 233.647C273.786 233.601 273.807 233.559 273.84 233.523C273.871 233.489 273.911 233.464 273.956 233.45C283.276 230.764 292.731 228.574 302.281 226.892C322.609 223.377 336.721 223.751 344.223 228.001C344.281 228.034 344.325 228.089 344.344 228.155C344.362 228.22 344.353 228.29 344.32 228.348C344.304 228.378 344.281 228.405 344.255 228.426C344.228 228.446 344.198 228.461 344.165 228.47C344.133 228.479 344.098 228.482 344.066 228.478C344.031 228.473 344 228.463 343.97 228.446C336.676 224.315 322.295 223.95 302.374 227.393C292.892 229.067 283.504 231.237 274.251 233.898C273.118 239.986 274.441 247.093 278.406 256.228C280.269 256.719 303.469 262.715 328.55 264.495C343.824 265.581 356.792 264.911 367.1 262.508C379.936 259.516 388.643 253.822 392.978 245.549C395.984 239.819 396.171 234.258 393.53 229.018C390.719 223.466 384.731 218.166 375.703 213.268C368.456 209.337 359.257 205.658 348.37 202.328C336.557 198.777 324.532 195.973 312.368 193.931C312.333 193.927 312.302 193.915 312.272 193.897C312.244 193.879 312.219 193.857 312.198 193.828C312.179 193.801 312.164 193.77 312.156 193.738C312.147 193.705 312.146 193.671 312.152 193.636C312.156 193.604 312.168 193.571 312.186 193.541C312.204 193.513 312.226 193.487 312.255 193.468C312.281 193.447 312.313 193.432 312.345 193.425C312.378 193.417 312.412 193.416 312.447 193.42C324.634 195.468 336.682 198.279 348.517 201.836C359.446 205.173 368.676 208.867 375.951 212.821C385.074 217.772 391.143 223.145 393.989 228.79C396.71 234.186 396.524 239.907 393.435 245.79C389.028 254.188 380.207 259.98 367.217 263.008C360.066 264.676 351.644 265.513 342.073 265.513Z" fill="#1A2E44"/>
<path d="M253.258 198.208C253.258 198.208 253.391 202.73 256.452 206.588C259.512 210.445 264.205 213.105 271.889 211.112C279.573 209.119 285.822 199.659 286.961 197.745C272.688 198.076 253.258 198.208 253.258 198.208Z" fill="#1A2E44" stroke="#1A2E44" stroke-linecap="round" stroke-linejoin="round"/>
<path d="M293.535 176.66C293.535 192.105 281.154 210.279 270.109 210.279C254.659 210.279 247.103 190.097 247.103 174.661C247.103 159.227 250.105 148.693 265.558 148.693C272.976 148.692 280.091 151.637 285.338 156.882C290.585 162.126 293.534 169.24 293.535 176.66Z" fill="white" stroke="#1A2E44" stroke-linecap="round" stroke-linejoin="round"/>
<path d="M248.601 237.839C248.568 237.844 248.534 237.842 248.501 237.833C248.468 237.824 248.437 237.809 248.41 237.789C248.384 237.768 248.361 237.742 248.343 237.714C248.327 237.684 248.315 237.652 248.311 237.619C248.306 237.585 248.309 237.55 248.318 237.518C248.326 237.485 248.342 237.455 248.361 237.427C248.382 237.4 248.407 237.378 248.437 237.361C248.467 237.344 248.498 237.333 248.533 237.329C259.839 234.209 265.073 216.783 265.137 216.608C265.157 216.542 265.2 216.487 265.26 216.454C265.319 216.422 265.389 216.414 265.455 216.433C265.518 216.453 265.574 216.496 265.606 216.555C265.639 216.615 265.646 216.685 265.627 216.75C265.574 216.929 260.263 234.633 248.68 237.821C248.655 237.832 248.628 237.838 248.601 237.839Z" fill="#1A2E44"/>
<path d="M242.879 183.664C242.879 183.664 244.059 189.559 251.52 190.891C258.982 192.222 257.118 169.073 263.639 170.272C269.771 171.467 276.158 157.899 276.158 157.899C276.158 157.899 289.051 182.315 294.781 179.486C302.505 169.073 298.635 146.326 273.62 142.735C248.606 139.143 238.942 148.72 237.588 162.288C223.455 156.303 212.223 170.407 221.059 177.054C212.284 185.486 216.669 196.337 227.447 193.681C238.224 191.024 242.879 183.664 242.879 183.664Z" fill="#1A2E44" stroke="#1A2E44" stroke-linecap="round" stroke-linejoin="round"/>
<path d="M224.656 242.356C225.909 242.356 226.927 241.341 226.927 240.088C226.927 238.834 225.909 237.819 224.656 237.819C223.401 237.819 222.384 238.834 222.384 240.088C222.384 241.341 223.401 242.356 224.656 242.356Z" fill="#1A2E44" stroke="#1A2E44" stroke-linecap="round" stroke-linejoin="round"/>
<path d="M283.451 240.316C284.398 240.316 285.166 239.548 285.166 238.601C285.166 237.655 284.398 236.887 283.451 236.887C282.505 236.887 281.737 237.655 281.737 238.601C281.737 239.548 282.505 240.316 283.451 240.316Z" fill="#1A2E44" stroke="#1A2E44" stroke-linecap="round" stroke-linejoin="round"/>
<path d="M213.999 243.151C213.932 243.151 213.866 243.124 213.819 243.075C213.771 243.027 213.744 242.963 213.744 242.895C213.744 237.044 216.694 231.449 216.722 231.398C216.739 231.369 216.759 231.342 216.786 231.321C216.812 231.3 216.841 231.284 216.874 231.273C216.905 231.264 216.94 231.26 216.972 231.264C217.007 231.267 217.039 231.276 217.069 231.293C217.099 231.308 217.124 231.33 217.146 231.355C217.167 231.382 217.184 231.412 217.193 231.443C217.203 231.476 217.206 231.51 217.203 231.543C217.2 231.577 217.191 231.608 217.175 231.638C217.143 231.695 214.255 237.182 214.255 242.901C214.253 242.966 214.226 243.03 214.179 243.078C214.13 243.124 214.066 243.151 213.999 243.151Z" fill="#1A2E44"/>
<path d="M296.716 242.307H296.652C296.587 242.291 296.532 242.249 296.498 242.191C296.462 242.133 296.453 242.065 296.468 241.999C298.028 235.729 294.424 228.811 294.387 228.742C294.354 228.683 294.348 228.613 294.368 228.549C294.387 228.483 294.432 228.43 294.491 228.397C294.521 228.381 294.554 228.372 294.587 228.367C294.621 228.364 294.655 228.367 294.686 228.378C294.719 228.387 294.749 228.403 294.776 228.424C294.801 228.446 294.823 228.473 294.838 228.503C294.874 228.574 298.571 235.656 296.963 242.121C296.949 242.175 296.917 242.223 296.871 242.257C296.827 242.29 296.773 242.309 296.716 242.307Z" fill="#1A2E44"/>
<path d="M243.943 276.285C243.874 276.287 243.809 276.263 243.76 276.217C243.709 276.171 243.681 276.107 243.678 276.038C243.675 275.971 243.7 275.904 243.746 275.855C243.792 275.806 243.856 275.776 243.925 275.775L302.747 271.119C302.814 271.113 302.881 271.135 302.933 271.18C302.985 271.223 303.017 271.287 303.022 271.354C303.028 271.423 303.006 271.49 302.961 271.54C302.918 271.592 302.856 271.625 302.787 271.63L243.962 276.285H243.943Z" fill="#1A2E44"/>
<path d="M256.385 269.367C256.318 269.37 256.251 269.345 256.202 269.299C256.151 269.253 256.123 269.19 256.12 269.122C256.117 269.055 256.141 268.988 256.187 268.939C256.233 268.888 256.297 268.858 256.366 268.857L298.751 265.317C298.818 265.311 298.885 265.334 298.937 265.377C298.989 265.42 299.02 265.483 299.026 265.55C299.032 265.618 299.011 265.685 298.968 265.736C298.924 265.788 298.861 265.82 298.794 265.826L256.409 269.367H256.385Z" fill="#1A2E44"/>
<path d="M56.2034 259.411C56.2034 259.411 5.97466 207.806 21.9724 158.101C57.1262 167.607 72.0137 259.411 72.0137 259.411H56.2034Z" fill="white" stroke="#1A2E44" stroke-linecap="round" stroke-linejoin="round"/>
</svg>
