<svg width="103" height="110" viewBox="0 0 103 110" fill="none" xmlns="http://www.w3.org/2000/svg">
<path d="M101.727 33.7149L52.6652 1.00713C52.0631 0.605695 51.2793 0.605695 50.6771 1.00713L1.61548 33.7149C1.11727 34.0471 0.817383 34.6074 0.817383 35.206C0.817383 35.8045 1.11607 36.3649 1.61548 36.697L9.06721 41.6649V67.8456C9.06721 68.4562 9.37784 69.0249 9.89159 69.3546L50.9902 95.7027C51.2853 95.8915 51.621 95.9858 51.9579 95.9858C52.3104 95.9858 52.664 95.8819 52.9675 95.674L74.4099 81.0454V91.2462L66.4217 107.223C66.1445 107.778 66.1744 108.439 66.4994 108.967C66.8255 109.494 67.4038 109.816 68.0239 109.816H84.379C85.0002 109.816 85.5773 109.494 85.9035 108.967C86.2284 108.439 86.2595 107.778 85.9811 107.223L77.993 91.2462V78.5997L91.5858 69.326C92.0744 68.9926 92.3671 68.4382 92.3671 67.8456V42.9361L101.726 36.697C102.224 36.3649 102.524 35.8045 102.524 35.206C102.524 34.6074 102.225 34.0471 101.727 33.7149ZM70.9248 106.232L76.202 95.6776L81.4793 106.232H70.9248ZM51.9269 92.0455L12.6515 66.8659V44.0544L50.6771 69.406C50.9782 69.6067 51.3247 69.7071 51.6712 69.7071C52.0177 69.7071 52.3642 69.6067 52.6652 69.406L74.4099 54.9088V76.706L51.9269 92.0455ZM88.784 66.8994L77.9942 74.2615V52.5193L88.784 45.3256V66.8994ZM89.9537 40.2383C89.6897 40.3363 89.4567 40.4928 89.2679 40.6959L76.202 49.4069L52.6652 33.7149C51.8397 33.1653 50.7285 33.3887 50.1801 34.2119C49.6317 35.0351 49.854 36.1486 50.6771 36.697L72.9714 51.5599L51.6712 65.7608L5.84016 35.206L51.6712 4.65235L97.5022 35.206L89.9537 40.2383Z" fill="#154672"/>
</svg>
