<svg width="25" height="21" viewBox="0 0 25 21" fill="none" xmlns="http://www.w3.org/2000/svg">
<path d="M0 12.9706C0 12.5753 0.147674 12.1961 0.411046 11.9163L1.33314 10.9367C1.59651 10.6569 1.95349 10.5 2.32558 10.5C2.69767 10.5 3.05465 10.6569 3.31802 10.9367L6.5657 14.3869C6.82907 14.6666 7.18605 14.8235 7.55814 14.8235C7.93023 14.8235 8.28721 14.6666 8.55058 14.3869L21.682 0.436676C21.9453 0.156882 22.3023 0 22.6744 0C23.0465 0 23.4035 0.156882 23.6669 0.436676L24.589 1.41626C24.8523 1.69606 25 2.07529 25 2.47059C25 2.86588 24.8523 3.24512 24.589 3.52491L8.55058 20.5633C8.28721 20.8431 7.93023 21 7.55814 21C7.18605 21 6.82907 20.8431 6.5657 20.5633L0.411046 14.0249C0.147674 13.7451 0 13.3659 0 12.9706Z" fill="#F3F7FA"/>
</svg>
