<svg width="73" height="72" viewBox="0 0 73 72" fill="none" xmlns="http://www.w3.org/2000/svg">
<path d="M38.2855 17.3353C41.2308 17.3353 43.6188 14.8473 43.6188 11.7793V9.55662C43.6188 6.48862 41.2308 4.00195 38.2855 4.00195C35.3401 4.00195 32.9521 6.48862 32.9521 9.55795V11.7806C32.9521 14.8473 35.3401 17.3353 38.2855 17.3353Z" stroke="#154672" stroke-width="2" stroke-miterlimit="10"/>
<path d="M38.2856 70.6686V44.002" stroke="#154672" stroke-width="2" stroke-miterlimit="10"/>
<path d="M32.9522 30.668V65.3346L31.4815 65.8253C29.9642 66.3306 28.9429 67.756 28.9522 69.3573C28.9562 70.0826 29.5602 70.668 30.2855 70.668H46.2855C47.0109 70.668 47.6149 70.0826 47.6189 69.356C47.6282 67.7546 46.6069 66.3293 45.0895 65.824L43.6189 65.3346V30.668" stroke="#154672" stroke-width="2" stroke-miterlimit="10"/>
<path d="M62.2856 53.335V26.6683C62.2856 25.6576 62.8563 24.735 63.7603 24.283L68.4976 21.563C68.7963 21.4136 69.127 21.335 69.4616 21.335C70.619 21.335 71.619 22.3003 71.619 23.4923V28.0016" stroke="#154672" stroke-width="2" stroke-miterlimit="10"/>
<path d="M24.9496 70.668H12.9523C11.479 70.668 10.2856 69.4746 10.2856 68.0013V57.3346C10.2856 55.8613 11.479 54.668 12.9523 54.668H28.9523" stroke="#154672" stroke-width="2" stroke-miterlimit="10"/>
<path d="M24.9521 54.6683V52.0016C24.9521 50.5283 23.7588 49.335 22.2855 49.335H19.6188C18.1455 49.335 16.9521 50.5283 16.9521 52.0016V54.6683" stroke="#154672" stroke-width="2" stroke-miterlimit="10"/>
<path d="M32.952 45.3346C32.952 46.808 31.7587 48.0013 30.2853 48.0013C28.812 48.0013 27.6187 46.808 27.6187 45.3346V29.3346C27.6187 25.6533 30.604 22.668 34.2853 22.668H42.2853C45.9667 22.668 48.952 25.6533 48.952 29.3346V45.3346C48.952 46.808 47.7587 48.0013 46.2853 48.0013C44.812 48.0013 43.6187 46.808 43.6187 45.3346" stroke="#154672" stroke-width="2" stroke-miterlimit="10"/>
<path d="M10.2856 61.335H28.9523" stroke="#154672" stroke-width="2" stroke-miterlimit="10"/>
<path d="M20.9521 61.335V65.335" stroke="#154672" stroke-width="2" stroke-miterlimit="10"/>
<path d="M70.2856 57.335H72.9523" stroke="#154672" stroke-width="2" stroke-miterlimit="10"/>
<path d="M43.6187 57.335H67.6186" stroke="#154672" stroke-width="2" stroke-miterlimit="10"/>
<path d="M0.952148 57.335H10.2841" stroke="#154672" stroke-width="2" stroke-miterlimit="10"/>
<path d="M56.9521 28.0016V25.335" stroke="#154672" stroke-width="2" stroke-miterlimit="10"/>
<path d="M48.9521 18.6683V2.66829C48.9521 1.93229 49.5495 1.33496 50.2855 1.33496H55.6188C56.3548 1.33496 56.9522 1.93229 56.9522 2.66829V22.6683" stroke="#154672" stroke-width="2" stroke-miterlimit="10"/>
<path d="M16.9521 36.0016H22.2855V10.6683C22.2855 9.93229 22.8828 9.33496 23.6188 9.33496H28.9455" stroke="#154672" stroke-width="2" stroke-miterlimit="10"/>
<path d="M3.61865 25.335H15.6187C16.3547 25.335 16.952 25.9323 16.952 26.6683V45.335" stroke="#154672" stroke-width="2" stroke-miterlimit="10"/>
</svg>
