<svg width="491" height="253" viewBox="0 0 491 253" fill="none" xmlns="http://www.w3.org/2000/svg">
<path d="M43.8431 133.616C19.9506 95.609 7.31167 51.6119 7.38952 6.71875" stroke="#FE9700" stroke-width="4.75895" stroke-miterlimit="10"/>
<path d="M149.776 225.202C106.13 205.907 69.2417 174.015 43.8413 133.616" stroke="#25C5D9" stroke-width="7.13842" stroke-miterlimit="10"/>
<path d="M343.656 224.631C312.969 238.369 279.721 245.457 246.098 245.427C212.933 245.469 180.125 238.579 149.777 225.202" stroke="#42A4F5" stroke-width="14.2768" stroke-miterlimit="10"/>
<path d="M446.426 136.567C421.344 175.165 385.684 205.728 343.704 224.608" stroke="#EB407A" stroke-width="11.8974" stroke-miterlimit="10"/>
<path d="M484.784 6.71875C484.86 52.8051 471.533 97.9191 446.427 136.567" stroke="#673BB6" stroke-width="2.37947" stroke-miterlimit="10"/>
<path d="M488.972 6.79015C488.967 7.62211 488.716 8.43404 488.25 9.12351C487.785 9.81298 487.125 10.3491 486.355 10.6642C485.585 10.9793 484.739 11.0594 483.924 10.8942C483.108 10.729 482.36 10.326 481.774 9.73606C481.187 9.14611 480.788 8.39563 480.628 7.5793C480.467 6.76297 480.552 5.91737 480.871 5.14917C481.191 4.38098 481.73 3.7246 482.423 3.26286C483.115 2.80112 483.928 2.5547 484.76 2.55469C485.315 2.55468 485.865 2.6644 486.377 2.87754C486.89 3.09069 487.355 3.40304 487.747 3.79666C488.138 4.19027 488.448 4.65737 488.658 5.17111C488.868 5.68484 488.975 6.23507 488.972 6.79015Z" fill="white" stroke="#673BB6" stroke-width="2.37947" stroke-miterlimit="10"/>
<path d="M13.5043 6.79029C13.5043 8.02902 13.1367 9.23988 12.448 10.2695C11.7593 11.2992 10.7805 12.1012 9.63561 12.5742C8.49072 13.0471 7.23123 13.1697 6.01665 12.9263C4.80206 12.6829 3.68704 12.0845 2.81279 11.2069C1.93855 10.3293 1.34442 9.21202 1.10564 7.99652C0.86687 6.78102 0.994199 5.522 1.4715 4.37892C1.94881 3.23584 2.75462 2.26012 3.78687 1.57535C4.81912 0.890581 6.03138 0.527562 7.2701 0.532272C8.09079 0.532266 8.90341 0.694304 9.66134 1.00909C10.4193 1.32388 11.1076 1.78521 11.6868 2.36664C12.266 2.94806 12.7247 3.63813 13.0366 4.39725C13.3485 5.15637 13.5075 5.9696 13.5043 6.79029Z" fill="#FE9700"/>
<path d="M454.992 136.591C454.992 138.276 454.493 139.923 453.556 141.323C452.62 142.724 451.29 143.816 449.733 144.461C448.177 145.106 446.464 145.274 444.812 144.946C443.159 144.617 441.641 143.806 440.45 142.614C439.259 141.423 438.447 139.905 438.119 138.253C437.79 136.6 437.959 134.887 438.604 133.331C439.248 131.774 440.34 130.444 441.741 129.508C443.142 128.572 444.789 128.072 446.474 128.072C448.733 128.072 450.9 128.97 452.497 130.567C454.095 132.165 454.992 134.332 454.992 136.591Z" fill="white" stroke="#EB407A" stroke-width="2.37947" stroke-miterlimit="10"/>
<path d="M53.1465 137.804C53.1465 139.216 52.7278 140.596 51.9434 141.77C51.1591 142.944 50.0442 143.859 48.7398 144.399C47.4354 144.94 46.0001 145.081 44.6154 144.806C43.2307 144.53 41.9588 143.85 40.9604 142.852C39.9621 141.854 39.2822 140.582 39.0068 139.197C38.7314 137.812 38.8727 136.377 39.413 135.073C39.9533 133.768 40.8683 132.653 42.0422 131.869C43.2161 131.085 44.5962 130.666 46.0081 130.666C47.9013 130.666 49.717 131.418 51.0557 132.757C52.3944 134.096 53.1465 135.911 53.1465 137.804Z" fill="white" stroke="#FE9700" stroke-width="3.56921" stroke-miterlimit="10"/>
<path d="M354.792 224.632C354.792 226.755 354.162 228.831 352.982 230.596C351.802 232.362 350.124 233.737 348.162 234.549C346.199 235.36 344.041 235.571 341.958 235.155C339.876 234.739 337.964 233.715 336.464 232.212C334.964 230.708 333.944 228.794 333.532 226.711C333.121 224.628 333.337 222.469 334.153 220.509C334.969 218.548 336.348 216.874 338.116 215.697C339.884 214.521 341.961 213.896 344.084 213.9C345.492 213.9 346.887 214.178 348.187 214.718C349.488 215.257 350.67 216.048 351.664 217.045C352.659 218.042 353.447 219.225 353.984 220.527C354.52 221.829 354.795 223.224 354.792 224.632Z" fill="white" stroke="#42A4F5" stroke-width="2.99814" stroke-miterlimit="10"/>
<path d="M158.629 224.632C158.629 226.354 158.118 228.038 157.161 229.47C156.205 230.902 154.844 232.019 153.253 232.678C151.662 233.337 149.911 233.509 148.221 233.173C146.532 232.837 144.98 232.008 143.762 230.79C142.544 229.572 141.715 228.02 141.379 226.331C141.043 224.641 141.215 222.89 141.874 221.299C142.534 219.708 143.65 218.348 145.082 217.391C146.514 216.434 148.198 215.923 149.92 215.923C152.23 215.923 154.445 216.84 156.078 218.474C157.712 220.107 158.629 222.322 158.629 224.632Z" fill="white" stroke="#25C5D9" stroke-width="3.85475" stroke-miterlimit="10"/>
</svg>
