<svg width="406" height="274" viewBox="0 0 406 274" fill="none" xmlns="http://www.w3.org/2000/svg">
<path d="M236.182 272.567C236.182 272.567 250.446 234.787 295.35 234.787C340.255 234.787 351.696 272.567 351.696 272.567H236.182Z" fill="#B6D7FF"/>
<path d="M351.695 272.77H236.182C236.149 272.77 236.117 272.762 236.088 272.747C236.059 272.732 236.035 272.71 236.015 272.684C235.997 272.656 235.985 272.625 235.981 272.593C235.977 272.561 235.981 272.527 235.993 272.497C236.028 272.402 239.678 262.905 248.78 253.537C254.022 248.111 260.226 243.694 267.08 240.507C275.568 236.578 285.083 234.586 295.354 234.586C305.626 234.586 314.993 236.578 323.191 240.509C329.776 243.674 335.665 248.104 340.519 253.543C348.924 262.913 351.866 272.416 351.905 272.511C351.914 272.542 351.915 272.575 351.91 272.607C351.904 272.638 351.89 272.668 351.871 272.692C351.85 272.718 351.825 272.738 351.796 272.751C351.766 272.765 351.734 272.771 351.702 272.77H351.695ZM236.483 272.366H351.415C350.882 270.78 347.773 262.24 340.199 253.8C332.496 245.219 318.464 234.993 295.35 234.993C272.236 234.993 257.42 245.231 249.072 253.821C240.892 262.233 237.148 270.75 236.483 272.366Z" fill="black"/>
<path d="M54.124 272.375C54.124 272.375 64.1155 254.801 90.2021 254.801C116.289 254.801 134.054 272.375 134.054 272.375H54.124Z" fill="#B6D7FF"/>
<path d="M134.052 272.579H54.1245C54.0891 272.579 54.0545 272.569 54.0239 272.552C53.9932 272.535 53.9676 272.509 53.9496 272.479C53.9318 272.449 53.9224 272.414 53.9224 272.379C53.9224 272.343 53.9318 272.308 53.9496 272.277C53.976 272.233 56.5339 267.798 62.2596 263.43C67.546 259.401 76.6733 254.6 90.2047 254.6C103.736 254.6 114.966 259.392 122.015 263.414C129.65 267.771 134.153 272.19 134.198 272.235C134.226 272.263 134.245 272.299 134.253 272.338C134.26 272.378 134.256 272.417 134.241 272.455C134.225 272.491 134.199 272.522 134.166 272.544C134.133 272.567 134.093 272.579 134.054 272.579H134.052ZM54.4864 272.174H133.543C132.323 271.054 128.159 267.387 121.797 263.759C114.795 259.765 103.63 255.004 90.2026 255.004C76.7749 255.004 67.7493 259.753 62.5219 263.737C57.7111 267.404 55.1634 271.11 54.4925 272.174H54.4864Z" fill="black"/>
<path d="M166.94 125.821L174.78 138.972H175.752L168.119 125.269L166.94 125.821Z" fill="#1C0311"/>
<path d="M175.752 139.071H174.78C174.762 139.071 174.745 139.067 174.73 139.058C174.714 139.048 174.701 139.036 174.692 139.021L166.852 125.875C166.845 125.863 166.84 125.849 166.838 125.835C166.837 125.821 166.838 125.808 166.843 125.795C166.847 125.781 166.853 125.769 166.863 125.758C166.872 125.748 166.884 125.739 166.897 125.734L168.077 125.181C168.1 125.171 168.126 125.169 168.15 125.177C168.175 125.185 168.196 125.202 168.208 125.224L175.84 138.925C175.848 138.941 175.853 138.958 175.853 138.977C175.853 138.994 175.848 139.011 175.84 139.027C175.829 139.041 175.816 139.052 175.801 139.06C175.785 139.068 175.769 139.072 175.752 139.071ZM174.836 138.869H175.579L168.077 125.398L167.084 125.863L174.836 138.869Z" fill="#1A1A1A"/>
<path d="M162.649 132.114C162.649 132.114 172.49 128.098 174.573 130.581C176.655 133.065 178.041 136.446 177.556 136.648C177.07 136.851 163.747 137.683 163.119 137.201C162.491 136.717 162.649 132.114 162.649 132.114Z" fill="white"/>
<path d="M165.165 137.56C163.247 137.56 163.074 137.424 162.999 137.357C162.344 136.852 162.41 133.206 162.446 132.099C162.447 132.06 162.46 132.023 162.482 131.991C162.505 131.959 162.536 131.934 162.572 131.919C162.979 131.751 172.576 127.874 174.727 130.443C176.556 132.633 178.035 135.754 177.838 136.573C177.828 136.629 177.803 136.682 177.768 136.727C177.733 136.772 177.687 136.808 177.635 136.832C177.303 136.973 173.222 137.236 170.402 137.383C167.897 137.515 166.253 137.56 165.165 137.56ZM162.849 132.253C162.788 134.388 162.92 136.793 163.256 137.046C163.997 137.44 176.428 136.73 177.452 136.475C177.583 136.012 176.398 133.072 174.422 130.712C172.573 128.511 163.977 131.806 162.849 132.253Z" fill="#1A1A1A"/>
<path d="M123.438 180.268C111.365 163.914 93.673 163.078 93.673 163.078L77.6225 156.202C77.6225 156.202 62.5662 179.518 75.6787 189.239C88.7912 198.961 106.923 198.488 106.923 198.488C102.07 215.411 99.5289 238.282 97.4183 262.253C99.7687 263.601 101.765 264.128 102.721 262.253C102.721 262.253 111.883 242.157 116.823 230.502C117.809 228.183 118.627 226.196 119.171 224.773C119.171 224.78 135.509 196.626 123.438 180.268Z" fill="white"/>
<path d="M100.81 263.673C99.9111 263.673 98.7765 263.269 97.3167 262.429C97.2818 262.41 97.2537 262.38 97.236 262.343C97.2182 262.307 97.2116 262.267 97.2171 262.227C99.2259 239.374 101.761 215.88 106.653 198.684C104.315 198.684 87.6994 198.403 75.5568 189.395C72.5212 187.14 70.7339 183.977 70.2479 179.991C69.8637 176.818 70.2967 173.116 71.5391 169.01C73.6475 162.021 77.4131 156.149 77.4518 156.091C77.4777 156.051 77.517 156.022 77.5627 156.007C77.6084 155.993 77.6577 155.996 77.7018 156.014L93.7199 162.878C94.1671 162.904 98.4939 163.22 104.1 165.347C111.897 168.307 118.67 173.444 123.6 180.141C135.597 196.391 119.867 223.992 119.353 224.862C118.841 226.202 118.054 228.125 117.01 230.581C112.131 242.096 102.998 262.13 102.906 262.333C102.776 262.624 102.585 262.885 102.347 263.098C102.108 263.311 101.827 263.472 101.522 263.57C101.291 263.639 101.051 263.674 100.81 263.673ZM97.6339 262.142C99.3459 263.109 100.546 263.44 101.406 263.188C101.657 263.106 101.888 262.974 102.083 262.796C102.278 262.619 102.433 262.403 102.538 262.162C102.628 261.96 111.753 241.939 116.636 230.431C117.682 227.97 118.467 226.045 118.979 224.71L118.993 224.68C121.799 219.573 124.029 214.174 125.642 208.579C127.974 200.342 129.456 188.76 123.273 180.389C118.387 173.757 111.681 168.667 103.957 165.734C98.1239 163.508 93.7097 163.288 93.665 163.288C93.6404 163.287 93.6163 163.281 93.5938 163.27L77.7018 156.463C77.1142 157.408 73.8386 162.815 71.9254 169.144C70.008 175.503 69.1236 184.125 75.8008 189.08C88.7058 198.655 106.737 198.294 106.909 198.287C106.942 198.286 106.974 198.293 107.002 198.307C107.031 198.319 107.057 198.34 107.077 198.364C107.096 198.39 107.11 198.419 107.117 198.45C107.123 198.482 107.122 198.514 107.112 198.544C102.197 215.696 99.6488 239.241 97.6339 262.142Z" fill="#1A1A1A"/>
<path d="M100.332 197.038C102.805 199.314 127.157 193.067 128.279 189.165L126.491 185.514L98.1831 190.895C98.1831 190.895 99.2241 196.763 100.332 197.038Z" fill="#1C0311"/>
<path d="M102.719 197.621C101.538 197.621 100.676 197.471 100.279 197.128C99.1485 196.771 98.1847 191.515 98.077 190.912C98.0727 190.887 98.0788 190.86 98.094 190.837C98.1092 190.816 98.1321 190.801 98.1583 190.796L126.335 185.438L126.225 185.212H126.238C126.205 185.114 126.238 185.103 126.272 185.082C126.307 185.062 126.347 185.044 126.403 185.13L126.522 185.376L126.571 185.476L128.358 189.116C128.367 189.14 128.367 189.164 128.358 189.188C127.767 191.244 121.301 193.715 115.447 195.341C110.797 196.642 105.73 197.621 102.719 197.621ZM98.3006 190.975C98.6057 192.656 99.5206 196.731 100.358 196.939C100.374 196.944 100.389 196.952 100.401 196.964C101.523 197.997 107.977 197.216 115.413 195.143C122.649 193.131 127.641 190.791 128.171 189.166L126.599 185.962L126.433 185.62L98.3006 190.975Z" fill="#1A1A1A"/>
<path d="M103.774 156.972C103.774 156.972 105.435 162.969 110.955 163.602C123.71 165.062 147.203 164.108 147.928 181.787C149.018 208.316 149.594 239.38 149.594 239.38C149.594 239.38 147.953 246.189 142.563 242.414C135.51 227.668 126.427 200.956 127.882 189.782C112.739 192.958 94.1305 201.309 73.1879 192.267C58.2964 180.467 73.558 154.726 73.558 154.726L103.774 156.972Z" fill="white"/>
<path d="M145.564 243.767C144.609 243.767 143.565 243.363 142.447 242.59C142.419 242.57 142.395 242.543 142.38 242.511C135.331 227.776 126.36 201.496 127.647 190.049C124.841 190.656 121.939 191.412 118.872 192.22C105.385 195.774 90.0987 199.8 73.1007 192.463C73.0839 192.456 73.0682 192.446 73.0539 192.435C69.6176 189.712 67.4991 186.02 66.7508 181.466C66.1591 177.826 66.4377 173.651 67.5784 169.032C69.5181 161.183 73.3324 154.697 73.3711 154.633C73.3902 154.601 73.4181 154.574 73.4515 154.557C73.4849 154.539 73.5225 154.531 73.5601 154.534L103.783 156.771C103.824 156.774 103.864 156.79 103.897 156.815C103.929 156.842 103.952 156.879 103.964 156.918C103.98 156.977 105.655 162.784 110.974 163.402C112.729 163.604 114.689 163.758 116.765 163.921C129.733 164.949 147.494 166.349 148.126 181.779C149.203 208.007 149.785 239.073 149.791 239.385C149.793 239.402 149.793 239.418 149.791 239.435C149.761 239.569 148.978 242.709 146.715 243.559C146.347 243.697 145.957 243.768 145.564 243.767ZM142.718 242.288C144.169 243.3 145.465 243.595 146.564 243.18C148.529 242.445 149.309 239.653 149.385 239.364C149.364 238.282 148.775 207.682 147.719 181.795C147.109 166.731 129.548 165.342 116.733 164.326C114.652 164.16 112.689 164.005 110.928 163.802C105.808 163.216 103.911 158.077 103.608 157.163L73.6517 154.938C73.1474 155.816 69.7518 161.891 67.9585 169.129C66.1937 176.28 65.6853 186.065 73.2694 192.093C90.1292 199.364 105.334 195.355 118.75 191.822C121.923 190.985 124.92 190.205 127.824 189.598C127.855 189.592 127.888 189.593 127.919 189.601C127.95 189.61 127.978 189.626 128.002 189.647C128.026 189.67 128.044 189.697 128.055 189.727C128.065 189.756 128.07 189.789 128.065 189.821C126.624 201.02 135.642 227.467 142.723 242.288H142.718Z" fill="#1A1A1A"/>
<path d="M113.932 107.669L122.655 102.288C122.655 102.288 123.904 104.31 127.535 104.31C130.178 104.31 138.082 90.5582 134.196 84.0725C130.31 77.5867 120.955 82.2787 118.099 89.8706C116.638 93.7495 109.913 103.156 106.582 104.31C108.103 106.29 113.932 107.669 113.932 107.669Z" fill="white"/>
<path d="M113.932 107.873C113.917 107.874 113.901 107.874 113.886 107.873C113.644 107.814 107.969 106.457 106.416 104.434C106.396 104.409 106.383 104.379 106.377 104.347C106.371 104.315 106.374 104.283 106.383 104.252C106.393 104.222 106.409 104.194 106.431 104.171C106.454 104.148 106.481 104.131 106.511 104.121C109.689 103.017 116.383 93.841 117.897 89.8003C119.682 85.0598 124.162 81.2052 128.32 80.8331C130.868 80.6086 133.013 81.7189 134.36 83.9698C136.864 88.15 134.639 95.0928 131.974 99.7443C130.719 101.943 128.799 104.509 127.525 104.509C124.399 104.509 122.989 103.061 122.594 102.559L114.033 107.842C114.003 107.86 113.967 107.871 113.932 107.873ZM106.916 104.39C108.497 106.064 113.218 107.286 113.898 107.453L122.548 102.117C122.57 102.102 122.596 102.093 122.622 102.088C122.648 102.083 122.676 102.084 122.702 102.09C122.754 102.104 122.799 102.136 122.828 102.181C122.841 102.201 124.075 104.105 127.531 104.105C128.409 104.105 130.093 102.23 131.628 99.5441C134.446 94.6115 136.276 87.9458 134.017 84.174C132.39 81.4721 130.048 81.0839 128.362 81.2335C124.349 81.5935 120.026 85.3349 118.286 89.9399C116.928 93.5478 110.444 102.81 106.916 104.39Z" fill="#1A1A1A"/>
<path d="M377.747 263.766C377.747 263.766 367.392 262.577 370.68 250.196C375.356 251.881 378.641 260.595 377.747 263.766Z" fill="#B6D7FF"/>
<path d="M377.748 263.969H377.723C377.559 263.95 373.657 263.468 371.376 260.156C369.678 257.679 369.377 254.312 370.483 250.148C370.49 250.121 370.503 250.095 370.52 250.073C370.537 250.05 370.559 250.032 370.585 250.018C370.611 250.007 370.638 250.001 370.667 250.001C370.695 250.001 370.723 250.007 370.75 250.018C375.656 251.784 378.822 260.713 377.943 263.834C377.929 263.873 377.903 263.909 377.867 263.932C377.832 263.957 377.791 263.97 377.748 263.969ZM370.818 250.468C369.802 254.411 370.113 257.591 371.709 259.922C373.608 262.693 376.813 263.402 377.595 263.538C377.939 261.967 377.36 259.182 376.12 256.508C374.702 253.458 372.781 251.273 370.818 250.468Z" fill="black"/>
<path d="M53.3273 247.066C53.3273 247.066 40.2006 252.455 39.5967 239.52C47.3495 238.493 53.3273 247.066 53.3273 247.066Z" fill="#B6D7FF"/>
<path d="M47.6115 248.384C46.0459 248.384 44.3929 248.086 42.9716 247.187C40.7696 245.794 39.5658 243.215 39.3931 239.524C39.3926 239.475 39.4104 239.427 39.443 239.39C39.4756 239.353 39.5208 239.328 39.57 239.322C47.3573 238.289 53.4328 246.865 53.4937 246.952C53.5111 246.977 53.5226 247.005 53.5275 247.035C53.5325 247.064 53.5306 247.095 53.5222 247.124C53.5135 247.153 53.4984 247.18 53.478 247.202C53.4576 247.225 53.4323 247.242 53.4042 247.254C51.5551 247.967 49.5941 248.349 47.6115 248.384ZM39.8099 239.688C40.0132 243.141 41.1417 245.553 43.1871 246.841C46.6742 249.048 51.8284 247.385 53.0037 246.96C52.0318 245.674 46.5847 238.923 39.8099 239.692V239.688Z" fill="black"/>
<path d="M53.3272 247.064C53.3272 247.064 48.9373 236.004 60.4435 232.752C63.1131 242.174 53.3272 247.064 53.3272 247.064Z" fill="#B6D7FF"/>
<path d="M53.3268 247.268C53.3017 247.268 53.2768 247.264 53.2536 247.254C53.2273 247.243 53.2035 247.228 53.1835 247.208C53.1635 247.189 53.1479 247.164 53.1378 247.138C53.0564 246.936 51.1797 242.093 53.3004 237.821C54.5509 235.305 56.9359 233.534 60.3883 232.563C60.4401 232.549 60.4955 232.555 60.5424 232.581C60.5892 232.608 60.6238 232.652 60.6384 232.703C62.0434 237.66 60 241.354 58.0399 243.581C56.7273 245.064 55.163 246.307 53.4184 247.252C53.3894 247.264 53.3582 247.269 53.3268 247.268ZM60.3009 233.004C57.0721 233.959 54.8416 235.634 53.6664 237.999C51.869 241.613 53.1032 245.79 53.4387 246.774C55.0555 245.856 56.5103 244.68 57.7451 243.294C60.4432 240.218 61.3053 236.751 60.3009 232.997V233.004Z" fill="black"/>
<path d="M44.8506 255.318C44.8506 255.318 44.8079 266.884 57.9488 260.757C53.3801 254.163 46.4873 254.845 44.8506 255.318Z" fill="#B6D7FF"/>
<path d="M51.3061 262.75C50.0642 262.783 48.8394 262.458 47.7804 261.811C44.6674 259.836 44.6471 255.5 44.6471 255.318C44.6454 255.273 44.6591 255.228 44.686 255.191C44.7129 255.154 44.7515 255.128 44.7955 255.115C46.9955 254.481 53.6808 254.231 58.1215 260.633C58.1382 260.656 58.1494 260.684 58.1543 260.713C58.1592 260.742 58.1577 260.772 58.1499 260.801C58.1425 260.829 58.1287 260.856 58.1098 260.878C58.0907 260.9 58.067 260.92 58.0402 260.932C55.4498 262.145 53.199 262.75 51.3061 262.75ZM45.0598 255.47C45.0944 256.261 45.3974 259.813 48.002 261.463C50.1938 262.855 53.4389 262.586 57.6478 260.667C52.9448 254.11 46.1557 255.241 45.0598 255.477V255.47Z" fill="black"/>
<path d="M57.9489 260.757C57.9489 260.757 55.1024 249.634 63.8006 246.803C69.4002 255.283 57.9489 260.757 57.9489 260.757Z" fill="#B6D7FF"/>
<path d="M57.9486 260.959C57.9192 260.959 57.8901 260.953 57.8632 260.941C57.8362 260.928 57.8122 260.91 57.7933 260.886C57.7743 260.863 57.7606 260.836 57.7534 260.807C57.312 258.841 57.196 256.816 57.4098 254.813C57.912 250.624 60.0998 247.786 63.7373 246.604C63.7798 246.59 63.8257 246.59 63.868 246.605C63.9102 246.62 63.9465 246.648 63.9711 246.685C65.4473 248.921 65.8884 251.163 65.2825 253.341C63.9671 258.055 58.28 260.823 58.0381 260.939C58.0102 260.953 57.9795 260.959 57.9486 260.959ZM63.7149 247.036C56.1919 249.612 57.7473 258.817 58.0909 260.457C59.1747 259.883 63.7719 257.246 64.8901 253.231C65.4574 251.213 65.065 249.13 63.719 247.036H63.7149Z" fill="black"/>
<path d="M381.337 210.573C381.337 210.573 371.646 212.303 369.021 222.384C374.863 223.353 380.938 219.59 381.337 210.573Z" fill="#B6D7FF"/>
<path d="M370.827 222.737C370.213 222.736 369.601 222.684 368.996 222.584C368.969 222.578 368.943 222.569 368.919 222.552C368.896 222.538 368.876 222.517 368.861 222.494C368.846 222.471 368.835 222.444 368.831 222.417C368.826 222.39 368.827 222.361 368.834 222.334C371.461 212.243 381.213 210.402 381.312 210.376C381.342 210.371 381.372 210.372 381.401 210.38C381.43 210.388 381.456 210.402 381.479 210.422C381.501 210.441 381.519 210.465 381.532 210.492C381.544 210.519 381.55 210.549 381.55 210.578C381.306 216.084 379.037 219.026 377.174 220.526C375.38 221.972 373.136 222.754 370.827 222.737ZM369.275 222.22C372.092 222.623 374.794 221.922 376.908 220.217C379.432 218.194 380.885 214.943 381.121 210.829C379.61 211.189 371.68 213.469 369.275 222.22Z" fill="black"/>
<path d="M369.021 222.392C369.021 222.392 354.343 220.487 359.523 205.136C367.193 207.909 370.052 219.541 369.021 222.392Z" fill="#B6D7FF"/>
<path d="M369.021 222.595H368.994C368.931 222.595 362.757 221.736 359.794 217.023C357.855 213.935 357.698 209.915 359.331 205.073C359.339 205.047 359.353 205.024 359.371 205.005C359.388 204.984 359.411 204.967 359.434 204.956C359.46 204.946 359.487 204.94 359.513 204.94C359.541 204.94 359.568 204.946 359.593 204.956C364.126 206.594 366.632 211.116 367.726 213.667C369.371 217.509 369.723 221.074 369.217 222.472C369.201 222.51 369.173 222.542 369.139 222.564C369.103 222.586 369.063 222.596 369.021 222.595ZM359.65 205.405C358.129 210.036 358.292 213.874 360.14 216.813C362.73 220.936 367.889 222.002 368.883 222.172C369.749 219.085 366.776 208.145 359.65 205.391V205.405Z" fill="black"/>
<path d="M371.418 237.932C371.418 237.932 377.951 227.688 388.607 233.345C379.842 241.975 371.418 237.932 371.418 237.932Z" fill="#B6D7FF"/>
<path d="M376.412 239.081C373.378 239.081 371.414 238.155 371.329 238.115C371.303 238.103 371.281 238.085 371.261 238.063C371.243 238.042 371.229 238.017 371.221 237.989C371.213 237.962 371.211 237.933 371.216 237.905C371.22 237.877 371.231 237.849 371.245 237.826C372.477 236.033 374.064 234.509 375.908 233.346C378.659 231.628 383.113 230.2 388.706 233.168C388.732 233.183 388.757 233.204 388.774 233.23C388.792 233.255 388.804 233.285 388.809 233.315C388.814 233.348 388.811 233.38 388.802 233.41C388.791 233.44 388.775 233.467 388.752 233.49C384.175 237.994 379.69 239.015 376.732 239.078L376.412 239.081ZM371.723 237.844C373.327 238.442 375.032 238.724 376.744 238.673C379.58 238.608 383.86 237.635 388.266 233.397C384.009 231.221 379.93 231.316 376.138 233.681C374.415 234.78 372.918 236.192 371.723 237.844Z" fill="black"/>
<path d="M377.748 263.765C377.748 263.765 382.532 254.851 393.091 260.794C389.305 267.628 377.748 263.765 377.748 263.765Z" fill="#B6D7FF"/>
<path d="M384.617 265.065C384.413 265.065 384.21 265.065 383.992 265.065C381.853 264.971 379.735 264.606 377.689 263.977C377.661 263.968 377.634 263.952 377.613 263.933C377.592 263.913 377.575 263.888 377.564 263.86C377.552 263.833 377.548 263.804 377.549 263.775C377.551 263.745 377.559 263.716 377.572 263.69C377.653 263.544 379.537 260.107 383.567 258.941C386.468 258.104 389.708 258.675 393.196 260.639C393.243 260.664 393.277 260.708 393.291 260.76C393.306 260.81 393.3 260.864 393.274 260.912C391.757 263.624 388.772 265.065 384.617 265.065ZM378.053 263.649C379.706 264.141 389.361 266.716 392.812 260.873C389.494 259.052 386.422 258.518 383.681 259.309C380.379 260.262 378.533 262.883 378.053 263.649Z" fill="black"/>
<path d="M48.632 235.279C48.632 235.279 34.385 234.502 41.3611 215.356C51.9585 217.798 51.2488 230.014 48.632 235.279Z" fill="#B6D7FF"/>
<path d="M48.6323 235.48H48.6201C48.5714 235.48 43.657 235.165 40.9751 231.126C38.584 227.532 38.6511 222.202 41.1784 215.286C41.1951 215.24 41.2287 215.201 41.2725 215.177C41.3164 215.153 41.3675 215.146 41.4163 215.158C45.0558 215.997 47.6584 218.014 49.1427 221.15C51.3061 225.701 50.6147 231.745 48.8133 235.367C48.7967 235.401 48.771 235.43 48.739 235.449C48.7071 235.469 48.6701 235.48 48.6323 235.48ZM41.4915 215.595C39.0801 222.297 39.017 227.445 41.3106 230.9C43.6367 234.402 47.7235 234.982 48.5104 235.064C50.1797 231.597 50.8364 225.658 48.7747 221.324C47.3615 218.347 44.9135 216.425 41.4915 215.595Z" fill="black"/>
<path d="M373.037 206.184C373.037 206.184 365.997 188.682 383.628 185.265C386.765 200.718 373.037 206.184 373.037 206.184Z" fill="#B6D7FF"/>
<path d="M373.037 206.387C372.996 206.387 372.956 206.375 372.923 206.352C372.888 206.329 372.863 206.297 372.848 206.26C372.815 206.178 369.613 198.043 373.051 191.784C374.949 188.315 378.5 186.056 383.599 185.067C383.652 185.057 383.707 185.068 383.751 185.098C383.796 185.128 383.827 185.174 383.838 185.227C385.464 193.292 382.475 198.613 379.669 201.656C377.828 203.65 375.601 205.255 373.122 206.373C373.095 206.384 373.066 206.388 373.037 206.387ZM383.473 185.504C378.606 186.487 375.221 188.665 373.404 191.975C370.355 197.533 372.701 204.652 373.159 205.914C375.506 204.812 377.618 203.27 379.376 201.371C382.082 198.423 384.982 193.284 383.473 185.504Z" fill="black"/>
<path d="M380.34 223.896C380.34 223.896 396.403 222.857 401.08 212.167C391.846 209.188 380.041 214.982 380.34 223.896Z" fill="#B6D7FF"/>
<path d="M380.341 224.098C380.29 224.098 380.241 224.08 380.204 224.046C380.184 224.028 380.168 224.006 380.156 223.982C380.144 223.957 380.138 223.93 380.137 223.903C380.021 220.398 381.746 217.127 384.993 214.695C389.488 211.327 395.826 210.245 401.135 211.966C401.161 211.975 401.186 211.99 401.207 212.008C401.229 212.027 401.245 212.05 401.256 212.076C401.268 212.101 401.274 212.129 401.274 212.158C401.274 212.186 401.268 212.214 401.256 212.239C398.817 217.834 393.256 220.76 389.021 222.231C386.217 223.197 383.307 223.825 380.353 224.098H380.341ZM395.958 211.589C392.135 211.589 388.211 212.792 385.236 215.026C382.165 217.328 380.503 220.396 380.54 223.686C382.433 223.512 396.411 221.906 400.793 212.292C399.225 211.821 397.596 211.583 395.958 211.589Z" fill="black"/>
<path d="M380.117 253.993C380.117 253.993 378.848 236.973 394.087 238.904C396.627 251.386 380.117 253.993 380.117 253.993Z" fill="#B6D7FF"/>
<path d="M380.117 254.193C380.071 254.193 380.027 254.177 379.99 254.148C379.968 254.131 379.95 254.11 379.937 254.085C379.923 254.061 379.916 254.033 379.914 254.005C379.914 253.925 379.354 245.738 384.018 241.337C386.446 239.047 389.841 238.162 394.112 238.708C394.155 238.713 394.194 238.732 394.225 238.761C394.257 238.789 394.278 238.828 394.286 238.87C394.933 242.047 394.412 244.876 392.737 247.275C388.911 252.757 380.234 254.184 380.15 254.198L380.117 254.193ZM391.779 238.953C388.697 238.953 386.188 239.849 384.302 241.63C380.204 245.495 380.257 252.418 380.308 253.75C381.682 253.489 389.019 251.89 392.403 247.036C393.988 244.767 394.495 242.094 393.916 239.086C393.208 238.999 392.494 238.954 391.779 238.953Z" fill="black"/>
<path d="M20.2356 241.236C20.2356 241.236 15.9189 233.097 6.42969 240.346C11.7671 245.824 17.3178 244.593 20.2356 241.236Z" fill="#B6D7FF"/>
<path d="M14.1035 244.311C11.4237 244.311 8.72556 242.993 6.28362 240.487C6.26399 240.466 6.24894 240.441 6.23948 240.414C6.23002 240.388 6.22636 240.36 6.22873 240.331C6.23092 240.304 6.23872 240.277 6.25166 240.253C6.26459 240.228 6.28238 240.207 6.30396 240.19C9.5775 237.689 12.607 236.72 15.3093 237.305C18.7373 238.052 20.3477 241.019 20.4148 241.149C20.4338 241.184 20.4414 241.225 20.4367 241.265C20.432 241.306 20.4151 241.343 20.3883 241.374C19.6441 242.26 18.7205 242.98 17.6778 243.486C16.6353 243.992 15.4971 244.275 14.3373 244.316L14.1035 244.311ZM6.73704 240.367C9.12613 242.756 11.747 243.977 14.3272 243.903C15.4062 243.865 16.4657 243.607 17.4397 243.144C18.4137 242.68 19.2811 242.023 19.9878 241.211C19.6503 240.655 18.0847 238.317 15.2198 237.696C12.6905 237.156 9.83776 238.048 6.73704 240.367Z" fill="black"/>
<path d="M22.7305 227.698C22.7305 227.698 14.2132 231.29 20.6729 241.307C26.6141 236.48 25.8577 230.876 22.7305 227.698Z" fill="#B6D7FF"/>
<path d="M20.673 241.51H20.6405C20.6124 241.504 20.5857 241.495 20.5618 241.48C20.538 241.464 20.5177 241.444 20.5021 241.42C18.2656 237.964 17.558 234.88 18.3754 232.25C19.4123 228.916 22.5212 227.573 22.6453 227.516C22.683 227.5 22.7248 227.496 22.765 227.504C22.8053 227.512 22.8422 227.531 22.8709 227.561C23.6958 228.374 24.3393 229.35 24.7598 230.426C25.1802 231.502 25.3679 232.655 25.3109 233.808C25.1583 236.547 23.5988 239.196 20.8011 241.467C20.7645 241.495 20.7193 241.51 20.673 241.51ZM22.6859 227.943C22.1003 228.23 19.6359 229.583 18.7617 232.372C17.9992 234.831 18.658 237.736 20.7218 241.003C23.3162 238.839 24.7618 236.352 24.9042 233.782C24.9584 232.71 24.7893 231.637 24.4076 230.632C24.0259 229.627 23.4397 228.712 22.6859 227.943Z" fill="black"/>
<path d="M32.6569 265.064C32.6569 265.064 21.1364 255.578 12.3608 265.064C17.2224 269.481 28.5233 269.493 32.6569 265.064Z" fill="#B6D7FF"/>
<path d="M22.7912 268.579C18.501 268.579 14.5545 267.317 12.2325 265.21C12.2126 265.191 12.1966 265.17 12.1851 265.145C12.1737 265.122 12.1673 265.095 12.1662 265.068C12.165 265.042 12.1692 265.015 12.1785 264.99C12.1878 264.964 12.202 264.942 12.2203 264.923C16.8256 259.946 22.1833 260.21 25.8675 261.308C28.3738 262.087 30.7203 263.305 32.7969 264.905C32.818 264.922 32.8355 264.943 32.8481 264.968C32.8607 264.992 32.8682 265.018 32.8701 265.046C32.8721 265.074 32.8685 265.101 32.8594 265.127C32.8503 265.153 32.836 265.177 32.8172 265.198C30.8307 267.315 27.0854 268.579 22.7912 268.579ZM12.6514 265.046C17.4335 269.181 28.2465 269.195 32.3556 265.08C30.358 263.583 28.1167 262.436 25.7293 261.693C20.6055 260.167 16.2055 261.296 12.6514 265.046Z" fill="black"/>
<path d="M28.0067 254.382C28.0067 254.382 25.5872 244.865 35.3834 241.641C37.986 250.601 28.0067 254.382 28.0067 254.382Z" fill="#B6D7FF"/>
<path d="M28.0066 254.584C27.9602 254.585 27.9146 254.57 27.8777 254.542C27.8407 254.514 27.8144 254.475 27.8033 254.43C27.4313 252.696 27.4361 250.903 27.8175 249.171C28.393 246.583 30.1619 243.141 35.3121 241.446C35.3382 241.437 35.3659 241.434 35.3934 241.436C35.4208 241.438 35.4475 241.447 35.4719 241.46C35.4963 241.473 35.5177 241.49 35.5349 241.511C35.5522 241.533 35.565 241.557 35.5723 241.584C36.9448 246.308 34.8262 249.591 32.8051 251.512C31.4271 252.806 29.8239 253.84 28.0737 254.564C28.0528 254.574 28.03 254.581 28.0066 254.584ZM35.245 241.905C31.3819 243.232 29.0192 245.704 28.2221 249.251C27.8796 250.849 27.8568 252.498 28.155 254.104C29.7672 253.395 31.2473 252.419 32.5327 251.219C35.2999 248.585 36.2088 245.449 35.245 241.905Z" fill="black"/>
<path d="M27.7428 254.401C27.7428 254.401 21.3746 243.652 11.7939 251.657C18.5768 259.503 27.7509 254.401 27.7509 254.401H27.7428Z" fill="#B6D7FF"/>
<path d="M21.0653 256.233C18.2717 256.233 14.7053 255.346 11.6311 251.784C11.6139 251.764 11.6009 251.74 11.5929 251.715C11.5849 251.69 11.5819 251.663 11.5843 251.636C11.5862 251.609 11.5936 251.584 11.6058 251.559C11.618 251.536 11.6349 251.514 11.6554 251.497C14.5284 249.101 17.4056 248.126 20.2094 248.605C24.9814 249.414 27.7996 254.096 27.9174 254.294C27.9312 254.317 27.9402 254.343 27.9438 254.37C27.9476 254.396 27.9459 254.423 27.9388 254.449C27.9318 254.476 27.9197 254.499 27.9031 254.521C27.8865 254.542 27.8658 254.56 27.8422 254.573C26.1222 255.449 24.25 255.989 22.326 256.167C21.9295 256.211 21.5066 256.233 21.0653 256.233ZM12.0764 251.679C14.8172 254.769 18.2473 256.144 22.2732 255.772C24.0717 255.595 25.8247 255.105 27.4518 254.323C26.8805 253.45 24.1986 249.701 20.1321 249.007C17.5092 248.56 14.7988 249.458 12.0764 251.679Z" fill="black"/>
<path d="M15.0835 234.204C15.0835 234.204 2.16009 239.816 0.204102 219.292C11.5903 214.516 16.2668 230.185 15.0835 234.204Z" fill="#B6D7FF"/>
<path d="M11.2852 235.099C9.6669 235.115 8.07433 234.696 6.67581 233.885C2.96104 231.716 0.716325 226.812 0.000618092 219.312C-0.00271291 219.27 0.00747944 219.227 0.029746 219.191C0.0520126 219.155 0.08522 219.127 0.124647 219.11C3.87398 217.536 7.34271 218.022 10.1527 220.514C14.4225 224.304 16.0328 231.7 15.2785 234.266C15.2703 234.294 15.2558 234.321 15.2361 234.343C15.2165 234.366 15.1921 234.383 15.1646 234.395C13.926 234.865 12.6109 235.103 11.2852 235.099ZM0.421503 219.421C1.13721 226.702 3.30873 231.447 6.8771 233.54C10.4455 235.633 14.2883 234.296 14.9146 234.053C15.5774 231.493 13.9915 224.455 9.88225 220.811C7.19226 218.429 4.0102 217.961 0.421503 219.421Z" fill="black"/>
<path d="M35.8165 272.578C35.7711 272.579 35.7264 272.567 35.6896 272.54C35.6527 272.514 35.6258 272.476 35.6132 272.433C35.5928 272.362 33.5494 265.297 28.757 255.778C24.3427 246.997 16.6062 234.27 4.88042 223.511C4.85877 223.494 4.84093 223.472 4.828 223.448C4.81507 223.423 4.80734 223.396 4.80525 223.369C4.80318 223.341 4.80681 223.314 4.81593 223.287C4.82504 223.262 4.83945 223.237 4.85826 223.217C4.87706 223.196 4.89987 223.18 4.92527 223.17C4.95067 223.158 4.97811 223.151 5.00592 223.151C5.03372 223.151 5.06129 223.157 5.08691 223.167C5.11254 223.178 5.13568 223.194 5.15491 223.213C16.9479 234.017 24.7047 246.792 29.1474 255.606C33.9561 265.158 36.0055 272.251 36.0259 272.322C36.0333 272.347 36.0356 272.374 36.0325 272.401C36.0295 272.426 36.0212 272.452 36.0082 272.476C35.9951 272.499 35.9776 272.52 35.9566 272.536C35.9355 272.553 35.9114 272.564 35.8856 272.572C35.863 272.577 35.8397 272.579 35.8165 272.578Z" fill="#1A1A1A"/>
<path d="M61.0454 272.345C60.9986 272.346 60.9529 272.332 60.9159 272.304C60.8789 272.275 60.8528 272.235 60.8421 272.189C55.4438 249.45 45.4869 228.753 45.3893 228.547C45.3658 228.498 45.3627 228.442 45.3807 228.392C45.3986 228.341 45.4361 228.299 45.4848 228.275C45.5337 228.253 45.5898 228.25 45.6409 228.267C45.692 228.285 45.7339 228.322 45.7573 228.371C45.857 228.573 55.8342 249.312 61.2427 272.097C61.2487 272.123 61.2495 272.15 61.2451 272.175C61.2406 272.202 61.2311 272.227 61.2169 272.249C61.2028 272.272 61.1843 272.292 61.1625 272.307C61.1407 272.322 61.1162 272.334 61.0901 272.339C61.0756 272.343 61.0605 272.345 61.0454 272.345Z" fill="#1A1A1A"/>
<path d="M363.606 272.717C363.553 272.717 363.502 272.696 363.463 272.659C363.425 272.62 363.403 272.569 363.403 272.515C363.403 272.412 363.444 262.017 366.812 249.905C368.789 242.786 371.514 236.475 374.908 231.141C379.155 224.468 384.464 219.323 390.7 215.846C390.746 215.82 390.802 215.813 390.854 215.828C390.906 215.842 390.95 215.876 390.976 215.923C390.99 215.946 390.998 215.972 391.002 215.998C391.005 216.025 391.003 216.052 390.996 216.078C390.989 216.103 390.976 216.128 390.96 216.148C390.943 216.17 390.923 216.187 390.899 216.2C376.915 224.011 370.295 238.893 367.208 250.012C363.853 262.073 363.815 272.412 363.815 272.515C363.815 272.542 363.808 272.569 363.799 272.593C363.788 272.618 363.773 272.64 363.753 272.66C363.733 272.678 363.711 272.693 363.685 272.704C363.661 272.713 363.634 272.717 363.606 272.717Z" fill="#1A1A1A"/>
<path d="M369.286 272.717C369.238 272.718 369.191 272.702 369.153 272.671C369.116 272.641 369.09 272.598 369.082 272.551C369.062 272.43 366.915 260.308 367.024 244.566C367.089 235.317 367.911 226.646 369.464 218.793C371.405 208.97 374.503 200.405 378.671 193.337C378.684 193.313 378.701 193.291 378.722 193.274C378.744 193.257 378.768 193.244 378.795 193.237C378.82 193.229 378.848 193.226 378.876 193.23C378.903 193.234 378.929 193.242 378.953 193.256C378.976 193.269 378.998 193.287 379.014 193.31C379.03 193.331 379.042 193.356 379.049 193.382C379.056 193.409 379.057 193.437 379.051 193.464C379.047 193.491 379.037 193.516 379.022 193.539C369.629 209.465 367.537 230.077 367.433 244.566C367.323 260.272 369.466 272.358 369.485 272.474C369.489 272.501 369.489 272.528 369.484 272.553C369.477 272.579 369.466 272.604 369.451 272.626C369.435 272.648 369.416 272.666 369.394 272.681C369.371 272.695 369.347 272.704 369.32 272.709L369.286 272.717Z" fill="#1A1A1A"/>
<path d="M376.967 272.718C376.913 272.718 376.861 272.697 376.824 272.659C376.785 272.621 376.764 272.569 376.764 272.516C376.877 268.392 377.345 264.285 378.162 260.24C379.382 254.327 381.981 246.72 387.341 244.075C387.389 244.053 387.444 244.051 387.493 244.068C387.543 244.086 387.584 244.121 387.608 244.169C387.632 244.216 387.635 244.27 387.619 244.321C387.603 244.371 387.569 244.413 387.522 244.437C377.516 249.376 377.172 272.289 377.171 272.52C377.17 272.573 377.147 272.623 377.11 272.66C377.071 272.698 377.02 272.718 376.967 272.718Z" fill="#1A1A1A"/>
<path d="M354.876 232.528C354.876 232.528 367.778 231.128 367.201 244.319C361.319 243.866 356.063 239.562 354.876 232.528Z" fill="#B6D7FF"/>
<path d="M367.207 244.522H367.193C360.833 244.033 355.806 239.226 354.68 232.564C354.676 232.536 354.677 232.509 354.683 232.482C354.69 232.455 354.702 232.431 354.719 232.408C354.736 232.387 354.757 232.368 354.781 232.355C354.805 232.341 354.832 232.332 354.859 232.33C354.916 232.33 360.644 231.744 364.326 235.175C366.548 237.248 367.579 240.326 367.41 244.33C367.409 244.357 367.403 244.384 367.391 244.407C367.38 244.432 367.363 244.453 367.343 244.472C367.306 244.505 367.258 244.523 367.207 244.522ZM355.113 232.708C356.266 238.997 361.01 243.537 367.008 244.096C367.132 240.318 366.136 237.421 364.042 235.464C360.904 232.538 356.175 232.647 355.113 232.708Z" fill="black"/>
<path d="M175.774 107.065L190.248 135.596H226.955L213.707 105.916L176.577 105.246L175.774 107.065Z" fill="#1C0311"/>
<path d="M226.955 135.697H190.248C190.229 135.697 190.211 135.693 190.195 135.682C190.179 135.672 190.166 135.657 190.158 135.641L175.674 107.117C175.669 107.103 175.666 107.088 175.666 107.073C175.666 107.058 175.669 107.043 175.674 107.03L176.487 105.21C176.497 105.192 176.51 105.177 176.527 105.167C176.544 105.157 176.563 105.151 176.583 105.151L213.713 105.821C213.732 105.821 213.75 105.827 213.768 105.838C213.784 105.849 213.796 105.864 213.804 105.881L227.052 135.56C227.061 135.575 227.065 135.591 227.065 135.608C227.065 135.625 227.061 135.642 227.052 135.657C227.042 135.672 227.027 135.684 227.01 135.69C226.992 135.698 226.973 135.7 226.955 135.697ZM190.309 135.495H226.799L213.641 106.017L176.636 105.347L175.878 107.063L190.309 135.495Z" fill="#1A1A1A"/>
<path d="M286.786 118.493C286.786 118.493 289.487 128.72 282.397 127.043C275.307 125.367 244.423 115.313 244.423 115.313H226.955C226.955 115.313 225.969 117.409 235.698 117.2C236.538 120.513 236.468 123.689 238.748 123.414C240.633 123.185 244.301 121.698 246.352 121.447C251.155 124.194 277.665 139.156 285.941 139.461C295.053 139.795 300.623 130.237 301.635 123.866L286.786 118.493Z" fill="white"/>
<path d="M286.412 139.663C286.254 139.663 286.094 139.663 285.934 139.653C277.679 139.349 251.625 124.687 246.314 121.654C245.298 121.79 243.855 122.231 242.469 122.655C241.083 123.079 239.716 123.498 238.775 123.611C236.812 123.846 236.416 121.792 235.959 119.423C235.83 118.768 235.7 118.095 235.531 117.401C230.557 117.493 227.563 116.997 226.872 115.926C226.797 115.827 226.748 115.71 226.731 115.587C226.714 115.464 226.728 115.339 226.772 115.223C226.788 115.188 226.814 115.158 226.847 115.138C226.879 115.117 226.917 115.105 226.955 115.105H244.423C244.444 115.105 244.465 115.109 244.486 115.115C244.796 115.217 275.444 125.193 282.445 126.846C284.016 127.217 285.204 127.009 285.972 126.226C288.032 124.131 286.603 118.598 286.583 118.541C286.573 118.506 286.573 118.467 286.584 118.432C286.594 118.397 286.614 118.365 286.641 118.339C286.669 118.315 286.702 118.298 286.737 118.291C286.774 118.284 286.81 118.286 286.845 118.298L301.688 123.664C301.732 123.68 301.769 123.711 301.794 123.75C301.817 123.791 301.827 123.838 301.82 123.884C301.247 127.485 299.432 131.377 296.964 134.296C294.895 136.771 291.385 139.663 286.412 139.663ZM246.357 121.237C246.392 121.237 246.427 121.246 246.458 121.264C251.616 124.214 277.77 138.949 285.95 139.251C294.718 139.574 300.324 130.397 301.403 123.99L287.064 118.811C287.361 120.13 288.177 124.558 286.251 126.51C285.375 127.401 284.057 127.648 282.336 127.24C275.422 125.603 245.51 115.878 244.377 115.51H227.12C227.132 115.588 227.163 115.663 227.211 115.726C227.513 116.155 228.94 117.142 235.672 116.995C235.718 116.992 235.763 117.007 235.801 117.034C235.837 117.062 235.864 117.102 235.875 117.145C236.067 117.9 236.207 118.632 236.345 119.342C236.845 121.931 237.203 123.388 238.714 123.205C239.62 123.095 240.95 122.692 242.337 122.265C243.76 121.824 245.255 121.371 246.318 121.239L246.357 121.237Z" fill="#1A1A1A"/>
<path d="M278.236 253.69L278.929 272.547L248.77 272.127C248.77 272.127 260.669 261.311 270.921 261.186C272.187 254.512 271.937 253.69 271.937 253.69H278.236Z" fill="#1C0311"/>
<path d="M278.93 272.648L248.77 272.227C248.75 272.227 248.73 272.221 248.714 272.21C248.696 272.198 248.684 272.182 248.676 272.163C248.67 272.144 248.669 272.123 248.673 272.103C248.677 272.084 248.688 272.066 248.703 272.052C248.821 271.945 260.683 261.268 270.839 261.086C272.06 254.69 271.856 253.756 271.837 253.717C271.833 253.702 271.833 253.686 271.836 253.671C271.84 253.656 271.846 253.642 271.856 253.629C271.865 253.618 271.877 253.608 271.891 253.601C271.905 253.593 271.92 253.59 271.935 253.59H278.238C278.264 253.59 278.29 253.599 278.309 253.618C278.328 253.636 278.339 253.66 278.34 253.686L279.033 272.545C279.033 272.572 279.024 272.599 279.004 272.618C278.995 272.627 278.983 272.636 278.97 272.64C278.957 272.646 278.943 272.649 278.93 272.648ZM249.041 272.029L278.832 272.447L278.146 253.792H272.047C272.076 254.197 272.047 255.78 271.018 261.206C271.015 261.229 271.002 261.249 270.985 261.264C270.967 261.279 270.944 261.286 270.921 261.286C261.535 261.402 250.616 270.644 249.032 272.029H249.041Z" fill="#1A1A1A"/>
<path d="M324.818 253.69L325.516 272.713L295.35 272.127C295.35 272.127 307.249 261.311 317.512 261.186C318.777 254.512 318.529 253.69 318.529 253.69H324.818Z" fill="#1C0311"/>
<path d="M325.525 272.814L295.359 272.227C295.339 272.227 295.32 272.221 295.304 272.209C295.287 272.197 295.274 272.181 295.267 272.163C295.259 272.144 295.258 272.123 295.262 272.103C295.268 272.084 295.278 272.066 295.293 272.052C295.413 271.945 307.272 261.268 317.429 261.086C318.649 254.69 318.446 253.756 318.427 253.717C318.423 253.702 318.423 253.686 318.427 253.671C318.43 253.656 318.436 253.642 318.446 253.629C318.456 253.618 318.467 253.608 318.481 253.601C318.496 253.593 318.511 253.59 318.527 253.59H324.83C324.856 253.59 324.881 253.599 324.9 253.618C324.919 253.636 324.93 253.66 324.931 253.686L325.629 272.711C325.63 272.725 325.628 272.738 325.624 272.751C325.618 272.763 325.611 272.774 325.6 272.784C325.59 272.793 325.579 272.802 325.566 272.807C325.553 272.813 325.539 272.815 325.525 272.814ZM295.622 272.031L325.419 272.61L324.73 253.802H318.631C318.661 254.206 318.631 255.789 317.614 261.216C317.609 261.238 317.596 261.26 317.578 261.274C317.56 261.289 317.538 261.297 317.514 261.297C308.112 261.402 297.19 270.651 295.612 272.031H295.622Z" fill="#1A1A1A"/>
<path d="M284.072 69.3136C284.072 69.3136 278.653 82.5762 283.313 88.2976C286.995 92.8378 290.822 90.1177 290.822 90.1177L295.041 95.6408L302.971 93.1249C302.971 93.1249 297.568 84.9101 299.764 80.2142C301.96 75.5182 289.131 62.2717 284.072 69.3136Z" fill="white"/>
<path d="M295.042 95.8401C295.009 95.8398 294.98 95.8324 294.952 95.8184C294.924 95.8044 294.899 95.7842 294.88 95.7592L290.773 90.3838C289.976 90.849 286.477 92.5194 283.154 88.4242C278.478 82.6766 283.661 69.7819 283.883 69.2358C283.889 69.2213 283.897 69.2077 283.907 69.1954C285.716 66.6776 288.787 66.4146 292.341 68.4755C296.895 71.1167 301.393 77.2141 299.952 80.2962C297.831 84.8365 303.091 92.93 303.143 93.0129C303.162 93.0388 303.172 93.0684 303.175 93.0993C303.18 93.1301 303.176 93.1615 303.166 93.1909C303.156 93.2203 303.138 93.247 303.116 93.2688C303.093 93.2906 303.066 93.3068 303.037 93.3162L295.107 95.8301C295.085 95.8367 295.063 95.8401 295.042 95.8401ZM290.822 89.9125C290.853 89.9123 290.884 89.9194 290.913 89.9331C290.941 89.9467 290.965 89.9667 290.985 89.9914L295.116 95.4013L302.659 93.0109C301.794 91.6316 297.544 84.4886 299.583 80.1264C300.804 77.5073 296.908 71.5939 292.135 68.8233C290.172 67.6847 286.542 66.2508 284.25 69.4097C284.007 70.0165 279.027 82.715 283.469 88.1693C286.993 92.5114 290.554 90.0562 290.705 89.951C290.739 89.9263 290.78 89.9129 290.822 89.9125Z" fill="#1A1A1A"/>
<path d="M301.637 189.468L316.986 253.132H325.086C327.673 254.259 326.131 216.4 324.983 198.1C324.805 198.077 324.629 198.059 324.45 198.035C316.248 197.04 308.767 193.61 301.637 189.468Z" fill="white"/>
<path d="M325.194 253.364C325.144 253.364 325.094 253.355 325.046 253.339H316.985C316.939 253.341 316.894 253.327 316.857 253.299C316.82 253.271 316.793 253.231 316.782 253.186L301.436 189.516C301.428 189.478 301.431 189.44 301.444 189.403C301.458 189.368 301.482 189.336 301.513 189.313C301.545 189.29 301.583 189.276 301.623 189.274C301.662 189.272 301.702 189.281 301.736 189.302C310.442 194.357 317.453 196.986 324.469 197.846L324.802 197.887L325.005 197.91C325.052 197.917 325.095 197.939 325.128 197.973C325.16 198.007 325.179 198.051 325.182 198.098C325.692 206.233 326.374 219.902 326.606 231.65C327.012 252.195 325.843 253.014 325.456 253.289C325.379 253.339 325.287 253.366 325.194 253.364ZM317.142 252.933H325.072C325.1 252.933 325.128 252.938 325.154 252.95C325.163 252.956 325.174 252.961 325.186 252.961C325.197 252.961 325.209 252.956 325.219 252.95C325.625 252.66 326.565 250.004 326.194 231.656C325.958 219.995 325.286 206.438 324.771 198.287H324.739L324.403 198.244C317.443 197.396 310.496 194.806 301.927 189.886L317.142 252.933Z" fill="#1A1A1A"/>
<path d="M297.996 174.362L301.637 189.468C308.767 193.61 316.249 197.039 324.447 198.039C324.625 198.062 324.802 198.08 324.979 198.103C324.724 194.046 324.491 190.95 324.324 189.454L297.996 174.362Z" fill="#1C0311"/>
<path d="M324.978 198.204H324.967L324.763 198.18L324.427 198.14C317.37 197.281 310.325 194.633 301.58 189.555C301.556 189.54 301.54 189.518 301.533 189.492L297.892 174.387C297.887 174.367 297.889 174.347 297.895 174.329C297.902 174.31 297.914 174.294 297.93 174.282C297.946 174.271 297.967 174.265 297.986 174.265C298.006 174.265 298.025 174.271 298.041 174.282L324.37 189.373C324.384 189.381 324.396 189.391 324.405 189.405C324.414 189.418 324.42 189.434 324.422 189.449C324.588 190.958 324.828 194.032 325.076 198.104C325.078 198.119 325.076 198.134 325.07 198.148C325.065 198.162 325.056 198.174 325.046 198.184C325.026 198.198 325.003 198.204 324.978 198.204ZM301.724 189.403C310.426 194.459 317.44 197.088 324.458 197.94L324.791 197.98H324.87C324.62 194.018 324.393 191.017 324.228 189.508L298.149 174.559L301.724 189.403Z" fill="#1A1A1A"/>
<path d="M341.538 149.211C341.538 149.211 382.309 233.726 276.996 174.369C281.39 195.026 281.711 236.391 278.502 255.401H270.908C270.908 255.401 243.053 168.83 262.806 157.009C282.559 145.188 304.746 153.591 304.746 153.591L341.538 149.211Z" fill="white"/>
<path d="M278.502 255.604H270.908C270.863 255.606 270.819 255.594 270.783 255.568C270.745 255.542 270.719 255.505 270.705 255.462C270.635 255.246 263.689 233.544 259.244 210.677C256.633 197.238 255.381 186.032 255.531 177.367C255.716 166.478 258.125 159.569 262.694 156.835C272.94 150.702 283.84 150.095 291.19 150.666C299.142 151.284 304.755 153.381 304.813 153.403C304.838 153.413 304.861 153.427 304.88 153.445C304.9 153.463 304.916 153.486 304.926 153.509C304.937 153.534 304.944 153.56 304.944 153.586C304.945 153.613 304.94 153.64 304.931 153.665C304.921 153.689 304.907 153.712 304.889 153.731C304.871 153.75 304.848 153.766 304.824 153.777C304.799 153.788 304.774 153.794 304.747 153.795C304.72 153.795 304.693 153.791 304.669 153.781C304.613 153.76 299.045 151.68 291.147 151.068C283.867 150.502 273.051 151.105 262.905 157.182C258.465 159.84 256.122 166.631 255.939 177.373C255.793 186.008 257.04 197.192 259.646 210.597C263.898 232.476 270.444 253.29 271.051 255.2H278.324C281.359 236.95 281.253 195.384 276.791 174.409C276.783 174.372 276.786 174.332 276.8 174.296C276.814 174.261 276.839 174.228 276.87 174.206C276.902 174.184 276.939 174.17 276.978 174.167C277.017 174.165 277.056 174.174 277.09 174.193C296.233 184.981 311.83 191.711 323.448 194.195C333.275 196.296 340.375 195.392 344.553 191.511C350.653 185.849 349.469 174.684 347.399 166.324C345.145 157.223 341.385 149.377 341.347 149.3C341.335 149.276 341.328 149.25 341.326 149.223C341.325 149.197 341.329 149.17 341.337 149.145C341.347 149.12 341.361 149.096 341.378 149.076C341.396 149.057 341.418 149.041 341.442 149.029C341.491 149.007 341.547 149.003 341.597 149.022C341.648 149.039 341.689 149.076 341.712 149.124C341.751 149.202 345.529 157.084 347.791 166.221C349.124 171.597 349.68 176.349 349.445 180.352C349.15 185.383 347.599 189.235 344.832 191.806C342.025 194.413 338.008 195.717 332.778 195.715C320.662 195.715 302.092 188.714 277.27 174.766C279.265 184.399 280.544 199.202 280.788 215.501C281.024 231.314 280.237 246.24 278.686 255.434C278.679 255.479 278.656 255.52 278.623 255.551C278.59 255.581 278.548 255.6 278.502 255.604Z" fill="#1A1A1A"/>
<path d="M306.182 149.846L303.16 153.069C303.16 153.069 320.916 164.433 330.916 163.553C340.915 162.673 344.519 157.662 344.519 157.662L342.562 149.846H306.182Z" fill="#1C0311"/>
<path d="M329.796 163.703C319.72 163.703 303.287 153.263 303.117 153.154C303.104 153.145 303.093 153.136 303.085 153.123C303.077 153.11 303.071 153.096 303.07 153.081C303.069 153.066 303.07 153.051 303.074 153.037C303.08 153.023 303.086 153.011 303.097 153L306.116 149.776C306.125 149.765 306.136 149.757 306.148 149.75C306.16 149.744 306.174 149.74 306.188 149.74C306.202 149.739 306.216 149.74 306.228 149.745C306.242 149.749 306.254 149.757 306.264 149.766C306.274 149.776 306.283 149.787 306.288 149.8C306.294 149.812 306.297 149.826 306.297 149.84C306.297 149.854 306.294 149.867 306.288 149.88C306.283 149.893 306.274 149.904 306.265 149.914L303.33 153.049C304.798 153.971 321.461 164.281 330.92 163.451C340.303 162.626 344.065 158.094 344.42 157.64L342.495 149.955H306.742C306.715 149.955 306.689 149.944 306.67 149.925C306.652 149.906 306.641 149.88 306.641 149.853C306.641 149.826 306.652 149.801 306.67 149.781C306.689 149.763 306.715 149.752 306.742 149.752H342.564C342.587 149.752 342.608 149.76 342.626 149.774C342.645 149.788 342.656 149.807 342.662 149.828L344.618 157.645C344.621 157.66 344.622 157.675 344.62 157.69C344.618 157.704 344.612 157.718 344.603 157.731C344.567 157.779 340.858 162.787 330.927 163.662C330.557 163.686 330.175 163.703 329.796 163.703Z" fill="#1A1A1A"/>
<path d="M294.535 96.8032L303.451 152.479C303.451 152.479 343.303 170.749 344.154 149.12C341.454 117.27 303.312 73.1698 294.535 96.8032Z" fill="#B6D7FF"/>
<path d="M331.08 159.914C327.317 159.914 322.787 159.189 317.519 157.739C312.685 156.386 307.954 154.693 303.363 152.671C303.334 152.657 303.307 152.636 303.288 152.609C303.267 152.583 303.254 152.552 303.249 152.519L294.335 96.8434C294.33 96.8095 294.334 96.7746 294.346 96.7424C296.204 91.7309 299.561 89.4031 304.05 90.0079C310.986 90.9442 320.509 98.9851 328.901 110.992C337.614 123.458 343.39 137.708 344.353 149.11V149.136C344.195 153.201 342.646 156.158 339.753 157.923C337.581 159.25 334.676 159.914 331.08 159.914ZM303.632 152.348C305.379 153.13 329.479 163.715 339.539 157.579C342.308 155.89 343.79 153.048 343.947 149.132C342.984 137.806 337.238 123.628 328.563 111.224C320.227 99.3047 310.819 91.3284 303.994 90.4083C299.669 89.8258 296.557 91.9857 294.74 96.8334L303.632 152.348Z" fill="black"/>
<path d="M297.95 91.7012C297.95 91.7012 281.201 97.1473 285.927 119.455C297.235 131.528 302.804 127.503 302.804 127.503L306.179 101.682L297.95 91.7012Z" fill="#B6D7FF"/>
<path d="M300.128 128.35C299.606 128.349 299.084 128.301 298.57 128.205C294.803 127.529 290.498 124.634 285.779 119.594C285.755 119.566 285.738 119.533 285.729 119.497C283.271 107.897 286.702 100.907 290.012 97.0871C293.605 92.9432 297.845 91.5296 297.888 91.5154C297.913 91.5059 297.94 91.5019 297.968 91.5032C297.996 91.5046 298.022 91.5113 298.047 91.5232C298.071 91.5351 298.093 91.5518 298.111 91.5722C298.129 91.5927 298.143 91.6166 298.152 91.6424C298.16 91.6683 298.163 91.6956 298.16 91.7227C298.158 91.7498 298.15 91.7761 298.138 91.8001C298.125 91.8241 298.107 91.8453 298.085 91.8625C298.064 91.8795 298.04 91.8922 298.014 91.8996C297.971 91.9138 293.825 93.3012 290.307 97.36C287.069 101.105 283.716 107.958 286.115 119.353C291.871 125.487 296.078 127.327 298.593 127.793C300.958 128.227 302.303 127.561 302.615 127.379L305.98 101.656C305.987 101.603 306.015 101.554 306.058 101.522C306.101 101.489 306.154 101.475 306.207 101.482C306.261 101.489 306.309 101.516 306.342 101.559C306.375 101.601 306.389 101.655 306.383 101.708L303.007 127.529C303.003 127.557 302.995 127.584 302.98 127.608C302.966 127.631 302.947 127.651 302.924 127.668C302.877 127.693 301.952 128.35 300.128 128.35Z" fill="black"/>
<path d="M278.601 66.3853C278.601 66.3853 281.015 76.6124 292.002 77.0331L290.499 83.3206L292.002 83.7392C292.002 83.7392 292.018 80.3862 294.035 81.9798C296.052 83.5735 295.627 85.5008 295.627 85.5008L299.772 86.2308C299.772 86.2308 305.262 75.0208 302.387 69.9062C299.513 64.7916 278.601 66.3853 278.601 66.3853Z" fill="#1C0311"/>
<path d="M299.781 86.331H299.765L295.616 85.6008C295.602 85.5984 295.589 85.5933 295.577 85.5857C295.567 85.578 295.556 85.568 295.549 85.5564C295.535 85.5336 295.529 85.506 295.535 85.4795C295.535 85.4613 295.927 83.5906 293.979 82.0597C293.506 81.6875 293.117 81.5682 292.824 81.7098C292.119 82.0476 292.103 83.7321 292.103 83.7321C292.103 83.7479 292.099 83.7633 292.092 83.7773C292.085 83.7913 292.074 83.8035 292.062 83.8131C292.049 83.822 292.035 83.8283 292.02 83.831C292.004 83.8338 291.987 83.8332 291.973 83.8292L290.47 83.4106C290.445 83.4036 290.423 83.3869 290.409 83.3643C290.397 83.3416 290.392 83.3147 290.399 83.2892L291.873 77.121C286.233 76.8662 282.904 73.9863 281.097 71.606C279.912 70.0467 279.031 68.2813 278.499 66.4005C278.495 66.3862 278.495 66.3716 278.498 66.3573C278.501 66.3431 278.506 66.3296 278.515 66.3175C278.523 66.3056 278.534 66.2959 278.548 66.2888C278.561 66.2819 278.575 66.2778 278.589 66.2771C279.445 66.2123 299.616 64.7381 302.483 69.8506C305.349 74.9632 300.096 85.8092 299.869 86.2682C299.863 86.2861 299.85 86.3014 299.834 86.3126C299.818 86.3237 299.8 86.33 299.781 86.331ZM295.75 85.4168L299.723 86.1166C300.173 85.1681 305.009 74.7569 302.307 69.9537C299.605 65.1505 280.446 66.358 278.722 66.4753C279.258 68.2863 280.117 69.9866 281.259 71.4948C283.05 73.8569 286.367 76.7145 291.999 76.9309C292.014 76.9308 292.029 76.9343 292.042 76.941C292.056 76.9476 292.068 76.9574 292.076 76.9694C292.085 76.9815 292.091 76.9953 292.094 77.0099C292.098 77.0245 292.098 77.0397 292.094 77.0542L290.619 83.2529L291.903 83.6109C291.921 83.1821 292.038 81.8635 292.735 81.5298C293.105 81.3519 293.564 81.4792 294.105 81.9019C295.886 83.3014 295.805 84.986 295.75 85.4168Z" fill="#1A1A1A"/>
<path d="M352.184 198.998C352.183 197.646 351.642 196.351 350.68 195.396C349.72 194.44 348.416 193.905 347.057 193.905H311.307C310.445 193.903 309.595 194.117 308.839 194.529C308.082 194.941 307.442 195.536 306.98 196.261C306.517 196.985 306.246 197.813 306.191 198.669C306.137 199.525 306.301 200.382 306.669 201.158H351.695C352.016 200.482 352.183 199.745 352.184 198.998Z" fill="white"/>
<path d="M351.695 201.359H306.669C306.63 201.359 306.592 201.348 306.559 201.328C306.527 201.307 306.5 201.277 306.484 201.242C306.101 200.435 305.932 199.545 305.988 198.656C306.045 197.765 306.327 196.903 306.808 196.151C307.29 195.399 307.954 194.78 308.74 194.352C309.528 193.924 310.41 193.7 311.307 193.703H347.057C348.47 193.704 349.823 194.262 350.822 195.254C351.821 196.247 352.384 197.593 352.387 198.997C352.388 199.774 352.213 200.54 351.879 201.242C351.862 201.277 351.836 201.307 351.804 201.327C351.772 201.348 351.734 201.359 351.695 201.359ZM306.799 200.955H351.565C351.894 200.211 352.031 199.396 351.963 198.586C351.895 197.777 351.625 196.995 351.177 196.316C350.729 195.636 350.118 195.077 349.399 194.692C348.68 194.306 347.875 194.106 347.057 194.107H311.307C310.002 194.108 308.752 194.623 307.829 195.54C306.906 196.456 306.387 197.7 306.385 198.997C306.384 199.671 306.525 200.338 306.799 200.955Z" fill="#1A1A1A"/>
<path d="M306.669 201.158C307.081 202.036 307.737 202.778 308.559 203.297C309.381 203.817 310.334 204.093 311.307 204.093H347.057C348.031 204.092 348.984 203.816 349.805 203.297C350.627 202.777 351.282 202.035 351.695 201.158H306.669Z" fill="#1C0311"/>
<path d="M347.058 204.191H311.307C310.315 204.188 309.344 203.905 308.507 203.375C307.67 202.845 307.001 202.09 306.578 201.197C306.57 201.183 306.565 201.166 306.565 201.149C306.565 201.132 306.57 201.115 306.578 201.101C306.587 201.086 306.6 201.074 306.615 201.067C306.63 201.058 306.647 201.054 306.663 201.054H351.69C351.706 201.054 351.723 201.058 351.738 201.067C351.753 201.074 351.766 201.086 351.775 201.101C351.783 201.116 351.787 201.132 351.787 201.149C351.787 201.166 351.783 201.182 351.775 201.197C351.353 202.089 350.686 202.842 349.851 203.372C349.016 203.901 348.048 204.185 347.058 204.191ZM306.831 201.258C307.253 202.078 307.895 202.766 308.683 203.248C309.473 203.731 310.38 203.987 311.305 203.991H347.058C347.984 203.987 348.891 203.731 349.679 203.248C350.469 202.766 351.109 202.078 351.531 201.258H306.831Z" fill="#1A1A1A"/>
<path d="M331.994 204.093H328.328V272.716H331.994V204.093Z" fill="#1C0311"/>
<path d="M331.991 272.814H328.331C328.304 272.814 328.279 272.804 328.259 272.784C328.24 272.766 328.229 272.741 328.229 272.714V204.092C328.229 204.065 328.24 204.039 328.259 204.021C328.279 204.002 328.304 203.991 328.331 203.991H331.991C332.018 203.991 332.044 204.002 332.063 204.021C332.082 204.039 332.093 204.065 332.093 204.092V272.714C332.093 272.741 332.082 272.766 332.063 272.784C332.044 272.804 332.018 272.814 331.991 272.814ZM328.429 272.612H331.886V204.191H328.429V272.612Z" fill="#1A1A1A"/>
<path d="M102.721 198.998C102.72 197.647 102.18 196.351 101.219 195.396C100.258 194.442 98.9558 193.905 97.5975 193.905H61.8447C60.9821 193.902 60.1327 194.117 59.3758 194.528C58.6189 194.94 57.9791 195.536 57.5159 196.26C57.0527 196.984 56.7814 197.813 56.727 198.669C56.6726 199.526 56.8369 200.382 57.2048 201.158H102.233C102.554 200.482 102.72 199.745 102.721 198.998Z" fill="white"/>
<path d="M102.231 201.359H57.2046C57.166 201.359 57.1284 201.348 57.0959 201.327C57.0635 201.307 57.0378 201.277 57.0215 201.242C56.6864 200.54 56.5128 199.774 56.5132 198.997C56.516 197.593 57.0787 196.246 58.0782 195.253C59.0776 194.261 60.432 193.703 61.8444 193.703H97.5973C99.0096 193.703 100.364 194.261 101.364 195.253C102.363 196.246 102.926 197.593 102.928 198.997C102.929 199.774 102.755 200.54 102.42 201.242C102.404 201.278 102.377 201.308 102.343 201.329C102.31 201.349 102.271 201.36 102.231 201.359ZM57.3388 200.954H102.101C102.376 200.338 102.518 199.671 102.518 198.997C102.515 197.701 101.996 196.457 101.073 195.541C100.151 194.625 98.9011 194.109 97.5973 194.107H61.8444C60.54 194.108 59.2889 194.623 58.3657 195.54C57.4425 196.456 56.9226 197.7 56.9199 198.997C56.9205 199.671 57.0631 200.339 57.3388 200.954Z" fill="#1A1A1A"/>
<path d="M57.2046 201.158C57.6182 202.036 58.2741 202.777 59.0957 203.297C59.9174 203.817 60.8709 204.093 61.8445 204.093H97.5973C98.5703 204.092 99.5229 203.815 100.344 203.296C101.165 202.775 101.82 202.035 102.233 201.158H57.2046Z" fill="#1C0311"/>
<path d="M97.5975 204.191H61.8447C60.8523 204.188 59.8812 203.904 59.0438 203.374C58.2064 202.845 57.5371 202.09 57.1133 201.197C57.1052 201.182 57.1011 201.166 57.1011 201.149C57.1011 201.132 57.1052 201.116 57.1133 201.101C57.1224 201.086 57.1352 201.074 57.15 201.067C57.165 201.058 57.1816 201.054 57.1987 201.054H102.231C102.248 201.054 102.265 201.058 102.281 201.065C102.296 201.074 102.309 201.086 102.318 201.1C102.327 201.115 102.333 201.131 102.334 201.148C102.335 201.165 102.332 201.182 102.325 201.197C101.901 202.09 101.233 202.844 100.396 203.373C99.5595 203.903 98.5892 204.187 97.5975 204.191ZM57.3695 201.258C57.7914 202.078 58.4318 202.766 59.2208 203.248C60.0097 203.731 60.9168 203.987 61.8426 203.991H97.5975C98.5233 203.987 99.4304 203.731 100.219 203.248C101.008 202.766 101.649 202.078 102.071 201.258H57.3695Z" fill="#1A1A1A"/>
<path d="M82.5288 204.093H78.8628V272.716H82.5288V204.093Z" fill="#1C0311"/>
<path d="M82.5287 272.814H78.8688C78.8418 272.814 78.8159 272.804 78.7969 272.784C78.7778 272.766 78.7671 272.741 78.7671 272.714V204.092C78.7671 204.065 78.7778 204.039 78.7969 204.021C78.8159 204.002 78.8418 203.991 78.8688 203.991H82.5287C82.5556 203.991 82.5815 204.002 82.6005 204.021C82.6196 204.039 82.6303 204.065 82.6303 204.092V272.714C82.6303 272.741 82.6196 272.766 82.6005 272.784C82.5815 272.804 82.5556 272.814 82.5287 272.814ZM78.9643 272.612H82.4209V204.191H78.9643V272.612Z" fill="#1A1A1A"/>
<path d="M201.429 145.14H197.764V265.211H201.429V145.14Z" fill="#1C0311"/>
<path d="M201.427 265.311H197.768C197.741 265.311 197.715 265.301 197.696 265.282C197.677 265.263 197.667 265.237 197.667 265.211V145.138C197.667 145.111 197.677 145.085 197.696 145.066C197.715 145.048 197.741 145.037 197.768 145.037H201.427C201.455 145.037 201.481 145.048 201.5 145.066C201.518 145.085 201.529 145.111 201.529 145.138V265.209C201.53 265.221 201.527 265.235 201.522 265.248C201.517 265.26 201.51 265.272 201.5 265.281C201.49 265.291 201.48 265.299 201.467 265.304C201.455 265.309 201.441 265.311 201.427 265.311ZM197.865 265.109H201.322V145.242H197.865V265.109Z" fill="#1A1A1A"/>
<path d="M311.426 166.945C311.413 166.946 311.399 166.946 311.386 166.945C307.36 166.172 306.914 162.153 306.914 162.113C306.908 162.06 306.924 162.006 306.96 161.964C306.994 161.923 307.043 161.896 307.097 161.892C307.151 161.886 307.205 161.902 307.247 161.937C307.289 161.971 307.314 162.021 307.32 162.075C307.337 162.226 307.727 165.831 311.46 166.548C311.513 166.553 311.563 166.58 311.598 166.62C311.632 166.662 311.649 166.716 311.644 166.769C311.638 166.823 311.613 166.873 311.571 166.907C311.529 166.941 311.475 166.957 311.421 166.952L311.426 166.945Z" fill="#1A1A1A"/>
<path d="M290.539 90.1154L293.916 87.5146L292.363 92.1318L290.539 90.1154Z" fill="#1C0311"/>
<path d="M292.363 92.2331C292.349 92.233 292.334 92.2299 292.321 92.224C292.307 92.2181 292.295 92.2094 292.286 92.1987L290.456 90.1763C290.446 90.1661 290.44 90.1539 290.435 90.1406C290.431 90.1273 290.43 90.1133 290.431 90.0995C290.433 90.0857 290.437 90.0724 290.444 90.0602C290.45 90.048 290.459 90.0373 290.471 90.0288L293.846 87.428C293.863 87.4152 293.884 87.4082 293.907 87.4082C293.928 87.4082 293.949 87.4152 293.968 87.428C293.985 87.4411 293.997 87.4593 294.004 87.4798C294.01 87.5005 294.01 87.5226 294.004 87.5433L292.45 92.1582C292.445 92.1751 292.434 92.1901 292.422 92.2021C292.409 92.2141 292.393 92.2227 292.376 92.2271L292.363 92.2331ZM290.69 90.1298L292.317 91.9358L293.709 87.8L290.69 90.1298Z" fill="#1A1A1A"/>
<path d="M260.478 144.903V143.284C260.477 142.718 260.365 142.158 260.147 141.635C259.929 141.113 259.609 140.638 259.206 140.237C258.804 139.837 258.326 139.52 257.799 139.304C257.274 139.088 256.709 138.976 256.141 138.978H146.717C146.147 138.976 145.584 139.088 145.057 139.304C144.532 139.52 144.054 139.837 143.651 140.237C143.249 140.638 142.929 141.113 142.71 141.635C142.492 142.158 142.38 142.718 142.38 143.284V144.903C142.38 145.448 142.486 145.988 142.689 146.494H260.168C260.372 145.988 260.477 145.448 260.478 144.903Z" fill="white"/>
<path d="M260.168 146.697H142.689C142.648 146.697 142.608 146.685 142.574 146.663C142.541 146.64 142.514 146.608 142.499 146.569C142.286 146.04 142.176 145.474 142.177 144.903V143.286C142.178 142.089 142.656 140.942 143.508 140.096C144.36 139.251 145.513 138.775 146.716 138.775H256.141C257.343 138.776 258.497 139.252 259.348 140.097C260.199 140.942 260.679 142.089 260.681 143.286V144.903C260.68 145.474 260.571 146.04 260.357 146.569C260.342 146.608 260.316 146.64 260.282 146.663C260.249 146.685 260.21 146.697 260.168 146.697ZM142.829 146.293H260.028C260.19 145.847 260.274 145.377 260.274 144.903V143.286C260.273 142.196 259.837 141.151 259.061 140.382C258.286 139.612 257.236 139.18 256.141 139.18H146.716C145.621 139.18 144.571 139.612 143.795 140.382C143.021 141.151 142.585 142.196 142.583 143.286V144.903C142.584 145.377 142.666 145.847 142.829 146.293Z" fill="#1A1A1A"/>
<path d="M142.688 146.495C143.01 147.297 143.566 147.984 144.284 148.469C145.002 148.953 145.849 149.212 146.716 149.212H256.141C257.007 149.21 257.856 148.951 258.574 148.468C259.292 147.984 259.847 147.297 260.169 146.495H142.688Z" fill="#1C0311"/>
<path d="M256.141 149.312H146.717C145.828 149.317 144.959 149.052 144.223 148.557C143.487 148.06 142.919 147.355 142.594 146.532C142.588 146.517 142.586 146.501 142.588 146.483C142.59 146.467 142.597 146.452 142.605 146.438C142.615 146.426 142.628 146.415 142.642 146.406C142.657 146.399 142.673 146.395 142.689 146.395H260.169C260.185 146.395 260.201 146.399 260.216 146.406C260.23 146.414 260.243 146.426 260.252 146.438C260.26 146.453 260.263 146.469 260.263 146.486C260.263 146.502 260.26 146.518 260.252 146.532C259.926 147.352 259.361 148.057 258.627 148.553C257.894 149.049 257.028 149.314 256.141 149.312ZM142.841 146.597C143.171 147.346 143.712 147.984 144.401 148.43C145.089 148.877 145.895 149.113 146.717 149.11H256.141C256.963 149.113 257.768 148.877 258.456 148.43C259.145 147.984 259.687 147.346 260.016 146.597H142.841Z" fill="#1A1A1A"/>
<path d="M176.529 265.23H222.531C224.487 265.23 226.363 266.003 227.747 267.379C229.13 268.755 229.907 270.622 229.907 272.567H169.151C169.151 270.622 169.929 268.755 171.313 267.379C172.695 266.003 174.571 265.23 176.529 265.23Z" fill="#1C0311"/>
<path d="M229.909 272.668H169.151C169.125 272.668 169.099 272.657 169.08 272.638C169.06 272.62 169.05 272.594 169.05 272.568C169.052 270.595 169.84 268.705 171.242 267.31C172.645 265.916 174.546 265.131 176.529 265.129H222.533C224.516 265.131 226.417 265.916 227.818 267.31C229.22 268.705 230.009 270.595 230.011 272.568C230.011 272.594 230 272.62 229.982 272.638C229.963 272.657 229.936 272.668 229.909 272.668ZM169.253 272.466H229.808C229.779 270.565 228.999 268.752 227.639 267.417C226.278 266.083 224.444 265.333 222.533 265.331H176.529C174.617 265.333 172.784 266.083 171.423 267.417C170.062 268.752 169.283 270.565 169.253 272.466Z" fill="#1A1A1A"/>
<path d="M176.577 105.246L193.707 135.596H230.415L217.167 105.916L176.577 105.246Z" fill="white"/>
<path d="M230.416 135.8H193.708C193.672 135.799 193.636 135.789 193.605 135.771C193.574 135.752 193.548 135.726 193.531 135.694L176.401 105.346C176.383 105.315 176.373 105.281 176.373 105.245C176.373 105.21 176.383 105.175 176.401 105.144C176.419 105.114 176.446 105.089 176.477 105.072C176.509 105.055 176.544 105.046 176.579 105.047L217.17 105.716C217.208 105.717 217.246 105.729 217.278 105.751C217.31 105.772 217.335 105.802 217.35 105.838L230.599 135.516C230.613 135.547 230.619 135.58 230.617 135.613C230.614 135.648 230.603 135.68 230.585 135.709C230.567 135.736 230.541 135.759 230.512 135.775C230.482 135.791 230.45 135.799 230.416 135.8ZM193.817 135.395H230.093L217.025 106.117L176.919 105.453L193.817 135.395Z" fill="#1A1A1A"/>
<path d="M212.326 127.565C216.317 128.249 220.113 127.287 223.371 125.228L215.526 107.655L179.804 107.064L192.461 129.491C197.455 124.805 205.939 126.506 212.326 127.565Z" fill="white"/>
<path d="M192.463 129.693H192.432C192.402 129.688 192.372 129.676 192.348 129.659C192.322 129.642 192.301 129.618 192.286 129.592L179.629 107.163C179.611 107.133 179.602 107.098 179.602 107.063C179.602 107.027 179.611 106.992 179.629 106.961C179.648 106.932 179.674 106.907 179.705 106.89C179.736 106.872 179.77 106.863 179.806 106.862L215.526 107.453C215.566 107.453 215.603 107.465 215.635 107.487C215.668 107.508 215.694 107.539 215.709 107.574L223.553 125.145C223.573 125.188 223.577 125.239 223.562 125.285C223.548 125.332 223.518 125.371 223.476 125.397C219.987 127.602 216.118 128.421 212.293 127.764L211.37 127.609C205.095 126.556 197.286 125.244 192.605 129.632C192.568 129.67 192.517 129.692 192.463 129.693ZM180.148 107.272L192.516 129.161C197.359 124.837 205.155 126.147 211.435 127.204L212.358 127.357C216.033 127.986 219.75 127.222 223.112 125.133L215.386 107.839L180.148 107.272Z" fill="#1A1A1A"/>
<path d="M227.187 133.776L223.371 125.228C220.117 127.287 216.317 128.249 212.326 127.565C205.939 126.505 197.455 124.805 192.463 129.491L194.882 133.776H227.187Z" fill="#B6D7FF"/>
<path d="M227.187 133.977H194.883C194.846 133.977 194.811 133.967 194.78 133.949C194.747 133.932 194.722 133.905 194.704 133.874L192.286 129.589C192.264 129.549 192.256 129.504 192.263 129.459C192.271 129.415 192.292 129.375 192.324 129.344C197.151 124.81 205.074 126.14 211.437 127.21L212.36 127.363C216.091 128.005 219.863 127.204 223.265 125.054C223.289 125.039 223.317 125.029 223.346 125.025C223.375 125.022 223.404 125.024 223.431 125.032C223.46 125.04 223.486 125.055 223.508 125.074C223.53 125.092 223.548 125.117 223.56 125.144L227.376 133.692C227.39 133.722 227.395 133.756 227.392 133.79C227.39 133.824 227.378 133.856 227.36 133.884C227.342 133.913 227.316 133.936 227.285 133.952C227.255 133.968 227.221 133.977 227.187 133.977ZM195.001 133.572H226.876L223.281 125.519C219.845 127.631 216.049 128.405 212.291 127.761L211.368 127.606C205.144 126.561 197.412 125.262 192.72 129.528L195.001 133.572Z" fill="black"/>
<path d="M252.863 133.752H215.141C214.162 133.752 213.369 134.541 213.369 135.514V137.21C213.369 138.183 214.162 138.972 215.141 138.972H252.863C253.841 138.972 254.634 138.183 254.634 137.21V135.514C254.634 134.541 253.841 133.752 252.863 133.752Z" fill="white"/>
<path d="M252.863 139.173H215.14C214.617 139.172 214.115 138.965 213.745 138.597C213.375 138.229 213.167 137.731 213.166 137.209V135.513C213.166 134.993 213.374 134.493 213.744 134.125C214.115 133.756 214.617 133.55 215.14 133.549H252.863C253.387 133.55 253.888 133.756 254.259 134.125C254.628 134.493 254.837 134.993 254.838 135.513V137.209C254.837 137.731 254.628 138.229 254.258 138.597C253.888 138.965 253.387 139.172 252.863 139.173ZM215.14 133.953C214.724 133.953 214.325 134.118 214.031 134.41C213.738 134.703 213.572 135.1 213.572 135.513V137.209C213.573 137.624 213.739 138.02 214.033 138.312C214.326 138.604 214.725 138.769 215.14 138.769H252.863C253.279 138.769 253.677 138.604 253.971 138.312C254.265 138.02 254.431 137.624 254.431 137.209V135.513C254.431 135.1 254.265 134.703 253.971 134.41C253.677 134.118 253.279 133.953 252.863 133.953H215.14Z" fill="#1A1A1A"/>
<path d="M227.549 133.752H189.826C188.847 133.752 188.055 134.541 188.055 135.514V137.21C188.055 138.183 188.847 138.972 189.826 138.972H227.549C228.526 138.972 229.319 138.183 229.319 137.21V135.514C229.319 134.541 228.526 133.752 227.549 133.752Z" fill="white"/>
<path d="M227.547 139.173H189.826C189.303 139.173 188.801 138.966 188.43 138.597C188.06 138.229 187.852 137.731 187.852 137.209V135.513C187.852 134.992 188.059 134.493 188.43 134.125C188.8 133.756 189.302 133.549 189.826 133.549H227.547C228.071 133.549 228.573 133.756 228.944 134.125C229.313 134.493 229.522 134.992 229.522 135.513V137.209C229.52 137.731 229.312 138.229 228.942 138.597C228.573 138.966 228.071 139.173 227.547 139.173ZM189.826 133.953C189.41 133.953 189.011 134.118 188.717 134.41C188.424 134.703 188.258 135.1 188.258 135.513V137.209C188.258 137.624 188.424 138.02 188.717 138.313C189.011 138.605 189.41 138.769 189.826 138.769H227.547C227.963 138.769 228.361 138.604 228.655 138.312C228.949 138.02 229.114 137.624 229.114 137.209V135.513C229.114 135.1 228.95 134.703 228.655 134.41C228.361 134.118 227.963 133.953 227.547 133.953H189.826Z" fill="#1A1A1A"/>
<path d="M405.696 272.799H6.98517C6.90428 272.799 6.8267 272.768 6.76951 272.71C6.7123 272.654 6.68018 272.577 6.68018 272.496C6.68018 272.416 6.7123 272.339 6.76951 272.282C6.8267 272.224 6.90428 272.193 6.98517 272.193H405.696C405.776 272.193 405.854 272.224 405.91 272.282C405.968 272.339 406 272.416 406 272.496C406 272.577 405.968 272.654 405.91 272.71C405.854 272.768 405.776 272.799 405.696 272.799Z" fill="#1A1A1A"/>
<path d="M75.1523 151.5C74.7035 152.844 74.0381 154.108 73.1821 155.241C75.0771 156.111 83.023 156.299 88.2608 156.576C102.229 157.312 103.775 156.98 103.775 156.98L103.559 152.719L75.1523 151.5Z" fill="#1C0311"/>
<path d="M101.511 157.153C99.4375 157.153 95.5315 157.059 88.2545 156.677C87.3071 156.627 86.2721 156.58 85.2046 156.532C80.2882 156.307 74.7151 156.054 73.1453 155.332C73.1316 155.326 73.1193 155.317 73.1094 155.305C73.0996 155.293 73.0925 155.281 73.0884 155.266C73.0852 155.251 73.0851 155.236 73.0883 155.221C73.0914 155.206 73.0977 155.191 73.1068 155.179C73.9541 154.055 74.6139 152.803 75.0607 151.469C75.0674 151.448 75.081 151.43 75.0994 151.417C75.1178 151.404 75.14 151.397 75.1623 151.399L103.571 152.612C103.596 152.613 103.62 152.624 103.638 152.641C103.655 152.658 103.666 152.682 103.667 152.708L103.882 156.968C103.883 156.993 103.875 157.017 103.86 157.036C103.845 157.054 103.824 157.068 103.801 157.073C103.766 157.069 103.378 157.153 101.511 157.153ZM73.3426 155.199C75.0261 155.866 80.4285 156.111 85.2087 156.329C86.2822 156.378 87.3172 156.425 88.2586 156.475C100.554 157.123 103.197 156.94 103.658 156.88L103.455 152.803L75.2314 151.609C74.7892 152.895 74.1522 154.104 73.3426 155.199Z" fill="#1A1A1A"/>
<path d="M74.5239 153.148C78.8568 142.247 86.567 136.856 89.9544 127.382C93.1304 118.502 91.6786 105.339 104.079 101.183L113.864 100.98C113.864 100.98 119.759 109.816 117.609 120.425C110.429 142.977 103.559 154.094 103.559 154.094C103.559 154.094 99.7079 156.045 74.5239 153.148Z" fill="#B6D7FF"/>
<path d="M96.4545 154.941C92.1053 154.941 85.239 154.583 74.4953 153.348C74.4644 153.343 74.4348 153.333 74.4088 153.317C74.3828 153.299 74.3609 153.277 74.3451 153.25C74.3292 153.223 74.3195 153.193 74.3171 153.162C74.3145 153.132 74.3192 153.101 74.3307 153.073C76.5224 147.557 79.5581 143.472 82.4921 139.522C85.3692 135.648 88.0877 131.99 89.759 127.318C90.5723 125.028 91.0786 122.491 91.6093 119.802C93.1363 112.085 94.714 104.103 104.012 100.994C104.032 100.991 104.053 100.991 104.073 100.994L113.855 100.792C113.889 100.791 113.924 100.799 113.955 100.815C113.984 100.831 114.011 100.854 114.03 100.883C114.089 100.972 119.953 109.911 117.806 120.479C117.806 120.487 117.806 120.493 117.806 120.5C110.689 142.817 103.805 154.104 103.736 154.215C103.715 154.246 103.687 154.271 103.654 154.287C103.561 154.314 102.213 154.941 96.4545 154.941ZM74.8105 152.975C98.0181 155.631 102.908 154.124 103.418 153.928C103.945 153.056 110.577 141.83 117.411 120.368C119.401 110.539 114.362 102.149 113.752 101.18L104.114 101.383C95.0658 104.426 93.5123 112.281 92.0119 119.879C91.4771 122.581 90.9728 125.137 90.1433 127.449C88.4536 132.179 85.7168 135.862 82.8235 139.761C79.9303 143.66 76.9759 147.632 74.8105 152.975Z" fill="black"/>
<path d="M97.4185 115.305C97.4185 115.305 112.753 142.809 146.717 138.967C159.585 138.967 166.523 137.616 166.523 137.616C166.523 137.616 163.563 132.095 162.082 131.82C152.538 131.24 138.978 129.347 131.972 124.986C118.944 116.883 116.112 104.302 116.112 104.302L97.4185 115.305Z" fill="#B6D7FF"/>
<path d="M140.333 139.538C129.014 139.617 118.017 135.8 109.205 128.734C101.188 122.388 97.28 115.474 97.2414 115.404C97.2281 115.382 97.2194 115.356 97.216 115.329C97.2126 115.303 97.2145 115.276 97.2216 115.25C97.2287 115.224 97.2408 115.2 97.2572 115.178C97.2738 115.158 97.2943 115.14 97.3176 115.127C97.341 115.113 97.3668 115.104 97.3935 115.101C97.4202 115.098 97.4472 115.1 97.4732 115.107C97.4991 115.114 97.5235 115.126 97.5448 115.142C97.566 115.159 97.5839 115.179 97.5972 115.202C97.6359 115.271 101.511 122.125 109.471 128.422C116.811 134.229 129.224 140.735 146.692 138.763H146.717C158.015 138.763 164.812 137.707 166.212 137.464C165.305 135.816 163.139 132.243 162.058 132.019C157.056 131.715 140.167 130.323 131.863 125.157C118.914 117.107 115.945 104.488 115.917 104.35C115.905 104.298 115.915 104.244 115.943 104.199C115.972 104.154 116.018 104.122 116.069 104.11C116.096 104.104 116.122 104.103 116.149 104.107C116.175 104.112 116.2 104.121 116.223 104.135C116.245 104.149 116.266 104.168 116.28 104.189C116.297 104.211 116.307 104.235 116.314 104.261C116.341 104.387 119.28 116.857 132.079 124.821C140.31 129.941 157.135 131.321 162.097 131.622H162.121C163.652 131.909 166.39 136.949 166.704 137.523C166.717 137.552 166.724 137.583 166.724 137.614C166.724 137.646 166.717 137.677 166.704 137.705C166.69 137.734 166.669 137.759 166.645 137.778C166.619 137.797 166.59 137.81 166.559 137.817C166.488 137.83 159.458 139.169 146.723 139.172C144.601 139.412 142.467 139.535 140.333 139.538Z" fill="black"/>
<path d="M103.559 101.362C103.559 101.362 116.572 108.228 118.353 110.097C116.2 103.524 113.516 99.1134 111.296 98.8384C109.075 98.5633 103.559 101.362 103.559 101.362Z" fill="white"/>
<path d="M118.353 110.298C118.325 110.298 118.299 110.293 118.273 110.282C118.247 110.271 118.225 110.255 118.206 110.236C116.467 108.416 103.593 101.608 103.465 101.539C103.432 101.522 103.404 101.497 103.384 101.465C103.365 101.433 103.354 101.397 103.354 101.359C103.354 101.322 103.365 101.286 103.384 101.254C103.404 101.222 103.432 101.196 103.465 101.179C103.693 101.064 109.062 98.3481 111.318 98.6333C113.572 98.9184 116.303 103.18 118.54 110.034C118.554 110.077 118.553 110.125 118.537 110.168C118.521 110.21 118.49 110.247 118.45 110.27C118.421 110.287 118.387 110.297 118.353 110.298ZM104.004 101.367C105.96 102.407 115.165 107.327 117.926 109.457C115.809 103.256 113.284 99.2865 111.271 99.0357C109.453 98.8113 105.248 100.765 104.004 101.367Z" fill="#1A1A1A"/>
<path d="M135.324 84.4135C134.38 86.2174 128.749 86.8404 127.909 88.256C116.545 107.267 114.774 98.1111 106.578 102.21C100.702 106.977 89.464 117.431 78.8626 115.306C66.2157 115.01 53.8068 95.1887 65.5021 85.1719C72.2627 80.844 71.4758 84.8382 78.6796 85.5015C93.1158 87.0386 88.1465 72.3864 102.113 79.2099C110.246 84.2092 114.343 83.1818 120.412 76.0307C127.293 68.6228 137.798 80.4214 135.324 84.4135Z" fill="#1C0311"/>
<path d="M81.7382 115.686C80.7687 115.689 79.8013 115.595 78.8508 115.405C71.9886 115.247 64.6628 109.191 61.8325 101.321C59.537 94.9427 60.8545 89.0293 65.4456 85.0958C69.7521 82.3372 71.0553 82.9217 73.2147 83.8823C74.935 84.7192 76.7964 85.2315 78.7045 85.3931C85.4467 86.113 87.9212 83.2696 90.1029 80.7619C92.5774 77.9204 94.7143 75.4672 102.174 79.1115C110.082 83.9653 114.155 83.2615 120.344 75.9587C123.249 72.834 127.308 72.7228 131.199 75.6573C134.711 78.3067 136.689 82.4161 135.428 84.4567C134.903 85.4557 133.063 86.0746 131.287 86.6813C129.794 87.1909 128.385 87.6703 128.013 88.2992C120.264 101.267 116.909 101.184 113.026 101.087C111.172 101.042 109.253 100.994 106.65 102.3C106.103 102.743 105.507 103.236 104.877 103.76C99.3482 108.331 90.4811 115.686 81.7382 115.686ZM70.4169 83.2938C69.262 83.2938 67.8448 83.7933 65.5595 85.2576C61.0456 89.1182 59.7505 94.9569 62.0155 101.252C64.8194 109.047 72.0638 115.047 78.8651 115.207C88.4417 117.124 98.6385 108.665 104.73 103.611C105.365 103.085 105.964 102.587 106.513 102.142L106.532 102.13C109.175 100.802 111.133 100.848 113.016 100.895C116.836 100.99 120.132 101.07 127.822 88.2062C128.229 87.5185 129.677 87.0271 131.203 86.5074C132.946 85.9128 134.747 85.294 135.236 84.3698C136.423 82.4484 134.421 78.3815 131.057 75.8353C127.257 72.9695 123.302 73.0707 120.484 76.1083C117.231 79.9387 114.72 81.7871 112.06 82.2847C109.299 82.8044 106.308 81.9125 102.065 79.3037C94.7449 75.7321 92.6649 78.1327 90.2452 80.9115C88.2669 83.1826 86.0526 85.7247 80.7296 85.7267C80.0421 85.724 79.3554 85.6855 78.672 85.6114C76.7447 85.4466 74.8648 84.9283 73.1272 84.0825C72.1676 83.6457 71.3847 83.2938 70.4169 83.2938Z" fill="#1A1A1A"/>
<path d="M165.355 242.063C161.779 239.03 149.594 239.388 149.594 239.388C148.103 242.237 145.631 242.972 142.562 242.421C141.993 243.726 143.736 248.373 144.716 250.788C151.222 249.604 157.427 246.909 163.466 243.729C164.226 243.339 164.874 242.766 165.355 242.063Z" fill="white"/>
<path d="M144.715 250.993C144.676 250.991 144.636 250.98 144.603 250.957C144.569 250.934 144.543 250.903 144.528 250.865C143.236 247.687 141.815 243.631 142.378 242.342C142.396 242.302 142.428 242.267 142.468 242.246C142.508 242.225 142.554 242.217 142.599 242.226C145.852 242.806 148.079 241.847 149.413 239.295C149.429 239.263 149.455 239.235 149.485 239.217C149.516 239.198 149.551 239.187 149.587 239.186C150.09 239.171 161.892 238.854 165.488 241.91C165.526 241.942 165.551 241.987 165.557 242.036C165.563 242.085 165.552 242.136 165.524 242.176C165.025 242.907 164.351 243.503 163.562 243.91C156.22 247.776 150.42 249.959 144.753 250.988L144.715 250.993ZM142.701 242.652C142.445 243.683 143.215 246.53 144.844 250.561C150.415 249.526 156.139 247.36 163.371 243.552C164.044 243.204 164.629 242.708 165.081 242.101C161.624 239.425 150.962 239.559 149.718 239.588C148.308 242.192 146.011 243.199 142.701 242.652Z" fill="#1A1A1A"/>
<path d="M165.355 242.064C164.875 242.768 164.226 243.341 163.466 243.733C157.427 246.912 151.226 249.598 144.715 250.791C145.08 251.683 145.338 252.271 145.338 252.271C145.338 252.271 167.541 247.762 166.246 243.345C166.082 242.84 165.772 242.395 165.355 242.064Z" fill="#1C0311"/>
<path d="M145.338 252.373C145.318 252.372 145.3 252.366 145.283 252.356C145.267 252.345 145.253 252.33 145.244 252.312C145.244 252.312 144.983 251.705 144.622 250.829C144.615 250.816 144.612 250.801 144.612 250.785C144.612 250.77 144.615 250.755 144.622 250.743C144.629 250.73 144.64 250.718 144.651 250.709C144.663 250.701 144.677 250.694 144.692 250.692C150.328 249.667 156.101 247.494 163.414 243.644C164.158 243.258 164.793 242.696 165.267 242.008C165.274 241.996 165.285 241.986 165.296 241.98C165.308 241.972 165.321 241.967 165.335 241.965C165.35 241.963 165.364 241.964 165.379 241.968C165.393 241.971 165.405 241.979 165.416 241.987C165.848 242.332 166.167 242.793 166.338 243.317C166.397 243.537 166.409 243.767 166.371 243.993C166.333 244.219 166.246 244.433 166.118 244.623C163.705 248.603 146.1 252.216 145.352 252.371L145.338 252.373ZM144.859 250.868C145.12 251.509 145.322 251.98 145.399 252.154C146.723 251.879 163.664 248.289 165.949 244.52C166.064 244.354 166.142 244.165 166.176 243.969C166.211 243.771 166.204 243.567 166.152 243.372C166.008 242.923 165.739 242.523 165.378 242.216C164.894 242.89 164.258 243.44 163.52 243.822C156.236 247.655 150.474 249.831 144.859 250.868Z" fill="#1A1A1A"/>
<path d="M105.273 258.553C102.445 259.465 100.133 258.275 98.1566 255.722C96.8451 256.229 94.7997 260.596 93.7505 263.016C99.5676 266.994 105.773 271.78 113.054 271.221C113.514 271.207 113.959 271.067 114.344 270.816C113.234 266.076 105.273 258.553 105.273 258.553Z" fill="white"/>
<path d="M111.854 271.474C105.622 271.474 100.265 267.763 95.0536 264.167L93.6304 263.187C93.5916 263.16 93.5633 263.12 93.5503 263.075C93.5374 263.031 93.5405 262.982 93.5592 262.94C94.9032 259.841 96.7778 256.041 98.077 255.538C98.118 255.521 98.1633 255.519 98.2059 255.531C98.2484 255.543 98.286 255.567 98.3129 255.603C100.393 258.284 102.648 259.186 105.208 258.361C105.243 258.35 105.28 258.348 105.316 258.356C105.352 258.365 105.384 258.382 105.411 258.408C105.738 258.717 113.43 266.024 114.538 270.787C114.549 270.828 114.544 270.872 114.528 270.91C114.511 270.95 114.483 270.983 114.447 271.005C114.029 271.271 113.545 271.416 113.05 271.427C112.644 271.458 112.245 271.474 111.854 271.474ZM94.0003 262.948L95.2874 263.833C100.759 267.618 106.417 271.531 113.036 271.024C113.412 271.017 113.78 270.917 114.107 270.731C112.968 266.347 106.072 259.609 105.218 258.784C102.564 259.593 100.232 258.672 98.1015 255.978C97.1905 256.508 95.7144 259.018 94.0003 262.948Z" fill="#1A1A1A"/>
<path d="M93.7485 263.02C93.3418 263.968 93.0796 264.616 93.0796 264.616C93.0796 264.616 111.93 277.125 114.171 273.11C114.518 272.488 114.542 271.709 114.341 270.839C113.957 271.09 113.511 271.23 113.052 271.244C105.771 271.782 99.5656 266.997 93.7485 263.02Z" fill="#1C0311"/>
<path d="M112.375 273.999C107.098 273.999 93.6241 265.1 93.0223 264.695C93.0025 264.684 92.9879 264.664 92.9807 264.642C92.9736 264.619 92.9747 264.596 92.9836 264.574C92.9836 264.574 93.2479 263.913 93.6545 262.974C93.6602 262.96 93.669 262.949 93.6803 262.939C93.6916 262.929 93.7051 262.922 93.7196 262.918C93.734 262.913 93.7492 262.913 93.7641 262.915C93.7788 262.918 93.7929 262.924 93.8051 262.933C94.2768 263.254 94.7505 263.581 95.2283 263.911C100.718 267.705 106.389 271.625 113.044 271.118C113.485 271.109 113.917 270.977 114.288 270.738C114.303 270.732 114.318 270.728 114.334 270.728C114.35 270.728 114.366 270.732 114.38 270.738C114.395 270.745 114.409 270.754 114.419 270.766C114.43 270.779 114.437 270.794 114.441 270.809C114.661 271.754 114.599 272.541 114.26 273.151C114.144 273.349 113.986 273.519 113.8 273.651C113.611 273.782 113.398 273.873 113.172 273.916C112.911 273.975 112.642 274.003 112.375 273.999ZM93.2033 264.579C94.3316 265.318 108.821 274.757 113.13 273.718C113.327 273.681 113.515 273.603 113.68 273.487C113.844 273.371 113.982 273.223 114.085 273.05C114.384 272.514 114.449 271.82 114.276 270.988C113.904 271.201 113.484 271.316 113.056 271.325C112.657 271.355 112.262 271.37 111.869 271.372C105.661 271.372 100.307 267.669 95.1185 264.091L93.7989 263.179C93.4919 263.867 93.2785 264.39 93.2033 264.579Z" fill="#1A1A1A"/>
<path d="M88.478 171.781C88.478 171.781 95.5456 169.298 97.4243 164.949L88.478 171.781Z" fill="white"/>
<path d="M88.478 171.982C88.4302 171.982 88.3839 171.966 88.3474 171.935C88.3107 171.904 88.2862 171.862 88.2779 171.815C88.2697 171.768 88.2783 171.72 88.3022 171.679C88.3261 171.637 88.364 171.606 88.4088 171.59C88.48 171.566 95.4154 169.085 97.2312 164.87C97.2408 164.844 97.2557 164.822 97.2746 164.801C97.2935 164.782 97.3163 164.766 97.3414 164.755C97.3666 164.745 97.3936 164.739 97.421 164.739C97.4484 164.739 97.4754 164.745 97.5007 164.755C97.5259 164.766 97.5486 164.781 97.5677 164.801C97.5867 164.821 97.6014 164.844 97.6112 164.869C97.621 164.894 97.6255 164.922 97.6245 164.949C97.6234 164.976 97.6169 165.003 97.6053 165.027C95.7184 169.408 88.8379 171.87 88.5451 171.97C88.5236 171.978 88.5009 171.982 88.478 171.982Z" fill="#1A1A1A"/>
<path d="M153.309 244.1C153.199 244.104 153.09 244.079 152.991 244.029C152.893 243.979 152.809 243.906 152.747 243.815C151.972 242.691 153.967 238.06 154.185 237.535C154.195 237.512 154.21 237.489 154.23 237.471C154.249 237.452 154.272 237.438 154.297 237.428C154.321 237.417 154.348 237.413 154.375 237.413C154.402 237.414 154.428 237.419 154.453 237.43C154.477 237.441 154.5 237.456 154.518 237.475C154.537 237.494 154.551 237.517 154.562 237.542C154.571 237.567 154.576 237.593 154.576 237.62C154.575 237.646 154.569 237.673 154.559 237.698C153.73 239.599 152.595 242.877 153.082 243.587C153.11 243.625 153.147 243.656 153.19 243.675C153.234 243.694 153.282 243.7 153.329 243.694C154.095 243.664 154.727 242.307 155.283 241.107C155.893 239.806 156.462 238.579 157.316 238.658C157.42 238.662 157.521 238.69 157.613 238.739C157.705 238.788 157.785 238.857 157.846 238.941C158.143 239.365 157.942 240.116 157.731 240.911C157.587 241.457 157.405 242.136 157.553 242.327C157.566 242.343 157.594 242.381 157.715 242.381C158.701 242.381 160.276 240.134 160.8 239.269C160.812 239.242 160.828 239.218 160.85 239.198C160.871 239.178 160.897 239.163 160.924 239.154C160.951 239.145 160.981 239.142 161.01 239.145C161.039 239.147 161.066 239.157 161.091 239.172C161.117 239.186 161.138 239.206 161.155 239.229C161.172 239.253 161.183 239.28 161.188 239.309C161.194 239.336 161.194 239.365 161.186 239.394C161.18 239.422 161.167 239.448 161.149 239.471C160.946 239.808 159.115 242.78 157.715 242.78C157.623 242.785 157.531 242.769 157.447 242.731C157.362 242.695 157.288 242.638 157.231 242.567C156.96 242.218 157.135 241.556 157.339 240.8C157.501 240.193 157.702 239.437 157.511 239.165C157.484 239.13 157.449 239.101 157.408 239.081C157.368 239.061 157.323 239.052 157.277 239.052C156.712 238.997 156.177 240.152 155.651 241.277C155.014 242.644 154.36 244.058 153.343 244.098L153.309 244.1Z" fill="#1A1A1A"/>
<path d="M108.112 264.728C107.968 264.737 107.826 264.702 107.704 264.626C107.664 264.599 107.631 264.563 107.607 264.52C107.584 264.477 107.57 264.43 107.569 264.381C107.569 264.107 107.894 263.821 108.537 263.296C109.016 262.903 109.744 262.311 109.756 262.013C109.757 261.995 109.753 261.978 109.744 261.963C109.736 261.947 109.724 261.934 109.71 261.924C109.46 261.709 108.508 262.15 107.743 262.505C106.509 263.077 105.232 263.667 104.512 263.111C104.422 263.047 104.35 262.959 104.305 262.859C104.26 262.758 104.242 262.647 104.254 262.537C104.372 261.433 107.583 259.843 107.949 259.665C107.973 259.653 107.998 259.647 108.025 259.645C108.052 259.644 108.078 259.647 108.104 259.655C108.13 259.664 108.153 259.678 108.172 259.695C108.193 259.713 108.21 259.735 108.222 259.758C108.233 259.782 108.24 259.808 108.242 259.834C108.243 259.861 108.24 259.888 108.231 259.913C108.222 259.938 108.209 259.962 108.191 259.981C108.173 260.001 108.151 260.017 108.128 260.029C106.824 260.663 104.73 261.914 104.659 262.58C104.654 262.621 104.661 262.664 104.68 262.703C104.699 262.74 104.728 262.772 104.765 262.794C105.287 263.198 106.501 262.642 107.572 262.147C108.644 261.652 109.526 261.241 109.976 261.627C110.036 261.676 110.084 261.737 110.117 261.808C110.149 261.877 110.165 261.954 110.163 262.032C110.163 262.516 109.467 263.079 108.803 263.623C108.52 263.837 108.256 264.076 108.015 264.337C108.31 264.387 109.235 264.114 109.764 263.962C110.85 263.646 111.246 263.558 111.444 263.746C111.482 263.781 111.506 263.832 111.509 263.884C111.512 263.937 111.494 263.988 111.46 264.028C111.425 264.067 111.376 264.092 111.323 264.096C111.271 264.1 111.218 264.085 111.178 264.051C111.014 264.021 110.364 264.212 109.879 264.351C109.085 264.567 108.501 264.728 108.112 264.728Z" fill="#1A1A1A"/>
<path d="M262.832 57.386L254.42 40.3007C256.529 37.6057 257.67 34.3011 257.668 30.902V25.0545C257.668 23.02 257.26 21.0053 256.467 19.1256C255.674 17.246 254.512 15.5382 253.047 14.0997C251.582 12.6613 249.843 11.5203 247.929 10.7422C246.016 9.96403 243.964 9.56383 241.894 9.56445H176.033C171.85 9.56445 167.839 11.1964 164.882 14.1014C161.925 17.0063 160.263 20.9464 160.263 25.0545V30.902C160.263 35.0101 161.925 38.9501 164.882 41.8551C167.839 44.7601 171.85 46.3921 176.033 46.3921H241.894C242.136 46.3921 242.397 46.3921 242.648 46.3729L262.832 57.386Z" fill="white"/>
<path d="M263.652 58.4462C263.61 58.4465 263.57 58.4355 263.535 58.4148L243.297 47.3004C243.052 47.3125 242.807 47.3175 242.597 47.3175H176.366C172.097 47.3123 168.005 45.6339 164.987 42.6501C161.967 39.6664 160.269 35.621 160.263 31.4011V25.4832C160.267 21.2627 161.966 17.2163 164.985 14.232C168.004 11.2475 172.097 9.56894 176.366 9.56445H242.597C246.866 9.56894 250.959 11.2475 253.978 14.232C256.997 17.2163 258.695 21.2627 258.699 25.4832V31.4011C258.71 34.844 257.579 38.1957 255.482 40.9446L263.875 58.1002C263.894 58.1372 263.902 58.1785 263.9 58.2198C263.898 58.261 263.884 58.301 263.863 58.336C263.84 58.3709 263.809 58.3996 263.772 58.4194C263.735 58.4391 263.694 58.4492 263.652 58.4487V58.4462ZM243.355 46.814C243.397 46.8141 243.439 46.8249 243.475 46.8454L263.097 57.6209L254.976 41.0196C254.957 40.9805 254.951 40.9375 254.955 40.8949C254.961 40.8525 254.977 40.812 255.002 40.7775C257.091 38.0917 258.219 34.7963 258.21 31.4083V25.4832C258.205 21.3911 256.559 17.4678 253.631 14.5742C250.705 11.6807 246.736 10.053 242.597 10.0485H176.366C172.226 10.0537 168.258 11.6814 165.332 14.5749C162.404 17.4684 160.758 21.3913 160.753 25.4832V31.4011C160.758 35.493 162.404 39.4159 165.332 42.3094C168.258 45.2028 172.226 46.8307 176.366 46.8357H242.597C242.841 46.8357 243.086 46.8357 243.331 46.8164L243.355 46.814Z" fill="#1A1A1A"/>
<path d="M188.042 3.1875C188.042 3.1875 209.14 3.59923 211.132 8.868C211.132 37.194 211.547 37.194 211.547 37.194C211.547 37.194 200.666 33.0766 188.042 35.3818V3.1875Z" fill="#1C0311"/>
<path d="M211.437 37.1933C211.416 37.1958 211.393 37.1908 211.375 37.1791C210.856 36.9889 200.264 33.1812 188.185 35.394C188.168 35.3971 188.15 35.3963 188.134 35.3918C188.117 35.3873 188.101 35.3792 188.088 35.3679C188.073 35.3567 188.062 35.3426 188.055 35.3266C188.046 35.3106 188.042 35.293 188.042 35.2752V3.30635C188.043 3.27433 188.056 3.24374 188.078 3.22078C188.101 3.19912 188.132 3.18721 188.164 3.18751C189.022 3.20415 209.156 3.66288 211.136 8.90625C211.138 8.91961 211.138 8.9333 211.136 8.94665C211.136 34.6999 211.483 36.8392 211.533 37.0127C211.543 37.031 211.547 37.0514 211.547 37.0722C211.547 37.0929 211.541 37.1132 211.53 37.1311C211.519 37.1489 211.505 37.1639 211.487 37.1744C211.469 37.1848 211.449 37.1906 211.428 37.191L211.437 37.1933ZM195.974 34.467C201.172 34.4651 206.335 35.2843 211.275 36.8939C211.215 36.5041 211.163 35.6127 211.103 33.5663C211.01 30.3575 210.897 23.4883 210.897 8.9728C209.009 4.10023 189.991 3.47749 188.274 3.43233V35.1349C190.816 34.6841 193.393 34.4606 195.974 34.467Z" fill="#1A1A1A"/>
<path d="M236.121 3.1875C236.121 3.1875 214.067 3.59923 211.981 8.868C211.981 37.194 211.547 37.194 211.547 37.194C211.547 37.194 222.922 33.0766 236.121 35.3818V3.1875Z" fill="#1C0311"/>
<path d="M211.671 37.1939C211.65 37.1937 211.629 37.1881 211.609 37.1776C211.59 37.1671 211.575 37.1521 211.563 37.134C211.553 37.1161 211.547 37.0956 211.547 37.0747C211.547 37.054 211.553 37.0335 211.564 37.0156C211.617 36.8421 211.977 34.7026 211.977 8.94713C211.974 8.93377 211.974 8.92008 211.977 8.90673C214.046 3.65816 235.099 3.20176 235.994 3.1875C236.027 3.18766 236.059 3.19951 236.084 3.22078C236.095 3.23183 236.105 3.24514 236.111 3.25986C236.118 3.27458 236.121 3.2904 236.121 3.30635V35.2756C236.121 35.2931 236.117 35.3104 236.109 35.3264C236.101 35.3423 236.09 35.3567 236.076 35.3682C236.047 35.3894 236.01 35.3989 235.974 35.3944C223.349 33.1814 212.272 36.987 211.729 37.1795C211.712 37.1897 211.692 37.1947 211.671 37.1939ZM212.227 8.96853C212.227 23.4853 212.109 30.3622 212.011 33.564C211.949 35.6131 211.894 36.5045 211.834 36.8919C213.421 36.3595 223.944 33.0886 235.879 35.1329V3.42758C234.087 3.47274 214.201 4.09553 212.227 8.96853Z" fill="#1A1A1A"/>
<path d="M188.042 0C188.042 0 209.555 0.459162 211.547 5.89506V35.0691C211.547 35.0691 200.666 30.8256 188.042 33.2029V0Z" fill="white"/>
<path d="M212.368 35.0691C212.339 35.0694 212.309 35.0644 212.281 35.0546C212.17 35.0131 201.045 30.9162 188.336 33.2239C188.301 33.2305 188.264 33.2294 188.229 33.2205C188.194 33.2117 188.162 33.1954 188.134 33.1727C188.105 33.1501 188.083 33.1216 188.067 33.0891C188.051 33.0567 188.042 33.0213 188.042 32.9853V0.243464C188.042 0.211084 188.049 0.179118 188.062 0.14944C188.076 0.119762 188.094 0.0929673 188.119 0.0706257C188.142 0.0477707 188.17 0.0297517 188.2 0.0176282C188.231 0.00550462 188.264 -0.000478722 188.296 2.99087e-05C189.202 0.0195046 210.523 0.518544 212.601 5.97147C212.611 5.99877 212.616 6.02763 212.616 6.05666V34.8257C212.616 34.8653 212.606 34.9045 212.588 34.9397C212.57 34.9749 212.542 35.0051 212.509 35.0278C212.467 35.0546 212.418 35.0689 212.368 35.0691ZM196.367 32.0335C201.717 32.0331 207.032 32.8595 212.121 34.4825V6.10048C210.184 1.2951 190.978 0.567231 188.531 0.486898V32.6932C191.119 32.2491 193.741 32.0282 196.367 32.0335Z" fill="#1A1A1A"/>
<path d="M236.121 0C236.121 0 213.632 0.459162 211.547 5.89506V35.0691C211.547 35.0691 222.922 30.8256 236.121 33.2029V0Z" fill="white"/>
<path d="M211.795 35.0691C211.745 35.0689 211.696 35.0546 211.654 35.0278C211.621 35.0051 211.593 34.9749 211.575 34.9397C211.557 34.9045 211.547 34.8653 211.547 34.8257V6.05667C211.547 6.02738 211.553 5.99832 211.564 5.97147C213.64 0.518545 234.953 0.0195046 235.869 2.99087e-05C235.902 -0.000478722 235.934 0.00550462 235.965 0.0176282C235.996 0.0297517 236.024 0.0477707 236.047 0.0706257C236.07 0.0931713 236.089 0.120057 236.102 0.149726C236.115 0.179395 236.121 0.211256 236.121 0.243464V32.9853C236.121 33.0211 236.114 33.0565 236.098 33.0888C236.083 33.1213 236.06 33.1499 236.032 33.1728C236.004 33.1954 235.971 33.2117 235.936 33.2205C235.901 33.2294 235.865 33.2305 235.829 33.2239C223.118 30.9185 211.995 35.0131 211.884 35.0546C211.855 35.0641 211.825 35.069 211.795 35.0691ZM212.042 6.10049V34.4825C213.989 33.8227 224.134 30.6922 235.626 32.6932V0.486898C233.187 0.567231 213.979 1.2951 212.042 6.10049Z" fill="#1A1A1A"/>
<path d="M216.06 9.56402C216.004 9.56416 215.951 9.54466 215.908 9.50893C215.865 9.47318 215.836 9.42342 215.826 9.36823C215.815 9.31305 215.825 9.2559 215.851 9.20666C215.877 9.15741 215.921 9.11916 215.972 9.09852C221.333 7.17927 226.994 6.26078 232.678 6.38751C232.741 6.38751 232.802 6.41292 232.847 6.45815C232.891 6.50338 232.916 6.56473 232.916 6.62869C232.916 6.69267 232.891 6.75402 232.847 6.79925C232.802 6.84448 232.741 6.86989 232.678 6.86989C227.058 6.74219 221.461 7.64928 216.16 9.54714C216.128 9.55902 216.094 9.56474 216.06 9.56402Z" fill="#1A1A1A"/>
<path d="M216.06 14.8775C216.004 14.8776 215.951 14.8581 215.908 14.8224C215.865 14.7866 215.836 14.7368 215.826 14.6817C215.815 14.6265 215.825 14.5693 215.851 14.5201C215.877 14.4709 215.921 14.4327 215.972 14.412C221.333 12.4915 226.994 11.5731 232.678 11.7012C232.741 11.7012 232.802 11.7266 232.847 11.7719C232.891 11.817 232.916 11.8784 232.916 11.9424C232.916 12.0064 232.891 12.0677 232.847 12.1129C232.802 12.1581 232.741 12.1835 232.678 12.1835C227.058 12.0558 221.461 12.9629 216.16 14.8606C216.128 14.8725 216.094 14.8782 216.06 14.8775Z" fill="#1A1A1A"/>
<path d="M216.06 20.191C216.004 20.1911 215.951 20.1716 215.908 20.1359C215.865 20.1001 215.836 20.0504 215.826 19.9951C215.815 19.94 215.825 19.8828 215.851 19.8336C215.877 19.7844 215.921 19.7461 215.972 19.7254C221.333 17.8064 226.994 16.888 232.678 17.0144C232.741 17.0144 232.802 17.0398 232.847 17.085C232.891 17.1302 232.916 17.1917 232.916 17.2555C232.916 17.3196 232.891 17.3809 232.847 17.4262C232.802 17.4713 232.741 17.4968 232.678 17.4968C227.058 17.3691 221.461 18.2762 216.16 20.1741C216.128 20.186 216.094 20.1916 216.06 20.191Z" fill="#1A1A1A"/>
<path d="M216.06 24.4419C216.004 24.4422 215.951 24.4227 215.908 24.3869C215.865 24.3512 215.836 24.3014 215.826 24.2462C215.815 24.1911 215.825 24.1339 215.851 24.0847C215.877 24.0354 215.921 23.9971 215.972 23.9765C221.333 22.0561 226.994 21.1376 232.678 21.2657C232.741 21.2657 232.802 21.2912 232.847 21.3363C232.891 21.3816 232.916 21.4429 232.916 21.5068C232.913 21.5699 232.887 21.6296 232.843 21.6741C232.8 21.7187 232.741 21.7451 232.678 21.7481C227.058 21.619 221.46 22.5261 216.16 24.4251C216.128 24.437 216.094 24.4427 216.06 24.4419Z" fill="#1A1A1A"/>
<path d="M208.095 9.56408C208.063 9.56335 208.031 9.55765 208.001 9.5472C202.363 7.64941 196.41 6.74254 190.432 6.87066C190.365 6.87066 190.301 6.84526 190.252 6.80004C190.205 6.75482 190.179 6.69349 190.179 6.62954C190.179 6.56559 190.205 6.50425 190.252 6.45903C190.301 6.41381 190.365 6.38841 190.432 6.38841C196.471 6.25691 202.484 7.16945 208.181 9.08182C208.244 9.10499 208.294 9.1507 208.32 9.20899C208.347 9.26728 208.349 9.33338 208.325 9.39287C208.31 9.44059 208.28 9.48267 208.238 9.51333C208.198 9.54399 208.147 9.56172 208.095 9.56408Z" fill="#1A1A1A"/>
<path d="M208.073 14.877C208.041 14.8763 208.009 14.8705 207.979 14.8602C202.348 12.9623 196.402 12.0554 190.431 12.1836C190.365 12.1836 190.301 12.1581 190.252 12.113C190.205 12.0677 190.179 12.0064 190.179 11.9425C190.179 11.8785 190.205 11.8171 190.252 11.772C190.301 11.7267 190.365 11.7013 190.431 11.7013C196.471 11.5726 202.485 12.4909 208.182 14.4116C208.244 14.4348 208.294 14.4805 208.32 14.5388C208.347 14.5971 208.349 14.6632 208.325 14.7227C208.306 14.7708 208.271 14.8118 208.225 14.8395C208.179 14.8673 208.126 14.8804 208.073 14.877Z" fill="#1A1A1A"/>
<path d="M208.073 20.1905C208.041 20.1898 208.009 20.1841 207.979 20.1736C202.347 18.2772 196.402 17.3704 190.431 17.4971C190.365 17.4971 190.301 17.4717 190.252 17.4264C190.205 17.3813 190.179 17.3199 190.179 17.2559C190.179 17.192 190.205 17.1307 190.252 17.0854C190.301 17.0403 190.365 17.0148 190.431 17.0148C196.471 16.8861 202.485 17.8045 208.182 19.7251C208.244 19.7483 208.294 19.7941 208.32 19.8523C208.347 19.9106 208.349 19.9767 208.325 20.0362C208.306 20.0843 208.271 20.1252 208.225 20.1531C208.179 20.1808 208.126 20.1939 208.073 20.1905Z" fill="#1A1A1A"/>
<path d="M208.073 24.4415C208.041 24.4407 208.009 24.4351 207.979 24.4246C202.348 22.5254 196.402 21.6185 190.431 21.7481C190.365 21.7481 190.301 21.7227 190.252 21.6774C190.205 21.6322 190.179 21.5709 190.179 21.5069C190.179 21.443 190.205 21.3817 190.252 21.3364C190.301 21.2912 190.365 21.2658 190.431 21.2658C196.471 21.1371 202.485 22.0553 208.182 23.9761C208.244 23.9992 208.294 24.0449 208.32 24.1033C208.347 24.1616 208.349 24.2276 208.325 24.2872C208.306 24.3353 208.271 24.3762 208.225 24.404C208.179 24.4318 208.126 24.4449 208.073 24.4415Z" fill="#1A1A1A"/>
<path d="M20.8281 43.6983C22.8901 43.6983 24.5615 42.0358 24.5615 39.9848C24.5615 37.934 22.8901 36.2715 20.8281 36.2715C18.7663 36.2715 17.0947 37.934 17.0947 39.9848C17.0947 42.0358 18.7663 43.6983 20.8281 43.6983Z" fill="#0E101A" stroke="#0E101A" stroke-linecap="round" stroke-linejoin="round"/>
<path d="M64.6106 7.23848C65.7352 7.23848 66.647 6.33164 66.647 5.21299C66.647 4.09434 65.7352 3.1875 64.6106 3.1875C63.486 3.1875 62.5742 4.09434 62.5742 5.21299C62.5742 6.33164 63.486 7.23848 64.6106 7.23848Z" fill="#0E101A" stroke="#0E101A" stroke-linecap="round" stroke-linejoin="round"/>
</svg>
