<svg width="18" height="22" viewBox="0 0 18 22" fill="none" xmlns="http://www.w3.org/2000/svg">
<path fill-rule="evenodd" clip-rule="evenodd" d="M3.75 2C3.35218 2 2.97064 2.15804 2.68934 2.43934C2.40804 2.72064 2.25 3.10218 2.25 3.5V18.5C2.25 18.8978 2.40804 19.2794 2.68934 19.5607C2.97064 19.842 3.35218 20 3.75 20H14.25C14.6478 20 15.0294 19.842 15.3107 19.5607C15.592 19.2794 15.75 18.8978 15.75 18.5V9.5H10.5C9.90326 9.5 9.33097 9.26295 8.90901 8.84099C8.48705 8.41903 8.25 7.84674 8.25 7.25V2H3.75ZM9.75 3.06066L14.6893 8H10.5C10.3011 8 10.1103 7.92098 9.96967 7.78033C9.82902 7.63968 9.75 7.44891 9.75 7.25V3.06066ZM1.62868 1.37868C2.19129 0.816071 2.95435 0.5 3.75 0.5H8.37902C8.97555 0.50009 9.54763 0.737066 9.96949 1.15883L9.96955 1.15889L16.5912 7.78051C17.0129 8.20237 17.2499 8.77445 17.25 9.37098V18.5C17.25 19.2956 16.9339 20.0587 16.3713 20.6213C15.8087 21.1839 15.0456 21.5 14.25 21.5H3.75C2.95435 21.5 2.19129 21.1839 1.62868 20.6213C1.06607 20.0587 0.75 19.2956 0.75 18.5V3.5C0.75 2.70435 1.06607 1.94129 1.62868 1.37868Z" fill="#373737"/>
</svg>
