<svg width="352" height="276" viewBox="0 0 352 276" fill="none" xmlns="http://www.w3.org/2000/svg">
<path d="M305.956 226.697C307.307 227.284 310.587 227.214 310.587 227.214C310.587 227.214 309.877 225.045 309.815 224.898C309.09 223.355 306.797 220.877 304.929 221.131C304.62 221.182 304.325 221.297 304.064 221.469C303.802 221.641 303.58 221.866 303.411 222.129C303.242 222.393 303.13 222.689 303.083 222.999C303.036 223.308 303.055 223.624 303.138 223.926C303.478 225.238 304.844 226.195 305.956 226.697Z" fill="url(#paint0_linear_815_64488)"/>
<path d="M307.098 236.269C308.503 236.477 311.452 235.62 311.683 235.551C312.172 237.24 312.771 238.895 313.474 240.506C313.886 241.443 314.318 242.377 314.771 243.308C314.501 242.915 314.254 242.536 314.215 242.536C313.119 241.263 310.24 239.449 308.511 240.221C308.226 240.35 307.971 240.538 307.764 240.773C307.557 241.008 307.402 241.283 307.309 241.582C307.215 241.881 307.186 242.196 307.223 242.507C307.26 242.818 307.362 243.117 307.523 243.386C308.163 244.551 309.692 245.122 310.934 245.308C312.177 245.493 314.732 244.814 315.396 244.621C315.574 244.976 315.743 245.338 315.921 245.686C316.778 247.392 317.642 249.082 318.43 250.773C318.708 251.367 318.962 251.961 319.202 252.556C318.962 252.208 318.762 251.915 318.723 251.877C317.627 250.603 314.748 248.789 313.019 249.561C312.734 249.69 312.479 249.878 312.272 250.113C312.065 250.348 311.91 250.623 311.816 250.922C311.723 251.221 311.694 251.536 311.731 251.847C311.768 252.157 311.87 252.457 312.031 252.726C312.671 253.891 314.2 254.462 315.45 254.648C316.701 254.833 318.993 254.215 319.788 253.999C320.027 254.617 320.274 255.234 320.483 255.844C320.614 256.261 320.769 256.655 320.884 257.087L321.232 258.337C321.425 259.109 321.625 259.974 321.795 260.761C321.919 261.309 322.027 261.834 322.135 262.359C321.857 261.765 321.301 260.614 321.247 260.522C320.352 259.101 317.789 256.871 315.96 257.342C315.659 257.427 315.379 257.575 315.139 257.776C314.899 257.976 314.704 258.225 314.566 258.506C314.429 258.787 314.352 259.094 314.34 259.407C314.329 259.719 314.384 260.031 314.501 260.321C314.964 261.564 316.392 262.367 317.588 262.737C318.916 263.139 321.841 262.737 322.22 262.737C322.397 263.617 322.559 264.466 322.698 265.277C323.015 267.052 323.254 268.65 323.47 270.001H324.705C324.489 268.604 324.211 266.913 323.833 265.068C323.663 264.181 323.455 263.231 323.239 262.259C324.122 261.91 324.983 261.508 325.817 261.054C326.951 262.027 328.213 262.84 329.568 263.47C329.236 264.296 328.897 265.099 328.572 265.848C327.885 267.392 327.237 268.82 326.666 270.001H328.001C328.495 268.912 329.036 267.685 329.599 266.288C329.939 265.447 330.294 264.543 330.649 263.617C331.004 263.687 333.899 264.273 335.28 263.972C336.508 263.694 337.99 263 338.538 261.788C338.679 261.507 338.759 261.2 338.772 260.887C338.786 260.573 338.733 260.26 338.617 259.968C338.501 259.677 338.325 259.413 338.1 259.194C337.874 258.976 337.605 258.807 337.31 258.7C335.527 258.106 332.802 260.128 331.799 261.487C331.745 261.564 331.197 262.498 330.865 263.1C331.012 262.714 331.151 262.328 331.29 261.958C331.575 261.186 331.838 260.414 332.123 259.557L332.494 258.306C332.633 257.89 332.718 257.442 332.833 257.002C333.073 255.983 333.273 254.941 333.443 253.914C334.122 254.161 336.531 255.003 337.812 254.918C339.093 254.833 340.637 254.37 341.363 253.25C341.543 252.994 341.666 252.702 341.725 252.394C341.784 252.085 341.776 251.768 341.703 251.463C341.63 251.158 341.494 250.872 341.302 250.624C341.11 250.376 340.868 250.171 340.591 250.024C338.916 249.159 335.96 250.75 334.725 251.938C334.655 252.008 333.891 252.957 333.482 253.482C333.582 252.841 333.69 252.208 333.767 251.56C333.999 249.692 334.176 247.793 334.362 245.902C334.416 245.323 334.477 244.744 334.539 244.165C334.778 244.258 337.627 245.323 339.063 245.23C340.313 245.138 341.888 244.682 342.613 243.563C342.792 243.306 342.915 243.014 342.973 242.706C343.031 242.398 343.023 242.082 342.95 241.777C342.877 241.472 342.741 241.187 342.55 240.938C342.359 240.69 342.117 240.485 341.841 240.337C340.174 239.472 337.21 241.062 335.975 242.251C335.89 242.336 334.794 243.702 334.539 244.065C334.67 242.791 334.817 241.525 335.01 240.283C335.268 238.602 335.632 236.939 336.098 235.304C336.207 235.35 339.186 236.477 340.637 236.377C341.895 236.284 343.462 235.829 344.188 234.709C344.368 234.453 344.491 234.161 344.55 233.852C344.609 233.544 344.601 233.227 344.529 232.922C344.456 232.617 344.319 232.331 344.127 232.083C343.935 231.835 343.693 231.63 343.416 231.483C341.741 230.618 338.746 232.208 337.55 233.397C337.457 233.49 336.284 234.941 336.091 235.242C336.091 235.142 336.137 235.041 336.168 234.949C336.683 233.324 337.342 231.748 338.136 230.24C338.569 229.406 339.024 228.627 339.479 227.878C340.02 228.148 342.474 229.345 343.787 229.422C345.099 229.499 346.65 229.19 347.499 228.164C347.706 227.928 347.861 227.652 347.953 227.353C348.046 227.054 348.075 226.739 348.038 226.428C348.001 226.117 347.898 225.817 347.738 225.549C347.577 225.28 347.362 225.048 347.106 224.868C345.562 223.826 342.382 225.076 341.062 226.126C340.992 226.18 340.328 226.844 339.858 227.33C340.066 226.998 340.282 226.651 340.491 226.334C341.262 225.146 342.073 224.111 342.806 223.193C343.215 222.683 343.578 222.22 343.956 221.795C344.62 221.795 347.283 221.703 348.449 221.155C349.614 220.607 350.888 219.611 351.158 218.322C351.234 218.019 351.244 217.703 351.19 217.395C351.135 217.087 351.016 216.795 350.84 216.536C350.665 216.278 350.437 216.059 350.171 215.894C349.905 215.73 349.608 215.623 349.298 215.582C347.422 215.381 345.199 217.944 344.512 219.48C344.458 219.611 343.74 221.795 343.802 221.795H343.841C343.493 222.197 343.115 222.637 342.714 223.115C341.98 224.019 341.17 225.045 340.344 226.203C339.448 227.457 338.629 228.764 337.889 230.117C337.047 231.624 336.344 233.205 335.79 234.841C335.79 234.841 335.79 234.879 335.79 234.895C335.79 234.347 335.79 232.803 335.79 232.687C335.574 231.012 334.176 227.917 332.324 227.577C332.015 227.529 331.699 227.547 331.396 227.629C331.094 227.711 330.813 227.856 330.571 228.054C330.328 228.252 330.13 228.499 329.989 228.778C329.849 229.058 329.768 229.364 329.753 229.677C329.645 230.997 330.603 232.324 331.544 233.166C332.486 234.007 335.535 235.018 335.767 235.095C335.239 236.769 334.824 238.476 334.524 240.205C334.346 241.217 334.2 242.235 334.061 243.293C334.061 242.814 334.061 242.39 334.061 242.328C333.845 240.661 332.44 237.565 330.587 237.226C330.278 237.178 329.963 237.195 329.661 237.277C329.36 237.359 329.079 237.503 328.837 237.7C328.594 237.897 328.396 238.143 328.255 238.422C328.114 238.7 328.032 239.006 328.017 239.318C327.909 240.645 328.873 241.973 329.807 242.807C330.741 243.64 333.242 244.489 333.906 244.698C333.86 245.091 333.806 245.47 333.76 245.879C333.528 247.77 333.312 249.653 333.042 251.498C332.949 252.154 332.833 252.787 332.718 253.428C332.718 253.003 332.718 252.656 332.718 252.587C332.501 250.919 331.104 247.824 329.252 247.484C328.942 247.436 328.626 247.454 328.324 247.536C328.022 247.618 327.741 247.763 327.498 247.961C327.256 248.159 327.058 248.406 326.917 248.686C326.776 248.965 326.696 249.271 326.681 249.584C326.573 250.904 327.53 252.232 328.472 253.065C329.414 253.899 331.66 254.663 332.447 254.918C332.308 255.566 332.177 256.222 332.007 256.84C331.892 257.264 331.807 257.681 331.66 258.098C331.513 258.515 331.39 258.932 331.259 259.333C330.973 260.105 330.687 260.877 330.394 261.649C330.193 262.174 329.993 262.668 329.792 263.193C329.892 262.544 330.062 261.278 330.07 261.17C330.049 259.689 329.647 258.238 328.904 256.956C328.923 256.791 328.923 256.626 328.904 256.462C328.865 256.151 328.761 255.853 328.599 255.585C328.437 255.318 328.22 255.087 327.963 254.909C327.706 254.731 327.415 254.608 327.107 254.55C326.8 254.492 326.484 254.499 326.18 254.57C324.358 255.057 323.208 258.252 323.092 259.935C323.092 260.036 323.146 261.116 323.2 261.795C323.107 261.402 323.022 261.024 322.922 260.607C322.737 259.835 322.521 259.009 322.297 258.144C322.166 257.735 322.042 257.318 321.919 256.902C321.795 256.485 321.625 256.052 321.479 255.628C321.116 254.64 320.707 253.66 320.267 252.687C320.969 252.517 323.462 251.876 324.466 251.143C325.469 250.41 326.519 249.129 326.511 247.801C326.525 247.485 326.47 247.171 326.353 246.877C326.235 246.584 326.056 246.32 325.829 246.101C325.601 245.882 325.33 245.714 325.032 245.608C324.735 245.501 324.418 245.46 324.103 245.485C322.227 245.686 320.606 248.673 320.244 250.317C320.244 250.418 320.112 251.629 320.058 252.293C319.796 251.707 319.526 251.12 319.24 250.541C318.399 248.851 317.503 247.176 316.616 245.493C316.338 244.983 316.075 244.466 315.844 243.949C316.098 243.887 319.078 243.177 320.197 242.336C321.193 241.564 322.251 240.321 322.243 238.993C322.256 238.678 322.202 238.363 322.084 238.07C321.966 237.777 321.788 237.512 321.56 237.293C321.332 237.074 321.061 236.906 320.763 236.8C320.466 236.694 320.149 236.652 319.834 236.678C317.959 236.886 316.338 239.866 315.975 241.518C315.975 241.641 315.79 243.378 315.774 243.833C315.18 242.699 314.609 241.556 314.084 240.414C313.367 238.874 312.753 237.288 312.247 235.667C312.363 235.667 315.473 234.933 316.623 234.053C317.619 233.281 318.677 232.039 318.669 230.703C318.683 230.387 318.63 230.072 318.513 229.778C318.395 229.485 318.217 229.219 317.989 229C317.761 228.781 317.489 228.613 317.191 228.507C316.893 228.402 316.576 228.361 316.261 228.388C314.385 228.588 312.764 231.575 312.401 233.22C312.401 233.351 312.2 235.219 312.2 235.535C312.2 235.435 312.131 235.342 312.1 235.25C311.635 233.609 311.318 231.93 311.151 230.232C311.043 229.298 310.996 228.403 310.965 227.523C311.56 227.454 314.269 227.091 315.388 226.411C316.508 225.732 317.65 224.636 317.789 223.324C317.83 223.015 317.806 222.7 317.718 222.401C317.631 222.101 317.481 221.823 317.28 221.585C317.079 221.346 316.83 221.153 316.549 221.016C316.269 220.88 315.963 220.803 315.651 220.792C313.76 220.792 311.791 223.579 311.305 225.176C311.305 225.261 311.081 226.18 310.958 226.851C310.958 226.45 310.958 226.08 310.958 225.663C310.958 224.242 311.05 222.938 311.143 221.803C311.197 221.147 311.266 220.56 311.328 220.005C311.876 219.626 314.053 218.09 314.725 216.994C315.396 215.898 315.913 214.37 315.419 213.135C315.315 212.837 315.149 212.565 314.932 212.336C314.715 212.108 314.451 211.928 314.159 211.809C313.867 211.69 313.553 211.634 313.238 211.646C312.923 211.658 312.614 211.736 312.332 211.877C310.657 212.741 310.217 216.107 310.494 217.766C310.494 217.913 311.151 220.082 311.182 220.082C311.104 220.614 311.035 221.186 310.965 221.811C310.85 222.961 310.734 224.273 310.703 225.67C310.648 227.215 310.684 228.762 310.811 230.302C310.946 232.024 311.233 233.732 311.668 235.404C311.671 235.422 311.671 235.44 311.668 235.458C311.374 234.995 310.502 233.721 310.425 233.629C309.321 232.355 306.45 230.541 304.713 231.313C304.429 231.443 304.175 231.632 303.969 231.867C303.762 232.102 303.608 232.377 303.514 232.675C303.421 232.974 303.392 233.289 303.428 233.599C303.464 233.91 303.566 234.209 303.725 234.478C304.319 235.512 305.855 236.091 307.098 236.269Z" fill="url(#paint1_linear_815_64488)"/>
<path d="M339.395 227.423C339.395 227.423 339.997 225.223 340.02 225.107C340.252 223.44 339.719 220.082 338.021 219.264C337.736 219.136 337.427 219.069 337.115 219.068C336.802 219.068 336.493 219.133 336.208 219.26C335.922 219.386 335.667 219.572 335.458 219.804C335.249 220.036 335.091 220.309 334.995 220.607C334.539 221.857 335.111 223.393 335.767 224.466C336.6 225.663 339.395 227.423 339.395 227.423Z" fill="url(#paint2_linear_815_64488)"/>
<path d="M147.291 230.217C156.169 228.96 165.113 228.228 174.076 228.024C187.924 227.8 192.463 228.711 195.875 229.846C199.287 230.981 202.32 240.529 197.851 249.607C193.382 258.684 177.704 266.172 156.361 264.358C135.018 262.544 119.804 258.229 111.629 252.092C103.455 245.956 110.726 242.559 119.804 237.565C128.881 232.571 141.201 229.908 147.291 230.217Z" fill="#1A2E44" stroke="#1A2E44" stroke-linecap="round" stroke-linejoin="round"/>
<path d="M129.568 251.19C129.568 251.19 161.355 233.706 172.486 230.526C183.617 227.346 196.323 226.666 202.228 230.526C208.133 234.385 206.813 246.852 204.049 251.645C201.286 256.439 179.294 266.404 167.037 270.009C154.779 273.613 106.828 273.42 93.7059 274.555C80.5836 275.69 48.7504 275.003 44.2116 272.51C39.6728 270.016 42.3899 267.284 48.9743 265.694C55.5586 264.104 77.3571 264.111 87.5693 261.155C97.7816 258.199 122.073 255.049 129.568 251.19Z" fill="white" stroke="#1A2E44" stroke-linecap="round" stroke-linejoin="round"/>
<path d="M204.049 251.644C205.377 249.329 206.365 245.16 206.365 241.062C198.144 247.623 185.323 255.342 167.6 261.633C150.796 267.638 103.208 273.011 83.5247 275.048C87.4382 274.963 90.9658 274.809 93.6906 274.578C106.867 273.443 154.771 273.667 167.021 270.031C179.271 266.395 201.325 256.407 204.049 251.644Z" fill="#1A2E44" stroke="#1A2E44" stroke-linecap="round" stroke-linejoin="round"/>
<path d="M181.579 264.666C184.953 263.231 188.318 261.687 191.39 260.143C192.069 256.801 192.872 247.021 185.686 228.078C181.218 228.467 176.797 229.287 172.486 230.525C172.486 230.525 185.971 245.924 181.579 264.666Z" fill="#1A2E44" stroke="#1A2E44" stroke-linecap="round" stroke-linejoin="round"/>
<path d="M98.4918 258.692C94.2155 259.541 90.3637 260.367 87.5617 261.178C77.3417 264.134 55.5509 264.134 48.9666 265.717C42.3823 267.299 39.6574 270.032 44.2039 272.533C48.7504 275.034 80.5296 275.713 93.6983 274.578C95.2421 274.439 97.2953 274.323 99.7037 274.223C94.447 268.511 96.8399 261.842 98.4918 258.692Z" fill="white" stroke="#1A2E44" stroke-linecap="round" stroke-linejoin="round"/>
<path d="M77.797 222.575C77.797 222.575 57.1332 225.076 46.6894 225.987C36.2456 226.898 17.4035 235.273 13.544 243.471C9.68444 251.668 21.263 261.41 27.8473 263.447C34.4316 265.485 54.1846 270.032 65.0838 269.352C75.9831 268.673 108.225 259.132 113.899 257.318C119.572 255.505 129.568 251.19 129.568 251.19C129.568 251.19 120.036 251.19 103.91 243.015C87.7855 234.841 85.2922 226.435 77.797 222.575Z" fill="white" stroke="#1A2E44" stroke-linecap="round" stroke-linejoin="round"/>
<path d="M33.4358 229.097C33.4358 229.097 49.7306 227.399 57.2026 232.833C64.6746 238.268 69.4141 254.864 69.4141 254.864L103.91 242.992C103.91 242.992 101.325 240.244 94.8792 232.44C88.4338 224.636 69.4064 220.221 58.2216 222.59C47.0367 224.96 33.4358 229.097 33.4358 229.097Z" fill="#1A2E44" stroke="#1A2E44" stroke-linecap="round" stroke-linejoin="round"/>
<path d="M112.27 257.828L113.899 257.318C119.58 255.504 129.569 251.189 129.569 251.189C129.569 251.189 122.243 251.189 109.584 245.686C111.39 248.727 113.189 253.158 112.27 257.828Z" fill="white" stroke="#1A2E44" stroke-linecap="round" stroke-linejoin="round"/>
<path d="M124.559 253.289C110.686 255.056 96.9631 257.845 83.5014 261.633C63.8643 267.191 40.1977 265.215 28.6964 263.717C36.014 265.856 54.6014 270.008 65.053 269.352C75.9522 268.673 108.195 259.132 113.868 257.318C116.948 256.346 121.24 254.648 124.559 253.289Z" fill="#1A2E44" stroke="#1A2E44" stroke-linecap="round" stroke-linejoin="round"/>
<path d="M146.064 156.592L141.433 202.482C141.433 202.482 143.64 213.528 145.115 217.92C146.589 222.312 148.056 229.46 147.322 230.193C146.589 230.927 146.095 230.44 140.939 231.915C135.782 233.389 129.623 242.219 121.765 245.678C113.907 249.136 107.531 247.399 100.151 244.45C92.7721 241.502 79.0477 223.609 76.099 223.099C73.1503 222.59 64.3198 221.139 60.661 219.911C57.0022 218.684 52.5637 213.528 52.5637 213.528C52.5637 213.528 51.8304 213.528 51.8304 210.826C51.8304 208.125 52.0774 207.885 52.0774 207.885C50.9108 206.828 50.061 205.468 49.6228 203.956C49.1288 201.749 54.2542 189.969 54.2542 182.605C54.2542 175.242 57.9362 147.507 57.9362 144.072C57.9362 140.637 63.0847 139.904 68.4881 137.689C73.8914 135.473 102.351 124.929 102.845 121.988C103.339 119.047 105.3 98.4219 105.3 98.4219C105.3 98.4219 120.568 114.763 122.483 116.098C123.881 117.045 125.123 118.204 126.165 119.533L124.443 127.631C124.443 127.631 131.807 133.034 136.716 135.975C141.626 138.916 148.249 141.617 148.496 143.586" fill="white"/>
<path d="M146.064 156.592L141.433 202.482C141.433 202.482 143.64 213.528 145.115 217.92C146.589 222.312 148.056 229.46 147.322 230.193C146.589 230.927 146.095 230.44 140.939 231.915C135.782 233.389 129.623 242.219 121.765 245.678C113.907 249.136 107.531 247.399 100.151 244.45C92.7721 241.502 79.0477 223.609 76.099 223.099C73.1503 222.59 64.3198 221.139 60.661 219.911C57.0022 218.684 52.5637 213.528 52.5637 213.528C52.5637 213.528 51.8304 213.528 51.8304 210.826C51.8304 208.125 52.0774 207.885 52.0774 207.885C50.9108 206.828 50.061 205.468 49.6228 203.956C49.1288 201.749 54.2542 189.969 54.2542 182.605C54.2542 175.242 57.9362 147.507 57.9362 144.072C57.9362 140.637 63.0847 139.904 68.4881 137.689C73.8914 135.473 102.351 124.929 102.845 121.988C103.339 119.047 105.3 98.4219 105.3 98.4219C105.3 98.4219 120.568 114.763 122.483 116.098C123.881 117.045 125.123 118.204 126.165 119.533L124.443 127.631C124.443 127.631 131.807 133.034 136.716 135.975C141.626 138.916 148.249 141.617 148.496 143.586" stroke="#1A2E44" stroke-linecap="round" stroke-linejoin="round"/>
<path d="M68.9203 210.572C70.1711 211.559 71.2733 212.722 72.1932 214.023" stroke="#1A2E44" stroke-linecap="round" stroke-linejoin="round"/>
<path d="M51.8226 210.826C51.8226 210.826 58.8701 205.94 65.9176 208.819" stroke="#1A2E44" stroke-linecap="round" stroke-linejoin="round"/>
<path d="M128.851 130.788C126.342 129.028 124.435 127.631 124.435 127.631L126.157 119.533C125.115 118.204 123.873 117.045 122.475 116.098C120.56 114.763 105.292 98.4219 105.292 98.4219C105.292 98.4219 103.332 119.039 102.838 121.988C102.676 122.937 99.5648 124.697 95.2653 126.712C96.0372 131.444 98.7079 139.348 108.241 142.359C117.774 145.369 125.153 136.646 128.851 130.788Z" fill="white" stroke="#1A2E44" stroke-linecap="round" stroke-linejoin="round"/>
<path d="M124.536 127.685L124.466 127.631L126.188 119.534C125.146 118.204 123.904 117.046 122.506 116.099C121.417 115.327 116.029 109.746 111.568 105.053L110.441 110.456C110.441 110.456 110.449 125.855 124.536 127.685Z" fill="#1A2E44"/>
<path d="M109.113 47.7929C109.113 47.7929 108.411 41.9342 103.71 40.7609C99.0089 39.5876 88.2718 40.29 84.4894 47.3221C80.7071 54.3541 83.5555 59.742 84.9603 60.6837C85.7745 61.2306 86.6376 61.7008 87.5385 62.0885L88.7117 56.2298C88.7117 56.2298 89.1826 61.3861 92.4632 62.5594C95.7438 63.7327 102.537 62.5594 102.537 62.5594C102.537 62.5594 108.411 58.3371 109.113 47.7929Z" fill="#1A2E44" stroke="#1A2E44" stroke-linecap="round" stroke-linejoin="round"/>
<path d="M152.448 68.7275C152.448 68.7275 160.792 74.1309 160.792 79.5342C160.792 84.9375 150.464 86.8904 150.464 86.8904L152.448 68.7275Z" fill="#1A2E44" stroke="#1A2E44" stroke-linecap="round" stroke-linejoin="round"/>
<path d="M154.323 69.8231C154.323 69.8231 153.389 81.0697 152.448 87.3993C151.506 93.7289 147.523 98.8852 147.291 103.107C147.06 107.33 137.681 117.635 132.996 121.155C128.31 124.674 121.278 123.47 117.758 120.684C112.448 116.075 108.276 110.3 105.57 103.81C102.76 96.5386 104.868 85.9944 105.57 82.7138C106.273 79.4333 123.856 66.5039 137.218 66.5039C150.58 66.5039 154.323 69.8231 154.323 69.8231Z" fill="white" stroke="#1A2E44" stroke-linecap="round" stroke-linejoin="round"/>
<path d="M139.58 96.0752C139.58 96.0752 140.514 104.512 140.514 105.215C140.514 105.917 138.407 108.024 134.895 105.917" stroke="#1A2E44" stroke-linecap="round" stroke-linejoin="round"/>
<path d="M125.516 105.917C125.516 105.917 129.267 110.602 135.358 110.371" stroke="#1A2E44" stroke-linecap="round" stroke-linejoin="round"/>
<path d="M138.175 88.6111C132.805 85.6951 126.652 84.5471 120.591 85.3305C120.591 85.3305 117.782 85.3305 119.426 87.4378C119.426 87.4378 118.723 94.4698 120.36 96.5771C121.996 98.6844 125.763 100.329 129.499 100.329C133.235 100.329 137.002 95.8361 138.175 88.6111Z" stroke="#1A2E44" stroke-width="2" stroke-linecap="round" stroke-linejoin="round"/>
<path d="M119.186 85.5238L103.957 84.5898" stroke="#1A2E44" stroke-width="2" stroke-linecap="round" stroke-linejoin="round"/>
<path d="M138.175 88.6113L142.158 89.7846C142.158 89.7846 140.514 98.4531 141.456 100.8C141.755 101.554 142.229 102.227 142.838 102.764C143.447 103.3 144.174 103.685 144.96 103.887C146.186 104.247 147.446 104.474 148.719 104.567C150.595 104.567 154.578 100.815 155.52 94.2539C155.52 94.2539 156.693 93.7831 156.222 93.0806C155.751 92.3782 150.086 89.0976 142.328 89.8001" stroke="#1A2E44" stroke-width="2" stroke-linecap="round" stroke-linejoin="round"/>
<path d="M137.936 90.6797C137.936 90.6797 140.931 90.8804 141.796 92.0074" stroke="#1A2E44" stroke-width="2" stroke-linecap="round" stroke-linejoin="round"/>
<path d="M129.846 93.3587C129.576 94.9025 128.82 96.0449 128.148 95.9291C127.477 95.8133 127.16 94.4702 127.43 92.9341C127.701 91.398 128.457 90.2479 129.129 90.3714C129.8 90.4949 130.117 91.8226 129.846 93.3587Z" fill="#1A2E44"/>
<path d="M146.929 97.4793C147.303 96.132 147.13 94.9076 146.543 94.7444C145.955 94.5813 145.176 95.5413 144.802 96.8886C144.428 98.2359 144.6 99.4604 145.188 99.6235C145.775 99.7866 146.555 98.8266 146.929 97.4793Z" fill="#1A2E44"/>
<path d="M124.991 87.8397C124.991 87.8397 130.881 85.879 133.575 89.067" stroke="#1A2E44" stroke-width="2" stroke-linecap="round" stroke-linejoin="round"/>
<path d="M144.343 92.2852C144.343 92.2852 147.044 89.8383 149.252 93.2733" stroke="#1A2E44" stroke-width="2" stroke-linecap="round" stroke-linejoin="round"/>
<path d="M113.799 83.2083C113.799 83.2083 126.458 76.4079 137.234 74.3006C148.009 72.1933 156.222 73.1273 158.075 66.7977C159.927 60.4681 147.268 49.9239 134.146 46.1725C121.024 42.421 105.315 46.404 98.9858 55.7826C92.6562 65.1613 94.7635 76.4079 96.6701 80.6302C98.5767 84.8525 99.9507 88.1253 103.471 88.5962C106.99 89.0671 113.799 83.2083 113.799 83.2083Z" fill="#1A2E44" stroke="#1A2E44" stroke-linecap="round" stroke-linejoin="round"/>
<path d="M104.636 75.7441C103.351 76.495 102.198 77.452 101.224 78.577" stroke="white" stroke-linecap="round" stroke-linejoin="round"/>
<path d="M148.719 59.7812C148.719 59.7812 152.139 61.8268 142.228 65.9565C135.033 68.9283 120.452 69.7465 110.263 73.2432" stroke="white" stroke-linecap="round" stroke-linejoin="round"/>
<path d="M135.558 57.3806C136.382 56.4842 137.022 55.4352 137.442 54.293" stroke="white" stroke-linecap="round" stroke-linejoin="round"/>
<path d="M98.8314 74.4775C98.8314 74.4775 95.7438 70.0314 106.35 66.9592C113.984 64.7361 125.007 63.9411 131.823 60.2051" stroke="white" stroke-linecap="round" stroke-linejoin="round"/>
<path d="M107.237 92.0923C107.237 92.0923 105.377 82.9453 101.386 82.9453C97.3957 82.9453 96.8708 87.1676 98.461 92.3239C100.051 97.4802 102.714 99.1244 105.107 97.4802" fill="white"/>
<path d="M107.237 92.0923C107.237 92.0923 105.377 82.9453 101.386 82.9453C97.3957 82.9453 96.8708 87.1676 98.461 92.3239C100.051 97.4802 102.714 99.1244 105.107 97.4802" stroke="#1A2E44" stroke-linecap="round" stroke-linejoin="round"/>
<path d="M76.1143 223.1C76.1143 223.1 77.1024 221.873 77.1024 217.944C77.1024 214.015 74.4007 201.016 73.1734 191.931C71.9461 182.845 70.7188 165.424 70.7188 158.06" stroke="#1A2E44" stroke-linecap="round" stroke-linejoin="round"/>
<path d="M100.846 194.732C101.452 195.726 102.128 196.675 102.868 197.573" stroke="#1A2E44" stroke-linecap="round" stroke-linejoin="round"/>
<path d="M87.168 149.476C87.168 149.476 91.5678 176.6 99.1016 191.575" stroke="#1A2E44" stroke-linecap="round" stroke-linejoin="round"/>
<path d="M102.606 172.556C103.602 174.439 104.605 176.176 105.609 177.697" stroke="#1A2E44" stroke-linecap="round" stroke-linejoin="round"/>
<path d="M90.109 141.873C90.109 141.873 95.0337 157.11 100.862 169.175" stroke="#1A2E44" stroke-linecap="round" stroke-linejoin="round"/>
<path d="M37.3416 212.548C37.3416 212.548 40.0433 214.756 45.4389 214.756C50.8345 214.756 55.4736 212.054 62.3744 213.775C69.2752 215.497 69.2443 222.366 68.5496 224.327C67.8549 226.288 61.1471 227.554 55.0105 226.782C48.8739 226.01 36.3613 224.821 36.3613 224.821C36.3613 224.821 38.322 217.704 37.3416 212.548Z" fill="white" stroke="#1A2E44" stroke-linecap="round" stroke-linejoin="round"/>
<path d="M32.363 206.311C32.6604 207.233 33.1413 208.086 33.7766 208.819C34.412 209.551 35.1888 210.147 36.0604 210.571C39.148 212.27 40.3136 216.816 40.3136 219.371C40.3553 220.719 40.1647 222.063 39.7501 223.346C39.7501 223.346 38.8933 226.758 36.0604 227.322C33.2275 227.885 31.5139 229.591 28.1098 226.187C24.7058 222.783 19.8737 211.992 19.8737 211.992L20.4371 210.286C22.2018 210.254 23.9421 209.868 25.5548 209.151C27.7934 208.016 32.363 206.311 32.363 206.311Z" fill="white" stroke="#1A2E44" stroke-linecap="round" stroke-linejoin="round"/>
<path d="M16.431 194.671L36.0296 227.322" stroke="#1A2E44" stroke-width="3" stroke-linecap="round" stroke-linejoin="round"/>
<path d="M22.3978 227.036C24.126 228.542 26.3509 229.353 28.6425 229.314C32.6178 229.314 36.5931 226.758 34.6093 225.902C32.6255 225.045 31.1975 224.196 29.7772 224.767C28.3569 225.338 22.3978 227.036 22.3978 227.036Z" fill="white" stroke="#1A2E44" stroke-linecap="round" stroke-linejoin="round"/>
<path d="M19.557 222.783C19.557 222.783 21.2629 227.608 22.6832 228.187C24.1035 228.765 30.0626 227.337 31.7685 226.203C33.4744 225.068 30.6338 223.077 28.0788 223.077C25.5238 223.077 19.557 222.783 19.557 222.783Z" fill="white" stroke="#1A2E44" stroke-linecap="round" stroke-linejoin="round"/>
<path d="M18.4225 215.396C18.4225 215.396 17.2878 221.363 19.5572 222.784C21.8266 224.204 30.634 224.767 31.483 223.061C32.3321 221.356 29.2137 220.506 26.0797 219.086C22.9458 217.666 18.4225 215.396 18.4225 215.396Z" fill="white" stroke="#1A2E44" stroke-linecap="round" stroke-linejoin="round"/>
<path d="M27.2222 207.16C27.2222 207.16 27.5078 218.237 28.6425 219.372C29.7772 220.507 32.3322 220.792 32.9034 219.943C33.4746 219.094 34.0381 209.437 32.3322 206.311C30.6263 203.185 27.2222 207.16 27.2222 207.16Z" fill="white" stroke="#1A2E44" stroke-linecap="round" stroke-linejoin="round"/>
<path d="M20.4062 210.287C20.4062 210.287 16.7166 209.437 16.7166 213.127C16.7166 216.817 21.8265 219.086 24.1037 219.372C26.3808 219.657 28.928 218.808 26.9365 217.102C24.945 215.396 22.1121 211.707 20.4062 210.287Z" fill="white" stroke="#1A2E44" stroke-linecap="round" stroke-linejoin="round"/>
<path d="M48.2795 228.256L64.173 226.01C64.173 226.01 62.1352 223.054 56.9094 223.054C51.6836 223.054 48.5111 225.555 47.8241 226.458C47.1371 227.361 48.2795 228.256 48.2795 228.256Z" fill="#1A2E44" stroke="#1A2E44" stroke-linecap="round" stroke-linejoin="round"/>
<path d="M80.2979 247.099L105.694 238.245C105.694 238.245 99.5646 225.3 87.9861 220.761C76.4076 216.223 59.225 217.388 51.9614 220.113L54.6091 223.031C54.6091 223.031 59.8271 223.262 65.5083 229.847C71.1895 236.431 76.8939 246.852 76.8939 246.852L80.2979 247.099Z" fill="white" stroke="#1A2E44" stroke-linecap="round" stroke-linejoin="round"/>
<path d="M64.4277 221.379C64.4277 221.379 74.5319 219.943 85.107 242.536" stroke="url(#paint3_linear_815_64488)" stroke-linecap="round" stroke-linejoin="round"/>
<path d="M69.4143 220.344C69.4143 220.344 79.5108 218.909 90.0936 241.502" stroke="url(#paint4_linear_815_64488)" stroke-linecap="round" stroke-linejoin="round"/>
<path d="M73.5902 219.549C73.5902 219.549 83.6867 218.105 94.2617 240.707" stroke="url(#paint5_linear_815_64488)" stroke-linecap="round" stroke-linejoin="round"/>
<path d="M12.6332 244.15C12.6332 244.15 23.9879 227.345 45.0994 228.711L48.2796 228.256C48.2796 228.256 50.3252 223.486 56.2302 224.62C62.1353 225.755 77.3417 249.167 77.3417 249.167L80.2981 247.121C80.2981 247.121 72.2626 233.513 66.1337 225.794C60.0048 218.075 51.9925 218.337 49.4221 221.162C48.0239 222.934 46.7792 224.822 45.7015 226.805C45.7015 226.805 43.3472 223.239 36.3615 224.844C27.7779 226.805 23.0462 230.626 20.607 233.258C17.0562 237.118 9.90068 242.305 10.5722 241.903L12.6332 244.15Z" fill="white" stroke="#1A2E44" stroke-linecap="round" stroke-linejoin="round"/>
<path d="M77.3494 249.143L104.366 239.834L105.732 238.244L80.298 247.098L77.3494 249.143Z" fill="white" stroke="#1A2E44" stroke-linecap="round" stroke-linejoin="round"/>
<path d="M143.988 140.02C143.988 140.02 153.737 143.385 155.211 148.51C156.686 153.636 163.98 181.841 165.941 186.009C167.901 190.178 172.324 192.632 172.324 195.828C172.324 199.024 172.571 201.471 172.571 201.471C172.571 201.471 177.72 201.718 178.214 205.886C178.708 210.054 179.688 215.457 179.688 215.457L199.325 245.84C199.325 245.84 211.043 246.781 213.737 246.542C216.431 246.303 224.466 246.812 227.392 248.348C228.534 248.95 230.788 250.895 232.564 257.148C233.443 260.235 235.396 266.264 234.169 266.017C232.942 265.77 231.437 262.358 230.943 261.617C230.214 260.011 229.573 258.367 229.02 256.692C229.02 256.692 230.001 263.809 230.24 265.284C230.354 266.29 230.186 267.308 229.754 268.225L229.646 268.271C228.441 268.759 227.111 268.84 225.856 268.503L224.844 268.225C223.898 268.736 222.789 268.852 221.757 268.549L220.661 268.225C220.661 268.225 219.071 263.184 217.573 261.224C216.076 259.263 211.475 257.125 211.475 257.125C211.475 257.125 216.469 262.829 216.222 266.511C216.122 268.001 216.469 269.205 215.242 268.472C214.015 267.738 212.54 264.056 209.839 262.829C207.137 261.602 200.753 259.88 198.26 258.406C195.767 256.932 191.884 251.536 191.884 251.536L159.804 222.605C159.804 222.605 156.616 219.417 156.122 217.704L155.636 215.975C155.636 215.975 151.221 213.273 149.993 211.799C148.766 210.324 148.272 207.167 148.272 207.167L141.649 199.564L146.064 157.596" fill="white"/>
<path d="M143.988 140.02C143.988 140.02 153.737 143.385 155.211 148.51C156.686 153.636 163.98 181.841 165.941 186.009C167.901 190.178 172.324 192.632 172.324 195.828C172.324 199.024 172.571 201.471 172.571 201.471C172.571 201.471 177.72 201.718 178.214 205.886C178.708 210.054 179.688 215.457 179.688 215.457L199.325 245.84C199.325 245.84 211.043 246.781 213.737 246.542C216.431 246.303 224.466 246.812 227.392 248.348C228.534 248.95 230.788 250.895 232.564 257.148C233.443 260.235 235.396 266.264 234.169 266.017C232.942 265.77 231.437 262.358 230.943 261.617C230.214 260.011 229.573 258.367 229.02 256.692C229.02 256.692 230.001 263.809 230.24 265.284C230.354 266.29 230.186 267.308 229.754 268.225L229.646 268.271C228.441 268.759 227.111 268.84 225.856 268.503L224.844 268.225C223.898 268.736 222.789 268.852 221.757 268.549L220.661 268.225C220.661 268.225 219.071 263.184 217.573 261.224C216.076 259.263 211.475 257.125 211.475 257.125C211.475 257.125 216.469 262.829 216.222 266.511C216.122 268.001 216.469 269.205 215.242 268.472C214.015 267.738 212.54 264.056 209.839 262.829C207.137 261.602 200.753 259.88 198.26 258.406C195.767 256.932 191.884 251.536 191.884 251.536L159.804 222.605C159.804 222.605 156.616 219.417 156.122 217.704L155.636 215.975C155.636 215.975 151.221 213.273 149.993 211.799C148.766 210.324 148.272 207.167 148.272 207.167L141.649 199.564L146.064 157.596" stroke="#1A2E44" stroke-linecap="round" stroke-linejoin="round"/>
<path d="M143.563 167.292L141.649 199.542L148.272 207.145C148.272 207.145 148.766 210.341 149.993 211.776C151.221 213.212 155.636 215.976 155.636 215.976L156.122 217.697C156.616 219.411 159.804 222.598 159.804 222.598L164.621 226.937C166.574 223.123 171.22 216.246 179.627 215.142C179.403 213.907 178.631 209.468 178.214 205.879C177.72 201.711 172.571 201.464 172.571 201.464C172.571 201.464 172.324 199.009 172.324 195.821C172.324 192.633 167.909 190.179 165.941 186.003C163.972 181.827 156.678 153.66 155.211 148.504C153.745 143.347 143.988 140.013 143.988 140.013" fill="white"/>
<path d="M143.563 167.292L141.649 199.542L148.272 207.145C148.272 207.145 148.766 210.341 149.993 211.776C151.221 213.212 155.636 215.976 155.636 215.976L156.122 217.697C156.616 219.411 159.804 222.598 159.804 222.598L164.621 226.937C166.574 223.123 171.22 216.246 179.627 215.142C179.403 213.907 178.631 209.468 178.214 205.879C177.72 201.711 172.571 201.464 172.571 201.464C172.571 201.464 172.324 199.009 172.324 195.821C172.324 192.633 167.909 190.179 165.941 186.003C163.972 181.827 156.678 153.66 155.211 148.504C153.745 143.347 143.988 140.013 143.988 140.013" stroke="#1A2E44" stroke-linecap="round" stroke-linejoin="round"/>
<path d="M143.177 177.04L146.412 204.628L141.649 199.541L143.177 177.04Z" fill="#1A2E44"/>
<path d="M165.964 205.833C166.668 205.336 167.397 204.875 168.148 204.451" stroke="#1A2E44" stroke-linecap="round" stroke-linejoin="round"/>
<path d="M158.09 214.755C159.422 212.098 161.257 209.726 163.494 207.77" stroke="#1A2E44" stroke-linecap="round" stroke-linejoin="round"/>
<path d="M163.44 201.471C164.512 201.3 165.597 201.228 166.682 201.254" stroke="#1A2E44" stroke-linecap="round" stroke-linejoin="round"/>
<path d="M151.46 207.392C153.845 205.257 156.61 203.589 159.611 202.475" stroke="#1A2E44" stroke-linecap="round" stroke-linejoin="round"/>
<path d="M212.818 258.931C212.818 258.931 210.117 255.249 206.435 255.002" stroke="#1A2E44" stroke-linecap="round" stroke-linejoin="round"/>
<path d="M214.046 250.834C214.046 250.834 216.994 251.567 220.668 256.237C224.343 260.907 225.338 267.816 225.338 267.816" stroke="#1A2E44" stroke-linecap="round" stroke-linejoin="round"/>
<path d="M221.07 249.854C221.07 249.854 226.566 254.269 227.546 258.437C228.526 262.605 229.754 268.256 229.754 268.256" stroke="#1A2E44" stroke-linecap="round" stroke-linejoin="round"/>
<path d="M229.02 256.724C228.338 253.925 227.173 251.266 225.578 248.866" stroke="#1A2E44" stroke-linecap="round" stroke-linejoin="round"/>
<path d="M303.378 266.527H235.643L254.292 204.683H322.035L303.378 266.527Z" fill="white" stroke="#1A2E44" stroke-linecap="round" stroke-linejoin="round"/>
<path d="M303.378 266.527L319.186 214.13C299.179 216.6 287.415 233.072 268.912 251.143C257.272 262.52 249.182 265.809 244.443 266.527H303.378Z" fill="#1A2E44" stroke="#1A2E44" stroke-linecap="round" stroke-linejoin="round"/>
<path d="M281.541 237.82C284.499 237.82 286.898 235.512 286.898 232.664C286.898 229.816 284.499 227.508 281.541 227.508C278.582 227.508 276.184 229.816 276.184 232.664C276.184 235.512 278.582 237.82 281.541 237.82Z" fill="white" stroke="#1A2E44" stroke-linecap="round" stroke-linejoin="round"/>
<path d="M304.119 266.28H177.48V270.209H304.119V266.28Z" fill="white" stroke="#1A2E44" stroke-linecap="round" stroke-linejoin="round"/>
<path d="M304.119 266.28H239.325V270.209H304.119V266.28Z" fill="#1A2E44" stroke="#1A2E44" stroke-linecap="round" stroke-linejoin="round"/>
<path d="M12.502 255.721H-38.2583C-40.4074 255.729 -42.4662 256.586 -43.9858 258.106C-45.5055 259.626 -46.3628 261.684 -46.371 263.833V264.729C-46.3689 266.887 -45.51 268.957 -43.983 270.482C-42.4561 272.008 -40.3859 272.865 -38.2274 272.865H12.5328C10.8883 270.25 9.95444 267.251 9.82347 264.165C9.93035 261.159 10.8565 258.239 12.502 255.721V255.721Z" fill="white" stroke="#1A2E44" stroke-linecap="round" stroke-linejoin="round"/>
<path d="M12.502 255.721H-62.3725C-64.5229 255.727 -66.5837 256.583 -68.105 258.103C-69.6263 259.623 -70.4847 261.683 -70.4929 263.833V264.729C-70.4969 265.8 -70.2892 266.862 -69.8817 267.854C-69.4742 268.845 -68.8749 269.746 -68.1181 270.504C-67.3614 271.263 -66.4623 271.865 -65.4723 272.276C-64.4823 272.686 -63.421 272.897 -62.3493 272.896H12.5252" stroke="#1A2E44" stroke-width="3" stroke-linecap="round" stroke-linejoin="round"/>
<path d="M4.42783 238.808H-46.3247C-48.4845 238.808 -50.5559 239.666 -52.0831 241.193C-53.6103 242.72 -54.4683 244.791 -54.4683 246.951V247.847C-54.4683 250.006 -53.6103 252.078 -52.0831 253.605C-50.5559 255.132 -48.4845 255.99 -46.3247 255.99H4.42783C2.78559 253.374 1.85191 250.376 1.71846 247.291C1.82796 244.268 2.76514 241.334 4.42783 238.808V238.808Z" fill="white" stroke="#1A2E44" stroke-linecap="round" stroke-linejoin="round"/>
<path d="M4.42782 238.808H-70.4466C-72.6065 238.808 -74.6778 239.666 -76.205 241.193C-77.7322 242.72 -78.5902 244.791 -78.5902 246.951V247.847C-78.5902 250.006 -77.7322 252.078 -76.205 253.605C-74.6778 255.132 -72.6065 255.99 -70.4466 255.99H4.42782" stroke="#1A2E44" stroke-width="3" stroke-linecap="round" stroke-linejoin="round"/>
<path d="M205.014 193.235H187.654C187.302 193.235 186.964 193.095 186.715 192.846C186.466 192.597 186.326 192.259 186.326 191.907V186.867C186.326 186.515 186.466 186.177 186.715 185.928C186.964 185.679 187.302 185.539 187.654 185.539H210.919C211.094 185.539 211.266 185.573 211.427 185.64C211.588 185.707 211.735 185.805 211.858 185.928C211.981 186.051 212.079 186.198 212.146 186.359C212.213 186.52 212.247 186.692 212.247 186.867V188.843" stroke="#1A2E44" stroke-linecap="round" stroke-linejoin="round"/>
<path d="M204.852 201.441V190.634C204.866 190.185 205.054 189.759 205.377 189.446C205.7 189.133 206.132 188.959 206.581 188.959H229.615C229.842 188.959 230.067 189.004 230.276 189.091C230.486 189.178 230.677 189.305 230.837 189.465C230.998 189.626 231.125 189.817 231.212 190.026C231.299 190.236 231.344 190.461 231.344 190.688V203.602" stroke="#1A2E44" stroke-linecap="round" stroke-linejoin="round"/>
<path d="M231.344 214.208V227.662C231.344 227.889 231.299 228.114 231.212 228.324C231.125 228.534 230.998 228.724 230.837 228.885C230.677 229.045 230.486 229.173 230.276 229.26C230.067 229.346 229.842 229.391 229.615 229.391H206.581C206.354 229.391 206.129 229.346 205.919 229.26C205.71 229.173 205.519 229.045 205.358 228.885C205.198 228.724 205.071 228.534 204.984 228.324C204.897 228.114 204.852 227.889 204.852 227.662V204.034" stroke="#1A2E44" stroke-linecap="round" stroke-linejoin="round"/>
<path d="M206.489 195.227H229.692" stroke="#1A2E44" stroke-linecap="round" stroke-linejoin="round"/>
<path d="M217.573 202.228H229.692" stroke="#1A2E44" stroke-linecap="round" stroke-linejoin="round"/>
<path d="M206.489 202.228H215.682" stroke="#1A2E44" stroke-linecap="round" stroke-linejoin="round"/>
<path d="M206.489 209.229H229.692" stroke="#1A2E44" stroke-linecap="round" stroke-linejoin="round"/>
<path d="M225.531 216.223H229.692" stroke="#1A2E44" stroke-linecap="round" stroke-linejoin="round"/>
<path d="M206.489 216.223H223.447" stroke="#1A2E44" stroke-linecap="round" stroke-linejoin="round"/>
<path d="M206.489 223.224H229.692" stroke="#1A2E44" stroke-linecap="round" stroke-linejoin="round"/>
<path d="M191.02 189.213H203.663" stroke="#1A2E44" stroke-linecap="round" stroke-linejoin="round"/>
<path d="M25.0068 56.1913H3.57882C3.14481 56.1913 2.72858 56.0189 2.42169 55.712C2.1148 55.4051 1.94238 54.9889 1.94238 54.5548V48.3024C1.94238 47.8684 2.1148 47.4522 2.42169 47.1453C2.72858 46.8384 3.14481 46.666 3.57882 46.666H32.2936C32.7235 46.6721 33.1338 46.8472 33.4357 47.1534C33.7376 47.4597 33.9069 47.8724 33.9068 48.3024V50.788" stroke="#1A2E44" stroke-linecap="round" stroke-linejoin="round"/>
<path d="M24.806 66.3031V52.9801C24.807 52.6987 24.8636 52.4202 24.9725 52.1607C25.0813 51.9011 25.2404 51.6656 25.4405 51.4677C25.6405 51.2698 25.8777 51.1133 26.1384 51.0072C26.3991 50.9012 26.6782 50.8476 26.9596 50.8497H55.3965C55.9609 50.8517 56.5016 51.0768 56.9007 51.4759C57.2998 51.875 57.5249 52.4157 57.5269 52.9801V68.9276" stroke="#1A2E44" stroke-linecap="round" stroke-linejoin="round"/>
<path d="M57.5038 82.0578V98.6459C57.5038 99.211 57.2794 99.7529 56.8798 100.152C56.4803 100.552 55.9384 100.776 55.3734 100.776H26.9597C26.3946 100.776 25.8528 100.552 25.4532 100.152C25.0537 99.7529 24.8292 99.211 24.8292 98.6459V69.4912" stroke="#1A2E44" stroke-linecap="round" stroke-linejoin="round"/>
<path d="M26.8208 58.6309H55.4661" stroke="#1A2E44" stroke-linecap="round" stroke-linejoin="round"/>
<path d="M40.5066 67.2686H55.466" stroke="#1A2E44" stroke-linecap="round" stroke-linejoin="round"/>
<path d="M26.8208 67.2686H38.1755" stroke="#1A2E44" stroke-linecap="round" stroke-linejoin="round"/>
<path d="M26.8208 75.9062H55.4661" stroke="#1A2E44" stroke-linecap="round" stroke-linejoin="round"/>
<path d="M50.3329 84.5508H55.466" stroke="#1A2E44" stroke-linecap="round" stroke-linejoin="round"/>
<path d="M26.8208 84.5508H47.7548" stroke="#1A2E44" stroke-linecap="round" stroke-linejoin="round"/>
<path d="M26.8208 93.1885H55.4661" stroke="#1A2E44" stroke-linecap="round" stroke-linejoin="round"/>
<path d="M7.72388 51.2051H23.3394" stroke="#1A2E44" stroke-linecap="round" stroke-linejoin="round"/>
<path d="M61.7647 82.915C60.5339 82.9171 59.351 82.4378 58.4687 81.5797L55.4197 78.577C55.2407 78.4018 55.1275 78.1702 55.0994 77.9213C55.0713 77.6724 55.1299 77.4214 55.2653 77.2107C55.3495 77.075 55.4621 76.9592 55.5953 76.8712C55.7286 76.7833 55.8793 76.7253 56.0372 76.7012C56.1989 76.6799 56.3633 76.6952 56.5183 76.746C56.6733 76.7967 56.8149 76.8817 56.9326 76.9946L57.5424 77.558L54.4548 71.2362C54.3844 71.0769 54.348 70.9047 54.348 70.7306C54.348 70.5564 54.3844 70.3842 54.4548 70.225C54.5107 70.054 54.6022 69.8968 54.7233 69.7638C54.8444 69.6307 54.9923 69.5248 55.1572 69.4531C55.4674 69.3199 55.8169 69.3114 56.1331 69.4293C56.4494 69.5472 56.7081 69.7824 56.8554 70.086L58.0133 72.3246C58.2186 72.0721 58.51 71.9044 58.8315 71.8537C59.2645 71.8159 59.6962 71.9396 60.0434 72.201C60.1451 72.0627 60.2732 71.9458 60.4202 71.857C60.5672 71.7683 60.7303 71.7094 60.9002 71.6839C61.2603 71.6499 61.6215 71.7368 61.9268 71.9309C61.9966 71.7554 62.1218 71.6075 62.2835 71.51C62.4452 71.4124 62.6344 71.3705 62.8222 71.3906C63.0303 71.4063 63.2309 71.4747 63.4051 71.5895C63.5794 71.7043 63.7214 71.8617 63.818 72.0467L65.987 76.0297C66.354 76.7508 66.5299 77.5541 66.4979 78.3626C66.4659 79.1711 66.2271 79.958 65.8043 80.6479C65.3815 81.3378 64.7889 81.9078 64.083 82.3034C63.3771 82.6989 62.5816 82.9069 61.7724 82.9073L61.7647 82.915ZM56.1993 77.1644H56.1221C56.0325 77.1743 55.9463 77.2045 55.8701 77.2526C55.7939 77.3007 55.7296 77.3656 55.6821 77.4423C55.6044 77.5607 55.5703 77.7026 55.5858 77.8435C55.6013 77.9843 55.6654 78.1154 55.767 78.2142L58.8546 81.24C59.5786 81.925 60.5209 82.3328 61.5158 82.3919C62.5107 82.451 63.4946 82.1575 64.2945 81.563C65.0945 80.9686 65.6594 80.1112 65.8899 79.1416C66.1203 78.1719 66.0017 77.1521 65.5547 76.2612L63.3857 72.2782C63.3296 72.1681 63.2462 72.0741 63.1435 72.0052C63.0409 71.9363 62.9223 71.8948 62.799 71.8846C62.5984 71.8846 62.3822 71.8846 62.3128 72.3709L62.2356 72.8186L61.9037 72.5175C61.6472 72.2891 61.313 72.1675 60.9696 72.1779C60.8262 72.2059 60.6912 72.2664 60.5748 72.3547C60.4584 72.443 60.3637 72.5568 60.2981 72.6873L60.136 72.9344L59.9199 72.7337C59.6458 72.4726 59.2793 72.331 58.901 72.34C58.7431 72.376 58.596 72.4485 58.4713 72.5517C58.3466 72.655 58.2479 72.786 58.1831 72.9344L57.9515 73.3357L56.4077 70.3022C56.3171 70.112 56.1561 69.9646 55.9587 69.8911C55.7613 69.8176 55.5431 69.8238 55.3502 69.9085C55.2471 69.9471 55.1534 70.0074 55.0755 70.0852C54.9975 70.1631 54.9372 70.2567 54.8984 70.3598C54.8597 70.4629 54.8434 70.5731 54.8508 70.6829C54.8582 70.7928 54.8889 70.8999 54.9411 70.9969L59.1094 79.6499L56.6238 77.3342C56.5102 77.224 56.3576 77.1629 56.1993 77.1644Z" fill="#1A2E44"/>
<path d="M59.094 75.7363C59.0456 75.7353 58.9987 75.7202 58.9589 75.6927C58.9191 75.6653 58.8882 75.6268 58.8701 75.582L57.7354 72.9112C57.7098 72.8508 57.7093 72.7827 57.7339 72.7219C57.7585 72.6611 57.8062 72.6126 57.8666 72.587C57.927 72.5614 57.9951 72.5608 58.0559 72.5855C58.1167 72.6101 58.1653 72.6578 58.1908 72.7182L59.3255 75.389C59.3492 75.4496 59.3488 75.5169 59.3244 75.5772C59.3 75.6374 59.2534 75.6861 59.1943 75.7132C59.1629 75.7281 59.1287 75.736 59.094 75.7363V75.7363Z" fill="#1A2E44"/>
<path d="M61.07 75.1489C61.0216 75.1479 60.9747 75.1328 60.9349 75.1053C60.8951 75.0779 60.8642 75.0394 60.8461 74.9946L59.8581 72.6789C59.8454 72.649 59.8387 72.6168 59.8384 72.5844C59.8381 72.5519 59.8442 72.5196 59.8564 72.4895C59.8686 72.4594 59.8866 72.432 59.9094 72.4089C59.9322 72.3857 59.9594 72.3673 59.9893 72.3547C60.0192 72.3419 60.0513 72.3353 60.0838 72.335C60.1163 72.3347 60.1485 72.3408 60.1786 72.353C60.2087 72.3652 60.2362 72.3832 60.2593 72.406C60.2824 72.4288 60.3009 72.456 60.3135 72.4859L61.2938 74.8016C61.3076 74.8313 61.3152 74.8636 61.316 74.8964C61.3168 74.9292 61.3109 74.9618 61.2986 74.9922C61.2863 75.0226 61.2679 75.0501 61.2445 75.0731C61.2211 75.0961 61.1932 75.114 61.1626 75.1258C61.1339 75.1406 61.1022 75.1485 61.07 75.1489V75.1489Z" fill="#1A2E44"/>
<path d="M63.0075 74.6321C62.9609 74.6324 62.9151 74.6195 62.8755 74.5949C62.8359 74.5703 62.8041 74.535 62.7837 74.4931L61.8342 72.4476C61.8077 72.387 61.8058 72.3186 61.8289 72.2566C61.8519 72.1947 61.8981 72.1442 61.9577 72.1157C62.0172 72.0895 62.0845 72.0878 62.1452 72.1109C62.2058 72.134 62.255 72.1801 62.2819 72.2392L63.2391 74.2847C63.2533 74.3135 63.2617 74.3449 63.2635 74.3769C63.2654 74.409 63.2608 74.4411 63.25 74.4714C63.2392 74.5016 63.2224 74.5294 63.2006 74.553C63.1789 74.5766 63.1526 74.5957 63.1233 74.6089C63.0869 74.6251 63.0473 74.633 63.0075 74.6321Z" fill="#1A2E44"/>
<path d="M42.9998 41.0932L40.3362 43.7568L42.9998 46.4204L45.6634 43.7568L42.9998 41.0932Z" stroke="#1A2E44" stroke-linecap="round" stroke-linejoin="round"/>
<path d="M20.0124 65.4546C20.0124 65.0634 19.8963 64.6811 19.6789 64.3559C19.4614 64.0308 19.1523 63.7775 18.7908 63.6282C18.4293 63.4789 18.0315 63.4402 17.648 63.5171C17.2645 63.5939 16.9124 63.7829 16.6363 64.06C16.3603 64.3372 16.1727 64.69 16.0973 65.0738C16.022 65.4576 16.0622 65.8552 16.2129 66.2161C16.3637 66.5771 16.6182 66.8852 16.9442 67.1014C17.2701 67.3176 17.6529 67.4322 18.0441 67.4306C18.3032 67.4306 18.5598 67.3795 18.7991 67.2801C19.0385 67.1807 19.2558 67.035 19.4387 66.8514C19.6215 66.6678 19.7664 66.4499 19.8648 66.2102C19.9633 65.9705 20.0135 65.7137 20.0124 65.4546V65.4546Z" stroke="#1A2E44" stroke-linecap="round" stroke-linejoin="round"/>
<path d="M288.502 1.00016L280.861 8.6416L288.502 16.283L296.144 8.6416L288.502 1.00016Z" stroke="#1A2E44" stroke-linecap="round" stroke-linejoin="round"/>
<path d="M24.9863 210.903L17.3448 218.544L24.9863 226.185L32.6277 218.544L24.9863 210.903Z" stroke="#1A2E44" stroke-linecap="round" stroke-linejoin="round"/>
<path d="M-8.29863 196.016L-15.9401 203.657L-8.29863 211.299L-0.65719 203.657L-8.29863 196.016Z" stroke="#1A2E44" stroke-linecap="round" stroke-linejoin="round"/>
<path d="M274.3 15.0096L270.13 19.1797L274.3 23.3497L278.47 19.1797L274.3 15.0096Z" stroke="#1A2E44" stroke-linecap="round" stroke-linejoin="round"/>
<path d="M275.682 190.997C277.387 190.997 278.769 189.614 278.769 187.909C278.769 186.204 277.387 184.821 275.682 184.821C273.977 184.821 272.594 186.204 272.594 187.909C272.594 189.614 273.977 190.997 275.682 190.997Z" stroke="#1A2E44" stroke-linecap="round" stroke-linejoin="round"/>
<path d="M19.5109 164.235C21.2162 164.235 22.5986 162.852 22.5986 161.147C22.5986 159.442 21.2162 158.06 19.5109 158.06C17.8057 158.06 16.4233 159.442 16.4233 161.147C16.4233 162.852 17.8057 164.235 19.5109 164.235Z" stroke="#1A2E44" stroke-linecap="round" stroke-linejoin="round"/>
<path d="M155.736 17.9047C157.441 17.9047 158.824 16.5223 158.824 14.8171C158.824 13.1119 157.441 11.7295 155.736 11.7295C154.031 11.7295 152.648 13.1119 152.648 14.8171C152.648 16.5223 154.031 17.9047 155.736 17.9047Z" stroke="#1A2E44" stroke-linecap="round" stroke-linejoin="round"/>
<defs>
<linearGradient id="paint0_linear_815_64488" x1="306.823" y1="221.113" x2="306.823" y2="227.217" gradientUnits="userSpaceOnUse">
<stop stop-color="#FD8C04"/>
<stop offset="1" stop-color="#FD8C04"/>
</linearGradient>
<linearGradient id="paint1_linear_815_64488" x1="327.319" y1="211.645" x2="327.319" y2="270.001" gradientUnits="userSpaceOnUse">
<stop stop-color="#FD8C04"/>
<stop offset="1" stop-color="#FD8C04"/>
</linearGradient>
<linearGradient id="paint2_linear_815_64488" x1="337.451" y1="219.068" x2="337.451" y2="227.423" gradientUnits="userSpaceOnUse">
<stop stop-color="#FD8C04"/>
<stop offset="1" stop-color="#FD8C04"/>
</linearGradient>
<linearGradient id="paint3_linear_815_64488" x1="74.7674" y1="221.36" x2="74.7674" y2="242.536" gradientUnits="userSpaceOnUse">
<stop stop-color="#FD8C04"/>
<stop offset="1" stop-color="#FD8C04"/>
</linearGradient>
<linearGradient id="paint4_linear_815_64488" x1="79.7539" y1="220.326" x2="79.7539" y2="241.502" gradientUnits="userSpaceOnUse">
<stop stop-color="#FD8C04"/>
<stop offset="1" stop-color="#FD8C04"/>
</linearGradient>
<linearGradient id="paint5_linear_815_64488" x1="83.926" y1="219.53" x2="83.926" y2="240.707" gradientUnits="userSpaceOnUse">
<stop stop-color="#FD8C04"/>
<stop offset="1" stop-color="#FD8C04"/>
</linearGradient>
</defs>
</svg>
