<svg width="18" height="18" viewBox="0 0 18 18" fill="none" xmlns="http://www.w3.org/2000/svg">
<path fill-rule="evenodd" clip-rule="evenodd" d="M9.77947 1.42948L11.8125 3.3756V2.25036C11.8125 1.9397 12.0643 1.68786 12.375 1.68786H14.0625C14.3732 1.68786 14.625 1.9397 14.625 2.25036V6.06787L17.264 8.59402C17.4884 8.80885 17.4962 9.16492 17.2813 9.38933C17.0665 9.61374 16.7104 9.62152 16.486 9.4067L15.75 8.70213V15.7504C15.75 16.0487 15.6315 16.3349 15.4205 16.5459C15.2095 16.7568 14.9234 16.8754 14.625 16.8754H11.25C10.9393 16.8754 10.6875 16.6235 10.6875 16.3129V11.5316C10.6875 11.457 10.6579 11.3855 10.6051 11.3327C10.5524 11.28 10.4808 11.2504 10.4062 11.2504H7.59375C7.51916 11.2504 7.44762 11.28 7.39488 11.3327C7.34213 11.3855 7.3125 11.457 7.3125 11.5316V16.3129C7.3125 16.6235 7.06066 16.8754 6.75 16.8754H3.375C3.07663 16.8754 2.79048 16.7568 2.57951 16.5459C2.36853 16.3349 2.25 16.0487 2.25 15.7504V8.70213L1.51397 9.4067C1.28955 9.62152 0.933484 9.61374 0.718663 9.38933C0.503842 9.16492 0.511619 8.80885 0.736033 8.59402L8.22101 1.42902C8.45046 1.19639 8.76316 1.12555 9.0022 1.12598C9.24025 1.12641 9.55183 1.19783 9.77947 1.42948ZM3.375 7.62522V15.7504H6.1875V11.5316C6.1875 11.1587 6.33566 10.801 6.59938 10.5372C6.8631 10.2735 7.22079 10.1254 7.59375 10.1254H10.4062C10.7792 10.1254 11.1369 10.2735 11.4006 10.5372C11.6643 10.801 11.8125 11.1587 11.8125 11.5316V15.7504H14.625V7.62522L9.01127 2.25147C9.00784 2.25117 9.00412 2.25098 9.00018 2.25098C8.99611 2.25097 8.99226 2.25115 8.98874 2.25146L3.375 7.62522ZM13.5 4.99096V2.81286H12.9375V4.4525L13.5 4.99096Z" fill="#102439"/>
</svg>
