<svg width="18" height="16" viewBox="0 0 18 16" fill="none" xmlns="http://www.w3.org/2000/svg">
<path fill-rule="evenodd" clip-rule="evenodd" d="M9.77947 0.429478L11.8125 2.3756V1.25036C11.8125 0.939702 12.0643 0.687862 12.375 0.687862H14.0625C14.3732 0.687862 14.625 0.939702 14.625 1.25036V5.06787L17.264 7.59402C17.4884 7.80885 17.4962 8.16492 17.2813 8.38933C17.0665 8.61374 16.7104 8.62152 16.486 8.4067L15.75 7.70213V14.7504C15.75 15.0487 15.6315 15.3349 15.4205 15.5459C15.2095 15.7568 14.9234 15.8754 14.625 15.8754H11.25C10.9393 15.8754 10.6875 15.6235 10.6875 15.3129V10.5316C10.6875 10.457 10.6579 10.3855 10.6051 10.3327C10.5524 10.28 10.4808 10.2504 10.4063 10.2504H7.59375C7.51916 10.2504 7.44762 10.28 7.39488 10.3327C7.34213 10.3855 7.3125 10.457 7.3125 10.5316V15.3129C7.3125 15.6235 7.06066 15.8754 6.75 15.8754H3.375C3.07663 15.8754 2.79048 15.7568 2.57951 15.5459C2.36853 15.3349 2.25 15.0487 2.25 14.7504V7.70213L1.51397 8.4067C1.28955 8.62152 0.933484 8.61374 0.718663 8.38933C0.503842 8.16492 0.511619 7.80885 0.736033 7.59402L8.22101 0.429015C8.45046 0.196389 8.76316 0.12555 9.0022 0.125978C9.24025 0.126405 9.55183 0.197825 9.77947 0.429478ZM3.375 6.62522V14.7504H6.1875V10.5316C6.1875 10.1587 6.33566 9.80097 6.59938 9.53724C6.8631 9.27352 7.22079 9.12536 7.59375 9.12536H10.4063C10.7792 9.12536 11.1369 9.27352 11.4006 9.53724C11.6643 9.80097 11.8125 10.1587 11.8125 10.5316V14.7504H14.625V6.62522L9.01127 1.25147C9.00784 1.25117 9.00412 1.25098 9.00018 1.25098C8.99611 1.25097 8.99226 1.25115 8.98874 1.25146L3.375 6.62522ZM13.5 3.99096V1.81286H12.9375V3.4525L13.5 3.99096Z" fill="white"/>
</svg>
