<svg width="50" height="50" viewBox="0 0 50 50" fill="none" xmlns="http://www.w3.org/2000/svg">
<g clip-path="url(#clip0_823_10494)">
<path d="M47.5 29.167V41.667H17.5V26.667H35.8333" stroke="white" stroke-width="2" stroke-miterlimit="10"/>
<path d="M32.5002 38.3333C34.8013 38.3333 36.6668 36.4679 36.6668 34.1667C36.6668 31.8655 34.8013 30 32.5002 30C30.199 30 28.3335 31.8655 28.3335 34.1667C28.3335 36.4679 30.199 38.3333 32.5002 38.3333Z" stroke="white" stroke-width="2" stroke-miterlimit="10"/>
<mask id="path-3-inside-1_823_10494" fill="white">
<path d="M22.5002 33.334H20.8335V35.0007H22.5002V33.334Z"/>
</mask>
<path d="M22.5002 33.334H20.8335V35.0007H22.5002V33.334Z" fill="#252525"/>
<path d="M22.5002 33.334H24.5002V31.334H22.5002V33.334ZM20.8335 33.334V31.334H18.8335V33.334H20.8335ZM20.8335 35.0007H18.8335V37.0007H20.8335V35.0007ZM22.5002 35.0007V37.0007H24.5002V35.0007H22.5002ZM22.5002 31.334H20.8335V35.334H22.5002V31.334ZM18.8335 33.334V35.0007H22.8335V33.334H18.8335ZM20.8335 37.0007H22.5002V33.0007H20.8335V37.0007ZM24.5002 35.0007V33.334H20.5002V35.0007H24.5002Z" fill="white" mask="url(#path-3-inside-1_823_10494)"/>
<mask id="path-5-inside-2_823_10494" fill="white">
<path d="M25.8334 33.334H24.1667V35.0007H25.8334V33.334Z"/>
</mask>
<path d="M25.8334 33.334H24.1667V35.0007H25.8334V33.334Z" fill="#252525"/>
<path d="M25.8334 33.334H27.8334V31.334H25.8334V33.334ZM24.1667 33.334V31.334H22.1667V33.334H24.1667ZM24.1667 35.0007H22.1667V37.0007H24.1667V35.0007ZM25.8334 35.0007V37.0007H27.8334V35.0007H25.8334ZM25.8334 31.334H24.1667V35.334H25.8334V31.334ZM22.1667 33.334V35.0007H26.1667V33.334H22.1667ZM24.1667 37.0007H25.8334V33.0007H24.1667V37.0007ZM27.8334 35.0007V33.334H23.8334V35.0007H27.8334Z" fill="white" mask="url(#path-5-inside-2_823_10494)"/>
<mask id="path-7-inside-3_823_10494" fill="white">
<path d="M40.8334 33.334H39.1667V35.0007H40.8334V33.334Z"/>
</mask>
<path d="M40.8334 33.334H39.1667V35.0007H40.8334V33.334Z" fill="#252525"/>
<path d="M40.8334 33.334H42.8334V31.334H40.8334V33.334ZM39.1667 33.334V31.334H37.1667V33.334H39.1667ZM39.1667 35.0007H37.1667V37.0007H39.1667V35.0007ZM40.8334 35.0007V37.0007H42.8334V35.0007H40.8334ZM40.8334 31.334H39.1667V35.334H40.8334V31.334ZM37.1667 33.334V35.0007H41.1667V33.334H37.1667ZM39.1667 37.0007H40.8334V33.0007H39.1667V37.0007ZM42.8334 35.0007V33.334H38.8334V35.0007H42.8334Z" fill="white" mask="url(#path-7-inside-3_823_10494)"/>
<mask id="path-9-inside-4_823_10494" fill="white">
<path d="M44.1667 33.334H42.5V35.0007H44.1667V33.334Z"/>
</mask>
<path d="M44.1667 33.334H42.5V35.0007H44.1667V33.334Z" fill="#252525"/>
<path d="M44.1667 33.334H46.1667V31.334H44.1667V33.334ZM42.5 33.334V31.334H40.5V33.334H42.5ZM42.5 35.0007H40.5V37.0007H42.5V35.0007ZM44.1667 35.0007V37.0007H46.1667V35.0007H44.1667ZM44.1667 31.334H42.5V35.334H44.1667V31.334ZM40.5 33.334V35.0007H44.5V33.334H40.5ZM42.5 37.0007H44.1667V33.0007H42.5V37.0007ZM46.1667 35.0007V33.334H42.1667V35.0007H46.1667Z" fill="white" mask="url(#path-9-inside-4_823_10494)"/>
<path d="M2.5 24.167V11.667H32.5V24.167" stroke="white" stroke-width="2" stroke-miterlimit="10"/>
<path d="M17.5002 23.3333C19.8013 23.3333 21.6668 21.4679 21.6668 19.1667C21.6668 16.8655 19.8013 15 17.5002 15C15.199 15 13.3335 16.8655 13.3335 19.1667C13.3335 21.4679 15.199 23.3333 17.5002 23.3333Z" stroke="white" stroke-width="2" stroke-miterlimit="10"/>
<mask id="path-13-inside-5_823_10494" fill="white">
<path d="M7.50016 18.334H5.8335V20.0007H7.50016V18.334Z"/>
</mask>
<path d="M7.50016 18.334H5.8335V20.0007H7.50016V18.334Z" fill="#252525"/>
<path d="M7.50016 18.334H9.50016V16.334H7.50016V18.334ZM5.8335 18.334V16.334H3.8335V18.334H5.8335ZM5.8335 20.0007H3.8335V22.0007H5.8335V20.0007ZM7.50016 20.0007V22.0007H9.50016V20.0007H7.50016ZM7.50016 16.334H5.8335V20.334H7.50016V16.334ZM3.8335 18.334V20.0007H7.8335V18.334H3.8335ZM5.8335 22.0007H7.50016V18.0007H5.8335V22.0007ZM9.50016 20.0007V18.334H5.50016V20.0007H9.50016Z" fill="white" mask="url(#path-13-inside-5_823_10494)"/>
<mask id="path-15-inside-6_823_10494" fill="white">
<path d="M10.8334 18.334H9.16675V20.0007H10.8334V18.334Z"/>
</mask>
<path d="M10.8334 18.334H9.16675V20.0007H10.8334V18.334Z" fill="#252525"/>
<path d="M10.8334 18.334H12.8334V16.334H10.8334V18.334ZM9.16675 18.334V16.334H7.16675V18.334H9.16675ZM9.16675 20.0007H7.16675V22.0007H9.16675V20.0007ZM10.8334 20.0007V22.0007H12.8334V20.0007H10.8334ZM10.8334 16.334H9.16675V20.334H10.8334V16.334ZM7.16675 18.334V20.0007H11.1667V18.334H7.16675ZM9.16675 22.0007H10.8334V18.0007H9.16675V22.0007ZM12.8334 20.0007V18.334H8.83341V20.0007H12.8334Z" fill="white" mask="url(#path-15-inside-6_823_10494)"/>
<mask id="path-17-inside-7_823_10494" fill="white">
<path d="M25.8334 18.334H24.1667V20.0007H25.8334V18.334Z"/>
</mask>
<path d="M25.8334 18.334H24.1667V20.0007H25.8334V18.334Z" fill="#252525"/>
<path d="M25.8334 18.334H27.8334V16.334H25.8334V18.334ZM24.1667 18.334V16.334H22.1667V18.334H24.1667ZM24.1667 20.0007H22.1667V22.0007H24.1667V20.0007ZM25.8334 20.0007V22.0007H27.8334V20.0007H25.8334ZM25.8334 16.334H24.1667V20.334H25.8334V16.334ZM22.1667 18.334V20.0007H26.1667V18.334H22.1667ZM24.1667 22.0007H25.8334V18.0007H24.1667V22.0007ZM27.8334 20.0007V18.334H23.8334V20.0007H27.8334Z" fill="white" mask="url(#path-17-inside-7_823_10494)"/>
<mask id="path-19-inside-8_823_10494" fill="white">
<path d="M29.1667 18.334H27.5V20.0007H29.1667V18.334Z"/>
</mask>
<path d="M29.1667 18.334H27.5V20.0007H29.1667V18.334Z" fill="#252525"/>
<path d="M29.1667 18.334H31.1667V16.334H29.1667V18.334ZM27.5 18.334V16.334H25.5V18.334H27.5ZM27.5 20.0007H25.5V22.0007H27.5V20.0007ZM29.1667 20.0007V22.0007H31.1667V20.0007H29.1667ZM29.1667 16.334H27.5V20.334H29.1667V16.334ZM25.5 18.334V20.0007H29.5V18.334H25.5ZM27.5 22.0007H29.1667V18.0007H27.5V22.0007ZM31.1667 20.0007V18.334H27.1667V20.0007H31.1667Z" fill="white" mask="url(#path-19-inside-8_823_10494)"/>
<path d="M9.16675 8.33398H21.6667" stroke="white" stroke-width="2" stroke-miterlimit="10"/>
<path d="M23.3335 8.33398H25.8335" stroke="white" stroke-width="2" stroke-miterlimit="10"/>
<path d="M37.5002 20.001H35.0002" stroke="white" stroke-width="2" stroke-miterlimit="10"/>
<path d="M15.0002 26.6673H8.3335V24.5123C8.3335 23.8615 7.806 23.334 7.15516 23.334C6.84266 23.334 6.54266 23.4582 6.32183 23.679L1.42266 28.5782C1.04516 28.9557 0.833496 29.4673 0.833496 30.0007C0.833496 30.534 1.04516 31.0457 1.42266 31.4232L6.32183 36.3223C6.54266 36.5432 6.84266 36.6673 7.15516 36.6673C7.806 36.6673 8.3335 36.1398 8.3335 35.489V33.334H10.8335" stroke="white" stroke-width="2" stroke-miterlimit="10"/>
<path d="M39.1669 20.0003H41.6669V17.8453C41.6669 17.1945 42.1944 16.667 42.8452 16.667C43.1577 16.667 43.4577 16.7912 43.6786 17.012L48.5777 21.9112C48.9552 22.2887 49.1669 22.8003 49.1669 23.3337C49.1669 23.867 48.9552 24.3787 48.5777 24.7562L43.6786 29.6553C43.4577 29.8762 43.1577 30.0003 42.8452 30.0003C42.1944 30.0003 41.6669 29.4728 41.6669 28.822V26.667H37.5002" stroke="white" stroke-width="2" stroke-miterlimit="10"/>
<path d="M12.5002 33.334H15.0002" stroke="white" stroke-width="2" stroke-miterlimit="10"/>
</g>
<defs>
<clipPath id="clip0_823_10494">
<rect width="50" height="50" fill="white"/>
</clipPath>
</defs>
</svg>
