<svg width="84" height="84" viewBox="0 0 84 84" fill="none" xmlns="http://www.w3.org/2000/svg">
<path d="M68.7776 18.5604C68.7751 18.5179 68.7709 18.4762 68.7651 18.4345C68.7584 18.3937 68.7509 18.3536 68.7409 18.3145C68.7309 18.2753 68.7192 18.2361 68.705 18.1986C68.6909 18.1602 68.6759 18.1227 68.6575 18.086C68.64 18.0502 68.6217 18.016 68.6008 17.9826C68.58 17.9476 68.5575 17.9143 68.5333 17.8817C68.5091 17.8501 68.4841 17.8192 68.4574 17.79C68.4307 17.7609 68.4032 17.7325 68.3741 17.7058C68.344 17.6783 68.3132 17.6525 68.2798 17.6283C68.2482 17.6049 68.2165 17.5824 68.1823 17.5624C68.1473 17.5407 68.1114 17.5216 68.0747 17.5041C68.0381 17.4866 68.0014 17.4707 67.963 17.4565C67.9247 17.4424 67.8863 17.4307 67.8463 17.4207C67.8054 17.4098 67.7637 17.4015 67.7212 17.3948C67.6996 17.3915 67.6795 17.384 67.6579 17.3823C57.7229 16.3885 49.9532 14.3683 41.9276 7.38154C41.4065 6.92798 40.6153 6.98301 40.1634 7.50327C40.1342 7.53662 40.1125 7.57414 40.0875 7.60999C32.0168 14.5734 25.2768 16.4269 15.7171 17.3815C15.0776 17.4457 14.5907 17.9835 14.5907 18.6263V47.9166C14.5907 48.0275 14.6057 48.1376 14.6349 48.2443C19.7066 66.9486 40.1609 75.8347 41.0288 76.204C41.1856 76.2707 41.3523 76.3041 41.5182 76.3041C41.6825 76.3041 41.8484 76.2715 42.0026 76.2065C42.8814 75.838 63.57 66.9528 68.6417 48.2451C68.6592 48.1793 68.6725 48.1126 68.6792 48.0442L68.7776 47.0762C68.7818 47.0345 68.7843 46.992 68.7843 46.9495V18.6271C68.7843 18.6029 68.7793 18.5821 68.7776 18.5604ZM66.2013 47.6857C61.8241 63.6094 44.6473 72.227 41.5207 73.6786C38.4217 72.2229 21.4941 63.6244 17.0911 47.7466V19.751C26.1531 18.748 33.1816 16.6711 41.1472 9.9845C49.0411 16.5319 56.9817 18.7172 66.2822 19.7468V46.8845L66.2013 47.6857Z" fill="#154672"/>
<path d="M53.3598 34.0499H52.1593C51.4989 28.5114 46.7407 24.1992 40.9795 24.1992C35.2184 24.1992 30.4602 28.5114 29.8007 34.0499H28.3483C27.6579 34.0499 27.0977 34.6094 27.0977 35.3006V53.643C27.0977 54.3342 27.6579 54.8936 28.3483 54.8936H53.3607C54.051 54.8936 54.6113 54.3342 54.6113 53.643V35.3006C54.6105 34.6094 54.0502 34.0499 53.3598 34.0499ZM40.9787 26.7005C45.3575 26.7005 48.986 29.8954 49.6305 34.0499H32.3269C32.9722 29.8954 36.5999 26.7005 40.9787 26.7005ZM52.1092 36.5512V52.3924H29.5981V36.5512H52.1092Z" fill="#154672"/>
</svg>
