<svg width="50" height="44" viewBox="0 0 50 44" fill="none" xmlns="http://www.w3.org/2000/svg">
<path d="M48.1763 34.6327C48.1763 36.4784 46.8431 37.914 45.0996 37.914H4.07672C2.33324 37.914 1 36.4784 1 34.6327V4.28125C1 2.43556 2.33324 1 4.07672 1H45.0996C46.8431 1 48.1763 2.43556 48.1763 4.28125V34.6327Z" stroke="#F3F7FA" stroke-width="2" stroke-miterlimit="10" stroke-linecap="round" stroke-linejoin="round"/>
<path d="M10.2301 42.0156H38.9461" stroke="#F3F7FA" stroke-width="2" stroke-miterlimit="10" stroke-linecap="round" stroke-linejoin="round"/>
<path d="M24.5883 37.9141V42.0156" stroke="#F3F7FA" stroke-width="2" stroke-miterlimit="10" stroke-linecap="round" stroke-linejoin="round"/>
<path d="M24.5881 34.8378C25.1545 34.8378 25.6136 34.3788 25.6136 33.8125C25.6136 33.2462 25.1545 32.7871 24.5881 32.7871C24.0217 32.7871 23.5625 33.2462 23.5625 33.8125C23.5625 34.3788 24.0217 34.8378 24.5881 34.8378Z" stroke="#F3F7FA" stroke-width="2" stroke-miterlimit="10" stroke-linecap="round" stroke-linejoin="round"/>
<path d="M1 29.7109H48.1763" stroke="#F3F7FA" stroke-width="2" stroke-miterlimit="10" stroke-linecap="round" stroke-linejoin="round"/>
</svg>
