<svg width="49" height="49" viewBox="0 0 49 49" fill="none" xmlns="http://www.w3.org/2000/svg">
<path d="M48.6989 21.9216C48.6989 19.8998 47.7865 18.005 46.2316 16.7439C46.2993 16.421 46.3328 16.1108 46.3328 15.8056C46.3328 13.2871 44.4705 11.1955 42.0511 10.8352C42.1066 10.5459 42.133 10.2621 42.133 9.9794C42.133 7.29815 40.0199 5.1075 37.3728 4.96835C37.3293 4.9612 37.2853 4.95515 37.2397 4.95515C37.2177 4.95515 37.1962 4.9579 37.1737 4.95845C37.1517 4.9579 37.1302 4.95515 37.1077 4.95515C36.8558 4.95515 36.6022 4.9777 36.3344 5.02445C35.8691 2.5577 33.7202 0.720703 31.144 0.720703C28.223 0.720703 25.8464 3.09725 25.8464 6.01885V42.2738C25.8464 45.9714 28.8544 48.9788 32.5515 48.9788C35.0045 48.9788 37.2309 47.6517 38.4068 45.5435C38.6702 45.6007 38.9232 45.6359 39.1773 45.6524C40.774 45.7542 42.3288 45.2311 43.5366 44.1713C44.7444 43.1114 45.4671 41.6446 45.5716 40.0408C45.6151 39.3725 45.5403 38.7021 45.35 38.0399C47.4378 36.5598 48.6648 34.2163 48.6648 31.6483C48.6648 29.7866 47.9944 27.9991 46.7701 26.5751C48.0021 25.3277 48.6989 23.659 48.6989 21.9216ZM47.0159 31.6494C47.0159 33.5656 46.1458 35.3234 44.6537 36.4999C43.5493 34.7421 41.5902 33.6195 39.4688 33.6195C39.0134 33.6195 38.6438 33.9891 38.6438 34.4445C38.6438 34.8999 39.0134 35.2695 39.4688 35.2695C41.3064 35.2695 42.98 36.4207 43.6389 38.1339C43.8644 38.7323 43.9645 39.3379 43.9255 39.9346C43.8496 41.0984 43.3254 42.1627 42.4487 42.9316C41.572 43.701 40.4462 44.0833 39.2851 44.0063C38.9584 43.9848 38.6207 43.9144 38.222 43.7852C37.815 43.6521 37.3744 43.8534 37.2067 44.2472C36.4119 46.1194 34.5843 47.3294 32.5509 47.3294C29.7635 47.3294 27.4959 45.0617 27.4959 42.2743V6.0194C27.4959 4.00805 29.1321 2.37125 31.1435 2.37125C33.0124 2.37125 34.5502 3.78035 34.7504 5.62065C33.2373 6.48745 32.2138 8.1149 32.2138 9.97995C32.2138 10.4359 32.5834 10.805 33.0388 10.805C33.4942 10.805 33.8638 10.4359 33.8638 9.97995C33.8638 8.1413 35.3427 6.6442 37.1726 6.60845C39.0024 6.6442 40.4814 8.1413 40.4814 9.9794C40.4814 10.3215 40.417 10.6757 40.2839 11.0635C40.2526 11.1548 40.2377 11.2505 40.2394 11.3467C40.2399 11.3693 40.241 11.3902 40.2432 11.41C40.2399 11.4215 40.2377 11.4292 40.2377 11.4292C40.1728 11.685 40.2344 11.9567 40.4033 12.1596C40.5721 12.3626 40.824 12.4726 41.0913 12.4555C41.1485 12.4517 41.2057 12.4445 41.3069 12.4302C43.1676 12.4302 44.6817 13.9444 44.6817 15.805C44.6817 16.1196 44.6251 16.4425 44.5046 16.822C44.393 17.1712 44.5255 17.5524 44.8297 17.757C46.1684 18.6584 46.9796 20.1379 47.0374 21.7401C47.0374 21.7423 47.0368 21.7445 47.0368 21.7467C47.0368 24.5132 44.7862 26.7643 42.0197 26.7643C39.2532 26.7643 37.0021 24.5132 37.0021 21.7467C37.0021 21.2907 36.6325 20.9217 36.1771 20.9217C35.7217 20.9217 35.3521 21.2907 35.3521 21.7467C35.3521 25.4234 38.343 28.4143 42.0197 28.4143C43.2451 28.4143 44.3902 28.0761 45.378 27.4969C46.434 28.6464 47.0159 30.1166 47.0159 31.6494Z" fill="white"/>
<path d="M17.9984 0.72168C15.4222 0.72168 13.2739 2.55868 12.8091 5.02543C12.5407 4.97868 12.2872 4.95613 12.0353 4.95613C12.0133 4.95613 11.9918 4.95888 11.9693 4.95943C11.9473 4.95888 11.9258 4.95613 11.9033 4.95613C11.8576 4.95613 11.8136 4.96218 11.7702 4.96933C9.12303 5.10848 7.01048 7.29913 7.01048 9.98038C7.01048 10.2631 7.03743 10.5469 7.09243 10.8362C4.67298 11.1964 2.81068 13.2881 2.81068 15.8065C2.81068 16.1112 2.84423 16.4214 2.91188 16.7448C1.35703 18.006 0.44458 19.9007 0.44458 21.9225C0.44458 23.66 1.14088 25.3287 2.37233 26.5772C1.14748 28.0011 0.47703 29.7886 0.47703 31.6504C0.47703 34.2183 1.70408 36.5613 3.79188 38.0419C3.60103 38.7041 3.52678 39.3746 3.57078 40.0434C3.67528 41.6466 4.39743 43.1135 5.60523 44.1733C6.81303 45.2337 8.36348 45.7568 9.96453 45.6545C10.2148 45.638 10.47 45.6017 10.7345 45.545C11.9104 47.6537 14.1368 48.9809 16.5898 48.9809C20.2869 48.9809 23.2949 45.9729 23.2949 42.2758V6.01983C23.296 3.09823 20.9194 0.72168 17.9984 0.72168ZM21.646 42.2747C21.646 45.0621 19.3783 47.3298 16.5909 47.3298C14.5576 47.3298 12.7299 46.1198 11.9357 44.2476C11.8032 43.9357 11.4996 43.7449 11.1762 43.7449C11.0915 43.7449 11.0051 43.7575 10.9204 43.7856C10.5222 43.9148 10.1845 43.9852 9.85728 44.0067C8.69183 44.0831 7.57038 43.7009 6.69423 42.932C5.81753 42.1631 5.29338 41.0988 5.21748 39.935C5.17568 39.297 5.28623 38.6502 5.54638 38.0128C5.55023 38.0034 5.54913 37.993 5.55243 37.9836C6.29053 36.3028 7.87618 35.2595 9.73078 35.2595C10.1867 35.2595 10.5558 34.8899 10.5558 34.4345C10.5558 33.9791 10.1867 33.6095 9.73078 33.6095C7.56488 33.6095 5.60523 34.7133 4.47938 36.4909C2.99383 35.3145 2.12703 33.5611 2.12703 31.6498C2.12703 30.117 2.71003 28.6468 3.76493 27.4979C4.75273 28.077 5.89838 28.4153 7.12378 28.4153C10.8005 28.4153 13.7914 25.4244 13.7914 21.7476C13.7914 21.2917 13.4224 20.9226 12.9664 20.9226C12.5105 20.9226 12.1414 21.2917 12.1414 21.7476C12.1414 24.5141 9.89083 26.7653 7.12378 26.7653C4.35673 26.7653 2.10613 24.5141 2.10613 21.7476C2.10613 21.7465 2.10558 21.7454 2.10558 21.7443C2.16223 20.1411 2.97348 18.6605 4.31273 17.7579C4.61688 17.5533 4.74888 17.1727 4.63778 16.8235C4.51678 16.4434 4.46068 16.1206 4.46068 15.806C4.46068 13.9492 5.96823 12.4372 7.86793 12.4372C7.87178 12.4372 7.87618 12.4372 7.88003 12.4372C7.93668 12.4449 7.99333 12.4521 8.05108 12.4559C8.31783 12.4724 8.57248 12.3619 8.74078 12.1578C8.90963 11.9532 8.97013 11.6804 8.90248 11.4241C8.90248 11.4236 8.90083 11.4164 8.89808 11.4071C8.89973 11.3878 8.90138 11.3702 8.90193 11.3548C8.90468 11.2558 8.88983 11.1574 8.85738 11.0639C8.72428 10.675 8.65993 10.3203 8.65993 9.97928C8.65993 8.14118 10.1383 6.64353 11.9687 6.60833C13.7991 6.64408 15.2775 8.14118 15.2775 9.97983C15.2775 10.4358 15.6466 10.8048 16.1025 10.8048C16.5585 10.8048 16.9275 10.4358 16.9275 9.97983C16.9275 8.11478 15.904 6.48733 14.3909 5.62053C14.5911 3.78023 16.1289 2.37113 17.9978 2.37113C20.0092 2.37113 21.6454 4.00793 21.6454 6.01928V42.2747H21.646Z" fill="white"/>
</svg>
