<svg width="37" height="37" viewBox="0 0 37 37" fill="none" xmlns="http://www.w3.org/2000/svg">
<g clip-path="url(#clip0_604_4256)">
<path d="M18.5004 30.2166C24.6308 30.2166 29.6004 25.247 29.6004 19.1166C29.6004 12.9862 24.6308 8.0166 18.5004 8.0166C12.37 8.0166 7.40039 12.9862 7.40039 19.1166C7.40039 25.247 12.37 30.2166 18.5004 30.2166Z" stroke="#F3F7FA" stroke-miterlimit="10"/>
<path d="M18.5013 12.333H20.3513C21.3145 12.333 22.2013 13.2198 22.2013 14.183C22.2013 15.1851 22.0854 15.4552 21.5846 16.033V18.4997C21.5846 20.2023 20.2039 21.583 18.5013 21.583C16.7987 21.583 15.418 20.2023 15.418 18.4997V16.004" stroke="#F3F7FA" stroke-miterlimit="10"/>
<path d="M17.885 16.0329H15.776C14.5569 16.0329 13.5684 15.0426 13.5684 13.8228C13.5684 13.2487 13.7022 12.682 13.9587 12.1683C14.2455 11.596 14.4027 11.0996 15.0465 11.0996C15.2845 11.0996 15.5127 11.194 15.6804 11.3617C16.2589 11.9401 16.767 12.3329 17.6735 12.3329H19.1159" stroke="#F3F7FA" stroke-miterlimit="10"/>
<path d="M12.3809 28.3776L13.7098 25.1882C13.9971 24.4987 14.6705 24.0498 15.4173 24.0498H21.584C22.3308 24.0498 23.0042 24.4987 23.2915 25.1882L24.6205 28.3776" stroke="#F3F7FA" stroke-miterlimit="10"/>
<path d="M3.70052 10.4831C5.4034 10.4831 6.78385 9.10262 6.78385 7.39974C6.78385 5.69686 5.4034 4.31641 3.70052 4.31641C1.99764 4.31641 0.617188 5.69686 0.617188 7.39974C0.617188 9.10262 1.99764 10.4831 3.70052 10.4831Z" stroke="#F3F7FA" stroke-miterlimit="10"/>
<path d="M9.79992 12.2281L6.11719 9.3125" stroke="#F3F7FA" stroke-miterlimit="10"/>
<path d="M12.2168 4.43353V4.2002H12.4501V4.43353H12.2168Z" fill="black" stroke="#F3F7FA"/>
<path d="M10.3672 2.58294V2.34961H10.6005V2.58294H10.3672Z" fill="black" stroke="#F3F7FA"/>
<path d="M14.0664 2.58294V2.34961H14.2997V2.58294H14.0664Z" fill="black" stroke="#F3F7FA"/>
<path d="M12.2168 0.733333V0.5H12.4501V0.733333H12.2168Z" fill="black" stroke="#F3F7FA"/>
<path d="M6.37695 5.87047L9.61569 4.08398" stroke="#F3F7FA" stroke-miterlimit="10"/>
<path d="M33.3001 7.40007C35.003 7.40007 36.3835 6.01961 36.3835 4.31673C36.3835 2.61385 35.003 1.2334 33.3001 1.2334C31.5973 1.2334 30.2168 2.61385 30.2168 4.31673C30.2168 6.01961 31.5973 7.40007 33.3001 7.40007Z" stroke="#F3F7FA" stroke-miterlimit="10"/>
<path d="M23.4335 5.54954C24.7958 5.54954 25.9001 4.44518 25.9001 3.08288C25.9001 1.72058 24.7958 0.616211 23.4335 0.616211C22.0712 0.616211 20.9668 1.72058 20.9668 3.08288C20.9668 4.44518 22.0712 5.54954 23.4335 5.54954Z" stroke="#F3F7FA" stroke-miterlimit="10"/>
<path d="M26.3477 11.2672L31.1188 6.49609" stroke="#F3F7FA" stroke-miterlimit="10"/>
<path d="M30.2407 3.93381L25.8809 3.38867" stroke="#F3F7FA" stroke-miterlimit="10"/>
<path d="M3.58398 29.7167V29.4834H3.81732V29.7167H3.58398Z" fill="black" stroke="#F3F7FA"/>
<path d="M3.58398 35.8827V35.6494H3.81732V35.8827H3.58398Z" fill="black" stroke="#F3F7FA"/>
<path d="M6.66602 32.7997V32.5664H6.89935V32.7997H6.66602Z" fill="black" stroke="#F3F7FA"/>
<path d="M0.5 32.7997V32.5664H0.733333V32.7997H0.5Z" fill="black" stroke="#F3F7FA"/>
<path d="M1.11719 30.3329V30.0996H1.35052V30.3329H1.11719Z" fill="black" stroke="#F3F7FA"/>
<path d="M6.05078 30.3329V30.0996H6.28411V30.3329H6.05078Z" fill="black" stroke="#F3F7FA"/>
<path d="M1.11719 35.2665V35.0332H1.35052V35.2665H1.11719Z" fill="black" stroke="#F3F7FA"/>
<path d="M6.05078 35.2665V35.0332H6.28411V35.2665H6.05078Z" fill="black" stroke="#F3F7FA"/>
<path d="M10.4157 26.7227L7.63086 29.3423" stroke="#F3F7FA" stroke-miterlimit="10"/>
<path d="M3.69961 25.283C4.72134 25.283 5.54961 24.4547 5.54961 23.433C5.54961 22.4113 4.72134 21.583 3.69961 21.583C2.67788 21.583 1.84961 22.4113 1.84961 23.433C1.84961 24.4547 2.67788 25.283 3.69961 25.283Z" stroke="#F3F7FA" stroke-miterlimit="10"/>
<path d="M3.69922 27.7499V25.2832" stroke="#F3F7FA" stroke-miterlimit="10"/>
<path d="M31.4505 35.1501C33.1534 35.1501 34.5339 33.7696 34.5339 32.0667C34.5339 30.3639 33.1534 28.9834 31.4505 28.9834C29.7476 28.9834 28.3672 30.3639 28.3672 32.0667C28.3672 33.7696 29.7476 35.1501 31.4505 35.1501Z" stroke="#F3F7FA" stroke-miterlimit="10"/>
<path d="M34.5336 24.6668C35.5553 24.6668 36.3836 23.8385 36.3836 22.8168C36.3836 21.7951 35.5553 20.9668 34.5336 20.9668C33.5119 20.9668 32.6836 21.7951 32.6836 22.8168C32.6836 23.8385 33.5119 24.6668 34.5336 24.6668Z" stroke="#F3F7FA" stroke-miterlimit="10"/>
<path d="M20.8496 36.4999V36.2666H21.0829V36.4999H20.8496Z" fill="black" stroke="#F3F7FA"/>
<path d="M19 34.6503V34.417H19.2333V34.6503H19Z" fill="black" stroke="#F3F7FA"/>
<path d="M22.6992 34.6503V34.417H22.9326V34.6503H22.6992Z" fill="black" stroke="#F3F7FA"/>
<path d="M20.8496 32.7997V32.5664H21.0829V32.7997H20.8496Z" fill="black" stroke="#F3F7FA"/>
<path d="M28.448 32.7725L24.666 33.3897" stroke="#F3F7FA" stroke-miterlimit="10"/>
<path d="M33.9476 24.5703L32.4238 29.141" stroke="#F3F7FA" stroke-miterlimit="10"/>
</g>
<defs>
<clipPath id="clip0_604_4256">
<rect width="37" height="37" fill="white"/>
</clipPath>
</defs>
</svg>
