<svg width="82" height="82" viewBox="0 0 82 82" fill="none" xmlns="http://www.w3.org/2000/svg">
<path d="M73.6546 55.8418C66.9419 66.8363 54.3403 74.2392 39.9033 74.2392C37.3098 74.2392 34.7757 74.0008 32.3225 73.5455" stroke="#154672" stroke-width="2" stroke-miterlimit="10"/>
<path d="M76.4453 50.2109C76.1555 50.9577 75.8412 51.6901 75.501 52.4124" stroke="#154672" stroke-width="2" stroke-miterlimit="10"/>
<path d="M38.5825 67.5811L32.3198 73.5436L36.7228 80.9996" stroke="#154672" stroke-width="2" stroke-miterlimit="10"/>
<path d="M13.626 21.9897L10.2407 13.9248H1" stroke="#154672" stroke-width="2" stroke-miterlimit="10"/>
<path d="M68.4761 23.6481L76.7434 25.8352L80.9999 18.6865" stroke="#154672" stroke-width="2" stroke-miterlimit="10"/>
<path d="M39.3323 1.00431C39.523 1.00144 39.7137 1 39.9044 1C57.0112 1 71.5366 11.3913 76.7481 25.8352" stroke="#154672" stroke-width="2" stroke-miterlimit="10"/>
<path d="M33.2112 1.53956C34.0716 1.39883 34.9458 1.28395 35.8246 1.19922" stroke="#154672" stroke-width="2" stroke-miterlimit="10"/>
<path d="M5.80723 55.2675C2.74378 50.0345 1 44.0189 1 37.6198C1 28.5827 4.47689 20.311 10.2407 13.9248" stroke="#154672" stroke-width="2" stroke-miterlimit="10"/>
<path d="M9.78176 60.7962C9.18829 60.1141 8.62228 59.4133 8.08374 58.6924" stroke="#154672" stroke-width="2" stroke-miterlimit="10"/>
<path d="M16.2563 36.9016V28.2852C16.2563 26.6998 17.6233 25.4131 19.3076 25.4131H60.4993C62.1836 25.4131 63.5506 26.6998 63.5506 28.2852V54.1343C63.5506 55.7197 62.1836 57.0064 60.4993 57.0064H19.3076C17.6233 57.0064 16.2563 55.7197 16.2563 54.1343V45.5179" stroke="#154672" stroke-width="2" stroke-miterlimit="10"/>
<path d="M28.4607 25.4133V18.233C28.4607 15.8534 30.5096 13.9248 33.0376 13.9248H46.7681C49.2946 13.9248 51.345 15.8534 51.345 18.233V25.4133" stroke="#154672" stroke-width="2" stroke-miterlimit="10"/>
<path d="M16.2563 39.7734V42.6456" stroke="#154672" stroke-width="2" stroke-miterlimit="10"/>
<path d="M43.7179 42.6462H36.0898C35.2462 42.6462 34.5642 42.0042 34.5642 41.2101V34.0298C34.5642 33.2357 35.2462 32.5938 36.0898 32.5938H43.7179C44.5616 32.5938 45.2436 33.2357 45.2436 34.0298V41.2101C45.2436 42.0042 44.5616 42.6462 43.7179 42.6462Z" stroke="#154672" stroke-width="2" stroke-miterlimit="10"/>
<path d="M17.5994 25.9082L24.5028 35.626C25.0688 36.423 26.0193 36.9012 27.0384 36.9012H34.5627" stroke="#154672" stroke-width="2" stroke-miterlimit="10"/>
<path d="M62.2063 25.9082L55.3029 35.626C54.7369 36.423 53.7864 36.9012 52.7673 36.9012H45.2429" stroke="#154672" stroke-width="2" stroke-miterlimit="10"/>
</svg>
