<svg width="50" height="50" viewBox="0 0 50 50" fill="none" xmlns="http://www.w3.org/2000/svg">
<path d="M27.2334 7.24756C25.9309 5.1059 24.0409 3.36007 21.7876 2.2334" stroke="white" stroke-width="2" stroke-miterlimit="10"/>
<path d="M12.5 16.667C12.5 18.0478 13.9925 19.167 15.8333 19.167C17.6742 19.167 19.1667 18.0478 19.1667 16.667C19.1667 15.2862 17.6742 14.167 15.8333 14.167C13.9925 14.167 12.5 13.0478 12.5 11.667C12.5 10.2862 13.9925 9.16699 15.8333 9.16699C17.6742 9.16699 19.1667 10.2862 19.1667 11.667" stroke="white" stroke-width="2" stroke-miterlimit="10"/>
<path d="M15.8333 9.16699V6.66699" stroke="white" stroke-width="2" stroke-miterlimit="10"/>
<path d="M15.8333 21.667V19.167" stroke="white" stroke-width="2" stroke-miterlimit="10"/>
<path d="M47.4999 26.667H42.4999C41.5791 26.667 40.8333 27.4128 40.8333 28.3337V45.8337C40.8333 46.7545 41.5791 47.5003 42.4999 47.5003H47.4999" stroke="white" stroke-width="2" stroke-miterlimit="10"/>
<mask id="path-6-inside-1_233_3733" fill="white">
<path d="M44.9999 29.167H43.3333V30.8337H44.9999V29.167Z"/>
</mask>
<path d="M44.9999 29.167H43.3333V30.8337H44.9999V29.167Z" fill="#252525"/>
<path d="M44.9999 29.167H46.9999V27.167H44.9999V29.167ZM43.3333 29.167V27.167H41.3333V29.167H43.3333ZM43.3333 30.8337H41.3333V32.8337H43.3333V30.8337ZM44.9999 30.8337V32.8337H46.9999V30.8337H44.9999ZM44.9999 27.167H43.3333V31.167H44.9999V27.167ZM41.3333 29.167V30.8337H45.3333V29.167H41.3333ZM43.3333 32.8337H44.9999V28.8337H43.3333V32.8337ZM46.9999 30.8337V29.167H42.9999V30.8337H46.9999Z" fill="white" mask="url(#path-6-inside-1_233_3733)"/>
<path d="M40.8332 30H38.5357C37.8724 30 37.2366 29.7367 36.7683 29.2675L26.8691 19.3692C26.2057 18.7058 25.3066 18.3333 24.3691 18.3333C22.4166 18.3333 20.8333 19.9167 20.8333 21.8692C20.8333 22.8067 21.2058 23.7058 21.8691 24.3692L25.9766 28.4767C26.4183 28.9183 26.6666 29.5183 26.6666 30.1433C26.6666 31.445 25.6116 32.5 24.3099 32.5H20.6008C19.6633 32.5 18.7458 32.2367 17.9508 31.74L13.8158 29.1558C12.9674 28.6258 12.3383 27.8075 12.0424 26.8517L9.01742 17.05C8.64075 15.8308 7.51492 15 6.23992 15C4.63492 15 3.33325 16.3017 3.33325 17.9067C3.33325 18.1383 3.35992 18.3692 3.41242 18.595L6.29575 30.9167C6.53908 31.9575 7.02992 32.925 7.72575 33.7367L14.6716 41.84C15.9374 43.3158 17.7866 44.1667 19.7324 44.1667H40.8332" stroke="white" stroke-width="2" stroke-miterlimit="10"/>
<path d="M24.9074 18.3745C25.5016 17.0953 25.8333 15.6703 25.8333 14.167C25.8333 8.64449 21.3558 4.16699 15.8333 4.16699C10.3108 4.16699 5.83325 8.64449 5.83325 14.167C5.83325 14.4562 5.84575 14.742 5.86909 15.0245" stroke="white" stroke-width="2" stroke-miterlimit="10"/>
<path d="M10.7942 22.8059C12.2734 23.6709 13.9959 24.1667 15.8334 24.1667C17.7025 24.1667 19.4517 23.6542 20.9484 22.7617" stroke="white" stroke-width="2" stroke-miterlimit="10"/>
</svg>
