<svg width="82" height="82" viewBox="0 0 82 82" fill="none" xmlns="http://www.w3.org/2000/svg">
<path d="M64.6312 30.4473L69.7005 34.7709C71.2347 36.1669 73.1154 38.9488 73.1154 41.802C73.1154 44.7165 73.1281 57.8316 73.1281 57.8316C70.3255 64.5218 65.8246 72.4039 58.975 72.4039C57.2952 72.4039 56.147 70.9467 56.147 69.4895C56.147 65.8916 59.5831 64.1735 60.6181 63.662" stroke="#154672" stroke-width="2" stroke-miterlimit="10"/>
<path d="M73.1265 57.8311L80.9998 72.0536" stroke="#154672" stroke-width="2" stroke-miterlimit="10"/>
<path d="M56.3848 70.6357L60.5618 80.9996" stroke="#154672" stroke-width="2" stroke-miterlimit="10"/>
<path d="M65.3234 69.8953C64.7422 69.1259 57.5773 60.6389 55.3912 54.01L50.6712 41.367C50.5552 41.0479 50.4916 40.704 50.4916 40.3441C50.4916 38.7353 51.7586 37.4296 53.3197 37.4296C54.3067 37.4296 55.1763 37.9513 55.6839 38.7411L60.7377 46.6451C61.1718 47.3213 61.9552 47.7337 62.8234 47.6069C63.8867 47.451 64.6319 46.7194 64.6319 44.7158V19.9428C64.6319 18.334 63.365 17.0283 61.8039 17.0283H46.2495" stroke="#154672" stroke-width="2" stroke-miterlimit="10"/>
<path d="M42.007 41.8025H27.8666V49.5594C27.8666 50.3186 27.0663 50.7937 26.4271 50.4104L12.1058 41.8025H5.2421C2.89905 41.8025 1 39.8455 1 37.4308V5.3717C1 2.95706 2.89905 1 5.2421 1H42.007C44.3486 1 46.2491 2.95706 46.2491 5.3717V37.4308C46.2491 39.8455 44.3486 41.8025 42.007 41.8025Z" stroke="#154672" stroke-width="2" stroke-miterlimit="10"/>
<path d="M36.3507 35.9728H10.8981C9.33704 35.9728 8.07007 34.6671 8.07007 33.0583V17.0287C8.07007 15.4199 9.33704 14.1143 10.8981 14.1143H36.3507C37.9118 14.1143 39.1788 15.4199 39.1788 17.0287V33.0583C39.1788 34.6671 37.9118 35.9728 36.3507 35.9728Z" stroke="#154672" stroke-width="2" stroke-miterlimit="10"/>
<path d="M16.5544 14.1143V9.74259C16.5544 8.13381 17.8214 6.82812 19.3825 6.82812H27.8667C29.4278 6.82812 30.6948 8.13381 30.6948 9.74259V14.1143" stroke="#154672" stroke-width="2" stroke-miterlimit="10"/>
<path d="M38.3484 14.9697L31.9372 21.5768C31.1411 22.3972 30.0622 22.8577 28.938 22.8577H26.4521" stroke="#154672" stroke-width="2" stroke-miterlimit="10"/>
<path d="M8.89844 14.9697L15.3111 21.5768C16.1072 22.3972 17.1861 22.8577 18.3102 22.8577H20.7961" stroke="#154672" stroke-width="2" stroke-miterlimit="10"/>
<path d="M56.147 69.4892H36.3505C34.7894 69.4892 33.5225 68.1835 33.5225 66.5747V41.8018" stroke="#154672" stroke-width="2" stroke-miterlimit="10"/>
<path d="M33.5225 57.8311H57.0477" stroke="#154672" stroke-width="2" stroke-miterlimit="10"/>
</svg>
