<svg width="79" height="79" viewBox="0 0 79 79" fill="none" xmlns="http://www.w3.org/2000/svg">
<path d="M54.6665 47.9987C54.6665 45.7894 52.8758 43.9987 50.6665 43.9987H30.2078C28.7932 43.9987 27.4358 43.436 26.4358 42.436L22.8945 38.8947C21.8945 37.8947 20.5385 37.332 19.1238 37.332H10.6665C8.45717 37.332 6.6665 39.1227 6.6665 41.332V73.332C6.6665 75.5414 8.45717 77.332 10.6665 77.332H50.6665C52.8758 77.332 54.6665 75.5414 54.6665 73.332V47.9987Z" stroke="white" stroke-width="2" stroke-miterlimit="10"/>
<path d="M10.6665 70.665H13.3332" stroke="white" stroke-width="2" stroke-miterlimit="10"/>
<path d="M15.9998 70.665H18.6664" stroke="white" stroke-width="2" stroke-miterlimit="10"/>
<path d="M21.3333 70.665H23.9999" stroke="white" stroke-width="2" stroke-miterlimit="10"/>
<path d="M26.6665 70.665H29.3332" stroke="white" stroke-width="2" stroke-miterlimit="10"/>
<path d="M31.9998 70.665H34.6664" stroke="white" stroke-width="2" stroke-miterlimit="10"/>
<path d="M37.3333 70.665H39.9999" stroke="white" stroke-width="2" stroke-miterlimit="10"/>
<path d="M42.6665 70.665H45.3332" stroke="white" stroke-width="2" stroke-miterlimit="10"/>
<path d="M47.9998 70.665H50.6664" stroke="white" stroke-width="2" stroke-miterlimit="10"/>
<path d="M42.6665 39.9984V10.665H71.9998V47.9984H58.6665" stroke="white" stroke-width="2" stroke-miterlimit="10"/>
<path d="M46.6665 5.33203H77.3332V43.9987" stroke="white" stroke-width="2" stroke-miterlimit="10"/>
<path d="M46.6665 34.665H67.9998" stroke="white" stroke-width="2" stroke-miterlimit="10"/>
<path d="M58.6665 39.999H67.9998" stroke="white" stroke-width="2" stroke-miterlimit="10"/>
<path d="M47.9998 30.665V19.9984C47.9998 19.2624 48.5971 18.665 49.3331 18.665H53.3331C54.0691 18.665 54.6664 19.2624 54.6664 19.9984V30.665" stroke="white" stroke-width="2" stroke-miterlimit="10"/>
<path d="M59.9998 30.6657V17.3324C59.9998 16.5964 60.5971 15.999 61.3331 15.999H65.3331C66.0691 15.999 66.6664 16.5964 66.6664 17.3324V30.6657" stroke="white" stroke-width="2" stroke-miterlimit="10"/>
<path d="M30.6666 34.0263V30.6663H34.6666C36.1399 30.6663 37.3333 29.473 37.3333 27.9997V3.99967C37.3333 2.52634 36.1399 1.33301 34.6666 1.33301H3.99992C2.52659 1.33301 1.33325 2.52634 1.33325 3.99967V27.9997C1.33325 29.473 2.52659 30.6663 3.99992 30.6663H22.6666L27.4599 35.5677C27.8093 35.8477 28.0279 35.9997 28.6933 35.9997C29.8333 35.9997 30.6666 35.1157 30.6666 34.0263V34.0263Z" stroke="white" stroke-width="2" stroke-miterlimit="10"/>
<path d="M18.6666 25.3317C23.8212 25.3317 27.9999 21.153 27.9999 15.9984C27.9999 10.8437 23.8212 6.66504 18.6666 6.66504C13.5119 6.66504 9.33325 10.8437 9.33325 15.9984C9.33325 21.153 13.5119 25.3317 18.6666 25.3317Z" stroke="white" stroke-width="2" stroke-miterlimit="10"/>
<path d="M9.33325 15.999H27.9999" stroke="white" stroke-width="2" stroke-miterlimit="10"/>
<path d="M18.6665 6.66504C18.6665 6.66504 14.6665 11.165 14.6665 15.9984C14.6665 22.0544 18.6665 25.3317 18.6665 25.3317" stroke="white" stroke-width="2" stroke-miterlimit="10"/>
<path d="M18.6665 6.66504C18.6665 6.66504 22.6665 9.88771 22.6665 15.9984C22.6665 21.0544 18.6665 25.3317 18.6665 25.3317" stroke="white" stroke-width="2" stroke-miterlimit="10"/>
</svg>
