<svg width="37" height="37" viewBox="0 0 37 37" fill="none" xmlns="http://www.w3.org/2000/svg">
<path d="M19 29V31" stroke="#F3F7FA" stroke-miterlimit="10"/>
<path d="M31 19H29" stroke="#F3F7FA" stroke-miterlimit="10"/>
<path d="M6 19H8" stroke="#F3F7FA" stroke-miterlimit="10"/>
<path d="M19 7V18.2816L24 24" stroke="#F3F7FA" stroke-miterlimit="10"/>
<path d="M5 32H3V34H5V32Z" fill="#F3F7FA"/>
<path d="M36 6H34V7H36V6Z" fill="#F3F7FA"/>
<path d="M34 3H32V5H34V3Z" fill="#F3F7FA"/>
<path d="M31 1H30V3H31V1Z" fill="#F3F7FA"/>
<path d="M3 30H1V31H3V30Z" fill="#F3F7FA"/>
<path d="M7 34H6V36H7V34Z" fill="#F3F7FA"/>
<path d="M18.4964 34.1482C27.1379 34.1482 34.1433 27.1428 34.1433 18.5013C34.1433 9.85982 27.1379 2.85449 18.4964 2.85449C9.85493 2.85449 2.84961 9.85982 2.84961 18.5013C2.84961 27.1428 9.85493 34.1482 18.4964 34.1482Z" stroke="#F3F7FA" stroke-miterlimit="10"/>
<path d="M6.57219 3.82812C4.94232 5.15485 3.53736 6.74756 2.42383 8.54043" stroke="#F3F7FA" stroke-miterlimit="10"/>
<path d="M11.3246 1.00195C10.4177 1.37422 9.54673 1.81428 8.7168 2.31694" stroke="#F3F7FA" stroke-miterlimit="10"/>
<path d="M30.4238 33.1732C32.0537 31.8465 33.4587 30.2538 34.5722 28.4609" stroke="#F3F7FA" stroke-miterlimit="10"/>
<path d="M25.6699 36.0005C26.5768 35.6283 27.4478 35.1882 28.2777 34.6855" stroke="#F3F7FA" stroke-miterlimit="10"/>
</svg>
