<svg width="80" height="80" viewBox="0 0 80 80" fill="none" xmlns="http://www.w3.org/2000/svg">
<path d="M52.6137 39.9987H75.3337C77.175 39.9987 78.667 38.5067 78.667 36.6654C78.667 34.824 77.175 33.332 75.3337 33.332H40.0003L36.667 36.6654L40.0003 39.9987H46.667" stroke="#154672" stroke-width="2" stroke-miterlimit="10"/>
<path d="M71.312 61.3314C73.3293 56.414 74.7213 52.1087 74.6667 46.6647V39.998" stroke="#154672" stroke-width="2" stroke-miterlimit="10"/>
<path d="M60 30.665V33.3317" stroke="#154672" stroke-width="2" stroke-miterlimit="10"/>
<path d="M60.0001 39.9984L60.0014 46.9024C60.0014 47.5717 59.4614 47.9984 58.9067 47.9984C58.5841 47.9984 58.2467 47.8611 58.0161 47.5397L51.5081 38.4544C50.9281 37.6384 49.9001 37.1624 48.7827 37.3864C47.7961 37.5837 46.9707 38.3771 46.7414 39.3571C46.5734 40.0784 46.6974 40.7651 47.0201 41.3251L53.6441 52.8491C55.0134 55.2304 58.2774 59.4144 60.3601 61.3317" stroke="#154672" stroke-width="2" stroke-miterlimit="10"/>
<path d="M48.8481 33.332L57.3055 26.4414C58.1855 25.724 59.2868 25.332 60.4228 25.332C61.0241 25.332 61.6215 25.444 62.1828 25.6587L70.4868 28.836C71.7401 29.316 72.7668 30.2507 73.3615 31.4534L74.2921 33.332" stroke="#154672" stroke-width="2" stroke-miterlimit="10"/>
<path d="M14.9189 13.682L49.5376 6.58203L54.2749 28.91" stroke="#154672" stroke-width="2" stroke-miterlimit="10"/>
<path d="M55.7666 10.8672L57.6413 19.7112" stroke="#154672" stroke-width="2" stroke-miterlimit="10"/>
<path d="M54.3506 4.18359L55.1199 7.81159" stroke="#154672" stroke-width="2" stroke-miterlimit="10"/>
<path d="M13.4828 63.7582L3.62549 15.9982L11.7802 14.3262" stroke="#154672" stroke-width="2" stroke-miterlimit="10"/>
<path d="M19.972 32.1646L18.7986 26.4246C18.648 25.6846 17.932 25.2073 17.1986 25.3593L13.0826 26.2126C12.348 26.3646 11.876 27.0899 12.028 27.8313L13.2013 33.5713C13.352 34.3113 14.068 34.7886 14.8013 34.6366L18.9173 33.7833C19.6506 33.6313 20.1226 32.9059 19.972 32.1646Z" stroke="#154672" stroke-width="2" stroke-miterlimit="10"/>
<path d="M7.13768 58.4623L5.29102 49.5996" stroke="#154672" stroke-width="2" stroke-miterlimit="10"/>
<path d="M10.996 76.9879L7.78271 61.5586" stroke="#154672" stroke-width="2" stroke-miterlimit="10"/>
<path d="M53.3334 67.966L16 75.9526L14.124 66.8633" stroke="#154672" stroke-width="2" stroke-miterlimit="10"/>
<path d="M24.376 29.5356L45.004 25.0596" stroke="#154672" stroke-width="2" stroke-miterlimit="10"/>
<path d="M53.3335 71.9987V63.9987C53.3335 62.5254 54.5268 61.332 56.0002 61.332H74.6668C76.1402 61.332 77.3335 62.5254 77.3335 63.9987V71.9987" stroke="#154672" stroke-width="2" stroke-miterlimit="10"/>
<path d="M58.3335 66.9987V66.332H59.0002V66.9987H58.3335Z" fill="black" stroke="#154672" stroke-width="2"/>
<path d="M29.7095 49.5368L43.6908 46.3115" stroke="#154672" stroke-width="2" stroke-miterlimit="10"/>
<path d="M16.6372 50.023L21.3332 52.499L25.5612 45.4736" stroke="#154672" stroke-width="2" stroke-miterlimit="10"/>
<path d="M38.3335 65.6657V64.999H39.0002V65.6657H38.3335Z" fill="black" stroke="#154672" stroke-width="2"/>
<path d="M45 64.3327V63.666H45.6667V64.3327H45Z" fill="black" stroke="#154672" stroke-width="2"/>
<path d="M31.6665 66.9987V66.332H32.3332V66.9987H31.6665Z" fill="black" stroke="#154672" stroke-width="2"/>
</svg>
