<svg width="37" height="37" viewBox="0 0 37 37" fill="none" xmlns="http://www.w3.org/2000/svg">
<path d="M32.1289 25.1446C32.8843 23.2841 33.3006 21.2491 33.3006 19.1173C33.3006 17.6614 33.1063 16.2504 32.7425 14.9092" stroke="#F3F7FA" stroke-miterlimit="10"/>
<path d="M30.7793 27.7509C31.0352 27.3513 31.2732 26.94 31.4934 26.5176" stroke="#F3F7FA" stroke-miterlimit="10"/>
<path d="M28.9004 30.1491C29.2285 29.8032 29.5411 29.443 29.8371 29.0693" stroke="#F3F7FA" stroke-miterlimit="10"/>
<path d="M26.1934 32.4378C26.6503 32.1314 27.09 31.8014 27.5118 31.4512" stroke="#F3F7FA" stroke-miterlimit="10"/>
<path d="M4.07465 10.002C2.50215 12.2731 1.5013 14.9704 1.2793 17.8848" stroke="#F3F7FA" stroke-miterlimit="10"/>
<path d="M6.61221 7.13672C6.12258 7.5727 5.65946 8.03829 5.22656 8.53039" stroke="#F3F7FA" stroke-miterlimit="10"/>
<path d="M34.8235 13.4164C33.6599 9.83845 31.4812 6.83652 28.7148 4.62207" stroke="#F3F7FA" stroke-miterlimit="10"/>
<path d="M35.3922 15.9664C35.3306 15.6131 35.259 15.2603 35.1758 14.9082" stroke="#F3F7FA" stroke-miterlimit="10"/>
<path d="M19.6393 3.2585C18.8648 3.1438 18.0724 3.08398 17.2658 3.08398C15.5774 3.08398 13.95 3.34483 12.4219 3.82892" stroke="#F3F7FA" stroke-miterlimit="10"/>
<path d="M23.9123 4.52208C23.0021 4.10706 22.0463 3.77468 21.0547 3.53418" stroke="#F3F7FA" stroke-miterlimit="10"/>
<path d="M5.43359 25.4003V25.167H5.66693V25.4003H5.43359Z" fill="black" stroke="#F3F7FA"/>
<path d="M25.0476 9.63087L24.3434 8.92664C23.3659 7.94922 22.0407 7.40039 20.6588 7.40039C20.3868 7.40039 20.1167 7.42197 19.8516 7.46329" stroke="#F3F7FA" stroke-miterlimit="10"/>
<path d="M18.3902 7.91992C17.8698 8.17152 17.3906 8.51007 16.9738 8.92632L16.2695 9.63055" stroke="#F3F7FA" stroke-miterlimit="10"/>
<path d="M15.109 30.5255L16.2955 29.3391C16.8794 28.7557 17.3123 28.4535 17.884 28.3672C19.2234 28.1649 20.2594 27.8418 20.9673 27.1339L28.3297 19.7715C28.7484 19.3528 28.984 18.7842 28.984 18.1922C28.984 17.6002 28.7484 17.0316 28.3297 16.6129L22.2377 10.5209C21.8196 10.1028 21.251 9.86719 20.659 9.86719C20.067 9.86719 19.4984 10.1028 19.0797 10.5215L13.0284 16.5728C12.9729 16.6283 12.9026 16.6505 12.8335 16.6505C12.7151 16.6505 12.601 16.5679 12.5745 16.4347L11.6816 11.9694C11.512 11.1221 10.7646 10.4839 9.86732 10.4839C8.8455 10.4839 8.01732 11.312 8.01732 12.3339C8.01732 12.435 8.02533 12.5343 8.04137 12.6311L9.21242 19.8745C9.2377 20.0311 9.25065 20.1902 9.25065 20.3505C9.25065 21.1405 8.93677 21.8977 8.37868 22.4558L7.70898 23.1255" stroke="#F3F7FA" stroke-miterlimit="10"/>
<path d="M13.8135 35.5208L15.3805 33.9539C15.7986 33.5358 16.0341 32.9672 16.0341 32.3752C16.0341 31.7832 15.7986 31.2146 15.3798 30.7959L7.43841 22.8545C7.01969 22.4358 6.45112 22.2002 5.85912 22.2002C5.26712 22.2002 4.69856 22.4358 4.27984 22.8545L2.71289 24.4214" stroke="#F3F7FA" stroke-miterlimit="10"/>
</svg>
