<svg width="80" height="80" viewBox="0 0 80 80" fill="none" xmlns="http://www.w3.org/2000/svg">
<path d="M9.33325 64.667C9.33325 61.3537 12.0199 58.667 15.3333 58.667H55.9999L64.5719 64.667L55.9999 70.667H15.3333C12.0199 70.667 9.33325 67.9803 9.33325 64.667Z" stroke="white" stroke-width="2" stroke-miterlimit="10"/>
<path d="M56 58.667V70.667" stroke="white" stroke-width="2" stroke-miterlimit="10"/>
<path d="M17.3333 58.667V66.667" stroke="white" stroke-width="2" stroke-miterlimit="10"/>
<path d="M37.0054 10.667H76V17.3337" stroke="white" stroke-width="2" stroke-miterlimit="10"/>
<path d="M25.3333 58.6676V35.9463" stroke="white" stroke-width="2" stroke-miterlimit="10"/>
<path d="M75.9999 36.001V76.001H25.3333V70.6676" stroke="white" stroke-width="2" stroke-miterlimit="10"/>
<path d="M76 20.001V22.6676" stroke="white" stroke-width="2" stroke-miterlimit="10"/>
<path d="M76 25.334V28.0007" stroke="white" stroke-width="2" stroke-miterlimit="10"/>
<path d="M76 30.667V33.3337" stroke="white" stroke-width="2" stroke-miterlimit="10"/>
<path d="M30.1347 26.1353L24 20.0007V9.33398" stroke="white" stroke-width="2" stroke-miterlimit="10"/>
<path d="M7.66675 34.9997V34.333H8.33341V34.9997H7.66675Z" fill="white" stroke="white" stroke-width="2"/>
<path d="M2.3335 20.3337V19.667H3.00016V20.3337H2.3335Z" fill="white" stroke="white" stroke-width="2"/>
<path d="M3.66675 28.3337V27.667H4.33341V28.3337H3.66675Z" fill="white" stroke="white" stroke-width="2"/>
<path d="M3.66675 12.3337V11.667H4.33341V12.3337H3.66675Z" fill="white" stroke="white" stroke-width="2"/>
<path d="M7.66675 5.66667V5H8.33341V5.66667H7.66675Z" fill="white" stroke="white" stroke-width="2"/>
<path d="M41.3335 5.33301H57.3335" stroke="white" stroke-width="2" stroke-miterlimit="10"/>
<path d="M60 5.33301H64" stroke="white" stroke-width="2" stroke-miterlimit="10"/>
<path d="M60 28.0003V28.667C60 30.5083 61.492 32.0003 63.3333 32.0003H67.3333C69.1747 32.0003 70.6667 30.5083 70.6667 28.667C70.6667 26.8257 69.1747 25.3337 67.3333 25.3337H63.3333C61.492 25.3337 60 23.8417 60 22.0003C60 20.159 61.492 18.667 63.3333 18.667H67.3333C69.1747 18.667 70.6667 20.159 70.6667 22.0003V22.667" stroke="white" stroke-width="2" stroke-miterlimit="10"/>
<path d="M65.3335 32V36" stroke="white" stroke-width="2" stroke-miterlimit="10"/>
<path d="M65.3335 18.667V14.667" stroke="white" stroke-width="2" stroke-miterlimit="10"/>
<path d="M40 34.667H53.3333" stroke="white" stroke-width="2" stroke-miterlimit="10"/>
<path d="M40 40H53.3333" stroke="white" stroke-width="2" stroke-miterlimit="10"/>
<path d="M33.3335 48H57.3335" stroke="white" stroke-width="2" stroke-miterlimit="10"/>
<path d="M61.8655 47.1989L65.3335 50.6669L71.4681 44.5322" stroke="white" stroke-width="2" stroke-miterlimit="10"/>
<path d="M24 36C32.8366 36 40 28.8366 40 20C40 11.1634 32.8366 4 24 4C15.1634 4 8 11.1634 8 20C8 28.8366 15.1634 36 24 36Z" stroke="white" stroke-width="2" stroke-miterlimit="10"/>
</svg>
