<svg width="66" height="78" viewBox="0 0 66 78" fill="none" xmlns="http://www.w3.org/2000/svg">
<path d="M1.59619 18.8023C2.10152 18.0183 2.63352 17.257 3.19486 16.5156" stroke="#154672" stroke-width="2" stroke-miterlimit="10"/>
<path d="M5.771 13.4593C12.6697 6.10602 22.3857 1.66602 33.0003 1.66602" stroke="#154672" stroke-width="2" stroke-miterlimit="10"/>
<path d="M64.4043 59.1963C63.899 59.9803 63.3657 60.7416 62.8057 61.483" stroke="#154672" stroke-width="2" stroke-miterlimit="10"/>
<path d="M60.2296 64.5391C53.3309 71.8924 43.6149 76.3324 33.0002 76.3324" stroke="#154672" stroke-width="2" stroke-miterlimit="10"/>
<path d="M41.0002 48.333H25.0002C23.5282 48.333 22.3335 47.1383 22.3335 45.6663V34.9997C22.3335 33.5277 23.5282 32.333 25.0002 32.333H41.0002C42.4722 32.333 43.6668 33.5277 43.6668 34.9997V45.6663C43.6668 47.1383 42.4722 48.333 41.0002 48.333Z" stroke="#154672" stroke-width="2" stroke-miterlimit="10"/>
<path d="M29.0002 32.3324V28.3324C29.0002 27.595 29.5962 26.999 30.3336 26.999H35.6669C36.4042 26.999 37.0002 27.595 37.0002 28.3324V32.3324" stroke="#154672" stroke-width="2" stroke-miterlimit="10"/>
<path d="M42.5402 32.8262L37.8002 39.2502C37.2975 39.9302 36.5002 40.3328 35.6535 40.3328H30.3469C29.5002 40.3328 28.7042 39.9302 28.2015 39.2488L23.4602 32.8262" stroke="#154672" stroke-width="2" stroke-miterlimit="10"/>
<path d="M18.9124 26.7517C19.487 26.093 20.1057 25.4757 20.7644 24.9023" stroke="#154672" stroke-width="2" stroke-miterlimit="10"/>
<path d="M22.5988 23.497C25.5708 21.4983 29.1495 20.333 33.0002 20.333C43.3095 20.333 51.6668 28.6903 51.6668 38.9997C51.6668 49.309 43.3095 57.6663 33.0002 57.6663C22.6908 57.6663 14.3335 49.309 14.3335 38.9997C14.3335 35.157 15.4948 31.5863 17.4842 28.6183" stroke="#154672" stroke-width="2" stroke-miterlimit="10"/>
<path d="M46.3335 17.666H56.8522" stroke="#154672" stroke-width="2" stroke-miterlimit="10"/>
<path d="M54.3335 52.333V62.8517" stroke="#154672" stroke-width="2" stroke-miterlimit="10"/>
<path d="M19.6669 60.333H9.14819" stroke="#154672" stroke-width="2" stroke-miterlimit="10"/>
<path d="M11.667 25.6661V15.1475" stroke="#154672" stroke-width="2" stroke-miterlimit="10"/>
<path d="M33.0002 70.999C50.6734 70.999 65.0002 56.6721 65.0002 38.999C65.0002 21.3259 50.6734 6.99902 33.0002 6.99902C15.3271 6.99902 1.00024 21.3259 1.00024 38.999C1.00024 56.6721 15.3271 70.999 33.0002 70.999Z" stroke="#154672" stroke-width="2" stroke-miterlimit="10"/>
<path d="M33.0002 44.333V40.333" stroke="#154672" stroke-width="2" stroke-miterlimit="10"/>
<path d="M26.875 14.4584L34.307 7.02637" stroke="#154672" stroke-width="2" stroke-miterlimit="10"/>
<path d="M39.1256 63.541L31.6936 70.973" stroke="#154672" stroke-width="2" stroke-miterlimit="10"/>
<path d="M57.5498 32.8818L64.9738 40.3058" stroke="#154672" stroke-width="2" stroke-miterlimit="10"/>
<path d="M8.45886 45.1244L1.02686 37.6924" stroke="#154672" stroke-width="2" stroke-miterlimit="10"/>
</svg>
