<svg width="50" height="50" viewBox="0 0 50 50" fill="none" xmlns="http://www.w3.org/2000/svg">
<path d="M32.5 12.5H46.6667C47.1267 12.5 47.5 12.8733 47.5 13.3333V43.3333C47.5 43.7933 47.1267 44.1667 46.6667 44.1667H3.33333C2.87333 44.1667 2.5 43.7933 2.5 43.3333V13.3333C2.5 12.8733 2.87333 12.5 3.33333 12.5H17.5" stroke="white" stroke-width="2" stroke-miterlimit="10"/>
<path d="M24.1668 23.3333V40.8333H5.8335V20" stroke="white" stroke-width="2" stroke-miterlimit="10"/>
<path d="M8.3335 20.833H25.0002" stroke="white" stroke-width="2" stroke-miterlimit="10"/>
<path d="M9.1665 40.833V38.333C9.1665 36.9522 10.2857 35.833 11.6665 35.833H18.3332C19.714 35.833 20.8332 36.9522 20.8332 38.333V40.833" stroke="white" stroke-width="2" stroke-miterlimit="10"/>
<path d="M14.9998 32.4994C16.8408 32.4994 18.3332 30.6339 18.3332 28.3327C18.3332 26.0315 16.8408 24.166 14.9998 24.166C13.1589 24.166 11.6665 26.0315 11.6665 28.3327C11.6665 30.6339 13.1589 32.4994 14.9998 32.4994Z" stroke="white" stroke-width="2" stroke-miterlimit="10"/>
<path d="M45.0002 22.5H43.3335" stroke="white" stroke-width="2" stroke-miterlimit="10"/>
<path d="M41.6668 22.5H28.3335" stroke="white" stroke-width="2" stroke-miterlimit="10"/>
<path d="M28.3335 26.666H41.6668" stroke="white" stroke-width="2" stroke-miterlimit="10"/>
<mask id="path-9-inside-1_823_10495" fill="white">
<path d="M30.0002 40H28.3335V41.6667H30.0002V40Z"/>
</mask>
<path d="M30.0002 40H28.3335V41.6667H30.0002V40Z" fill="black"/>
<path d="M30.0002 40H32.0002V38H30.0002V40ZM28.3335 40V38H26.3335V40H28.3335ZM28.3335 41.6667H26.3335V43.6667H28.3335V41.6667ZM30.0002 41.6667V43.6667H32.0002V41.6667H30.0002ZM30.0002 38H28.3335V42H30.0002V38ZM26.3335 40V41.6667H30.3335V40H26.3335ZM28.3335 43.6667H30.0002V39.6667H28.3335V43.6667ZM32.0002 41.6667V40H28.0002V41.6667H32.0002Z" fill="white" mask="url(#path-9-inside-1_823_10495)"/>
<mask id="path-11-inside-2_823_10495" fill="white">
<path d="M33.3332 40H31.6665V41.6667H33.3332V40Z"/>
</mask>
<path d="M33.3332 40H31.6665V41.6667H33.3332V40Z" fill="black"/>
<path d="M33.3332 40H35.3332V38H33.3332V40ZM31.6665 40V38H29.6665V40H31.6665ZM31.6665 41.6667H29.6665V43.6667H31.6665V41.6667ZM33.3332 41.6667V43.6667H35.3332V41.6667H33.3332ZM33.3332 38H31.6665V42H33.3332V38ZM29.6665 40V41.6667H33.6665V40H29.6665ZM31.6665 43.6667H33.3332V39.6667H31.6665V43.6667ZM35.3332 41.6667V40H31.3332V41.6667H35.3332Z" fill="white" mask="url(#path-11-inside-2_823_10495)"/>
<mask id="path-13-inside-3_823_10495" fill="white">
<path d="M36.6667 40H35V41.6667H36.6667V40Z"/>
</mask>
<path d="M36.6667 40H35V41.6667H36.6667V40Z" fill="black"/>
<path d="M36.6667 40H38.6667V38H36.6667V40ZM35 40V38H33V40H35ZM35 41.6667H33V43.6667H35V41.6667ZM36.6667 41.6667V43.6667H38.6667V41.6667H36.6667ZM36.6667 38H35V42H36.6667V38ZM33 40V41.6667H37V40H33ZM35 43.6667H36.6667V39.6667H35V43.6667ZM38.6667 41.6667V40H34.6667V41.6667H38.6667Z" fill="white" mask="url(#path-13-inside-3_823_10495)"/>
<mask id="path-15-inside-4_823_10495" fill="white">
<path d="M40.0002 40H38.3335V41.6667H40.0002V40Z"/>
</mask>
<path d="M40.0002 40H38.3335V41.6667H40.0002V40Z" fill="black"/>
<path d="M40.0002 40H42.0002V38H40.0002V40ZM38.3335 40V38H36.3335V40H38.3335ZM38.3335 41.6667H36.3335V43.6667H38.3335V41.6667ZM40.0002 41.6667V43.6667H42.0002V41.6667H40.0002ZM40.0002 38H38.3335V42H40.0002V38ZM36.3335 40V41.6667H40.3335V40H36.3335ZM38.3335 43.6667H40.0002V39.6667H38.3335V43.6667ZM42.0002 41.6667V40H38.0002V41.6667H42.0002Z" fill="white" mask="url(#path-15-inside-4_823_10495)"/>
<mask id="path-17-inside-5_823_10495" fill="white">
<path d="M43.3332 40H41.6665V41.6667H43.3332V40Z"/>
</mask>
<path d="M43.3332 40H41.6665V41.6667H43.3332V40Z" fill="black"/>
<path d="M43.3332 40H45.3332V38H43.3332V40ZM41.6665 40V38H39.6665V40H41.6665ZM41.6665 41.6667H39.6665V43.6667H41.6665V41.6667ZM43.3332 41.6667V43.6667H45.3332V41.6667H43.3332ZM43.3332 38H41.6665V42H43.3332V38ZM39.6665 40V41.6667H43.6665V40H39.6665ZM41.6665 43.6667H43.3332V39.6667H41.6665V43.6667ZM45.3332 41.6667V40H41.3332V41.6667H45.3332Z" fill="white" mask="url(#path-17-inside-5_823_10495)"/>
<path d="M26.6667 16.6667H23.3333C21.4925 16.6667 20 15.1742 20 13.3333V5.83333C20 5.37333 20.3733 5 20.8333 5H29.1667C29.6267 5 30 5.37333 30 5.83333V13.3333C30 15.1742 28.5075 16.6667 26.6667 16.6667Z" stroke="white" stroke-width="2" stroke-miterlimit="10"/>
<path d="M22.5 8.33398H27.5" stroke="white" stroke-width="2" stroke-miterlimit="10"/>
</svg>
