<svg width="80" height="80" viewBox="0 0 80 80" fill="none" xmlns="http://www.w3.org/2000/svg">
<path d="M52.0002 23.9987C55.6821 23.9987 58.6668 20.7155 58.6668 16.6654C58.6668 12.6153 55.6821 9.33203 52.0002 9.33203C48.3183 9.33203 45.3335 12.6153 45.3335 16.6654C45.3335 20.7155 48.3183 23.9987 52.0002 23.9987Z" stroke="#154672" stroke-width="2" stroke-miterlimit="10"/>
<path d="M52 78.6647V51.998" stroke="#154672" stroke-width="2" stroke-miterlimit="10"/>
<path d="M58.6668 39.998V73.3314L60.1375 73.822C61.6482 74.3247 62.6668 75.7394 62.6668 77.3314C62.6668 78.0674 62.0695 78.6647 61.3335 78.6647H42.6668C41.9308 78.6647 41.3335 78.0674 41.3335 77.3314C41.3335 75.7394 42.3522 74.3247 43.8628 73.822L45.3335 73.3314V50.6647" stroke="#154672" stroke-width="2" stroke-miterlimit="10"/>
<path d="M45.3335 6.66504H2.66683C1.93083 6.66504 1.3335 7.26237 1.3335 7.99837V46.665" stroke="#154672" stroke-width="2" stroke-miterlimit="10"/>
<path d="M0 50.665H2.66667" stroke="#154672" stroke-width="2" stroke-miterlimit="10"/>
<path d="M5.3335 50.665H8.00016" stroke="#154672" stroke-width="2" stroke-miterlimit="10"/>
<path d="M10.6665 50.665H13.3332" stroke="#154672" stroke-width="2" stroke-miterlimit="10"/>
<path d="M16 50.665H41.3333" stroke="#154672" stroke-width="2" stroke-miterlimit="10"/>
<path d="M2.6665 55.998H21.3332" stroke="#154672" stroke-width="2" stroke-miterlimit="10"/>
<path d="M24 55.998H28" stroke="#154672" stroke-width="2" stroke-miterlimit="10"/>
<path d="M10.6665 39.998C12.8756 39.998 14.6665 38.2072 14.6665 35.998C14.6665 33.7889 12.8756 31.998 10.6665 31.998C8.45736 31.998 6.6665 33.7889 6.6665 35.998C6.6665 38.2072 8.45736 39.998 10.6665 39.998Z" stroke="#154672" stroke-width="2" stroke-miterlimit="10"/>
<path d="M18.6665 23.998C20.8756 23.998 22.6665 22.2072 22.6665 19.998C22.6665 17.7889 20.8756 15.998 18.6665 15.998C16.4574 15.998 14.6665 17.7889 14.6665 19.998C14.6665 22.2072 16.4574 23.998 18.6665 23.998Z" stroke="#154672" stroke-width="2" stroke-miterlimit="10"/>
<path d="M36 23.998C38.2091 23.998 40 22.2072 40 19.998C40 17.7889 38.2091 15.998 36 15.998C33.7909 15.998 32 17.7889 32 19.998C32 22.2072 33.7909 23.998 36 23.998Z" stroke="#154672" stroke-width="2" stroke-miterlimit="10"/>
<path d="M12.4561 32.4215L16.8774 23.5762" stroke="#154672" stroke-width="2" stroke-miterlimit="10"/>
<path d="M22.6665 19.998H31.9998" stroke="#154672" stroke-width="2" stroke-miterlimit="10"/>
<path d="M6.6665 11.998V15.998" stroke="#154672" stroke-width="2" stroke-miterlimit="10"/>
<path d="M6.6665 18.665V27.9984" stroke="#154672" stroke-width="2" stroke-miterlimit="10"/>
<path d="M77.3332 13.3317H72.8052L67.3345 18.5544C67.0838 18.7944 66.6665 18.6157 66.6665 18.2677V13.3317H63.9998C63.2638 13.3317 62.6665 12.7344 62.6665 11.9984V3.99837C62.6665 3.26237 63.2638 2.66504 63.9998 2.66504H77.3332C78.0692 2.66504 78.6665 3.26237 78.6665 3.99837V11.9984C78.6665 12.7344 78.0692 13.3317 77.3332 13.3317Z" stroke="#154672" stroke-width="2" stroke-miterlimit="10"/>
<path d="M45.3333 51.9987V34.6654H30.6667C29.1933 34.6654 28 33.472 28 31.9987C28 30.5254 29.1933 29.332 30.6667 29.332H56C60.4187 29.332 64 32.9134 64 37.332V52.6654C64 54.5067 62.508 55.9987 60.6667 55.9987H58.6667" stroke="#154672" stroke-width="2" stroke-miterlimit="10"/>
</svg>
