<svg width="80" height="80" viewBox="0 0 80 80" fill="none" xmlns="http://www.w3.org/2000/svg">
<path d="M36.9108 34.0918C34.7842 35.2065 33.3335 37.4345 33.3335 40.0011C33.3335 43.6825 36.3188 46.6678 40.0002 46.6678C42.5788 46.6678 44.8162 45.2025 45.9255 43.0598" stroke="#154672" stroke-width="2" stroke-miterlimit="10"/>
<path d="M47.6665 48.3346V47.668H48.3332V48.3346H47.6665Z" fill="#252525" stroke="#154672" stroke-width="2"/>
<path d="M51.6665 52.3346V51.668H52.3332V52.3346H51.6665Z" fill="#252525" stroke="#154672" stroke-width="2"/>
<path d="M17.3335 34.6693L13.3335 30.6693L30.6668 13.3359L38.6668 21.3359" stroke="#154672" stroke-width="2" stroke-miterlimit="10"/>
<path d="M57.3321 40.001L66.6668 49.3356L49.3335 66.669L24.6055 41.941" stroke="#154672" stroke-width="2" stroke-miterlimit="10"/>
<path d="M20.5215 72.8143L26.1882 67.1476C27.3668 65.9689 28.8855 65.1876 30.5295 64.9129L33.4722 64.4223C35.1175 64.1476 36.6348 63.3676 37.8135 62.1876L41.3335 58.6689" stroke="#154672" stroke-width="2" stroke-miterlimit="10"/>
<path d="M23.3547 51.4943C24.124 50.5969 25.3333 48.5236 25.3333 45.3356C25.3333 44.2823 24.864 42.3649 24.276 41.1649C24.0867 40.7743 24 40.3463 24 39.9129C24 39.1169 24.316 38.3529 24.88 37.7889L29.5627 33.1063C30.2693 32.3996 30.6667 31.4396 30.6667 30.4396C30.6667 28.3569 28.9787 26.6689 26.896 26.6689C25.896 26.6689 24.936 27.0663 24.2293 27.7729L16.7427 35.2596C14.56 37.4423 13.3333 40.4036 13.3333 43.4903V46.3449C13.3333 47.4063 12.912 48.4236 12.1613 49.1729L4.604 56.7303" stroke="#154672" stroke-width="2" stroke-miterlimit="10"/>
<path d="M60 36.0023C60 36.8556 59.6613 37.6743 59.0573 38.2769L55.6093 41.7249C55.0053 42.3289 54.1867 42.6689 53.3333 42.6689C52.48 42.6689 51.6613 42.3303 51.0587 41.7263L36.9427 27.6116C36.3387 27.0076 36 26.1889 36 25.3356C36 24.4823 36.34 23.6623 36.944 23.0596L40.3973 19.6103C41 19.0076 41.8173 18.6689 42.672 18.6689C43.5253 18.6689 44.344 19.0076 44.948 19.6116L59.0587 33.7263C59.6613 34.3289 60 35.1489 60 36.0023V36.0023Z" stroke="#154672" stroke-width="2" stroke-miterlimit="10"/>
<path d="M63.188 16.814L68.792 11.21" stroke="#154672" stroke-width="2" stroke-miterlimit="10"/>
<path d="M63.188 63.1904L68.7707 68.7731" stroke="#154672" stroke-width="2" stroke-miterlimit="10"/>
<path d="M48.915 9.29561L50.959 1.66895" stroke="#154672" stroke-width="2" stroke-miterlimit="10"/>
<path d="M9.10421 32.3985L1.47754 30.3545" stroke="#154672" stroke-width="2" stroke-miterlimit="10"/>
<path d="M31.0855 9.29561L29.0415 1.66895" stroke="#154672" stroke-width="2" stroke-miterlimit="10"/>
<path d="M70.896 32.3985L78.5227 30.3545" stroke="#154672" stroke-width="2" stroke-miterlimit="10"/>
<path d="M16.812 16.814L11.208 11.21" stroke="#154672" stroke-width="2" stroke-miterlimit="10"/>
<path d="M48.915 70.709L50.959 78.3357" stroke="#154672" stroke-width="2" stroke-miterlimit="10"/>
<path d="M70.896 47.6064L78.5227 49.6504" stroke="#154672" stroke-width="2" stroke-miterlimit="10"/>
</svg>
