<svg width="79" height="71" viewBox="0 0 79 71" fill="none" xmlns="http://www.w3.org/2000/svg">
<path d="M32.3337 4.33398H36.3337" stroke="white" stroke-width="2" stroke-miterlimit="10"/>
<path d="M40.3337 4.33398H44.3337" stroke="white" stroke-width="2" stroke-miterlimit="10"/>
<path d="M48.3337 4.33398H52.3337" stroke="white" stroke-width="2" stroke-miterlimit="10"/>
<path d="M16.3336 33.667H8.16691C7.52291 33.667 7.00024 34.2643 7.00024 35.0003V56.3337C7.00024 60.015 9.61224 63.0003 12.8336 63.0003H16.3336" stroke="white" stroke-width="2" stroke-miterlimit="10"/>
<path d="M7.00033 40.334H2.88833C2.21366 40.334 1.66699 40.9313 1.66699 41.6673V51.0007C1.66699 53.21 3.30699 55.0007 5.33366 55.0007H7.00033" stroke="white" stroke-width="2" stroke-miterlimit="10"/>
<path d="M47.0004 69.667H44.3337" stroke="white" stroke-width="2" stroke-miterlimit="10"/>
<path d="M41.6671 69.6673H19.0004C17.5284 69.6673 16.3337 68.4726 16.3337 67.0006V7.00065C16.3337 5.52865 17.5284 4.33398 19.0004 4.33398H28.3337" stroke="white" stroke-width="2" stroke-miterlimit="10"/>
<path d="M28.3337 8.33398V0.333984" stroke="white" stroke-width="2" stroke-miterlimit="10"/>
<path d="M36.3337 8.33398V0.333984" stroke="white" stroke-width="2" stroke-miterlimit="10"/>
<path d="M44.3337 8.33398V0.333984" stroke="white" stroke-width="2" stroke-miterlimit="10"/>
<path d="M52.3337 8.33398V0.333984" stroke="white" stroke-width="2" stroke-miterlimit="10"/>
<path d="M56.3337 4.33398H59.0004C60.4724 4.33398 61.6671 5.52865 61.6671 7.00065V23.0007" stroke="white" stroke-width="2" stroke-miterlimit="10"/>
<path d="M32.7791 29.5233L40.7791 17.5233C41.2577 16.806 42.0737 16.334 43.0004 16.334C44.4724 16.334 45.6671 17.5287 45.6671 19.0007V20.334" stroke="white" stroke-width="2" stroke-miterlimit="10"/>
<path d="M65.4182 28.566L72.7795 17.5233C73.2582 16.806 74.0742 16.334 75.0009 16.334C76.4729 16.334 77.6675 17.5287 77.6675 19.0007V20.334" stroke="white" stroke-width="2" stroke-miterlimit="10"/>
<path d="M45.6671 37.6673H36.3337C34.1244 37.6673 32.3337 35.8767 32.3337 33.6673V31.0007C32.3337 29.5287 33.5284 28.334 35.0004 28.334H49.6671V33.6673C49.6671 35.8767 47.8751 37.6673 45.6671 37.6673Z" stroke="white" stroke-width="2" stroke-miterlimit="10"/>
<path d="M53.667 37.6673H63.0003C65.2083 37.6673 67.0003 35.8767 67.0003 33.6673V31.0007C67.0003 29.5287 65.8057 28.334 64.3337 28.334H49.667V33.6673C49.667 35.8767 51.4577 37.6673 53.667 37.6673Z" stroke="white" stroke-width="2" stroke-miterlimit="10"/>
<path d="M73.0003 44.334C74.8417 44.334 76.3337 45.826 76.3337 47.6673C76.3337 49.5086 74.8417 51.0006 73.0003 51.0006H44.3337L37.667 47.6673L44.3337 44.334H73.0003Z" stroke="white" stroke-width="2" stroke-miterlimit="10"/>
<path d="M23.0002 4.33398V60.334C23.0002 61.806 24.1949 63.0006 25.6669 63.0006H59.0002C60.4722 63.0006 61.6669 61.806 61.6669 60.334V56.3353" stroke="white" stroke-width="2" stroke-miterlimit="10"/>
</svg>
