<svg width="50" height="50" viewBox="0 0 50 50" fill="none" xmlns="http://www.w3.org/2000/svg">
<g clip-path="url(#clip0_233_3811)">
<path d="M27.0068 46.6673L23.6318 35.1815C23.4335 34.509 23.3335 33.8115 23.3335 33.1098C23.3335 30.2056 25.0435 27.574 27.6977 26.394C29.7652 25.4756 32.0027 25.0006 34.2652 25.0006H35.8335V13.334C35.8335 11.9532 36.9527 10.834 38.3335 10.834C39.7143 10.834 40.8335 11.9532 40.8335 13.334V32.5006C41.2285 32.5006 41.6027 32.2906 41.8018 31.9498L43.6727 28.7423C44.106 27.9998 44.9118 27.5006 45.8335 27.5006C47.2143 27.5006 48.3335 28.6198 48.3335 30.0006C48.3335 30.4598 48.2102 30.889 47.9943 31.259C39.3885 46.6673 39.3885 46.6673 39.3885 46.6673" stroke="white" stroke-width="2" stroke-miterlimit="10"/>
<path d="M16.6668 19.1673C17.1268 19.1673 17.5002 19.5406 17.5002 20.0006V25.834C17.5002 26.294 17.8735 26.6673 18.3335 26.6673C18.6293 26.6673 18.8893 26.5131 19.0368 26.2806L24.8702 17.114C24.9527 16.9848 25.0002 16.8315 25.0002 16.6673C25.0002 16.2073 24.6268 15.834 24.1668 15.834H21.6668C21.2068 15.834 20.8335 15.4607 20.8335 15.0007V9.16732C20.8335 8.70732 20.4602 8.33398 20.0002 8.33398C19.7043 8.33398 19.4443 8.48815 19.2968 8.72065L13.4635 17.8873C13.381 18.0165 13.3335 18.1698 13.3335 18.334C13.3335 18.794 13.7068 19.1673 14.1668 19.1673H16.6668Z" stroke="white" stroke-width="2" stroke-miterlimit="10"/>
<path d="M14.167 32.501H20.8337" stroke="white" stroke-width="2" stroke-miterlimit="10"/>
<path d="M9.62283 9.42773C7.77866 11.6061 6.66699 14.4236 6.66699 17.5011C6.66699 20.0677 7.44033 22.4544 8.76783 24.4394L14.167 32.5011V35.0011C14.167 35.9219 14.9128 36.6677 15.8337 36.6677H20.8337" stroke="white" stroke-width="2" stroke-miterlimit="10"/>
<path d="M27.5 4.16764V0.000976562" stroke="white" stroke-width="2" stroke-miterlimit="10"/>
<path d="M31.667 7.50098H35.8337" stroke="white" stroke-width="2" stroke-miterlimit="10"/>
<path d="M30.3325 5.50167L33.8342 2" stroke="white" stroke-width="2" stroke-miterlimit="10"/>
<path d="M9.16699 30.834V35.0007" stroke="white" stroke-width="2" stroke-miterlimit="10"/>
<path d="M5.00016 26.668H0.833496" stroke="white" stroke-width="2" stroke-miterlimit="10"/>
<path d="M6.33419 29.5L2.83252 33.0017" stroke="white" stroke-width="2" stroke-miterlimit="10"/>
<path d="M24.167 50.0013V48.3346C24.167 47.4138 24.9128 46.668 25.8337 46.668H40.8337C41.7545 46.668 42.5003 47.4138 42.5003 48.3346V50.0013" stroke="white" stroke-width="2" stroke-miterlimit="10"/>
<path d="M30.6641 22.4143C31.3091 20.9068 31.6666 19.2451 31.6666 17.501C31.6666 10.5976 26.07 5.00098 19.1666 5.00098C16.5233 5.00098 14.0591 5.67764 12.0366 7.08181" stroke="white" stroke-width="2" stroke-miterlimit="10"/>
</g>
<defs>
<clipPath id="clip0_233_3811">
<rect width="50" height="50" fill="white"/>
</clipPath>
</defs>
</svg>
