<svg width="51" height="51" viewBox="0 0 51 51" fill="none" xmlns="http://www.w3.org/2000/svg">
<path d="M33.2551 18.9551L16.6451 32.1551C16.3151 32.4301 16.2051 32.9801 16.5351 33.3101C16.7001 33.5301 16.9201 33.6401 17.1951 33.6401C17.3601 33.6401 17.5801 33.5851 17.6901 33.4751L34.3001 20.2751C34.6301 20.0001 34.7401 19.4501 34.4101 19.1201C34.1351 18.7351 33.6401 18.6801 33.2551 18.9551Z" fill="url(#paint0_linear_26_526)"/>
<path d="M21.1 24.8394C21.32 24.8394 21.54 24.8394 21.76 24.7844C24.015 24.4544 25.61 22.3094 25.225 19.9994C25.06 18.8994 24.455 17.9094 23.575 17.2494C22.695 16.5894 21.595 16.3144 20.495 16.4794C19.395 16.6444 18.405 17.2494 17.745 18.1294C17.085 19.0094 16.81 20.1094 16.975 21.2094C17.305 23.3544 19.12 24.8394 21.1 24.8394ZM20.715 18.1844C20.825 18.1844 20.99 18.1294 21.1 18.1294C22.31 18.1294 23.41 19.0094 23.575 20.2744C23.795 21.6494 22.86 22.9144 21.485 23.1344C20.11 23.3544 18.845 22.4194 18.625 21.0444C18.405 19.6694 19.395 18.4044 20.715 18.1844Z" fill="url(#paint1_linear_26_526)"/>
<path d="M29.9001 27.5898C27.5901 27.5898 25.7201 29.4598 25.7201 31.7698C25.7201 34.0798 27.5901 35.9498 29.9001 35.9498C32.2101 35.9498 34.0801 34.0798 34.0801 31.7698C34.0251 29.4598 32.1551 27.5898 29.9001 27.5898ZM29.9001 34.2448C28.5251 34.2448 27.3701 33.0898 27.3701 31.7148C27.3701 30.3398 28.5251 29.1848 29.9001 29.1848C31.2751 29.1848 32.4301 30.3398 32.4301 31.7148C32.3751 33.1448 31.2751 34.2448 29.9001 34.2448Z" fill="url(#paint2_linear_26_526)"/>
<path d="M50.47 25.6649C50.47 25.6099 50.525 25.4999 50.525 25.4449C50.525 23.0799 48.05 21.8699 45.905 20.8249C44.365 20.0549 42.715 19.2299 42.275 18.2399C41.835 17.1949 42.44 15.4899 43.045 13.8949C43.87 11.6399 44.695 9.32992 43.155 7.78992C41.615 6.24992 39.415 6.79992 37.215 7.29492C35.675 7.62492 34.08 8.00992 33.035 7.56992C31.99 7.12992 31.11 5.75492 30.285 4.43492C29.075 2.56492 27.755 0.419922 25.445 0.419922C23.135 0.419922 21.815 2.56492 20.66 4.48992C19.835 5.86492 19.01 7.23992 17.965 7.67992C16.92 8.11992 15.27 7.73492 13.73 7.34992C11.53 6.79992 9.27504 6.24992 7.79004 7.73492C6.25004 9.27492 7.02004 11.5849 7.73504 13.8399C8.28504 15.4899 8.78004 17.1399 8.34004 18.2399C7.90004 19.2849 6.36004 20.0549 4.87504 20.8249C2.78504 21.9249 0.420044 23.1349 0.420044 25.4449C0.420044 25.4999 0.420044 25.6099 0.475044 25.6649C0.475044 25.7199 0.420044 25.8299 0.420044 25.8849C0.420044 28.1949 2.78504 29.4599 4.87504 30.5049C6.36004 31.2749 7.90004 32.0449 8.34004 33.0899C8.78004 34.1349 8.23004 35.8399 7.73504 37.4899C7.02004 39.7449 6.25004 42.0549 7.79004 43.5949C9.33004 45.1349 11.585 44.5299 13.73 43.9799C15.27 43.5949 16.92 43.2099 17.965 43.6499C19.01 44.0899 19.835 45.4649 20.66 46.8399C21.815 48.7649 23.135 50.9099 25.445 50.9099C27.755 50.9099 29.13 48.7649 30.285 46.8949C31.11 45.5749 31.99 44.1999 33.035 43.7599C34.135 43.3199 35.675 43.6499 37.215 44.0349C39.36 44.5299 41.615 45.0799 43.155 43.5399C44.695 41.9999 43.87 39.6899 43.045 37.4349C42.44 35.7849 41.835 34.1349 42.275 33.0899C42.715 32.0449 44.31 31.2749 45.905 30.5049C48.05 29.4049 50.525 28.1949 50.525 25.8849C50.525 25.7749 50.47 25.7199 50.47 25.6649ZM45.135 29.0199C43.32 29.9549 41.395 30.8899 40.735 32.4849C40.02 34.1349 40.79 36.1149 41.45 38.0399C42.11 39.8549 42.77 41.6149 41.945 42.3849C41.065 43.2649 39.36 42.8799 37.545 42.4399C35.73 41.9999 33.915 41.6149 32.32 42.2749C30.78 42.9349 29.79 44.4749 28.855 46.0149C27.81 47.6649 26.82 49.2599 25.39 49.2599C24.015 49.2599 23.025 47.6649 21.98 45.9599C21.045 44.3649 20.055 42.7699 18.515 42.1099C16.92 41.4499 15.05 41.8899 13.235 42.3849C11.42 42.8249 9.71504 43.2649 8.83504 42.4399C8.01004 41.6149 8.56004 39.8549 9.16504 38.0399C9.77004 36.1149 10.43 34.1349 9.71504 32.5399C9.05504 30.9449 7.24004 30.0099 5.48004 29.1299C3.66504 28.1949 1.96004 27.3149 1.96004 25.9399C1.96004 25.8849 1.96004 25.7749 1.90504 25.7199C1.90504 25.6649 1.96004 25.5549 1.96004 25.4999C1.96004 24.1799 3.66504 23.2999 5.48004 22.3099C7.24004 21.4299 9.05504 20.4949 9.71504 18.8999C10.375 17.2499 9.77004 15.2699 9.16504 13.3999C8.56004 11.5299 8.01004 9.76992 8.83504 8.99992C9.71504 8.11992 11.42 8.55992 13.235 9.05492C15.05 9.49492 16.92 9.98992 18.515 9.32992C20.055 8.66992 21.045 7.07492 21.98 5.47992C23.025 3.77492 23.96 2.17992 25.39 2.17992C26.82 2.17992 27.81 3.77492 28.855 5.42492C29.845 6.96492 30.835 8.50492 32.32 9.16492C33.915 9.82492 35.73 9.38492 37.545 8.99992C39.36 8.55992 41.065 8.17492 41.945 9.05492C42.77 9.82492 42.11 11.5849 41.45 13.3999C40.735 15.3249 40.02 17.3049 40.735 18.9549C41.395 20.5499 43.32 21.4849 45.135 22.4199C47.06 23.3549 48.82 24.2899 48.82 25.6099C48.82 25.6649 48.82 25.7749 48.875 25.8299C48.875 25.8849 48.82 25.9949 48.82 26.0499C48.875 27.1499 47.06 28.0849 45.135 29.0199Z" fill="url(#paint3_linear_26_526)"/>
<defs>
<linearGradient id="paint0_linear_26_526" x1="25.4726" y1="18.7832" x2="25.4726" y2="33.6401" gradientUnits="userSpaceOnUse">
<stop stop-color="#EBF2FB"/>
<stop offset="1" stop-color="#FBFDFF"/>
</linearGradient>
<linearGradient id="paint1_linear_26_526" x1="21.1053" y1="16.4326" x2="21.1053" y2="24.8394" gradientUnits="userSpaceOnUse">
<stop stop-color="#EBF2FB"/>
<stop offset="1" stop-color="#FBFDFF"/>
</linearGradient>
<linearGradient id="paint2_linear_26_526" x1="29.9001" y1="27.5898" x2="29.9001" y2="35.9498" gradientUnits="userSpaceOnUse">
<stop stop-color="#EBF2FB"/>
<stop offset="1" stop-color="#FBFDFF"/>
</linearGradient>
<linearGradient id="paint3_linear_26_526" x1="25.4725" y1="0.419922" x2="25.4725" y2="50.9099" gradientUnits="userSpaceOnUse">
<stop stop-color="#EBF2FB"/>
<stop offset="1" stop-color="#FBFDFF"/>
</linearGradient>
</defs>
</svg>
