<svg width="50" height="50" viewBox="0 0 50 50" fill="none" xmlns="http://www.w3.org/2000/svg">
<g clip-path="url(#clip0_233_3826)">
<path d="M11.3848 47.1136L11.8873 44.6644C12.0723 43.7628 12.9531 43.1819 13.8548 43.3661L22.8348 45.2078C23.7364 45.3928 24.3173 46.2736 24.1331 47.1753L23.6306 49.6244" stroke="white" stroke-width="2" stroke-miterlimit="10"/>
<path d="M22.5523 33.5932L24.0523 29.7624C24.1231 29.5765 24.1664 29.3765 24.1664 29.1657C24.1664 28.2449 23.4198 27.499 22.4998 27.499C22.0564 27.499 21.6481 27.6732 21.3506 27.9557" stroke="white" stroke-width="2" stroke-miterlimit="10"/>
<path d="M25.4455 35.1407L26.5514 32.2624C26.623 32.0765 26.6664 31.8765 26.6664 31.6657C26.6664 30.7449 25.9197 29.999 24.9997 29.999C24.5139 29.999 24.0514 30.2082 23.748 30.5407" stroke="white" stroke-width="2" stroke-miterlimit="10"/>
<path d="M21.7339 44.9824C24.5447 43.364 26.6906 40.8265 27.8681 37.8032C28.4997 36.1807 29.0514 34.7624 29.0514 34.7624C29.1231 34.5765 29.1664 34.3765 29.1664 34.1657C29.1664 33.2449 28.4197 32.499 27.4997 32.499C26.9922 32.499 26.5397 32.7265 26.2356 33.0857" stroke="white" stroke-width="2" stroke-miterlimit="10"/>
<path d="M14.1663 43.4304V42.4079C14.1663 41.5329 13.9363 40.6729 13.5005 39.9145L8.52051 31.2354C8.40301 31.0312 8.33301 30.6645 8.33301 30.4154C8.33301 29.2645 9.26551 28.332 10.4163 28.332C11.1555 28.332 11.8163 28.7104 12.1747 29.2979L14.3872 32.9212C14.5413 33.1729 14.8147 33.3304 15.1097 33.332C15.463 33.3337 15.7805 33.1137 15.908 32.7845L20.1147 21.902C20.3547 21.277 20.9563 20.832 21.6663 20.832C22.5863 20.832 23.333 21.5779 23.333 22.4987C23.333 22.7095 23.2897 22.9095 23.218 23.0954L19.6247 32.4495" stroke="white" stroke-width="2" stroke-miterlimit="10"/>
<path d="M19.808 22.7109C18.8972 21.8059 18.333 20.5509 18.333 19.165C18.333 16.4034 20.5713 14.165 23.333 14.165C26.0947 14.165 28.333 16.4034 28.333 19.165C28.333 21.9267 26.0947 24.165 23.333 24.165C23.1622 24.165 22.9922 24.1567 22.8255 24.14" stroke="white" stroke-width="2" stroke-miterlimit="10"/>
<path d="M30.833 8.33203C32.2137 8.33203 33.333 7.21274 33.333 5.83203C33.333 4.45132 32.2137 3.33203 30.833 3.33203C29.4523 3.33203 28.333 4.45132 28.333 5.83203C28.333 7.21274 29.4523 8.33203 30.833 8.33203Z" stroke="white" stroke-width="2" stroke-miterlimit="10"/>
<path d="M5.83301 18.332C7.21372 18.332 8.33301 17.2127 8.33301 15.832C8.33301 14.4513 7.21372 13.332 5.83301 13.332C4.4523 13.332 3.33301 14.4513 3.33301 15.832C3.33301 17.2127 4.4523 18.332 5.83301 18.332Z" stroke="white" stroke-width="2" stroke-miterlimit="10"/>
<path d="M38.333 31.665C39.7137 31.665 40.833 30.5458 40.833 29.165C40.833 27.7843 39.7137 26.665 38.333 26.665C36.9523 26.665 35.833 27.7843 35.833 29.165C35.833 30.5458 36.9523 31.665 38.333 31.665Z" stroke="white" stroke-width="2" stroke-miterlimit="10"/>
<path d="M14.9997 9.16536C17.3009 9.16536 19.1663 7.29988 19.1663 4.9987C19.1663 2.69751 17.3009 0.832031 14.9997 0.832031C12.6985 0.832031 10.833 2.69751 10.833 4.9987C10.833 7.29988 12.6985 9.16536 14.9997 9.16536Z" stroke="white" stroke-width="2" stroke-miterlimit="10"/>
<path d="M44.1662 18.3324C46.4674 18.3324 48.3328 16.4669 48.3328 14.1657C48.3328 11.8645 46.4674 9.99902 44.1662 9.99902C41.865 9.99902 39.9995 11.8645 39.9995 14.1657C39.9995 16.4669 41.865 18.3324 44.1662 18.3324Z" stroke="white" stroke-width="2" stroke-miterlimit="10"/>
<path d="M22.4995 14.2345C22.4995 12.8454 19.322 9.0262 17.4995 8.33203" stroke="white" stroke-width="2" stroke-miterlimit="10"/>
<path d="M36.8745 14.2242C37.597 14.185 39.097 14.165 39.9995 14.165" stroke="white" stroke-width="2" stroke-miterlimit="10"/>
<path d="M33.5854 14.5408C33.9696 14.4849 34.3654 14.4349 34.7713 14.3916" stroke="white" stroke-width="2" stroke-miterlimit="10"/>
<path d="M27.6045 16.5657C28.2995 15.8707 29.5728 15.3807 31.4062 14.9482" stroke="white" stroke-width="2" stroke-miterlimit="10"/>
<path d="M19.0757 4.12953C20.0465 3.59036 21.2107 3.33203 22.4998 3.33203C23.4373 3.33203 24.8607 3.7837 25.6573 4.28786" stroke="white" stroke-width="2" stroke-miterlimit="10"/>
<path d="M19.0238 16.6287C16.1072 15.8645 12.018 15.832 8.33301 15.832" stroke="white" stroke-width="2" stroke-miterlimit="10"/>
<path d="M31.6665 28.332C32.8515 28.332 34.479 28.462 35.8332 29.1654" stroke="white" stroke-width="2" stroke-miterlimit="10"/>
<path d="M28.5312 29.0559C28.6963 29.0009 29.2088 28.8459 29.7871 28.6934" stroke="white" stroke-width="2" stroke-miterlimit="10"/>
<path d="M33.0612 21.6151C32.6979 21.4893 32.3212 21.3768 31.9346 21.2793" stroke="white" stroke-width="2" stroke-miterlimit="10"/>
<path d="M38.333 26.6654C38.333 25.2471 36.298 23.1338 34.5063 22.2246" stroke="white" stroke-width="2" stroke-miterlimit="10"/>
</g>
<defs>
<clipPath id="clip0_233_3826">
<rect width="50" height="50" fill="white"/>
</clipPath>
</defs>
</svg>
