<svg width="741" height="395" viewBox="0 0 741 395" fill="none" xmlns="http://www.w3.org/2000/svg">
<g clip-path="url(#clip0_776_3921)">
<path d="M696.777 360.574C692.379 352.185 674.51 345.442 666.496 343.91C623.803 335.766 579.073 336.906 535.81 337.036C488.702 337.183 443.745 344.725 397.028 348.211C372.725 350.035 347.054 346.761 322.685 345.93C282.582 344.529 242.49 342.9 202.408 341.043C167.843 339.415 131.975 343.047 101.417 362.105C97.9633 364.272 94.4612 366.894 92.8812 370.771C82.9775 395.204 206.399 392.126 222.492 392.549C303.595 394.65 384.763 395.807 465.898 393.543C526.167 391.914 589.075 392.012 648.888 383.509C662.114 381.619 680.13 380.951 691.548 373.165C697.934 368.832 698.797 364.532 696.777 360.574Z" fill="#E7F5FE"/>
<path d="M644.277 27.3652C645.336 27.3652 646.411 27.3652 647.535 27.3652" stroke="#69AEFF" stroke-width="1.62889" stroke-miterlimit="10"/>
<path d="M654.052 27.8877C675.097 30.0215 700.769 38.899 697.771 57.0938C692.982 86.1043 564.072 75.4025 533.253 75.6957C471.355 76.3147 408.773 76.5427 348.064 90.0789C333.29 93.3366 312.229 100.634 313.76 119.399C314.314 125.915 318.207 131.925 323.126 136.372C340.864 152.384 365.559 153.915 388.493 156.733C423.172 160.985 588.163 155.316 642.096 173.022C652.716 176.508 665.992 180.987 666.431 196.169C667.555 234.741 571.744 232.835 543.01 233.633C466.306 235.588 389.52 234.822 312.815 233.307C250.819 232.086 188.644 230.994 126.746 227.004C103.681 225.505 65.9561 225.065 48.3478 207.75C38.5744 197.977 37.2225 180.45 52.7784 171.458C63.7409 165.122 95.9115 167.891 108.291 166.832C145.756 163.575 134.353 140.9 104.056 138.001" stroke="#69AEFF" stroke-width="1.62889" stroke-miterlimit="10" stroke-dasharray="6.53 6.53"/>
<path d="M100.83 137.756C99.7713 137.756 98.6799 137.756 97.5723 137.756" stroke="#69AEFF" stroke-width="1.62889" stroke-miterlimit="10"/>
<path d="M646.476 55.5785L636.588 3.35615C636.453 2.64522 636.132 1.98252 635.659 1.43472C635.186 0.886918 634.577 0.473333 633.894 0.235571C633.21 -0.00219104 632.476 -0.0557441 631.765 0.0802992C631.054 0.216342 630.392 0.537184 629.845 1.01055L589.66 35.6571C589.109 36.1282 588.693 36.736 588.453 37.4192C588.212 38.1024 588.156 38.837 588.29 39.5488C588.423 40.2607 588.742 40.9248 589.215 41.474C589.687 42.0233 590.295 42.4385 590.979 42.6777L641.051 60.2697C641.738 60.509 642.476 60.5632 643.19 60.4267C643.904 60.2902 644.57 59.9679 645.12 59.4922C645.67 59.0166 646.085 58.4043 646.323 57.7172C646.561 57.0302 646.613 56.2925 646.476 55.5785Z" fill="#F0FAFF"/>
<path d="M638.851 54.7807C638.568 54.7797 638.287 54.7301 638.02 54.6341L596.76 40.2021C596.338 40.05 595.963 39.79 595.672 39.4481C595.381 39.1061 595.185 38.694 595.102 38.2527C595.02 37.8114 595.054 37.3562 595.202 36.9324C595.35 36.5086 595.607 36.1308 595.946 35.8367L629.061 7.33101C629.402 7.0351 629.816 6.83535 630.259 6.75233C630.703 6.6693 631.161 6.706 631.586 6.85863C632.001 7.01395 632.37 7.27404 632.655 7.61367C632.941 7.9533 633.133 8.36093 633.215 8.79702L641.359 51.7347C641.432 52.1062 641.421 52.4891 641.327 52.8558C641.233 53.2226 641.059 53.564 640.818 53.8554C640.576 54.1468 640.273 54.3809 639.93 54.5409C639.587 54.701 639.213 54.7828 638.834 54.7807H638.851ZM598.975 37.4655L637.955 51.1157L630.283 10.5888L598.975 37.4655Z" fill="#B6D7FF"/>
<path d="M620.949 37.2539C620.584 37.108 620.283 36.8346 620.103 36.4842C619.924 36.1338 619.877 35.7302 619.972 35.3481L624.06 20.9975C624.151 20.6801 624.305 20.3845 624.514 20.1287C624.722 19.8729 624.981 19.6623 625.274 19.5098C625.566 19.3574 625.887 19.2662 626.216 19.2419C626.545 19.2177 626.876 19.2608 627.188 19.3686C627.507 19.4741 627.8 19.645 628.049 19.8703C628.297 20.0957 628.496 20.3705 628.633 20.6771C628.769 20.9838 628.84 21.3156 628.841 21.6513C628.842 21.9869 628.773 22.3191 628.638 22.6264L622.888 36.3906C622.721 36.7424 622.434 37.0228 622.078 37.1812C621.723 37.3395 621.322 37.3653 620.949 37.2539Z" fill="#B6D7FF"/>
<path d="M621.242 41.1625C621.134 41.4674 620.938 41.7332 620.678 41.9261C620.418 42.1189 620.107 42.23 619.784 42.2452C619.461 42.2605 619.14 42.1791 618.863 42.0116C618.587 41.844 618.366 41.5978 618.23 41.3044C618.093 41.011 618.048 40.6837 618.098 40.3641C618.149 40.0446 618.293 39.7473 618.513 39.5101C618.733 39.273 619.019 39.1068 619.334 39.0326C619.649 38.9585 619.978 38.9798 620.281 39.0938C620.68 39.2442 621.005 39.5451 621.184 39.9319C621.364 40.3187 621.385 40.7605 621.242 41.1625Z" fill="#B6D7FF"/>
<path d="M94.4786 120.133L61.9008 103.958C61.4568 103.741 60.9639 103.644 60.4709 103.677C59.978 103.71 59.5022 103.871 59.0907 104.144C58.6791 104.417 58.3462 104.793 58.1248 105.235C57.9034 105.677 57.8013 106.168 57.8285 106.662L60.1416 142.856C60.1818 143.344 60.3485 143.813 60.6253 144.217C60.9021 144.621 61.2795 144.946 61.7202 145.16C62.1609 145.374 62.6496 145.469 63.1383 145.436C63.627 145.403 64.0988 145.244 64.507 144.973L94.7393 124.938C95.1377 124.664 95.4591 124.293 95.6725 123.859C95.886 123.426 95.9843 122.945 95.9582 122.462C95.932 121.979 95.7822 121.512 95.5231 121.104C95.264 120.696 94.9043 120.361 94.4786 120.133Z" fill="#F0FAFF"/>
<path d="M90.8595 123.943C90.7384 124.094 90.5957 124.225 90.436 124.334L65.5791 140.818C65.3205 140.987 65.0227 141.087 64.7145 141.107C64.4062 141.127 64.098 141.067 63.8199 140.932C63.5455 140.793 63.3124 140.585 63.1437 140.328C62.9751 140.07 62.8769 139.773 62.8588 139.466L61.0182 109.69C61.0104 109.389 61.0804 109.09 61.2213 108.823C61.3623 108.556 61.5695 108.33 61.8231 108.167C62.0766 108.003 62.368 107.907 62.6692 107.889C62.9704 107.871 63.2713 107.93 63.5429 108.061L90.2568 121.369C90.531 121.504 90.7644 121.71 90.9332 121.964C91.102 122.219 91.2003 122.514 91.2179 122.819C91.243 123.225 91.1152 123.626 90.8595 123.943ZM65.0252 138.457L88.5302 122.884L63.2823 110.326L65.0252 138.457Z" fill="#B6D7FF"/>
<path d="M73.9355 126.452C73.7087 126.601 73.4336 126.656 73.1669 126.608C72.9002 126.559 72.6623 126.411 72.5021 126.192L66.3938 118.047C66.2501 117.869 66.1457 117.663 66.0872 117.441C66.0288 117.22 66.0176 116.989 66.0545 116.763C66.0914 116.537 66.1755 116.321 66.3013 116.13C66.4271 115.939 66.5918 115.776 66.7847 115.653C66.9703 115.527 67.18 115.44 67.4007 115.399C67.6213 115.358 67.8481 115.362 68.0668 115.413C68.2855 115.463 68.4914 115.558 68.6716 115.692C68.8519 115.826 69.0025 115.996 69.114 116.19L74.2287 124.986C74.3838 125.22 74.4401 125.505 74.3851 125.78C74.3301 126.055 74.1685 126.297 73.9355 126.452Z" fill="#B6D7FF"/>
<path d="M76.1998 127.9C76.3151 128.078 76.3753 128.286 76.3727 128.498C76.3701 128.71 76.3049 128.917 76.1853 129.092C76.0656 129.267 75.8969 129.403 75.7002 129.482C75.5036 129.561 75.2879 129.581 75.0803 129.538C74.8726 129.495 74.6823 129.392 74.5332 129.241C74.3841 129.09 74.283 128.899 74.2425 128.691C74.2019 128.483 74.2239 128.267 74.3055 128.071C74.3871 127.876 74.5248 127.709 74.7012 127.591C74.8196 127.512 74.9525 127.457 75.0923 127.43C75.232 127.403 75.3757 127.404 75.5152 127.432C75.6546 127.461 75.7869 127.517 75.9044 127.598C76.0219 127.678 76.1223 127.781 76.1998 127.9Z" fill="#B6D7FF"/>
<path d="M116.921 193.138C118.414 193.138 119.625 191.928 119.625 190.434C119.625 188.941 118.414 187.73 116.921 187.73C115.427 187.73 114.217 188.941 114.217 190.434C114.217 191.928 115.427 193.138 116.921 193.138Z" stroke="#69AEFF" stroke-width="1.62889" stroke-miterlimit="10"/>
<path d="M518.331 143.099C519.824 143.099 521.035 141.889 521.035 140.395C521.035 138.902 519.824 137.691 518.331 137.691C516.838 137.691 515.627 138.902 515.627 140.395C515.627 141.889 516.838 143.099 518.331 143.099Z" stroke="#69AEFF" stroke-width="1.62889" stroke-miterlimit="10"/>
<path d="M305.354 67.322C306.848 67.322 308.058 66.1114 308.058 64.618C308.058 63.1247 306.848 61.9141 305.354 61.9141C303.861 61.9141 302.65 63.1247 302.65 64.618C302.65 66.1114 303.861 67.322 305.354 67.322Z" stroke="#69AEFF" stroke-width="1.62889" stroke-miterlimit="10"/>
<path d="M302.112 272.97C303.606 272.97 304.816 271.76 304.816 270.266C304.816 268.773 303.606 267.562 302.112 267.562C300.619 267.562 299.408 268.773 299.408 270.266C299.408 271.76 300.619 272.97 302.112 272.97Z" stroke="#69AEFF" stroke-width="1.62889" stroke-miterlimit="10"/>
<path d="M365.133 111.042V117.15" stroke="#69AEFF" stroke-width="1.62889" stroke-linecap="round" stroke-linejoin="round"/>
<path d="M368.195 114.089H362.07" stroke="#69AEFF" stroke-width="1.62889" stroke-linecap="round" stroke-linejoin="round"/>
<path d="M474.938 32.8711V38.9957" stroke="#69AEFF" stroke-width="1.62889" stroke-linecap="round" stroke-linejoin="round"/>
<path d="M478 35.9346H471.875" stroke="#69AEFF" stroke-width="1.62889" stroke-linecap="round" stroke-linejoin="round"/>
<path d="M644.812 197.895V204.019" stroke="#69AEFF" stroke-width="1.62889" stroke-linecap="round" stroke-linejoin="round"/>
<path d="M647.877 200.957H641.752" stroke="#69AEFF" stroke-width="1.62889" stroke-linecap="round" stroke-linejoin="round"/>
<path d="M420.062 372.79C420.062 372.79 408.66 377.677 408.66 380.071C408.66 381.472 424.314 379.485 425.259 378.54C426.773 377.025 424.656 373.002 424.656 373.002L420.062 372.79Z" fill="#102439"/>
<path d="M419.326 365.997L420.059 373.002C420.23 373.38 420.508 373.7 420.858 373.923C421.208 374.145 421.615 374.261 422.03 374.256C422.537 374.267 423.04 374.159 423.498 373.941C423.956 373.724 424.357 373.402 424.669 373.002L424.099 364.238" fill="white"/>
<path d="M439.215 205.437C443.352 222.116 441.821 230.603 435.745 243.178C432.064 285.529 429.507 327.685 424.555 368.945L419.326 369.254C407.435 329.07 396.522 268.996 397.906 214.086" fill="#102439"/>
<path d="M465.457 374.419C465.457 374.419 454.055 379.306 454.055 381.7C454.055 383.101 469.708 381.114 470.653 380.169C472.168 378.654 470.034 374.631 470.034 374.631L465.457 374.419Z" fill="#102439"/>
<path d="M464.723 367.626L465.456 374.631C465.627 375.009 465.904 375.329 466.254 375.551C466.604 375.774 467.012 375.89 467.427 375.885C467.934 375.896 468.436 375.788 468.895 375.57C469.353 375.352 469.754 375.031 470.065 374.631L469.512 365.867" fill="white"/>
<path d="M477.071 204.02C482.316 220.39 481.339 228.958 476.126 241.924C475.263 284.405 472.331 328.76 470.132 370.264H464.757C450.227 330.959 434.687 270.267 432.439 215.389" fill="#102439"/>
<path d="M414.928 124.856C396.814 156.375 377.317 184.913 365.768 219.332L362.314 217.491C363.194 185.5 373.57 138.979 387.188 109.984" fill="white"/>
<path d="M406.082 91.9521C401.752 93.3402 397.643 95.3424 393.882 97.8976C387.742 102.186 382.879 108.057 379.808 114.887C376.755 121.695 374.708 128.91 373.732 136.307C378.887 138.741 384.378 140.388 390.021 141.194C395.978 141.812 401.983 141.812 407.939 141.194" fill="#B6D7FF"/>
<path d="M392.563 110.57C390.641 144.663 392.107 179.717 392.987 212.881C392.987 212.881 404.861 216.041 433.709 216.041C462.557 216.041 481.305 207.261 481.305 207.261C475.734 173.201 471.304 131.387 457.654 103.338C457.654 103.338 442.244 86.7232 427.063 86.0391C423.911 86.0898 420.817 86.8941 418.039 88.3847C415.889 89.3783 406.05 91.7891 406.05 91.7891L392.563 110.57Z" fill="#B6D7FF"/>
<path d="M392.416 113.616C391.65 120.132 391.65 140.395 391.65 140.395" stroke="#B6D7FF" stroke-width="0.814447" stroke-miterlimit="10"/>
<path d="M421.133 223.599C469.364 218.256 489.546 279.388 500.59 303.105C526.555 359.171 624.516 352.933 669.164 352.933C727.625 352.933 753.297 372.626 725.997 382.97" stroke="#B6D7FF" stroke-width="8.14447" stroke-linecap="round" stroke-linejoin="round"/>
<path d="M437.749 226.416C437.749 251.224 418.968 266.194 402.923 266.194H376.584V186.573H402.923C418.968 186.573 437.749 201.543 437.749 226.416Z" fill="#FDAE2B"/>
<path d="M424.183 226.417C424.183 250.655 409.832 270.315 392.11 270.315H363.066V182.437H392.11C409.832 182.437 424.183 202.114 424.183 226.417Z" fill="#FD8C04"/>
<g style="mix-blend-mode:multiply" opacity="0.5">
<path d="M430.615 202.375C424.344 210.927 418.203 219.609 412.273 228.437C413.12 228.271 413.901 227.864 414.521 227.265C414.521 227.932 413.463 229.073 414.391 229.496C415.319 229.92 416.313 228.828 417.274 229.121C418.186 228.91 419.033 227.769 419.701 227.118C419.486 227.604 419.349 228.121 419.294 228.649C425.712 226.157 431.445 220.179 436.43 215.374C435.276 210.731 433.307 206.33 430.615 202.375Z" fill="#FDAE2B"/>
</g>
<path d="M365.135 270.268C382.849 270.268 397.208 250.614 397.208 226.369C397.208 202.125 382.849 182.471 365.135 182.471C347.422 182.471 333.062 202.125 333.062 226.369C333.062 250.614 347.422 270.268 365.135 270.268Z" fill="#FFC840"/>
<path d="M367.823 241.925C367.823 245.525 365.364 248.44 362.317 248.44C359.271 248.44 356.828 245.525 356.828 241.925C356.828 238.325 359.288 235.409 362.317 235.409C365.347 235.409 367.823 238.309 367.823 241.925Z" fill="#FD8C04"/>
<path d="M367.823 210.796C367.823 214.412 365.364 217.311 362.317 217.311C359.271 217.311 356.828 214.396 356.828 210.796C356.828 207.196 359.288 204.28 362.317 204.28C365.347 204.28 367.823 207.196 367.823 210.796Z" fill="#FD8C04"/>
<path d="M466.467 135.735C466.467 135.735 468.503 156.471 459.218 173.721C451.302 188.381 435.534 207.553 422.812 218.076L419.75 217.326C424.181 200.321 438.173 170.089 439.036 158.833C439.899 147.577 439.704 134.4 439.916 128.096" fill="white"/>
<path d="M427.094 86.0391C427.094 86.0391 444.148 87.2119 454.052 95.5844C468.191 107.524 470.341 130.899 470.341 136.307C466.073 140.916 456.723 141.193 449.915 141.193C445.77 141.168 441.706 140.044 438.138 137.936L436.753 112.134" fill="#B6D7FF"/>
<path d="M421.005 214.804C418.992 215.085 417.097 215.919 415.531 217.214C414.049 218.387 412.274 220.342 412.404 221.238C412.534 222.134 415.043 220.358 415.352 220.733C415.662 221.108 411.15 227.884 411.997 228.389C412.844 228.894 416.672 222.753 416.672 222.753C416.672 222.753 412.958 229.268 414.391 229.464C415.825 229.659 418.887 223.372 418.887 223.372C418.887 223.372 416.102 228.926 417.063 229.138C418.024 229.35 420.597 223.811 420.597 223.811C420.597 223.811 418.496 228.535 419.294 228.617C420.94 227.302 422.117 225.491 422.65 223.453C423.497 220.651 424.49 218.224 423.725 216.025" fill="white"/>
<path d="M438.809 114.853V138.341" stroke="#B6D7FF" stroke-width="0.814447" stroke-miterlimit="10"/>
<path d="M391.718 64.3742C391.62 65.3841 391.588 66.4103 391.588 67.4365C391.478 69.6647 392.046 71.8738 393.216 73.7729C394.105 75.0271 395.4 75.9361 396.881 76.3466C397.924 76.6235 399.276 76.5095 399.732 75.5321C399.868 75.1739 399.923 74.7902 399.895 74.4082C399.88 70.607 399.145 66.843 397.728 63.3154" fill="#102439"/>
<path d="M417.468 66.5076C416.002 60.7902 411.408 52.7923 403.899 54.4049C401.556 54.8254 399.363 55.8485 397.535 57.3736C395.707 58.8987 394.308 60.8733 393.474 63.1032C391.845 68.4623 394.501 74.7009 397.726 79.0826C398.86 80.7692 400.372 82.1689 402.14 83.1712C406.473 85.419 412.337 83.5784 415.285 79.9134C416.651 77.9952 417.558 75.7889 417.937 73.4645C418.315 71.1402 418.155 68.7601 417.468 66.5076Z" fill="white"/>
<path d="M406.963 81.4449L409.406 90.3875L406.148 92.0164C407.073 93.0727 408.254 93.8722 409.578 94.3374C410.903 94.8026 412.325 94.9177 413.707 94.6715C423.936 93.1892 427.161 86.1035 427.161 86.1035L421.379 85.5008L414.993 74.6035" fill="white"/>
<path d="M422.454 60.2696C422.014 58.3214 421.173 56.4865 419.984 54.8821C418.794 53.2778 417.283 51.9393 415.547 50.9523C409.488 47.271 400.887 46.9778 395.479 52.0437C392.417 54.9268 386.895 65.1562 393.492 67.1761C395.561 67.8113 397.678 66.5571 399.47 65.368L404.943 61.703C405.556 61.204 406.294 60.8828 407.077 60.7745C407.72 60.8327 408.331 61.0806 408.832 61.4866C409.334 61.8926 409.704 62.4385 409.895 63.055C410.251 64.2939 410.518 65.5568 410.693 66.834C410.842 67.7451 411.331 68.5658 412.061 69.1307C412.245 69.2673 412.456 69.3634 412.68 69.4129C412.903 69.4624 413.135 69.4642 413.36 69.4181C413.584 69.372 413.796 69.279 413.982 69.1453C414.168 69.0116 414.324 68.8401 414.439 68.6421C414.579 68.0254 414.579 67.3855 414.439 66.7689C414.439 66.1336 414.781 65.368 415.417 65.3843C415.643 65.4073 415.855 65.5047 416.019 65.6612C417.648 66.8992 417.095 69.3751 417.648 71.3298C417.648 71.5904 417.192 75.5323 417.355 75.7278C422.502 74.5387 422.975 63.0876 422.454 60.2696Z" fill="#102439"/>
<path d="M414.946 65.8884C414.932 65.5257 415.058 65.1715 415.297 64.8987C415.537 64.626 415.872 64.4555 416.233 64.4224C416.601 64.4103 416.968 64.4719 417.312 64.6033C417.656 64.7348 417.97 64.9335 418.237 65.188C418.726 65.5824 419.125 66.0775 419.406 66.6396C419.687 67.2017 419.844 67.8177 419.866 68.4457C419.837 69.4277 419.52 70.3795 418.953 71.1823C418.624 71.7643 418.107 72.2178 417.487 72.4691C417.074 72.5662 416.642 72.5494 416.238 72.4203C415.833 72.2912 415.471 72.0547 415.191 71.7361" fill="white"/>
<path d="M233.55 372.545C233.55 372.545 244.529 374.369 244.838 376.78C245.017 378.165 229.445 379.81 228.386 378.995C226.757 377.692 228.761 372.822 228.761 372.822L233.55 372.545Z" fill="#102439"/>
<path d="M232.673 365.801L233.585 372.756C233.462 373.152 233.228 373.504 232.91 373.77C232.592 374.036 232.204 374.204 231.793 374.255C231.29 374.331 230.776 374.288 230.292 374.129C229.808 373.971 229.368 373.702 229.008 373.342L227.721 364.677" fill="white"/>
<path d="M191.625 207.57C189.654 224.657 189.54 232.867 197.18 244.579C200.796 261.096 206.35 278.02 210.553 294.944C208.745 315.159 221.417 347.346 228.226 370.329L233.113 369.482C239.726 328.108 242.17 264.663 236.24 209.101" fill="#102439"/>
<path d="M228.08 371.257L227.314 368.26L233.667 368.016L233.749 370.785L228.08 371.257Z" fill="#69AEFF"/>
<path d="M148.13 372.886C148.13 372.886 156.714 379.093 155.965 381.275C155.525 382.53 141.549 377.35 140.979 376.209C140.099 374.385 143.927 371.095 143.927 371.095L148.13 372.886Z" fill="#102439"/>
<path d="M150.232 366.762L148.066 373.017C147.796 373.306 147.446 373.51 147.061 373.603C146.676 373.696 146.272 373.673 145.899 373.538C145.441 373.391 145.022 373.139 144.678 372.803C144.333 372.466 144.071 372.054 143.912 371.599L146.469 363.65" fill="white"/>
<path d="M154.744 204.02C149.516 220.39 150.477 228.958 155.705 241.924C156.015 257.431 156.178 273.133 156.357 288.836C145.297 316.527 143.554 341.335 144.955 367.691L150.281 369.662C150.281 369.662 182.028 314.279 187.86 292.468C194.471 267.266 198.338 241.423 199.392 215.389" fill="#102439"/>
<path d="M243.488 77.5205L239.204 73.8718V66.3137C239.204 65.1409 237.575 58.1692 236.174 58.1692C234.773 58.1692 234.415 56.41 233.698 57.1268C232.982 57.8435 234.285 65.7925 233.698 66.3789C233.112 66.9653 232.363 62.5998 231.809 63.1211C231.255 63.6423 231.304 66.7861 231.304 68.415C231.552 70.6145 232.461 72.6872 233.91 74.3604C235.213 75.6636 240.963 81.8696 240.963 81.8696L243.488 77.5205Z" fill="#F3F3F3"/>
<path d="M241.338 75.1094L237.82 79.1653C237.82 79.1653 251.942 97.865 256.405 104.12C251.73 102.167 247.266 99.744 243.081 96.8877C236.452 92.5385 229.789 90.2255 225.163 90.2255C215.39 90.2255 220.505 122.461 231.842 127.185C253.376 130.443 277.451 128.374 281.197 120.816C286.687 109.593 255.086 83.1887 241.338 75.1094Z" fill="#B6D7FF"/>
<path d="M256.357 104.119C256.357 104.119 258.996 111.645 263.883 114.023" stroke="#B6D7FF" stroke-width="0.814447" stroke-miterlimit="10"/>
<path d="M175.708 98.7609C150.053 127.576 150.428 177.127 150.428 210.812C150.428 210.812 169.274 223.664 198.041 223.664C226.807 223.664 238.763 216.579 238.763 216.579C239.626 182.372 233.55 167.712 239.17 111.287C239.17 111.287 230 90.2255 225.097 90.2255C220.194 90.2255 201.054 88.3359 201.054 88.3359L175.708 98.7609Z" fill="#B6D7FF"/>
<path d="M237.818 127.951C237.818 127.951 238.405 118.08 240.799 115.686" stroke="#B6D7FF" stroke-width="0.814447" stroke-miterlimit="10"/>
<path d="M209.573 66.7851C210.517 60.97 214.671 52.6626 222.278 53.5911C227.051 54.1938 230.748 57.4842 233.42 61.3446C235.716 64.6024 234.853 67.8602 231.579 76.2164C230.282 78.4677 228.581 80.461 226.562 82.0967C222.441 84.7193 216.447 83.3999 213.189 79.9466C211.627 78.1708 210.49 76.0629 209.864 73.7827C209.237 71.5024 209.138 69.1095 209.573 66.7851Z" fill="white"/>
<path d="M210.583 66.0199C211.675 65.857 210.583 65.1403 211.072 66.1339C211.381 66.7855 211.479 66.9647 212.098 67.1764C212.717 67.3882 212.717 67.9257 213.222 68.3166C214.02 68.903 214.688 68.1049 215.03 67.4207C215.563 66.1106 215.721 64.6781 215.486 63.2833C215.372 62.2083 215.014 60.5142 216.056 59.7649C217.099 59.0156 218.809 60.0419 219.705 60.3025C221.057 60.6934 222.409 61.1332 223.777 61.5404C227.03 62.7387 230.502 63.222 233.958 62.9576C235.507 62.8153 237.001 62.3087 238.317 61.4793C239.634 60.6499 240.735 59.5211 241.532 58.1849C243.259 54.9271 239.789 50.464 236.271 50.464C235.354 50.5621 234.449 50.7476 233.567 51.0178C233.235 51.0992 232.889 51.0992 232.557 51.0178C231.792 50.7897 231.449 49.9264 231.026 49.2586C230.385 48.3383 229.493 47.6218 228.456 47.1943C227.419 46.7669 226.281 46.6466 225.178 46.8478C222.687 47.3955 220.241 48.1362 217.864 49.0631C216.611 49.234 215.339 49.234 214.085 49.0631C213.387 49.1052 212.712 49.3287 212.126 49.7115C211.541 50.0942 211.065 50.6231 210.746 51.2458C209.671 50.1382 207.293 52.8747 206.707 53.5914C204.1 56.7515 203.286 61.3124 203.221 65.3195C203.221 68.8053 203.742 73.9037 207.57 75.3046C209.199 75.9073 210.209 76.2168 210.274 74.7345C209.691 72.8247 209.351 70.849 209.264 68.8542C209.139 68.2314 209.208 67.5855 209.462 67.0031C209.715 66.4207 210.141 65.9299 210.681 65.5964" fill="#102439"/>
<path d="M223.158 80.6147L222.327 89.4108L225.21 90.2252C224.611 91.4881 223.697 92.5756 222.556 93.3829C221.415 94.1903 220.085 94.6903 218.695 94.835C208.449 96.2032 201.217 88.3194 201.217 88.3194L204.637 87.6678L209.817 71.3789" fill="white"/>
<path d="M212.293 65.954C212.277 65.591 212.119 65.2488 211.855 64.9996C211.59 64.7504 211.24 64.6137 210.876 64.6183C210.51 64.6364 210.151 64.7279 209.821 64.8874C209.491 65.0469 209.196 65.2711 208.954 65.5468C206.087 68.3973 209.687 75.3201 212.521 71.7528" fill="white"/>
<path d="M231.597 76.0209C231.141 77.096 229.333 77.5195 228.339 77.6498C223.453 78.1873 219.527 75.0761 214.901 74.506C214.456 74.386 213.991 74.3617 213.536 74.4347C213.081 74.5077 212.647 74.6764 212.262 74.9295C211.985 75.2678 211.778 75.6585 211.655 76.0783C211.532 76.4981 211.495 76.9383 211.546 77.3729C211.487 78.458 211.487 79.5455 211.546 80.6307C211.588 81.5645 211.839 82.4771 212.279 83.302C214.364 86.7716 221.319 87.358 224.837 87.1462C226.266 87.1371 227.662 86.7188 228.861 85.9408C230.49 84.7355 230.783 82.6831 231.385 80.8098C231.834 79.2527 231.906 77.6115 231.597 76.0209Z" fill="#102439"/>
<path d="M228.19 79.8165C228.036 79.7118 227.856 79.6499 227.669 79.6373C225.909 79.5133 224.157 79.2848 222.424 78.9532C222.128 78.9036 221.825 78.9036 221.528 78.9532C221.231 79.0791 220.973 79.2808 220.778 79.5381C220.584 79.7953 220.461 80.0992 220.421 80.4192C220.355 80.7058 220.397 81.0065 220.538 81.2645C220.679 81.5225 220.91 81.72 221.186 81.82C222.242 82.3119 223.393 82.5676 224.558 82.5693C225.646 82.7406 226.759 82.5398 227.718 81.9992C228.19 81.6408 228.891 80.3214 228.19 79.8165Z" fill="white"/>
<path d="M207 207.001C150.95 204.069 118.307 233.063 95.1274 285.692C65.058 354.106 23.0163 359.53 4.07227 359.156" stroke="#B6D7FF" stroke-width="8.14447" stroke-linecap="round" stroke-linejoin="round"/>
<path d="M185.499 211.561C187.552 236.304 207.522 249.661 223.518 248.326L249.759 246.143L243.146 166.832L216.905 169.015C200.909 170.35 183.431 186.835 185.499 211.561Z" fill="#FDAE2B"/>
<path d="M199.02 210.438C201.024 234.611 216.938 253.001 234.628 251.535L263.573 249.108L256.276 161.604L227.33 164.014C209.673 165.497 197 186.281 199.02 210.438Z" fill="#FD8C04"/>
<path d="M261.511 249.28C279.163 247.807 291.838 227.027 289.822 202.867C287.806 178.706 271.862 160.314 254.21 161.787C236.558 163.26 223.882 184.04 225.898 208.201C227.915 232.361 243.859 250.753 261.511 249.28Z" fill="#FFC840"/>
<path d="M256.484 221.253C256.778 224.853 259.481 227.557 262.495 227.296C265.508 227.036 267.74 223.941 267.382 220.341C267.023 216.741 264.384 214.053 261.371 214.298C258.358 214.542 256.175 217.669 256.484 221.253Z" fill="#FDAE2B"/>
<path d="M253.897 190.256C254.19 193.839 256.894 196.543 259.924 196.299C262.953 196.055 265.152 192.927 264.81 189.327C264.468 185.727 261.813 183.04 258.783 183.284C255.754 183.528 253.587 186.656 253.897 190.256Z" fill="#FDAE2B"/>
<path d="M260.282 194.311L301.199 190.906C302.393 190.798 303.495 190.225 304.27 189.311C305.044 188.397 305.427 187.214 305.337 186.019C305.291 185.423 305.129 184.842 304.859 184.309C304.589 183.776 304.216 183.301 303.762 182.913C303.308 182.524 302.782 182.228 302.213 182.043C301.645 181.858 301.046 181.787 300.45 181.833L259.516 185.238C256.388 185.449 256.991 194.587 260.282 194.311Z" fill="#E2E8ED"/>
<path d="M262.869 225.325L303.787 221.904C304.982 221.8 306.088 221.229 306.863 220.313C307.638 219.398 308.019 218.213 307.925 217.018C307.879 216.422 307.717 215.84 307.447 215.307C307.176 214.774 306.804 214.3 306.35 213.911C305.896 213.522 305.37 213.226 304.801 213.041C304.233 212.856 303.634 212.785 303.038 212.831L262.12 216.236C258.993 216.447 259.563 225.602 262.869 225.325Z" fill="#E2E8ED"/>
<path d="M162.041 135.735C162.041 135.735 160.005 156.471 169.274 173.721C177.206 188.381 192.958 207.553 205.679 218.076L208.742 217.326C204.311 200.321 190.335 170.089 189.456 158.833C188.576 147.577 188.804 134.4 188.592 128.096" fill="white"/>
<path d="M201.088 88.3359C201.088 88.3359 183.171 89.3784 172.762 97.1971C154.844 110.701 158.379 146.976 163.591 164.715C168.804 182.453 193.84 209.07 201.984 214.803C203.304 214.803 207.197 214.477 207.066 211.415C202.538 197.586 189.784 161.262 189.784 161.262L191.804 112.183" fill="#B6D7FF"/>
<path d="M207.506 214.804C209.513 215.085 211.403 215.92 212.963 217.214C214.461 218.387 216.22 220.342 216.106 221.238C215.992 222.134 213.451 220.358 213.158 220.733C212.865 221.108 217.344 227.884 216.416 228.389C215.487 228.894 211.757 222.753 211.757 222.753C211.757 222.753 215.471 229.268 214.021 229.464C212.832 229.578 209.526 223.372 209.526 223.372C209.526 223.372 212.311 228.926 211.366 229.138C210.422 229.35 207.832 223.811 207.832 223.811C207.832 223.811 209.933 228.535 209.119 228.617C207.479 227.3 206.308 225.489 205.779 223.453C204.916 220.651 203.922 218.224 204.688 216.025" fill="white"/>
<path d="M194.833 175.661L189.783 161.261L193.562 120.066" stroke="#B6D7FF" stroke-width="0.814447" stroke-miterlimit="10"/>
<path d="M159.485 130.035C159.388 141.193 160.723 154.957 163.59 164.714C166.099 173.25 173.201 183.854 180.791 193.171" stroke="#B6D7FF" stroke-width="0.814447" stroke-miterlimit="10"/>
<path d="M544.15 69.36L547.05 67.3891C547.543 64.8625 548.234 62.3789 549.118 59.9613C550.139 58.1118 551.48 56.4574 553.077 55.0746C553.793 54.6023 557.002 52.7779 557.817 53.5923C558.224 53.9996 556.856 57.632 556.188 58.251C555.52 58.87 553.728 61.6717 554.021 62.5513C554.315 63.4309 555.83 61.5088 556.188 61.1504C556.546 60.792 557.035 60.336 557.198 60.8083C557.491 61.5739 555.862 65.9719 554.592 67.2425C553.327 68.5842 551.644 69.4571 549.819 69.7184L545.323 73.6766" fill="#EDEDED"/>
<path d="M578.99 48.6387C581.302 50.1615 583.28 52.1377 584.806 54.4476C586.332 56.7574 587.374 59.353 587.867 62.0771C587.977 63.0529 588.336 63.9842 588.91 64.781C589.488 65.3031 590.163 65.7071 590.897 65.9701C592.863 66.9179 594.619 68.2512 596.061 69.891C597.502 71.5307 598.598 73.4434 599.286 75.5154C599.888 77.2746 599.416 79.7668 600.116 81.2654C600.963 83.1061 604.075 83.5133 605.769 84.0671C608.299 84.9138 610.502 86.5301 612.069 88.69C613.636 90.8499 614.489 93.4455 614.509 96.1139C614.529 98.7824 613.714 101.39 612.179 103.573C610.644 105.756 608.466 107.405 605.948 108.289C606.576 109.263 606.983 110.362 607.141 111.511C607.299 112.659 607.203 113.828 606.86 114.935C606.15 117.143 604.953 119.163 603.358 120.848C600.118 124.378 596.142 127.154 591.712 128.98C587.283 130.807 582.506 131.639 577.719 131.419C574.958 131.346 572.23 130.794 569.656 129.79C566.812 128.503 564.168 126.813 561.805 124.773C558.721 122.597 556.174 119.744 554.361 116.433C552.732 113.029 552.879 108.566 555.566 105.927C553.998 106.174 552.391 105.957 550.944 105.303C549.497 104.649 548.273 103.586 547.422 102.246C546.602 100.891 546.059 99.3875 545.824 97.8217C545.589 96.256 545.667 94.6592 546.053 93.1238C546.854 90.0487 548.297 87.1784 550.289 84.7024C551.808 83.0738 552.885 81.083 553.416 78.9198C553.888 75.2385 551.787 71.9482 551.299 68.2994C550.468 62.6146 550.728 57.7116 555.599 54.6982C557.228 50.6422 559.052 47.5147 563.548 46.3257C566.144 45.641 568.852 45.493 571.507 45.8907C574.162 46.2884 576.708 47.2234 578.99 48.6387Z" fill="#102439"/>
<path d="M567.262 91.8856C550.973 87.6179 532.42 94.3452 528.283 94.3289C533.951 88.6441 544.376 76.0039 547.976 71.6384C548.066 70.8931 547.943 70.1374 547.62 69.4596C547.296 68.7818 546.787 68.2099 546.152 67.8105C546.152 67.8105 501.585 90.8594 506.064 105.878C510.739 121.597 554.394 113.892 557.896 118.388" fill="#B6D7FF"/>
<path d="M570.457 238.145C570.457 239.481 564.593 268.085 564.153 271.163C562.915 280.106 567.639 289.081 567.183 302.927C566.613 319.786 559.445 365.085 558.533 367.089C557.621 369.092 553.256 367.252 553.256 367.252C553.256 367.252 540.664 306.494 539.948 281.621C539.361 261.145 542.342 216.823 542.342 216.823" fill="white"/>
<path d="M558.987 367.869C559.34 368.57 559.576 369.324 559.688 370.101L559.525 373.277H558.71L558.417 371.73C556.853 372.074 555.363 372.698 554.019 373.57C552.96 374.287 547.504 374.222 546.722 373.782C546.562 373.712 546.422 373.604 546.313 373.469C546.203 373.333 546.128 373.174 546.093 373.003C546.058 372.832 546.064 372.656 546.111 372.488C546.158 372.321 546.245 372.167 546.363 372.039C546.673 371.681 552.521 369.123 552.521 369.123" fill="#102439"/>
<path d="M553.254 367.251C552.782 368.391 548.172 370.916 548.596 371.242C550.645 371.626 552.762 371.405 554.688 370.606C557.392 369.711 558.923 368.701 559.021 367.984L558.499 366.078" fill="white"/>
<path d="M610.834 239.334C610.834 240.67 605.948 269.436 605.557 272.531C604.579 281.49 609.58 290.318 609.531 304.18C609.531 321.056 603.716 366.55 602.853 368.587C601.989 370.623 597.591 368.912 597.591 368.912C597.591 368.912 583.143 308.643 581.677 283.721C580.455 263.279 582.084 218.875 582.084 218.875" fill="white"/>
<path d="M603.375 369.337C603.749 370.029 604.008 370.777 604.141 371.552C604.141 373.442 604.141 374.81 604.141 374.81H603.326L602.984 373.279C601.432 373.667 599.964 374.335 598.651 375.25C597.592 375.999 592.136 376.097 591.354 375.673C591.193 375.607 591.051 375.504 590.939 375.372C590.826 375.24 590.747 375.083 590.707 374.915C590.667 374.746 590.668 374.57 590.71 374.402C590.751 374.233 590.833 374.077 590.947 373.947C591.24 373.572 597.006 370.852 597.006 370.852" fill="#102439"/>
<path d="M597.641 368.912C597.201 370.068 592.657 372.723 593.096 373.033C595.152 373.351 597.257 373.068 599.156 372.219C601.844 371.241 603.342 370.182 603.407 369.466L602.837 367.576" fill="white"/>
<path d="M596.175 165.741C596.175 165.741 609.092 174.195 614.012 194.491C620.609 221.856 610.835 275.43 610.835 275.43C597.066 279.146 582.875 281.067 568.614 281.148C546.624 280.969 533.593 273.525 533.544 272.205C533.495 270.886 530.286 230.31 534.733 202.798C539.75 171.849 552.537 163.574 552.537 163.574" fill="#102439"/>
<path d="M578.697 91.3659C580.684 90.6166 585.88 92.441 595.605 96.1548C599.872 100.781 601.745 110.913 602.674 119.872C600.149 141.699 597.331 153.606 598.683 160.968C599.009 162.711 600.605 164.031 600.312 166.458C599.775 171.491 591.549 172.257 575.879 174.032C560.209 175.808 546.168 168.706 547.015 166.49C547.862 164.275 550.517 162.32 550.94 160.854C551.364 159.388 552.651 140.689 550.94 138.473C549.23 136.258 544.881 129.873 544.881 123.651C544.881 114.903 549.768 110.978 552.862 106.173C558.107 98.1584 562.098 93.1414 567.18 91.8871C575.406 89.8673 578.697 91.3659 578.697 91.3659Z" fill="#B6D7FF"/>
<path d="M552.373 102.425C552.655 104.801 552.182 107.206 551.021 109.299C550.435 110.276 546.884 113.892 546.135 116.189" stroke="#B6D7FF" stroke-width="0.814447" stroke-miterlimit="10"/>
<path d="M575 80.7116C579.268 76.4765 579.887 68.4298 577.997 62.9893C575.815 56.8646 567.1 52.2874 561.089 56.1153C549.247 63.6408 561.22 94.3618 575 80.7116Z" fill="white"/>
<path d="M566.855 79.9636L567.067 92.9948C567.067 92.9948 566.579 95.9105 571.71 96.0897C578.73 96.334 578.73 91.3007 578.73 91.3007L574.658 77.8135" fill="white"/>
<path d="M572.131 50.3338C571.481 49.8707 570.707 49.6124 569.909 49.5921C569.111 49.5718 568.325 49.7904 567.652 50.2198C566.855 50.9123 566.011 51.549 565.127 52.1256C564.398 52.3674 563.652 52.5526 562.895 52.6794C561.147 53.1659 559.523 54.0208 558.132 55.1867C556.742 56.3526 555.616 57.8026 554.832 59.4393C553.383 62.6971 553.855 68.0073 556.543 70.3366C556.46 67.451 557.146 64.5952 558.53 62.0618C558.816 61.4619 559.259 60.9511 559.813 60.5838C560.367 60.2165 561.01 60.0067 561.674 59.9768C563.14 60.1397 563.954 61.7197 565.013 62.7622C566.751 64.1169 568.87 64.8918 571.072 64.9775C573.499 65.3359 575.356 65.7594 576.546 68.1213C577.024 69.1639 577.384 70.2566 577.621 71.3791C577.986 72.7009 578.231 74.0529 578.354 75.4187C578.333 76.268 578.42 77.1164 578.614 77.9435C578.969 78.7194 579.495 79.4051 580.152 79.9494C580.809 80.4938 581.581 80.8827 582.409 81.0873C583.647 81.4945 585.667 81.8855 586.498 80.4846C587.192 79.19 587.676 77.7935 587.931 76.3472C588.524 71.8496 587.452 67.2906 584.918 63.5278C582.312 59.3904 578.598 56.6213 575.259 53.1681C574.316 52.1186 573.268 51.1688 572.131 50.3338Z" fill="#102439"/>
<path d="M575.424 70.4825C575.523 69.968 575.765 69.4918 576.122 69.1086C576.479 68.7254 576.937 68.4507 577.444 68.3161C580.783 67.8112 580.278 72.7793 578.991 74.5385C578.226 75.5484 576.287 76.8841 575.424 74.0498" fill="white"/>
<path d="M610.837 172.437L609.208 175.695C609.208 175.695 603.279 177.112 602.693 178.154C601.699 179.783 600.217 182.08 600.217 183.367C600.217 184.654 600.331 190.355 601.96 190.355C602.97 190.355 605.364 185.712 605.853 185.061C607.009 183.53 611.684 182.422 611.684 178.399L614.551 172.355" fill="white"/>
<path d="M578.697 91.2178C578.697 91.2178 592.494 87.6994 603.294 94.4756C611.682 99.7695 633.265 126.109 633.265 141.192C633.265 151.357 613.083 176.539 613.083 176.539L609.728 174.145C609.728 174.145 611.682 154.354 617.546 143.44C613.214 139.107 596.371 125.669 592.103 121.434" fill="#B6D7FF"/>
<path d="M589.92 120.05C592.933 122.721 600.882 129.123 600.882 129.123" stroke="#B6D7FF" stroke-width="0.814447" stroke-miterlimit="10"/>
<path d="M182.713 67.8604L166.016 54.422C166.016 54.422 173.526 26.7308 163.589 16.9574C158.13 11.9774 151.711 8.164 144.727 5.75064C129.366 0.000647783 111.025 -1.4002 97.3423 7.67274C87.2431 14.3838 81.0533 25.8512 78.3656 37.6607C75.9549 48.053 76.1504 59.8462 82.6496 68.3164C85.6813 72.0496 89.4886 75.0788 93.8076 77.1939C107.002 84.1167 141.925 86.7229 157.074 76.5749C161.26 73.7569 160.902 70.0431 162.661 64.0162L182.713 67.8604Z" fill="#E7F5FE"/>
<path d="M117.045 51.0709C115.696 51.0709 114.513 50.75 113.496 50.1083C112.484 49.4665 111.694 48.5687 111.123 47.4148C110.559 46.261 110.277 44.9126 110.277 43.3698C110.277 41.814 110.559 40.456 111.123 39.2956C111.694 38.1353 112.484 37.2342 113.496 36.5925C114.513 35.9507 115.696 35.6298 117.045 35.6298C118.393 35.6298 119.573 35.9507 120.584 36.5925C121.602 37.2342 122.393 38.1353 122.957 39.2956C123.527 40.456 123.812 41.814 123.812 43.3698C123.812 44.9126 123.527 46.261 122.957 47.4148C122.393 48.5687 121.602 49.4665 120.584 50.1083C119.573 50.75 118.393 51.0709 117.045 51.0709ZM117.045 49.0095C118.069 49.0095 118.912 48.747 119.573 48.2219C120.234 47.6968 120.724 47.0064 121.041 46.1508C121.359 45.2951 121.518 44.3681 121.518 43.3698C121.518 42.3715 121.359 41.4413 121.041 40.5791C120.724 39.717 120.234 39.0201 119.573 38.4886C118.912 37.957 118.069 37.6912 117.045 37.6912C116.021 37.6912 115.178 37.957 114.517 38.4886C113.855 39.0201 113.366 39.717 113.048 40.5791C112.731 41.4413 112.572 42.3715 112.572 43.3698C112.572 44.3681 112.731 45.2951 113.048 46.1508C113.366 47.0064 113.855 47.6968 114.517 48.2219C115.178 48.747 116.021 49.0095 117.045 49.0095ZM127.315 56.3606V35.8243H129.532V38.1969H129.805C129.973 37.9376 130.207 37.607 130.505 37.205C130.809 36.7967 131.244 36.4336 131.808 36.116C132.378 35.7919 133.15 35.6298 134.122 35.6298C135.379 35.6298 136.488 35.9442 137.447 36.573C138.407 37.2018 139.155 38.0931 139.694 39.247C140.232 40.4009 140.501 41.7622 140.501 43.3309C140.501 44.9126 140.232 46.2837 139.694 47.444C139.155 48.5979 138.41 49.4925 137.457 50.1277C136.504 50.7565 135.405 51.0709 134.161 51.0709C133.201 51.0709 132.433 50.9121 131.856 50.5945C131.279 50.2703 130.835 49.9041 130.524 49.4957C130.213 49.0808 129.973 48.7373 129.805 48.465H129.61V56.3606H127.315ZM129.571 43.292C129.571 44.42 129.737 45.415 130.067 46.2772C130.398 47.1329 130.881 47.8038 131.516 48.29C132.151 48.7697 132.929 49.0095 133.85 49.0095C134.809 49.0095 135.61 48.7567 136.251 48.2511C136.9 47.739 137.386 47.0518 137.71 46.1897C138.041 45.321 138.206 44.3551 138.206 43.292C138.206 42.2419 138.044 41.2954 137.72 40.4527C137.402 39.6035 136.919 38.9326 136.271 38.4399C135.629 37.9408 134.822 37.6912 133.85 37.6912C132.916 37.6912 132.132 37.9278 131.497 38.401C130.861 38.8678 130.382 39.5225 130.057 40.3652C129.733 41.2015 129.571 42.1771 129.571 43.292ZM154.58 39.1692L152.519 39.7526C152.389 39.4091 152.198 39.0752 151.945 38.7511C151.699 38.4205 151.362 38.1482 150.934 37.9343C150.506 37.7204 149.958 37.6134 149.291 37.6134C148.377 37.6134 147.615 37.8241 147.006 38.2455C146.403 38.6603 146.101 39.1887 146.101 39.8304C146.101 40.4009 146.309 40.8514 146.724 41.182C147.139 41.5126 147.787 41.7881 148.668 42.0085L150.885 42.553C152.221 42.8772 153.216 43.3731 153.871 44.0407C154.525 44.702 154.853 45.5544 154.853 46.5981C154.853 47.4537 154.606 48.2187 154.114 48.8928C153.627 49.567 152.947 50.0986 152.072 50.4875C151.197 50.8764 150.179 51.0709 149.018 51.0709C147.495 51.0709 146.234 50.7403 145.236 50.0791C144.238 49.4179 143.606 48.452 143.34 47.1815L145.518 46.637C145.725 47.4408 146.118 48.0436 146.695 48.4455C147.278 48.8475 148.04 49.0484 148.98 49.0484C150.049 49.0484 150.898 48.8215 151.527 48.3678C152.162 47.9075 152.48 47.3565 152.48 46.7147C152.48 46.1961 152.299 45.7618 151.936 45.4118C151.573 45.0552 151.015 44.7895 150.263 44.6144L147.774 44.031C146.406 43.7069 145.401 43.2045 144.76 42.5239C144.124 41.8367 143.807 40.9778 143.807 39.9471C143.807 39.1044 144.043 38.3589 144.516 37.7107C144.996 37.0624 145.648 36.5536 146.471 36.1841C147.301 35.8146 148.241 35.6298 149.291 35.6298C150.769 35.6298 151.929 35.9539 152.772 36.6022C153.621 37.2504 154.224 38.1061 154.58 39.1692ZM161.341 30.8458L161.146 45.159H158.89L158.696 30.8458H161.341ZM160.018 50.9153C159.539 50.9153 159.127 50.7436 158.783 50.4C158.44 50.0564 158.268 49.6448 158.268 49.1651C158.268 48.6854 158.44 48.2738 158.783 47.9302C159.127 47.5866 159.539 47.4148 160.018 47.4148C160.498 47.4148 160.91 47.5866 161.253 47.9302C161.597 48.2738 161.769 48.6854 161.769 49.1651C161.769 49.4827 161.688 49.7744 161.525 50.0402C161.37 50.306 161.159 50.5199 160.893 50.682C160.634 50.8376 160.342 50.9153 160.018 50.9153Z" fill="#B6D7FF"/>
</g>
<defs>
<clipPath id="clip0_776_3921">
<rect width="741" height="394.73" fill="white"/>
</clipPath>
</defs>
</svg>
