<svg width="101" height="100" viewBox="0 0 101 100" fill="none" xmlns="http://www.w3.org/2000/svg">
<path d="M91.1238 8.23828H36.0757C35.2496 8.23828 34.581 8.90693 34.581 9.73302V32.2896H9.83358C9.0075 32.2896 8.33887 32.9583 8.33887 33.7844V77.5573C8.33887 78.3824 9.0075 79.052 9.83358 79.052H22.9153L35.2078 92.0523C35.4957 92.3572 35.8913 92.5206 36.2939 92.5206C36.4792 92.5206 36.6666 92.4867 36.846 92.415C37.4149 92.1888 37.7876 91.6397 37.7886 91.0269L37.7946 79.052H67.5562C68.3813 79.052 69.0509 78.3824 69.0509 77.5573V55.0007H91.1228C91.9479 55.0007 92.6175 54.331 92.6175 53.5059V9.73302C92.6185 8.90693 91.9489 8.23828 91.1238 8.23828ZM66.0615 76.0625H36.3009C35.4758 76.0625 34.8062 76.7312 34.8062 77.5563L34.8012 87.2711L24.6451 76.5309C24.3631 76.2319 23.9705 76.0625 23.559 76.0625H11.3283V35.2791H34.581V53.5059C34.581 54.331 35.2496 55.0007 36.0757 55.0007H47.1953V66.0139C47.1953 66.6158 47.556 67.1589 48.1111 67.3921C48.2984 67.4708 48.4947 67.5087 48.689 67.5087C49.0737 67.5087 49.4513 67.3612 49.7363 67.0802L62.0428 55.0007H66.0615V76.0625ZM89.6291 52.0112H61.4319C61.0403 52.0112 60.6636 52.1647 60.3846 52.4397L50.1847 62.4515V53.5049C50.1847 52.6799 49.5161 52.0102 48.69 52.0102H37.5704V11.2278H89.6291V52.0112Z" fill="#1565C0"/>
<path d="M49.8927 26.0403C49.8987 26.0403 49.9056 26.0403 49.9116 26.0403C52.4606 26.0304 54.5253 23.9487 54.5153 21.4007C54.5054 18.8586 52.4337 16.7969 49.8937 16.7969C49.8877 16.7969 49.8807 16.7969 49.8747 16.7969C47.3258 16.8068 45.2611 18.8885 45.271 21.4365C45.282 23.9796 47.3527 26.0403 49.8927 26.0403ZM49.8867 19.7864C49.8887 19.7864 49.8907 19.7864 49.8937 19.7864C50.7905 19.7864 51.5219 20.5138 51.5259 21.4116C51.5279 21.8481 51.3595 22.2586 51.0516 22.5676C50.7447 22.8775 50.3351 23.0479 49.8997 23.0499C49.4602 23.0628 49.0526 22.8835 48.7437 22.5765C48.4338 22.2696 48.2634 21.8601 48.2615 21.4246C48.2575 20.5248 48.9869 19.7903 49.8867 19.7864Z" fill="#1565C0"/>
<path d="M64.6725 26.0403C64.6784 26.0403 64.6854 26.0403 64.6914 26.0403C67.2404 26.0304 69.3051 23.9487 69.2951 21.4007C69.2851 18.8586 67.2135 16.7969 64.6735 16.7969C64.6675 16.7969 64.6605 16.7969 64.6545 16.7969C62.1055 16.8068 60.0409 18.8885 60.0508 21.4365C60.0558 22.6712 60.5411 23.8301 61.418 24.6991C62.2899 25.565 63.4448 26.0403 64.6725 26.0403ZM64.6665 19.7864C64.6685 19.7864 64.6715 19.7864 64.6735 19.7864C65.5703 19.7864 66.3017 20.5138 66.3057 21.4116C66.3077 21.8481 66.1393 22.2586 65.8314 22.5676C65.5244 22.8775 65.1149 23.0479 64.6794 23.0499C64.6774 23.0499 64.6745 23.0499 64.6725 23.0499C64.239 23.0499 63.8314 22.8825 63.5235 22.5765C63.2136 22.2686 63.0432 21.8601 63.0412 21.4236C63.0362 20.5248 63.7667 19.7903 64.6665 19.7864Z" fill="#1565C0"/>
</svg>
