<svg width="70" height="70" viewBox="0 0 70 70" fill="none" xmlns="http://www.w3.org/2000/svg">
<path d="M15 22.3343V22.001H15.3333V22.3343H15Z" fill="black" stroke="#367FD3" stroke-width="2"/>
<path d="M18.5 18.8343V18.501H18.8333V18.8343H18.5Z" fill="black" stroke="#367FD3" stroke-width="2"/>
<path d="M22 15.3343V15.001H22.3333V15.3343H22Z" fill="black" stroke="#367FD3" stroke-width="2"/>
<path d="M54.667 48.0003V47.667H55.0003V48.0003H54.667Z" fill="black" stroke="#367FD3" stroke-width="2"/>
<path d="M51.167 51.5003V51.167H51.5003V51.5003H51.167Z" fill="black" stroke="#367FD3" stroke-width="2"/>
<path d="M47.667 55.0003V54.667H48.0003V55.0003H47.667Z" fill="black" stroke="#367FD3" stroke-width="2"/>
<path d="M16.334 36.1689C16.334 35.4223 16.6303 34.7059 17.1588 34.1774L19.0092 32.3271C19.5377 31.7986 20.254 31.5023 21.0007 31.5023C21.7473 31.5023 22.4637 31.7986 22.9922 32.3271L29.5091 38.8441C30.0376 39.3726 30.754 39.6689 31.5007 39.6689C32.2473 39.6689 32.9637 39.3726 33.4922 38.8441L59.8425 12.4938C60.371 11.9653 61.0873 11.6689 61.834 11.6689C62.5806 11.6689 63.297 11.9653 63.8255 12.4938L65.6758 14.3441C66.2043 14.8726 66.5006 15.5889 66.5006 16.3356C66.5006 17.0823 66.2043 17.7986 65.6758 18.3271L33.4922 50.5108C32.9637 51.0393 32.2473 51.3356 31.5007 51.3356C30.754 51.3356 30.0376 51.0393 29.5091 50.5108L17.1588 38.1604C16.6303 37.6319 16.334 36.9156 16.334 36.1689V36.1689Z" stroke="url(#paint0_linear_120_4001)" stroke-width="2" stroke-miterlimit="10"/>
<path d="M23.2096 66.7246C21.7431 66.1798 20.3256 65.5358 18.9629 64.8008" stroke="#367FD3" stroke-width="2" stroke-miterlimit="10"/>
<path d="M16.1737 63.1182C11.8022 60.1852 8.15283 56.2605 5.54883 51.665" stroke="#367FD3" stroke-width="2" stroke-miterlimit="10"/>
<path d="M51.7948 11.1536C47.0465 7.8041 41.254 5.83594 35.0007 5.83594C18.8925 5.83594 5.83398 18.8944 5.83398 35.0026C5.83398 51.1108 18.8925 64.1693 35.0007 64.1693C51.1088 64.1693 64.1673 51.1108 64.1673 35.0026C64.1673 33.0939 63.9841 31.2284 63.6341 29.4213" stroke="#367FD3" stroke-width="2" stroke-miterlimit="10"/>
<defs>
<linearGradient id="paint0_linear_120_4001" x1="41.4173" y1="11.6689" x2="41.4173" y2="51.3356" gradientUnits="userSpaceOnUse">
<stop stop-color="#FD8C04"/>
<stop offset="1" stop-color="#FD8C04"/>
</linearGradient>
</defs>
</svg>
