<svg width="100" height="100" viewBox="0 0 100 100" fill="none" xmlns="http://www.w3.org/2000/svg">
<path d="M50.2878 57.5332C30.8554 57.5332 15.0452 73.3444 15.0452 92.7798C15.0452 93.6049 15.7138 94.2745 16.5399 94.2745H84.0357C84.8607 94.2745 85.5304 93.6049 85.5304 92.7798C85.5304 73.3444 69.7212 57.5332 50.2878 57.5332ZM18.0685 91.2851C18.8517 74.1894 33.0038 60.5227 50.2878 60.5227C67.5718 60.5227 81.7248 74.1894 82.507 91.2851H18.0685Z" fill="#1565C0"/>
<path d="M49.7006 13.333C38.512 13.333 29.4092 22.4359 29.4092 33.6244C29.4092 44.8129 38.512 53.9157 49.7006 53.9157C60.8901 53.9157 69.9919 44.8129 69.9919 33.6244C69.9919 22.4359 60.8891 13.333 49.7006 13.333ZM49.7006 50.9263C40.1602 50.9263 32.3986 43.1647 32.3986 33.6244C32.3986 24.0841 40.1602 16.3225 49.7006 16.3225C59.2409 16.3225 67.0025 24.0841 67.0025 33.6244C67.0025 43.1647 59.2409 50.9263 49.7006 50.9263Z" fill="#1565C0"/>
<path d="M25.0496 44.7321C25.8757 44.7321 26.5444 44.0634 26.5444 43.2373V23.8936C26.5444 23.7979 26.5334 23.7053 26.5165 23.6146C30.5213 14.3284 39.5245 8.36443 49.7016 8.36443C60.061 8.36443 69.2147 14.5446 73.105 24.1248V43.1247C71.8514 46.2118 70.0309 48.988 67.6742 51.3756C67.0942 51.9635 67.1002 52.9092 67.6881 53.4891C67.9791 53.7771 68.3588 53.9206 68.7384 53.9206C69.1241 53.9206 69.5097 53.7721 69.8017 53.4762C72.3128 50.9322 74.2808 47.9915 75.6739 44.7331H76.7242C82.8815 44.7331 87.8908 39.7237 87.8908 33.5665C87.8908 27.4092 82.8815 22.3999 76.7242 22.3999H75.6102C71.123 12.0335 61.0655 5.37598 49.7016 5.37598C38.3317 5.37598 28.2733 12.0325 23.7881 22.3999H22.9251C16.7679 22.3999 11.7585 27.4092 11.7585 33.5665C11.7585 39.7237 16.7679 44.7331 22.9251 44.7331H25.0496V44.7321ZM84.9014 33.5655C84.9014 38.0746 81.2323 41.7426 76.7242 41.7426H76.0944V25.3883H76.7242C81.2333 25.3883 84.9014 29.0564 84.9014 33.5655ZM14.748 33.5655C14.748 29.0564 18.416 25.3883 22.9251 25.3883H23.5549V41.7426H22.9251C18.416 41.7426 14.748 38.0746 14.748 33.5655Z" fill="#1565C0"/>
</svg>
