<svg width="101" height="100" viewBox="0 0 101 100" fill="none" xmlns="http://www.w3.org/2000/svg">
<path d="M92.8222 75.9562C92.869 75.8117 92.9009 75.6593 92.9009 75.4988V22.5582C92.9009 22.3968 92.869 22.2433 92.8212 22.0978C92.8142 22.0779 92.8102 22.058 92.8023 22.038C92.7385 21.8676 92.6448 21.7142 92.5272 21.5796C92.5193 21.5707 92.5183 21.5597 92.5103 21.5507C92.5053 21.5458 92.4993 21.5438 92.4944 21.5388C92.3688 21.4053 92.2203 21.2976 92.0539 21.2169C92.041 21.2109 92.031 21.203 92.018 21.197C91.8606 21.1262 91.6892 21.0864 91.5089 21.0744C91.4909 21.0734 91.474 21.0694 91.456 21.0694C91.4391 21.0684 91.4241 21.0645 91.4072 21.0645H8.49571C8.47877 21.0645 8.46282 21.0684 8.44588 21.0694C8.42994 21.0704 8.41399 21.0734 8.39805 21.0744C8.2157 21.0864 8.04131 21.1272 7.88188 21.199C7.87191 21.203 7.86394 21.2099 7.85398 21.2139C7.68458 21.2946 7.53411 21.4043 7.40756 21.5398C7.40257 21.5448 7.3966 21.5458 7.39161 21.5507C7.38364 21.5587 7.38265 21.5697 7.37467 21.5786C7.25709 21.7132 7.16242 21.8676 7.09865 22.038C7.09068 22.058 7.08669 22.0779 7.07972 22.0988C7.03189 22.2443 7 22.3978 7 22.5592V75.5008C7 75.6643 7.03288 75.8197 7.08171 75.9672C7.08869 75.9871 7.09267 76.0061 7.09965 76.026C7.16442 76.1974 7.26008 76.3518 7.37866 76.4864C7.38563 76.4943 7.38763 76.5043 7.3946 76.5123C7.40058 76.5193 7.40855 76.5232 7.41553 76.5302C7.46436 76.581 7.51817 76.6259 7.57397 76.6697C7.59888 76.6887 7.6208 76.7116 7.64671 76.7295C7.71248 76.7754 7.78323 76.8122 7.85597 76.8461C7.87391 76.8541 7.88985 76.867 7.90779 76.874C8.08815 76.9507 8.28645 76.9946 8.49471 76.9946H91.4052C91.6135 76.9946 91.8118 76.9517 91.9921 76.874C92.02 76.862 92.0459 76.8441 92.0728 76.8302C92.1346 76.7993 92.1964 76.7674 92.2532 76.7285C92.2831 76.7076 92.31 76.6807 92.3389 76.6578C92.3897 76.6169 92.4396 76.5761 92.4834 76.5292C92.4914 76.5213 92.5003 76.5153 92.5083 76.5073C92.5163 76.4983 92.5183 76.4864 92.5262 76.4774C92.6428 76.3439 92.7365 76.1904 92.8003 76.021C92.8102 75.9991 92.8152 75.9782 92.8222 75.9562ZM9.99041 25.9483L35.1484 48.9284L9.99041 72.0918V25.9483ZM61.5539 47.8023C61.4502 47.8701 61.3406 47.9269 61.2539 48.0226C61.2211 48.0584 61.2101 48.1053 61.1812 48.1431L49.951 58.401L12.3481 24.0529H87.5538L61.5539 47.8023ZM37.3645 50.9523L48.9425 61.528C49.2285 61.7891 49.5892 61.9196 49.951 61.9196C50.3127 61.9196 50.6734 61.7891 50.9584 61.528L62.3929 51.0838L87.5469 74.0051H12.3261L37.3645 50.9523ZM64.6101 49.0589L89.9115 25.9483V72.1158L64.6101 49.0589Z" fill="#1565C0"/>
</svg>
