<svg width="100" height="100" viewBox="0 0 100 100" fill="none" xmlns="http://www.w3.org/2000/svg">
<path d="M90.2651 66.3869H74.4589V54.2257H90.025C90.8501 54.2257 91.5197 53.556 91.5197 52.7309V35.9789C91.5197 35.1528 90.8501 34.4842 90.025 34.4842H74.6114V20.1466C74.6114 19.3206 73.9418 18.6519 73.1167 18.6519H33.8383V11.7701C33.8383 10.944 33.1697 10.2754 32.3436 10.2754H9.38364C8.55756 10.2754 7.88892 10.944 7.88892 11.7701V28.5232C7.88892 29.3493 8.55756 30.0179 9.38364 30.0179H19.3684V39.7197L19.6793 56.4439V66.1178H9.69554C8.86945 66.1178 8.20081 66.7875 8.20081 67.6126V84.3656C8.20081 85.1907 8.86945 85.8603 9.69554 85.8603H32.6555C33.4816 85.8603 34.1502 85.1907 34.1502 84.3656V67.6126C34.1502 66.7875 33.4816 66.1178 32.6555 66.1178H22.6697V56.416L22.3588 39.6918V30.0179H32.3446C33.1707 30.0179 33.8393 29.3493 33.8393 28.5232V21.6414H71.6229V34.4842H45.6965C44.8704 34.4842 44.2017 35.1528 44.2017 35.9789V52.7309C44.2017 53.556 44.8704 54.2257 45.6965 54.2257H71.4695V66.3869H45.4822C44.6561 66.3869 43.9875 67.0565 43.9875 67.8816V84.6346C43.9875 85.4597 44.6561 86.1294 45.4822 86.1294H90.2651C91.0902 86.1294 91.7599 85.4597 91.7599 84.6346V67.8816C91.7599 67.0565 91.0902 66.3869 90.2651 66.3869ZM31.1608 82.8708H11.1903V69.1073H31.1608V82.8708ZM30.8489 27.0284H10.8784V13.2649H30.8489V27.0284ZM47.1912 37.4736H88.5303V51.2362H47.1912V37.4736ZM88.7704 83.1399H46.9769V69.3764H88.7704V83.1399Z" fill="#1565C0"/>
</svg>
