<svg width="483" height="368" viewBox="0 0 483 368" fill="none" xmlns="http://www.w3.org/2000/svg">
<path d="M423.672 89.7219C425.282 98.5519 424.602 108.102 420.572 115.572C417.332 121.572 412.932 122.182 407.182 124.092C396.072 127.772 382.102 125.382 373.282 117.562C368.162 113.022 366.412 108.072 364.002 101.922C361.318 95.1097 357.682 88.7127 353.202 82.9219C350.112 78.7054 346.5 74.8983 342.452 71.5919C338.832 68.8019 334.312 65.5919 335.682 60.2919C336.682 56.4319 341.932 52.0319 345.682 50.6619C362.552 44.4919 386.812 50.5619 401.852 59.2119C409.272 63.4919 415.852 69.6019 419.612 77.2719C421.528 81.2166 422.894 85.4057 423.672 89.7219Z" fill="#367FD3"/>
<path d="M165.072 219.332C163.474 219.863 161.756 219.916 160.129 219.484C158.502 219.053 157.036 218.155 155.912 216.902C154.751 215.444 154.004 213.701 153.751 211.854C153.497 210.008 153.746 208.128 154.472 206.412C157.422 199.622 164.942 198.102 170.472 200.312C180.102 204.212 172.112 217.102 165.072 219.332Z" fill="#367FD3"/>
<path opacity="0.5" d="M305.912 58.7219C324.432 68.0319 338.642 83.1518 350.382 100.002C362.122 116.852 371.782 135.572 385.492 151.162C398.622 166.102 418.352 173.092 431.492 187.992C444.632 202.892 453.252 222.652 452.722 242.832C452.122 266.172 437.722 286.632 417.502 297.592C398.952 307.592 376.742 308.312 356.502 303.642C342.552 300.412 330.242 292.642 316.152 289.642C293.382 284.722 269.432 287.172 248.502 297.522C234.502 304.452 221.262 313.992 205.432 316.262C183.192 319.452 165.632 304.822 161.692 283.262C158.692 266.962 163.452 249.852 172.832 236.402C183.912 220.502 200.602 208.602 211.122 192.012C221.782 175.192 227.382 152.012 220.792 132.702C217.002 121.612 212.542 110.402 210.792 98.7019C208.792 84.9519 212.212 69.9618 222.262 59.9819C232.952 49.3619 252.262 46.9818 266.662 47.9218C280.34 48.837 293.691 52.5108 305.912 58.7219Z" fill="#367FD3"/>
<path d="M471.282 151.922C470.721 156.809 468.843 161.452 465.849 165.355C462.855 169.257 458.857 172.274 454.282 174.082C444.762 177.822 434.782 174.832 426.282 170.082C418.052 165.472 407.582 158.872 401.972 151.202C398.792 146.872 397.202 140.982 399.282 136.032C403.472 126.032 419.472 121.562 429.102 120.032C440.542 118.192 452.592 120.102 461.732 127.612C465.257 130.52 467.983 134.277 469.654 138.531C471.325 142.784 471.885 147.392 471.282 151.922Z" fill="#367FD3"/>
<path d="M167.282 139.391C167.834 136.313 169.457 133.529 171.862 131.531C175.145 129.021 179.16 127.654 183.292 127.641C188.041 127.444 192.73 128.76 196.682 131.401C206.182 137.941 210.522 151.401 209.682 162.481C208.86 172.494 204.151 181.788 196.562 188.371C193.172 191.281 189.052 193.651 184.562 193.801C176.012 194.091 172.562 187.151 174.792 179.681C176.382 174.351 180.882 170.191 179.792 164.271C178.932 159.751 174.792 156.741 171.542 153.521C169.75 151.681 168.427 149.436 167.686 146.977C166.944 144.518 166.806 141.916 167.282 139.391Z" fill="#367FD3"/>
<g style="mix-blend-mode:soft-light">
<path d="M265.002 196.682C264.482 195.572 262.822 195.262 261.302 195.982L260.472 196.372L259.522 192.562L261.222 191.752C261.761 191.549 262.233 191.2 262.586 190.745C262.939 190.289 263.159 189.745 263.222 189.172C263.224 188.92 263.17 188.67 263.062 188.442C262.532 187.332 260.872 187.012 259.352 187.742L258.462 188.162L257.462 184.352L259.232 183.512C259.771 183.307 260.244 182.956 260.597 182.499C260.95 182.042 261.17 181.496 261.232 180.922C261.233 180.67 261.179 180.42 261.072 180.192C260.542 179.092 258.882 178.772 257.362 179.492L256.362 179.942L255.412 176.142L257.242 175.272C257.781 175.066 258.253 174.715 258.606 174.258C258.958 173.801 259.179 173.256 259.242 172.682C259.244 172.43 259.19 172.18 259.082 171.952C258.552 170.842 256.892 170.532 255.372 171.252L254.812 171.512C249.812 152.212 254.552 139.512 257.392 126.512C259.722 115.972 260.802 105.272 254.392 90.7321C241.892 62.3621 209.212 49.2721 182.112 62.7321C160.562 72.5421 149.462 95.2721 152.432 117.922C153.289 124.392 155.251 130.666 158.232 136.472C174.352 167.962 199.142 158.642 220.612 187.742L220.062 188.002C219.533 188.215 219.072 188.567 218.729 189.022C218.385 189.476 218.172 190.016 218.112 190.582C218.109 190.838 218.163 191.091 218.272 191.322C218.792 192.432 220.452 192.742 221.972 192.022L223.872 191.122L226.222 194.262L225.222 194.752C224.682 194.956 224.21 195.304 223.857 195.76C223.504 196.215 223.284 196.759 223.222 197.332C223.219 197.584 223.273 197.834 223.382 198.062C223.912 199.172 225.572 199.492 227.092 198.762L228.922 197.892L231.282 201.032L230.282 201.492C229.742 201.698 229.27 202.049 228.918 202.506C228.565 202.963 228.345 203.508 228.282 204.082C228.28 204.334 228.334 204.584 228.442 204.812C228.972 205.922 230.632 206.232 232.142 205.512L233.922 204.662L236.272 207.812L235.372 208.242C234.842 208.453 234.38 208.805 234.036 209.26C233.692 209.715 233.48 210.255 233.422 210.822C233.42 211.074 233.474 211.324 233.582 211.552C234.112 212.662 235.772 212.982 237.282 212.252L239.022 211.422C242.022 214.892 248.092 215.542 253.522 212.962C253.68 212.892 253.834 212.812 253.982 212.722C259.132 210.082 262.262 205.122 261.472 200.722L263.142 199.932C263.671 199.723 264.132 199.373 264.476 198.92C264.82 198.467 265.033 197.928 265.092 197.362C265.108 197.132 265.077 196.9 265.002 196.682Z" fill="#1A2E44"/>
</g>
<path d="M277.431 53.012H277.361C274.461 53.522 272.421 56.612 271.781 60.572C271.781 60.722 271.461 60.722 271.441 60.572C270.781 56.572 268.761 53.512 265.861 53.002H265.801C265.795 52.9914 265.792 52.9793 265.792 52.967C265.792 52.9547 265.795 52.9427 265.801 52.932C265.811 52.9187 265.822 52.9074 265.836 52.8988C265.85 52.8902 265.865 52.8845 265.881 52.882C268.781 52.372 270.801 49.282 271.461 45.312C271.461 45.172 271.781 45.172 271.801 45.312C272.441 49.312 274.481 52.372 277.381 52.882C277.431 52.882 277.461 52.882 277.461 52.932C277.465 52.9392 277.467 52.9471 277.467 52.955C277.467 52.9629 277.466 52.9709 277.463 52.9783C277.46 52.9857 277.456 52.9926 277.451 52.9984C277.445 53.0041 277.439 53.0088 277.431 53.012Z" fill="white"/>
<path d="M383.002 75.7014C381.152 76.0314 379.842 78.0014 379.432 80.5414C379.432 80.6314 379.232 80.6314 379.212 80.5414C378.792 78.0014 377.502 76.0314 375.642 75.7014C375.642 75.7014 375.642 75.7014 375.692 75.7014C377.552 75.3714 378.842 73.4014 379.262 70.8614C379.262 70.7714 379.472 70.7714 379.482 70.8614C379.892 73.4014 381.202 75.3714 383.052 75.7014H383.002Z" fill="white"/>
<path d="M430.412 229.352H430.342C427.442 229.862 425.412 232.952 424.762 236.912C424.762 237.062 424.442 237.062 424.422 236.912C423.762 232.912 421.752 229.862 418.852 229.352H418.782C418.773 229.329 418.773 229.304 418.782 229.282C418.791 229.266 418.804 229.253 418.82 229.244C418.836 229.235 418.854 229.231 418.872 229.232C421.772 228.712 423.782 225.632 424.442 221.662C424.442 221.522 424.762 221.522 424.782 221.662C425.432 225.662 427.462 228.722 430.362 229.232C430.38 229.231 430.398 229.235 430.414 229.244C430.429 229.253 430.443 229.266 430.452 229.282C430.45 229.295 430.446 229.309 430.439 229.321C430.432 229.333 430.423 229.343 430.412 229.352Z" fill="white"/>
<path d="M449.572 148.041H449.502C446.602 148.551 444.562 151.641 443.922 155.601C443.922 155.751 443.602 155.751 443.582 155.601C442.922 151.601 440.902 148.541 438.002 148.031H437.942C437.936 148.021 437.933 148.009 437.933 147.996C437.933 147.984 437.936 147.972 437.942 147.961C437.951 147.948 437.963 147.937 437.977 147.928C437.991 147.92 438.006 147.914 438.022 147.911C440.922 147.401 442.942 144.311 443.602 140.341C443.602 140.201 443.922 140.201 443.942 140.341C444.582 144.341 446.622 147.401 449.522 147.911C449.572 147.911 449.602 147.911 449.602 147.961C449.605 147.969 449.607 147.976 449.607 147.984C449.608 147.992 449.607 148 449.604 148.008C449.601 148.015 449.597 148.022 449.591 148.028C449.586 148.033 449.579 148.038 449.572 148.041Z" fill="white"/>
<path d="M327.001 212.162C325.141 212.482 323.841 214.462 323.421 217.002C323.421 217.092 323.221 217.092 323.201 217.002C322.781 214.462 321.491 212.482 319.641 212.162H319.591C319.587 212.146 319.587 212.129 319.591 212.112C319.611 212.105 319.632 212.105 319.651 212.112C321.501 211.782 322.791 209.812 323.211 207.272C323.211 207.172 323.421 207.172 323.431 207.272C323.851 209.802 325.151 211.782 327.011 212.112C327.019 212.109 327.028 212.107 327.036 212.107C327.045 212.107 327.054 212.109 327.061 212.112C327.056 212.125 327.048 212.135 327.037 212.144C327.027 212.153 327.015 212.159 327.001 212.162Z" fill="white"/>
<path d="M317.822 223.532C315.962 223.862 314.662 225.842 314.252 228.382C314.252 228.472 314.042 228.472 314.032 228.382C313.612 225.842 312.322 223.862 310.462 223.532C310.462 223.532 310.462 223.532 310.512 223.532C312.372 223.202 313.662 221.222 314.082 218.682C314.082 218.592 314.282 218.592 314.302 218.682C314.712 221.222 316.012 223.202 317.872 223.532H317.922C317.922 223.532 317.832 223.522 317.822 223.532Z" fill="white"/>
<path d="M329.212 265.652C327.352 265.982 326.052 267.962 325.632 270.492C325.632 270.592 325.432 270.592 325.422 270.492C324.992 267.942 323.702 265.972 321.852 265.642H321.802L321.852 265.572C323.702 265.242 324.992 263.262 325.422 260.722C325.422 260.632 325.622 260.632 325.632 260.722C326.052 263.262 327.352 265.242 329.212 265.572H329.262C329.262 265.572 329.222 265.642 329.212 265.652Z" fill="white"/>
<path d="M194.852 173.252C193.002 173.582 191.692 175.562 191.282 178.102C191.282 178.192 191.082 178.192 191.062 178.102C190.642 175.562 189.352 173.582 187.492 173.252C187.5 173.248 187.509 173.246 187.517 173.246C187.526 173.246 187.534 173.248 187.542 173.252C189.402 172.922 190.692 170.942 191.112 168.412C191.112 168.312 191.322 168.312 191.332 168.412C191.742 170.942 193.052 172.922 194.902 173.252C194.922 173.245 194.943 173.245 194.962 173.252C194.962 173.252 194.862 173.242 194.852 173.252Z" fill="white"/>
<path d="M219.802 231.732H219.872C222.772 231.222 224.802 228.132 225.452 224.172C225.452 224.022 225.762 224.022 225.792 224.172C226.452 228.172 228.462 231.222 231.362 231.732H231.432C231.44 231.755 231.44 231.78 231.432 231.802C231.422 231.818 231.409 231.832 231.394 231.842C231.378 231.852 231.36 231.859 231.342 231.862C228.442 232.372 226.432 235.452 225.772 239.422C225.772 239.562 225.452 239.562 225.432 239.422C224.782 235.422 222.752 232.422 219.852 231.862C219.834 231.859 219.816 231.852 219.8 231.842C219.785 231.832 219.772 231.818 219.762 231.802C219.761 231.788 219.764 231.773 219.771 231.761C219.778 231.748 219.789 231.738 219.802 231.732Z" fill="white"/>
<path d="M302.451 137.712H302.521C305.421 137.202 307.451 134.112 308.101 130.152C308.101 130.002 308.411 130.002 308.441 130.152C309.101 134.152 311.111 137.152 314.011 137.712H314.081C314.09 137.734 314.09 137.759 314.081 137.782C314.072 137.797 314.059 137.811 314.043 137.821C314.027 137.832 314.01 137.839 313.991 137.842C311.091 138.352 309.081 141.432 308.421 145.402C308.421 145.542 308.101 145.542 308.081 145.402C307.431 141.402 305.401 138.352 302.501 137.842C302.483 137.839 302.465 137.832 302.45 137.821C302.434 137.811 302.421 137.797 302.411 137.782C302.41 137.767 302.413 137.753 302.42 137.74C302.428 137.728 302.438 137.718 302.451 137.712Z" fill="white"/>
<path d="M389.712 64.2322C387.862 64.5622 386.552 66.5422 386.142 69.0722C386.142 69.1722 385.942 69.1722 385.922 69.0722C385.502 66.5322 384.212 64.5522 382.352 64.2222C382.359 64.2186 382.368 64.2167 382.377 64.2167C382.385 64.2167 382.394 64.2186 382.402 64.2222C384.262 63.8922 385.552 61.9122 385.972 59.3722C385.972 59.2822 386.182 59.2822 386.192 59.3722C386.602 61.9122 387.912 63.8922 389.762 64.2222C389.781 64.2153 389.802 64.2153 389.822 64.2222C389.822 64.2222 389.722 64.2222 389.712 64.2322Z" fill="white"/>
<g style="mix-blend-mode:overlay" opacity="0.2">
<g style="mix-blend-mode:overlay" opacity="0.2">
<path d="M167.922 283.462C194.372 246.772 242.792 239.682 281.702 222.132C353.482 193.222 336.802 139.492 360.032 81.5017C374.142 54.7517 403.032 32.3717 431.812 24.0117C451.712 20.8817 475.812 31.3617 481.902 51.5717C487.972 86.4117 450.992 76.8017 429.902 75.7917C345.812 83.2717 362.082 154.592 330.772 208.232C314.102 231.792 284.412 246.432 275.692 273.932C268.072 297.932 278.362 327.282 263.182 347.382C246.132 368.382 205.532 370.382 180.062 365.632C149.422 352.882 150.352 306.852 167.922 283.462Z" fill="white"/>
</g>
<g style="mix-blend-mode:overlay" opacity="0.2">
<path d="M458.211 90.6222C426.011 76.9522 387.922 95.5622 369.752 123.402C360.902 135.632 360.571 151.002 357.961 165.452C355.133 181.492 350.158 197.079 343.172 211.792C335.722 227.392 318.951 235.922 308.801 249.612C296.151 266.702 290.301 286.852 288.801 307.862C287.901 320.182 290.971 333.862 299.371 343.152C318.851 352.922 319.522 295.022 320.232 284.252C323.082 271.092 322.082 257.782 327.512 245.402C337.372 226.082 359.352 216.672 370.512 198.582C393.592 164.192 347.261 125.282 403.431 107.802C419.951 103.142 437.521 108.492 454.221 106.142C461.611 104.702 465.681 94.5222 458.211 90.6222Z" fill="white"/>
</g>
<g style="mix-blend-mode:overlay" opacity="0.2">
<path d="M159.002 291.162C157.326 291.168 155.652 291.024 154.002 290.732C148.902 289.812 142.232 286.952 139.422 278.592C138.227 274.757 138.269 270.643 139.542 266.832C136.003 265.809 132.696 264.111 129.802 261.832C127.376 259.966 125.51 257.469 124.409 254.613C123.309 251.757 123.015 248.654 123.562 245.642C127.922 218.492 163.062 207.942 189.112 202.362L190.112 202.142L189.602 203.062C179.822 220.722 169.692 234.062 156.742 246.392L154.562 248.392C150.652 252.052 146.562 255.842 143.662 260.392C142.455 262.214 141.471 264.175 140.732 266.232C147.032 267.972 154.092 268.002 159.732 265.952C169.482 262.412 178.052 254.752 186.732 241.832C188.922 238.562 191.032 235.142 193.062 231.832C197.422 224.742 201.942 217.402 207.592 211.092C219.112 198.242 234.782 190.162 249.942 182.352C258.339 178.206 266.513 173.623 274.432 168.622C297.554 153.343 315.235 131.125 324.932 105.162C326.552 100.822 327.932 96.3022 329.342 91.9222C332.462 81.9222 335.702 71.6322 341.502 62.7422C348.891 51.5799 359.881 43.2861 372.642 39.2422C375.002 38.4822 377.482 37.8422 380.122 37.1522C390.312 34.5222 400.842 31.7922 405.742 22.1522C401.972 20.8822 395.282 18.9422 389.432 18.9022C385.429 19.0149 381.45 19.5546 377.562 20.5122C376.012 20.8422 374.402 21.1722 372.812 21.4522C361.709 23.3706 350.882 26.6381 340.572 31.1822C328.402 37.2622 319.052 46.4222 314.242 56.9722C312.062 61.7522 311.242 67.0322 310.392 72.1422C309.462 77.9422 308.502 83.9422 305.562 89.1422C294.472 107.062 276.052 110.262 252.732 114.322C227.862 118.662 196.912 124.042 165.472 150.722C157.202 157.022 148.272 164.842 144.592 175.182C143.542 178.102 142.952 185.522 145.592 188.682C146.066 189.258 146.692 189.689 147.399 189.928C148.106 190.166 148.865 190.203 149.592 190.032C154.002 189.312 158.502 180.552 161.482 174.762C162.302 173.152 163.022 171.762 163.602 170.762C170.857 158.956 180.427 148.741 191.736 140.733C203.044 132.724 215.857 127.087 229.402 124.162L229.602 125.102C216.172 128.013 203.47 133.614 192.264 141.568C181.058 149.522 171.58 159.664 164.402 171.382C163.842 172.322 163.132 173.692 162.312 175.292C159.242 181.292 154.612 190.292 149.722 191.072C148.833 191.271 147.907 191.218 147.046 190.919C146.186 190.621 145.426 190.089 144.852 189.382C141.942 185.902 142.552 178.132 143.682 174.952C147.452 164.372 156.512 156.432 164.872 150.062C196.492 123.232 227.582 117.822 252.562 113.472C275.652 109.472 293.882 106.282 304.742 88.7422C307.582 83.6722 308.492 78.0222 309.442 72.0422C310.272 66.8722 311.132 61.5222 313.372 56.6222C318.262 45.8822 327.782 36.5522 340.162 30.3622C350.551 25.7779 361.462 22.4834 372.652 20.5522C374.222 20.2822 375.822 19.9422 377.362 19.6222C381.249 18.6749 385.223 18.1287 389.222 17.9922H389.442C395.702 18.0422 402.862 20.1922 406.562 21.4622L407.072 21.6422L406.842 22.1222C401.842 32.5622 390.442 35.5122 380.362 38.1222C377.742 38.8022 375.262 39.4422 372.932 40.1922C360.384 44.1758 349.576 52.3302 342.302 63.3022C336.572 72.0822 333.362 82.3022 330.252 92.2422C328.882 96.6322 327.462 101.172 325.832 105.542C316.053 131.649 298.259 153.99 275.002 169.362C267.038 174.383 258.821 178.989 250.382 183.162C235.302 190.932 219.712 198.982 208.312 211.692C202.712 217.942 198.222 225.242 193.882 232.302C191.882 235.612 189.732 239.042 187.532 242.302C178.752 255.402 170.032 263.182 160.082 266.802C154.262 268.912 146.972 268.882 140.462 267.072C139.241 270.695 139.195 274.612 140.332 278.262C142.992 286.182 149.332 288.892 154.172 289.772C164.712 291.682 178.472 286.872 184.852 279.042C190.742 271.812 193.962 262.742 197.082 253.962C197.832 251.852 198.612 249.662 199.412 247.542C202.852 238.432 208.732 225.652 220.122 219.872C228.322 215.722 237.742 215.932 246.852 216.142C251.78 216.363 256.718 216.253 261.632 215.812C281.412 213.522 300.462 199.012 312.582 176.992C321.852 160.172 326.582 141.072 331.222 122.602C331.975 119.609 332.728 116.629 333.482 113.662C339.122 91.6622 354.112 33.2422 394.862 40.7922L394.692 41.7322C354.822 34.3422 340.002 92.1622 334.412 113.882C333.642 116.882 332.902 119.882 332.162 122.822C327.532 141.352 322.752 160.512 313.422 177.452C301.152 199.732 281.832 214.452 261.742 216.752C256.782 217.201 251.797 217.314 246.822 217.092C237.422 216.882 228.542 216.672 220.562 220.722C209.462 226.342 203.692 238.912 200.312 247.872C199.512 249.982 198.732 252.162 197.992 254.272C194.842 263.122 191.592 272.272 185.592 279.642C180.002 286.512 168.872 291.162 159.002 291.162ZM188.282 203.482C162.622 209.062 128.722 219.542 124.512 245.752C124.003 248.598 124.284 251.529 125.325 254.226C126.365 256.924 128.124 259.284 130.412 261.052C133.209 263.273 136.412 264.927 139.842 265.922C140.596 263.777 141.603 261.729 142.842 259.822C145.842 255.222 149.942 251.392 153.902 247.692L156.072 245.692C168.762 233.602 178.712 220.562 188.282 203.452V203.482Z" fill="white"/>
</g>
<g style="mix-blend-mode:overlay" opacity="0.2">
<path d="M364.151 334.852C362.831 332.352 361.421 329.772 359.971 327.112C344.861 299.332 326.051 264.772 350.051 238.232C357.491 230.732 367.911 227.162 377.981 223.712C389.981 219.602 402.331 215.362 409.431 204.512C414.001 197.382 415.001 188.652 415.961 180.212C416.431 176.142 416.961 171.942 417.781 167.932C423.241 140.932 449.071 120.302 476.551 120.822C479.421 120.822 481.271 121.822 481.751 123.432C481.873 123.722 481.931 124.035 481.921 124.349C481.91 124.663 481.832 124.971 481.691 125.252C480.831 126.942 477.691 127.792 472.991 129.072C464.731 131.302 452.261 134.682 443.931 145.482C430.271 160.912 431.291 174.642 432.381 189.182C432.951 196.822 433.541 204.722 432.131 213.332C429.351 223.102 421.801 230.332 414.511 237.252C412.271 239.392 409.951 241.602 407.821 243.832C385.591 267.212 378.001 303.312 389.001 333.662L388.091 333.982C377.001 303.302 384.651 266.812 407.131 243.162C409.271 240.912 411.591 238.692 413.841 236.552C421.051 229.682 428.501 222.552 431.201 213.112C432.571 204.672 431.991 196.832 431.421 189.242C430.321 174.502 429.281 160.572 443.191 144.862C451.701 133.862 464.361 130.402 472.731 128.132C476.891 127.002 480.171 126.132 480.841 124.802C480.921 124.633 480.962 124.449 480.962 124.262C480.962 124.075 480.921 123.891 480.841 123.722C480.351 122.042 477.931 121.782 476.531 121.772C449.531 121.262 424.091 141.602 418.721 168.122C417.851 172.122 417.381 176.272 416.911 180.312C415.911 188.862 414.911 197.702 410.241 205.022C403.001 216.162 390.421 220.462 378.291 224.612C368.291 228.032 358.011 231.612 350.741 238.892C327.221 264.892 345.851 299.142 360.821 326.652C362.261 329.312 363.671 331.902 365.001 334.402L364.151 334.852Z" fill="white"/>
</g>
</g>
<path d="M371.881 106.272C371.833 107.824 371.656 109.369 371.351 110.892C371.052 112.414 370.621 113.906 370.061 115.352C369.811 116.032 369.521 116.692 369.211 117.352C366.565 122.935 362.127 127.474 356.605 130.245C351.083 133.016 344.792 133.861 338.734 132.646C332.676 131.431 327.198 128.226 323.171 123.539C319.144 118.852 316.8 112.954 316.511 106.782C316.471 106.063 316.471 105.342 316.511 104.622C316.561 103.07 316.738 101.525 317.041 100.002C317.342 98.4853 317.77 96.9967 318.321 95.5521C318.581 94.8721 318.861 94.2121 319.181 93.5521C321.842 87.9849 326.284 83.4649 331.804 80.7083C337.324 77.9517 343.606 77.1163 349.655 78.3346C355.703 79.5528 361.172 82.7549 365.195 87.4334C369.218 92.112 371.564 97.9992 371.861 104.162C371.901 104.832 371.901 105.552 371.881 106.272Z" fill="#69AEFF"/>
<g style="mix-blend-mode:overlay" opacity="0.25">
<path d="M365.141 101.972C365.088 103.521 364.908 105.062 364.601 106.582C364.301 108.103 363.869 109.595 363.311 111.042C363.061 111.712 362.771 112.382 362.471 113.042C359.814 118.611 355.373 123.135 349.854 125.895C344.335 128.656 338.052 129.496 332.001 128.282C329.933 127.873 327.92 127.226 326.001 126.352C323.183 123.893 320.889 120.891 319.259 117.524C317.628 114.158 316.694 110.498 316.511 106.762C316.471 106.042 316.471 105.321 316.511 104.602C316.561 103.05 316.738 101.505 317.041 99.9816C317.342 98.4649 317.77 96.9762 318.321 95.5316C318.581 94.8516 318.861 94.1916 319.181 93.5316C322.292 86.9904 327.841 81.9278 334.639 79.4286C341.438 76.9295 348.945 77.1926 355.551 80.1616C358.392 82.6178 360.705 85.6248 362.35 89.0006C363.995 92.3764 364.938 96.0509 365.121 99.8016C365.151 100.522 365.151 101.242 365.141 101.972Z" fill="white"/>
</g>
<g style="mix-blend-mode:overlay" opacity="0.25">
<path d="M358.581 86.222V86.132L358.521 85.942C358.458 85.6978 358.364 85.4626 358.241 85.242C358.093 85.0038 357.903 84.7939 357.681 84.622L357.441 84.402L357.041 84.092L356.571 83.892L356.041 83.812C355.773 83.8 355.507 83.8623 355.271 83.992C355.106 84.0362 354.954 84.1223 354.831 84.242C354.686 84.3303 354.565 84.4542 354.481 84.602C354.356 84.7218 354.266 84.8741 354.221 85.042C354.112 85.2554 354.057 85.4923 354.061 85.732C353.983 85.9533 353.945 86.1872 353.951 86.422C353.942 86.6868 353.993 86.9502 354.101 87.192L354.171 87.362C354.221 87.482 354.271 87.592 354.311 87.712C354.407 87.9948 354.572 88.2492 354.791 88.452C354.928 88.5998 355.091 88.7218 355.271 88.812C355.619 89.0186 356.017 89.1259 356.421 89.122C356.723 89.1406 357.025 89.0749 357.291 88.932C357.571 88.8399 357.822 88.6782 358.021 88.462C358.297 88.1835 358.496 87.8393 358.601 87.462C358.691 87.265 358.722 87.0463 358.691 86.832C358.641 86.622 358.611 86.422 358.581 86.222Z" fill="white"/>
</g>
<g style="mix-blend-mode:overlay" opacity="0.25">
<path d="M354.051 90.2314C354.046 90.205 354.046 90.1779 354.051 90.1514V90.1614C354.051 90.1614 354.051 90.0914 354.051 90.0514C354.079 89.887 354.051 89.7181 353.971 89.5714C353.971 89.5714 353.971 89.5014 353.971 89.4714V89.3614C353.925 89.1667 353.828 88.9874 353.691 88.8414C353.625 88.7276 353.533 88.6315 353.421 88.5614C353.273 88.4236 353.09 88.3301 352.891 88.2914L352.481 88.2314L352.081 88.2914C351.883 88.3301 351.699 88.4236 351.551 88.5614C351.387 88.6691 351.252 88.8171 351.161 88.9914C351.063 89.1591 350.982 89.3367 350.921 89.5214C350.913 89.5508 350.913 89.5821 350.921 89.6114C350.841 89.9027 350.841 90.2102 350.921 90.5014L351.101 90.9114C351.121 90.9698 351.152 91.024 351.191 91.0714C351.294 91.2314 351.415 91.3791 351.551 91.5114L351.861 91.7514C352.029 91.8603 352.222 91.9224 352.421 91.9314C352.555 91.9712 352.698 91.9712 352.831 91.9314C353.031 91.9224 353.224 91.8603 353.391 91.7514L353.701 91.5114L353.941 91.2014C354.05 91.0342 354.112 90.8408 354.121 90.6414C354.119 90.502 354.096 90.3637 354.051 90.2314Z" fill="white"/>
</g>
<g style="mix-blend-mode:overlay" opacity="0.25">
<path d="M361.292 93.5014C361.219 93.2509 361.118 93.0094 360.992 92.7814C360.855 92.5715 360.705 92.371 360.542 92.1814L360.402 92.0214C360.172 91.8192 359.924 91.6384 359.662 91.4814L359.202 91.2914L358.702 91.2314L358.202 91.2914C357.959 91.345 357.734 91.4624 357.552 91.6314C357.415 91.7183 357.298 91.8344 357.212 91.9714C357.094 92.0866 357.011 92.232 356.972 92.3914C356.885 92.5363 356.839 92.7025 356.842 92.8714C356.802 93.056 356.802 93.2469 356.842 93.4314C356.837 93.518 356.837 93.6048 356.842 93.6914V93.6214C356.842 93.9214 356.842 94.2114 356.952 94.5114V94.6814C356.952 94.6814 356.952 94.6814 356.952 94.7514C357 94.9756 357.095 95.1869 357.232 95.3714C357.324 95.4884 357.408 95.6121 357.482 95.7414C357.749 96.1955 358.184 96.5258 358.694 96.6606C359.203 96.7954 359.745 96.7239 360.202 96.4614C360.498 96.2851 360.745 96.0377 360.922 95.7414C361.06 95.4687 361.173 95.1842 361.262 94.8914C361.412 94.4417 361.422 93.9572 361.292 93.5014Z" fill="white"/>
</g>
<g style="mix-blend-mode:overlay" opacity="0.25">
<path d="M356.681 127.162C356.664 126.971 356.638 126.78 356.601 126.592C356.514 126.242 356.33 125.923 356.071 125.672C355.851 125.438 355.586 125.252 355.293 125.123C354.999 124.994 354.682 124.926 354.361 124.922C353.855 124.945 353.363 125.097 352.931 125.362C352.671 125.492 352.421 125.642 352.171 125.792L351.461 126.212C351.103 126.411 350.803 126.7 350.591 127.052C350.345 127.442 350.235 127.903 350.279 128.363C350.322 128.822 350.516 129.254 350.831 129.592C351.092 129.902 351.441 130.125 351.831 130.232C352.31 130.366 352.82 130.338 353.281 130.152L354.051 129.872C354.501 129.712 354.931 129.532 355.371 129.342H355.471L355.951 128.972C356.183 128.758 356.366 128.498 356.49 128.209C356.615 127.919 356.676 127.607 356.671 127.292L356.681 127.162Z" fill="white"/>
</g>
<g style="mix-blend-mode:overlay" opacity="0.25">
<path d="M360.231 121.792C360.03 121.591 359.779 121.447 359.504 121.373C359.229 121.299 358.94 121.299 358.665 121.372C358.39 121.444 358.139 121.588 357.936 121.788C357.734 121.988 357.587 122.237 357.511 122.512V122.702V122.792C357.506 122.861 357.506 122.932 357.511 123.002C357.472 123.125 357.472 123.258 357.511 123.382C357.496 123.444 357.496 123.509 357.511 123.572L357.591 123.752C357.621 123.87 357.683 123.977 357.771 124.062C357.831 124.166 357.917 124.252 358.021 124.312C358.158 124.436 358.322 124.525 358.501 124.572C358.795 124.657 359.107 124.657 359.401 124.572H359.571C359.847 124.504 360.097 124.358 360.291 124.152C360.443 124.001 360.564 123.822 360.646 123.624C360.728 123.427 360.77 123.215 360.77 123.002C360.77 122.788 360.728 122.576 360.646 122.379C360.564 122.181 360.443 122.002 360.291 121.852L360.231 121.792Z" fill="white"/>
</g>
<g style="mix-blend-mode:overlay" opacity="0.25">
<path d="M370.001 106.012C370.001 105.942 370.001 105.882 370.001 105.812C369.998 105.535 369.926 105.264 369.791 105.022C369.795 104.999 369.795 104.975 369.791 104.952L369.631 104.632C369.521 104.441 369.362 104.282 369.17 104.172C368.979 104.062 368.762 104.004 368.541 104.004C368.321 104.004 368.104 104.062 367.912 104.172C367.721 104.282 367.562 104.441 367.451 104.632L367.301 104.932C367.298 104.958 367.298 104.985 367.301 105.012L367.131 105.402V105.792C367.137 105.865 367.137 105.939 367.131 106.012C367.091 106.387 367.171 106.766 367.361 107.092L367.571 107.392C367.678 107.574 367.83 107.725 368.011 107.832C368.201 107.946 368.42 108.005 368.641 108.002C368.863 108.007 369.082 107.948 369.271 107.832C369.456 107.725 369.611 107.574 369.721 107.392L369.911 107.102L370.061 106.732C370.106 106.583 370.127 106.427 370.121 106.272C370.001 106.162 370.001 106.082 370.001 106.012Z" fill="white"/>
</g>
<g style="mix-blend-mode:overlay" opacity="0.25">
<path d="M341.812 127.922C341.712 127.617 341.533 127.344 341.292 127.132C340.985 126.821 340.601 126.598 340.179 126.485C339.757 126.373 339.313 126.375 338.892 126.492C338.787 126.506 338.684 126.526 338.582 126.552L338.292 126.652C338.02 126.731 337.755 126.835 337.502 126.962L337.262 127.152L337.022 127.332L336.942 127.412C336.748 127.589 336.603 127.812 336.522 128.062C336.4 128.303 336.341 128.572 336.352 128.842L336.422 129.372C336.514 129.709 336.694 130.016 336.942 130.262C337.118 130.452 337.32 130.617 337.542 130.752L338.072 130.982H338.122H338.182L338.332 131.042L338.622 131.142H338.932C339.36 131.262 339.813 131.262 340.242 131.142C340.655 131.033 341.031 130.815 341.332 130.512L341.722 130.012C341.947 129.634 342.064 129.202 342.062 128.762C342.042 128.467 341.956 128.18 341.812 127.922Z" fill="white"/>
</g>
<g style="mix-blend-mode:overlay" opacity="0.25">
<path d="M329.452 114.431L329.012 113.431L328.862 113.201C328.833 113.162 328.809 113.118 328.792 113.071L328.732 112.831C328.769 112.369 328.714 111.903 328.572 111.461L328.472 111.191C328.285 110.537 327.935 109.941 327.454 109.46C326.973 108.979 326.376 108.628 325.722 108.441C325.038 108.251 324.316 108.251 323.632 108.441C322.978 108.625 322.38 108.968 321.892 109.441L321.722 109.601C321.696 109.622 321.673 109.646 321.652 109.671C321.241 110.045 320.937 110.521 320.772 111.051C320.622 111.368 320.518 111.705 320.462 112.051C320.31 112.744 320.253 113.454 320.292 114.161C320.292 114.611 320.402 115.051 320.472 115.501C320.467 115.581 320.467 115.662 320.472 115.741C320.472 115.831 320.542 115.911 320.572 116.001C320.742 116.411 320.902 116.821 321.092 117.211C321.172 117.371 321.262 117.521 321.352 117.671C321.602 118.021 321.872 118.355 322.162 118.671L323.042 119.351L324.042 119.791C324.432 119.932 324.85 119.979 325.262 119.931L326.392 119.781C326.931 119.659 327.427 119.397 327.832 119.021C328.148 118.84 328.411 118.578 328.592 118.261C328.964 117.854 329.225 117.358 329.352 116.821C329.405 116.615 329.438 116.404 329.452 116.191C329.612 115.616 329.612 115.007 329.452 114.431Z" fill="white"/>
</g>
<g style="mix-blend-mode:overlay" opacity="0.25">
<path d="M329.521 104.251C329.397 104.031 329.231 103.838 329.031 103.681L328.671 103.401L328.261 103.231L327.791 103.171C327.559 103.16 327.327 103.212 327.121 103.321C326.977 103.358 326.845 103.435 326.741 103.541C326.498 103.718 326.31 103.961 326.201 104.241C326.092 104.447 326.04 104.679 326.051 104.911V105.061C326.028 105.273 326.048 105.488 326.111 105.691C326.199 106.004 326.364 106.29 326.591 106.521L326.971 106.811C327.274 106.988 327.621 107.075 327.971 107.061C328.221 107.073 328.47 107.018 328.691 106.901C328.921 106.83 329.128 106.699 329.291 106.521C329.626 106.157 329.821 105.686 329.841 105.191C329.824 104.855 329.713 104.529 329.521 104.251Z" fill="white"/>
</g>
<g style="mix-blend-mode:overlay" opacity="0.25">
<path d="M353.672 113.722L353.582 113.062C353.505 112.748 353.35 112.459 353.132 112.222C353.028 112.038 352.876 111.885 352.692 111.782C352.454 111.563 352.165 111.408 351.852 111.332L351.192 111.242C350.844 111.221 350.498 111.297 350.192 111.462C349.984 111.518 349.794 111.629 349.642 111.782C349.373 111.953 349.152 112.19 349.002 112.472L348.812 112.912C348.752 113.032 348.702 113.152 348.652 113.272C348.514 113.54 348.448 113.84 348.462 114.142C348.462 114.242 348.462 114.342 348.462 114.442C348.466 114.55 348.483 114.657 348.512 114.762V114.812C348.572 114.982 348.642 115.142 348.712 115.292C348.883 115.588 349.127 115.836 349.422 116.012H349.492C349.74 116.181 350.032 116.274 350.332 116.282C350.624 116.356 350.93 116.356 351.222 116.282H351.332L351.732 116.162L352.322 115.912C352.606 115.762 352.847 115.541 353.022 115.272C353.175 115.119 353.285 114.93 353.342 114.722C353.506 114.415 353.582 114.069 353.562 113.722H353.672Z" fill="white"/>
</g>
<g style="mix-blend-mode:overlay" opacity="0.25">
<path d="M340.412 86.7323C340.394 86.2933 340.256 85.8677 340.012 85.5023L339.492 84.8223L338.822 84.3023C338.034 83.8937 337.127 83.7768 336.262 83.9723C335.991 84.0414 335.729 84.1421 335.482 84.2723C335.342 84.3282 335.205 84.3916 335.072 84.4623C334.881 84.5927 334.698 84.7329 334.522 84.8823L334.192 85.1223C333.561 85.4505 333.044 85.9633 332.712 86.5923C332.453 87.0278 332.318 87.5257 332.322 88.0323C332.3 88.414 332.383 88.7945 332.562 89.1323C332.676 89.4847 332.879 89.8016 333.152 90.0523C333.504 90.405 333.941 90.6601 334.422 90.7923L334.662 90.8823C335.126 91.012 335.617 91.012 336.082 90.8823C336.402 90.8823 336.722 90.8023 337.082 90.7423L337.622 90.6223H337.712L338.522 90.2823L338.632 90.2023C338.963 90.0208 339.267 89.7917 339.532 89.5223L340.052 88.8423C340.296 88.4769 340.434 88.0513 340.452 87.6123C340.517 87.3206 340.503 87.0169 340.412 86.7323Z" fill="white"/>
</g>
<path d="M410.372 113.361C399.502 110.461 386.322 107.301 371.872 104.111C371.872 104.831 371.872 105.551 371.872 106.281C406.742 113.971 430.712 120.811 434.732 123.611C429.942 124.611 405.192 121.701 370.052 115.351C361.662 113.841 352.662 112.121 343.212 110.231C333.762 108.341 324.812 106.441 316.472 104.601C281.602 96.9015 257.642 90.0715 253.622 87.2715C258.412 86.2715 283.152 89.1815 318.302 95.5315C318.552 94.8515 318.842 94.1815 319.142 93.5315C304.582 90.8915 291.192 88.7215 280.052 87.2115C251.772 83.3715 251.352 85.4915 251.052 86.7515C250.752 88.0115 250.432 90.1615 278.002 97.5015C288.872 100.411 302.072 103.581 316.522 106.761C324.932 108.611 333.772 110.471 342.822 112.291C351.872 114.111 360.752 115.801 369.222 117.341C383.782 119.971 397.222 122.141 408.312 123.651C436.602 127.491 437.022 125.381 437.312 124.111C437.602 122.841 437.942 120.731 410.372 113.361Z" fill="white"/>
<g style="mix-blend-mode:soft-light">
<path d="M415.091 8.63182C413.823 6.51318 412.128 4.68134 410.113 3.25252C408.099 1.82371 405.81 0.829108 403.391 0.331818C401.918 0.0327337 400.411 -0.0648249 398.911 0.0418178C390.571 0.571818 383.161 7.13182 381.331 16.3518L379.001 27.9318H378.731C377.935 28.086 377.205 28.4784 376.637 29.057C376.069 29.6356 375.691 30.3731 375.551 31.1718C375.363 32.0046 375.451 32.8762 375.803 33.6541C376.155 34.4321 376.751 35.0738 377.501 35.4818L375.501 45.4818L375.261 46.6718L372.001 63.4218C371.912 63.4129 371.821 63.4129 371.731 63.4218C370.935 63.5735 370.203 63.9636 369.634 64.5404C369.064 65.1173 368.683 65.8536 368.541 66.6518C368.351 67.4874 368.439 68.3622 368.791 69.1436C369.143 69.925 369.74 70.5703 370.491 70.9818L327.691 286.052L334.781 317.162L336.301 323.782C336.391 324.198 336.566 324.59 336.816 324.935C337.065 325.279 337.384 325.568 337.751 325.782C338.007 325.926 338.284 326.027 338.571 326.082C339.131 326.184 339.709 326.12 340.233 325.898C340.757 325.675 341.205 325.305 341.521 324.832L345.521 319.292L364.011 293.292L406.811 78.2318H407.081C407.879 78.0795 408.612 77.6879 409.182 77.1091C409.751 76.5304 410.131 75.7919 410.271 74.9918C410.463 74.1601 410.377 73.2887 410.026 72.5105C409.676 71.7323 409.081 71.0901 408.331 70.6818L410.331 60.6818L411.901 52.8118L413.901 42.8118H414.181C414.978 42.6601 415.709 42.27 416.279 41.6932C416.849 41.1164 417.23 40.3801 417.371 39.5818C417.545 38.7425 417.444 37.8697 417.084 37.0919C416.724 36.3142 416.124 35.6726 415.371 35.2618L417.691 23.6618C418.754 18.5033 417.825 13.1336 415.091 8.63182Z" fill="#1A2E44"/>
</g>
<path d="M189.412 282.632C189.465 292.401 186.253 301.907 180.285 309.641C174.317 317.375 165.936 322.894 156.473 325.319C147.011 327.745 137.009 326.939 128.056 323.03C119.104 319.121 111.714 312.332 107.062 303.742C106.512 302.742 106.062 301.742 105.552 300.672C103.563 296.179 102.33 291.388 101.902 286.492C101.812 285.352 101.752 284.212 101.752 283.072C101.703 273.303 104.92 263.797 110.891 256.064C116.862 248.331 125.245 242.814 134.709 240.389C144.173 237.964 154.175 238.769 163.129 242.678C172.083 246.586 179.475 253.373 184.132 261.962C184.682 262.962 185.182 263.962 185.642 265.032C186.631 267.277 187.437 269.598 188.052 271.972C188.052 272.142 188.132 272.302 188.162 272.462C188.705 274.68 189.077 276.937 189.272 279.212C189.372 280.352 189.422 281.492 189.412 282.632Z" fill="#1565C0"/>
<g style="mix-blend-mode:overlay" opacity="0.25">
<path d="M188.162 272.462C187.75 281.116 184.516 289.397 178.954 296.04C173.392 302.683 165.808 307.323 157.361 309.25C148.915 311.177 140.069 310.286 132.176 306.713C124.283 303.139 117.777 297.08 113.652 289.462C113.152 288.555 112.692 287.625 112.272 286.672C110.486 282.601 109.371 278.269 108.972 273.842C108.902 272.842 108.842 271.772 108.842 270.752C108.814 265.104 109.993 259.516 112.302 254.362C116.929 248.966 122.798 244.775 129.404 242.152C136.01 239.528 143.154 238.549 150.222 239.3C157.291 240.051 164.07 242.509 169.977 246.461C175.885 250.414 180.742 255.744 184.132 261.992C184.682 262.992 185.182 263.992 185.642 265.062C186.632 267.306 187.437 269.627 188.052 272.002C188.092 272.162 188.132 272.302 188.162 272.462Z" fill="white"/>
</g>
<g style="mix-blend-mode:overlay" opacity="0.25">
<path d="M183.762 272.842C183.711 272.265 183.631 271.691 183.522 271.122C183.239 270.241 182.752 269.44 182.102 268.782C181.56 268.242 180.886 267.855 180.146 267.66C179.407 267.465 178.629 267.469 177.892 267.672C177.18 267.881 176.533 268.266 176.009 268.79C175.485 269.314 175.101 269.961 174.892 270.672C174.698 271.257 174.594 271.867 174.582 272.482C174.582 272.552 174.582 272.632 174.582 272.702C174.522 272.992 174.452 273.272 174.372 273.552C174.292 273.832 174.232 274.042 174.152 274.272C174.072 274.502 174.062 274.542 174.022 274.672L173.852 275.902C173.852 276.072 173.902 276.242 173.922 276.412C173.929 277.107 174.103 277.79 174.43 278.402C174.757 279.015 175.227 279.54 175.8 279.933C176.373 280.325 177.033 280.574 177.722 280.657C178.412 280.741 179.111 280.657 179.762 280.412L179.902 280.362C180.599 280.127 181.235 279.738 181.762 279.222C182.088 278.867 182.377 278.478 182.622 278.062C182.906 277.564 183.147 277.042 183.342 276.502C183.614 275.729 183.772 274.921 183.812 274.102C183.836 273.682 183.819 273.26 183.762 272.842Z" fill="white"/>
</g>
<g style="mix-blend-mode:overlay" opacity="0.25">
<path d="M179.652 285.552C179.412 285.137 179.067 284.792 178.652 284.552C178.009 284.207 177.262 284.107 176.552 284.272C176.098 284.397 175.684 284.639 175.352 284.972C175.261 285.057 175.184 285.155 175.122 285.262C174.88 285.528 174.711 285.852 174.632 286.202C174.63 286.226 174.63 286.249 174.632 286.272C174.632 286.322 174.632 286.372 174.632 286.422C174.393 287.023 174.341 287.681 174.482 288.312L174.762 288.992C174.762 289.042 174.832 289.072 174.862 289.122C174.892 289.172 174.922 289.282 174.962 289.362C175.154 289.686 175.426 289.954 175.752 290.142C176.088 290.341 176.471 290.445 176.862 290.442C177.083 290.441 177.302 290.404 177.512 290.332C177.884 290.315 178.246 290.201 178.562 290.002L179.132 289.562C179.476 289.215 179.724 288.784 179.852 288.312C179.929 287.946 179.985 287.575 180.022 287.202C180.022 287.132 180.022 287.072 180.022 287.002C180.047 286.493 179.918 285.987 179.652 285.552Z" fill="white"/>
</g>
<g style="mix-blend-mode:overlay" opacity="0.25">
<path d="M164.552 298.922C164.389 298.603 164.144 298.333 163.842 298.142C163.577 297.896 163.253 297.724 162.902 297.642C162.428 297.514 161.929 297.513 161.455 297.639C160.981 297.766 160.549 298.015 160.202 298.362C159.91 298.623 159.654 298.922 159.442 299.251C159.213 299.654 159.093 300.109 159.093 300.572C159.093 301.034 159.213 301.489 159.442 301.892C159.673 302.278 159.996 302.6 160.382 302.832C160.784 303.07 161.244 303.194 161.712 303.191C162.115 303.169 162.514 303.102 162.902 302.991C163.363 302.86 163.783 302.612 164.122 302.271C164.461 301.934 164.706 301.513 164.832 301.052L164.932 300.311C164.933 299.822 164.802 299.342 164.552 298.922Z" fill="white"/>
</g>
<g style="mix-blend-mode:overlay" opacity="0.25">
<path d="M132.712 252.722C132.682 252.089 132.485 251.475 132.142 250.942C131.509 249.868 130.483 249.083 129.282 248.752L128.012 248.582C127.165 248.58 126.333 248.805 125.602 249.232C124.872 249.542 124.152 249.862 123.442 250.232L122.442 250.732C121.916 250.97 121.444 251.31 121.052 251.732C120.755 252.077 120.478 252.437 120.222 252.812C119.986 253.182 119.811 253.587 119.702 254.012L119.552 255.182C119.52 255.773 119.651 256.361 119.932 256.882C120.025 257.26 120.218 257.605 120.492 257.882C120.803 258.36 121.229 258.752 121.732 259.022C122.116 259.229 122.522 259.393 122.942 259.512C123.401 259.602 123.865 259.662 124.332 259.692C124.922 259.725 125.512 259.615 126.052 259.372L127.162 258.952C128.272 258.522 129.362 258.052 130.452 257.582C130.994 257.291 131.455 256.868 131.792 256.352C132.197 255.868 132.491 255.301 132.653 254.691C132.815 254.081 132.842 253.443 132.732 252.822L132.712 252.722Z" fill="white"/>
</g>
<g style="mix-blend-mode:overlay" opacity="0.25">
<path d="M120.372 260.742C120.333 260.416 120.217 260.104 120.032 259.832C119.882 259.566 119.689 259.326 119.462 259.122L118.852 258.652C118.521 258.434 118.138 258.31 117.742 258.292C117.48 258.222 117.204 258.222 116.942 258.292C116.547 258.31 116.163 258.434 115.832 258.652C115.572 258.803 115.33 258.984 115.112 259.192C114.725 259.593 114.443 260.085 114.292 260.622V260.712C114.031 261.633 114.138 262.619 114.592 263.462C114.862 263.935 115.252 264.328 115.722 264.602C116.072 264.827 116.476 264.955 116.892 264.972C117.309 265.072 117.746 265.051 118.152 264.912C118.678 264.766 119.157 264.487 119.542 264.102C119.945 263.71 120.232 263.216 120.372 262.672C120.377 262.639 120.377 262.605 120.372 262.572C120.444 262.27 120.488 261.962 120.502 261.652C120.479 261.346 120.435 261.042 120.372 260.742Z" fill="white"/>
</g>
<g style="mix-blend-mode:overlay" opacity="0.25">
<path d="M128.332 264.421C128.202 264.039 127.979 263.695 127.682 263.421C127.288 263.027 126.796 262.744 126.256 262.601C125.717 262.459 125.149 262.462 124.612 262.611L124.482 262.661L123.742 262.971C123.387 263.158 123.088 263.434 122.872 263.771C122.684 263.962 122.547 264.195 122.472 264.451C122.281 264.818 122.191 265.229 122.212 265.641C122.212 265.921 122.282 266.191 122.322 266.471C122.362 266.751 122.522 266.961 122.632 267.211C122.816 267.565 123.092 267.862 123.432 268.071C123.713 268.338 124.057 268.531 124.432 268.631L124.562 268.681C125.099 268.83 125.667 268.834 126.206 268.691C126.746 268.549 127.238 268.266 127.632 267.871C127.792 267.661 127.952 267.441 128.122 267.231C128.403 266.749 128.552 266.2 128.552 265.641C128.582 265.223 128.506 264.803 128.332 264.421Z" fill="white"/>
</g>
<g style="mix-blend-mode:overlay" opacity="0.25">
<path d="M158.002 247.361C157.843 246.797 157.539 246.283 157.122 245.871L157.042 245.801C156.625 245.38 156.104 245.076 155.532 244.921C155.207 244.828 154.869 244.788 154.532 244.801H154.142C153.607 244.8 153.083 244.942 152.622 245.211C152.177 245.476 151.806 245.847 151.542 246.291C151.278 246.748 151.14 247.265 151.14 247.791C151.14 248.318 151.278 248.835 151.542 249.291L151.722 249.651V249.741L152.262 250.431C152.667 250.836 153.17 251.129 153.722 251.281C154.055 251.427 154.419 251.489 154.782 251.461C155.362 251.464 155.933 251.308 156.432 251.011C156.804 250.817 157.118 250.527 157.342 250.171C157.632 249.859 157.835 249.477 157.932 249.061C158.098 248.51 158.122 247.925 158.002 247.361Z" fill="white"/>
</g>
<g style="mix-blend-mode:overlay" opacity="0.25">
<path d="M117.092 285.562C117.092 285.392 116.992 285.232 116.942 285.072C116.852 284.752 116.772 284.442 116.712 284.072C116.652 283.702 116.532 283.452 116.452 283.142C116.285 282.319 115.878 281.564 115.282 280.972C115.004 280.71 114.699 280.479 114.372 280.282C114.052 280.132 113.732 279.992 113.372 279.872C112.685 279.682 111.959 279.682 111.272 279.872C110.925 279.991 110.591 280.142 110.272 280.322C109.637 280.695 109.11 281.225 108.742 281.862C108.355 282.553 108.149 283.33 108.142 284.122V284.342C108.108 284.674 108.108 285.01 108.142 285.342C108.216 286.05 108.326 286.755 108.472 287.452C108.566 287.979 108.756 288.484 109.032 288.942L109.162 289.112C109.575 289.784 110.145 290.347 110.822 290.752C111.479 291.139 112.229 291.343 112.992 291.342C114.108 291.283 115.169 290.838 115.992 290.082C116.516 289.553 116.898 288.899 117.102 288.182C117.325 287.322 117.321 286.42 117.092 285.562Z" fill="white"/>
</g>
<g style="mix-blend-mode:overlay" opacity="0.25">
<path d="M112.682 294.521V294.441V294.351C112.439 293.938 112.095 293.594 111.682 293.351C111.473 293.237 111.24 293.172 111.002 293.161H110.932C110.701 293.114 110.467 293.084 110.232 293.071C109.998 293.061 109.765 293.091 109.542 293.161C109.117 293.279 108.731 293.507 108.422 293.821C108.101 294.143 107.87 294.543 107.752 294.981V295.041C107.622 295.513 107.622 296.01 107.752 296.481L108.022 297.121L108.452 297.681V297.751L108.512 297.821C108.586 297.916 108.682 297.991 108.792 298.041C109.05 298.27 109.358 298.435 109.692 298.521C109.692 298.521 110.192 298.601 110.422 298.611H110.532L111.192 298.521C111.505 298.448 111.794 298.297 112.032 298.081C112.219 297.974 112.375 297.819 112.482 297.631C112.701 297.396 112.853 297.106 112.922 296.791V296.671C112.99 296.434 113.024 296.188 113.022 295.941C113.045 295.445 112.927 294.953 112.682 294.521Z" fill="white"/>
</g>
<g style="mix-blend-mode:overlay" opacity="0.25">
<path d="M137.282 317.812L136.812 317.212C136.567 316.936 136.276 316.706 135.952 316.532L135.292 316.232C134.969 316.077 134.634 315.946 134.292 315.842L133.922 315.742L133.602 315.652H133.442C133.056 315.553 132.655 315.532 132.262 315.592C131.819 315.598 131.386 315.717 131.002 315.937C130.619 316.158 130.299 316.473 130.072 316.852C129.849 317.24 129.731 317.68 129.731 318.127C129.731 318.575 129.849 319.014 130.072 319.402L130.182 319.552C130.267 319.731 130.378 319.896 130.512 320.042C130.705 320.35 130.978 320.598 131.302 320.762L131.382 320.832L131.652 321.042C131.835 321.2 132.033 321.34 132.242 321.462L132.882 321.812C133.19 321.996 133.529 322.125 133.882 322.192L134.692 322.302C135.216 322.304 135.731 322.162 136.182 321.892L136.782 321.432C136.949 321.241 137.106 321.041 137.252 320.832C137.515 320.376 137.653 319.859 137.653 319.332C137.653 318.806 137.515 318.288 137.252 317.832L137.282 317.812Z" fill="white"/>
</g>
<g style="mix-blend-mode:overlay" opacity="0.25">
<path d="M144.511 320.282C144.42 319.903 144.226 319.557 143.951 319.282C143.811 319.162 143.661 319.052 143.511 318.942C143.179 318.743 142.799 318.639 142.411 318.642H142.201L141.631 318.712L141.111 318.932L140.681 319.272L140.601 319.352C140.468 319.474 140.353 319.615 140.261 319.772L140.071 320.232C139.952 320.735 140.019 321.265 140.261 321.722C140.261 321.722 140.541 322.092 140.571 322.122L140.641 322.202L141.071 322.542L141.591 322.752L142.161 322.832H142.211H142.371C142.663 322.845 142.954 322.78 143.211 322.642C143.473 322.541 143.711 322.387 143.909 322.189C144.107 321.991 144.261 321.753 144.361 321.492C144.499 321.234 144.565 320.944 144.551 320.652L144.511 320.282Z" fill="white"/>
</g>
<g style="mix-blend-mode:overlay" opacity="0.25">
<path d="M174.572 308.162C174.507 307.886 174.373 307.631 174.182 307.422C174.032 307.184 173.821 306.991 173.572 306.862C173.33 306.703 173.05 306.613 172.762 306.602C172.48 306.527 172.183 306.527 171.902 306.602C171.523 306.693 171.177 306.887 170.902 307.162L170.502 307.572L170.402 307.662L170.352 307.712L170.172 307.942C169.989 308.143 169.861 308.387 169.802 308.652C169.802 308.732 169.752 308.812 169.722 308.882C169.629 309.213 169.627 309.563 169.715 309.895C169.802 310.227 169.978 310.53 170.222 310.772C170.462 311.008 170.757 311.18 171.082 311.272C171.41 311.357 171.754 311.357 172.082 311.272H172.342C172.602 311.217 172.845 311.1 173.052 310.932L173.502 310.612C173.827 310.426 174.096 310.157 174.282 309.832C174.352 309.662 174.432 309.492 174.502 309.312C174.625 308.941 174.649 308.545 174.572 308.162Z" fill="white"/>
</g>
<path d="M245.352 248.712C227.872 252.042 206.912 256.582 184.132 261.962C184.672 262.962 185.182 263.962 185.642 265.032C240.642 252.032 279.452 245.352 287.102 246.592C280.992 251.352 243.702 264.142 189.272 279.212C176.272 282.822 162.272 286.552 147.512 290.342C132.752 294.132 118.682 297.582 105.512 300.672C50.5119 313.672 11.6919 320.352 4.04194 319.112C10.1519 314.362 47.4319 301.562 101.882 286.492C101.782 285.352 101.732 284.212 101.722 283.072C79.1619 289.312 58.5919 295.412 41.7219 300.902C-1.22806 314.842 -0.388057 318.162 0.121943 320.162C0.631943 322.162 1.47194 325.432 45.8219 317.012C63.2919 313.702 84.2719 309.152 107.062 303.762C120.312 300.632 134.192 297.212 148.332 293.592C162.472 289.972 176.332 286.292 189.422 282.662C211.982 276.422 232.552 270.322 249.472 264.822C292.412 250.882 291.562 247.582 291.062 245.602C290.562 243.622 289.702 240.292 245.352 248.712Z" fill="#FFC74C"/>
<path d="M262.221 121.602C259.221 135.052 254.291 148.252 260.221 168.862L226.801 184.762C205.011 153.292 179.492 163.762 163.022 131.552C160.042 125.749 158.08 119.478 157.221 113.012C154.221 90.3518 165.351 67.6218 186.901 57.8118C214.001 44.3618 246.681 57.4418 259.181 85.8118C265.621 100.362 264.541 111.052 262.221 121.602Z" fill="#FFC74C"/>
<path d="M215.382 158.521H215.202C213.703 158.264 212.306 157.59 211.171 156.577C210.036 155.564 209.208 154.252 208.782 152.791C208.152 150.231 208.962 147.211 211.002 144.511C212.696 142.243 215.095 140.6 217.822 139.841C218.258 139.105 218.767 138.415 219.342 137.781C221.115 135.956 223.285 134.564 225.684 133.714C228.083 132.864 230.645 132.579 233.172 132.881C233.331 132.902 233.488 132.932 233.642 132.971C237.252 130.711 242.272 129.971 245.402 132.431C246.323 133.176 247.047 134.135 247.509 135.225C247.971 136.315 248.158 137.502 248.052 138.681C247.823 140.983 247.193 143.226 246.192 145.311C246.102 145.522 245.932 145.689 245.719 145.774C245.506 145.859 245.268 145.857 245.057 145.766C244.846 145.676 244.68 145.506 244.595 145.293C244.509 145.08 244.512 144.842 244.602 144.631C245.518 142.746 246.099 140.716 246.322 138.631C246.4 137.727 246.259 136.816 245.911 135.977C245.563 135.138 245.018 134.395 244.322 133.811C242.152 132.121 238.672 132.401 235.792 133.811C237.232 134.503 238.418 135.629 239.182 137.031C239.62 137.867 239.855 138.795 239.867 139.738C239.879 140.682 239.668 141.615 239.252 142.461C238.958 143.114 238.537 143.701 238.013 144.189C237.49 144.676 236.874 145.055 236.202 145.301C235.434 145.538 234.621 145.595 233.827 145.468C233.033 145.342 232.279 145.035 231.622 144.571C230.973 144.132 230.424 143.56 230.013 142.893C229.601 142.225 229.335 141.479 229.232 140.701C229.129 139.732 229.23 138.752 229.528 137.824C229.826 136.896 230.314 136.04 230.962 135.311C231.192 135.041 231.442 134.781 231.702 134.531C229.641 134.471 227.589 134.838 225.676 135.611C223.764 136.384 222.033 137.545 220.592 139.021C220.402 139.241 220.212 139.451 220.042 139.681C221.663 139.739 223.221 140.325 224.478 141.35C225.735 142.376 226.621 143.785 227.002 145.361C227.398 146.573 227.398 147.88 227.002 149.091C226.708 149.839 226.245 150.51 225.65 151.051C225.056 151.592 224.345 151.989 223.572 152.211C222.385 152.52 221.128 152.414 220.008 151.913C218.888 151.411 217.973 150.543 217.412 149.451C216.798 148.315 216.427 147.063 216.322 145.775C216.217 144.488 216.381 143.193 216.802 141.971C215.04 142.765 213.504 143.985 212.332 145.521C210.612 147.811 209.912 150.311 210.422 152.361C210.769 153.509 211.432 154.535 212.336 155.322C213.24 156.109 214.348 156.626 215.532 156.811C215.733 156.865 215.909 156.989 216.026 157.161C216.144 157.333 216.196 157.541 216.173 157.748C216.15 157.955 216.053 158.147 215.901 158.289C215.749 158.431 215.55 158.513 215.342 158.521H215.382ZM219.002 141.361C218.413 142.479 218.105 143.723 218.105 144.986C218.105 146.25 218.413 147.494 219.002 148.611C219.367 149.369 219.978 149.98 220.736 150.343C221.494 150.707 222.353 150.801 223.172 150.611C223.685 150.463 224.157 150.201 224.554 149.844C224.95 149.488 225.261 149.046 225.462 148.551C225.723 147.677 225.698 146.741 225.392 145.881C225.102 144.881 223.842 141.411 220.012 141.351C219.676 141.335 219.338 141.339 219.002 141.361ZM234.002 134.811C233.396 135.246 232.845 135.753 232.362 136.321C231.868 136.865 231.492 137.507 231.26 138.204C231.027 138.901 230.943 139.64 231.012 140.371C231.083 140.912 231.268 141.43 231.556 141.893C231.845 142.355 232.228 142.75 232.682 143.051C233.113 143.354 233.606 143.557 234.125 143.645C234.644 143.733 235.176 143.705 235.682 143.561C236.576 143.2 237.294 142.504 237.682 141.621C237.995 141.019 238.158 140.35 238.158 139.671C238.158 138.993 237.995 138.324 237.682 137.721C236.868 136.297 235.524 135.251 233.942 134.811H234.002Z" fill="url(#paint0_linear_295_4261)"/>
<path d="M255.112 171.212C255 171.213 254.893 171.17 254.811 171.094C254.729 171.018 254.68 170.914 254.672 170.802L249.932 119.622C249.92 119.503 249.956 119.384 250.032 119.291C250.108 119.198 250.218 119.139 250.337 119.127C250.456 119.115 250.575 119.151 250.668 119.227C250.761 119.303 250.82 119.413 250.832 119.532L255.562 170.722C255.569 170.781 255.564 170.84 255.547 170.897C255.531 170.954 255.503 171.006 255.466 171.052C255.429 171.098 255.382 171.136 255.33 171.163C255.278 171.191 255.221 171.207 255.162 171.212H255.112Z" fill="#1A2E44"/>
<path d="M231.882 182.262C231.765 182.262 231.651 182.219 231.562 182.142L194.842 146.142C194.766 146.057 194.726 145.946 194.729 145.831C194.732 145.717 194.778 145.608 194.858 145.527C194.938 145.445 195.046 145.398 195.16 145.393C195.274 145.388 195.386 145.427 195.472 145.502L232.192 181.502C232.276 181.588 232.322 181.702 232.322 181.822C232.322 181.941 232.276 182.056 232.192 182.142C232.109 182.221 231.997 182.264 231.882 182.262Z" fill="#1A2E44"/>
<path d="M258.912 207.801C258.764 207.891 258.61 207.971 258.452 208.041C252.822 210.721 246.452 209.931 243.622 206.111L227.622 184.701L243.382 177.201L259.862 169.361L266.352 195.361C267.442 199.821 264.262 205.061 258.912 207.801Z" fill="#B6D7FF"/>
<g style="mix-blend-mode:overlay" opacity="0.1">
<path d="M258.912 207.802L243.342 177.162L259.822 169.322L266.312 195.322C267.442 199.822 264.262 205.062 258.912 207.802Z" fill="white"/>
</g>
<path d="M264.061 167.721C263.998 168.295 263.778 168.841 263.426 169.298C263.073 169.754 262.601 170.105 262.061 170.311L247.841 177.071L226.761 187.071C225.241 187.791 223.581 187.481 223.061 186.371C222.953 186.14 222.899 185.887 222.901 185.631C222.962 185.065 223.175 184.526 223.519 184.071C223.862 183.617 224.323 183.264 224.851 183.051L245.851 173.051L260.181 166.241C261.701 165.521 263.362 165.831 263.892 166.941C264.011 167.184 264.069 167.451 264.061 167.721Z" fill="#0080D1"/>
<path d="M266.052 175.962C265.99 176.536 265.771 177.082 265.418 177.539C265.065 177.996 264.592 178.346 264.052 178.552L251.602 184.472L231.902 193.842C230.382 194.572 228.722 194.252 228.192 193.142C228.084 192.914 228.029 192.664 228.032 192.412C228.095 191.839 228.315 191.295 228.668 190.839C229.021 190.384 229.493 190.035 230.032 189.832L249.632 180.502L262.182 174.502C263.702 173.782 265.362 174.102 265.892 175.202C266.004 175.439 266.059 175.699 266.052 175.962Z" fill="#0080D1"/>
<path d="M268.002 184.212C267.939 184.785 267.719 185.329 267.366 185.784C267.013 186.24 266.541 186.589 266.002 186.792L255.332 191.872L236.992 200.592C235.482 201.312 233.822 201.002 233.292 199.892C233.185 199.664 233.13 199.414 233.132 199.162C233.191 198.594 233.403 198.052 233.747 197.596C234.09 197.139 234.552 196.785 235.082 196.572L253.312 187.902L264.092 182.782C265.612 182.052 267.272 182.372 267.802 183.482C267.924 183.707 267.992 183.957 268.002 184.212Z" fill="#0080D1"/>
<path d="M270.002 192.462C269.943 193.028 269.73 193.567 269.386 194.02C269.043 194.473 268.581 194.823 268.052 195.032L259.152 199.262L242.152 207.332C240.642 208.062 238.982 207.742 238.452 206.632C238.345 206.404 238.29 206.154 238.292 205.902C238.355 205.329 238.575 204.785 238.928 204.33C239.281 203.874 239.753 203.526 240.292 203.322L257.142 195.322L266.142 191.042C267.662 190.322 269.322 190.632 269.842 191.742C269.947 191.968 270.002 192.213 270.002 192.462Z" fill="#0080D1"/>
<g style="mix-blend-mode:overlay" opacity="0.25">
<path d="M262.102 170.312L247.882 177.072L245.882 173.072L260.212 166.262C261.732 165.542 263.392 165.852 263.922 166.962C264.03 167.19 264.085 167.44 264.082 167.692C264.026 168.269 263.811 168.819 263.462 169.281C263.112 169.744 262.642 170.101 262.102 170.312Z" fill="white"/>
</g>
<g style="mix-blend-mode:overlay" opacity="0.25">
<path d="M264.092 178.551L251.642 184.471L249.642 180.471L262.192 174.471C263.712 173.751 265.372 174.071 265.902 175.171C266.009 175.4 266.063 175.649 266.062 175.901C266.013 176.483 265.803 177.039 265.454 177.507C265.106 177.976 264.634 178.337 264.092 178.551Z" fill="white"/>
</g>
<g style="mix-blend-mode:overlay" opacity="0.25">
<path d="M266.082 186.792L255.412 191.872L253.412 187.872L264.192 182.752C265.712 182.022 267.372 182.342 267.902 183.452C268.01 183.68 268.065 183.929 268.062 184.182C268.006 184.758 267.792 185.307 267.442 185.768C267.093 186.228 266.622 186.583 266.082 186.792Z" fill="white"/>
</g>
<g style="mix-blend-mode:overlay" opacity="0.25">
<path d="M270.002 192.462C269.943 193.027 269.73 193.566 269.387 194.019C269.043 194.472 268.581 194.823 268.052 195.032L259.152 199.262L257.152 195.262L266.152 190.982C267.672 190.262 269.332 190.572 269.852 191.682C269.963 191.926 270.015 192.193 270.002 192.462Z" fill="white"/>
</g>
<g style="mix-blend-mode:overlay" opacity="0.25">
<path d="M262.222 121.602C260.059 124.296 257.623 126.76 254.952 128.952C248.54 134.21 241.112 138.088 233.132 140.342C232.562 140.512 231.972 140.662 231.392 140.802C213.142 145.422 186.392 145.692 170.392 133.092C168.002 131.229 165.867 129.06 164.042 126.642C160.945 122.564 158.641 117.94 157.252 113.012C154.252 90.3518 165.382 67.6218 186.932 57.8118C214.032 44.3618 246.712 57.4418 259.212 85.8118C265.622 100.362 264.542 111.052 262.222 121.602Z" fill="white"/>
</g>
<g style="mix-blend-mode:overlay" opacity="0.25">
<path d="M255.002 112.692C270.112 153.992 202.452 172.422 179.072 141.522C163.652 118.332 183.612 89.8121 205.962 84.0021C227.352 78.6721 249.052 94.5022 255.002 112.692Z" fill="white"/>
</g>
<path d="M180.182 54.7816L176.112 56.4416L157.912 27.1216L177.992 24.1416L180.182 54.7816Z" fill="#EFF4FB"/>
<path d="M159.652 144.952L157.302 141.242L125.472 154.562L140.092 168.642L159.652 144.952Z" fill="#EFF4FB"/>
<path d="M152.952 89.9121L153.872 85.9821L122.162 73.4121L122.622 85.2621L152.952 89.9121Z" fill="#EFF4FB"/>
<path d="M168.522 64.0414L170.702 60.7614L151.122 43.9814L148.182 55.6114L168.522 64.0414Z" fill="#EFF4FB"/>
<path d="M239.612 52.5014L235.932 51.0914L243.282 21.6914L258.192 24.3214L239.612 52.5014Z" fill="#EFF4FB"/>
<g style="mix-blend-mode:overlay" opacity="0.5">
<path d="M235.332 66.2123C246.132 78.3723 203.532 83.8023 187.752 74.7023C177.272 67.8723 189.182 59.4723 203.262 57.7623C216.752 56.1623 231.002 60.8523 235.332 66.2123Z" fill="white"/>
</g>
<g style="mix-blend-mode:overlay" opacity="0.5">
<path d="M251.672 84.4923C250.572 92.2723 238.022 88.0323 236.892 80.9623C236.392 75.8823 242.082 73.6523 246.202 75.0923C248.014 75.8479 249.53 77.1755 250.518 78.8726C251.505 80.5697 251.911 82.5433 251.672 84.4923Z" fill="white"/>
</g>
<path d="M402.002 46.9322L400.002 56.9322L398.432 64.8122L396.432 74.8122C396.148 74.6626 395.845 74.5516 395.532 74.4822L385.812 72.5422L361.082 67.6222C360.75 67.5738 360.414 67.5738 360.082 67.6222L363.412 50.9322L363.642 49.7422L365.642 39.7422C365.923 39.8976 366.227 40.0089 366.542 40.0722L391.272 45.0022L401.002 46.8722C401.331 46.9417 401.668 46.962 402.002 46.9322Z" fill="#0080D1"/>
<path d="M394.932 82.4221L352.122 297.472L341.482 295.362L315.822 290.252L358.632 75.1621C358.912 75.3186 359.216 75.4268 359.532 75.4821L385.202 80.5921L394.002 82.3521C394.309 82.411 394.621 82.4345 394.932 82.4221Z" fill="#FFC74C"/>
<path d="M405.822 27.7523L403.502 39.3423C403.22 39.19 402.917 39.0821 402.602 39.0223L393.002 37.1623L368.112 32.1623C367.8 32.0978 367.48 32.0776 367.162 32.1023L369.472 20.5123C371.342 11.3023 378.742 4.74227 387.082 4.16227C388.585 4.05899 390.096 4.15991 391.572 4.46227C393.991 4.95561 396.28 5.94872 398.293 7.37798C400.306 8.80724 401.999 10.6411 403.262 12.7623C405.974 17.2578 406.888 22.6115 405.822 27.7523Z" fill="#1565C0"/>
<path d="M405.462 43.6615C405.321 44.4598 404.94 45.1961 404.37 45.7729C403.8 46.3498 403.069 46.7399 402.272 46.8915C402.179 46.9006 402.085 46.9006 401.992 46.8915C401.674 46.9165 401.355 46.8963 401.042 46.8315L391.322 44.9015L366.592 39.9715C366.277 39.9083 365.974 39.797 365.692 39.6415C364.942 39.2345 364.345 38.5925 363.995 37.8139C363.645 37.0353 363.559 36.1633 363.752 35.3315C363.904 34.5456 364.289 33.8234 364.856 33.2582C365.422 32.6931 366.146 32.3111 366.932 32.1615C367.022 32.1561 367.112 32.1561 367.202 32.1615C367.52 32.1369 367.84 32.1571 368.152 32.2215L393.002 37.1615L402.562 39.0615C402.877 39.1214 403.181 39.2293 403.462 39.3815C404.207 39.7902 404.802 40.4253 405.162 41.1947C405.521 41.9642 405.627 42.8282 405.462 43.6615Z" fill="#B6D7FF"/>
<path d="M398.382 79.1617C398.242 79.9604 397.864 80.698 397.296 81.2766C396.728 81.8552 395.998 82.2476 395.202 82.4017H394.932C394.597 82.4197 394.261 82.3962 393.932 82.3317L385.172 80.5917L359.502 75.4817C359.186 75.4265 358.881 75.3183 358.602 75.1617C357.841 74.7579 357.233 74.1158 356.872 73.3338C356.511 72.5517 356.416 71.6729 356.602 70.8317C356.743 70.0335 357.124 69.2972 357.694 68.7204C358.264 68.1435 358.995 67.7534 359.792 67.6017H360.062C360.393 67.5533 360.73 67.5533 361.062 67.6017L385.792 72.5217L395.512 74.4618C395.825 74.5311 396.128 74.6421 396.412 74.7917C397.18 75.1969 397.79 75.8468 398.147 76.6384C398.504 77.4299 398.587 78.318 398.382 79.1617Z" fill="#B6D7FF"/>
<g style="mix-blend-mode:soft-light">
<path d="M400.002 56.9419L398.432 64.8119L387.782 62.6919L362.132 57.5919L363.462 50.9019L363.692 49.7119L389.352 54.8219L400.002 56.9419Z" fill="white"/>
</g>
<path d="M368.752 119.162C367.236 118.796 365.927 117.845 365.112 116.516C364.296 115.187 364.041 113.589 364.402 112.072L367.802 95.0117C368.051 93.4729 368.898 92.0949 370.159 91.1787C371.42 90.2625 372.992 89.8825 374.532 90.1217C376.049 90.4892 377.358 91.4427 378.173 92.7734C378.989 94.104 379.244 95.7035 378.882 97.2217L375.482 114.282C375.234 115.82 374.386 117.197 373.125 118.112C371.864 119.026 370.291 119.404 368.752 119.162Z" fill="#1A2E44"/>
<path d="M352.132 297.472L333.642 323.422L329.702 328.962C329.383 329.445 328.927 329.822 328.393 330.047C327.859 330.271 327.271 330.332 326.702 330.222C326.418 330.164 326.145 330.063 325.892 329.922C325.524 329.708 325.205 329.42 324.956 329.075C324.706 328.731 324.531 328.338 324.442 327.922L323.002 321.302L315.872 290.252L341.532 295.352L352.172 297.462L352.132 297.472Z" fill="url(#paint1_linear_295_4261)"/>
<path d="M333.642 323.422L329.702 328.962C329.382 329.445 328.927 329.822 328.393 330.046C327.859 330.271 327.271 330.332 326.702 330.222C326.418 330.164 326.145 330.063 325.892 329.922C325.524 329.708 325.205 329.42 324.955 329.075C324.706 328.731 324.531 328.338 324.442 327.922L323.002 321.302L329.532 322.602L333.642 323.422Z" fill="#1A2E44"/>
<g style="mix-blend-mode:overlay" opacity="0.5">
<path d="M395.242 25.2221L392.892 37.0221C392.945 37.0509 392.995 37.0843 393.042 37.1221C393.763 37.5537 394.33 38.2014 394.662 38.9732C394.994 39.7451 395.074 40.6019 394.892 41.4221C394.742 42.2353 394.35 42.9847 393.769 43.573C393.188 44.1614 392.443 44.5617 391.632 44.7221H391.362V44.9121L389.362 54.7921V54.9021L388.662 58.3921L387.812 62.6521L385.812 72.5321L385.702 73.1121C386.468 73.5265 387.077 74.1794 387.438 74.9717C387.799 75.764 387.892 76.6524 387.702 77.5021C387.577 78.1823 387.283 78.8204 386.848 79.3583C386.413 79.8962 385.851 80.3169 385.212 80.5821C384.968 80.6823 384.713 80.7528 384.452 80.7921H384.172L341.482 295.352L340.622 299.692L329.482 322.592L325.932 329.912C325.564 329.698 325.245 329.41 324.996 329.065C324.746 328.721 324.571 328.328 324.482 327.912L323.002 321.302L315.872 290.252L358.632 75.1621C357.871 74.7582 357.264 74.1161 356.902 73.3341C356.541 72.5521 356.446 71.6732 356.632 70.8321C356.774 70.0339 357.155 69.2976 357.724 68.7207C358.294 68.1439 359.026 67.7538 359.822 67.6021H360.092L363.422 50.9121L363.652 49.7221L365.652 39.7221C364.902 39.3151 364.305 38.6731 363.955 37.8945C363.604 37.1159 363.519 36.2438 363.712 35.4121C363.852 34.6061 364.236 33.8624 364.812 33.2813C365.387 32.7002 366.127 32.3096 366.932 32.1621C367.022 32.1567 367.112 32.1567 367.202 32.1621L369.512 20.5721C371.342 11.3021 378.742 4.74211 387.082 4.16211C389.343 5.67041 391.244 7.65731 392.652 9.98211C395.407 14.5533 396.333 19.9973 395.242 25.2221Z" fill="white"/>
</g>
<g style="mix-blend-mode:overlay" opacity="0.5">
<path d="M396.462 10.5615C397.772 13.8715 393.682 17.5615 387.772 19.8915C381.862 22.2215 376.362 22.3115 375.052 19.0015C373.742 15.6915 377.132 10.2415 383.052 7.91154C388.972 5.58154 395.152 7.25154 396.462 10.5615Z" fill="white"/>
</g>
<g style="mix-blend-mode:overlay" opacity="0.5">
<path d="M325.752 282.862C324.878 282.688 324.109 282.174 323.614 281.433C323.119 280.692 322.939 279.785 323.112 278.911L352.802 128.651C352.887 128.219 353.057 127.808 353.301 127.441C353.545 127.074 353.859 126.759 354.225 126.514C354.591 126.269 355.001 126.098 355.433 126.012C355.865 125.926 356.31 125.926 356.742 126.011C357.175 126.096 357.586 126.266 357.953 126.51C358.319 126.754 358.634 127.068 358.879 127.434C359.125 127.8 359.295 128.211 359.382 128.643C359.468 129.075 359.468 129.519 359.382 129.951L329.692 280.221C329.607 280.654 329.438 281.065 329.194 281.432C328.95 281.799 328.636 282.114 328.27 282.359C327.904 282.604 327.493 282.775 327.061 282.861C326.629 282.947 326.184 282.947 325.752 282.862Z" fill="white"/>
</g>
<g style="mix-blend-mode:overlay">
<path d="M373.975 43.3525L371.022 42.7689C370.02 42.5708 369.046 43.2227 368.848 44.225L364.887 64.2673C364.689 65.2697 365.341 66.2428 366.343 66.4409L369.296 67.0246C370.299 67.2227 371.272 66.5707 371.47 65.5684L375.431 45.5261C375.629 44.5237 374.977 43.5506 373.975 43.3525Z" fill="white"/>
</g>
<path d="M346.762 320.071L408.422 289.151L385.322 309.301L346.762 320.071Z" fill="#EFF4FB"/>
<path d="M348.552 328.292L369.552 324.742L377.722 331.832L348.552 328.292Z" fill="#EFF4FB"/>
<path d="M350.872 315.512L367.142 302.632L389.842 292.642L350.872 315.512Z" fill="#EFF4FB"/>
<path d="M303.972 319.332L275.632 273.302L276.332 292.872L303.972 319.332Z" fill="#EFF4FB"/>
<path d="M310.042 327.522L288.352 314.822L275.602 318.442L310.042 327.522Z" fill="#EFF4FB"/>
<path d="M312.572 318.242L310.802 303.502L303.082 290.062L312.572 318.242Z" fill="#EFF4FB"/>
<defs>
<linearGradient id="paint0_linear_295_4261" x1="228.327" y1="130.899" x2="228.327" y2="158.521" gradientUnits="userSpaceOnUse">
<stop stop-color="#FD8C04"/>
<stop offset="1" stop-color="#FD8C04"/>
</linearGradient>
<linearGradient id="paint1_linear_295_4261" x1="334.022" y1="290.252" x2="334.022" y2="330.275" gradientUnits="userSpaceOnUse">
<stop stop-color="#FD8C04"/>
<stop offset="1" stop-color="#FD8C04"/>
</linearGradient>
</defs>
</svg>
