<?xml version="1.0" ?><svg enable-background="new 0 0 64 64" version="1.1" viewBox="0 0 64 64" xml:space="preserve" xmlns="http://www.w3.org/2000/svg" xmlns:xlink="http://www.w3.org/1999/xlink"><g id="Layer_1"/><g id="icon"><g><path fill="#ffffff" d="M52.371,49.105H11.629c-2.005,0-3.637-1.632-3.637-3.637V18.292c0-1.873,1.524-3.396,3.397-3.396h41.221    c1.873,0,3.396,1.523,3.396,3.396v27.177C56.007,47.473,54.376,49.105,52.371,49.105z M11.39,16.895    c-0.771,0-1.397,0.626-1.397,1.396v27.177c0,0.902,0.734,1.637,1.637,1.637h40.742c0.902,0,1.636-0.734,1.636-1.637V18.292    c0-0.771-0.626-1.396-1.396-1.396H11.39z"/></g><g><path fill="#ffffff" d="M32,36.506c-1.018,0-2.033-0.354-2.844-1.063L12.936,21.25c-0.416-0.364-0.458-0.996-0.095-1.411    c0.364-0.418,0.996-0.458,1.411-0.095l16.221,14.192c0.871,0.762,2.184,0.762,3.055,0l16.22-14.192    c0.414-0.363,1.046-0.323,1.411,0.095c0.363,0.415,0.321,1.047-0.095,1.411l-16.22,14.192C34.033,36.151,33.016,36.506,32,36.506z    "/></g></g></svg>