<svg width="27" height="22" viewBox="0 0 27 22" fill="none" xmlns="http://www.w3.org/2000/svg">
<path opacity="0.5" d="M22.5938 18.2656C22.5938 17.9375 22.4062 17.7031 22.0781 17.7031C21.75 17.7031 21.5625 17.9375 21.5625 18.2656C21.5625 18.5469 21.75 18.7812 22.0781 18.7812C22.4062 18.7812 22.5938 18.5938 22.5938 18.2656ZM8.0625 17.7031C7.73438 17.7031 7.5 17.9375 7.5 18.2656C7.5 18.5469 7.73438 18.7812 8.0625 18.7812C8.34375 18.7812 8.57812 18.5938 8.57812 18.2656C8.53125 17.9375 8.34375 17.7031 8.0625 17.7031ZM13.5469 17.7031C13.3125 17.7031 13.125 17.8438 13.125 18.0781H14.0156C13.9688 17.8438 13.7812 17.7031 13.5469 17.7031ZM18.6094 17.7031C18.2812 17.7031 18.0938 17.9375 18.0938 18.2656C18.0938 18.5469 18.2812 18.7812 18.6094 18.7812C18.9375 18.7812 19.125 18.5938 19.125 18.2656C19.125 17.9375 18.9375 17.7031 18.6094 17.7031ZM23.5781 18.9219C23.5781 18.9219 23.5781 18.875 23.5312 18.875C23.5312 18.875 23.5312 18.875 23.4844 18.875C23.4844 18.8281 23.4844 18.8281 23.4375 18.8281C23.4375 18.8281 23.4375 18.8281 23.3906 18.875C23.3906 18.875 23.3906 18.875 23.3438 18.875V18.9219C23.2969 18.9219 23.2969 18.9688 23.2969 18.9688C23.2969 19.0156 23.2969 19.0156 23.3438 19.0156C23.3438 19.0625 23.3438 19.0625 23.3438 19.0625C23.3906 19.0625 23.3906 19.1094 23.3906 19.1094C23.4375 19.1094 23.4375 19.1094 23.4375 19.1094C23.4844 19.1094 23.4844 19.1094 23.4844 19.1094C23.5312 19.1094 23.5312 19.0625 23.5312 19.0625C23.5781 19.0625 23.5781 19.0625 23.5781 19.0156C23.5781 19.0156 23.5781 19.0156 23.5781 18.9688V18.9219ZM23.4844 19.0156L23.5312 19.0625H23.4844L23.4375 18.9688V19.0625H23.3906V18.875H23.4375C23.4844 18.875 23.4844 18.9219 23.4844 18.9219C23.5312 18.9219 23.5312 18.9219 23.5312 18.9219C23.5312 18.9688 23.5312 18.9688 23.4844 18.9688V19.0156ZM27 2.79688C27 1.57812 25.9688 0.546875 24.75 0.546875H2.25C0.984375 0.546875 0 1.57812 0 2.79688V19.2969C0 20.5625 0.984375 21.5469 2.25 21.5469H24.75C25.9688 21.5469 27 20.5625 27 19.2969V2.79688ZM3 9.35938C3 5.79688 5.90625 2.89062 9.46875 2.89062C10.7344 2.89062 12 3.26562 13.0781 3.96875C9.65625 6.73438 9.65625 11.9844 13.0781 14.75C12 15.4531 10.7344 15.875 9.46875 15.875C5.90625 15.875 3 12.9688 3 9.35938ZM13.5 14.4688C10.1719 11.8906 10.1719 6.875 13.5 4.25C16.7812 6.875 16.7812 11.8906 13.5 14.4688ZM6.79688 18.0312V19.1094H6.42188C6.42188 18.1719 6.51562 17.7031 6.04688 17.7031C5.53125 17.7031 5.625 18.2656 5.625 19.1094H5.25C5.25 18.1719 5.34375 17.7031 4.875 17.7031C4.3125 17.7031 4.45312 18.2188 4.45312 19.1094H4.07812V17.375H4.45312V17.6094C4.59375 17.4219 4.78125 17.3281 4.96875 17.3281C5.20312 17.3281 5.39062 17.4688 5.53125 17.6562C5.67188 17.4219 5.90625 17.3281 6.14062 17.3281C6.5625 17.375 6.79688 17.6094 6.79688 18.0312ZM8.90625 17.375V19.1094H8.53125V18.9219C8.4375 19.0625 8.25 19.1562 8.01562 19.1562C7.5 19.1562 7.125 18.7812 7.125 18.2656C7.125 17.75 7.5 17.3281 8.01562 17.3281C8.25 17.3281 8.4375 17.4688 8.53125 17.6094V17.375H8.90625ZM10.8281 18.5938C10.8281 19.25 9.79688 19.2969 9.28125 18.9688L9.46875 18.6406C9.79688 18.875 10.4062 18.9219 10.4062 18.5938C10.4062 18.3125 9.32812 18.5938 9.32812 17.8906C9.32812 17.2344 10.3125 17.2344 10.7812 17.5156L10.5938 17.8438C10.3125 17.6562 9.75 17.6094 9.75 17.8906C9.75 18.2188 10.8281 17.8906 10.8281 18.5938ZM12.4688 19.0156C12.2344 19.2031 11.3906 19.3438 11.3906 18.5V17.75H11.0625V17.375H11.3906V16.8594H11.8125V17.375H12.4219V17.75H11.8125V18.5C11.8125 18.9219 12.1875 18.8281 12.375 18.7344L12.4688 19.0156ZM13.0781 18.4062C13.2188 18.9219 13.7344 18.9219 14.1094 18.6406L14.2969 18.9219C13.7812 19.3906 12.7031 19.2031 12.7031 18.2656C12.7031 17.7031 13.0781 17.3281 13.5469 17.3281C14.0156 17.3281 14.3906 17.6562 14.3906 18.4062H13.0781ZM15.8438 17.375L15.75 17.75C15.6094 17.6562 15.1406 17.6094 15.1406 18.125V19.1094H14.7656V17.375H15.1406V17.6094C15.3281 17.3281 15.6562 17.2812 15.8438 17.375ZM16.3594 18.2656C16.3594 18.7812 16.9219 18.9688 17.3438 18.6406L17.5312 18.9688C17.0156 19.3906 15.9844 19.2031 15.9844 18.2656C15.9844 17.375 16.9688 17.1406 17.5312 17.5625L17.3438 17.8438C16.9219 17.5625 16.3594 17.7031 16.3594 18.2656ZM19.5 17.375V19.1094H19.125V18.9219C18.75 19.3906 17.7188 19.1562 17.7188 18.2656C17.7188 17.375 18.7031 17.0938 19.125 17.6094V17.375H19.5ZM21.0469 17.375L20.9531 17.75C20.7656 17.6562 20.3438 17.6094 20.3438 18.125V19.1094H19.9688V17.375H20.3438V17.6094C20.5312 17.2812 20.9531 17.3281 21.0469 17.375ZM22.9688 16.7188V19.1094H22.5938V18.9219C22.2188 19.3906 21.1875 19.1562 21.1875 18.2656C21.1875 17.375 22.2188 17.0938 22.5938 17.6094V16.7188H22.9688ZM23.2969 13.1562H23.2031H23.4375H23.3438V13.3906H23.2969V13.1562ZM23.625 18.9688C23.625 19.0156 23.625 19.0156 23.625 19.0625C23.5781 19.0625 23.5781 19.0625 23.5781 19.1094C23.5781 19.1094 23.5312 19.1094 23.5312 19.1562C23.4844 19.1562 23.4844 19.1562 23.4375 19.1562H23.3906C23.3438 19.1094 23.3438 19.1094 23.3438 19.1094C23.2969 19.0625 23.2969 19.0625 23.2969 19.0625C23.2969 19.0156 23.2969 19.0156 23.2969 18.9688V18.9219C23.2969 18.875 23.2969 18.875 23.3438 18.875C23.3438 18.8281 23.3438 18.8281 23.3906 18.8281L23.4375 18.7812C23.4844 18.7812 23.4844 18.8281 23.5312 18.8281C23.5312 18.8281 23.5781 18.8281 23.5781 18.875C23.5781 18.875 23.5781 18.875 23.625 18.9219V18.9688ZM23.7656 13.1562V13.3906H23.7188V13.2031L23.6719 13.3438H23.625L23.5312 13.2031V13.3906H23.4844V13.1562H23.5781L23.625 13.2969L23.7188 13.1562H23.7656ZM24 9.35938C24 12.9688 21.0469 15.875 17.4844 15.8281C16.2188 15.8281 14.9531 15.4531 13.9219 14.75C17.3438 11.9844 17.2969 6.73438 13.9219 3.96875C14.9531 3.26562 16.2188 2.89062 17.4844 2.89062C21.0469 2.89062 24 5.79688 24 9.35938Z" fill="white"/>
</svg>
