<svg width="988" height="547" viewBox="0 0 988 547" fill="none" xmlns="http://www.w3.org/2000/svg">
<g clip-path="url(#clip0_823_10491)">
<path d="M59.0506 480.184C58.9822 480.184 58.9145 480.166 58.8518 480.129C58.7966 480.093 58.7473 480.044 58.7064 479.984C58.6657 479.922 58.6341 479.852 58.6141 479.774C58.5939 479.696 58.5851 479.616 58.5887 479.533C58.5921 479.453 58.6076 479.372 58.6343 479.297C59.3928 477.14 60.2023 474.893 61.0394 472.617C61.0933 472.469 61.189 472.357 61.3053 472.303C61.3629 472.277 61.4235 472.264 61.4845 472.269C61.5451 472.274 61.6045 472.295 61.6592 472.331C61.7139 472.368 61.7626 472.417 61.803 472.479C61.8432 472.539 61.8741 472.611 61.8938 472.689C61.9137 472.764 61.9218 472.847 61.9181 472.928C61.9143 473.011 61.8987 473.088 61.872 473.164C61.0347 475.437 60.2254 477.679 59.4669 479.831C59.4293 479.937 59.3705 480.026 59.2969 480.088C59.2233 480.15 59.1377 480.184 59.0506 480.184ZM63.9346 466.885C63.8608 466.885 63.7877 466.861 63.7218 466.817C63.6137 466.742 63.5323 466.612 63.495 466.457C63.4577 466.301 63.4678 466.13 63.523 465.985C64.3463 463.823 65.202 461.604 66.0714 459.403C66.096 459.323 66.1326 459.253 66.1792 459.193C66.2256 459.131 66.2811 459.087 66.3418 459.056C66.4024 459.027 66.467 459.014 66.5313 459.022C66.5958 459.027 66.6583 459.05 66.7153 459.092C66.7726 459.131 66.8226 459.188 66.8626 459.255C66.9025 459.323 66.9315 459.4 66.9473 459.486C66.9634 459.569 66.9663 459.657 66.9556 459.743C66.9447 459.826 66.9209 459.908 66.8854 459.981C66.0253 462.179 65.1696 464.386 64.3463 466.55C64.3071 466.651 64.248 466.734 64.1755 466.794C64.1029 466.854 64.0197 466.885 63.9346 466.885ZM69.1009 453.783C69.0203 453.783 68.9413 453.754 68.8715 453.702C68.8015 453.648 68.7432 453.573 68.702 453.479C68.661 453.386 68.6385 453.282 68.6372 453.173C68.6356 453.067 68.6553 452.961 68.6937 452.865C69.5541 450.747 70.4512 448.528 71.3624 446.376C71.4238 446.233 71.5252 446.127 71.6444 446.083C71.7637 446.039 71.8912 446.062 71.9985 446.143C72.1059 446.226 72.1844 446.363 72.2168 446.521C72.2495 446.682 72.2331 446.853 72.172 446.996C71.2468 449.171 70.368 451.335 69.5079 453.472C69.4667 453.567 69.4073 453.648 69.3358 453.702C69.2643 453.757 69.1831 453.785 69.1009 453.783ZM74.4845 440.859C74.4028 440.859 74.3232 440.828 74.2533 440.774C74.1472 440.691 74.07 440.559 74.0378 440.401C74.006 440.242 74.0218 440.074 74.0819 439.931C75.0071 437.811 75.932 435.654 76.8571 433.523C76.9209 433.388 77.0215 433.292 77.1374 433.253C77.2532 433.214 77.3756 433.238 77.4788 433.318C77.5822 433.398 77.6584 433.528 77.6916 433.684C77.7248 433.837 77.7123 434 77.6571 434.142C76.6982 436.315 75.7733 438.446 74.8821 440.533C74.8419 440.634 74.7821 440.717 74.7085 440.774C74.6351 440.834 74.5511 440.862 74.4658 440.859H74.4845ZM80.0806 428.1C79.9976 428.1 79.9162 428.068 79.8447 428.014C79.7402 427.928 79.6648 427.791 79.6352 427.633C79.6059 427.472 79.6246 427.304 79.6876 427.164C80.6125 425.095 81.5745 422.98 82.5642 420.843C82.5948 420.768 82.636 420.706 82.6855 420.654C82.7348 420.602 82.7915 420.566 82.8519 420.545C82.9123 420.524 82.9753 420.519 83.037 420.532C83.0987 420.545 83.1578 420.574 83.211 420.618C83.2641 420.662 83.31 420.719 83.346 420.789C83.382 420.856 83.4072 420.934 83.4201 421.014C83.4334 421.097 83.4339 421.18 83.422 421.263C83.4098 421.346 83.3857 421.424 83.3507 421.494C82.3638 423.63 81.4065 425.733 80.4785 427.801C80.4355 427.897 80.374 427.975 80.3007 428.027C80.2276 428.079 80.1451 428.105 80.0622 428.1H80.0806ZM85.862 415.545C85.7754 415.545 85.6904 415.511 85.6168 415.451C85.5655 415.407 85.5211 415.35 85.4862 415.283C85.4512 415.218 85.4263 415.143 85.4131 415.062C85.3996 414.982 85.398 414.902 85.4084 414.821C85.419 414.741 85.4411 414.663 85.4735 414.596C86.4417 412.529 87.4345 410.45 88.4519 408.361C88.483 408.288 88.525 408.223 88.5751 408.172C88.6253 408.122 88.6826 408.086 88.7435 408.065C88.8045 408.045 88.868 408.042 88.9299 408.055C88.9919 408.071 89.051 408.102 89.1039 408.146C89.1567 408.192 89.2021 408.252 89.2371 408.319C89.2724 408.389 89.2965 408.47 89.3081 408.553C89.3198 408.636 89.3188 408.719 89.3053 408.802C89.2915 408.885 89.2656 408.962 89.2291 409.03C88.2114 411.132 87.2201 413.198 86.255 415.228C86.2156 415.322 86.1588 415.399 86.0899 415.456C86.0209 415.511 85.9424 415.542 85.862 415.545ZM91.8744 403.148C91.7912 403.148 91.7096 403.116 91.6383 403.059C91.567 403.002 91.5084 402.919 91.4693 402.821C91.4299 402.722 91.4112 402.611 91.4148 402.499C91.4187 402.388 91.4449 402.282 91.4905 402.188C92.4958 400.164 93.5195 398.113 94.5615 396.039C94.6302 395.902 94.7368 395.808 94.8573 395.777C94.9779 395.746 95.1028 395.78 95.2047 395.873C95.3063 395.964 95.3768 396.107 95.4001 396.267C95.4235 396.431 95.398 396.597 95.3294 396.734C94.2842 398.8 93.2621 400.845 92.263 402.875C92.2143 402.953 92.1521 403.013 92.0821 403.052C92.0118 403.088 91.9359 403.103 91.8607 403.093L91.8744 403.148ZM98.0675 390.901C97.9605 390.898 97.8573 390.847 97.7762 390.753C97.7254 390.707 97.6818 390.647 97.6484 390.58C97.6147 390.51 97.5916 390.434 97.5804 390.351C97.5693 390.271 97.5703 390.188 97.583 390.108C97.596 390.027 97.6209 389.952 97.6559 389.885C98.6948 387.881 99.7525 385.861 100.829 383.824C100.864 383.756 100.908 383.702 100.96 383.658C101.012 383.614 101.069 383.585 101.129 383.572C101.189 383.559 101.25 383.562 101.309 383.58C101.368 383.598 101.424 383.632 101.474 383.679C101.523 383.725 101.565 383.785 101.598 383.855C101.63 383.922 101.652 384 101.662 384.08C101.672 384.161 101.67 384.244 101.656 384.321C101.643 384.402 101.618 384.477 101.583 384.542C100.509 386.577 99.4549 388.591 98.419 390.592C98.3768 390.668 98.3218 390.732 98.2586 390.777C98.1951 390.821 98.1251 390.844 98.0535 390.847L98.0675 390.901ZM104.445 378.836C104.36 378.836 104.276 378.805 104.203 378.745C104.13 378.683 104.071 378.597 104.032 378.496C103.993 378.395 103.976 378.279 103.983 378.164C103.99 378.05 104.02 377.942 104.071 377.848C105.138 375.87 106.224 373.882 107.331 371.88C107.404 371.748 107.514 371.66 107.635 371.637C107.756 371.611 107.88 371.652 107.979 371.751C108.078 371.849 108.143 371.994 108.162 372.158C108.18 372.321 108.149 372.487 108.076 372.619C106.972 374.615 105.893 376.601 104.838 378.582C104.788 378.657 104.724 378.714 104.653 378.748C104.583 378.781 104.506 378.792 104.431 378.779L104.445 378.836ZM111.008 366.947C110.908 366.947 110.81 366.9 110.731 366.817C110.682 366.768 110.641 366.709 110.61 366.639C110.579 366.569 110.559 366.491 110.55 366.41C110.542 366.33 110.545 366.247 110.56 366.167C110.575 366.089 110.602 366.014 110.638 365.949C111.744 364.005 112.858 362.04 113.996 360.075C114.031 360.005 114.077 359.945 114.131 359.898C114.184 359.854 114.244 359.823 114.306 359.81C114.368 359.797 114.432 359.8 114.493 359.823C114.554 359.844 114.612 359.88 114.661 359.932C114.711 359.984 114.753 360.049 114.784 360.121C114.814 360.196 114.833 360.279 114.839 360.362C114.845 360.448 114.838 360.531 114.819 360.611C114.8 360.692 114.768 360.767 114.727 360.832C113.595 362.794 112.479 364.749 111.378 366.701C111.33 366.768 111.27 366.823 111.203 366.856C111.136 366.89 111.065 366.9 110.994 366.893L111.008 366.947ZM117.761 355.247C117.656 355.245 117.555 355.198 117.474 355.11C117.378 355.009 117.316 354.861 117.301 354.698C117.287 354.535 117.32 354.371 117.395 354.242C118.527 352.321 119.676 350.394 120.841 348.461C120.879 348.396 120.927 348.344 120.98 348.305C121.033 348.266 121.092 348.24 121.153 348.232C121.213 348.225 121.275 348.23 121.333 348.253C121.392 348.276 121.446 348.315 121.493 348.367C121.588 348.471 121.648 348.619 121.661 348.782C121.674 348.945 121.639 349.106 121.563 349.236C120.397 351.17 119.25 353.093 118.122 355.012C118.073 355.076 118.014 355.126 117.949 355.157C117.885 355.188 117.815 355.201 117.747 355.19L117.761 355.247ZM124.699 343.737C124.591 343.74 124.486 343.69 124.402 343.602C124.355 343.55 124.316 343.486 124.287 343.413C124.259 343.343 124.241 343.263 124.234 343.182C124.229 343.102 124.235 343.019 124.252 342.941C124.27 342.863 124.299 342.791 124.338 342.729C125.503 340.839 126.683 338.944 127.876 337.044C127.915 336.981 127.963 336.929 128.017 336.893C128.071 336.857 128.13 336.834 128.19 336.826C128.251 336.818 128.312 336.828 128.37 336.852C128.428 336.878 128.481 336.917 128.528 336.971C128.574 337.023 128.613 337.088 128.641 337.16C128.669 337.23 128.686 337.311 128.691 337.391C128.696 337.471 128.689 337.554 128.671 337.632C128.652 337.71 128.623 337.782 128.583 337.845C127.39 339.74 126.214 341.63 125.054 343.514C125.005 343.579 124.946 343.626 124.881 343.654C124.816 343.683 124.748 343.693 124.68 343.683L124.699 343.737ZM131.812 332.439C131.701 332.437 131.594 332.382 131.511 332.284C131.465 332.232 131.427 332.167 131.399 332.095C131.372 332.022 131.355 331.942 131.351 331.861C131.346 331.781 131.353 331.698 131.372 331.62C131.391 331.545 131.421 331.472 131.46 331.41C132.657 329.557 133.867 327.695 135.091 325.834C135.172 325.709 135.286 325.634 135.408 325.624C135.531 325.614 135.651 325.668 135.743 325.777C135.789 325.831 135.827 325.896 135.854 325.969C135.881 326.044 135.897 326.124 135.901 326.205C135.905 326.288 135.897 326.368 135.877 326.446C135.856 326.524 135.825 326.596 135.785 326.656C134.551 328.512 133.344 330.371 132.163 332.235C132.113 332.294 132.054 332.338 131.99 332.364C131.926 332.39 131.859 332.395 131.793 332.382L131.812 332.439ZM139.105 321.346C139.016 321.346 138.929 321.31 138.854 321.245C138.779 321.181 138.72 321.087 138.684 320.976C138.648 320.867 138.636 320.745 138.65 320.628C138.664 320.509 138.703 320.4 138.763 320.309C139.997 318.49 141.23 316.665 142.463 314.837C142.547 314.718 142.663 314.645 142.786 314.637C142.909 314.629 143.029 314.689 143.12 314.801C143.211 314.912 143.265 315.068 143.27 315.234C143.275 315.399 143.231 315.56 143.148 315.682C141.893 317.502 140.659 319.324 139.448 321.142C139.399 321.199 139.341 321.24 139.279 321.266C139.217 321.292 139.151 321.3 139.087 321.289L139.105 321.346ZM146.584 310.469C146.494 310.469 146.406 310.432 146.331 310.368C146.256 310.3 146.197 310.207 146.161 310.095C146.126 309.986 146.114 309.865 146.13 309.745C146.145 309.626 146.185 309.515 146.246 309.427C147.509 307.638 148.79 305.833 150.057 304.065C150.143 303.949 150.26 303.881 150.382 303.876C150.505 303.874 150.624 303.936 150.712 304.052C150.8 304.167 150.851 304.322 150.853 304.485C150.855 304.651 150.809 304.809 150.723 304.929C149.456 306.689 148.18 308.485 146.922 310.277C146.872 310.331 146.816 310.37 146.754 310.394C146.693 310.419 146.629 310.425 146.565 310.414L146.584 310.469ZM154.243 299.827C154.151 299.829 154.06 299.796 153.983 299.726C153.906 299.658 153.845 299.562 153.809 299.448C153.774 299.334 153.764 299.21 153.782 299.088C153.8 298.966 153.844 298.855 153.91 298.767C155.196 297.027 156.505 295.267 157.814 293.53C157.903 293.429 158.017 293.377 158.133 293.385C158.249 293.392 158.36 293.457 158.442 293.569C158.523 293.68 158.571 293.828 158.575 293.984C158.578 294.142 158.538 294.292 158.461 294.411C157.161 296.14 155.853 297.901 154.572 299.643C154.523 299.692 154.467 299.731 154.408 299.754C154.348 299.775 154.286 299.783 154.224 299.772L154.243 299.827ZM751.474 298.08C751.404 298.08 751.334 298.059 751.269 298.015C751.207 297.973 751.153 297.914 751.109 297.838C749.994 295.923 748.838 293.984 747.671 292.075C747.635 292.011 747.604 291.938 747.588 291.86C747.57 291.783 747.565 291.7 747.57 291.619C747.578 291.536 747.596 291.459 747.625 291.386C747.656 291.316 747.695 291.251 747.741 291.199C747.837 291.098 747.956 291.049 748.078 291.064C748.2 291.083 748.312 291.16 748.389 291.287C749.558 293.203 750.702 295.155 751.84 297.076C751.894 297.167 751.928 297.278 751.936 297.393C751.946 297.509 751.93 297.626 751.891 297.732C751.855 297.836 751.796 297.924 751.72 297.986C751.648 298.048 751.562 298.08 751.474 298.08ZM162.064 289.359C161.972 289.361 161.881 289.325 161.804 289.255C161.727 289.188 161.668 289.089 161.633 288.972C161.598 288.858 161.59 288.734 161.609 288.612C161.628 288.49 161.674 288.379 161.74 288.293C163.059 286.59 164.4 284.866 165.732 283.181C165.822 283.082 165.937 283.033 166.054 283.041C166.171 283.051 166.28 283.121 166.361 283.235C166.441 283.349 166.486 283.5 166.487 283.655C166.488 283.813 166.444 283.964 166.365 284.08C165.038 285.766 163.701 287.482 162.388 289.185C162.301 289.299 162.185 289.361 162.064 289.359ZM744.48 286.572C744.413 286.572 744.348 286.551 744.288 286.515C744.226 286.476 744.172 286.421 744.13 286.354C742.941 284.495 741.72 282.637 740.499 280.775C740.416 280.653 740.374 280.495 740.379 280.329C740.387 280.166 740.442 280.013 740.532 279.902C740.576 279.847 740.631 279.806 740.688 279.777C740.745 279.751 740.807 279.738 740.867 279.743C740.929 279.749 740.989 279.769 741.043 279.806C741.097 279.839 741.147 279.891 741.188 279.951C742.414 281.812 743.64 283.671 744.833 285.53C744.872 285.592 744.903 285.662 744.921 285.74C744.939 285.817 744.947 285.9 744.942 285.981C744.937 286.061 744.921 286.141 744.892 286.214C744.866 286.287 744.828 286.351 744.781 286.403C744.698 286.507 744.589 286.567 744.475 286.572H744.48ZM170.075 279.196C170.01 279.196 169.947 279.178 169.888 279.145C169.829 279.111 169.776 279.062 169.733 278.997C169.691 278.937 169.659 278.867 169.637 278.789C169.616 278.714 169.607 278.631 169.609 278.548C169.612 278.468 169.626 278.388 169.652 278.312C169.678 278.24 169.715 278.172 169.76 278.118C171.111 276.443 172.484 274.763 173.835 273.159C173.926 273.05 174.046 272.993 174.169 273C174.292 273.008 174.407 273.083 174.489 273.205C174.571 273.327 174.614 273.49 174.607 273.654C174.601 273.817 174.546 273.973 174.454 274.082C173.109 275.712 171.74 277.387 170.384 279.041C170.299 279.142 170.189 279.196 170.075 279.196ZM737.103 275.526C737.041 275.526 736.978 275.507 736.919 275.474C736.862 275.44 736.81 275.391 736.766 275.328C735.514 273.537 734.231 271.741 732.955 269.98C732.909 269.923 732.87 269.853 732.841 269.776C732.815 269.7 732.8 269.615 732.8 269.529C732.797 269.444 732.81 269.361 732.833 269.28C732.857 269.203 732.893 269.13 732.94 269.07C732.984 269.011 733.038 268.964 733.098 268.936C733.157 268.904 733.222 268.892 733.284 268.897C733.349 268.902 733.411 268.923 733.469 268.962C733.526 269 733.575 269.052 733.616 269.117C734.897 270.877 736.188 272.682 737.442 274.486C737.502 274.574 737.543 274.683 737.559 274.802C737.575 274.921 737.562 275.043 737.528 275.155C737.492 275.264 737.432 275.36 737.357 275.424C737.282 275.492 737.194 275.526 737.103 275.526ZM178.252 269.28C178.157 269.28 178.065 269.244 177.987 269.172C177.909 269.102 177.85 269 177.816 268.881C177.782 268.764 177.776 268.635 177.799 268.51C177.821 268.389 177.871 268.277 177.942 268.194C179.329 266.571 180.717 264.935 182.104 263.341C182.149 263.282 182.203 263.232 182.263 263.201C182.322 263.167 182.386 263.152 182.45 263.155C182.514 263.157 182.577 263.178 182.635 263.217C182.693 263.253 182.744 263.305 182.786 263.37C182.828 263.437 182.859 263.512 182.878 263.595C182.896 263.676 182.902 263.764 182.895 263.847C182.887 263.932 182.866 264.015 182.834 264.09C182.801 264.163 182.758 264.228 182.706 264.277C181.318 265.877 179.931 267.507 178.543 269.125C178.462 269.221 178.359 269.275 178.252 269.28ZM729.37 264.941C729.248 264.941 729.134 264.876 729.046 264.762C727.737 263.038 726.402 261.309 725.07 259.629C725.02 259.577 724.979 259.51 724.95 259.434C724.922 259.357 724.904 259.274 724.901 259.19C724.896 259.105 724.906 259.02 724.927 258.939C724.948 258.859 724.982 258.786 725.026 258.724C725.07 258.662 725.122 258.613 725.181 258.58C725.238 258.546 725.303 258.529 725.365 258.53C725.43 258.531 725.492 258.549 725.549 258.584C725.609 258.618 725.661 258.668 725.702 258.731C727.04 260.417 728.38 262.146 729.694 263.875C729.762 263.961 729.808 264.072 729.826 264.194C729.845 264.313 729.837 264.44 729.803 264.554C729.767 264.668 729.707 264.767 729.632 264.837C729.554 264.904 729.464 264.941 729.37 264.941ZM186.628 259.655C186.534 259.652 186.442 259.613 186.365 259.541C186.288 259.468 186.23 259.364 186.198 259.248C186.165 259.128 186.161 258.999 186.185 258.877C186.209 258.755 186.26 258.646 186.332 258.564C187.719 257.002 189.153 255.409 190.582 253.841C190.629 253.789 190.683 253.751 190.741 253.727C190.8 253.704 190.861 253.696 190.922 253.704C190.982 253.712 191.041 253.735 191.095 253.774C191.148 253.812 191.196 253.865 191.234 253.928C191.273 253.991 191.302 254.064 191.319 254.142C191.337 254.22 191.343 254.302 191.337 254.383C191.331 254.464 191.313 254.543 191.284 254.615C191.255 254.686 191.216 254.75 191.169 254.802C189.74 256.37 188.311 257.95 186.924 259.512C186.84 259.605 186.736 259.655 186.628 259.655ZM721.337 254.758C721.223 254.758 721.111 254.701 721.028 254.597C719.667 252.949 718.252 251.3 716.894 249.682C716.845 249.63 716.806 249.565 716.777 249.492C716.746 249.419 716.73 249.338 716.725 249.256C716.717 249.173 716.725 249.09 716.746 249.011C716.764 248.932 716.795 248.859 716.834 248.796C716.876 248.733 716.925 248.682 716.982 248.646C717.036 248.609 717.099 248.588 717.158 248.583C717.22 248.579 717.283 248.591 717.342 248.619C717.399 248.647 717.454 248.69 717.498 248.747C718.887 250.371 720.274 252.025 721.661 253.705C721.731 253.789 721.778 253.899 721.801 254.02C721.822 254.142 721.814 254.27 721.783 254.386C721.749 254.503 721.689 254.603 721.612 254.674C721.536 254.745 721.443 254.783 721.352 254.783L721.337 254.758ZM195.165 250.296C195.07 250.295 194.977 250.255 194.899 250.18C194.821 250.106 194.763 250.001 194.731 249.88C194.7 249.759 194.697 249.628 194.724 249.505C194.75 249.382 194.804 249.273 194.879 249.193C196.317 247.656 197.779 246.094 199.217 244.613C199.314 244.512 199.437 244.467 199.559 244.487C199.68 244.507 199.791 244.591 199.867 244.721C199.942 244.851 199.976 245.016 199.961 245.179C199.946 245.343 199.883 245.491 199.786 245.592C198.348 247.086 196.895 248.623 195.457 250.16C195.374 250.249 195.271 250.297 195.165 250.296ZM712.985 245.028C712.876 245.027 712.772 244.974 712.689 244.879C711.3 243.324 709.858 241.75 708.425 240.206C708.376 240.155 708.337 240.092 708.308 240.02C708.28 239.948 708.262 239.87 708.254 239.789C708.249 239.708 708.254 239.625 708.269 239.547C708.288 239.469 708.316 239.396 708.355 239.333C708.394 239.269 708.441 239.216 708.495 239.177C708.547 239.138 708.606 239.114 708.666 239.105C708.728 239.096 708.788 239.104 708.847 239.127C708.905 239.15 708.959 239.188 709.006 239.239C710.444 240.789 711.878 242.338 713.28 243.931C713.327 243.984 713.366 244.048 713.394 244.12C713.42 244.193 713.438 244.272 713.444 244.353C713.449 244.434 713.441 244.516 713.423 244.593C713.405 244.671 713.376 244.743 713.337 244.805C713.293 244.874 713.239 244.93 713.179 244.968C713.117 245.007 713.052 245.027 712.985 245.028ZM203.879 241.223C203.808 241.223 203.737 241.202 203.673 241.16C203.609 241.118 203.553 241.057 203.509 240.981C203.435 240.85 203.403 240.686 203.419 240.523C203.436 240.36 203.499 240.213 203.597 240.113C205.054 238.632 206.538 237.145 208.018 235.682C208.117 235.584 208.241 235.543 208.362 235.568C208.484 235.592 208.593 235.68 208.666 235.812C208.739 235.944 208.77 236.11 208.751 236.273C208.733 236.436 208.667 236.582 208.569 236.68C207.093 238.136 205.609 239.624 204.156 241.099C204.076 241.179 203.979 241.223 203.879 241.223ZM704.381 235.769C704.28 235.768 704.181 235.723 704.099 235.639C702.657 234.145 701.182 232.645 699.715 231.183C699.666 231.134 699.624 231.073 699.593 231.004C699.562 230.934 699.541 230.856 699.531 230.776C699.523 230.695 699.526 230.613 699.541 230.534C699.554 230.455 699.583 230.38 699.619 230.315C699.653 230.249 699.7 230.194 699.751 230.152C699.803 230.11 699.86 230.082 699.922 230.07C699.982 230.058 700.044 230.062 700.101 230.082C700.161 230.101 700.218 230.136 700.265 230.185C701.737 231.654 703.22 233.16 704.669 234.659C704.744 234.739 704.801 234.848 704.83 234.973C704.855 235.097 704.853 235.23 704.822 235.352C704.791 235.474 704.731 235.581 704.651 235.655C704.573 235.73 704.48 235.77 704.381 235.769ZM212.741 232.453C212.667 232.453 212.595 232.429 212.53 232.384C212.465 232.338 212.409 232.273 212.366 232.193C212.33 232.127 212.305 232.051 212.291 231.972C212.277 231.893 212.275 231.81 212.284 231.729C212.294 231.649 212.316 231.572 212.348 231.502C212.381 231.433 212.423 231.373 212.472 231.325C213.971 229.887 215.483 228.45 216.977 227.055C217.077 226.961 217.201 226.924 217.321 226.952C217.442 226.979 217.549 227.07 217.62 227.204C217.656 227.27 217.681 227.346 217.694 227.426C217.708 227.505 217.71 227.588 217.699 227.668C217.689 227.749 217.667 227.826 217.634 227.896C217.602 227.965 217.559 228.024 217.509 228.071C216.02 229.46 214.507 230.898 213.009 232.335C212.935 232.408 212.846 232.449 212.754 232.453H212.741ZM695.521 226.95C695.425 226.949 695.329 226.908 695.251 226.832C693.776 225.413 692.26 223.987 690.746 222.587C690.692 222.544 690.642 222.487 690.603 222.418C690.565 222.349 690.539 222.27 690.523 222.186C690.507 222.102 690.508 222.015 690.521 221.93C690.531 221.846 690.557 221.766 690.593 221.694C690.629 221.623 690.676 221.564 690.73 221.518C690.785 221.473 690.847 221.444 690.912 221.432C690.974 221.42 691.039 221.427 691.101 221.45C691.163 221.474 691.22 221.515 691.27 221.57C692.786 222.971 694.308 224.403 695.788 225.822C695.868 225.897 695.93 226.006 695.962 226.131C695.993 226.256 695.995 226.392 695.964 226.518C695.936 226.644 695.876 226.754 695.796 226.832C695.715 226.909 695.619 226.951 695.521 226.95ZM221.801 223.987C221.725 223.987 221.651 223.963 221.584 223.915C221.517 223.867 221.46 223.799 221.417 223.715C221.348 223.579 221.322 223.412 221.344 223.25C221.367 223.089 221.436 222.946 221.537 222.853C223.064 221.465 224.608 220.083 226.125 218.738C226.176 218.691 226.233 218.659 226.293 218.642C226.353 218.626 226.415 218.626 226.476 218.642C226.536 218.657 226.593 218.689 226.644 218.735C226.695 218.781 226.739 218.84 226.772 218.909C226.806 218.977 226.829 219.054 226.841 219.135C226.852 219.216 226.851 219.299 226.838 219.379C226.826 219.46 226.801 219.536 226.766 219.604C226.731 219.671 226.686 219.729 226.634 219.773C225.122 221.111 223.582 222.493 222.06 223.882C221.983 223.949 221.893 223.985 221.801 223.987ZM686.456 218.558C686.365 218.557 686.277 218.521 686.202 218.453C684.68 217.102 683.125 215.744 681.575 214.424C681.525 214.38 681.481 214.323 681.445 214.256C681.411 214.189 681.385 214.114 681.372 214.034C681.36 213.955 681.36 213.872 681.37 213.792C681.38 213.711 681.401 213.635 681.435 213.566C681.468 213.497 681.51 213.438 681.559 213.391C681.611 213.344 681.665 213.311 681.725 213.294C681.785 213.276 681.847 213.274 681.907 213.289C681.966 213.303 682.023 213.333 682.075 213.377C683.62 214.703 685.178 216.06 686.7 217.418C686.785 217.491 686.85 217.598 686.884 217.724C686.917 217.85 686.922 217.987 686.891 218.116C686.863 218.244 686.806 218.357 686.725 218.437C686.645 218.516 686.547 218.559 686.445 218.558H686.456ZM231.005 215.843C230.927 215.844 230.85 215.819 230.781 215.769C230.712 215.719 230.654 215.647 230.612 215.559C230.579 215.49 230.557 215.413 230.547 215.333C230.536 215.253 230.538 215.17 230.551 215.091C230.565 215.012 230.589 214.936 230.624 214.87C230.659 214.803 230.704 214.747 230.755 214.703C232.291 213.383 233.858 212.05 235.422 210.749C235.473 210.688 235.533 210.644 235.599 210.618C235.664 210.592 235.733 210.587 235.8 210.601C235.867 210.615 235.932 210.649 235.988 210.7C236.045 210.751 236.092 210.819 236.126 210.897C236.161 210.976 236.183 211.064 236.189 211.155C236.195 211.246 236.187 211.338 236.164 211.423C236.14 211.509 236.103 211.587 236.055 211.652C236.007 211.716 235.948 211.766 235.884 211.796C234.33 213.098 232.762 214.424 231.232 215.744C231.164 215.804 231.086 215.837 231.005 215.843ZM677.163 210.588C677.077 210.588 676.992 210.556 676.919 210.495C675.359 209.206 673.772 207.923 672.209 206.671C672.149 206.637 672.095 206.586 672.048 206.522C672.004 206.457 671.971 206.38 671.947 206.296C671.926 206.212 671.919 206.123 671.926 206.035C671.934 205.947 671.955 205.862 671.986 205.785C672.02 205.709 672.066 205.643 672.121 205.592C672.173 205.541 672.235 205.506 672.3 205.489C672.364 205.473 672.432 205.475 672.497 205.496C672.562 205.517 672.621 205.556 672.673 205.611C674.241 206.851 675.83 208.146 677.396 209.441C677.479 209.512 677.546 209.618 677.583 209.743C677.619 209.869 677.624 210.007 677.596 210.136C677.57 210.265 677.513 210.379 677.432 210.461C677.352 210.542 677.253 210.587 677.155 210.588H677.163ZM240.366 208.028C240.286 208.028 240.207 208 240.137 207.947C240.067 207.894 240.009 207.817 239.968 207.725C239.905 207.584 239.886 207.416 239.916 207.257C239.945 207.097 240.021 206.961 240.125 206.875C241.689 205.636 243.289 204.335 244.871 203.089C244.923 203.044 244.982 203.014 245.044 203C245.105 202.987 245.168 202.99 245.229 203.01C245.289 203.03 245.346 203.066 245.396 203.116C245.446 203.166 245.488 203.229 245.519 203.302C245.55 203.374 245.57 203.454 245.578 203.537C245.585 203.62 245.58 203.704 245.563 203.785C245.546 203.865 245.516 203.94 245.477 204.004C245.437 204.069 245.388 204.122 245.333 204.161C243.751 205.4 242.16 206.671 240.602 207.935C240.531 207.994 240.449 208.027 240.366 208.028ZM667.678 203.039C667.597 203.039 667.52 203.011 667.45 202.959C665.868 201.719 664.251 200.529 662.651 199.339C662.597 199.299 662.55 199.244 662.514 199.179C662.475 199.115 662.447 199.04 662.431 198.961C662.416 198.882 662.41 198.8 662.418 198.718C662.426 198.637 662.447 198.558 662.478 198.487C662.506 198.416 662.548 198.353 662.597 198.303C662.644 198.253 662.701 198.216 662.758 198.195C662.817 198.173 662.88 198.167 662.939 198.177C663.001 198.188 663.058 198.214 663.113 198.255C664.723 199.445 666.351 200.666 667.927 201.88C668.017 201.948 668.087 202.053 668.126 202.18C668.165 202.306 668.173 202.447 668.147 202.58C668.118 202.712 668.061 202.829 667.978 202.912C667.898 202.996 667.8 203.04 667.696 203.039H667.678ZM249.879 200.56C249.798 200.56 249.717 200.531 249.646 200.475C249.576 200.42 249.517 200.34 249.477 200.244C249.417 200.101 249.402 199.932 249.435 199.774C249.468 199.616 249.546 199.482 249.653 199.401C251.249 198.162 252.891 196.965 254.472 195.788C254.526 195.747 254.584 195.721 254.645 195.711C254.705 195.7 254.767 195.706 254.826 195.728C254.885 195.749 254.941 195.786 254.989 195.836C255.037 195.887 255.078 195.949 255.108 196.021C255.139 196.092 255.158 196.17 255.166 196.251C255.174 196.333 255.169 196.416 255.153 196.495C255.137 196.574 255.11 196.648 255.072 196.713C255.035 196.777 254.988 196.832 254.935 196.873C253.339 198.05 251.697 199.265 250.129 200.474C250.053 200.531 249.967 200.559 249.879 200.554V200.56ZM658.022 195.906C657.944 195.905 657.869 195.88 657.804 195.831C656.202 194.691 654.566 193.545 652.92 192.417C652.811 192.341 652.728 192.211 652.692 192.056C652.656 191.901 652.666 191.732 652.721 191.586C652.775 191.44 652.871 191.33 652.988 191.278C653.104 191.227 653.231 191.24 653.34 191.313C654.981 192.441 656.632 193.594 658.237 194.741C658.328 194.806 658.4 194.91 658.442 195.036C658.483 195.162 658.491 195.303 658.468 195.436C658.442 195.57 658.385 195.689 658.304 195.773C658.224 195.858 658.123 195.905 658.022 195.906ZM259.547 193.427C259.462 193.428 259.379 193.397 259.306 193.339C259.234 193.282 259.174 193.198 259.134 193.098C259.105 193.026 259.087 192.947 259.082 192.865C259.076 192.783 259.082 192.701 259.1 192.622C259.118 192.544 259.147 192.471 259.187 192.408C259.226 192.345 259.275 192.293 259.329 192.255C260.947 191.103 262.593 189.944 264.218 188.828C264.27 188.784 264.332 188.754 264.395 188.742C264.457 188.73 264.522 188.736 264.584 188.759C264.644 188.781 264.701 188.821 264.75 188.875C264.799 188.928 264.841 188.995 264.869 189.07C264.9 189.146 264.916 189.229 264.921 189.313C264.926 189.398 264.916 189.484 264.895 189.564C264.874 189.644 264.841 189.718 264.796 189.78C264.752 189.842 264.701 189.891 264.644 189.925C263.018 191.047 261.377 192.2 259.762 193.352C259.698 193.401 259.622 193.426 259.547 193.427ZM648.202 189.163C648.132 189.163 648.062 189.142 647.998 189.101C646.352 188.01 644.682 186.931 643.036 185.884C642.925 185.814 642.839 185.687 642.798 185.532C642.756 185.376 642.764 185.205 642.816 185.057C642.868 184.908 642.963 184.794 643.08 184.738C643.194 184.683 643.321 184.692 643.433 184.762C645.084 185.816 646.753 186.901 648.405 187.985C648.5 188.046 648.576 188.149 648.62 188.276C648.666 188.402 648.677 188.546 648.653 188.683C648.63 188.82 648.573 188.942 648.49 189.029C648.407 189.116 648.306 189.163 648.202 189.163ZM269.351 186.684C269.245 186.686 269.144 186.64 269.061 186.553C268.978 186.466 268.918 186.344 268.895 186.207C268.869 186.07 268.882 185.925 268.926 185.798C268.973 185.671 269.048 185.568 269.144 185.506C270.795 184.403 272.464 183.312 274.1 182.259C274.157 182.221 274.217 182.197 274.276 182.191C274.338 182.185 274.401 182.195 274.46 182.221C274.517 182.247 274.572 182.289 274.618 182.343C274.665 182.398 274.704 182.465 274.73 182.539C274.756 182.614 274.771 182.695 274.777 182.778C274.779 182.86 274.769 182.943 274.748 183.021C274.727 183.099 274.694 183.17 274.652 183.231C274.611 183.291 274.559 183.34 274.504 183.374C272.871 184.428 271.204 185.519 269.556 186.615C269.494 186.648 269.429 186.662 269.364 186.659L269.351 186.684ZM638.235 182.847C638.17 182.847 638.106 182.828 638.046 182.792C636.39 181.781 634.697 180.765 633.017 179.773C632.963 179.741 632.911 179.694 632.869 179.635C632.825 179.577 632.792 179.507 632.771 179.431C632.748 179.355 632.737 179.274 632.737 179.192C632.74 179.111 632.753 179.03 632.776 178.955C632.802 178.881 632.836 178.814 632.88 178.757C632.924 178.701 632.976 178.657 633.033 178.628C633.09 178.598 633.149 178.584 633.212 178.586C633.271 178.588 633.331 178.606 633.388 178.639C635.07 179.631 636.768 180.647 638.43 181.664C638.484 181.698 638.533 181.746 638.575 181.806C638.616 181.866 638.65 181.936 638.671 182.013C638.691 182.089 638.702 182.171 638.699 182.252C638.697 182.334 638.681 182.414 638.655 182.488C638.616 182.591 638.554 182.677 638.482 182.736C638.406 182.795 638.321 182.825 638.235 182.823V182.847ZM279.29 180.281C279.183 180.282 279.082 180.235 278.999 180.146C278.916 180.057 278.859 179.934 278.836 179.795C278.813 179.656 278.826 179.512 278.875 179.385C278.922 179.258 278.999 179.157 279.095 179.098C280.762 178.063 282.455 177.034 284.119 176.036C284.173 175.997 284.236 175.973 284.298 175.967C284.363 175.96 284.425 175.971 284.484 175.998C284.544 176.026 284.598 176.07 284.645 176.127C284.692 176.184 284.731 176.253 284.757 176.33C284.783 176.407 284.795 176.491 284.798 176.575C284.798 176.66 284.785 176.744 284.762 176.822C284.738 176.9 284.702 176.971 284.656 177.03C284.611 177.088 284.557 177.134 284.497 177.164C282.833 178.162 281.146 179.191 279.484 180.226C279.422 180.253 279.357 180.264 279.29 180.257V180.281ZM628.139 176.898C628.076 176.899 628.014 176.882 627.957 176.848C626.288 175.9 624.572 174.952 622.871 174.022C622.814 173.991 622.762 173.946 622.721 173.888C622.677 173.831 622.643 173.763 622.62 173.688C622.596 173.612 622.583 173.532 622.583 173.45C622.583 173.369 622.596 173.288 622.617 173.213C622.64 173.138 622.674 173.069 622.718 173.012C622.76 172.954 622.812 172.908 622.869 172.877C622.923 172.845 622.985 172.829 623.045 172.829C623.104 172.829 623.167 172.845 623.221 172.875C624.932 173.805 626.648 174.735 628.31 175.708C628.408 175.764 628.488 175.863 628.538 175.99C628.587 176.116 628.603 176.261 628.582 176.401C628.561 176.541 628.504 176.667 628.421 176.757C628.338 176.848 628.234 176.897 628.128 176.898H628.139ZM289.358 174.251C289.252 174.251 289.15 174.201 289.067 174.111C288.985 174.02 288.927 173.895 288.907 173.755C288.886 173.615 288.902 173.47 288.951 173.343C289 173.217 289.08 173.117 289.179 173.061C290.872 172.088 292.583 171.121 294.265 170.192C294.376 170.147 294.496 170.159 294.599 170.224C294.703 170.29 294.783 170.406 294.827 170.548C294.871 170.691 294.874 170.85 294.835 170.995C294.796 171.14 294.719 171.26 294.617 171.332C292.943 172.262 291.232 173.229 289.529 174.202C289.474 174.226 289.417 174.234 289.358 174.227V174.251ZM617.899 171.32C617.842 171.32 617.785 171.306 617.731 171.276C616.025 170.384 614.291 169.498 612.564 168.63C612.51 168.601 612.458 168.557 612.411 168.502C612.367 168.446 612.334 168.379 612.308 168.305C612.282 168.231 612.269 168.15 612.266 168.069C612.266 167.988 612.277 167.907 612.297 167.831C612.318 167.754 612.352 167.685 612.393 167.626C612.435 167.566 612.484 167.519 612.541 167.485C612.596 167.452 612.655 167.433 612.715 167.431C612.777 167.429 612.837 167.442 612.894 167.471C614.62 168.339 616.359 169.231 618.07 170.124C618.169 170.177 618.252 170.275 618.304 170.401C618.355 170.528 618.374 170.675 618.353 170.817C618.332 170.959 618.278 171.086 618.195 171.178C618.112 171.27 618.006 171.32 617.899 171.32ZM299.553 168.605C299.444 168.606 299.34 168.555 299.258 168.464C299.175 168.372 299.118 168.244 299.097 168.102C299.076 167.96 299.094 167.813 299.146 167.687C299.198 167.56 299.281 167.462 299.382 167.409C301.098 166.498 302.827 165.593 304.53 164.726C304.644 164.667 304.771 164.672 304.883 164.74C304.994 164.807 305.082 164.931 305.126 165.085C305.17 165.239 305.165 165.409 305.116 165.559C305.064 165.709 304.973 165.826 304.857 165.884C303.159 166.752 301.435 167.651 299.724 168.562C299.667 168.582 299.61 168.589 299.553 168.581V168.605ZM607.533 166.126C607.481 166.126 607.427 166.114 607.377 166.089C605.638 165.252 603.88 164.422 602.164 163.61C602.053 163.552 601.962 163.439 601.91 163.293C601.861 163.148 601.853 162.982 601.892 162.83C601.931 162.678 602.014 162.553 602.12 162.48C602.227 162.407 602.351 162.392 602.465 162.439C604.186 163.232 605.944 164.063 607.691 164.918C607.792 164.967 607.878 165.064 607.932 165.19C607.989 165.316 608.007 165.464 607.989 165.607C607.971 165.751 607.914 165.881 607.831 165.975C607.748 166.068 607.642 166.12 607.533 166.12V166.126ZM309.857 163.3C309.748 163.3 309.642 163.248 309.559 163.155C309.476 163.061 309.422 162.931 309.401 162.787C309.383 162.644 309.404 162.496 309.458 162.37C309.512 162.244 309.598 162.147 309.699 162.098C311.415 161.261 313.165 160.424 314.899 159.619C315.013 159.564 315.143 159.574 315.252 159.646C315.363 159.717 315.449 159.845 315.487 160C315.529 160.155 315.521 160.326 315.467 160.474C315.415 160.622 315.319 160.736 315.205 160.79C313.473 161.602 311.726 162.432 310.018 163.269C309.966 163.291 309.912 163.302 309.857 163.3ZM597.071 161.236C597.024 161.248 596.975 161.248 596.928 161.236C595.184 160.468 593.418 159.699 591.666 158.962C591.549 158.912 591.451 158.801 591.394 158.655C591.337 158.508 591.326 158.338 591.365 158.181C591.402 158.024 591.484 157.893 591.593 157.818C591.702 157.742 591.829 157.728 591.948 157.778C593.701 158.522 595.471 159.29 597.216 160.059C597.32 160.105 597.408 160.199 597.465 160.325C597.522 160.45 597.545 160.599 597.527 160.745C597.511 160.89 597.454 161.023 597.371 161.119C597.288 161.214 597.182 161.267 597.071 161.267V161.236ZM320.273 158.435C320.172 158.442 320.071 158.403 319.988 158.326C319.905 158.249 319.842 158.137 319.811 158.007C319.772 157.852 319.78 157.683 319.835 157.536C319.892 157.39 319.985 157.279 320.102 157.226C321.836 156.452 323.604 155.683 325.351 154.933C325.468 154.883 325.595 154.898 325.703 154.973C325.815 155.048 325.895 155.179 325.934 155.336C325.97 155.493 325.96 155.664 325.903 155.81C325.849 155.957 325.75 156.067 325.633 156.117C323.884 156.861 322.124 157.629 320.392 158.398C320.356 158.425 320.314 158.444 320.273 158.454V158.435ZM586.523 156.774C586.476 156.773 586.432 156.762 586.388 156.743C584.659 156.043 582.873 155.342 581.087 154.648C580.97 154.602 580.872 154.496 580.815 154.354C580.755 154.211 580.74 154.043 580.773 153.886C580.807 153.728 580.885 153.595 580.991 153.515C581.097 153.435 581.224 153.414 581.341 153.458C583.132 154.152 584.921 154.859 586.655 155.559C586.78 155.583 586.888 155.671 586.964 155.804C587.039 155.937 587.07 156.105 587.052 156.269C587.034 156.433 586.969 156.581 586.868 156.681C586.769 156.78 586.645 156.823 586.523 156.799V156.774ZM330.782 154.004C330.657 154.028 330.533 153.985 330.434 153.886C330.336 153.786 330.268 153.638 330.25 153.474C330.235 153.309 330.266 153.142 330.338 153.009C330.414 152.876 330.525 152.788 330.647 152.764C332.394 152.058 334.175 151.351 335.943 150.676C336.059 150.629 336.186 150.648 336.295 150.727C336.402 150.806 336.482 150.939 336.516 151.097C336.534 151.175 336.539 151.257 336.531 151.338C336.526 151.419 336.508 151.497 336.477 151.569C336.448 151.64 336.409 151.703 336.363 151.754C336.313 151.805 336.259 151.843 336.202 151.865C334.439 152.541 332.658 153.241 330.914 153.948C330.872 153.976 330.828 153.995 330.782 154.004ZM575.908 152.714C575.866 152.72 575.825 152.72 575.783 152.714C574.031 152.095 572.235 151.426 570.451 150.799C570.386 150.785 570.327 150.753 570.275 150.705C570.22 150.658 570.176 150.596 570.14 150.524C570.106 150.452 570.083 150.372 570.073 150.287C570.062 150.203 570.067 150.116 570.083 150.034C570.099 149.951 570.127 149.873 570.166 149.806C570.205 149.739 570.254 149.683 570.311 149.643C570.368 149.603 570.43 149.578 570.493 149.571C570.557 149.564 570.622 149.575 570.682 149.603C572.47 150.223 574.269 150.874 576.027 151.518C576.151 151.54 576.263 151.626 576.338 151.757C576.413 151.888 576.447 152.054 576.431 152.219C576.413 152.383 576.351 152.532 576.253 152.633C576.154 152.734 576.03 152.779 575.908 152.758V152.714ZM341.417 149.926C341.314 149.93 341.21 149.888 341.127 149.804C341.044 149.721 340.982 149.602 340.956 149.467C340.941 149.388 340.935 149.306 340.943 149.226C340.951 149.145 340.969 149.067 341 148.996C341.029 148.925 341.07 148.863 341.117 148.813C341.166 148.763 341.22 148.726 341.28 148.705C343.032 148.085 344.826 147.465 346.618 146.845C346.737 146.804 346.861 146.828 346.967 146.912C347.074 146.996 347.152 147.132 347.18 147.292C347.211 147.451 347.193 147.62 347.131 147.762C347.069 147.904 346.967 148.007 346.848 148.048C345.062 148.667 343.268 149.287 341.521 149.907C341.475 149.918 341.428 149.915 341.381 149.901L341.417 149.926ZM565.233 148.971H565.116C563.333 148.351 561.523 147.794 559.753 147.23C559.688 147.216 559.629 147.186 559.574 147.14C559.522 147.094 559.476 147.034 559.439 146.963C559.403 146.892 559.38 146.812 559.369 146.728C559.356 146.644 559.359 146.557 559.375 146.474C559.387 146.391 559.416 146.313 559.455 146.245C559.491 146.176 559.54 146.119 559.597 146.077C559.652 146.035 559.714 146.009 559.776 146.001C559.841 145.992 559.903 146.001 559.966 146.027C561.741 146.585 563.551 147.174 565.344 147.769C565.464 147.808 565.565 147.91 565.63 148.05C565.692 148.191 565.71 148.359 565.681 148.519C565.65 148.654 565.583 148.77 565.495 148.848C565.407 148.925 565.3 148.96 565.197 148.946L565.233 148.971ZM352.103 146.251C351.996 146.254 351.893 146.209 351.807 146.122C351.724 146.035 351.665 145.912 351.639 145.773C351.613 145.614 351.633 145.446 351.696 145.307C351.761 145.167 351.864 145.068 351.981 145.03C353.759 144.453 355.566 143.883 357.357 143.337C357.476 143.301 357.601 143.329 357.704 143.416C357.811 143.503 357.883 143.642 357.912 143.802C357.938 143.963 357.917 144.131 357.852 144.27C357.787 144.41 357.684 144.509 357.564 144.546C355.773 145.091 353.972 145.656 352.199 146.232L352.103 146.251ZM554.47 145.581H554.369C552.575 145.048 550.758 144.521 548.977 144.019C548.912 144.009 548.85 143.981 548.796 143.937C548.741 143.893 548.692 143.835 548.656 143.765C548.619 143.695 548.593 143.615 548.58 143.531C548.565 143.447 548.568 143.361 548.58 143.277C548.593 143.193 548.619 143.113 548.656 143.043C548.695 142.973 548.741 142.915 548.796 142.871C548.85 142.827 548.912 142.799 548.977 142.789C549.039 142.779 549.104 142.786 549.166 142.811C550.95 143.313 552.77 143.84 554.571 144.373C554.693 144.408 554.797 144.506 554.861 144.644C554.929 144.782 554.95 144.95 554.924 145.11C554.895 145.25 554.828 145.371 554.74 145.452C554.649 145.534 554.543 145.571 554.434 145.556L554.47 145.581ZM362.855 142.972C362.733 142.989 362.609 142.94 362.513 142.836C362.417 142.732 362.358 142.581 362.345 142.417C362.332 142.253 362.368 142.088 362.446 141.96C362.523 141.832 362.635 141.75 362.759 141.732C364.543 141.224 366.365 140.722 368.164 140.245C368.224 140.229 368.286 140.228 368.346 140.244C368.405 140.259 368.462 140.29 368.511 140.335C368.563 140.38 368.607 140.438 368.641 140.505C368.675 140.573 368.698 140.649 368.711 140.728C368.724 140.809 368.724 140.891 368.711 140.971C368.698 141.052 368.675 141.128 368.641 141.196C368.607 141.264 368.563 141.322 368.514 141.367C368.462 141.413 368.405 141.444 368.346 141.46C366.547 141.937 364.732 142.439 362.954 142.947L362.855 142.972ZM543.658 142.538H543.565C541.76 142.061 539.938 141.59 538.144 141.15C538.085 141.135 538.028 141.104 537.976 141.06C537.926 141.015 537.882 140.958 537.846 140.89C537.812 140.823 537.789 140.747 537.776 140.667C537.763 140.587 537.763 140.505 537.773 140.425C537.786 140.344 537.807 140.268 537.841 140.2C537.875 140.131 537.919 140.072 537.968 140.026C538.017 139.98 538.074 139.948 538.134 139.931C538.193 139.914 538.256 139.914 538.315 139.929C540.109 140.375 541.937 140.84 543.746 141.317C543.806 141.333 543.863 141.364 543.912 141.409C543.964 141.455 544.008 141.513 544.041 141.581C544.075 141.649 544.099 141.725 544.111 141.805C544.122 141.886 544.122 141.968 544.111 142.048C544.083 142.189 544.021 142.313 543.933 142.398C543.844 142.483 543.738 142.524 543.629 142.513L543.658 142.538ZM373.673 140.096C373.551 140.111 373.429 140.06 373.333 139.954C373.24 139.848 373.18 139.697 373.17 139.532C373.159 139.368 373.196 139.204 373.276 139.078C373.354 138.951 373.468 138.871 373.59 138.857C375.277 138.435 376.993 138.026 378.678 137.617L379.01 137.543C379.072 137.529 379.134 137.532 379.194 137.551C379.254 137.57 379.311 137.604 379.36 137.652C379.409 137.7 379.453 137.761 379.484 137.831C379.518 137.901 379.539 137.979 379.549 138.06C379.56 138.142 379.557 138.225 379.544 138.305C379.528 138.386 379.505 138.461 379.469 138.529C379.433 138.595 379.386 138.652 379.334 138.696C379.282 138.74 379.225 138.769 379.163 138.782L378.834 138.857C377.138 139.247 375.422 139.656 373.748 140.096H373.673ZM532.776 139.848H532.695C530.907 139.433 529.074 139.024 527.257 138.609C527.197 138.596 527.138 138.568 527.086 138.525C527.034 138.482 526.987 138.426 526.951 138.359C526.915 138.293 526.889 138.217 526.873 138.137C526.86 138.057 526.858 137.974 526.865 137.893C526.876 137.811 526.897 137.733 526.928 137.663C526.961 137.593 527.003 137.531 527.052 137.483C527.101 137.434 527.158 137.399 527.218 137.38C527.278 137.36 527.34 137.357 527.399 137.369C529.25 137.76 531.06 138.169 532.853 138.609C532.975 138.623 533.089 138.701 533.17 138.827C533.247 138.954 533.286 139.117 533.276 139.281C533.266 139.445 533.206 139.598 533.113 139.704C533.019 139.81 532.898 139.862 532.776 139.848ZM384.529 137.592C384.467 137.598 384.407 137.588 384.35 137.563C384.29 137.537 384.239 137.497 384.192 137.444C384.145 137.39 384.106 137.326 384.08 137.253C384.052 137.18 384.036 137.1 384.031 137.019C384.026 136.938 384.034 136.856 384.052 136.778C384.073 136.701 384.101 136.629 384.143 136.567C384.181 136.505 384.231 136.455 384.285 136.418C384.34 136.381 384.399 136.359 384.459 136.353C386.253 135.975 388.091 135.609 389.916 135.256C390.04 135.232 390.164 135.275 390.263 135.374C390.361 135.473 390.429 135.621 390.447 135.786C390.465 135.95 390.431 136.117 390.359 136.25C390.284 136.383 390.172 136.471 390.05 136.495C388.223 136.849 386.393 137.214 384.601 137.592H384.529ZM521.891 137.481H521.824C520.027 137.121 518.187 136.774 516.364 136.44C516.242 136.418 516.131 136.331 516.056 136.199C515.981 136.067 515.95 135.901 515.965 135.736C515.981 135.572 516.045 135.423 516.144 135.322C516.242 135.222 516.367 135.178 516.489 135.2C518.34 135.535 520.157 135.882 521.956 136.241C522.018 136.247 522.078 136.269 522.132 136.305C522.186 136.342 522.233 136.392 522.275 136.454C522.313 136.515 522.345 136.587 522.363 136.664C522.383 136.741 522.391 136.823 522.386 136.904C522.383 136.986 522.365 137.065 522.339 137.138C522.311 137.211 522.275 137.276 522.228 137.33C522.181 137.383 522.129 137.424 522.072 137.45C522.013 137.476 521.953 137.486 521.891 137.481ZM395.465 135.497C395.354 135.499 395.245 135.445 395.16 135.345C395.074 135.246 395.02 135.108 395.004 134.958C394.988 134.796 395.022 134.631 395.095 134.501C395.17 134.371 395.281 134.286 395.401 134.264C397.192 133.954 399.037 133.644 400.883 133.365C401.005 133.346 401.127 133.392 401.223 133.493C401.319 133.594 401.381 133.742 401.396 133.905C401.402 133.986 401.399 134.068 401.381 134.146C401.365 134.225 401.337 134.298 401.298 134.362C401.262 134.426 401.215 134.479 401.161 134.519C401.109 134.558 401.049 134.583 400.989 134.593C399.139 134.884 397.288 135.213 395.522 135.497H395.465ZM510.954 135.497H510.897C509.049 135.194 507.227 134.878 505.423 134.624C505.301 134.605 505.189 134.523 505.114 134.395C505.039 134.267 505.003 134.105 505.016 133.942C505.021 133.861 505.039 133.782 505.067 133.711C505.098 133.639 505.137 133.576 505.184 133.525C505.231 133.474 505.285 133.435 505.345 133.412C505.402 133.389 505.464 133.382 505.524 133.39C507.338 133.669 509.181 133.96 511.009 134.264C511.131 134.274 511.247 134.349 511.328 134.472C511.411 134.595 511.452 134.757 511.444 134.921C511.436 135.086 511.382 135.239 511.289 135.349C511.198 135.458 511.076 135.514 510.954 135.504V135.497ZM499.987 133.843H499.943C498.138 133.595 496.293 133.359 494.457 133.143C494.395 133.136 494.336 133.112 494.281 133.075C494.227 133.037 494.18 132.985 494.141 132.922C494.102 132.859 494.071 132.787 494.053 132.709C494.035 132.63 494.03 132.548 494.035 132.467C494.048 132.303 494.107 132.153 494.201 132.048C494.297 131.944 494.419 131.893 494.54 131.909C496.389 132.126 498.239 132.362 500.033 132.609C500.095 132.614 500.155 132.634 500.21 132.669C500.264 132.703 500.313 132.752 500.355 132.813C500.396 132.873 500.427 132.944 500.448 133.021C500.466 133.097 500.477 133.179 500.474 133.26C500.471 133.342 500.456 133.421 500.43 133.495C500.404 133.569 500.368 133.635 500.321 133.689C500.277 133.744 500.222 133.786 500.165 133.814C500.108 133.841 500.049 133.853 499.987 133.849V133.843ZM406.423 133.812C406.301 133.821 406.179 133.764 406.088 133.655C405.998 133.545 405.943 133.391 405.935 133.226C405.928 133.062 405.972 132.901 406.052 132.778C406.135 132.655 406.249 132.581 406.374 132.572C408.196 132.324 410.039 132.083 411.872 131.86C411.993 131.845 412.115 131.896 412.211 132.002C412.305 132.107 412.364 132.259 412.375 132.424C412.387 132.588 412.349 132.751 412.271 132.878C412.19 133.005 412.076 133.084 411.955 133.099C410.104 133.322 408.281 133.564 406.469 133.812H406.423ZM489.003 132.529H488.967C487.116 132.337 485.265 132.163 483.472 132.002C483.35 131.991 483.236 131.916 483.155 131.792C483.075 131.669 483.033 131.508 483.041 131.345C483.044 131.264 483.059 131.184 483.088 131.111C483.114 131.037 483.15 130.972 483.197 130.917C483.241 130.863 483.295 130.822 483.352 130.795C483.409 130.769 483.472 130.757 483.531 130.763C485.348 130.924 487.199 131.103 489.034 131.296C489.159 131.301 489.273 131.372 489.358 131.492C489.441 131.613 489.485 131.773 489.483 131.937C489.478 132.101 489.426 132.257 489.335 132.369C489.244 132.481 489.125 132.541 489.003 132.535V132.529ZM417.367 132.454C417.243 132.461 417.123 132.402 417.033 132.291C416.945 132.179 416.89 132.024 416.885 131.86C416.88 131.695 416.924 131.535 417.007 131.414C417.09 131.293 417.206 131.222 417.328 131.215C419.143 131.023 420.991 130.843 422.837 130.682C422.899 130.677 422.959 130.688 423.016 130.715C423.075 130.741 423.127 130.783 423.174 130.837C423.218 130.891 423.257 130.957 423.283 131.03C423.309 131.103 423.324 131.183 423.327 131.265C423.334 131.428 423.296 131.589 423.213 131.712C423.132 131.835 423.021 131.91 422.896 131.921C421.048 132.083 419.197 132.262 417.398 132.448L417.367 132.454ZM477.955 131.543C476.104 131.407 474.254 131.289 472.449 131.19C472.387 131.19 472.325 131.173 472.268 131.14C472.211 131.107 472.159 131.059 472.115 130.998C472.071 130.937 472.037 130.865 472.016 130.786C471.993 130.707 471.985 130.623 471.988 130.539C471.993 130.381 472.045 130.231 472.131 130.121C472.216 130.011 472.333 129.95 472.449 129.951C474.264 130.05 476.117 130.174 477.958 130.304C478.082 130.304 478.199 130.369 478.284 130.486C478.373 130.602 478.422 130.759 478.422 130.924C478.422 131.088 478.373 131.246 478.284 131.362C478.199 131.478 478.082 131.543 477.958 131.543H477.955ZM428.363 131.488C428.242 131.488 428.125 131.422 428.037 131.306C427.951 131.19 427.902 131.032 427.902 130.868C427.902 130.704 427.951 130.546 428.037 130.43C428.125 130.313 428.242 130.248 428.363 130.248C430.214 130.118 432.065 130 433.882 129.901C434.004 129.894 434.123 129.954 434.214 130.065C434.305 130.177 434.359 130.332 434.362 130.496C434.367 130.661 434.323 130.821 434.24 130.942C434.157 131.062 434.043 131.134 433.919 131.141C432.101 131.24 430.251 131.358 428.415 131.488H428.363ZM466.941 130.917C465.129 130.843 463.278 130.781 461.438 130.738C461.316 130.738 461.197 130.672 461.111 130.556C461.025 130.44 460.976 130.282 460.976 130.118C460.976 129.954 461.025 129.796 461.111 129.68C461.197 129.564 461.316 129.498 461.438 129.498C463.288 129.542 465.139 129.604 466.951 129.678C467.073 129.678 467.192 129.743 467.278 129.859C467.366 129.976 467.413 130.133 467.413 130.298C467.413 130.462 467.366 130.62 467.278 130.736C467.192 130.852 467.073 130.917 466.951 130.917H466.941ZM439.386 130.887C439.264 130.887 439.144 130.821 439.059 130.705C438.971 130.589 438.924 130.431 438.924 130.267C438.924 130.102 438.971 129.945 439.059 129.829C439.144 129.712 439.264 129.647 439.386 129.647C441.236 129.573 443.085 129.517 444.907 129.473C445.031 129.473 445.148 129.539 445.236 129.655C445.322 129.771 445.371 129.929 445.371 130.093C445.371 130.258 445.322 130.415 445.236 130.531C445.148 130.648 445.031 130.713 444.907 130.713C443.059 130.756 441.208 130.812 439.398 130.887H439.386ZM455.924 130.645C454.076 130.645 452.238 130.645 450.415 130.645C450.294 130.645 450.177 130.58 450.089 130.463C450.003 130.347 449.954 130.189 449.954 130.025C449.954 129.861 450.003 129.703 450.089 129.587C450.177 129.471 450.294 129.405 450.415 129.405C452.266 129.405 454.107 129.405 455.934 129.405C456.056 129.405 456.175 129.471 456.261 129.587C456.349 129.703 456.396 129.861 456.396 130.025C456.396 130.189 456.349 130.347 456.261 130.463C456.175 130.58 456.056 130.645 455.934 130.645H455.924Z" fill="#1A1A1A"/>
<path d="M478.229 193.918H488.16V478.116H478.229V193.918Z" fill="#1C0311" stroke="#1A1A1A" stroke-width="0.406914" stroke-linecap="round" stroke-linejoin="round"/>
<path d="M384.207 165.174H448.818V172.889H384.207V165.174Z" fill="#1C0311" stroke="#1A1A1A" stroke-width="0.406914" stroke-linecap="round" stroke-linejoin="round"/>
<path d="M428.327 165.174H492.941V172.889H428.327V165.174Z" fill="white" stroke="#1A1A1A" stroke-width="0.813827" stroke-linecap="round" stroke-linejoin="round"/>
<path d="M517.896 160.059C517.896 160.059 495.475 151.734 488.24 154.453C481.006 157.173 476.487 165.178 476.487 165.178H492.94C492.94 165.178 504.693 172.175 509.937 170.727C515.181 169.279 517.896 160.059 517.896 160.059Z" fill="white" stroke="#1A1A1A" stroke-width="0.813827" stroke-linecap="round" stroke-linejoin="round"/>
<path d="M633.551 84.8467C633.551 84.8467 595.995 153.606 554.975 153.487C513.953 153.367 510.319 158.396 510.319 158.396C510.319 158.396 503.084 171.206 510.319 172.897C534.668 172.897 587.228 193.211 617.606 165.215L647.984 137.219L633.551 84.8467Z" fill="#B6D7FF"/>
<path d="M572.721 180.501C574.245 180.501 575.77 180.47 577.289 180.41C594.553 179.705 607.838 174.853 617.912 165.572L648.29 137.576C648.381 137.49 648.438 137.371 648.443 137.244C648.445 137.118 648.401 136.995 648.316 136.902C648.23 136.809 648.111 136.754 647.984 136.749C647.857 136.744 647.735 136.79 647.642 136.876L617.263 164.871C594.934 185.453 559.794 179.605 534.133 175.348C524.781 173.796 516.701 172.448 510.357 172.443C509.829 172.346 509.334 172.122 508.914 171.79C508.494 171.458 508.162 171.028 507.947 170.539C506.298 166.781 510.381 159.243 510.694 158.676C510.98 158.367 515.832 153.857 554.954 153.976H555.06C576.402 153.976 596.715 135.257 610.005 119.532C619 108.783 627.018 97.2512 633.96 85.0743C634.022 84.9639 634.04 84.8327 634.007 84.7101C633.973 84.5872 633.893 84.4827 633.781 84.4195C633.67 84.3565 633.54 84.3399 633.416 84.3733C633.294 84.4068 633.19 84.4877 633.125 84.5981C626.207 96.7138 618.22 108.188 609.264 118.885C596.106 134.447 576.026 152.976 555.055 152.976H554.949C514.132 152.857 510.062 157.867 509.909 158.081L509.88 158.124C509.683 158.467 505.176 166.553 507.07 170.872C507.35 171.503 507.781 172.057 508.323 172.484C508.867 172.911 509.505 173.2 510.184 173.324C510.22 173.329 510.259 173.329 510.295 173.324C516.571 173.324 524.633 174.662 533.973 176.22C545.964 178.258 559.384 180.501 572.721 180.501Z" fill="black"/>
<path d="M480.298 445.444C482.522 443.295 484.321 441.423 484.622 440.653C491.764 442.948 494.579 450.821 501.98 448.967C502.273 451.272 502.433 453.592 502.457 455.915C493.475 457.468 484.311 453.32 480.298 445.444Z" fill="#1C0311" stroke="#1A1A1A" stroke-width="0.406914" stroke-linecap="round" stroke-linejoin="round"/>
<path d="M470.702 454.576C472.089 453.028 476.739 448.862 480.298 445.448C484.311 453.324 493.474 457.472 502.475 455.924C502.604 462.924 501.837 470.947 500.271 475.925H432.298C431.961 469.216 436.466 457.5 470.702 454.576Z" fill="white" stroke="#1A1A1A" stroke-width="0.813827" stroke-linecap="round" stroke-linejoin="round"/>
<path d="M500.272 475.906C499.362 478.802 498.18 480.669 496.746 480.669C490.227 480.702 433.452 480.669 433.452 480.669C432.76 479.17 432.368 477.552 432.298 475.906H500.272Z" fill="#1C0311" stroke="#1A1A1A" stroke-width="0.406914" stroke-linecap="round" stroke-linejoin="round"/>
<path d="M606.496 247.985C606.496 247.985 545.739 251.319 520.423 309.73C495.108 368.142 480.646 441.834 480.646 441.834C480.646 441.834 492.94 455.595 502.342 453.819C531.995 411.547 576.117 348.626 579.733 318.977C634.702 304.516 687.505 316.086 700.521 300.882L606.496 247.985Z" fill="white"/>
<path d="M500.593 454.455C501.21 454.455 501.827 454.398 502.433 454.284C502.552 454.261 502.661 454.193 502.731 454.092C532.047 412.321 576.255 349.276 580.145 319.357C606.337 312.513 632.249 311.556 653.099 310.784C675.918 309.941 693.949 309.275 700.863 301.205C700.943 301.109 700.985 300.984 700.974 300.86C700.964 300.735 700.907 300.619 700.811 300.536C700.715 300.455 700.591 300.414 700.466 300.422C700.339 300.429 700.223 300.489 700.14 300.585C693.472 308.341 675.653 309 653.065 309.832C632.089 310.607 605.977 311.574 579.593 318.514C579.5 318.537 579.417 318.589 579.355 318.662C579.293 318.734 579.254 318.823 579.241 318.919C575.64 348.444 531.396 411.54 502.047 453.385C493.601 454.779 482.592 443.253 481.141 441.688C482.092 437.032 496.546 365.971 520.843 309.918C533.854 279.918 556.44 264.784 573.095 257.398C591.162 249.383 606.353 248.469 606.506 248.459C606.63 248.452 606.747 248.395 606.832 248.302C606.915 248.208 606.959 248.085 606.952 247.959C606.947 247.837 606.895 247.722 606.804 247.638C606.716 247.554 606.599 247.507 606.477 247.507C606.324 247.507 590.989 248.435 572.765 256.512C555.944 263.965 533.13 279.218 519.995 309.537C494.947 367.34 480.327 441.003 480.181 441.739C480.168 441.812 480.171 441.887 480.189 441.957C480.207 442.03 480.244 442.095 480.293 442.149C480.767 442.683 491.393 454.45 500.593 454.455Z" fill="#1A1A1A"/>
<path d="M567.822 447.648C569.175 444.177 568.885 441.82 568.885 441.82H589.508C589.508 441.82 589.985 444.605 590.537 448.688C583.137 450.544 574.984 449.955 567.822 447.648Z" fill="#1C0311" stroke="#1A1A1A" stroke-width="0.406914" stroke-linecap="round" stroke-linejoin="round"/>
<path d="M563.478 454.573C565.339 452.551 566.816 450.21 567.84 447.664C574.985 449.958 583.155 450.549 590.556 448.701C591.608 456.382 592.99 468.655 592.181 475.545H518.368C520.753 468.797 529.833 457.448 563.478 454.573Z" fill="white" stroke="#1A1A1A" stroke-width="0.813827" stroke-linecap="round" stroke-linejoin="round"/>
<path d="M592.161 475.54C591.8 478.643 590.989 480.655 589.509 480.663C582.989 480.696 517.533 480.663 517.533 480.663C517.435 478.918 517.712 477.168 518.347 475.54H592.161Z" fill="#1C0311" stroke="#1A1A1A" stroke-width="0.406914" stroke-linecap="round" stroke-linejoin="round"/>
<path d="M736.685 322.74L784.965 480.662H776.745L723.669 327.469L736.685 322.74Z" fill="#1C0311" stroke="#1A1A1A" stroke-width="0.406914" stroke-linecap="round" stroke-linejoin="round"/>
<path d="M651.181 322.74L602.9 480.662H611.12L664.196 327.469L651.181 322.74Z" fill="#1C0311" stroke="#1A1A1A" stroke-width="0.406914" stroke-linecap="round" stroke-linejoin="round"/>
<path d="M650.623 308.49H739.422C745.908 308.49 751.167 313.748 751.167 320.231V321.395C751.167 327.879 745.908 333.136 739.422 333.136H650.623C644.137 333.136 638.88 327.879 638.88 321.395V320.231C638.88 313.748 644.137 308.49 650.623 308.49Z" fill="#B6D7FF" stroke="black" stroke-width="0.813827" stroke-linecap="round" stroke-linejoin="round"/>
<path d="M767.779 203.666C767.779 203.666 808.132 301.068 717.513 311.246C634.694 320.431 589.498 292.625 589.498 292.625C589.498 292.625 609.401 412.877 592.394 444.452H565.984C565.984 444.452 511.737 275.458 545.029 243.905C578.323 212.352 660.033 221.352 660.033 221.352L767.779 203.666Z" fill="white" stroke="#1A1A1A" stroke-width="0.813827" stroke-linecap="round" stroke-linejoin="round"/>
<path d="M549.721 90.6367L602.9 133.714L574.326 144.2L537.244 111.071L549.721 90.6367Z" fill="#1C0311" stroke="#1A1A1A" stroke-width="0.406914" stroke-linecap="round" stroke-linejoin="round"/>
<path d="M569.357 98.8789L604.868 136.38L576.299 146.866L537.244 111.07L569.357 98.8789Z" fill="white" stroke="#1A1A1A" stroke-width="0.813827" stroke-linecap="round" stroke-linejoin="round"/>
<path d="M602.882 151.631C602.882 151.631 587.067 135.636 573.299 132.845C567.902 132.288 562.536 134.459 563.651 135.269C558.197 140.35 569.764 146.798 575.469 150.455C581.175 154.112 588.381 150.579 593.428 155.541L596.181 158.398C596.181 158.398 603.315 153.989 602.882 151.631Z" fill="white" stroke="#1A1A1A" stroke-width="0.813827" stroke-linecap="round" stroke-linejoin="round"/>
<path d="M681.387 69.6025C681.387 69.6025 772.343 66.812 771.244 202.972C708.735 268.821 633.25 220.159 633.25 220.159C633.25 220.159 595.937 103.742 641.203 79.0931C661.852 67.8454 681.387 69.6025 681.387 69.6025Z" fill="#B6D7FF" stroke="black" stroke-width="0.813827" stroke-linecap="round" stroke-linejoin="round"/>
<path d="M683.407 76.2132C683.407 76.2132 664.8 95.7375 643.033 85.5135C638.745 81.0468 649.174 75.2799 649.174 75.2799L645.081 68.0274C645.081 68.0274 633.175 74.5369 624.802 62.4462C616.429 50.3554 618.663 19.2928 637.828 12.7831C656.989 6.27337 660.339 52.4032 664.437 58.1793C666.596 61.2176 669.347 68.5941 673.738 72.4988C682.287 70.0845 683.407 76.2132 683.407 76.2132Z" fill="white" stroke="#1A1A1A" stroke-width="0.813827" stroke-linecap="round" stroke-linejoin="round"/>
<path d="M741.11 120.198C741.11 120.198 752.285 210.201 677.857 210.229C616.838 210.258 592.938 156.956 592.938 156.956L601.643 147.38C601.643 147.38 677.118 194.6 695.72 151.633L741.11 120.198Z" fill="#B6D7FF"/>
<path d="M677.8 210.705H677.852C697.459 210.705 712.927 204.434 723.822 192.095C735.918 178.395 740.104 159.552 741.481 146.161C742.388 137.513 742.422 128.796 741.577 120.141C741.569 120.079 741.548 120.018 741.517 119.963C741.486 119.908 741.447 119.86 741.395 119.821C741.346 119.782 741.289 119.754 741.229 119.736C741.17 119.72 741.105 119.715 741.043 119.722C740.98 119.73 740.921 119.749 740.864 119.78C740.809 119.811 740.763 119.853 740.724 119.902C740.685 119.952 740.654 120.008 740.638 120.069C740.62 120.129 740.615 120.193 740.623 120.255C740.68 120.708 745.947 165.595 723.094 191.467C712.388 203.591 697.164 209.744 677.852 209.753H677.8C646.483 209.753 625.206 195.362 612.867 183.29C600.528 171.219 594.434 159.028 593.48 157.042L601.71 147.994C610.363 153.166 619.392 157.68 628.721 161.499C642.888 167.252 662.941 173.128 678.025 168.438C686.401 165.833 692.493 160.242 696.122 151.823C696.171 151.707 696.171 151.575 696.124 151.458C696.078 151.341 695.987 151.247 695.87 151.197C695.754 151.147 695.624 151.145 695.505 151.192C695.388 151.239 695.295 151.33 695.246 151.447C691.715 159.599 685.82 165.009 677.725 167.528C649.327 176.362 602.33 147.27 601.858 146.975C601.762 146.916 601.651 146.893 601.539 146.908C601.428 146.924 601.327 146.978 601.251 147.061L592.547 156.637C592.485 156.706 592.446 156.791 592.43 156.882C592.417 156.974 592.427 157.067 592.466 157.152C592.523 157.285 598.657 170.709 612.144 183.943C624.644 196.153 646.151 210.701 677.8 210.705Z" fill="black"/>
<path d="M664.663 50.3277C664.663 50.3277 654.229 55.2276 649.389 50.3277C644.552 45.4275 655.528 40.9608 649.389 37.6129C643.251 34.2654 641.947 43.5654 641.947 43.5654L639.718 41.7035C639.718 41.7035 644.923 33.7082 642.507 29.6128C640.094 25.5175 638.414 19.384 638.414 19.384C638.414 19.384 619.812 36.8702 616.815 10.6409C620.349 9.15514 634.303 13.6172 635.975 5.0598C637.652 0.412061 645.838 2.64068 643.79 9.15514C654.208 8.77893 658.076 14.3029 656.438 19.9411C658.504 24.5936 674.352 45.7371 664.663 50.3277Z" fill="#1C0311" stroke="#1A1A1A" stroke-width="0.406914" stroke-linecap="round" stroke-linejoin="round"/>
<path d="M392.572 172.897H568.716C574.45 172.897 579.098 177.545 579.098 183.279C579.098 189.012 574.45 193.66 568.716 193.66H392.572C386.838 193.66 382.19 189.012 382.19 183.279C382.19 177.545 386.838 172.897 392.572 172.897Z" fill="white" stroke="#1A1A1A" stroke-width="0.813827" stroke-linecap="round" stroke-linejoin="round"/>
<path d="M419.645 101.197L452.919 163.666H381.314L345.15 101.197H419.645Z" fill="#1C0311" stroke="#1A1A1A" stroke-width="0.406914" stroke-linecap="round" stroke-linejoin="round"/>
<path d="M423.746 101.197L457.02 163.666H385.414L349.245 101.197H423.746Z" fill="white" stroke="#1A1A1A" stroke-width="0.813827" stroke-linecap="round" stroke-linejoin="round"/>
<path d="M451.104 160.114H387.457L380.728 148.484H444.909L451.104 160.114Z" fill="#B6D7FF" stroke="black" stroke-width="0.813827" stroke-linecap="round" stroke-linejoin="round"/>
<path d="M421.613 104.752L444.909 148.487H380.728L355.407 104.752H421.613Z" fill="white" stroke="#1A1A1A" stroke-width="0.813827" stroke-linecap="round" stroke-linejoin="round"/>
<path d="M460.633 167.927V170.184H448.004V167.564L460.633 167.927Z" fill="#1C0311" stroke="#1A1A1A" stroke-width="0.406914" stroke-linecap="round" stroke-linejoin="round"/>
<path d="M438.167 167.927V170.184H434.447V167.564L438.167 167.927Z" fill="#1C0311" stroke="#1A1A1A" stroke-width="0.406914" stroke-linecap="round" stroke-linejoin="round"/>
<path d="M419.345 109.374L400.901 109.798L407.14 123.267L425.885 122.785L419.345 109.374Z" fill="#B6D7FF" stroke="black" stroke-width="0.813827" stroke-linecap="round" stroke-linejoin="round"/>
<path d="M728.771 252.099C731.003 252.098 733.225 251.799 735.376 251.208C735.488 251.165 735.579 251.081 735.63 250.974C735.682 250.866 735.693 250.743 735.659 250.628C735.625 250.514 735.55 250.416 735.446 250.355C735.343 250.294 735.221 250.274 735.104 250.299C735.024 250.299 726.884 252.68 720.927 249.303C718.071 247.675 716.165 244.96 715.214 241.236C715.183 241.113 715.105 241.008 714.996 240.943C714.887 240.877 714.76 240.858 714.636 240.888C714.514 240.918 714.408 240.996 714.343 241.104C714.278 241.212 714.258 241.342 714.289 241.464C715.289 245.455 717.366 248.37 720.479 250.132C723.133 251.651 726.151 252.099 728.771 252.099Z" fill="#1A1A1A"/>
<path d="M64.2412 308.907C57.1312 308.907 57.1312 348.989 64.2412 348.989H98.1301V308.907H64.2412Z" fill="#B6D7FF" stroke="black" stroke-width="0.918853" stroke-linecap="round" stroke-linejoin="round"/>
<path d="M153.184 348.989H98.1298C93.527 348.989 93.527 308.907 98.1298 308.907H153.184C146.705 308.907 146.705 348.989 153.184 348.989Z" fill="white" stroke="#1A1A1A" stroke-width="0.918853" stroke-linecap="round" stroke-linejoin="round"/>
<path d="M240.722 348.989H153.185C146.701 348.989 146.701 308.907 153.185 308.907H240.722C230.682 308.907 230.682 348.989 240.722 348.989Z" fill="#B6D7FF" stroke="black" stroke-width="0.918853" stroke-linecap="round" stroke-linejoin="round"/>
<path d="M113.302 340.395C117.98 340.395 121.772 335.267 121.772 328.944C121.772 322.621 117.98 317.493 113.302 317.493C108.625 317.493 104.833 322.621 104.833 328.944C104.833 335.267 108.625 340.395 113.302 340.395Z" fill="#B6D7FF" stroke="black" stroke-width="0.918853" stroke-linecap="round" stroke-linejoin="round"/>
<path d="M244.427 344.615H295.314V348.989H240.722C230.681 348.989 230.681 308.907 240.722 308.907H295.314V313.288H244.427C234.791 313.288 234.791 344.615 244.427 344.615Z" fill="white" stroke="#1A1A1A" stroke-width="0.918853" stroke-linecap="round" stroke-linejoin="round"/>
<path d="M290.449 313.288C290.449 313.288 287.937 320.78 287.937 328.524C287.937 336.267 290.449 344.615 290.449 344.615H244.428C234.791 344.615 234.791 313.288 244.428 313.288H290.449Z" fill="white" stroke="#1A1A1A" stroke-width="0.918853" stroke-linecap="round" stroke-linejoin="round"/>
<path d="M268.018 431.724H19.0627C-2.89787 431.724 -2.89787 349.013 19.0627 349.013H268.018C241.035 348.992 241.035 431.724 268.018 431.724Z" fill="white" stroke="#1A1A1A" stroke-width="0.918853" stroke-linecap="round" stroke-linejoin="round"/>
<path d="M41.1604 363.834H31.7589C26.2432 377.372 25.4441 400.527 29.3575 416.854H38.7592C34.8418 400.527 35.6449 377.372 41.1604 363.834Z" fill="#1C0311" stroke="#1A1A1A" stroke-width="0.459427" stroke-linecap="round" stroke-linejoin="round"/>
<path d="M67.0428 363.834H57.641C52.1214 377.372 51.3225 400.527 55.2398 416.854H64.6413C60.7278 400.527 61.527 377.372 67.0428 363.834Z" fill="#1C0311" stroke="#1A1A1A" stroke-width="0.459427" stroke-linecap="round" stroke-linejoin="round"/>
<path d="M185.232 426.383H364.607V431.679H179.07C157.109 431.679 157.109 348.968 179.07 348.968H364.607V354.293H185.232C163.248 354.313 163.248 426.383 185.232 426.383Z" fill="#1C0311" stroke="#1A1A1A" stroke-width="0.459427" stroke-linecap="round" stroke-linejoin="round"/>
<path d="M352.255 354.311C347.555 354.311 347.555 426.382 352.255 426.382H185.232C163.248 426.382 163.248 354.311 185.232 354.311H352.255Z" fill="white" stroke="#1A1A1A" stroke-width="0.918853" stroke-linecap="round" stroke-linejoin="round"/>
<path d="M349.302 370.192H243.189C243.085 370.192 242.986 370.138 242.912 370.037C242.839 369.938 242.797 369.804 242.797 369.664C242.797 369.524 242.839 369.389 242.912 369.288C242.986 369.189 243.085 369.135 243.189 369.135H349.302C349.406 369.135 349.505 369.189 349.58 369.288C349.652 369.389 349.694 369.524 349.694 369.664C349.694 369.804 349.652 369.938 349.58 370.037C349.505 370.138 349.406 370.192 349.302 370.192Z" fill="#1A1A1A"/>
<path d="M348.802 383.078H204.012C203.908 383.078 203.808 383.024 203.735 382.925C203.661 382.824 203.62 382.689 203.62 382.549C203.62 382.409 203.661 382.275 203.735 382.176C203.808 382.075 203.908 382.021 204.012 382.021H348.802C348.906 382.021 349.004 382.075 349.077 382.176C349.152 382.275 349.193 382.409 349.193 382.549C349.193 382.689 349.152 382.824 349.077 382.925C349.004 383.024 348.906 383.078 348.802 383.078Z" fill="#1A1A1A"/>
<path d="M348.774 397.232H230.368C230.264 397.232 230.165 397.177 230.091 397.079C230.018 396.977 229.977 396.843 229.977 396.703C229.977 396.563 230.018 396.428 230.091 396.329C230.165 396.228 230.264 396.174 230.368 396.174H348.774C348.878 396.174 348.976 396.228 349.051 396.329C349.124 396.428 349.165 396.563 349.165 396.703C349.165 396.843 349.124 396.977 349.051 397.079C348.976 397.177 348.878 397.232 348.774 397.232Z" fill="#1A1A1A"/>
<path d="M348.802 414.094H212.011C211.908 414.094 211.808 414.037 211.734 413.939C211.661 413.84 211.62 413.706 211.62 413.566C211.62 413.423 211.661 413.288 211.734 413.19C211.808 413.091 211.908 413.034 212.011 413.034H348.802C348.906 413.034 349.005 413.091 349.077 413.19C349.152 413.288 349.194 413.423 349.194 413.566C349.194 413.706 349.152 413.84 349.077 413.939C349.005 414.037 348.906 414.094 348.802 414.094Z" fill="#1A1A1A"/>
<path d="M297.655 474.648H377.643V480.286H289.171C270.971 480.286 270.971 431.303 289.171 431.303H377.643V436.949H297.655C280.601 436.949 280.601 474.648 297.655 474.648Z" fill="white" stroke="#1A1A1A" stroke-width="0.918853" stroke-linecap="round" stroke-linejoin="round"/>
<path d="M371.531 436.944C365.524 449.38 367.067 461.979 371.531 474.643H297.657C280.601 474.643 280.601 436.944 297.657 436.944H371.531Z" fill="white" stroke="#1A1A1A" stroke-width="0.918853" stroke-linecap="round" stroke-linejoin="round"/>
<path d="M289.171 480.286H97.1629C77.0824 480.286 77.0824 431.303 97.1629 431.303H289.171C270.971 431.303 270.971 480.286 289.171 480.286Z" fill="#1C0311" stroke="#1A1A1A" stroke-width="0.459427" stroke-linecap="round" stroke-linejoin="round"/>
<path d="M248.227 480.286H56.2146C36.1381 480.286 36.1381 431.303 56.2146 431.303H248.227C230.031 431.303 230.031 480.286 248.227 480.286Z" fill="#B6D7FF" stroke="black" stroke-width="0.918853" stroke-linecap="round" stroke-linejoin="round"/>
<path d="M247.405 455.8L258.933 444.344L267.876 455.8L258.463 466.773L247.405 455.8Z" fill="#B6D7FF" stroke="black" stroke-width="0.918853" stroke-linecap="round" stroke-linejoin="round"/>
<path d="M73.4509 451.028H167.35C164.737 454.054 165.262 457.268 167.35 460.563H73.4509C72.2092 457.146 71.794 453.867 73.4509 451.028Z" fill="#1C0311" stroke="#1A1A1A" stroke-width="0.459427" stroke-linecap="round" stroke-linejoin="round"/>
<path d="M225.378 451.028H186.878C185.154 454.207 185.224 457.385 187.086 460.563H225.378C223.29 457.268 222.761 454.054 225.378 451.028Z" fill="white" stroke="#1A1A1A" stroke-width="0.918853" stroke-linecap="round" stroke-linejoin="round"/>
<path d="M167.058 201.117C172.061 201.117 176.116 197.062 176.116 192.059C176.116 187.056 172.061 183 167.058 183C162.056 183 158 187.056 158 192.059C158 197.062 162.056 201.117 167.058 201.117Z" fill="#0E101A" stroke="#0E101A" stroke-width="1.38131" stroke-linecap="round" stroke-linejoin="round"/>
<path d="M322.941 56.9438C325.669 56.9438 327.882 54.7314 327.882 52.0027C327.882 49.2736 325.669 47.0615 322.941 47.0615C320.212 47.0615 318 49.2736 318 52.0027C318 54.7314 320.212 56.9438 322.941 56.9438Z" fill="#0E101A" stroke="#0E101A" stroke-width="1.38131" stroke-linecap="round" stroke-linejoin="round"/>
<path d="M842.526 438.235L862.639 479.685H899.207L919.847 438.235H842.526Z" fill="#1C0311"/>
<path d="M899.208 479.894H862.642C862.6 479.896 862.559 479.883 862.525 479.862C862.491 479.839 862.465 479.808 862.447 479.772L842.334 438.324C842.316 438.293 842.306 438.257 842.306 438.22C842.306 438.187 842.316 438.15 842.334 438.119C842.352 438.088 842.381 438.062 842.412 438.044C842.446 438.026 842.482 438.016 842.518 438.016H919.847C919.883 438.016 919.92 438.026 919.951 438.044C919.982 438.062 920.008 438.088 920.028 438.119C920.044 438.15 920.054 438.187 920.054 438.223C920.054 438.259 920.044 438.296 920.028 438.329L899.392 479.774C899.376 479.811 899.35 479.839 899.317 479.86C899.285 479.881 899.247 479.894 899.208 479.894ZM862.774 479.468H899.075L919.502 438.443H842.863L862.774 479.468Z" fill="#1A1A1A"/>
<path d="M829.77 381.614C829.77 381.614 847.687 374.163 858.663 391.221C842.098 399.172 829.77 381.614 829.77 381.614Z" fill="#B6D7FF"/>
<path d="M850.033 393.7C837.904 393.7 829.523 382.003 829.424 381.858C829.386 381.806 829.362 381.746 829.349 381.681C829.339 381.619 829.342 381.554 829.36 381.495C829.378 381.432 829.409 381.375 829.45 381.326C829.494 381.28 829.546 381.241 829.606 381.217C829.79 381.14 847.998 373.832 859.043 390.991C859.074 391.043 859.095 391.1 859.105 391.159C859.113 391.219 859.111 391.278 859.092 391.338C859.077 391.395 859.048 391.45 859.009 391.496C858.971 391.543 858.921 391.579 858.867 391.605C856.119 392.966 853.099 393.682 850.033 393.7ZM830.456 381.814C832.507 384.442 843.682 397.552 858.035 391.043C853.602 384.365 847.575 380.808 840.117 380.45C836.841 380.307 833.564 380.769 830.456 381.814Z" fill="black"/>
<path d="M858.47 392.595C858.47 392.595 877.816 385.58 874.311 365.81C861.682 365.103 858.47 392.595 858.47 392.595Z" fill="#B6D7FF"/>
<path d="M858.473 393.021C858.377 393.021 858.284 392.99 858.209 392.933C858.152 392.886 858.108 392.826 858.079 392.759C858.051 392.694 858.04 392.619 858.051 392.546C858.183 391.406 861.462 364.647 874.338 365.383C874.434 365.388 874.527 365.427 874.597 365.492C874.67 365.557 874.719 365.642 874.734 365.738C878.262 385.627 858.813 392.922 858.618 392.995C858.572 393.013 858.523 393.021 858.473 393.021ZM873.83 366.223C863.22 366.223 859.598 387.67 858.984 391.922C862.1 390.537 864.954 388.632 867.427 386.288C873.057 380.868 875.248 374.117 873.941 366.223H873.83Z" fill="black"/>
<path d="M852.441 370.807C852.441 370.807 870.151 353.098 841.953 337.546C832.994 368.222 851.764 370.807 851.764 370.807H852.441Z" fill="#B6D7FF"/>
<path d="M851.738 371.239H851.679C851.448 371.206 845.937 370.386 842.256 364.719C838.285 358.599 838.041 349.427 841.535 337.455C841.554 337.393 841.585 337.336 841.626 337.289C841.67 337.242 841.722 337.206 841.782 337.18C841.841 337.157 841.904 337.147 841.968 337.152C842.031 337.154 842.093 337.172 842.15 337.204C851.824 342.534 857.221 348.716 858.193 355.537C859.435 364.289 853.011 370.825 852.736 371.097C852.698 371.138 852.651 371.169 852.599 371.193C852.547 371.213 852.49 371.224 852.433 371.224C852.379 371.224 852.322 371.213 852.27 371.193C852.218 371.169 852.171 371.138 852.132 371.097L852.086 371.042C852.047 371.102 851.995 371.149 851.935 371.182C851.876 371.219 851.808 371.237 851.738 371.239ZM842.204 338.204C838.941 349.676 839.218 358.438 842.969 364.25C843.954 365.811 845.242 367.156 846.759 368.211C848.275 369.267 849.989 370.005 851.795 370.386C851.853 370.394 851.91 370.415 851.959 370.446C852.008 370.477 852.052 370.516 852.086 370.565L852.132 370.511C852.195 370.446 858.53 363.986 857.348 355.662C856.428 349.206 851.334 343.335 842.204 338.204Z" fill="black"/>
<path d="M882.106 368.852C882.106 368.852 883.211 352.323 903.057 354.352C900.804 368.971 882.106 368.852 882.106 368.852Z" fill="#B6D7FF"/>
<path d="M882.11 369.274C882.053 369.274 881.995 369.261 881.944 369.238C881.889 369.217 881.843 369.184 881.804 369.142C881.762 369.098 881.731 369.049 881.71 368.994C881.692 368.937 881.684 368.88 881.687 368.821C881.687 368.548 882.19 362.148 887.421 357.733C891.219 354.531 896.494 353.25 903.107 353.93C903.164 353.935 903.221 353.953 903.272 353.982C903.322 354.01 903.366 354.049 903.402 354.096C903.436 354.14 903.462 354.192 903.477 354.249C903.493 354.303 903.495 354.363 903.488 354.42C901.212 369.132 882.558 369.274 882.11 369.274ZM899.796 354.611C894.928 354.611 890.97 355.89 887.991 358.381C883.826 361.886 882.822 366.876 882.61 368.411C885.474 368.297 900.33 367.112 902.583 354.739C901.611 354.653 900.68 354.611 899.796 354.611Z" fill="black"/>
<path d="M883.223 333.45C883.223 333.45 879.703 310.52 857.493 313.442C854.201 333.232 883.223 333.45 883.223 333.45Z" fill="#B6D7FF"/>
<path d="M883.224 333.875C882.563 333.875 866.924 333.657 859.995 325.421C857.27 322.181 856.288 318.126 857.081 313.372C857.097 313.281 857.141 313.198 857.206 313.133C857.27 313.071 857.353 313.029 857.444 313.016C869.132 311.476 875.644 317.11 879.048 322.108C881.326 325.517 882.894 329.354 883.651 333.382C883.659 333.445 883.656 333.507 883.638 333.566C883.62 333.626 883.589 333.683 883.548 333.73C883.509 333.774 883.457 333.813 883.402 333.836C883.345 333.862 883.286 333.875 883.224 333.875ZM857.866 313.83C857.213 318.193 858.144 321.908 860.64 324.879C866.613 331.998 879.913 332.903 882.708 333.017C881.914 329.292 880.424 325.748 878.319 322.575C873.622 315.681 866.745 312.744 857.866 313.823V313.83Z" fill="black"/>
<path d="M902.829 326.009C902.829 326.009 927.172 331.331 922.41 360.493C894.557 357.38 902.829 326.009 902.829 326.009Z" fill="#B6D7FF"/>
<path d="M922.405 360.937H922.354C914.707 360.084 909.032 357.023 905.491 351.856C898.414 341.523 902.373 326.08 902.414 325.924C902.443 325.818 902.513 325.727 902.606 325.67C902.699 325.613 902.811 325.595 902.92 325.618C907.298 326.777 911.334 328.97 914.688 332.014C919.774 336.623 925.317 345.323 922.823 360.585C922.807 360.683 922.755 360.771 922.68 360.836C922.602 360.901 922.507 360.937 922.405 360.937ZM903.14 326.552C902.572 329.045 899.975 342.295 906.199 351.374C909.53 356.235 914.859 359.146 922.048 360.038C923.844 348.465 921.115 339.008 914.141 332.675C910.984 329.834 907.225 327.741 903.145 326.552H903.14Z" fill="black"/>
<path d="M922.405 360.515C922.405 360.515 954.554 350.767 959.453 380.285C934.799 387.87 922.405 360.515 922.405 360.515Z" fill="#B6D7FF"/>
<path d="M951.049 382.021C942.386 382.021 935.773 377.72 931.393 373.544C927.553 369.824 924.378 365.474 922.006 360.683C921.983 360.626 921.97 360.566 921.97 360.507C921.97 360.444 921.983 360.385 922.006 360.33C922.032 360.273 922.068 360.224 922.112 360.185C922.159 360.146 922.213 360.115 922.27 360.1C922.429 360.053 937.974 355.459 949.116 362.376C954.881 365.959 958.502 371.957 959.863 380.206C959.881 380.307 959.86 380.411 959.806 380.499C959.752 380.587 959.666 380.652 959.567 380.683C956.812 381.552 953.94 382.003 951.049 382.021ZM923.017 360.781C925.324 365.303 928.36 369.412 932.002 372.948C939.983 380.546 949.066 382.908 958.971 379.976C957.603 372.17 954.137 366.495 948.678 363.102C938.951 357.061 925.697 360.076 923.017 360.781Z" fill="black"/>
<path d="M925.557 302.489C925.557 302.489 947.921 309.131 937.533 335.568C919.847 328.841 921.28 308.099 925.557 302.489Z" fill="#B6D7FF"/>
<path d="M937.533 336C937.481 336.002 937.429 335.992 937.38 335.971C928.422 332.56 924.842 325.887 923.408 320.876C921.275 313.482 922.667 305.588 925.223 302.234C925.275 302.166 925.347 302.114 925.43 302.088C925.51 302.06 925.599 302.06 925.682 302.083C926.042 302.192 934.544 304.8 938.625 313.171C941.611 319.328 941.396 326.924 937.93 335.741C937.899 335.818 937.842 335.886 937.772 335.932C937.702 335.977 937.619 336.002 937.533 336ZM925.72 302.988C923.46 306.249 922.262 313.767 924.227 320.632C925.586 325.379 928.955 331.691 937.29 335.012C940.517 326.595 940.703 319.367 937.857 313.526C934.35 306.345 927.227 303.522 925.72 302.988Z" fill="black"/>
<path d="M937.534 335.576C937.534 335.576 961.03 323.338 974.315 348.297C952.361 361.563 937.534 335.576 937.534 335.576Z" fill="#B6D7FF"/>
<path d="M961.866 352.494C960.083 352.491 958.307 352.263 956.581 351.812C944.657 348.711 937.235 335.91 937.162 335.783C937.134 335.731 937.116 335.677 937.108 335.62C937.103 335.563 937.108 335.505 937.123 335.448C937.139 335.394 937.168 335.345 937.204 335.301C937.24 335.257 937.284 335.22 937.336 335.194C941.587 333.172 946.238 332.13 950.945 332.146C957.936 332.205 967.727 335.016 974.69 348.094C974.742 348.19 974.755 348.302 974.726 348.408C974.698 348.514 974.63 348.605 974.537 348.659C970.312 351.21 966.068 352.494 961.866 352.494ZM938.137 335.752C939.477 337.911 946.393 348.286 956.801 350.985C962.348 352.431 968.064 351.47 973.744 348.136C968.329 338.183 960.671 333.087 950.971 332.999C946.546 333.006 942.176 333.945 938.137 335.752Z" fill="black"/>
<path d="M885.718 250.03C885.718 250.03 909.04 282.864 883.872 303.331C864.106 282.187 885.718 250.03 885.718 250.03Z" fill="#B6D7FF"/>
<path d="M883.871 303.751C883.811 303.754 883.754 303.741 883.703 303.717C883.648 303.697 883.599 303.663 883.56 303.619C875.374 294.857 873.095 282.76 876.973 268.655C878.853 262.005 881.681 255.658 885.364 249.811C885.403 249.753 885.455 249.705 885.515 249.672C885.577 249.638 885.644 249.62 885.714 249.619C885.782 249.62 885.849 249.637 885.911 249.668C885.973 249.699 886.025 249.743 886.067 249.798C889.963 255.657 892.861 262.12 894.647 268.922C897.125 278.872 897.314 292.972 884.141 303.679C884.06 303.733 883.967 303.759 883.871 303.751ZM885.719 250.8C882.256 256.435 879.584 262.519 877.779 268.881C875.164 278.428 874.122 292.013 883.9 302.743C893.955 294.4 897.291 283.097 893.815 269.132C891.575 260.092 887.031 252.779 885.719 250.8Z" fill="black"/>
<path d="M949.222 319.313C949.222 319.313 996.069 314.001 985.698 267.117C940.541 277.572 949.222 319.313 949.222 319.313Z" fill="#B6D7FF"/>
<path d="M949.222 319.739C949.12 319.741 949.025 319.707 948.944 319.645C948.866 319.583 948.815 319.495 948.794 319.396C947.583 311.93 948.042 304.285 950.134 297.016C953.338 286.193 962.079 272.147 985.619 266.7C985.728 266.677 985.842 266.695 985.938 266.752C985.987 266.783 986.029 266.822 986.062 266.869C986.093 266.913 986.117 266.965 986.13 267.022C989.248 281.127 987.524 292.899 981.01 302.022C970.162 317.206 949.499 319.713 949.294 319.733L949.222 319.739ZM985.37 267.631C962.577 273.052 954.066 286.696 950.943 297.223C948.936 304.244 948.467 311.617 949.572 318.834C952.462 318.409 970.499 315.243 980.287 301.522C986.604 292.694 988.307 281.293 985.37 267.631Z" fill="black"/>
<path d="M892.581 438.077H892.478C892.423 438.064 892.371 438.041 892.327 438.007C892.281 437.973 892.244 437.932 892.213 437.885C892.185 437.836 892.164 437.784 892.156 437.727C892.148 437.673 892.151 437.616 892.164 437.561C897.758 414.657 905.859 392.44 916.318 371.309C929.588 344.527 946.583 319.759 966.802 297.739C966.838 297.695 966.885 297.656 966.934 297.63C966.986 297.602 967.043 297.586 967.103 297.584C967.16 297.578 967.219 297.586 967.274 297.604C967.328 297.625 967.38 297.654 967.422 297.692C967.466 297.734 967.499 297.781 967.523 297.835C967.546 297.887 967.559 297.944 967.562 298.004C967.562 298.061 967.549 298.12 967.528 298.172C967.505 298.227 967.471 298.276 967.429 298.315C921.949 347.874 901.846 401.508 892.996 437.753C892.973 437.844 892.918 437.927 892.843 437.986C892.768 438.043 892.677 438.077 892.581 438.077Z" fill="#1A1A1A"/>
<path d="M880.974 438.082C880.86 438.082 880.753 438.038 880.673 437.958C880.593 437.878 880.546 437.769 880.546 437.657L884.079 273.749C884.079 273.635 884.123 273.526 884.204 273.446C884.284 273.365 884.393 273.321 884.507 273.321C884.618 273.321 884.727 273.365 884.808 273.446C884.888 273.526 884.932 273.635 884.932 273.749L881.401 437.652C881.401 437.709 881.391 437.763 881.37 437.818C881.347 437.87 881.316 437.916 881.277 437.955C881.238 437.997 881.189 438.028 881.137 438.051C881.085 438.072 881.031 438.082 880.974 438.082Z" fill="#1A1A1A"/>
<path d="M868.129 437.207C868.028 437.21 867.929 437.176 867.852 437.111C867.774 437.047 867.722 436.958 867.704 436.857C860.22 395.713 848.425 357.887 848.309 357.511C848.285 357.457 848.275 357.397 848.278 357.34C848.278 357.281 848.291 357.221 848.317 357.169C848.342 357.115 848.379 357.068 848.423 357.029C848.467 356.99 848.519 356.959 848.576 356.941C848.63 356.923 848.69 356.918 848.749 356.925C848.809 356.931 848.866 356.949 848.915 356.98C848.967 357.008 849.011 357.047 849.048 357.096C849.081 357.143 849.107 357.198 849.12 357.255C849.239 357.636 861.065 395.513 868.544 436.704C868.554 436.759 868.551 436.816 868.539 436.87C868.528 436.925 868.505 436.977 868.474 437.023C868.44 437.07 868.401 437.109 868.352 437.14C868.305 437.168 868.253 437.189 868.196 437.2L868.129 437.207Z" fill="#1A1A1A"/>
</g>
<defs>
<clipPath id="clip0_823_10491">
<rect width="987.638" height="547" fill="white"/>
</clipPath>
</defs>
</svg>
