<svg width="25" height="25" viewBox="0 0 25 25" fill="none" xmlns="http://www.w3.org/2000/svg">
<path d="M18.5817 5.17251C17.4056 4.12023 15.8882 3.58885 14.3158 3.67629C12.7406 3.76374 11.2937 4.45928 10.2416 5.63463C8.0698 8.06156 8.27732 11.8031 10.7043 13.9749C11.8298 14.9819 13.2371 15.4771 14.6401 15.4771C16.2631 15.4771 17.8797 14.814 19.0446 13.5123C21.2161 11.0859 21.0086 7.34435 18.5817 5.17251ZM18.4873 13.0143C16.5907 15.1341 13.3225 15.3155 11.2025 13.4179C9.08248 11.5209 8.90137 8.25289 10.7982 6.13312C11.7172 5.10625 12.9812 4.49864 14.3569 4.42241C14.4548 4.41718 14.5519 4.41444 14.6491 4.41444C15.9193 4.41444 17.1291 4.87556 18.0832 5.7293C20.2032 7.6266 20.3843 10.8946 18.4873 13.0143Z" fill="#BDC4C6"/>
<path d="M11.4625 6.71587C11.3247 6.86982 11.3379 7.10599 11.4916 7.24351C11.5631 7.30728 11.6521 7.33867 11.7408 7.33867C11.8434 7.33867 11.9455 7.29682 12.0193 7.21411C13.3207 5.75999 15.5618 5.63593 17.0159 6.93684C17.1696 7.0746 17.4055 7.0614 17.5435 6.90769C17.681 6.75373 17.6678 6.51757 17.5141 6.38005C15.7528 4.80412 13.0382 4.95508 11.4625 6.71587Z" fill="#BDC4C6"/>
<path d="M22.5893 9.09196C22.4625 6.97642 21.5196 5.03727 19.9342 3.63098C18.3488 2.2247 16.3125 1.52218 14.195 1.64699C12.0797 1.77379 10.1403 2.71671 8.73423 4.30211C5.91543 7.48015 6.11821 12.3094 9.12909 15.2442L7.84038 16.7146L7.42709 16.3481C7.27289 16.2111 7.03772 16.225 6.9007 16.3785L2.41653 21.3895C2.35026 21.4633 2.31638 21.5604 2.32186 21.6593C2.32734 21.7582 2.37194 21.8512 2.44568 21.9172L3.85445 23.178C3.92595 23.2418 4.01489 23.2731 4.10357 23.2731C4.20621 23.2731 4.30835 23.231 4.38209 23.1486L8.87224 18.1311C8.93851 18.0571 8.97264 17.9597 8.96691 17.8603C8.96118 17.7614 8.91609 17.6682 8.84185 17.6024L8.39966 17.2103L9.68761 15.741C11.1034 16.8862 12.8415 17.5008 14.6591 17.5008C14.8202 17.5008 14.9824 17.4958 15.1446 17.4861C17.2599 17.359 19.1993 16.4161 20.6056 14.8307C22.0119 13.2453 22.7161 11.2075 22.5893 9.09196ZM4.07443 22.3718L3.22268 21.6095L7.20961 17.1542L8.06509 17.9128L4.07443 22.3718ZM20.0463 14.3349C18.7725 15.7711 17.0157 16.6251 15.0998 16.74C13.184 16.858 11.3375 16.2166 9.90136 14.9431C6.93682 12.3136 6.66404 7.7624 9.2935 4.79787C10.5673 3.36168 12.3241 2.5077 14.24 2.39285C14.387 2.38389 14.5335 2.37965 14.6797 2.37965C16.437 2.37965 18.1126 3.01391 19.4387 4.19001C20.8749 5.46376 21.7289 7.22056 21.8437 9.13655C21.9583 11.0528 21.3198 12.899 20.0463 14.3349Z" fill="#BDC4C6"/>
</svg>
