<svg width="574" height="487" viewBox="0 0 574 487" fill="none" xmlns="http://www.w3.org/2000/svg">
<path d="M167.779 454.039C167.848 453.992 167.906 453.932 167.95 453.861C167.993 453.79 168.023 453.712 168.036 453.63C168.051 453.55 168.049 453.468 168.032 453.387C168.016 453.309 167.984 453.233 167.937 453.165L167.848 453.035C167.788 452.949 167.703 452.813 167.585 452.624C167.352 452.272 167.011 451.747 166.581 451.062C165.712 449.693 164.473 447.672 162.982 445.084C158.947 438.048 155.3 430.793 152.057 423.352C146.269 410.106 140.486 393.38 137.773 375.146C152.959 366.47 170.049 361.755 187.494 361.421C188.055 362.49 188.626 363.554 189.205 364.612C230.159 439.203 261.729 455.643 261.852 455.725C261.939 455.77 262.038 455.794 262.137 455.794C262.237 455.794 262.336 455.77 262.424 455.725C262.424 455.725 264.638 454.494 267.858 452.445L271.839 455.192L271.794 455.24C271.44 455.602 270.916 456.123 270.247 456.753C269.69 457.278 269.029 457.882 268.272 458.526L267.331 458.075C267.247 458.032 267.154 458.009 267.06 458.009C266.967 458.009 266.874 458.032 266.79 458.075L261.08 461.03C260.981 461.082 260.899 461.163 260.842 461.258C260.784 461.355 260.752 461.465 260.752 461.579C260.752 461.691 260.784 461.801 260.842 461.898C260.899 461.995 260.981 462.073 261.08 462.125L262.55 462.905C258.13 465.881 252.632 468.645 246.95 469.223C243.929 469.485 241.027 470.528 238.521 472.25C236.568 473.64 234.92 475.424 233.679 477.485C232.447 479.527 231.568 481.762 231.076 484.1H174.559L162.671 457.007C164.428 456.119 166.133 455.126 167.779 454.039Z" fill="#B6D7FF"/>
<path d="M123.475 462.449C123.557 462.553 123.669 462.63 123.796 462.665C124.608 462.891 125.462 463.076 126.291 463.255L126.554 465.442C125.741 465.412 124.25 465.367 122.318 465.367C121.408 465.367 120.393 465.367 119.304 465.404L118.63 464.093C118.579 463.992 118.501 463.908 118.406 463.85C118.311 463.79 118.201 463.76 118.089 463.76H112.944C112.845 463.76 112.746 463.785 112.658 463.831C112.571 463.88 112.496 463.947 112.44 464.031C112.384 464.113 112.349 464.208 112.338 464.307C112.327 464.408 112.342 464.509 112.379 464.6L112.822 465.72C112.159 465.77 111.494 465.826 110.819 465.893C106.449 466.302 101.819 467.041 97.7456 468.304C93.6717 469.567 91.1613 471.838 89.7599 474.29C88.5746 476.447 87.9708 478.88 88.0099 481.347C88.0081 482.27 88.0826 483.192 88.228 484.103H85.4139C84.6032 478.751 84.1969 473.347 84.1951 467.935C84.1615 448.081 89.6499 428.616 100.036 411.758C100.513 413.527 101.005 415.271 101.514 416.994C107.079 435.5 114.783 451.261 123.475 462.449Z" fill="#B6D7FF"/>
<path d="M289.565 433.301C289.609 433.437 289.661 433.576 289.706 433.71L289.466 433.444L289.565 433.301Z" fill="#B6D7FF"/>
<path d="M292.16 480.626C293.041 480.09 293.895 479.51 294.719 478.887C294.54 480.637 294.318 482.374 294.055 484.098H283.967C286.847 483.341 289.607 482.171 292.16 480.626Z" fill="#B6D7FF"/>
<path d="M89.2268 481.354C89.1877 479.103 89.7337 476.883 90.8109 474.912C92.0745 472.722 94.2475 470.688 98.122 469.488C102.075 468.257 106.652 467.535 110.953 467.12C111.766 467.048 112.541 466.982 113.318 466.925L115.279 471.882C115.318 471.979 115.381 472.065 115.461 472.13C115.543 472.198 115.64 472.24 115.743 472.259L122.325 473.399C122.439 473.42 122.552 473.407 122.659 473.364C122.765 473.321 122.856 473.25 122.923 473.157C122.988 473.063 123.029 472.955 123.037 472.839C123.046 472.726 123.024 472.612 122.972 472.509L119.951 466.63C120.802 466.63 121.604 466.605 122.338 466.605C124.584 466.605 126.216 466.667 126.891 466.695H127.232C127.321 466.701 127.411 466.688 127.495 466.654C127.577 466.62 127.651 466.568 127.711 466.503C127.772 466.436 127.817 466.357 127.845 466.271C127.873 466.186 127.881 466.096 127.869 466.006L127.566 463.493C130.128 463.941 132.722 464.167 135.324 464.165C144.258 464.165 152.382 461.631 158.25 459.105C159.469 458.58 160.587 458.06 161.601 457.56L173.247 484.098H89.4672C89.443 483.979 89.4188 483.839 89.3983 483.688C89.2846 482.915 89.2268 482.135 89.2268 481.354Z" fill="white"/>
<path d="M89.7601 474.29C91.1615 471.829 93.6383 469.573 97.7458 468.302C101.851 467.031 106.449 466.309 110.819 465.891C111.494 465.826 112.159 465.768 112.823 465.72L113.298 466.916C112.521 466.974 111.729 467.039 110.933 467.114C106.615 467.524 102.055 468.25 98.1017 469.48C94.2477 470.681 92.0747 472.715 90.7907 474.904C89.7135 476.874 89.1675 479.096 89.2066 481.347C89.2066 482.128 89.2644 482.91 89.3781 483.683C89.3986 483.843 89.4228 483.983 89.447 484.093H88.2077C88.0623 483.183 87.9877 482.261 87.9896 481.337C87.9579 478.872 88.5674 476.441 89.7601 474.29Z" fill="#1A2E44"/>
<path d="M127.692 466.507C127.631 466.574 127.556 466.627 127.474 466.658C127.39 466.692 127.301 466.707 127.211 466.699H126.87C126.196 466.671 124.563 466.61 122.318 466.61C121.583 466.61 120.782 466.61 119.93 466.634L119.304 465.404C120.392 465.38 121.408 465.367 122.318 465.367C124.252 465.367 125.73 465.412 126.554 465.442L126.291 463.255C126.697 463.343 127.128 463.425 127.545 463.497L127.851 466.011C127.86 466.1 127.853 466.192 127.825 466.278C127.797 466.363 127.752 466.442 127.692 466.507Z" fill="#1A2E44"/>
<path d="M162.671 457.012L174.56 484.103H173.227L161.583 457.573C161.96 457.376 162.325 457.191 162.671 457.012Z" fill="#1A2E44"/>
<path d="M147.609 152.905C145.358 155.001 142.974 156.948 140.473 158.732H56.9135C54.8505 156.866 52.096 154.48 49.4813 152.528C48.0016 151.379 46.4157 150.379 44.744 149.543C44.0638 149.191 43.3183 148.986 42.5561 148.94C42.2038 148.931 41.8554 149.019 41.5479 149.194C41.2366 149.383 40.9943 149.672 40.862 150.014C40.5787 150.706 40.4334 151.447 40.4315 152.196C40.439 153.074 40.6235 153.941 40.972 154.746C41.2794 155.453 41.6708 156.119 42.1367 156.731C42.4815 157.185 42.858 157.613 43.2661 158.01C42.8598 157.973 42.3641 157.924 41.7845 157.85C40.0625 157.648 38.3573 157.324 36.6819 156.879C35.5637 156.59 34.4809 156.177 33.454 155.648C31.829 154.73 30.2747 153.688 28.8062 152.532C27.7141 151.638 26.5735 150.804 25.3901 150.035C24.7844 149.633 24.0837 149.402 23.3606 149.366C22.8519 149.365 22.358 149.531 21.9499 149.838C21.6666 150.052 21.4392 150.334 21.2883 150.658C21.1485 150.961 21.0777 151.292 21.0814 151.626C21.0851 151.927 21.1299 152.227 21.2156 152.515C20.8279 152.264 20.4217 152.046 19.9968 151.864C19.5775 151.684 19.1283 151.586 18.6736 151.577C18.2002 151.567 17.7362 151.721 17.3616 152.011C17.0541 152.251 16.8006 152.556 16.6217 152.905C16.454 153.224 16.3645 153.581 16.3664 153.943C16.3739 154.37 16.4764 154.79 16.6627 155.173C16.7336 155.323 16.8118 155.47 16.8975 155.611C16.5714 155.521 16.2341 155.472 15.8949 155.464C15.6507 155.46 15.4085 155.496 15.1755 155.571C14.9333 155.649 14.7115 155.779 14.5214 155.952C14.2698 156.181 14.0666 156.46 13.925 156.772C13.7964 157.06 13.7294 157.374 13.7294 157.69C13.7349 158.045 13.8058 158.395 13.9381 158.724H2.70593V144.52H150.25V150.301C149.383 151.193 148.504 152.06 147.609 152.905ZM91.6778 146.754C90.5596 146.755 89.4675 147.09 88.5394 147.718C87.6113 148.345 86.8864 149.236 86.4596 150.278C86.0328 151.321 85.921 152.467 86.1409 153.573C86.3589 154.68 86.8976 155.696 87.6877 156.493C88.4779 157.29 89.4843 157.833 90.5801 158.053C91.6759 158.272 92.8128 158.159 93.8434 157.727C94.8758 157.296 95.7592 156.564 96.3798 155.626C97.0003 154.689 97.3302 153.586 97.3302 152.458C97.3358 151.706 97.1923 150.96 96.909 150.264C96.6276 149.568 96.212 148.935 95.6865 148.402C95.1609 147.869 94.5366 147.446 93.8471 147.158C93.1594 146.869 92.4214 146.721 91.6778 146.721V146.754ZM139.739 146.275C139.739 146.194 139.722 146.114 139.693 146.039C139.663 145.964 139.616 145.897 139.56 145.84C139.445 145.725 139.29 145.661 139.13 145.66H104.406C104.244 145.66 104.09 145.724 103.976 145.84C103.86 145.955 103.797 146.112 103.797 146.275V154.841C103.797 155.004 103.862 155.16 103.976 155.275C104.032 155.333 104.099 155.378 104.173 155.409C104.246 155.44 104.326 155.456 104.406 155.456H139.13C139.29 155.455 139.445 155.39 139.56 155.275C139.674 155.16 139.739 155.004 139.739 154.841V146.275Z" fill="#1A2E44"/>
<path d="M138.675 159.939H58.2538C57.8475 159.566 57.4002 159.152 56.9101 158.709H140.474C139.881 159.131 139.285 159.537 138.675 159.939Z" fill="#1A2E44"/>
<path d="M150.326 150.224L150.25 150.302V144.52H2.69464V158.712H13.9249C14.0591 159.044 14.2268 159.36 14.4281 159.655C14.0815 159.653 13.7385 159.724 13.4217 159.864L13.308 159.922H2.07216C1.99202 159.922 1.91376 159.907 1.8392 159.876C1.76466 159.845 1.6976 159.8 1.64168 159.743C1.58391 159.685 1.53915 159.617 1.50934 159.543C1.47766 159.468 1.46277 159.387 1.46463 159.307V143.905C1.46277 143.824 1.47766 143.744 1.50934 143.669C1.53915 143.594 1.58391 143.526 1.64168 143.469C1.6976 143.412 1.76466 143.366 1.8392 143.336C1.91376 143.305 1.99202 143.289 2.07216 143.29H150.859C151.008 143.291 151.152 143.346 151.266 143.446C150.908 145.763 150.598 148.03 150.326 150.224Z" fill="#1A2E44"/>
<path d="M150.25 139.115H2.69482V92.1729H150.25V139.115ZM119.99 101.067C117.58 101.067 115.225 101.788 113.221 103.14C111.218 104.492 109.656 106.413 108.734 108.661C107.811 110.909 107.569 113.382 108.041 115.768C108.51 118.155 109.671 120.346 111.375 122.067C113.078 123.787 115.249 124.959 117.614 125.433C119.977 125.908 122.428 125.665 124.653 124.734C126.88 123.802 128.783 122.226 130.123 120.203C131.461 118.18 132.176 115.801 132.176 113.368C132.176 110.106 130.892 106.977 128.608 104.67C126.321 102.363 123.222 101.067 119.99 101.067Z" fill="white"/>
<path d="M151.29 91.1209C151.346 91.1776 151.392 91.2453 151.422 91.32C151.454 91.3946 151.469 91.4747 151.469 91.5554V139.728C151.469 139.891 151.404 140.048 151.29 140.163C151.176 140.278 151.021 140.343 150.859 140.343H2.08527C1.92313 140.343 1.76657 140.278 1.65103 140.163C1.53922 140.046 1.47772 139.89 1.47586 139.728V91.5554C1.47586 91.4747 1.4908 91.3944 1.52061 91.3194C1.55231 91.2446 1.597 91.1767 1.65291 91.1194C1.71068 91.0621 1.7778 91.0169 1.85049 90.9862C1.92503 90.9554 2.00513 90.9399 2.08527 90.9404H150.859C151.02 90.9414 151.174 91.0061 151.29 91.1209ZM2.69472 139.097H150.25V92.1706H2.69472V139.097Z" fill="#1A2E44"/>
<path d="M24.0544 60.4902H162.399V86.7664H24.0544V60.4902ZM139.13 82.9857C140.964 82.9865 142.757 82.4381 144.283 81.4096C145.807 80.3813 146.996 78.9194 147.699 77.2085C148.402 75.4979 148.586 73.6152 148.228 71.7989C147.871 69.9826 146.987 68.3141 145.69 67.0047C144.393 65.6952 142.74 64.8034 140.942 64.4424C139.143 64.0813 137.278 64.2672 135.584 64.9762C133.89 65.6853 132.44 66.8858 131.422 68.4259C130.403 69.966 129.86 71.7765 129.86 73.6282C129.86 76.1101 130.837 78.4902 132.576 80.2449C134.314 81.9998 136.672 82.9857 139.13 82.9857ZM26.4548 80.3244C26.4548 80.4888 26.5199 80.6464 26.6336 80.7633C26.751 80.8752 26.9039 80.9383 27.0642 80.9396H82.0805C82.1606 80.9401 82.2389 80.9245 82.3135 80.8939C82.388 80.8631 82.4551 80.8177 82.511 80.7606C82.5687 80.7034 82.6135 80.6353 82.6433 80.5604C82.675 80.4856 82.6899 80.4054 82.688 80.3244V76.2239C82.688 76.061 82.6247 75.905 82.511 75.7893C82.3954 75.6738 82.2408 75.6091 82.0805 75.6089H27.0642C26.9039 75.6089 26.7492 75.6736 26.6336 75.7889C26.5199 75.9044 26.4548 76.0608 26.4548 76.2239V80.3244ZM26.6336 72.2833C26.7492 72.398 26.9039 72.4628 27.0642 72.4637H71.9945C72.1567 72.4637 72.3113 72.399 72.425 72.2837C72.5406 72.1683 72.6039 72.0118 72.6039 71.8487V66.1081C72.6039 65.9448 72.5406 65.7885 72.425 65.6732C72.3113 65.5577 72.1567 65.4929 71.9945 65.4929H27.0642C26.9039 65.494 26.7492 65.5588 26.6336 65.6733C26.5199 65.7886 26.4566 65.945 26.4548 66.1081V71.8487C26.4548 71.9308 26.4697 72.0124 26.5013 72.0883C26.5312 72.1644 26.5759 72.2335 26.6336 72.2915V72.2833Z" fill="#1A2E44"/>
<path d="M163.009 87.9969H23.4463C23.2842 87.9969 23.1295 87.9322 23.014 87.8169C22.9003 87.7015 22.8369 87.545 22.8369 87.3819V59.8757C22.8351 59.795 22.8519 59.7149 22.8817 59.6403C22.9134 59.5656 22.9581 59.4979 23.0159 59.4412C23.1295 59.3264 23.2842 59.2617 23.4463 59.2607H163.009C163.169 59.2607 163.323 59.3257 163.439 59.4412C163.495 59.4979 163.54 59.5656 163.571 59.6403C163.601 59.7149 163.618 59.795 163.616 59.8757V87.3819C163.616 87.5448 163.551 87.7008 163.439 87.8165C163.323 87.932 163.169 87.9969 163.009 87.9969ZM162.399 60.4907H24.0539V86.7669H162.399V60.4907Z" fill="#1A2E44"/>
<path d="M201.618 43.4194C201.638 43.2815 201.611 43.1408 201.542 43.0203C201.473 42.8998 201.364 42.8063 201.236 42.7552C198.8 41.8078 197.138 40.5655 196.066 39.0933C194.996 37.5849 194.449 35.7642 194.503 33.9104C194.503 30.2896 196.191 25.7872 199.072 20.7888C200.733 17.9184 202.224 15.5155 203.739 13.6662C204.428 12.8074 205.2 12.019 206.04 11.3125L206.476 11.9071C207.98 13.9416 209.302 16.1086 210.424 18.3818C211.119 19.8703 211.557 21.2891 211.553 22.3387C211.553 22.4881 211.542 22.6374 211.525 22.7857C211.367 23.9749 211.199 24.9425 211.07 25.7381C210.944 26.3845 210.867 27.0398 210.843 27.6981C210.835 27.9761 210.876 28.2534 210.96 28.5182C211.048 28.7883 211.206 29.0294 211.419 29.2153C211.564 29.3352 211.724 29.4334 211.898 29.5063C212.142 29.6024 212.395 29.6685 212.654 29.7032C212.843 29.7336 213.035 29.7487 213.227 29.7483C213.635 29.7498 214.041 29.6718 214.421 29.5187C214.738 29.3957 214.973 29.2686 215.139 29.207C215.224 29.1744 215.314 29.155 215.403 29.1498C215.502 29.1554 215.599 29.1804 215.688 29.2235C215.865 29.3071 216.031 29.4147 216.179 29.5433C216.162 29.6621 216.13 29.778 216.082 29.8877C215.981 30.1215 215.865 30.3477 215.733 30.5643C215.424 31.0851 214.973 31.7329 214.466 32.4505C213.286 34.0254 212.252 35.7037 211.37 37.4655C210.783 38.6463 210.455 39.9418 210.412 41.2626C210.399 42.5404 210.841 43.7801 211.659 44.7561C212.25 45.4943 213.007 46.0791 213.868 46.462C214.656 46.7991 215.506 46.9682 216.361 46.9581C217.187 46.9503 218.005 46.8318 218.799 46.6054C217.15 52.133 215.603 58.2222 214.363 63.4176C213.747 66.005 213.206 68.371 212.768 70.3391C209.518 69.3215 206.134 68.8166 202.731 68.8425C200.299 68.8347 197.87 69.0668 195.481 69.5355C195.994 67.7355 196.631 65.4596 197.3 62.9338C198.925 56.8403 200.761 49.2791 201.618 43.4194Z" fill="white"/>
<path d="M206.04 11.2915C205.2 11.9981 204.428 12.7864 203.738 13.6452C202.223 15.4945 200.732 17.8892 199.072 20.7677C196.191 25.7663 194.493 30.2687 194.502 33.8895C194.448 35.7432 194.996 37.564 196.066 39.0724C197.137 40.5446 198.807 41.7869 201.236 42.7342C201.364 42.7853 201.472 42.8788 201.541 42.9994C201.61 43.1199 201.638 43.2606 201.618 43.3985C200.76 49.2785 198.925 56.8399 197.3 62.9496C196.631 65.4756 195.993 67.7513 195.481 69.5515C195.026 69.6416 194.575 69.7401 194.128 69.8467C194.815 67.4602 195.753 64.0609 196.735 60.2884C198.136 54.8594 199.579 48.6758 200.343 43.6896C197.995 42.7014 196.248 41.4016 195.082 39.8023C193.861 38.0814 193.229 36.0054 193.283 33.8895C193.283 29.8873 195.091 25.2455 198.019 20.1486C200.25 16.2818 202.199 13.2229 204.428 11.0906C204.713 10.8159 205.006 10.5575 205.306 10.3115C205.529 10.615 205.777 10.9307 206.04 11.2915Z" fill="#1A2E44"/>
<path d="M212.758 70.3284C213.198 68.3603 213.736 65.9943 214.355 63.4069C215.593 58.2074 217.141 52.1182 218.791 46.5948C219.271 46.4641 219.745 46.3052 220.207 46.1191C218.478 51.823 216.836 58.2525 215.54 63.698C214.911 66.3388 214.363 68.7415 213.915 70.7304C213.539 70.5869 213.148 70.4555 212.758 70.3284Z" fill="#1A2E44"/>
<path d="M232.295 484.101C232.328 483.957 232.367 483.798 232.412 483.614C232.669 482.589 233.008 481.589 233.424 480.621C234.628 477.663 236.629 475.107 239.199 473.239C241.536 471.637 244.24 470.67 247.055 470.431C253.285 469.782 259.155 466.716 263.753 463.537L269.549 466.621C269.64 466.673 269.743 466.699 269.847 466.699C269.951 466.699 270.054 466.673 270.145 466.621L275.857 463.193C275.952 463.136 276.029 463.053 276.081 462.956C276.133 462.857 276.159 462.747 276.153 462.635C276.148 462.524 276.114 462.415 276.053 462.322C275.991 462.227 275.904 462.154 275.803 462.106L269.467 459.085C271.819 457.034 273.203 455.504 273.216 455.493C273.274 455.427 273.319 455.349 273.345 455.265C273.373 455.181 273.38 455.092 273.371 455.004C273.362 454.916 273.334 454.832 273.289 454.758C273.244 454.683 273.183 454.618 273.11 454.569L268.96 451.699L270.093 450.949C274.491 447.992 280.015 443.896 284.54 439.308C286.047 437.797 287.449 436.179 288.731 434.47L307.455 455.381C307.455 455.493 307.41 455.623 307.375 455.791C307.276 456.25 307.127 456.924 306.9 457.752C306.288 459.988 305.5 462.171 304.544 464.279C302.216 469.401 298.211 475.519 291.517 479.583C287.05 482.296 281.364 484.093 274.154 484.093H232.295V484.101Z" fill="white"/>
<path d="M238.517 472.237C241.022 470.515 243.925 469.474 246.944 469.212C252.632 468.63 258.126 465.871 262.547 462.893L263.764 463.544C259.166 466.723 253.297 469.789 247.067 470.438C244.253 470.677 241.547 471.644 239.212 473.246C236.64 475.114 234.641 477.67 233.437 480.628C233.019 481.596 232.682 482.596 232.425 483.621C232.38 483.806 232.339 483.966 232.307 484.108H231.076C231.568 481.766 232.451 479.525 233.688 477.482C234.924 475.416 236.568 473.633 238.517 472.237Z" fill="#1A2E44"/>
<path d="M283.968 484.1H274.167C281.396 484.1 287.061 482.288 291.53 479.59C298.224 475.526 302.228 469.408 304.555 464.286C305.513 462.178 306.301 459.995 306.911 457.759C307.138 456.938 307.289 456.259 307.386 455.798C307.423 455.627 307.448 455.496 307.468 455.39L288.744 434.477C288.996 434.137 289.24 433.796 289.471 433.456L289.709 433.723L308.573 454.778C308.635 454.847 308.679 454.929 308.706 455.017C308.732 455.106 308.737 455.199 308.722 455.291C307.669 460.642 305.601 465.74 302.63 470.298C300.5 473.61 297.814 476.523 294.698 478.909C293.875 479.533 293.021 480.113 292.14 480.648C289.59 482.184 286.839 483.346 283.968 484.1Z" fill="#1A2E44"/>
<path d="M273.382 455C273.393 455.088 273.384 455.177 273.358 455.261C273.332 455.345 273.287 455.423 273.227 455.489C273.227 455.489 271.832 457.019 269.48 459.081L268.261 458.502C269.012 457.858 269.679 457.272 270.234 456.731C270.905 456.099 271.429 455.578 271.781 455.218L271.826 455.168L267.847 452.421L268.96 451.695L273.11 454.565C273.185 454.614 273.248 454.677 273.296 454.752C273.343 454.826 273.373 454.912 273.382 455Z" fill="#1A2E44"/>
<path d="M167.18 179.749H172.59C171.626 180.979 170.559 182.336 169.36 183.895C165.018 189.566 159.08 197.623 151.083 209.031C150.519 201.823 150.157 195.52 149.926 190.39C156.02 187.444 161.801 183.879 167.18 179.749Z" fill="#1A2E44"/>
<path d="M175.683 268.949C185.242 260.784 194.023 251.734 201.914 241.918C206.935 270.589 216.86 301.172 229.656 329.595C246.82 367.73 269.115 401.941 291.652 422.304C291.736 422.81 291.78 423.321 291.782 423.834C291.745 425.599 291.346 427.34 290.608 428.943C289.768 430.805 288.705 432.559 287.444 434.162C284.801 437.619 281.227 440.974 277.587 443.922C272.702 447.828 267.536 451.356 262.128 454.48L262.067 454.444C261.835 454.312 261.483 454.103 261.019 453.812C260.093 453.229 258.716 452.308 256.938 450.966C253.371 448.289 248.181 443.937 241.71 437.259C228.769 423.899 210.703 401.227 190.27 364.015C176.801 339.493 167.78 310.626 161.736 282.96C166.015 277.928 170.678 273.243 175.683 268.949Z" fill="#1A2E44"/>
<path d="M149.919 190.389C150.15 195.518 150.511 201.821 151.074 209.029L149.978 210.593C149.365 202.995 148.972 196.343 148.724 190.943C149.123 190.758 149.524 190.577 149.919 190.389Z" fill="#1A2E44"/>
<path d="M86.7227 483.414H571.823C572.012 483.414 572.194 483.506 572.327 483.666C572.461 483.828 572.536 484.047 572.536 484.274C572.536 484.502 572.461 484.722 572.327 484.883C572.194 485.045 572.012 485.134 571.823 485.134H6.13727C5.94714 485.134 5.76636 485.045 5.6322 484.883C5.49805 484.722 5.42346 484.502 5.42346 484.274C5.42346 484.047 5.49805 483.828 5.6322 483.666C5.76636 483.506 5.94714 483.414 6.13727 483.414H86.7227Z" fill="#1A2E44"/>
<path d="M228.551 179.749C228.551 180.065 228.514 180.495 228.465 181.045C228.364 182.3 228.152 184.141 227.735 186.498C226.473 193.251 224.507 199.847 221.87 206.182C215.162 222.611 201.752 244.852 174.893 268.008C159.803 281.015 149.812 295.284 143.597 309.952C137.384 324.62 134.953 339.677 134.953 354.237C134.953 380.69 142.952 405.585 150.941 423.869C157.954 439.921 164.965 450.887 166.587 453.339L166.456 453.425C166.05 453.691 165.403 454.081 164.596 454.544C162.382 455.813 160.096 456.953 157.751 457.955C151.976 460.44 144.016 462.922 135.304 462.916C131.593 462.928 127.898 462.452 124.308 461.502C115.778 450.49 108.18 434.911 102.701 416.61C96.8085 396.634 93.8229 375.9 93.8378 355.058C93.8378 320.503 102.099 283.779 123.252 252.012C147.026 216.313 161.432 196.29 169.932 185.174C171.557 183.058 172.947 181.266 174.161 179.749H228.551Z" fill="#1A2E44"/>
<path d="M201.914 241.916C194.025 251.732 185.244 260.784 175.683 268.949C170.677 273.244 166.015 277.932 161.736 282.966C161.404 283.376 161.07 283.757 160.746 284.151C154.169 292.084 148.77 300.94 144.719 310.443C138.582 324.934 136.189 339.818 136.189 354.266C136.208 361.266 136.742 368.256 137.79 375.177C140.501 393.412 146.286 410.138 152.075 423.382C155.317 430.825 158.964 438.08 162.999 445.116C164.49 447.702 165.729 449.725 166.598 451.095C167.028 451.779 167.369 452.324 167.601 452.656C167.72 452.828 167.804 452.964 167.865 453.067L167.955 453.198C168.001 453.265 168.033 453.339 168.05 453.42C168.066 453.5 168.066 453.582 168.052 453.66C168.04 453.744 168.011 453.823 167.968 453.893C167.923 453.964 167.865 454.024 167.796 454.071C166.151 455.159 164.445 456.149 162.686 457.039C162.341 457.22 161.976 457.405 161.598 457.594C160.582 458.094 159.466 458.614 158.247 459.139C152.371 461.665 144.264 464.199 135.319 464.199C132.719 464.201 130.123 463.977 127.562 463.527C127.156 463.452 126.725 463.37 126.306 463.285C125.494 463.113 124.646 462.921 123.813 462.695C123.686 462.658 123.574 462.583 123.492 462.477C114.8 451.291 107.096 435.529 101.559 417.02C101.046 415.297 100.554 413.551 100.081 411.782C95.1274 393.289 92.619 374.218 92.619 355.06C92.619 320.312 100.925 283.343 122.241 251.318C133.444 234.506 142.57 221.154 149.978 210.574L151.074 209.013C159.087 197.605 165.027 189.548 169.352 183.877C170.547 182.319 171.619 180.949 172.58 179.731H174.144C172.927 181.248 171.533 183.04 169.917 185.156C161.419 196.282 147.009 216.32 123.237 251.994C102.083 283.761 93.821 320.472 93.821 355.04C93.8061 375.886 96.7917 396.625 102.684 416.605C108.164 434.906 115.775 450.483 124.291 461.497C127.881 462.447 131.576 462.923 135.287 462.911C143.999 462.911 151.94 460.452 157.736 457.95C160.081 456.948 162.366 455.808 164.58 454.539C165.392 454.074 166.013 453.686 166.439 453.42L166.57 453.334C164.945 450.873 157.939 439.916 150.925 423.862C142.935 405.578 134.938 380.685 134.938 354.232C134.938 339.65 137.374 324.594 143.58 309.947C149.788 295.299 159.786 281.01 174.876 268.003C201.752 244.855 215.162 222.615 221.87 206.212C224.507 199.879 226.473 193.281 227.734 186.53C228.141 184.172 228.364 182.331 228.465 181.076C228.513 180.527 228.538 180.096 228.551 179.78H229.181C229.315 179.781 229.447 179.735 229.553 179.651C229.66 179.567 229.736 179.45 229.77 179.317L229.79 179.243C229.79 180.211 229.484 190.79 222.993 206.695C219.046 216.374 212.796 228.019 202.926 240.656C202.592 241.067 202.24 241.476 201.914 241.916Z" fill="#1A2E44"/>
<path d="M195.38 149.354C207.372 131.746 212.689 116.251 212.702 116.218C212.756 116.064 212.747 115.895 212.676 115.748C212.607 115.6 212.482 115.487 212.33 115.433C212.179 115.378 212.011 115.387 211.864 115.458C211.718 115.528 211.607 115.654 211.552 115.808V115.832L177.521 105.749C177.565 105.6 177.55 105.44 177.483 105.3C177.414 105.161 177.295 105.053 177.15 104.999C176.997 104.943 176.829 104.951 176.684 105.02C176.537 105.089 176.423 105.214 176.367 105.368C170.021 122.971 161.931 137.733 151.748 148.727C153.746 133.403 157.533 114.893 164.656 99.701C169.697 88.9373 176.399 79.8752 185.262 74.7208C190.57 71.632 196.601 70.0335 202.726 70.0914C209.297 70.0914 214.59 71.7315 218.867 74.6018C223.144 77.4723 226.426 81.6055 228.899 86.5999C233.851 96.6011 235.545 110.055 235.545 123.591C235.545 149.05 229.602 174.785 228.705 178.537H168.763C169.938 177.605 171.085 176.658 172.204 175.696C181.716 167.49 189.385 158.158 195.38 149.354Z" fill="white"/>
<path d="M229.181 179.749H167.179C167.72 179.341 168.249 178.931 168.763 178.519H228.7C229.598 174.783 235.541 149.048 235.541 123.572C235.541 110.04 233.851 96.5825 228.903 86.5977C226.43 81.6032 223.152 77.4822 218.871 74.5995C214.59 71.7169 209.303 70.0891 202.73 70.0891C196.604 70.0313 190.573 71.6298 185.266 74.7186C176.402 79.8728 169.701 88.9431 164.661 99.6987C157.537 114.891 153.752 133.401 151.752 148.724C151.282 149.233 150.811 149.729 150.332 150.221C150.604 148.027 150.912 145.76 151.266 143.443C152.196 137.263 153.422 130.711 155.03 124.171C158.409 110.418 163.471 96.6438 171.119 86.2573C174.941 81.0621 179.416 76.7155 184.66 73.6688C187.61 71.9361 190.795 70.6485 194.116 69.8471C194.562 69.7405 195.013 69.642 195.467 69.5519C197.86 69.0768 200.292 68.8393 202.73 68.8425C206.127 68.8082 209.51 69.3032 212.758 70.3104C213.164 70.4376 213.539 70.5688 213.921 70.7205C215.904 71.4478 217.794 72.4114 219.549 73.5908C222.913 75.9004 225.763 78.8917 227.917 82.3742C231.279 87.6556 233.486 94.1262 234.853 101.191C236.223 108.256 236.764 115.916 236.764 123.588C236.764 150.549 230.17 177.67 229.794 179.212L229.773 179.285C229.74 179.419 229.663 179.537 229.555 179.621C229.449 179.705 229.317 179.75 229.181 179.749Z" fill="#1A2E44"/>
<path d="M51.9208 168.171C50.6442 170.182 49.6155 172.344 48.8589 174.609H48.7079C48.3464 174.609 47.8973 174.633 47.3568 174.633C44.2837 174.613 41.2161 174.404 38.169 174.006C34.4734 173.53 30.4517 172.718 26.9872 171.406C22.9002 169.783 19.16 167.386 15.9638 164.345C15.2705 163.694 14.6332 162.985 14.0592 162.225C13.8654 161.972 13.7014 161.697 13.5709 161.405C13.5504 161.362 13.5336 161.316 13.5225 161.27C13.638 161.151 13.7759 161.058 13.9287 160.995C14.0946 160.924 14.2735 160.889 14.4524 160.892C14.8139 160.904 15.1699 160.989 15.496 161.143C15.6787 161.225 15.8631 161.319 16.0458 161.421C16.6216 161.937 17.2329 162.412 17.8722 162.844C17.9952 162.917 18.1405 162.943 18.2803 162.919C18.4219 162.895 18.5487 162.822 18.6418 162.713C18.7332 162.604 18.7853 162.465 18.7872 162.321C18.7909 162.177 18.7425 162.038 18.653 161.926C18.4052 161.68 18.148 161.447 17.8759 161.229C17.533 160.95 17.1733 160.696 16.7969 160.466C16.4651 160.172 16.1539 159.856 15.8669 159.519C15.5389 159.155 15.2724 158.74 15.0786 158.289C15.0003 158.101 14.9575 157.901 14.9519 157.698C14.9519 157.557 14.9798 157.417 15.0376 157.288C15.114 157.132 15.2202 156.993 15.3507 156.878C15.4103 156.826 15.4793 156.787 15.5538 156.763C15.6656 156.729 15.7812 156.712 15.8986 156.714C16.4633 156.756 17.0149 156.907 17.5237 157.157C18.0213 157.381 18.5058 157.635 18.9736 157.916L19.3798 158.248C20.293 158.962 21.2528 159.614 22.2517 160.199C22.384 160.28 22.5443 160.307 22.6953 160.273C22.8481 160.239 22.9823 160.147 23.0699 160.017C23.1556 159.887 23.191 159.728 23.1668 159.572C23.1407 159.417 23.0568 159.278 22.9338 159.183C22.9338 159.183 22.3039 158.67 21.4019 158.03C20.9025 157.678 20.3135 157.284 19.6929 156.911C19.4246 156.685 19.16 156.452 18.9214 156.21C18.4499 155.767 18.0567 155.247 17.7585 154.672C17.6467 154.45 17.5852 154.207 17.5759 153.959C17.574 153.797 17.6131 153.637 17.6895 153.495C17.7976 153.302 17.9449 153.135 18.1238 153.007C18.2859 152.883 18.4872 152.821 18.6885 152.831C19.3501 152.901 19.9799 153.142 20.5204 153.532C21.3012 154.045 22.0374 154.625 22.7176 155.267L22.8611 155.402C23.0549 155.648 23.2674 155.89 23.4501 156.119C24.1526 156.929 24.9037 157.695 25.6995 158.412C25.815 158.514 25.9641 158.569 26.1169 158.565C26.2716 158.56 26.417 158.498 26.5269 158.39C26.6369 158.281 26.7021 158.135 26.7095 157.98C26.717 157.825 26.6667 157.674 26.5679 157.555C26.5679 157.555 26.048 156.923 25.2652 156.078C24.831 155.615 24.3148 155.086 23.7538 154.561C23.4575 154.177 23.1873 153.774 22.9413 153.356C22.6039 152.846 22.399 152.26 22.3412 151.65C22.3375 151.497 22.3673 151.346 22.4307 151.207C22.4977 151.068 22.5983 150.949 22.7232 150.859C22.9189 150.704 23.1612 150.622 23.409 150.625C23.9122 150.667 24.3986 150.84 24.8179 151.125C25.5205 151.571 26.1989 152.056 26.8493 152.577C28.7409 154.115 30.7536 155.496 32.8689 156.706C33.9777 157.284 35.1481 157.735 36.3576 158.051C37.5615 158.378 38.7803 158.639 40.0122 158.834C42.3082 159.199 44.1029 159.297 44.1197 159.297C44.28 159.306 44.4383 159.25 44.5576 159.142C44.6787 159.034 44.7514 158.882 44.7608 158.719L44.798 158.059C44.8036 157.961 44.7869 157.862 44.7459 157.772C44.7067 157.683 44.647 157.604 44.5706 157.542L44.5204 157.501C44.4756 157.46 44.4067 157.403 44.3265 157.325C44.1551 157.169 43.9202 156.94 43.6556 156.644C43.0108 155.941 42.4853 155.136 42.0958 154.262C41.8162 153.615 41.6653 152.918 41.6541 152.212C41.6541 151.622 41.7678 151.039 41.9914 150.494C42.0231 150.396 42.0864 150.314 42.174 150.26C42.2989 150.196 42.4386 150.168 42.5803 150.178C43.1207 150.219 43.6482 150.366 44.1346 150.608C44.908 150.963 45.6553 151.374 46.3691 151.839C48.2029 153.048 49.9659 154.364 51.6487 155.779C54.5169 158.137 57.1893 160.614 58.5088 161.86C55.8121 163.226 53.6242 165.534 51.9208 168.171Z" fill="white"/>
<path d="M14.4416 159.673C14.2403 159.378 14.0707 159.062 13.9365 158.73C13.8061 158.402 13.7353 158.051 13.7297 157.697C13.7297 157.38 13.7967 157.067 13.9253 156.778C14.067 156.467 14.2701 156.188 14.5217 155.958C14.7118 155.786 14.9336 155.656 15.1759 155.577C15.4088 155.503 15.6511 155.467 15.8952 155.47C16.2344 155.478 16.5717 155.528 16.8978 155.618C16.8121 155.476 16.7339 155.33 16.6631 155.179C16.4767 154.796 16.3742 154.376 16.3667 153.949C16.3649 153.585 16.4525 153.225 16.622 152.904C16.8084 152.555 17.0693 152.253 17.3861 152.018C17.7626 151.727 18.2247 151.574 18.6981 151.583C19.1528 151.593 19.602 151.69 20.0213 151.87C20.4462 152.052 20.8525 152.27 21.2401 152.522C21.1544 152.233 21.1097 151.934 21.106 151.632C21.1022 151.298 21.173 150.967 21.3128 150.665C21.4638 150.34 21.6911 150.058 21.9762 149.845C22.3825 149.538 22.8764 149.372 23.3852 149.373C24.1082 149.409 24.809 149.64 25.4165 150.041C26.5981 150.811 27.7386 151.644 28.8307 152.539C30.2936 153.686 31.8405 154.719 33.4581 155.63C34.4849 156.159 35.5696 156.572 36.6859 156.861C38.3613 157.303 40.0646 157.624 41.7848 157.824C42.3644 157.898 42.8676 157.947 43.2664 157.984C42.8582 157.587 42.4818 157.159 42.137 156.705C41.6711 156.093 41.2797 155.427 40.9722 154.72C40.6237 153.915 40.4393 153.048 40.4318 152.169C40.4337 151.421 40.579 150.68 40.8623 149.988C40.9946 149.645 41.2369 149.357 41.5481 149.168C41.8556 148.993 42.2041 148.905 42.5563 148.914C43.3185 148.96 44.064 149.165 44.7442 149.517C46.4159 150.35 48.0018 151.348 49.4816 152.493C52.0962 154.445 54.8507 156.832 56.9137 158.698C57.4057 159.14 57.8568 159.555 58.2574 159.928C58.8762 160.498 59.37 160.969 59.7129 161.293H59.6756C59.2694 161.453 58.8631 161.629 58.4978 161.826C57.1784 160.596 54.5059 158.103 51.6378 155.745C49.955 154.33 48.1919 153.014 46.3581 151.805C45.6444 151.34 44.897 150.929 44.1236 150.574C43.6372 150.332 43.1098 150.185 42.5675 150.144C42.4277 150.134 42.2879 150.162 42.1612 150.226C42.0755 150.28 42.0103 150.362 41.9786 150.46C41.7568 151.005 41.6413 151.588 41.6413 152.178C41.6525 152.884 41.8034 153.581 42.0848 154.228C42.4725 155.102 42.9999 155.907 43.6447 156.61C43.9075 156.906 44.1442 157.135 44.3138 157.291C44.3958 157.369 44.4647 157.426 44.5094 157.467L44.5579 157.508C44.6343 157.57 44.6958 157.649 44.7349 157.738C44.774 157.829 44.7908 157.927 44.7852 158.025L44.7498 158.685C44.7386 158.848 44.666 159 44.5467 159.108C44.4256 159.216 44.269 159.272 44.1069 159.263C44.1069 159.263 42.2954 159.165 40.0013 158.8C38.7694 158.606 37.5488 158.344 36.3449 158.017C35.1372 157.701 33.9669 157.25 32.8561 156.672C30.739 155.453 28.7226 154.063 26.8291 152.514C26.1787 151.993 25.5004 151.508 24.7978 151.062C24.3785 150.777 23.8939 150.605 23.3889 150.562C23.141 150.559 22.8988 150.641 22.7031 150.796C22.5782 150.886 22.4776 151.006 22.4105 151.144C22.3471 151.283 22.3173 151.435 22.321 151.587C22.3788 152.197 22.5857 152.783 22.9211 153.293C23.1671 153.712 23.4392 154.114 23.7336 154.499C24.2946 155.023 24.8108 155.552 25.245 156.016C26.0296 156.861 26.5403 157.484 26.5496 157.492C26.6465 157.611 26.6987 157.763 26.6894 157.918C26.6819 158.072 26.6167 158.219 26.5067 158.327C26.3968 158.435 26.2514 158.498 26.0986 158.502C25.9439 158.506 25.7948 158.451 25.6793 158.349C24.8835 157.632 24.1325 156.867 23.4299 156.057C23.2305 155.827 23.0236 155.585 22.841 155.339L22.6974 155.204C22.0172 154.562 21.2811 153.982 20.5003 153.469C19.9598 153.08 19.3299 152.838 18.6702 152.768C18.467 152.758 18.2658 152.82 18.1055 152.945C17.9266 153.073 17.7775 153.239 17.6694 153.432C17.593 153.574 17.5539 153.734 17.5557 153.896C17.5651 154.144 17.6265 154.388 17.7384 154.609C18.0365 155.185 18.4298 155.704 18.9013 156.147C19.1398 156.389 19.4044 156.623 19.6728 156.848C20.2934 157.221 20.8916 157.615 21.3817 157.968C22.2837 158.607 22.9062 159.116 22.9137 159.12C23.0385 159.215 23.1205 159.355 23.1466 159.51C23.1709 159.665 23.1373 159.824 23.0497 159.954C22.9621 160.085 22.8279 160.176 22.677 160.21C22.5242 160.244 22.3657 160.218 22.2315 160.137C21.2326 159.551 20.2729 158.899 19.3597 158.185L18.9535 157.853C18.4857 157.572 18.0011 157.319 17.5035 157.094C16.9948 156.844 16.4431 156.694 15.8784 156.651C15.7629 156.65 15.6455 156.666 15.5337 156.701C15.4591 156.725 15.3902 156.764 15.3306 156.815C15.2001 156.93 15.0939 157.07 15.0175 157.225C14.9616 157.354 14.9317 157.494 14.9317 157.635C14.9373 157.838 14.9801 158.039 15.0584 158.226C15.2522 158.677 15.5187 159.093 15.8467 159.456C16.1337 159.793 16.445 160.109 16.7767 160.403C17.1532 160.633 17.5147 160.888 17.8576 161.166C18.1353 161.404 18.4018 161.657 18.6534 161.925C18.7559 162.033 18.8174 162.176 18.823 162.326C18.8286 162.476 18.782 162.623 18.687 162.74C18.5938 162.856 18.4596 162.934 18.3123 162.959C18.167 162.983 18.016 162.952 17.8893 162.872C17.2482 162.44 16.6388 161.964 16.0611 161.449C15.8785 161.346 15.6958 161.252 15.5132 161.17C15.1852 161.017 14.8311 160.932 14.4696 160.92C14.2888 160.917 14.1117 160.952 13.9459 161.022C13.793 161.085 13.6552 161.179 13.5396 161.297C13.5508 161.344 13.5675 161.389 13.588 161.433C13.7185 161.724 13.8825 161.999 14.0763 162.253C14.6503 163.013 15.2877 163.722 15.981 164.373C19.1752 167.414 22.9174 169.81 27.0043 171.434C30.4651 172.746 34.4886 173.558 38.1861 174.033C41.235 174.423 44.3044 174.625 47.3775 174.636C47.9087 174.636 48.3671 174.636 48.7287 174.612H48.8591C48.7175 175.022 48.587 175.432 48.4528 175.842C48.136 175.842 47.7708 175.842 47.3645 175.842C44.2411 175.823 41.1213 175.611 38.0221 175.206C34.2706 174.718 30.1669 173.898 26.5738 172.537C22.9565 171.117 19.5945 169.108 16.622 166.591C15.5113 165.668 14.4807 164.651 13.5396 163.553C13.2135 163.167 12.9171 162.756 12.6581 162.322C12.5556 162.148 12.468 161.966 12.3972 161.777C12.3301 161.599 12.2928 161.41 12.2891 161.219C12.2872 161.111 12.304 161.003 12.3375 160.899C12.3729 160.784 12.4307 160.676 12.5071 160.584C12.7345 160.32 13.0103 160.104 13.3197 159.948L13.4334 159.891C13.7502 159.748 14.0931 159.674 14.4416 159.673Z" fill="#1A2E44"/>
<path d="M211.52 115.908L211.414 116.199C211.321 116.458 211.178 116.839 211.008 117.335C210.626 118.323 210.054 119.771 209.277 121.583C207.13 126.558 204.733 131.419 202.096 136.148C195.598 147.851 185.545 162.592 171.426 174.742C162 182.837 150.777 189.806 137.581 193.945C127.526 197.087 117.056 198.669 106.531 198.64C82.0052 198.64 60.8361 190.439 48.4206 184.288C48.5194 182.186 48.7654 180.094 49.1549 178.027C49.8798 174.762 51.1602 171.65 52.9399 168.829C54.7477 166.029 57.0958 163.7 59.9062 162.535C75.6446 168.829 89.6945 171.765 102.229 171.765C120.823 171.765 136.075 165.286 148.434 153.789C160.794 142.291 170.286 125.807 177.511 105.784C177.513 105.772 177.513 105.759 177.511 105.747L211.539 115.838C211.539 115.838 211.528 115.875 211.52 115.908Z" fill="white"/>
<path d="M48.8592 174.61C49.6158 172.345 50.6445 170.183 51.9211 168.172C53.6245 165.535 55.8124 163.227 58.4979 161.845C58.8837 161.648 59.2732 161.472 59.6757 161.312H59.713C59.8434 161.264 59.987 161.264 60.1193 161.312C75.8446 167.618 89.8219 170.538 102.23 170.538C116.287 170.538 128.334 166.794 138.675 159.942C139.279 159.532 139.892 159.122 140.474 158.712C142.975 156.934 145.358 154.995 147.61 152.906C148.504 152.086 149.384 151.225 150.25 150.322L150.327 150.244C150.808 149.752 151.277 149.256 151.749 148.748C161.932 137.734 170.022 122.972 176.367 105.369C176.423 105.215 176.537 105.09 176.682 105.021C176.83 104.952 176.997 104.944 177.15 105C177.295 105.053 177.415 105.161 177.484 105.301C177.551 105.44 177.566 105.601 177.521 105.75C177.523 105.762 177.523 105.775 177.521 105.787C170.294 125.81 160.806 142.281 148.443 153.791C136.079 165.302 120.824 171.768 102.23 171.768C89.6952 171.768 75.6452 168.832 59.9068 162.55C57.0964 163.715 54.7483 166.044 52.9406 168.844C51.1608 171.665 49.8805 174.778 49.1555 178.042C48.766 180.109 48.52 182.201 48.4212 184.303C60.8368 190.455 82.0058 198.655 106.531 198.655C117.057 198.685 127.527 197.103 137.581 193.961C150.778 189.811 162.001 182.839 171.412 174.745C185.529 162.595 195.574 147.854 202.082 136.151C204.717 131.422 207.114 126.561 209.262 121.586C210.038 119.774 210.61 118.326 210.992 117.338C211.178 116.842 211.322 116.46 211.398 116.202L211.504 115.911C211.504 115.878 211.504 115.858 211.504 115.841V115.817C211.53 115.741 211.571 115.67 211.625 115.61C211.68 115.55 211.743 115.501 211.816 115.467C211.888 115.432 211.967 115.411 212.047 115.407C212.127 115.403 212.207 115.415 212.282 115.442C212.358 115.468 212.427 115.51 212.487 115.564C212.546 115.618 212.595 115.684 212.628 115.756C212.664 115.829 212.684 115.908 212.688 115.989C212.692 116.07 212.68 116.151 212.654 116.227C212.654 116.26 207.324 131.755 195.33 149.363C189.336 158.167 181.668 167.499 172.156 175.688C171.034 176.65 169.887 177.598 168.715 178.53C168.192 178.943 167.664 179.353 167.131 179.76C161.751 183.89 155.966 187.456 149.868 190.401C149.462 190.589 149.056 190.77 148.674 190.955C145.189 192.576 141.605 193.974 137.943 195.14C127.771 198.32 117.18 199.921 106.531 199.889C81.4989 199.889 59.9888 191.459 47.5192 185.246C47.413 185.194 47.3254 185.112 47.2658 185.01C47.2043 184.908 47.1745 184.791 47.1782 184.672C47.2695 182.372 47.5304 180.082 47.9572 177.82V177.8C48.1007 177.173 48.2703 176.525 48.4622 175.873C48.5871 175.459 48.7101 175.048 48.8592 174.61Z" fill="#1A2E44"/>
<path d="M226.808 12.7451L228.675 18.9779C228.7 19.0624 228.743 19.1406 228.8 19.2065C228.858 19.2725 228.929 19.3246 229.009 19.3591C229.089 19.3966 229.177 19.416 229.264 19.416C229.354 19.416 229.441 19.3966 229.522 19.3591L230.252 19.0024C230.574 20.6221 230.735 22.2709 230.727 23.9231C230.658 30.3607 228.642 36.6232 224.948 41.8708L224.81 41.9858C224.676 42.0923 224.48 42.244 224.229 42.4286C223.577 42.9198 222.9 43.3744 222.197 43.7899C220.524 44.7822 218.33 45.7459 216.374 45.7377C215.682 45.7424 214.998 45.6028 214.363 45.3276C213.681 45.0197 213.079 44.5533 212.609 43.9662C211.972 43.2106 211.629 42.2476 211.642 41.2558C211.642 39.9068 212.206 38.3855 213.019 36.9215C213.846 35.5079 214.748 34.1393 215.719 32.821C216.232 32.1295 216.694 31.4003 217.1 30.6396C217.283 30.3013 217.389 29.9257 217.41 29.5408C217.41 29.3747 217.378 29.2101 217.317 29.057C217.244 28.8963 217.136 28.7554 217 28.6468C216.752 28.436 216.48 28.2595 216.187 28.1219C215.941 28.0104 215.677 27.9503 215.406 27.9456C215.175 27.9499 214.946 27.9943 214.728 28.0768C214.534 28.1507 214.37 28.2326 214.217 28.3024C213.91 28.4591 213.573 28.542 213.23 28.5444C213.094 28.5448 212.958 28.5351 212.823 28.5157C212.65 28.492 212.479 28.4464 212.316 28.3802C212.251 28.3518 212.193 28.3082 212.149 28.2531C212.123 28.2132 212.102 28.1688 212.089 28.1219C212.057 27.9878 212.042 27.8497 212.048 27.7118C212.076 27.1213 212.147 26.5333 212.259 25.9528C212.393 25.1328 212.572 24.1485 212.73 22.9183C212.758 22.7161 212.771 22.5117 212.771 22.3074C212.771 20.9379 212.255 19.4043 211.524 17.8297C210.751 16.2199 209.866 14.6686 208.872 13.1879C207.447 11.0352 206.029 9.22683 205.391 8.43134C205.456 8.36984 205.525 8.30422 205.609 8.23042C206.168 7.74689 206.765 7.31076 207.393 6.92646C209.418 5.69099 211.741 5.03736 214.107 5.03613C216.524 5.03613 219.387 5.69631 222.637 7.62764C224.469 8.71683 226.055 10.1806 227.294 11.925L227.145 11.9947C227.007 12.0562 226.898 12.1667 226.834 12.305C226.773 12.4434 226.763 12.6 226.808 12.7451Z" fill="#1A2E44"/>
<path d="M218.791 46.5894C217.997 46.8155 217.177 46.9342 216.354 46.942C215.498 46.9519 214.648 46.7831 213.86 46.4457C212.999 46.0628 212.242 45.4781 211.65 44.7399C210.834 43.764 210.39 42.5242 210.403 41.2464C210.448 39.9257 210.774 38.6302 211.363 37.4493C212.242 35.6877 213.279 34.0093 214.456 32.4345C214.965 31.7169 215.416 31.069 215.724 30.5482C215.856 30.3316 215.973 30.1055 216.074 29.8717C216.121 29.7618 216.154 29.6459 216.171 29.5272C216.022 29.3985 215.856 29.2908 215.679 29.2072C215.59 29.1643 215.495 29.1391 215.396 29.1335C215.304 29.1389 215.215 29.1583 215.131 29.191C214.965 29.2524 214.725 29.3794 214.412 29.5026C214.032 29.6558 213.627 29.7336 213.217 29.7321C213.027 29.7325 212.835 29.7174 212.645 29.6871C212.386 29.6524 212.133 29.5862 211.89 29.4903C211.717 29.4171 211.555 29.3192 211.411 29.1992C211.197 29.0132 211.039 28.7723 210.951 28.5021C210.867 28.2371 210.828 27.9601 210.834 27.6818C210.86 27.0236 210.936 26.3683 211.061 25.7219C211.191 24.9265 211.357 23.9586 211.516 22.7695C211.534 22.6212 211.544 22.4721 211.545 22.3226C211.545 21.2729 211.109 19.8622 210.416 18.3656C209.294 16.0924 207.973 13.9255 206.467 11.8909L206.033 11.2963C205.768 10.9355 205.522 10.6115 205.299 10.3163L204.782 9.65203L204.27 9.01645L204.132 8.84833L204.087 8.79502C203.988 8.68226 203.932 8.53627 203.932 8.38497C203.932 8.23368 203.988 8.08769 204.087 7.97492C204.872 7.15551 205.764 6.44906 206.739 5.87546C208.957 4.5302 211.497 3.82133 214.084 3.82521C216.723 3.82521 219.807 4.55511 223.214 6.58895C225.256 7.79928 227.016 9.44319 228.369 11.407L227.256 11.9442C226.017 10.1998 224.429 8.73607 222.597 7.64689C219.347 5.71556 216.505 5.05536 214.067 5.05536C211.715 5.05786 209.41 5.70408 207.393 6.9252C206.765 7.30819 206.169 7.74295 205.61 8.22506C205.526 8.29886 205.457 8.36446 205.392 8.42598C206.033 9.22147 207.447 11.0298 208.873 13.1826C209.866 14.6633 210.752 16.2145 211.525 17.8243C212.256 19.3989 212.768 20.9325 212.772 22.3021C212.772 22.5064 212.759 22.7105 212.731 22.913C212.572 24.1432 212.401 25.1149 212.272 25.9023C212.16 26.4828 212.09 27.0708 212.06 27.6615C212.056 27.7994 212.069 27.9373 212.101 28.0714C212.114 28.1183 212.134 28.1627 212.162 28.2026C212.207 28.2577 212.265 28.3013 212.328 28.3299C212.492 28.3959 212.662 28.4415 212.837 28.4652C212.971 28.4846 213.107 28.4943 213.243 28.4939C213.586 28.4915 213.923 28.4086 214.229 28.2519C214.384 28.1821 214.546 28.1002 214.742 28.0263C214.958 27.9438 215.187 27.8994 215.42 27.8951C215.688 27.8998 215.955 27.9599 216.199 28.0714C216.492 28.209 216.766 28.3857 217.012 28.5963C217.149 28.7049 217.258 28.8458 217.328 29.0064C217.392 29.1596 217.423 29.3242 217.421 29.4903C217.401 29.8752 217.297 30.2508 217.114 30.5891C216.708 31.3498 216.246 32.079 215.733 32.7707C214.762 34.0888 213.86 35.4576 213.031 36.8712C212.218 38.3432 211.65 39.8563 211.654 41.2053C211.641 42.1971 211.985 43.16 212.621 43.9157C213.092 44.5028 213.692 44.9692 214.376 45.2771C215.01 45.5523 215.696 45.6919 216.385 45.6872C218.344 45.6872 220.538 44.7319 222.211 43.7394C222.912 43.3239 223.59 42.8693 224.241 42.3781C224.494 42.1935 224.688 42.0418 224.822 41.9353L224.96 41.8205C228.654 36.5727 230.67 30.3102 230.741 23.8726C230.747 22.2204 230.588 20.5716 230.266 18.952L231.389 18.4066C231.773 20.1959 231.963 22.0215 231.958 23.8521C231.893 30.5734 229.779 37.1115 225.907 42.579C225.879 42.6206 225.843 42.6579 225.806 42.6898C224.865 43.4661 223.862 44.1654 222.811 44.781C221.982 45.2752 221.115 45.7055 220.221 46.0686C219.755 46.2703 219.278 46.4442 218.791 46.5894Z" fill="#1A2E44"/>
<path d="M245.588 1.18458C246.607 1.19276 247.608 1.44218 248.514 1.91276C249.418 2.38336 250.2 3.06194 250.799 3.89385C251.395 4.72576 251.792 5.68772 251.952 6.70225C252.114 7.71678 252.038 8.75549 251.73 9.73469C251.421 10.7139 250.888 11.6062 250.176 12.3398C249.462 13.0733 248.59 13.6275 247.627 13.9578C246.661 14.2881 245.634 14.3852 244.626 14.2413C243.62 14.0974 242.658 13.7165 241.823 13.1293C242.409 12.8013 242.901 12.5102 243.253 12.2764C243.411 12.1719 243.564 12.0583 243.707 11.9361C243.803 11.8499 243.868 11.7361 243.896 11.6104C243.924 11.4847 243.912 11.3535 243.862 11.2349L241.548 5.78124C241.516 5.70478 241.467 5.63563 241.408 5.57788C241.35 5.52015 241.279 5.47496 241.203 5.44501C241.048 5.38166 240.877 5.38166 240.722 5.44501L239.272 6.14619C239.626 4.7263 240.441 3.46657 241.585 2.56749C242.729 1.66839 244.138 1.1816 245.588 1.18458Z" fill="#1A2E44"/>
<path d="M241.824 13.1302C242.659 13.7174 243.621 14.0983 244.627 14.2422C245.635 14.3861 246.662 14.289 247.627 13.9587C248.591 13.6284 249.463 13.0741 250.177 12.3406C250.889 11.6071 251.422 10.7147 251.731 9.73554C252.039 8.75633 252.115 7.71763 251.953 6.7031C251.793 5.68859 251.396 4.72661 250.799 3.89469C250.201 3.06278 249.418 2.38421 248.514 1.91361C247.609 1.44303 246.608 1.19361 245.589 1.18543C244.137 1.18359 242.724 1.67332 241.58 2.57642C240.436 3.47949 239.623 4.74385 239.275 6.16755L237.918 6.81951C238.13 5.10354 238.904 3.50808 240.115 2.28455C241.325 1.06104 242.905 0.27903 244.605 0.0617438C246.304 -0.155542 248.026 0.204255 249.502 1.08444C250.976 1.96463 252.119 3.31515 252.749 4.92322C253.38 6.53127 253.462 8.30544 252.983 9.96615C252.506 11.6269 251.494 13.0797 250.108 14.0957C248.721 15.1118 247.04 15.6332 245.328 15.5779C243.615 15.5226 241.969 14.8937 240.65 13.7904C241.073 13.5484 241.466 13.3311 241.824 13.1302Z" fill="#1A2E44"/>
<path d="M229.636 17.9352L228.128 12.8916L240.68 6.85156L242.551 11.2678L242.145 11.5179C241.768 11.7476 241.28 12.0264 240.719 12.338C239.599 12.9572 238.181 13.6912 236.727 14.4293C233.896 15.8645 230.91 17.316 229.636 17.9352Z" fill="#1A2E44"/>
<path d="M230.266 19L229.533 19.3568C229.453 19.3943 229.365 19.4137 229.278 19.4137C229.19 19.4137 229.103 19.3943 229.022 19.3568C228.942 19.3223 228.87 19.2702 228.812 19.2042C228.754 19.1381 228.713 19.0601 228.689 18.9754L226.82 12.7427C226.779 12.6018 226.788 12.4506 226.848 12.3161C226.905 12.1817 227.01 12.0727 227.142 12.0087L227.291 11.939L228.404 11.4018L237.918 6.82158L239.272 6.1696L240.724 5.46841C240.877 5.40506 241.049 5.40506 241.203 5.46841C241.28 5.49836 241.35 5.54355 241.408 5.6013C241.468 5.65903 241.516 5.72818 241.548 5.80464L243.863 11.2583C243.913 11.3769 243.924 11.5081 243.896 11.6338C243.87 11.7595 243.803 11.8733 243.708 11.9595C243.564 12.0817 243.412 12.1953 243.253 12.2998C242.901 12.5336 242.409 12.8247 241.824 13.1527C241.466 13.3537 241.073 13.5628 240.65 13.7965L239.996 14.1451C237.219 15.613 233.559 17.4255 231.378 18.4752L230.266 19ZM240.743 12.3326C241.304 12.0292 241.792 11.7504 242.169 11.5125L242.575 11.2624L240.704 6.84617L228.152 12.8862L229.66 17.9298C230.935 17.3106 233.92 15.8591 236.764 14.4157C238.193 13.6858 239.606 12.9518 240.732 12.3326H240.743Z" fill="#1A2E44"/>
<path d="M274.26 462.721L269.828 465.381L262.679 461.575L267.079 459.291L274.26 462.721Z" fill="white"/>
<path d="M269.48 459.081L275.817 462.103C275.917 462.15 276.003 462.225 276.065 462.318C276.126 462.411 276.162 462.52 276.165 462.633C276.171 462.743 276.147 462.855 276.094 462.952C276.042 463.051 275.964 463.133 275.869 463.189L270.159 466.619C270.067 466.669 269.965 466.697 269.861 466.697C269.754 466.697 269.652 466.669 269.56 466.619L263.765 463.535L262.546 462.883L261.077 462.103C260.978 462.051 260.895 461.973 260.837 461.876C260.781 461.779 260.749 461.669 260.749 461.557C260.749 461.443 260.781 461.333 260.837 461.236C260.895 461.141 260.978 461.062 261.077 461.008L266.787 458.053C266.871 458.01 266.963 457.987 267.058 457.987C267.151 457.987 267.244 458.01 267.328 458.053L268.269 458.504L269.48 459.081ZM267.08 459.295L262.68 461.579L269.829 465.384L274.261 462.723L267.08 459.295Z" fill="#1A2E44"/>
<path d="M121.303 471.97L116.267 471.092L113.846 464.986H117.717L121.303 471.97Z" fill="white"/>
<path d="M119.93 466.621L122.951 472.5C123.003 472.603 123.026 472.717 123.016 472.833C123.009 472.946 122.97 473.057 122.903 473.148C122.836 473.241 122.744 473.312 122.638 473.355C122.534 473.398 122.418 473.411 122.306 473.391L115.726 472.25C115.624 472.234 115.527 472.189 115.446 472.124C115.364 472.056 115.301 471.971 115.264 471.874L113.301 466.916L112.826 465.718L112.383 464.598C112.345 464.507 112.332 464.406 112.342 464.307C112.353 464.207 112.388 464.111 112.444 464.029C112.5 463.945 112.575 463.878 112.662 463.832C112.75 463.783 112.849 463.759 112.947 463.759H118.089C118.201 463.759 118.311 463.79 118.406 463.848C118.501 463.906 118.579 463.99 118.63 464.091L119.304 465.403L119.93 466.621ZM117.716 464.981H113.846L116.283 471.086L121.322 471.959L117.716 464.981Z" fill="#1A2E44"/>
<path d="M127.745 121.196C125.95 123.007 123.589 124.134 121.066 124.384C118.541 124.635 116.006 123.994 113.898 122.571C111.789 121.148 110.232 119.03 109.496 116.579C108.76 114.128 108.889 111.495 109.86 109.128C110.831 106.762 112.584 104.809 114.823 103.602C117.061 102.394 119.644 102.008 122.132 102.508C124.62 103.008 126.86 104.364 128.47 106.344C130.078 108.324 130.958 110.806 130.958 113.368C130.958 114.822 130.677 116.262 130.125 117.605C129.573 118.949 128.765 120.169 127.745 121.196Z" fill="white"/>
<path d="M119.99 125.665C117.581 125.665 115.225 124.943 113.222 123.591C111.218 122.24 109.657 120.318 108.734 118.071C107.812 115.823 107.569 113.349 108.041 110.963C108.51 108.577 109.672 106.385 111.375 104.665C113.078 102.944 115.249 101.773 117.614 101.298C119.977 100.823 122.428 101.067 124.653 101.998C126.88 102.929 128.783 104.506 130.123 106.529C131.461 108.552 132.177 110.93 132.177 113.363C132.177 116.626 130.893 119.754 128.608 122.061C126.321 124.368 123.222 125.665 119.99 125.665ZM119.99 102.292C117.454 102.291 114.996 103.179 113.034 104.804C111.073 106.429 109.729 108.689 109.234 111.202C108.74 113.714 109.122 116.322 110.318 118.581C111.513 120.84 113.447 122.611 115.792 123.591C118.136 124.572 120.743 124.701 123.172 123.958C125.6 123.215 127.697 121.645 129.107 119.515C130.516 117.385 131.152 114.828 130.904 112.279C130.654 109.73 129.538 107.347 127.745 105.535C126.728 104.506 125.518 103.69 124.187 103.134C122.857 102.578 121.431 102.293 119.99 102.296V102.292Z" fill="#1A2E44"/>
<path d="M27.6733 66.7334H71.3848V71.244H27.6733V66.7334Z" fill="white"/>
<path d="M26.6331 65.6834C26.7487 65.5686 26.9034 65.5039 27.0637 65.5029H71.9941C72.1563 65.5029 72.3109 65.5677 72.4246 65.683C72.5401 65.7983 72.6035 65.9549 72.6035 66.1179V71.8586C72.6035 72.0218 72.5401 72.1782 72.4246 72.2935C72.3109 72.409 72.1563 72.4737 71.9941 72.4737H27.0637C26.9034 72.4726 26.7487 72.4079 26.6331 72.2933C26.5195 72.178 26.4561 72.0216 26.4561 71.8586V66.1179C26.4561 65.9549 26.5195 65.7985 26.6331 65.6834ZM71.3847 66.7329H27.6731V71.2436H71.3847V66.7329Z" fill="#1A2E44"/>
<path d="M12.7713 38.9346H103.797V55.8861H12.7713V38.9346ZM13.9454 46.2416C13.9454 46.4045 14.0106 46.5605 14.1243 46.6764C14.1802 46.7339 14.2473 46.7794 14.3218 46.8103C14.3945 46.8413 14.4747 46.8572 14.5548 46.8568H44.2407C44.4028 46.8566 44.5575 46.7917 44.6712 46.6764C44.7848 46.5605 44.8501 46.4045 44.8501 46.2416V42.4488C44.8501 42.2855 44.7867 42.1292 44.6712 42.0139C44.5575 41.8984 44.4028 41.8336 44.2407 41.8336H14.5455C14.4672 41.8332 14.3871 41.8491 14.3125 41.8801C14.2398 41.9111 14.1728 41.9566 14.115 42.0141C14.0013 42.1294 13.938 42.2857 13.938 42.4488L13.9454 46.2416Z" fill="white"/>
<path d="M104.406 57.116H12.1543C12.0033 57.1147 11.8579 57.0561 11.748 56.952C11.6343 56.8361 11.571 56.6801 11.5691 56.5172V38.3193C11.571 38.1564 11.6343 38.0004 11.748 37.8845C11.8039 37.8271 11.871 37.7815 11.9456 37.7506C12.0183 37.7196 12.0984 37.7037 12.1785 37.7041H104.406C104.568 37.7041 104.723 37.769 104.837 37.8844C104.95 37.9997 105.016 38.156 105.016 38.3193V56.5008C105.016 56.6639 104.95 56.8204 104.837 56.9357C104.723 57.0511 104.568 57.116 104.406 57.116ZM103.797 38.9343H12.7711V55.8858H103.797V38.9343Z" fill="#1A2E44"/>
<path d="M15.1644 43.0635H43.6406V45.6263H15.1644V43.0635Z" fill="white"/>
<path d="M14.5553 41.8331H44.2412C44.4033 41.8331 44.558 41.8979 44.6717 42.0132C44.7872 42.1285 44.8506 42.285 44.8506 42.4481V46.2411C44.8506 46.404 44.7853 46.56 44.6717 46.6757C44.558 46.7912 44.4033 46.8561 44.2412 46.8561H14.5478C14.4677 46.8565 14.3875 46.8408 14.313 46.8098C14.2403 46.7789 14.1732 46.7333 14.1173 46.6757C14.0037 46.56 13.9384 46.404 13.9384 46.2411V42.4481C13.9384 42.285 14.0018 42.1287 14.1173 42.0135C14.1732 41.955 14.2422 41.9089 14.3167 41.8779C14.3931 41.8467 14.4733 41.8316 14.5553 41.8331ZM43.6411 43.0633H15.1647V45.6261H43.6411V43.0633Z" fill="#1A2E44"/>
<path d="M27.6732 76.8574H81.4707V79.7197H27.6732V76.8574Z" fill="white"/>
<path d="M27.0636 75.6258H82.0801C82.2403 75.626 82.395 75.6909 82.5105 75.8062C82.6242 75.9219 82.6876 76.0779 82.6895 76.2408V80.3413C82.6895 80.4223 82.6746 80.5025 82.6429 80.5773C82.6131 80.6523 82.5683 80.7203 82.5105 80.7775C82.4546 80.8346 82.3876 80.88 82.313 80.9108C82.2385 80.9414 82.1602 80.957 82.0801 80.9565H27.0636C26.9033 80.9552 26.7505 80.8921 26.6331 80.7802C26.5194 80.6634 26.4561 80.5057 26.4561 80.3413V76.2244C26.4561 76.0613 26.5194 75.9049 26.6331 75.7896C26.7486 75.6741 26.9033 75.6094 27.0636 75.6094V75.6258ZM81.4706 76.856H27.673V79.7263H81.4706V76.856Z" fill="#1A2E44"/>
<path d="M105.016 146.854H138.521V154.193H105.016V146.854Z" fill="white"/>
<path d="M139.13 155.42H104.407C104.326 155.421 104.246 155.405 104.174 155.374C104.099 155.343 104.032 155.297 103.976 155.24C103.862 155.124 103.797 154.968 103.797 154.805V146.239C103.797 146.076 103.861 145.92 103.976 145.804C104.09 145.689 104.244 145.624 104.407 145.624H139.13C139.29 145.625 139.445 145.69 139.56 145.804C139.616 145.861 139.663 145.929 139.693 146.004C139.722 146.078 139.739 146.158 139.739 146.239V154.805C139.739 154.968 139.674 155.124 139.56 155.24C139.445 155.354 139.29 155.419 139.13 155.42ZM138.52 146.854H105.016V154.19H138.52V146.854Z" fill="#1A2E44"/>
<path d="M94.8125 155.584C94.0875 156.315 93.1352 156.769 92.1158 156.869C91.0964 156.97 90.0732 156.71 89.2215 156.135C88.3717 155.56 87.7437 154.704 87.4473 153.715C87.151 152.725 87.2032 151.662 87.5964 150.707C87.9896 149.752 88.6978 148.964 89.5998 148.478C90.5037 147.991 91.5473 147.835 92.5518 148.038C93.5563 148.24 94.4602 148.787 95.1088 149.587C95.7573 150.387 96.1133 151.389 96.1133 152.423C96.1133 153.01 95.9977 153.592 95.776 154.134C95.5523 154.677 95.2243 155.17 94.8125 155.584Z" fill="white"/>
<path d="M91.6776 158.128C90.5594 158.127 89.4673 157.792 88.5392 157.165C87.6111 156.538 86.8862 155.647 86.4594 154.604C86.0326 153.562 85.9226 152.415 86.1407 151.309C86.3587 150.203 86.8973 149.187 87.6875 148.39C88.4777 147.593 89.4841 147.05 90.5799 146.83C91.6758 146.61 92.8126 146.723 93.8432 147.155C94.8757 147.587 95.759 148.318 96.3796 149.256C97.0002 150.194 97.3301 151.297 97.3301 152.425C97.3301 153.174 97.1847 153.916 96.8996 154.608C96.6163 155.3 96.1989 155.929 95.6752 156.459C95.1496 156.989 94.5253 157.409 93.8395 157.695C93.1536 157.982 92.4193 158.129 91.6776 158.128ZM91.6776 147.947C90.6489 147.946 89.6537 148.305 88.8598 148.963C88.0659 149.62 87.5217 150.535 87.3204 151.552C87.1191 152.569 87.2738 153.625 87.7583 154.54C88.241 155.455 89.0256 156.172 89.9742 156.569C90.9228 156.966 91.9795 157.019 92.9617 156.718C93.9457 156.417 94.7936 155.781 95.3658 154.919C95.9361 154.056 96.1933 153.021 96.0926 151.989C95.992 150.957 95.5391 149.992 94.8123 149.259C94.4004 148.843 93.9121 148.513 93.3735 148.287C92.8368 148.062 92.2591 147.947 91.6776 147.947Z" fill="#1A2E44"/>
<path d="M133.435 67.883C134.752 66.5517 136.485 65.7229 138.34 65.5376C140.196 65.3523 142.056 65.8223 143.606 66.8674C145.157 67.9123 146.299 69.4677 146.84 71.2683C147.382 73.0689 147.287 75.0031 146.575 76.7416C145.861 78.48 144.572 79.9147 142.928 80.8014C141.284 81.6881 139.387 81.9717 137.559 81.6039C135.731 81.2361 134.087 80.2396 132.905 78.7845C131.724 77.3293 131.077 75.5054 131.079 73.6236C131.079 72.5575 131.286 71.5014 131.69 70.5162C132.095 69.531 132.687 68.6363 133.435 67.883Z" fill="white"/>
<path d="M139.13 64.2656C140.964 64.2647 142.757 64.8131 144.283 65.8414C145.807 66.8695 146.996 68.3312 147.699 70.0417C148.402 71.7522 148.586 73.6347 148.228 75.4508C147.87 77.267 146.989 78.9355 145.692 80.2452C144.395 81.5547 142.744 82.4468 140.943 82.8084C139.145 83.1698 137.281 82.9847 135.585 82.2762C133.891 81.5679 132.443 80.368 131.424 78.8284C130.405 77.2889 129.86 75.4787 129.86 73.627C129.86 71.145 130.837 68.7645 132.576 67.0089C134.314 65.2534 136.672 64.2667 139.13 64.2656ZM139.13 81.7542C140.992 81.756 142.798 81.1057 144.238 79.9142C145.681 78.7224 146.667 77.0633 147.032 75.2192C147.397 73.3751 147.118 71.4603 146.24 69.8014C145.364 68.1422 143.944 66.8413 142.224 66.1205C140.504 65.3997 138.588 65.3036 136.806 65.8485C135.023 66.3933 133.481 67.5453 132.447 69.1084C131.411 70.6714 130.945 72.5487 131.126 74.4202C131.308 76.2917 132.127 78.0418 133.444 79.3718C134.19 80.1271 135.075 80.7262 136.051 81.135C137.028 81.5439 138.073 81.7543 139.13 81.7542Z" fill="#1A2E44"/>
<path d="M63.7736 428.964C64.6812 428.05 65.8739 427.481 67.1487 427.356C68.4234 427.229 69.7037 427.554 70.7678 428.272C71.8338 428.992 72.6202 430.062 72.9911 431.301C73.362 432.538 73.2967 433.868 72.8066 435.064C72.3165 436.258 71.4294 437.245 70.3 437.855C69.1688 438.466 67.8643 438.66 66.6082 438.408C65.3502 438.156 64.219 437.471 63.4065 436.471C62.594 435.469 62.1485 434.215 62.1485 432.922C62.1467 432.187 62.2902 431.459 62.5678 430.78C62.8474 430.101 63.2574 429.483 63.7736 428.964Z" fill="white"/>
<path d="M443.718 18.9545C440.431 18.9545 437.767 16.263 437.767 12.943C437.767 9.62303 440.431 6.93164 443.718 6.93164C447.005 6.93164 449.669 9.62303 449.669 12.943C449.669 16.263 447.005 18.9545 443.718 18.9545Z" fill="#1A2E44" stroke="#1A2E44" stroke-linecap="round" stroke-linejoin="round"/>
<path d="M531.823 89.1331C530.031 89.1331 528.577 87.665 528.577 85.8541C528.577 84.0431 530.031 82.5752 531.823 82.5752C533.616 82.5752 535.069 84.0431 535.069 85.8541C535.069 87.665 533.616 89.1331 531.823 89.1331Z" fill="#1A2E44" stroke="#1A2E44" stroke-linecap="round" stroke-linejoin="round"/>
<path d="M519.07 418.579C519.07 418.579 560.788 401.71 547.939 359.357C510.229 369.986 512.064 417.23 512.064 417.23L519.07 418.579Z" fill="#1A2E44" stroke="#1A2E44" stroke-linecap="round" stroke-linejoin="round"/>
<path d="M509.724 415.657C509.724 415.657 546.878 370.67 536.864 323.422C517.509 330.169 495.039 389.561 497.939 415.657C505.93 416.107 509.724 415.657 509.724 415.657Z" fill="#B6D7FF" stroke="#1A2E44" stroke-linecap="round" stroke-linejoin="round"/>
<path d="M497.681 420.816C497.681 420.816 541.097 303.86 489.554 240.593C443.482 294.737 470.515 420.816 470.515 420.816H497.681Z" fill="#B6D7FF" stroke="#1A2E44" stroke-linecap="round" stroke-linejoin="round"/>
<path d="M474.795 415.853C474.795 415.853 467.006 358.96 424.514 355.364C417.841 388.434 454.995 417.454 454.995 417.454L474.795 415.853Z" fill="#B6D7FF" stroke="#1A2E44" stroke-linecap="round" stroke-linejoin="round"/>
<path d="M483.263 416.284C483.348 416.284 483.432 416.258 483.503 416.21C483.574 416.161 483.629 416.092 483.66 416.012C496.009 384.547 491.526 256.83 491.48 255.532C491.475 255.418 491.427 255.31 491.344 255.231C491.261 255.153 491.15 255.112 491.037 255.115C490.923 255.119 490.816 255.168 490.739 255.252C490.661 255.336 490.62 255.448 490.624 255.563C490.671 256.86 495.15 384.379 482.869 415.674C482.848 415.728 482.838 415.784 482.839 415.84C482.839 415.898 482.851 415.954 482.873 416.006C482.896 416.059 482.928 416.105 482.968 416.146C483.009 416.186 483.056 416.217 483.108 416.238C483.156 416.264 483.209 416.281 483.263 416.284Z" fill="#1A2E44"/>
<path d="M469.905 415.193C470.001 415.195 470.094 415.161 470.17 415.101C470.246 415.042 470.299 414.958 470.322 414.863C470.345 414.769 470.335 414.669 470.295 414.581C470.255 414.493 470.187 414.42 470.101 414.376C448.684 403.107 432.858 365.7 432.699 365.323C432.679 365.269 432.648 365.22 432.608 365.177C432.568 365.134 432.52 365.103 432.467 365.079C432.414 365.056 432.358 365.045 432.3 365.045C432.242 365.045 432.185 365.056 432.132 365.079C432.079 365.101 432.031 365.134 431.992 365.177C431.951 365.218 431.92 365.269 431.9 365.323C431.879 365.377 431.87 365.435 431.872 365.493C431.874 365.551 431.888 365.608 431.912 365.661C432.071 366.041 448.017 403.727 469.708 415.143C469.768 415.176 469.836 415.193 469.905 415.193Z" fill="#1A2E44"/>
<path d="M500.433 412.995C500.533 412.995 500.63 412.959 500.707 412.896C512.513 402.865 532.001 338.57 532.827 335.834C532.857 335.778 532.874 335.715 532.877 335.651C532.879 335.586 532.868 335.523 532.843 335.463C532.818 335.403 532.781 335.351 532.733 335.308C532.685 335.265 532.628 335.234 532.567 335.217C532.506 335.198 532.442 335.194 532.379 335.206C532.316 335.215 532.256 335.241 532.204 335.276C532.152 335.314 532.108 335.362 532.077 335.418C532.046 335.474 532.027 335.538 532.022 335.601C531.821 336.267 511.786 402.385 500.173 412.25C500.106 412.308 500.059 412.385 500.037 412.471C500.015 412.556 500.019 412.648 500.049 412.73C500.08 412.812 500.134 412.885 500.206 412.935C500.278 412.986 500.363 413.014 500.451 413.014L500.433 412.995Z" fill="#1A2E44"/>
<path d="M536.092 472.673C532.843 477.491 528.791 481.699 524.115 485.109H448.614C440.174 478.894 434.002 470.628 431.23 461.254C462.207 479.984 501.06 475.597 536.092 472.673Z" fill="#1A2E44" stroke="#1A2E44" stroke-linecap="round" stroke-linejoin="round"/>
<path d="M452.326 412.562H520.402C534.184 421.122 543.098 434.743 543.098 450.092C543.098 458.28 540.553 465.975 536.091 472.675C501.059 475.599 462.207 479.986 431.251 461.256C430.179 457.634 429.634 453.873 429.634 450.092C429.634 434.743 438.548 421.122 452.326 412.562Z" fill="white" stroke="#1A2E44" stroke-linecap="round" stroke-linejoin="round"/>
<path d="M408.985 225.238H311.971C308.188 225.238 304.558 223.731 301.881 221.046C299.205 218.363 297.701 214.722 297.698 210.927V96.3018L269.152 70.9297H408.985C410.861 70.9276 412.719 71.2967 414.453 72.0157C416.187 72.7344 417.762 73.7892 419.089 75.1194C420.416 76.4496 421.469 78.0291 422.187 79.7677C422.905 81.5062 423.274 83.3698 423.273 85.2516V210.927C423.273 212.808 422.902 214.67 422.183 216.407C421.465 218.144 420.412 219.723 419.085 221.051C417.758 222.382 416.183 223.434 414.45 224.152C412.717 224.871 410.86 225.24 408.985 225.238ZM397.427 87.7396H333.431C331.774 87.7435 330.136 88.0749 328.606 88.7147C327.078 89.3543 325.689 90.2899 324.521 91.468C323.352 92.6462 322.426 94.0435 321.796 95.5805C321.166 97.1174 320.846 98.7639 320.849 100.426V186.831H309.397C309.246 186.831 309.103 186.89 308.997 186.997C308.891 187.103 308.831 187.249 308.831 187.4C308.827 189.06 309.15 190.708 309.779 192.244C310.409 193.781 311.336 195.179 312.504 196.356C313.673 197.533 315.061 198.468 316.591 199.108C318.119 199.746 319.759 200.079 321.416 200.08H385.411C388.754 200.071 391.956 198.728 394.313 196.351C396.67 193.971 397.99 190.753 397.982 187.4V100.994H409.446C409.596 100.994 409.74 100.934 409.846 100.827C409.952 100.72 410.011 100.576 410.012 100.426C410.016 98.7637 409.694 97.1172 409.064 95.5803C408.433 94.0432 407.507 92.6458 406.339 91.4679C405.17 90.2897 403.781 89.3542 402.252 88.7145C400.723 88.0749 399.084 87.7435 397.427 87.7396Z" fill="#B6D7FF"/>
<path d="M339.207 88.9678H397.853C400.793 88.976 403.617 90.2289 405.741 92.4675C407.865 94.7058 409.125 97.7578 409.262 100.992H346.556C346.455 98.4368 345.715 95.9623 344.418 93.8408C343.121 91.7192 341.319 90.033 339.207 88.9678Z" fill="white"/>
<path d="M408.7 100.992H397.315V100.476C397.315 100.34 397.255 100.209 397.15 100.112C397.044 100.015 396.902 99.9611 396.752 99.9611H408.123C407.987 97.2817 406.732 94.7526 404.617 92.8981C402.503 91.0434 399.691 90.0052 396.764 89.9983H338.37C336.748 89.3176 334.985 88.9661 333.204 88.9678H396.764C398.409 88.9713 400.037 89.2719 401.556 89.8522C403.075 90.4325 404.454 91.2813 405.614 92.3499C406.775 93.4185 407.694 94.6862 408.32 96.0806C408.946 97.475 409.267 98.9686 409.263 100.476C409.262 100.613 409.202 100.744 409.098 100.841C408.992 100.937 408.849 100.992 408.7 100.992Z" fill="#1A2E44"/>
<path d="M321.194 100.533C321.187 97.4679 322.411 94.5255 324.599 92.3535C325.676 91.2806 326.958 90.429 328.369 89.8479C329.782 89.2669 331.295 88.9678 332.825 88.9678C334.353 88.9678 335.868 89.2669 337.279 89.8479C338.692 90.429 339.972 91.2806 341.049 92.3535C343.237 94.5261 344.464 97.4677 344.46 100.533C344.458 100.607 344.473 100.681 344.501 100.75C344.529 100.819 344.572 100.882 344.624 100.935C344.734 101.042 344.881 101.102 345.034 101.102H397.253V187.626C397.257 189.139 396.96 190.641 396.378 192.041C395.796 193.442 394.94 194.716 393.86 195.789C392.78 196.864 391.496 197.717 390.083 198.299C388.669 198.883 387.154 199.183 385.622 199.187H321.198V100.533H321.194ZM333.74 179.435H389.123C389.842 179.435 390.532 179.152 391.04 178.649C391.549 178.147 391.834 177.465 391.834 176.754C391.834 176.043 391.549 175.361 391.04 174.858C390.532 174.355 389.842 174.073 389.123 174.073H333.74C333.023 174.073 332.333 174.355 331.824 174.858C331.316 175.361 331.03 176.043 331.03 176.754C331.03 177.465 331.316 178.147 331.824 178.649C332.333 179.152 333.023 179.435 333.74 179.435ZM333.74 167.141H389.123C389.842 167.141 390.532 166.858 391.04 166.356C391.549 165.853 391.834 165.171 391.834 164.46C391.834 163.749 391.549 163.067 391.04 162.564C390.532 162.061 389.842 161.779 389.123 161.779H333.74C333.023 161.779 332.333 162.061 331.824 162.564C331.316 163.067 331.03 163.749 331.03 164.46C331.03 165.171 331.316 165.853 331.824 166.356C332.333 166.858 333.023 167.141 333.74 167.141ZM333.74 154.847H389.123C389.842 154.847 390.532 154.564 391.04 154.062C391.549 153.559 391.834 152.877 391.834 152.166C391.834 151.455 391.549 150.773 391.04 150.27C390.532 149.767 389.842 149.485 389.123 149.485H333.74C333.023 149.485 332.333 149.767 331.824 150.27C331.316 150.773 331.03 151.455 331.03 152.166C331.03 152.877 331.316 153.559 331.824 154.062C332.333 154.564 333.023 154.847 333.74 154.847ZM331.027 141.548C331.027 141.7 331.086 141.846 331.194 141.954C331.303 142.059 331.45 142.117 331.601 142.117H391.156C391.307 142.117 391.452 142.058 391.56 141.953C391.667 141.848 391.729 141.705 391.731 141.556L391.838 133.899C391.839 133.786 391.806 133.675 391.742 133.581C391.007 132.516 390.179 131.516 389.269 130.593C387.316 128.529 384.99 126.844 382.413 125.625C380.325 124.657 378.052 124.15 375.747 124.139C373.952 124.147 372.168 124.452 370.474 125.041C366.225 126.501 363.702 127.673 361.987 128.139C361.516 128.282 361.028 128.36 360.536 128.371C360.058 128.376 359.587 128.26 359.169 128.033C358.592 127.704 358.064 127.294 357.604 126.816C356.408 125.648 354.859 123.729 352.481 120.908C350.435 118.419 347.801 116.465 344.812 115.22C340.528 113.525 335.775 113.376 331.39 114.799C331.278 114.837 331.181 114.909 331.112 115.004C331.045 115.099 331.008 115.213 331.006 115.33L331.027 141.548Z" fill="white"/>
<path d="M338.735 90.1026C340.822 91.0746 342.604 92.613 343.886 94.5487C345.166 96.4842 345.899 98.7419 345.999 101.073H396.695C396.843 101.073 396.985 101.133 397.089 101.239C397.194 101.346 397.253 101.49 397.253 101.64V188.523C397.257 190.182 396.939 191.826 396.318 193.362C395.697 194.897 394.784 196.291 393.633 197.469C392.481 198.644 391.113 199.579 389.606 200.217C388.099 200.857 386.483 201.187 384.85 201.191H321.763C321.91 201.191 322.051 201.131 322.158 201.025C322.262 200.919 322.322 200.775 322.322 200.624V200.057H384.835C386.323 200.053 387.793 199.752 389.165 199.172C390.537 198.59 391.783 197.739 392.832 196.668C393.88 195.597 394.711 194.326 395.276 192.929C395.841 191.531 396.13 190.033 396.125 188.523V102.208H345.444C345.295 102.208 345.151 102.148 345.045 102.041C344.995 101.989 344.954 101.926 344.926 101.857C344.9 101.788 344.885 101.715 344.887 101.64C344.888 98.5826 343.699 95.6483 341.579 93.4806C340.531 92.4104 339.288 91.561 337.918 90.9813C336.549 90.4015 335.08 90.1032 333.597 90.1032C332.111 90.1032 330.643 90.4015 329.273 90.9813C327.903 91.561 326.66 92.4104 325.615 93.4806C323.492 95.6477 322.303 98.5828 322.311 101.64V188.523C322.311 188.372 322.251 188.229 322.146 188.122C322.04 188.016 321.899 187.956 321.751 187.954H321.194V101.64C321.189 99.9792 321.507 98.3333 322.128 96.7969C322.75 95.2605 323.664 93.8639 324.817 92.6869C325.971 91.5099 327.34 90.5756 328.85 89.9373C330.36 89.2992 331.977 88.9696 333.612 88.9678C335.38 88.9665 337.126 89.3536 338.735 90.1026Z" fill="#1A2E44"/>
<path d="M321.194 189.169V199.189C318.05 199.053 315.082 197.952 312.862 196.101C310.642 194.248 309.33 191.777 309.185 189.169H321.194Z" fill="white"/>
<path d="M321.042 187.337C321.138 187.449 321.194 187.602 321.194 187.762V200.59C321.194 200.751 321.138 200.904 321.042 201.016C320.945 201.128 320.814 201.191 320.676 201.193C319.165 201.189 317.666 200.838 316.271 200.161C314.875 199.486 313.606 198.495 312.54 197.248C311.472 196.002 310.626 194.522 310.052 192.895C309.476 191.268 309.181 189.525 309.185 187.766C309.185 187.605 309.239 187.452 309.336 187.34C309.433 187.228 309.563 187.165 309.701 187.165H320.676C320.812 187.165 320.945 187.227 321.042 187.337ZM320.16 199.969V188.363H310.232C310.354 191.386 311.436 194.248 313.272 196.392C315.106 198.538 317.562 199.812 320.16 199.969Z" fill="#1A2E44"/>
<path d="M389.154 141.072H333.203V115.78H333.234C333.499 115.697 333.885 115.586 334.373 115.473C335.691 115.173 337.036 115.022 338.386 115.021C340.614 115.01 342.823 115.452 344.888 116.323C347.586 117.504 349.962 119.357 351.804 121.716C353.509 123.827 354.769 125.437 355.809 126.653C356.847 127.868 357.67 128.662 358.545 129.14C359.107 129.456 359.741 129.618 360.38 129.611C360.952 129.6 361.521 129.508 362.067 129.338C362.672 129.167 363.334 128.92 364.098 128.62C365.63 128.012 367.578 127.177 370.263 126.216C373.692 124.936 377.472 125.108 380.78 126.695C382.414 127.476 383.935 128.49 385.297 129.706C386.786 131.013 388.112 132.506 389.246 134.149L389.154 141.072Z" fill="#B6D7FF"/>
<path d="M331.569 114.043C335.9 112.532 340.593 112.69 344.825 114.49C347.777 115.813 350.378 117.888 352.401 120.532C354.749 123.528 356.279 125.567 357.46 126.807C357.913 127.315 358.435 127.75 359.005 128.1C359.419 128.341 359.883 128.464 360.353 128.458C360.832 128.45 361.307 128.373 361.765 128.229C363.459 127.733 365.951 126.489 370.148 124.938C371.821 124.312 373.583 123.988 375.355 123.98C377.632 123.992 379.878 124.53 381.939 125.558C384.485 126.853 386.783 128.643 388.71 130.835C389.61 131.815 390.427 132.877 391.153 134.008C391.216 134.108 391.249 134.226 391.248 134.347L391.142 142.478C391.14 142.637 391.079 142.789 390.973 142.901C390.867 143.012 390.723 143.075 390.574 143.075H331.77C331.619 143.075 331.476 143.013 331.368 142.901C331.261 142.787 331.202 142.632 331.202 142.47V114.607C331.202 114.485 331.235 114.365 331.302 114.264C331.368 114.163 331.461 114.086 331.569 114.043ZM386.052 129.808C384.647 128.517 383.078 127.442 381.393 126.614C377.981 124.918 374.078 124.727 370.534 126.082C367.766 127.101 365.759 127.987 364.179 128.631C363.39 128.95 362.71 129.212 362.084 129.393C361.519 129.574 360.936 129.671 360.345 129.683C359.685 129.69 359.033 129.518 358.452 129.183C357.552 128.676 356.705 127.818 355.63 126.545C354.555 125.272 353.26 123.565 351.502 121.309C349.603 118.807 347.154 116.843 344.37 115.59C342.242 114.666 339.964 114.197 337.667 114.208C336.276 114.21 334.89 114.37 333.531 114.688C333.026 114.809 332.629 114.925 332.357 115.014H332.322V141.838H390.028L390.123 134.492C388.952 132.758 387.584 131.185 386.052 129.808Z" fill="#1A2E44"/>
<path d="M333.643 151.382C333.781 151.289 333.945 151.215 334.127 151.165C334.308 151.115 334.504 151.09 334.699 151.091H387.737C387.933 151.09 388.128 151.115 388.31 151.165C388.491 151.215 388.656 151.289 388.794 151.382C389.008 151.521 389.155 151.7 389.215 151.895C389.276 152.09 389.247 152.292 389.133 152.476C389.02 152.661 388.826 152.818 388.577 152.928C388.328 153.038 388.035 153.096 387.737 153.095H334.699C334.302 153.094 333.922 152.988 333.643 152.801C333.503 152.709 333.393 152.599 333.316 152.478C333.242 152.357 333.203 152.228 333.203 152.097C333.203 151.966 333.242 151.836 333.316 151.715C333.393 151.594 333.503 151.484 333.643 151.392V151.382Z" fill="#EFF0F1"/>
<path d="M333.878 149.088H388.571C389.281 149.088 389.962 149.405 390.464 149.968C390.966 150.532 391.248 151.297 391.248 152.094C391.248 152.891 390.966 153.656 390.464 154.219C389.962 154.783 389.281 155.1 388.571 155.1H333.878C333.168 155.1 332.488 154.783 331.984 154.219C331.483 153.656 331.202 152.891 331.202 152.094C331.202 151.297 331.483 150.532 331.984 149.968C332.488 149.405 333.168 149.088 333.878 149.088ZM333.878 153.829H388.571C388.88 153.833 389.183 153.734 389.441 153.543C389.699 153.351 389.899 153.078 390.017 152.757C390.135 152.436 390.164 152.083 390.1 151.743C390.037 151.403 389.884 151.093 389.661 150.852C389.519 150.69 389.349 150.562 389.162 150.475C388.974 150.388 388.773 150.344 388.571 150.346H333.878C333.569 150.342 333.267 150.441 333.008 150.632C332.75 150.824 332.549 151.097 332.432 151.418C332.314 151.739 332.286 152.092 332.35 152.432C332.413 152.772 332.566 153.082 332.788 153.323C333.078 153.646 333.47 153.828 333.878 153.829Z" fill="#1A2E44"/>
<path d="M333.659 163.406C333.797 163.312 333.963 163.238 334.144 163.188C334.327 163.138 334.52 163.112 334.718 163.113H387.748C387.945 163.112 388.14 163.138 388.322 163.188C388.503 163.238 388.668 163.312 388.806 163.406C388.945 163.499 389.056 163.61 389.132 163.731C389.207 163.853 389.246 163.983 389.246 164.115C389.246 164.247 389.207 164.377 389.132 164.499C389.056 164.621 388.945 164.731 388.806 164.824C388.668 164.918 388.503 164.992 388.322 165.043C388.14 165.093 387.945 165.118 387.748 165.117H334.718C334.418 165.12 334.123 165.062 333.874 164.952C333.624 164.841 333.428 164.682 333.315 164.497C333.201 164.311 333.173 164.106 333.234 163.91C333.296 163.713 333.443 163.533 333.659 163.394V163.406Z" fill="#EFF0F1"/>
<path d="M333.878 161.112H388.571C389.281 161.112 389.962 161.429 390.464 161.993C390.966 162.556 391.248 163.321 391.248 164.118C391.248 164.916 390.966 165.68 390.464 166.244C389.962 166.808 389.281 167.124 388.571 167.124H333.878C333.168 167.124 332.488 166.808 331.984 166.244C331.483 165.68 331.202 164.916 331.202 164.118C331.202 163.321 331.483 162.556 331.984 161.993C332.488 161.429 333.168 161.112 333.878 161.112ZM333.878 165.849H388.571C388.773 165.851 388.974 165.807 389.162 165.72C389.349 165.633 389.519 165.505 389.661 165.343C389.805 165.182 389.919 164.992 389.997 164.781C390.075 164.571 390.115 164.346 390.115 164.118C390.115 163.891 390.075 163.665 389.997 163.455C389.919 163.245 389.805 163.054 389.661 162.894C389.519 162.732 389.349 162.604 389.162 162.517C388.974 162.43 388.773 162.386 388.571 162.388H333.878C333.677 162.388 333.475 162.433 333.289 162.52C333.101 162.607 332.931 162.734 332.79 162.895C332.646 163.055 332.532 163.246 332.454 163.456C332.378 163.666 332.337 163.891 332.337 164.118C332.337 164.346 332.378 164.571 332.454 164.78C332.532 164.99 332.646 165.181 332.79 165.342C332.931 165.503 333.101 165.63 333.289 165.717C333.475 165.804 333.677 165.849 333.878 165.849Z" fill="#1A2E44"/>
<path d="M333.641 175.726C333.779 175.538 333.945 175.39 334.125 175.289C334.308 175.188 334.502 175.137 334.699 175.14H387.748C387.945 175.137 388.14 175.188 388.321 175.289C388.503 175.39 388.668 175.538 388.806 175.726C388.945 175.911 389.056 176.132 389.132 176.376C389.207 176.619 389.246 176.88 389.246 177.144C389.246 177.407 389.207 177.668 389.132 177.912C389.056 178.155 388.945 178.376 388.806 178.562C388.668 178.749 388.503 178.898 388.321 178.998C388.14 179.099 387.945 179.15 387.748 179.148H334.699C334.403 179.148 334.114 179.031 333.868 178.811C333.622 178.59 333.43 178.277 333.316 177.911C333.203 177.544 333.173 177.141 333.231 176.752C333.289 176.363 333.432 176.006 333.641 175.726Z" fill="#EFF0F1"/>
<path d="M333.878 173.135H388.571C389.281 173.135 389.962 173.452 390.464 174.015C390.966 174.579 391.248 175.344 391.248 176.141C391.248 176.938 390.966 177.703 390.464 178.266C389.962 178.83 389.281 179.147 388.571 179.147H333.878C333.168 179.147 332.488 178.83 331.986 178.266C331.483 177.703 331.202 176.938 331.202 176.141C331.202 175.344 331.483 174.579 331.986 174.015C332.488 173.452 333.168 173.135 333.878 173.135ZM333.878 177.871H388.571C388.773 177.873 388.974 177.829 389.162 177.742C389.349 177.656 389.519 177.527 389.661 177.365C389.805 177.205 389.919 177.014 389.997 176.804C390.075 176.594 390.115 176.368 390.115 176.141C390.115 175.913 390.075 175.688 389.997 175.478C389.919 175.267 389.805 175.077 389.661 174.916C389.519 174.754 389.349 174.626 389.162 174.539C388.974 174.452 388.773 174.408 388.571 174.41H333.878C333.47 174.41 333.078 174.593 332.79 174.917C332.499 175.242 332.337 175.682 332.337 176.141C332.337 176.6 332.499 177.04 332.79 177.364C333.078 177.689 333.47 177.871 333.878 177.871Z" fill="#1A2E44"/>
</svg>
