<svg width="97" height="97" viewBox="0 0 97 97" fill="none" xmlns="http://www.w3.org/2000/svg">
<g clip-path="url(#clip0_102_3438)">
<path d="M85.7094 76.0107C92.1188 69.6013 88.617 55.7079 77.888 44.9789C67.159 34.2499 53.2656 30.7481 46.8562 37.1575C40.4468 43.5669 43.9486 57.4603 54.6776 68.1893C65.4066 78.9183 79.3 82.4201 85.7094 76.0107Z" stroke="white" stroke-width="2.77143" stroke-miterlimit="10"/>
<path d="M46.856 37.1562L38.7727 45.2396C32.3642 51.6497 35.8659 65.5433 46.5941 76.2731C57.3223 87.0029 71.2176 90.5046 77.6276 84.0945L85.711 76.0112" stroke="white" stroke-width="2.77143" stroke-miterlimit="10"/>
<path d="M8.08301 64.668V74.368C8.08301 80.618 18.2163 85.6846 30.7163 85.6846C36.1079 85.6846 41.0582 84.7421 44.9462 83.1691" stroke="white" stroke-width="2.77143" stroke-miterlimit="10"/>
<path d="M50.7979 41.0996L55.4797 45.7815" stroke="white" stroke-width="2.77143" stroke-miterlimit="10"/>
<path d="M77.0859 67.3867L81.7937 72.0945" stroke="white" stroke-width="2.77143" stroke-miterlimit="10"/>
<path d="M38.541 75.2888C36.1015 75.7382 33.4663 75.9839 30.7163 75.9839C18.2163 75.9839 8.08301 70.9173 8.08301 64.6673C8.08301 58.4172 18.2163 53.3506 30.7163 53.3506" stroke="white" stroke-width="2.77143" stroke-miterlimit="10"/>
<path d="M66.5254 67.1001C67.8576 68.5842 69.7895 69.5171 71.9413 69.5171C75.9587 69.5171 79.2163 66.2595 79.2163 62.2421C79.2163 58.2246 75.9587 54.9671 71.9413 54.9671C71.0489 54.9671 70.1937 55.1271 69.4031 55.4213L63.1628 57.7445C62.3722 58.0403 61.517 58.2004 60.6246 58.2004C56.6072 58.2004 53.3496 54.9428 53.3496 50.9254C53.3496 46.908 56.6072 43.6504 60.6246 43.6504C62.7764 43.6504 64.7083 44.5832 66.0404 46.0673" stroke="white" stroke-width="2.77143" stroke-miterlimit="10"/>
<path d="M26.8379 14.2026L25.2002 10.0332" stroke="white" stroke-width="2.77143" stroke-miterlimit="10"/>
<path d="M31.2954 25.5409L28.4307 18.2529" stroke="white" stroke-width="2.77143" stroke-miterlimit="10"/>
<path d="M17.1274 34.9106L5.50684 23.29" stroke="white" stroke-width="2.77143" stroke-miterlimit="10"/>
<path d="M48.501 22.6344V6.46777" stroke="white" stroke-width="2.77143" stroke-miterlimit="10"/>
<path d="M70.1621 14.2026L71.7998 10.0332" stroke="white" stroke-width="2.77143" stroke-miterlimit="10"/>
<path d="M65.7051 25.5409L68.5698 18.2529" stroke="white" stroke-width="2.77143" stroke-miterlimit="10"/>
<path d="M79.874 34.9106L91.4946 23.29" stroke="white" stroke-width="2.77143" stroke-miterlimit="10"/>
</g>
<defs>
<clipPath id="clip0_102_3438">
<rect width="97" height="97" fill="white"/>
</clipPath>
</defs>
</svg>
