<svg width="98" height="97" viewBox="0 0 98 97" fill="none" xmlns="http://www.w3.org/2000/svg">
<path d="M71.6172 8.08398V66.284" stroke="white" stroke-width="2.77143" stroke-miterlimit="10"/>
<path d="M31.2002 9.70117H39.2851" stroke="white" stroke-width="2.77143" stroke-miterlimit="10"/>
<path d="M71.6165 80.8345V90.5345H11.7998V9.70117H26.3514" stroke="white" stroke-width="2.77143" stroke-miterlimit="10"/>
<path d="M53.8329 66.2842H86.1663V67.9008C86.1663 72.3645 82.5466 75.9842 78.0829 75.9842H26.3496" stroke="white" stroke-width="2.77143" stroke-miterlimit="10"/>
<path d="M18.2666 27.4844V67.901C18.2666 72.3647 21.8863 75.9844 26.3499 75.9844C30.8136 75.9844 34.4333 72.3647 34.4333 67.901V66.2844H55.4564" stroke="white" stroke-width="2.77143" stroke-miterlimit="10"/>
<path d="M18.2666 9.70117V24.2512" stroke="white" stroke-width="2.77143" stroke-miterlimit="10"/>
<path d="M26.3496 4.85156V14.5516" stroke="white" stroke-width="2.77143" stroke-miterlimit="10"/>
<path d="M39.2822 4.85156V14.5516" stroke="white" stroke-width="2.77143" stroke-miterlimit="10"/>
<path d="M44.1328 9.70117H52.2226" stroke="white" stroke-width="2.77143" stroke-miterlimit="10"/>
<path d="M52.2207 4.85156V14.5516" stroke="white" stroke-width="2.77143" stroke-miterlimit="10"/>
<path d="M57.0674 9.70117H65.1507" stroke="white" stroke-width="2.77143" stroke-miterlimit="10"/>
<path d="M65.1494 4.85156V14.5516" stroke="white" stroke-width="2.77143" stroke-miterlimit="10"/>
<path d="M53.3949 28.4041C50.9699 26.802 48.0647 25.8691 44.9413 25.8691C36.4587 25.8691 29.583 32.7448 29.583 41.2275C29.583 49.7101 36.4587 56.5858 44.9413 56.5858C53.424 56.5858 60.2997 49.7101 60.2997 41.2275C60.2997 39.9341 60.1396 38.678 59.8389 37.4784" stroke="white" stroke-width="2.77143" stroke-miterlimit="10"/>
<path d="M79.4687 29.332V28.8701H79.9306V29.332H79.4687Z" fill="#252525" stroke="white" stroke-width="2.77143"/>
<path d="M79.4687 35.7988V35.3369H79.9306V35.7988H79.4687Z" fill="#252525" stroke="white" stroke-width="2.77143"/>
<path d="M79.4687 42.2646V41.8027H79.9306V42.2646H79.4687Z" fill="#252525" stroke="white" stroke-width="2.77143"/>
<path d="M38.2979 41.0505L43.3241 46.0768L59.6928 29.708" stroke="white" stroke-width="2.77143" stroke-miterlimit="10"/>
</svg>
