<svg width="148" height="149" viewBox="0 0 148 149" fill="none" xmlns="http://www.w3.org/2000/svg">
<path d="M133.267 49.32L72.8607 9.04941C72.1193 8.55515 71.1543 8.55515 70.4129 9.04941L10.0071 49.32C9.39364 49.7289 9.02441 50.4188 9.02441 51.1558C9.02441 51.8928 9.39217 52.5827 10.0071 52.9916L19.1818 59.1081V91.3425C19.1818 92.0942 19.5643 92.7944 20.1968 93.2004L70.7983 125.641C71.1617 125.873 71.575 125.989 71.9899 125.989C72.4238 125.989 72.8592 125.861 73.2329 125.605L99.6332 107.594V120.154L89.798 139.824C89.4567 140.508 89.4935 141.322 89.8936 141.972C90.2952 142.621 91.0072 143.018 91.7706 143.018H111.907C112.672 143.018 113.383 142.621 113.784 141.972C114.185 141.322 114.223 140.508 113.88 139.824L104.045 120.154V104.583L120.781 93.1651C121.382 92.7547 121.743 92.0722 121.743 91.3425V60.6733L133.265 52.9916C133.879 52.5827 134.248 51.8928 134.248 51.1558C134.248 50.4188 133.88 49.7289 133.267 49.32ZM95.3423 138.605L101.84 125.61L108.337 138.605H95.3423ZM71.9516 121.138L23.5948 90.1363V62.0502L70.4129 93.2637C70.7836 93.5108 71.2102 93.6344 71.6368 93.6344C72.0634 93.6344 72.49 93.5108 72.8607 93.2637L99.6332 75.4144V102.252L71.9516 121.138ZM117.331 90.1775L104.046 99.2419V72.4723L117.331 63.6153V90.1775ZM118.771 57.3517C118.446 57.4724 118.159 57.6651 117.927 57.9151L101.84 68.6403L72.8607 49.32C71.8442 48.6433 70.4762 48.9184 69.801 49.9319C69.1258 50.9455 69.3994 52.3164 70.4129 52.9916L97.8621 71.2911L71.6368 88.7756L15.2086 51.1558L71.6368 13.5375L128.065 51.1558L118.771 57.3517Z" fill="#154672"/>
</svg>
