<svg width="420" height="505" viewBox="0 0 420 505" fill="none" xmlns="http://www.w3.org/2000/svg">
<g filter="url(#filter0_d_764_9410)">
<path d="M296.201 326.352L340.814 449.409C341.642 451.691 342.934 453.777 344.609 455.534C346.284 457.292 348.305 458.683 350.545 459.619C352.785 460.556 355.195 461.017 357.622 460.975C360.05 460.933 362.442 460.388 364.648 459.374C419.875 434.042 468.049 395.556 504.951 347.286C506.423 345.359 507.48 343.148 508.054 340.792C508.629 338.436 508.71 335.987 508.291 333.598C507.872 331.21 506.963 328.934 505.621 326.914C504.279 324.894 502.533 323.175 500.493 321.863L390.364 251.133C386.756 248.828 382.433 247.917 378.202 248.57C373.971 249.223 370.123 251.396 367.379 254.681C349.983 275.317 328.696 292.326 304.732 304.74C300.928 306.692 297.964 309.961 296.394 313.939C294.824 317.916 294.755 322.328 296.201 326.352Z" fill="white"/>
<path d="M504.951 347.286C468.049 395.556 419.875 434.042 364.648 459.374C362.442 460.388 360.05 460.933 357.622 460.975C355.195 461.017 352.785 460.556 350.545 459.619C348.305 458.683 346.284 457.292 344.609 455.534C342.934 453.777 341.642 451.691 340.814 449.409L304.732 304.74C328.696 292.326 349.983 275.317 367.379 254.681C370.123 251.396 373.971 249.223 378.202 248.57C382.433 247.917 386.756 248.828 390.364 251.133M504.951 347.286C506.423 345.359 507.48 343.148 508.054 340.792C508.629 338.436 508.71 335.987 508.291 333.598C507.872 331.21 506.963 328.934 505.621 326.914C504.279 324.894 502.533 323.175 500.493 321.863M504.951 347.286L504.644 347.051C504.644 347.051 504.644 347.051 504.644 347.051M504.951 347.286L504.644 347.051M500.493 321.863L390.364 251.133M500.493 321.863L500.284 322.189M500.493 321.863L500.284 322.189L500.284 322.189M390.364 251.133L390.155 251.459L390.156 251.459M390.364 251.133L390.156 251.459M390.156 251.459C386.627 249.205 382.399 248.314 378.261 248.952C374.123 249.591 370.359 251.716 367.675 254.929L367.674 254.931C350.246 275.605 328.919 292.646 304.91 305.083L304.908 305.084C301.188 306.993 298.289 310.191 296.753 314.081C295.218 317.97 295.151 322.286 296.565 326.221L296.565 326.221L296.201 326.352L296.565 326.222L341.178 449.277C341.987 451.509 343.251 453.549 344.889 455.267C346.527 456.986 348.504 458.346 350.694 459.262C352.885 460.178 355.242 460.63 357.616 460.589C359.99 460.547 362.329 460.014 364.487 459.023L364.487 459.023C419.656 433.717 467.78 395.271 504.644 347.051M390.156 251.459L500.284 322.189M500.284 322.189C502.279 323.471 503.986 325.153 505.299 327.128C506.611 329.103 507.5 331.329 507.91 333.665C508.32 336.001 508.241 338.396 507.679 340.7C507.117 343.004 506.083 345.167 504.644 347.051" stroke="#BDC4C6" stroke-width="0.773292"/>
</g>
<g filter="url(#filter1_d_764_9410)">
<path d="M206.742 333.89C191.695 333.898 176.693 332.253 162.006 328.985C157.862 328.08 153.53 328.715 149.82 330.77C146.11 332.826 143.274 336.161 141.843 340.154L97.2302 463.21C96.399 465.48 96.0473 467.897 96.1973 470.31C96.3473 472.723 96.9957 475.078 98.1017 477.228C99.2076 479.378 100.747 481.275 102.623 482.799C104.499 484.324 106.67 485.444 109.001 486.087C140.855 494.77 173.726 499.159 206.742 499.138C239.738 499.156 272.588 494.767 304.422 486.087C306.752 485.443 308.924 484.324 310.8 482.799C312.677 481.275 314.217 479.378 315.324 477.229C316.431 475.08 317.081 472.725 317.233 470.312C317.385 467.899 317.036 465.481 316.208 463.21L271.656 340.154C270.219 336.158 267.378 332.822 263.662 330.768C259.947 328.713 255.611 328.079 251.463 328.985C236.781 332.253 221.784 333.898 206.742 333.89Z" fill="url(#paint0_linear_764_9410)"/>
<path d="M206.742 334.277C221.812 334.285 236.837 332.637 251.546 329.362C255.603 328.477 259.842 329.096 263.475 331.106C267.109 333.115 269.887 336.378 271.292 340.284L271.293 340.285L315.844 463.341L315.844 463.342C316.655 465.563 316.996 467.928 316.848 470.288C316.699 472.647 316.063 474.95 314.98 477.052C313.898 479.154 312.391 481.008 310.556 482.499C308.722 483.99 306.599 485.084 304.32 485.714C272.52 494.385 239.704 498.769 206.742 498.751H206.742C173.76 498.773 140.924 494.388 109.103 485.714C106.825 485.085 104.701 483.99 102.867 482.499C101.032 481.008 99.527 479.153 98.4455 477.051C97.364 474.949 96.7299 472.646 96.5832 470.286C96.4365 467.927 96.7804 465.563 97.5933 463.343L97.5937 463.342L142.207 340.285L142.207 340.284C143.607 336.38 146.379 333.118 150.007 331.109C153.635 329.099 157.871 328.478 161.923 329.363C176.637 332.636 191.667 334.284 206.742 334.277ZM206.742 334.277C206.742 334.277 206.742 334.277 206.742 334.277L206.742 333.89L206.742 334.277C206.742 334.277 206.742 334.277 206.742 334.277Z" stroke="url(#paint1_linear_764_9410)" stroke-width="0.773292"/>
</g>
<g filter="url(#filter2_d_764_9410)">
<path d="M23.0291 255.76L-87.0536 326.49C-89.0952 327.8 -90.843 329.519 -92.1865 331.539C-93.53 333.558 -94.4399 335.835 -94.8589 338.224C-95.2779 340.613 -95.1968 343.063 -94.6206 345.419C-94.0445 347.776 -92.9859 349.987 -91.5118 351.913C-54.6226 400.177 -6.46519 438.662 48.7449 464.001C50.9509 465.015 53.3432 465.56 55.7706 465.602C58.198 465.644 60.6078 465.183 62.8476 464.246C65.0875 463.31 67.1087 461.919 68.7837 460.161C70.4586 458.404 71.7508 456.318 72.5787 454.036L117.192 330.979C118.629 326.955 118.554 322.546 116.982 318.573C115.41 314.6 112.447 311.334 108.646 309.382C84.6844 296.963 63.4027 279.949 46.0144 259.308C43.2699 256.023 39.4221 253.85 35.1913 253.197C30.9604 252.544 26.6366 253.455 23.0291 255.76Z" fill="white"/>
<path d="M-86.8448 326.816L-86.8445 326.816L23.2373 256.086C26.7655 253.832 30.9944 252.941 35.1323 253.579C39.2702 254.218 43.0335 256.343 45.7177 259.556L45.7187 259.558C63.1397 280.237 84.4614 297.283 108.468 309.726L108.469 309.726C112.187 311.635 115.085 314.829 116.622 318.715C118.16 322.601 118.233 326.914 116.828 330.849L72.2152 453.904C71.4056 456.136 70.1418 458.176 68.5038 459.894C66.8658 461.613 64.889 462.973 62.6985 463.889C60.5079 464.805 58.1512 465.257 55.7773 465.216C53.4034 465.174 51.0638 464.641 48.9064 463.65L48.9062 463.65C-6.24648 438.337 -54.3538 399.892 -91.2046 351.678L-91.2047 351.678C-92.6464 349.794 -93.6816 347.632 -94.2451 345.327C-94.8085 343.023 -94.8878 340.627 -94.4781 338.291C-94.0683 335.954 -93.1784 333.728 -91.8646 331.753C-90.5507 329.778 -88.8414 328.097 -86.8448 326.816Z" stroke="#BDC4C6" stroke-width="0.773292"/>
</g>
<g filter="url(#filter3_d_764_9410)">
<path d="M-14.5574 138.837H-145.389C-147.817 138.829 -150.221 139.325 -152.447 140.294C-154.674 141.263 -156.676 142.683 -158.326 144.465C-159.976 146.247 -161.238 148.351 -162.033 150.646C-162.828 152.941 -163.138 155.375 -162.944 157.796C-158.907 208.339 -144.47 257.502 -120.537 302.202C-119.39 304.333 -117.815 306.203 -115.911 307.696C-114.007 309.188 -111.814 310.27 -109.471 310.875C-107.129 311.479 -104.686 311.592 -102.298 311.206C-99.9091 310.821 -97.6261 309.946 -95.5922 308.635L14.4596 237.905C18.0592 235.573 20.6846 232.009 21.8433 227.879C23.0021 223.75 22.6146 219.339 20.7536 215.475C11.612 196.137 5.57312 175.48 2.85898 154.263C2.3329 150.012 0.273148 146.099 -2.93361 143.258C-6.14038 140.418 -10.2736 138.846 -14.5574 138.837Z" fill="white"/>
<path d="M-145.39 139.224H-145.389H-14.5578C-10.3683 139.232 -6.32614 140.77 -3.18997 143.548C-0.0537262 146.326 1.96075 150.153 2.47525 154.311L2.47546 154.312C5.19475 175.57 11.2451 196.266 20.404 215.641L20.4052 215.643C22.2254 219.422 22.6044 223.736 21.4711 227.775C20.3378 231.813 17.77 235.3 14.2494 237.581L-95.8012 308.31L-95.8016 308.31C-97.7906 309.592 -100.023 310.448 -102.359 310.825C-104.695 311.201 -107.084 311.091 -109.375 310.5C-111.666 309.909 -113.81 308.851 -115.672 307.391C-117.534 305.932 -119.075 304.103 -120.196 302.02C-144.104 257.367 -158.526 208.255 -162.558 157.765L-162.558 157.765C-162.748 155.398 -162.445 153.017 -161.668 150.773C-160.89 148.529 -159.656 146.47 -158.042 144.727C-156.429 142.985 -154.471 141.596 -152.293 140.649C-150.115 139.701 -147.765 139.216 -145.39 139.224Z" stroke="#BDC4C6" stroke-width="0.773292"/>
</g>
<g filter="url(#filter4_d_764_9410)">
<path d="M418.203 154.263C415.481 175.484 409.426 196.143 400.262 215.475C398.402 219.341 398.017 223.753 399.179 227.882C400.34 232.012 402.969 235.576 406.571 237.905L516.654 308.635C518.688 309.945 520.971 310.821 523.359 311.206C525.748 311.592 528.19 311.479 530.533 310.874C532.876 310.27 535.068 309.188 536.973 307.695C538.877 306.203 540.452 304.333 541.598 302.202C565.51 257.498 579.926 208.334 583.944 157.796C584.137 155.38 583.829 152.951 583.038 150.661C582.247 148.37 580.99 146.268 579.347 144.487C577.703 142.706 575.709 141.285 573.49 140.313C571.27 139.34 568.873 138.838 566.45 138.837H435.557C431.285 138.864 427.169 140.444 423.975 143.283C420.782 146.121 418.731 150.024 418.203 154.263Z" fill="white"/>
<path d="M418.586 154.312L418.586 154.311C419.103 150.165 421.109 146.348 424.232 143.572C427.355 140.796 431.381 139.25 435.559 139.224L566.45 139.224C568.82 139.224 571.164 139.716 573.335 140.667C575.505 141.618 577.455 143.008 579.063 144.75C580.67 146.491 581.899 148.547 582.672 150.787C583.446 153.027 583.748 155.403 583.558 157.765L583.558 157.765C579.545 208.251 565.144 257.362 541.257 302.02C540.136 304.103 538.596 305.932 536.734 307.391C534.872 308.851 532.728 309.909 530.436 310.5C528.145 311.091 525.757 311.201 523.421 310.824C521.085 310.448 518.852 309.591 516.863 308.31L516.863 308.31L406.781 237.58C403.258 235.302 400.687 231.816 399.551 227.778C398.415 223.739 398.791 219.424 400.61 215.643L400.611 215.641C409.793 196.271 415.859 175.574 418.586 154.312Z" stroke="#BDC4C6" stroke-width="0.773292"/>
</g>
<path d="M76.1242 226.66C60.6344 202.019 52.4405 173.495 52.491 144.391" stroke="#FE9700" stroke-width="3.08528" stroke-miterlimit="10"/>
<path d="M144.801 286.035C116.505 273.526 92.5904 252.85 76.123 226.659" stroke="#25C5D9" stroke-width="4.62791" stroke-miterlimit="10"/>
<path d="M270.496 285.665C250.601 294.572 229.046 299.167 207.248 299.148C185.747 299.174 164.477 294.708 144.802 286.035" stroke="#42A4F5" stroke-width="9.25583" stroke-miterlimit="10"/>
<path d="M337.123 228.572C320.863 253.595 297.744 273.41 270.527 285.65" stroke="#EB407A" stroke-width="7.71319" stroke-miterlimit="10"/>
<path d="M361.991 144.391C362.04 174.269 353.4 203.517 337.124 228.572" stroke="#673BB6" stroke-width="1.54264" stroke-miterlimit="10"/>
<path d="M364.706 144.436C364.703 144.976 364.54 145.502 364.238 145.949C363.936 146.396 363.509 146.744 363.01 146.948C362.511 147.152 361.962 147.204 361.433 147.097C360.905 146.99 360.42 146.729 360.039 146.346C359.659 145.964 359.401 145.477 359.296 144.948C359.192 144.419 359.247 143.87 359.454 143.372C359.662 142.874 360.012 142.449 360.46 142.15C360.909 141.85 361.436 141.69 361.976 141.69C362.335 141.69 362.692 141.762 363.024 141.9C363.356 142.038 363.658 142.24 363.912 142.496C364.166 142.751 364.366 143.054 364.503 143.387C364.639 143.72 364.708 144.076 364.706 144.436Z" fill="white" stroke="#673BB6" stroke-width="1.54264" stroke-miterlimit="10"/>
<path d="M56.4556 144.437C56.4556 145.24 56.2172 146.025 55.7708 146.693C55.3243 147.36 54.6897 147.88 53.9475 148.187C53.2052 148.493 52.3887 148.573 51.6012 148.415C50.8138 148.257 50.0909 147.869 49.5242 147.3C48.9574 146.731 48.5722 146.007 48.4174 145.219C48.2626 144.431 48.3451 143.615 48.6546 142.874C48.964 142.133 49.4864 141.5 50.1557 141.056C50.8249 140.612 51.6108 140.377 52.4139 140.38C52.9459 140.38 53.4728 140.485 53.9641 140.689C54.4555 140.893 54.9018 141.192 55.2773 141.569C55.6528 141.946 55.9502 142.393 56.1524 142.886C56.3546 143.378 56.4576 143.905 56.4556 144.437Z" fill="#FE9700"/>
<path d="M342.677 228.588C342.677 229.68 342.353 230.748 341.746 231.656C341.139 232.564 340.277 233.272 339.267 233.69C338.258 234.108 337.148 234.218 336.077 234.005C335.005 233.792 334.021 233.266 333.249 232.493C332.477 231.721 331.951 230.737 331.737 229.665C331.524 228.594 331.634 227.484 332.052 226.475C332.47 225.466 333.178 224.603 334.086 223.996C334.994 223.389 336.062 223.065 337.154 223.065C338.619 223.065 340.023 223.647 341.059 224.683C342.095 225.719 342.677 227.123 342.677 228.588Z" fill="white" stroke="#EB407A" stroke-width="1.54264" stroke-miterlimit="10"/>
<path d="M82.1562 229.375C82.1562 230.29 81.8848 231.185 81.3763 231.946C80.8678 232.707 80.145 233.3 79.2993 233.651C78.4537 234.001 77.5232 234.093 76.6254 233.914C75.7277 233.735 74.9031 233.295 74.2559 232.647C73.6087 232 73.1679 231.176 72.9893 230.278C72.8107 229.38 72.9024 228.45 73.2527 227.604C73.6029 226.758 74.1961 226.036 74.9572 225.527C75.7182 225.018 76.613 224.747 77.5283 224.747C78.7557 224.747 79.9328 225.235 80.8007 226.103C81.6686 226.97 82.1562 228.148 82.1562 229.375Z" fill="white" stroke="#FE9700" stroke-width="2.31396" stroke-miterlimit="10"/>
<path d="M277.716 285.665C277.716 287.042 277.307 288.388 276.542 289.532C275.777 290.677 274.69 291.568 273.417 292.095C272.145 292.621 270.746 292.757 269.396 292.488C268.046 292.218 266.806 291.554 265.834 290.579C264.861 289.605 264.2 288.364 263.933 287.013C263.666 285.663 263.806 284.263 264.335 282.992C264.864 281.721 265.758 280.636 266.905 279.873C268.051 279.11 269.397 278.705 270.774 278.708C271.687 278.708 272.591 278.888 273.434 279.238C274.277 279.588 275.043 280.1 275.688 280.747C276.333 281.393 276.844 282.16 277.192 283.004C277.54 283.848 277.718 284.752 277.716 285.665Z" fill="white" stroke="#42A4F5" stroke-width="1.94372" stroke-miterlimit="10"/>
<path d="M150.542 285.666C150.542 286.782 150.21 287.874 149.59 288.802C148.97 289.731 148.088 290.455 147.056 290.882C146.025 291.309 144.889 291.421 143.794 291.203C142.699 290.985 141.693 290.448 140.903 289.658C140.114 288.868 139.576 287.862 139.358 286.767C139.14 285.672 139.252 284.537 139.679 283.505C140.107 282.473 140.83 281.591 141.759 280.971C142.687 280.351 143.779 280.02 144.896 280.02C146.393 280.02 147.829 280.614 148.888 281.673C149.947 282.732 150.542 284.168 150.542 285.666Z" fill="white" stroke="#25C5D9" stroke-width="2.49907" stroke-miterlimit="10"/>
<g filter="url(#filter5_d_764_9410)">
<path d="M280.821 224.98C322.239 183.562 322.239 116.411 280.821 74.9932C239.404 33.5756 172.253 33.5756 130.835 74.9932C89.4174 116.411 89.4174 183.562 130.835 224.98C172.253 266.397 239.404 266.397 280.821 224.98Z" fill="white"/>
</g>
<defs>
<filter id="filter0_d_764_9410" x="292.571" y="248.364" width="218.577" height="217.8" filterUnits="userSpaceOnUse" color-interpolation-filters="sRGB">
<feFlood flood-opacity="0" result="BackgroundImageFix"/>
<feColorMatrix in="SourceAlpha" type="matrix" values="0 0 0 0 0 0 0 0 0 0 0 0 0 0 0 0 0 0 127 0" result="hardAlpha"/>
<feOffset dy="2.59324"/>
<feGaussianBlur stdDeviation="1.29662"/>
<feComposite in2="hardAlpha" operator="out"/>
<feColorMatrix type="matrix" values="0 0 0 0 0 0 0 0 0 0 0 0 0 0 0 0 0 0 0.25 0"/>
<feBlend mode="normal" in2="BackgroundImageFix" result="effect1_dropShadow_764_9410"/>
<feBlend mode="normal" in="SourceGraphic" in2="effect1_dropShadow_764_9410" result="shape"/>
</filter>
<filter id="filter1_d_764_9410" x="93.5703" y="328.582" width="226.291" height="175.742" filterUnits="userSpaceOnUse" color-interpolation-filters="sRGB">
<feFlood flood-opacity="0" result="BackgroundImageFix"/>
<feColorMatrix in="SourceAlpha" type="matrix" values="0 0 0 0 0 0 0 0 0 0 0 0 0 0 0 0 0 0 127 0" result="hardAlpha"/>
<feOffset dy="2.59324"/>
<feGaussianBlur stdDeviation="1.29662"/>
<feComposite in2="hardAlpha" operator="out"/>
<feColorMatrix type="matrix" values="0 0 0 0 0 0 0 0 0 0 0 0 0 0 0 0 0 0 0.25 0"/>
<feBlend mode="normal" in2="BackgroundImageFix" result="effect1_dropShadow_764_9410"/>
<feBlend mode="normal" in="SourceGraphic" in2="effect1_dropShadow_764_9410" result="shape"/>
</filter>
<filter id="filter2_d_764_9410" x="-97.7158" y="252.991" width="218.527" height="217.8" filterUnits="userSpaceOnUse" color-interpolation-filters="sRGB">
<feFlood flood-opacity="0" result="BackgroundImageFix"/>
<feColorMatrix in="SourceAlpha" type="matrix" values="0 0 0 0 0 0 0 0 0 0 0 0 0 0 0 0 0 0 127 0" result="hardAlpha"/>
<feOffset dy="2.59324"/>
<feGaussianBlur stdDeviation="1.29662"/>
<feComposite in2="hardAlpha" operator="out"/>
<feColorMatrix type="matrix" values="0 0 0 0 0 0 0 0 0 0 0 0 0 0 0 0 0 0 0.25 0"/>
<feBlend mode="normal" in2="BackgroundImageFix" result="effect1_dropShadow_764_9410"/>
<feBlend mode="normal" in="SourceGraphic" in2="effect1_dropShadow_764_9410" result="shape"/>
</filter>
<filter id="filter3_d_764_9410" x="-165.593" y="138.837" width="190.685" height="177.78" filterUnits="userSpaceOnUse" color-interpolation-filters="sRGB">
<feFlood flood-opacity="0" result="BackgroundImageFix"/>
<feColorMatrix in="SourceAlpha" type="matrix" values="0 0 0 0 0 0 0 0 0 0 0 0 0 0 0 0 0 0 127 0" result="hardAlpha"/>
<feOffset dy="2.59324"/>
<feGaussianBlur stdDeviation="1.29662"/>
<feComposite in2="hardAlpha" operator="out"/>
<feColorMatrix type="matrix" values="0 0 0 0 0 0 0 0 0 0 0 0 0 0 0 0 0 0 0.25 0"/>
<feBlend mode="normal" in2="BackgroundImageFix" result="effect1_dropShadow_764_9410"/>
<feBlend mode="normal" in="SourceGraphic" in2="effect1_dropShadow_764_9410" result="shape"/>
</filter>
<filter id="filter4_d_764_9410" x="395.927" y="138.837" width="190.666" height="177.779" filterUnits="userSpaceOnUse" color-interpolation-filters="sRGB">
<feFlood flood-opacity="0" result="BackgroundImageFix"/>
<feColorMatrix in="SourceAlpha" type="matrix" values="0 0 0 0 0 0 0 0 0 0 0 0 0 0 0 0 0 0 127 0" result="hardAlpha"/>
<feOffset dy="2.59324"/>
<feGaussianBlur stdDeviation="1.29662"/>
<feComposite in2="hardAlpha" operator="out"/>
<feColorMatrix type="matrix" values="0 0 0 0 0 0 0 0 0 0 0 0 0 0 0 0 0 0 0.25 0"/>
<feBlend mode="normal" in2="BackgroundImageFix" result="effect1_dropShadow_764_9410"/>
<feBlend mode="normal" in="SourceGraphic" in2="effect1_dropShadow_764_9410" result="shape"/>
</filter>
<filter id="filter5_d_764_9410" x="97.1787" y="43.9297" width="217.299" height="217.3" filterUnits="userSpaceOnUse" color-interpolation-filters="sRGB">
<feFlood flood-opacity="0" result="BackgroundImageFix"/>
<feColorMatrix in="SourceAlpha" type="matrix" values="0 0 0 0 0 0 0 0 0 0 0 0 0 0 0 0 0 0 127 0" result="hardAlpha"/>
<feOffset dy="2.59324"/>
<feGaussianBlur stdDeviation="1.29662"/>
<feComposite in2="hardAlpha" operator="out"/>
<feColorMatrix type="matrix" values="0 0 0 0 0 0 0 0 0 0 0 0 0 0 0 0 0 0 0.25 0"/>
<feBlend mode="normal" in2="BackgroundImageFix" result="effect1_dropShadow_764_9410"/>
<feBlend mode="normal" in="SourceGraphic" in2="effect1_dropShadow_764_9410" result="shape"/>
</filter>
<linearGradient id="paint0_linear_764_9410" x1="206.716" y1="328.582" x2="206.716" y2="499.138" gradientUnits="userSpaceOnUse">
<stop stop-color="#FD8C04"/>
<stop offset="1" stop-color="#FD8C04"/>
</linearGradient>
<linearGradient id="paint1_linear_764_9410" x1="206.716" y1="328.582" x2="206.716" y2="499.138" gradientUnits="userSpaceOnUse">
<stop stop-color="#FD8C04"/>
<stop offset="1" stop-color="#FD8C04"/>
</linearGradient>
</defs>
</svg>
