<svg width="1161" height="778" viewBox="0 0 1161 778" fill="none" xmlns="http://www.w3.org/2000/svg">
<g filter="url(#filter0_d_233_3943)">
<path d="M712.305 503.39L781.119 693.201C782.396 696.721 784.39 699.938 786.973 702.649C789.557 705.36 792.674 707.506 796.129 708.95C799.584 710.395 803.301 711.107 807.045 711.042C810.79 710.977 814.48 710.136 817.882 708.572C903.068 669.498 977.375 610.134 1034.3 535.68C1036.57 532.707 1038.2 529.296 1039.08 525.663C1039.97 522.029 1040.09 518.251 1039.45 514.566C1038.8 510.882 1037.4 507.372 1035.33 504.257C1033.26 501.141 1030.57 498.489 1027.42 496.466L857.548 387.367C851.984 383.812 845.314 382.406 838.788 383.414C832.263 384.421 826.327 387.772 822.094 392.84C795.262 424.669 762.428 450.905 725.464 470.054C719.595 473.064 715.024 478.108 712.602 484.242C710.181 490.377 710.075 497.183 712.305 503.39Z" fill="white"/>
<path d="M817.674 708.118L817.674 708.118C814.334 709.653 810.712 710.478 807.037 710.542C803.362 710.606 799.713 709.907 796.322 708.489C792.931 707.071 789.871 704.965 787.335 702.304C784.799 699.644 782.843 696.486 781.59 693.03L712.776 503.221C712.776 503.221 712.775 503.221 712.775 503.221C710.587 497.128 710.69 490.447 713.067 484.426C715.444 478.404 719.932 473.454 725.692 470.499L725.694 470.498C762.716 451.319 795.602 425.041 822.476 393.162L822.478 393.16C826.633 388.186 832.459 384.897 838.865 383.908C845.27 382.919 851.816 384.298 857.278 387.788C857.278 387.788 857.279 387.788 857.279 387.788L1027.15 496.887C1030.24 498.872 1032.88 501.475 1034.91 504.533C1036.94 507.591 1038.32 511.037 1038.95 514.653C1039.59 518.269 1039.47 521.977 1038.6 525.544C1037.73 529.111 1036.13 532.458 1033.9 535.376C977.027 609.766 902.785 669.078 817.674 708.118Z" stroke="#BDC4C6"/>
</g>
<g filter="url(#filter1_d_233_3943)">
<path d="M574.316 515.016C551.107 515.028 527.967 512.49 505.311 507.45C498.92 506.054 492.238 507.033 486.516 510.204C480.793 513.374 476.419 518.518 474.212 524.677L405.397 714.488C404.115 717.989 403.573 721.718 403.804 725.44C404.035 729.161 405.035 732.795 406.741 736.11C408.447 739.426 410.822 742.352 413.715 744.704C416.609 747.056 419.958 748.783 423.553 749.775C472.687 763.169 523.389 769.939 574.316 769.906C625.211 769.933 675.882 763.163 724.984 749.775C728.579 748.782 731.929 747.055 734.823 744.704C737.717 742.352 740.093 739.427 741.801 736.112C743.508 732.797 744.511 729.164 744.746 725.442C744.98 721.721 744.442 717.991 743.164 714.488L674.444 524.677C672.227 518.515 667.845 513.369 662.114 510.199C656.383 507.03 649.695 506.052 643.297 507.45C620.65 512.491 597.518 515.028 574.316 515.016Z" fill="white"/>
<path d="M475.152 525.018L475.153 525.014C477.278 519.084 481.49 514.131 487 511.078C492.51 508.026 498.942 507.083 505.096 508.426C527.822 513.482 551.035 516.028 574.316 516.016C597.59 516.028 620.795 513.483 643.512 508.426C649.673 507.081 656.112 508.022 661.63 511.074C667.149 514.126 671.369 519.082 673.503 525.015L673.504 525.017L742.223 714.828L742.224 714.83C743.455 718.204 743.974 721.796 743.748 725.38C743.522 728.963 742.556 732.462 740.912 735.654C739.267 738.846 736.979 741.663 734.192 743.928C731.406 746.192 728.181 747.854 724.721 748.81C675.705 762.175 625.123 768.933 574.317 768.906H574.315C523.478 768.938 472.864 762.18 423.816 748.81C420.356 747.855 417.131 746.192 414.346 743.928C411.56 741.663 409.273 738.846 407.631 735.653L406.741 736.11L407.631 735.653C405.988 732.46 405.025 728.961 404.802 725.378C404.579 721.794 405.102 718.203 406.336 714.831L406.337 714.828L475.152 525.018Z" stroke="#367FD3" stroke-width="2"/>
</g>
<g filter="url(#filter2_d_233_3943)">
<path d="M290.944 394.505L121.145 503.604C117.996 505.624 115.3 508.275 113.228 511.391C111.155 514.506 109.752 518.017 109.105 521.702C108.459 525.387 108.584 529.167 109.473 532.801C110.362 536.436 111.994 539.846 114.268 542.817C171.169 617.263 245.45 676.626 330.61 715.71C334.013 717.274 337.703 718.115 341.447 718.18C345.191 718.245 348.908 717.533 352.363 716.088C355.818 714.643 358.936 712.498 361.519 709.787C364.103 707.076 366.096 703.859 367.373 700.339L436.187 510.528C438.404 504.321 438.289 497.52 435.864 491.392C433.438 485.263 428.869 480.225 423.005 477.215C386.046 458.059 353.219 431.814 326.398 399.977C322.165 394.91 316.23 391.559 309.704 390.551C303.178 389.544 296.509 390.949 290.944 394.505Z" fill="white"/>
<path d="M121.415 504.024L121.415 504.024L291.213 394.926C296.675 391.436 303.222 390.057 309.628 391.045C316.034 392.034 321.859 395.324 326.015 400.298L326.016 400.3C352.879 432.187 385.757 458.473 422.775 477.659L422.777 477.66C428.532 480.614 433.018 485.56 435.399 491.576C437.779 497.591 437.892 504.267 435.717 510.36L366.903 700.168C365.65 703.623 363.693 706.781 361.157 709.442C358.622 712.103 355.561 714.209 352.17 715.627C348.779 717.045 345.131 717.744 341.456 717.68C337.781 717.616 334.159 716.791 330.819 715.256L330.819 715.256C245.733 676.206 171.516 616.894 114.666 542.514L114.665 542.513C112.434 539.597 110.831 536.25 109.959 532.682C109.086 529.115 108.964 525.406 109.598 521.789C110.232 518.171 111.61 514.725 113.644 511.667C115.678 508.61 118.324 506.007 121.415 504.024Z" stroke="#BDC4C6"/>
</g>
<g filter="url(#filter3_d_233_3943)">
<path d="M232.968 214.152H31.1652C27.4194 214.14 23.7119 214.906 20.277 216.4C16.8421 217.894 13.7546 220.085 11.2096 222.833C8.66468 225.582 6.71763 228.828 5.49159 232.368C4.26554 235.907 3.78718 239.662 4.08673 243.396C10.3127 321.357 32.5823 397.191 69.4985 466.139C71.267 469.425 73.6963 472.31 76.6336 474.612C79.5709 476.914 82.9527 478.583 86.5664 479.515C90.1801 480.447 93.9474 480.622 97.6317 480.027C101.316 479.433 104.837 478.082 107.975 476.061L277.726 366.962C283.279 363.366 287.328 357.867 289.116 351.497C290.903 345.128 290.305 338.325 287.435 332.365C273.334 302.537 264.019 270.674 259.833 237.947C259.021 231.39 255.844 225.354 250.898 220.972C245.951 216.591 239.576 214.166 232.968 214.152Z" fill="white"/>
<path d="M31.1636 214.652H31.1652H232.968C239.454 214.666 245.711 217.046 250.566 221.347C255.421 225.647 258.54 231.572 259.337 238.009L259.337 238.011C263.53 270.789 272.859 302.703 286.983 332.578L286.984 332.582C289.802 338.432 290.389 345.11 288.634 351.362C286.88 357.615 282.905 363.012 277.454 366.543L107.704 475.641L107.704 475.641C104.625 477.625 101.168 478.95 97.5521 479.533C93.9359 480.117 90.2381 479.946 86.6912 479.031C83.1443 478.117 79.8251 476.478 76.942 474.218C74.059 471.959 71.6746 469.127 69.9388 465.902C33.0554 397.015 10.8056 321.248 4.58514 243.356L4.58513 243.356C4.29111 239.691 4.76064 236.005 5.96405 232.531C7.16745 229.057 9.07855 225.871 11.5765 223.173C14.0745 220.475 17.105 218.325 20.4764 216.858C23.8479 215.392 27.487 214.641 31.1636 214.652Z" stroke="#BDC4C6"/>
</g>
<g filter="url(#filter4_d_233_3943)">
<path d="M900.488 237.947C896.29 270.68 886.95 302.545 872.815 332.365C869.946 338.328 869.352 345.132 871.144 351.502C872.936 357.872 876.99 363.369 882.547 366.962L1052.35 476.061C1055.48 478.082 1059 479.432 1062.69 480.027C1066.37 480.621 1070.14 480.447 1073.75 479.515C1077.37 478.583 1080.75 476.914 1083.69 474.612C1086.62 472.31 1089.05 469.425 1090.82 466.139C1127.71 397.183 1149.94 321.35 1156.14 243.396C1156.44 239.67 1155.96 235.923 1154.74 232.39C1153.52 228.857 1151.58 225.615 1149.05 222.868C1146.51 220.121 1143.44 217.928 1140.01 216.428C1136.59 214.928 1132.89 214.154 1129.16 214.152H927.257C920.667 214.194 914.318 216.632 909.392 221.01C904.467 225.388 901.302 231.408 900.488 237.947Z" fill="white"/>
<path d="M900.984 238.011L900.984 238.009C901.783 231.59 904.89 225.681 909.725 221.383C914.559 217.086 920.791 214.694 927.259 214.652L1129.16 214.652C1132.82 214.653 1136.45 215.414 1139.81 216.886C1143.17 218.359 1146.19 220.511 1148.68 223.207C1151.17 225.903 1153.07 229.086 1154.27 232.553C1155.47 236.021 1155.93 239.699 1155.64 243.356C1149.45 321.241 1127.23 397.007 1090.38 465.902C1088.65 469.127 1086.26 471.959 1083.38 474.218C1080.5 476.478 1077.18 478.116 1073.63 479.031C1070.08 479.946 1066.38 480.117 1062.77 479.533C1059.15 478.95 1055.7 477.625 1052.62 475.641L1052.62 475.641L882.818 366.542C882.818 366.542 882.818 366.542 882.818 366.542C877.364 363.015 873.384 357.619 871.625 351.367C869.867 345.114 870.45 338.435 873.265 332.581L873.267 332.579C887.425 302.711 896.779 270.796 900.984 238.011Z" stroke="#BDC4C6"/>
</g>
<path d="M372.843 349.616C348.951 311.609 336.312 267.612 336.39 222.719" stroke="#FE9700" stroke-width="4.75895" stroke-miterlimit="10"/>
<path d="M478.776 441.202C435.13 421.907 398.242 390.015 372.841 349.616" stroke="#25C5D9" stroke-width="7.13842" stroke-miterlimit="10"/>
<path d="M672.656 440.631C641.969 454.369 608.721 461.457 575.098 461.427C541.933 461.469 509.125 454.579 478.777 441.202" stroke="#42A4F5" stroke-width="14.2768" stroke-miterlimit="10"/>
<path d="M775.426 352.567C750.344 391.165 714.684 421.728 672.704 440.608" stroke="#EB407A" stroke-width="11.8974" stroke-miterlimit="10"/>
<path d="M813.784 222.719C813.86 268.805 800.533 313.919 775.427 352.567" stroke="#673BB6" stroke-width="2.37947" stroke-miterlimit="10"/>
<path d="M817.972 222.79C817.967 223.622 817.716 224.434 817.25 225.124C816.785 225.813 816.125 226.349 815.355 226.664C814.585 226.979 813.739 227.059 812.924 226.894C812.108 226.729 811.36 226.326 810.774 225.736C810.187 225.146 809.788 224.396 809.628 223.579C809.467 222.763 809.552 221.917 809.871 221.149C810.191 220.381 810.73 219.725 811.423 219.263C812.115 218.801 812.928 218.555 813.76 218.555C814.315 218.555 814.865 218.664 815.377 218.878C815.89 219.091 816.355 219.403 816.747 219.797C817.138 220.19 817.448 220.657 817.658 221.171C817.868 221.685 817.975 222.235 817.972 222.79Z" fill="white" stroke="#673BB6" stroke-width="2.37947" stroke-miterlimit="10"/>
<path d="M342.504 222.79C342.504 224.029 342.137 225.24 341.448 226.27C340.759 227.299 339.781 228.101 338.636 228.574C337.491 229.047 336.231 229.17 335.017 228.926C333.802 228.683 332.687 228.084 331.813 227.207C330.939 226.329 330.344 225.212 330.106 223.997C329.867 222.781 329.994 221.522 330.472 220.379C330.949 219.236 331.755 218.26 332.787 217.575C333.819 216.891 335.031 216.528 336.27 216.532C337.091 216.532 337.903 216.694 338.661 217.009C339.419 217.324 340.108 217.785 340.687 218.367C341.266 218.948 341.725 219.638 342.037 220.397C342.349 221.156 342.507 221.97 342.504 222.79Z" fill="#FE9700"/>
<path d="M783.992 352.591C783.992 354.276 783.493 355.923 782.556 357.323C781.62 358.724 780.29 359.816 778.733 360.461C777.177 361.106 775.464 361.274 773.812 360.946C772.159 360.617 770.641 359.806 769.45 358.614C768.259 357.423 767.447 355.905 767.119 354.253C766.79 352.6 766.959 350.887 767.604 349.331C768.248 347.774 769.34 346.444 770.741 345.508C772.142 344.572 773.789 344.072 775.474 344.072C777.733 344.072 779.9 344.97 781.497 346.567C783.095 348.165 783.992 350.332 783.992 352.591Z" fill="white" stroke="#EB407A" stroke-width="2.37947" stroke-miterlimit="10"/>
<path d="M382.146 353.804C382.146 355.216 381.728 356.596 380.943 357.77C380.159 358.944 379.044 359.859 377.74 360.399C376.435 360.94 375 361.081 373.615 360.806C372.231 360.53 370.959 359.85 369.96 358.852C368.962 357.854 368.282 356.582 368.007 355.197C367.731 353.812 367.873 352.377 368.413 351.073C368.953 349.768 369.868 348.653 371.042 347.869C372.216 347.085 373.596 346.666 375.008 346.666C376.901 346.666 378.717 347.418 380.056 348.757C381.394 350.096 382.146 351.911 382.146 353.804Z" fill="white" stroke="#FE9700" stroke-width="3.56921" stroke-miterlimit="10"/>
<path d="M683.792 440.632C683.792 442.755 683.162 444.831 681.982 446.596C680.802 448.362 679.124 449.737 677.162 450.549C675.199 451.36 673.041 451.571 670.958 451.155C668.876 450.739 666.964 449.715 665.464 448.212C663.964 446.708 662.944 444.794 662.532 442.711C662.121 440.628 662.337 438.469 663.153 436.509C663.969 434.548 665.348 432.874 667.116 431.697C668.884 430.521 670.961 429.896 673.084 429.9C674.492 429.9 675.887 430.178 677.187 430.718C678.488 431.257 679.67 432.048 680.664 433.045C681.659 434.042 682.447 435.225 682.984 436.527C683.52 437.829 683.795 439.224 683.792 440.632Z" fill="white" stroke="#42A4F5" stroke-width="2.99814" stroke-miterlimit="10"/>
<path d="M487.629 440.632C487.629 442.354 487.118 444.038 486.161 445.47C485.205 446.902 483.844 448.019 482.253 448.678C480.662 449.337 478.911 449.509 477.221 449.173C475.532 448.837 473.98 448.008 472.762 446.79C471.544 445.572 470.715 444.02 470.379 442.331C470.043 440.641 470.215 438.89 470.874 437.299C471.534 435.708 472.65 434.348 474.082 433.391C475.514 432.434 477.198 431.923 478.92 431.923C481.23 431.923 483.445 432.84 485.078 434.474C486.712 436.107 487.629 438.322 487.629 440.632Z" fill="white" stroke="#25C5D9" stroke-width="3.85475" stroke-miterlimit="10"/>
<g filter="url(#filter5_d_233_3943)">
<path d="M688.977 347.024C752.862 283.139 752.862 179.56 688.977 115.675C625.091 51.7894 521.512 51.7894 457.627 115.675C393.742 179.56 393.742 283.139 457.627 347.024C521.512 410.91 625.091 410.91 688.977 347.024Z" fill="white"/>
</g>
<defs>
<filter id="filter0_d_233_3943" x="706.706" y="383.096" width="337.148" height="335.95" filterUnits="userSpaceOnUse" color-interpolation-filters="sRGB">
<feFlood flood-opacity="0" result="BackgroundImageFix"/>
<feColorMatrix in="SourceAlpha" type="matrix" values="0 0 0 0 0 0 0 0 0 0 0 0 0 0 0 0 0 0 127 0" result="hardAlpha"/>
<feOffset dy="4"/>
<feGaussianBlur stdDeviation="2"/>
<feComposite in2="hardAlpha" operator="out"/>
<feColorMatrix type="matrix" values="0 0 0 0 0 0 0 0 0 0 0 0 0 0 0 0 0 0 0.25 0"/>
<feBlend mode="normal" in2="BackgroundImageFix" result="effect1_dropShadow_233_3943"/>
<feBlend mode="normal" in="SourceGraphic" in2="effect1_dropShadow_233_3943" result="shape"/>
</filter>
<filter id="filter1_d_233_3943" x="399.752" y="506.828" width="349.047" height="271.077" filterUnits="userSpaceOnUse" color-interpolation-filters="sRGB">
<feFlood flood-opacity="0" result="BackgroundImageFix"/>
<feColorMatrix in="SourceAlpha" type="matrix" values="0 0 0 0 0 0 0 0 0 0 0 0 0 0 0 0 0 0 127 0" result="hardAlpha"/>
<feOffset dy="4"/>
<feGaussianBlur stdDeviation="2"/>
<feComposite in2="hardAlpha" operator="out"/>
<feColorMatrix type="matrix" values="0 0 0 0 0 0 0 0 0 0 0 0 0 0 0 0 0 0 0.25 0"/>
<feBlend mode="normal" in2="BackgroundImageFix" result="effect1_dropShadow_233_3943"/>
<feBlend mode="normal" in="SourceGraphic" in2="effect1_dropShadow_233_3943" result="shape"/>
</filter>
<filter id="filter2_d_233_3943" x="104.699" y="390.233" width="337.071" height="335.95" filterUnits="userSpaceOnUse" color-interpolation-filters="sRGB">
<feFlood flood-opacity="0" result="BackgroundImageFix"/>
<feColorMatrix in="SourceAlpha" type="matrix" values="0 0 0 0 0 0 0 0 0 0 0 0 0 0 0 0 0 0 127 0" result="hardAlpha"/>
<feOffset dy="4"/>
<feGaussianBlur stdDeviation="2"/>
<feComposite in2="hardAlpha" operator="out"/>
<feColorMatrix type="matrix" values="0 0 0 0 0 0 0 0 0 0 0 0 0 0 0 0 0 0 0.25 0"/>
<feBlend mode="normal" in2="BackgroundImageFix" result="effect1_dropShadow_233_3943"/>
<feBlend mode="normal" in="SourceGraphic" in2="effect1_dropShadow_233_3943" result="shape"/>
</filter>
<filter id="filter3_d_233_3943" x="0" y="214.152" width="294.126" height="274.22" filterUnits="userSpaceOnUse" color-interpolation-filters="sRGB">
<feFlood flood-opacity="0" result="BackgroundImageFix"/>
<feColorMatrix in="SourceAlpha" type="matrix" values="0 0 0 0 0 0 0 0 0 0 0 0 0 0 0 0 0 0 127 0" result="hardAlpha"/>
<feOffset dy="4"/>
<feGaussianBlur stdDeviation="2"/>
<feComposite in2="hardAlpha" operator="out"/>
<feColorMatrix type="matrix" values="0 0 0 0 0 0 0 0 0 0 0 0 0 0 0 0 0 0 0.25 0"/>
<feBlend mode="normal" in2="BackgroundImageFix" result="effect1_dropShadow_233_3943"/>
<feBlend mode="normal" in="SourceGraphic" in2="effect1_dropShadow_233_3943" result="shape"/>
</filter>
<filter id="filter4_d_233_3943" x="866.129" y="214.152" width="294.097" height="274.22" filterUnits="userSpaceOnUse" color-interpolation-filters="sRGB">
<feFlood flood-opacity="0" result="BackgroundImageFix"/>
<feColorMatrix in="SourceAlpha" type="matrix" values="0 0 0 0 0 0 0 0 0 0 0 0 0 0 0 0 0 0 127 0" result="hardAlpha"/>
<feOffset dy="4"/>
<feGaussianBlur stdDeviation="2"/>
<feComposite in2="hardAlpha" operator="out"/>
<feColorMatrix type="matrix" values="0 0 0 0 0 0 0 0 0 0 0 0 0 0 0 0 0 0 0.25 0"/>
<feBlend mode="normal" in2="BackgroundImageFix" result="effect1_dropShadow_233_3943"/>
<feBlend mode="normal" in="SourceGraphic" in2="effect1_dropShadow_233_3943" result="shape"/>
</filter>
<filter id="filter5_d_233_3943" x="405.713" y="67.7607" width="335.178" height="335.178" filterUnits="userSpaceOnUse" color-interpolation-filters="sRGB">
<feFlood flood-opacity="0" result="BackgroundImageFix"/>
<feColorMatrix in="SourceAlpha" type="matrix" values="0 0 0 0 0 0 0 0 0 0 0 0 0 0 0 0 0 0 127 0" result="hardAlpha"/>
<feOffset dy="4"/>
<feGaussianBlur stdDeviation="2"/>
<feComposite in2="hardAlpha" operator="out"/>
<feColorMatrix type="matrix" values="0 0 0 0 0 0 0 0 0 0 0 0 0 0 0 0 0 0 0.25 0"/>
<feBlend mode="normal" in2="BackgroundImageFix" result="effect1_dropShadow_233_3943"/>
<feBlend mode="normal" in="SourceGraphic" in2="effect1_dropShadow_233_3943" result="shape"/>
</filter>
</defs>
</svg>
