<svg width="1176" height="566" viewBox="0 0 1176 566" fill="none" xmlns="http://www.w3.org/2000/svg">
<path d="M0.9171 550.308C0.9171 558.638 7.66994 565.391 16 565.391C24.3301 565.391 31.0829 558.638 31.0829 550.308C31.0829 541.978 24.3301 535.225 16 535.225C7.66994 535.225 0.9171 541.978 0.9171 550.308ZM485.506 336.146L485.976 338.934L485.977 338.934L485.506 336.146ZM1176 0L1144.14 7.17668L1166.29 31.1774L1176 0ZM16 550.308C18.056 552.25 18.0558 552.25 18.0561 552.25C18.057 552.249 18.0579 552.248 18.0596 552.246C18.0631 552.242 18.069 552.236 18.0771 552.227C18.0934 552.21 18.1189 552.184 18.1537 552.147C18.2233 552.075 18.3299 551.964 18.4737 551.816C18.7611 551.52 19.197 551.075 19.7817 550.49C20.951 549.32 22.7157 547.588 25.0792 545.359C29.8061 540.902 36.928 534.459 46.4727 526.552C65.5625 510.738 94.3422 489.071 133.036 465.726C210.42 419.039 327.464 365.639 485.976 338.934L485.036 333.357C325.741 360.193 208.031 413.874 130.114 460.883C91.1575 484.386 62.1497 506.22 42.8645 522.196C33.2218 530.184 26.0093 536.708 21.1988 541.244C18.7936 543.512 16.9887 545.283 15.7808 546.492C15.1768 547.096 14.7221 547.56 14.4161 547.875C14.2631 548.033 14.1473 548.153 14.0686 548.235C14.0293 548.276 13.9992 548.308 13.9785 548.33C13.9681 548.341 13.96 548.349 13.9543 548.355C13.9514 548.358 13.9488 548.361 13.9474 548.362C13.9454 548.365 13.944 548.366 16 550.308ZM485.977 338.934C712.154 300.789 932.615 224.964 1159.2 19.3451L1155.4 15.1565C929.809 219.873 710.438 295.342 485.036 333.357L485.977 338.934Z" fill="#D3D1D1"/>
<path d="M152.53 471.772C166.082 471.772 177.069 460.786 177.069 447.233C177.069 433.68 166.082 422.693 152.53 422.693C138.977 422.693 127.99 433.68 127.99 447.233C127.99 460.786 138.977 471.772 152.53 471.772Z" fill="#1565C0"/>
<path d="M474.927 363.175C488.48 363.175 499.467 352.189 499.467 338.636C499.467 325.083 488.48 314.097 474.927 314.097C461.374 314.097 450.388 325.083 450.388 338.636C450.388 352.189 461.374 363.175 474.927 363.175Z" fill="#0080D1"/>
<path d="M812.03 264.76C825.582 264.76 836.569 253.773 836.569 240.22C836.569 226.667 825.582 215.681 812.03 215.681C798.477 215.681 787.49 226.667 787.49 240.22C787.49 253.773 798.477 264.76 812.03 264.76Z" fill="#69AEFF"/>
<path d="M1065.42 118.832C1078.97 118.832 1089.96 107.845 1089.96 94.2924C1089.96 80.7396 1078.97 69.7529 1065.42 69.7529C1051.87 69.7529 1040.88 80.7396 1040.88 94.2924C1040.88 107.845 1051.87 118.832 1065.42 118.832Z" fill="#B6D7FF"/>
</svg>
