<svg width="1920" height="863" viewBox="0 0 1920 863" fill="none" xmlns="http://www.w3.org/2000/svg">
<path d="M1753.05 169.592C1713.26 142.207 1660.44 124.465 1597.86 121.746C1528.79 118.753 1458.83 126.284 1390.78 116.719C1288.19 102.322 1199.58 50.5058 1097.36 34.2313C996.451 18.1524 891.442 38.3195 796.078 68.5995C700.714 98.8795 610.92 139.312 514.06 166.54C459.131 181.993 400.36 193.925 356.262 223.638C316.188 250.671 288.569 292.1 237.844 304.15C186.267 316.532 126.258 293.763 77.6222 312.131C25.0144 332.024 16.556 386.559 16.4012 431.999C16.1434 520.237 20.7594 608.554 34.4529 696.069C38.3727 721.302 43.4788 747.435 61.5046 768.659C91.6766 804.122 149.958 817.326 203.984 824.133C321.294 838.901 441.234 835.869 559.653 828.769C930.279 806.743 1308.41 742.369 1611.5 575.262C1692.65 530.526 1769.73 476.539 1810.07 405.846C1860.27 317.666 1832.71 224.362 1753.05 169.592Z" fill="#E1F2F9"/>
<path d="M1380.93 250.71H1442.79V559.124H1380.93V250.71Z" fill="white"/>
<path d="M1294.2 291.827H1356.07V600.241H1294.2V291.827Z" fill="white"/>
<path d="M1206.99 345.971H1268.85V654.385H1206.99V345.971Z" fill="white"/>
<path d="M1126.71 471.923H1188.57V780.337H1126.71V471.923Z" fill="white"/>
<path d="M960.065 435.109H1021.93V743.523H960.065V435.109Z" fill="white"/>
<path d="M875.789 237.839H937.655V741.939H875.789V237.839Z" fill="white"/>
<path d="M626.444 243.648H688.31V788.923H626.444V243.648Z" fill="white"/>
<path d="M538.971 299.944H600.836V845.219H538.971V299.944Z" fill="white"/>
<path d="M451.781 389.65H513.647V838.608H451.781V389.65Z" fill="white"/>
<path d="M789.58 311.759H851.445V747.768H789.58V311.759Z" fill="white"/>
<path d="M707.625 188.762H769.491V744.697H707.625V188.762Z" fill="white"/>
<path d="M1529.08 510.535C1529.76 510.535 1530.42 510.329 1530.9 509.962C1531.39 509.595 1531.66 509.098 1531.66 508.579V345.54C1531.66 345.008 1531.38 344.498 1530.88 344.122C1530.39 343.746 1529.71 343.535 1529.01 343.535C1528.31 343.535 1527.64 343.746 1527.14 344.122C1526.65 344.498 1526.37 345.008 1526.37 345.54V508.442C1526.34 508.718 1526.4 508.996 1526.52 509.256C1526.65 509.517 1526.85 509.754 1527.1 509.952C1527.36 510.149 1527.67 510.304 1528.01 510.404C1528.35 510.505 1528.71 510.549 1529.08 510.535Z" fill="#42A147"/>
<path d="M1529.41 401.249C1521.26 391.794 1510.62 383.716 1498.17 377.52C1485.71 371.323 1471.71 367.142 1457.03 365.238C1453.31 364.769 1449.55 364.456 1445.78 364.143C1449.88 375.439 1459.05 385.293 1471.72 392.001C1484.38 398.709 1499.73 401.849 1515.13 400.878C1520 400.565 1525.06 399.606 1529.41 401.249Z" fill="#42A147"/>
<path d="M1528.02 433.055C1536.16 423.622 1546.77 415.56 1559.19 409.372C1571.61 403.183 1585.58 399 1600.23 397.083C1603.94 396.633 1607.71 396.32 1611.47 396.007C1607.37 407.303 1598.19 417.156 1585.52 423.86C1572.85 430.565 1557.49 433.7 1542.1 432.722C1537.36 432.292 1532.3 431.412 1528.02 433.055Z" fill="#42A147"/>
<path d="M1528.18 357.062C1493.47 357.062 1465.33 335.719 1465.33 309.392C1465.33 283.065 1493.47 261.723 1528.18 261.723C1562.88 261.723 1591.02 283.065 1591.02 309.392C1591.02 335.719 1562.88 357.062 1528.18 357.062Z" fill="#F89520"/>
<path d="M1528.18 349.237C1538.57 349.237 1548.72 346.9 1557.36 342.522C1566 338.144 1572.73 331.921 1576.71 324.64C1580.68 317.359 1581.72 309.348 1579.7 301.619C1577.67 293.889 1572.67 286.79 1565.32 281.217C1557.97 275.645 1548.61 271.85 1538.42 270.313C1528.23 268.775 1517.67 269.564 1508.07 272.58C1498.47 275.596 1490.27 280.703 1484.5 287.255C1478.73 293.808 1475.65 301.511 1475.65 309.392C1475.67 319.955 1481.21 330.081 1491.05 337.55C1500.9 345.019 1514.25 349.222 1528.18 349.237Z" fill="white"/>
<path d="M1531.55 340.044L1531.43 335.8H1532.64C1533.04 335.829 1533.45 335.829 1533.85 335.8C1538.3 335.984 1542.71 335.011 1546.33 333.041C1547.7 332.21 1548.81 331.168 1549.61 329.984C1550.41 328.801 1550.86 327.503 1550.95 326.176C1551.15 324.483 1550.61 322.787 1549.43 321.344C1548.88 320.644 1548.11 320.06 1547.18 319.646C1546.26 319.232 1545.21 319.002 1544.14 318.977C1543.52 318.977 1543.21 319.075 1543.18 319.388C1543.19 319.514 1543.23 319.637 1543.31 319.749C1543.38 319.86 1543.49 319.958 1543.62 320.034C1544.01 320.429 1544.29 320.873 1544.47 321.344C1544.74 321.858 1544.9 322.398 1544.96 322.948C1545 323.136 1545 323.327 1544.96 323.515C1544.96 323.711 1544.96 323.867 1544.96 324.024C1544.9 325.232 1544.46 326.412 1543.69 327.471C1542.92 328.53 1541.84 329.439 1540.53 330.127C1537.79 331.556 1534.61 332.431 1531.3 332.67L1530.29 311.642C1532.53 310.723 1534.73 309.686 1536.84 308.747C1538.85 307.804 1540.72 306.696 1542.41 305.441C1543.94 304.269 1545.2 302.906 1546.12 301.412C1546.99 300.008 1547.51 298.497 1547.67 296.952C1547.88 294.358 1547.11 291.774 1545.45 289.499C1543.67 287.012 1541.06 284.926 1537.87 283.455C1535.11 282.177 1532.06 281.307 1528.87 280.893L1528.74 276.98C1528.74 276.649 1528.58 276.33 1528.28 276.087C1527.99 275.843 1527.58 275.695 1527.14 275.67C1526.72 275.65 1526.3 275.739 1525.96 275.924C1525.77 276.016 1525.61 276.148 1525.52 276.304C1525.42 276.46 1525.39 276.634 1525.42 276.804L1525.65 280.716C1522.13 280.582 1518.65 281.346 1515.77 282.888C1514.35 283.816 1513.21 284.97 1512.43 286.267C1511.66 287.565 1511.27 288.975 1511.28 290.399C1511.08 291.55 1511.46 292.717 1512.34 293.666C1512.64 293.994 1513.02 294.274 1513.46 294.489C1513.91 294.704 1514.4 294.85 1514.92 294.918C1515.25 294.933 1515.58 294.898 1515.89 294.814C1516.2 294.73 1516.48 294.599 1516.73 294.429C1517.03 294.197 1517.26 293.922 1517.42 293.619C1517.58 293.317 1517.66 292.994 1517.65 292.668C1517.65 292.531 1517.65 292.355 1517.65 292.179C1517.69 291.984 1517.69 291.787 1517.65 291.592C1517.55 290.877 1517.55 290.156 1517.65 289.441C1517.77 287.808 1518.54 286.24 1519.85 284.942C1520.58 284.301 1521.48 283.793 1522.51 283.454C1523.53 283.116 1524.64 282.956 1525.75 282.986L1526.73 306.341L1521.26 308.512C1518.27 309.647 1515.36 310.901 1512.55 312.268C1510.59 313.184 1508.9 314.388 1507.57 315.808C1506.43 317.17 1505.78 318.735 1505.69 320.347C1505.66 320.542 1505.66 320.738 1505.69 320.933C1505.69 321.109 1505.69 321.305 1505.69 321.501C1505.75 323.255 1506.3 324.979 1507.31 326.557C1508.32 328.136 1509.76 329.533 1511.54 330.655C1516.24 333.538 1521.99 335.24 1528.02 335.526L1528.23 339.849C1528.23 340.023 1528.27 340.196 1528.36 340.358C1528.45 340.519 1528.58 340.665 1528.74 340.788C1529.03 341.011 1529.42 341.144 1529.83 341.159C1530.25 341.169 1530.67 341.073 1531.01 340.885C1531.19 340.792 1531.33 340.666 1531.43 340.518C1531.52 340.371 1531.57 340.208 1531.55 340.044ZM1530.03 304.835L1529.08 283.318C1531.23 283.78 1533.18 284.672 1534.73 285.9C1536.31 287.132 1537.53 288.596 1538.34 290.203C1539.16 291.809 1539.5 293.532 1539.34 295.25C1539.21 296.39 1538.86 297.51 1538.31 298.575C1537.74 299.681 1536.86 300.681 1535.73 301.51C1534.93 302.139 1534.07 302.721 1533.15 303.25C1532.1 303.876 1531.09 304.405 1530.03 304.913V304.835ZM1527.94 332.787H1526.76C1525.49 332.728 1524.23 332.597 1522.99 332.396C1521.81 332.216 1520.66 331.934 1519.56 331.555C1517.59 331 1515.88 330.029 1514.61 328.758C1513.61 327.813 1512.93 326.699 1512.63 325.511C1512.48 324.924 1512.44 324.326 1512.5 323.731C1512.61 322.178 1513.42 320.703 1514.79 319.545C1516.36 318.236 1518.16 317.091 1520.13 316.141C1522.3 315.085 1524.59 314.048 1527.04 313.05L1527.94 332.787Z" fill="#F89520"/>
<path d="M1821.62 331.007C1822.3 331.007 1822.96 330.8 1823.44 330.434C1823.93 330.067 1824.2 329.569 1824.2 329.05V166.09C1824.2 165.556 1823.92 165.043 1823.42 164.665C1822.92 164.287 1822.25 164.075 1821.54 164.075C1820.84 164.075 1820.16 164.287 1819.66 164.665C1819.16 165.043 1818.88 165.556 1818.88 166.09V328.992C1818.87 329.264 1818.94 329.534 1819.07 329.787C1819.21 330.039 1819.41 330.267 1819.67 330.457C1819.92 330.646 1820.23 330.793 1820.57 330.888C1820.9 330.983 1821.26 331.023 1821.62 331.007Z" fill="#42A147"/>
<path d="M1822.01 221.799C1813.85 212.339 1803.21 204.261 1790.74 198.07C1778.28 191.88 1764.26 187.711 1749.57 185.827C1745.83 185.357 1742.09 185.044 1738.32 184.731C1742.42 196.031 1751.6 205.888 1764.27 212.597C1776.93 219.305 1792.3 222.443 1807.69 221.466C1812.52 221.036 1817.6 220.156 1822.01 221.799Z" fill="#42A147"/>
<path d="M1820.48 253.605C1828.63 244.148 1839.26 236.067 1851.71 229.868C1864.16 223.668 1878.17 219.483 1892.85 217.574C1896.58 217.124 1900.35 216.811 1904.09 216.498C1899.99 227.79 1890.81 237.64 1878.15 244.345C1865.49 251.049 1850.13 254.186 1834.74 253.214C1829.9 252.901 1824.84 251.962 1820.48 253.605Z" fill="#42A147"/>
<path d="M1820.69 177.611C1785.98 177.611 1757.84 156.269 1757.84 129.942C1757.84 103.615 1785.98 82.2725 1820.69 82.2725C1855.4 82.2725 1883.54 103.615 1883.54 129.942C1883.54 156.269 1855.4 177.611 1820.69 177.611Z" fill="#F89520"/>
<path d="M1820.69 169.787C1831.08 169.787 1841.24 167.45 1849.87 163.072C1858.51 158.694 1865.25 152.471 1869.22 145.19C1873.2 137.909 1874.24 129.898 1872.21 122.168C1870.18 114.439 1865.18 107.34 1857.83 101.767C1850.49 96.1946 1841.13 92.3997 1830.94 90.8623C1820.75 89.3249 1810.19 90.1139 1800.59 93.1297C1790.99 96.1455 1782.78 101.253 1777.01 107.805C1771.24 114.358 1768.16 122.061 1768.16 129.942C1768.17 140.506 1773.71 150.635 1783.56 158.105C1793.41 165.575 1806.76 169.777 1820.69 169.787Z" fill="white"/>
<path d="M1824.07 160.594V156.349H1825.28C1825.68 156.379 1826.09 156.379 1826.49 156.349C1830.94 156.531 1835.33 155.558 1838.95 153.591C1840.31 152.754 1841.41 151.707 1842.2 150.519C1842.98 149.332 1843.42 148.032 1843.49 146.706C1843.69 145.013 1843.15 143.317 1841.97 141.874C1841.41 141.174 1840.64 140.59 1839.71 140.176C1838.78 139.763 1837.73 139.533 1836.65 139.508C1836.06 139.508 1835.72 139.625 1835.7 139.918C1835.71 140.045 1835.76 140.169 1835.84 140.281C1835.92 140.392 1836.03 140.489 1836.16 140.564C1836.52 140.966 1836.8 141.408 1836.99 141.874C1837.26 142.388 1837.43 142.928 1837.5 143.478C1837.54 143.667 1837.54 143.858 1837.5 144.046C1837.5 144.241 1837.5 144.398 1837.5 144.554C1837.46 145.764 1837.03 146.947 1836.27 148.008C1835.5 149.069 1834.41 149.977 1833.09 150.657C1830.34 152.087 1827.16 152.962 1823.84 153.2L1822.86 132.172C1825.1 131.253 1827.27 130.216 1829.41 129.277C1831.39 128.356 1833.23 127.273 1834.9 126.05C1836.43 124.877 1837.69 123.515 1838.61 122.02C1839.48 120.619 1840 119.106 1840.13 117.561C1840.35 114.969 1839.59 112.384 1837.94 110.108C1836.13 107.603 1833.45 105.515 1830.21 104.064C1827.45 102.788 1824.41 101.919 1821.23 101.501L1821.08 97.589C1821.08 97.2577 1820.91 96.9384 1820.62 96.6952C1820.32 96.4521 1819.91 96.3032 1819.48 96.2784C1819.06 96.2613 1818.64 96.3508 1818.29 96.5327C1818.1 96.6248 1817.95 96.7566 1817.85 96.9126C1817.76 97.0687 1817.72 97.2423 1817.75 97.413L1818.01 101.325C1814.49 101.189 1811.01 101.954 1808.13 103.496C1806.75 104.438 1805.66 105.6 1804.94 106.898C1804.22 108.197 1803.88 109.6 1803.95 111.008C1803.74 112.159 1804.12 113.33 1805.01 114.274C1805.31 114.603 1805.69 114.883 1806.13 115.098C1806.58 115.313 1807.07 115.458 1807.59 115.526C1807.92 115.542 1808.25 115.507 1808.56 115.423C1808.87 115.339 1809.15 115.207 1809.4 115.037C1809.7 114.805 1809.93 114.53 1810.09 114.228C1810.25 113.926 1810.33 113.602 1810.32 113.277C1810.31 113.114 1810.31 112.951 1810.32 112.788C1810.35 112.593 1810.35 112.396 1810.32 112.201C1810.21 111.486 1810.21 110.764 1810.32 110.049C1810.43 108.415 1811.2 106.845 1812.52 105.55C1813.24 104.908 1814.15 104.398 1815.17 104.059C1816.2 103.72 1817.31 103.561 1818.42 103.594L1819.4 126.95L1813.83 129.101C1810.84 130.236 1807.93 131.49 1805.11 132.857C1803.16 133.773 1801.47 134.977 1800.14 136.397C1799.01 137.729 1798.35 139.258 1798.23 140.838V141.425C1798.25 141.613 1798.25 141.803 1798.23 141.992C1798.25 143.752 1798.78 145.488 1799.77 147.081C1800.75 148.674 1802.18 150.087 1803.95 151.225C1808.63 154.11 1814.39 155.813 1820.41 156.095L1820.74 160.399C1820.74 160.73 1820.9 161.049 1821.2 161.292C1821.5 161.535 1821.91 161.684 1822.34 161.709C1822.77 161.719 1823.2 161.623 1823.55 161.435C1823.73 161.344 1823.87 161.217 1823.96 161.069C1824.06 160.921 1824.09 160.757 1824.07 160.594ZM1822.57 125.385L1821.62 103.868C1823.75 104.37 1825.66 105.295 1827.16 106.548C1828.73 107.78 1829.96 109.245 1830.75 110.851C1831.57 112.457 1831.91 114.18 1831.75 115.898C1831.64 117.039 1831.3 118.16 1830.75 119.223C1830.17 120.329 1829.29 121.329 1828.17 122.157C1827.38 122.795 1826.52 123.378 1825.59 123.898C1824.58 124.426 1823.63 124.954 1822.57 125.463V125.385ZM1820.48 153.337H1819.27C1818.01 153.275 1816.75 153.145 1815.51 152.946C1814.33 152.769 1813.19 152.487 1812.1 152.105C1810.13 151.544 1808.41 150.575 1807.13 149.308C1806.13 148.363 1805.46 147.248 1805.17 146.06C1804.91 145.022 1804.97 143.953 1805.35 142.935C1805.72 141.918 1806.4 140.98 1807.33 140.192C1808.9 138.883 1810.7 137.739 1812.67 136.789C1814.81 135.732 1817.13 134.696 1819.58 133.698L1820.48 153.337Z" fill="#F89520"/>
<path d="M1383.4 570.802C1383.89 570.802 1384.37 570.653 1384.71 570.389C1385.06 570.125 1385.26 569.767 1385.26 569.393V455.432C1385.29 455.235 1385.26 455.035 1385.19 454.845C1385.11 454.655 1384.98 454.48 1384.8 454.331C1384.63 454.183 1384.41 454.064 1384.18 453.982C1383.94 453.901 1383.68 453.858 1383.41 453.858C1383.15 453.858 1382.89 453.901 1382.65 453.982C1382.41 454.064 1382.2 454.183 1382.03 454.331C1381.85 454.48 1381.72 454.655 1381.64 454.845C1381.56 455.035 1381.54 455.235 1381.57 455.432V569.393C1381.57 569.577 1381.61 569.76 1381.7 569.931C1381.79 570.102 1381.93 570.257 1382.1 570.388C1382.27 570.519 1382.47 570.623 1382.7 570.694C1382.92 570.765 1383.16 570.802 1383.4 570.802Z" fill="#42A147"/>
<path d="M1383.61 494.417C1377.92 487.795 1370.48 482.139 1361.77 477.803C1353.06 473.467 1343.26 470.546 1332.99 469.223C1330.41 468.89 1327.83 468.675 1325.25 468.44C1328.13 476.336 1334.55 483.223 1343.4 487.914C1352.26 492.606 1362.99 494.809 1373.76 494.143C1377.06 493.928 1380.59 493.263 1383.61 494.417Z" fill="#42A147"/>
<path d="M1382.63 516.658C1388.32 510.041 1395.76 504.388 1404.47 500.053C1413.18 495.718 1422.98 492.794 1433.25 491.464C1435.83 491.132 1438.41 490.916 1441.12 490.701C1438.26 498.61 1431.84 505.511 1422.97 510.206C1414.11 514.9 1403.36 517.093 1392.58 516.404C1389.2 516.169 1385.67 515.504 1382.63 516.658Z" fill="#42A147"/>
<path d="M1382.78 463.512C1358.5 463.512 1338.81 448.58 1338.81 430.161C1338.81 411.741 1358.5 396.81 1382.78 396.81C1407.07 396.81 1426.75 411.741 1426.75 430.161C1426.75 448.58 1407.07 463.512 1382.78 463.512Z" fill="#F89520"/>
<path d="M1382.78 458.034C1390.05 458.034 1397.16 456.399 1403.2 453.337C1409.24 450.274 1413.95 445.92 1416.73 440.827C1419.51 435.734 1420.24 430.129 1418.82 424.722C1417.41 419.315 1413.91 414.349 1408.77 410.45C1403.63 406.552 1397.08 403.897 1389.95 402.822C1382.82 401.746 1375.43 402.298 1368.72 404.408C1362.01 406.518 1356.27 410.09 1352.23 414.674C1348.19 419.258 1346.03 424.647 1346.03 430.16C1346.05 437.55 1349.92 444.634 1356.81 449.859C1363.7 455.084 1373.04 458.024 1382.78 458.034Z" fill="white"/>
<path d="M1385.13 451.599V448.625H1385.98H1386.83C1389.95 448.747 1393.02 448.057 1395.55 446.669C1396.51 446.092 1397.29 445.366 1397.85 444.539C1398.41 443.713 1398.74 442.805 1398.8 441.877C1398.92 440.69 1398.54 439.504 1397.71 438.493C1397.33 438.003 1396.78 437.594 1396.14 437.303C1395.49 437.013 1394.75 436.85 1394 436.83C1393.59 436.83 1393.36 436.83 1393.36 437.124C1393.36 437.212 1393.38 437.299 1393.44 437.377C1393.49 437.456 1393.57 437.523 1393.67 437.574C1393.93 437.854 1394.13 438.165 1394.26 438.493C1394.44 438.85 1394.56 439.226 1394.59 439.608C1394.62 439.744 1394.62 439.882 1394.59 440.019C1394.58 440.136 1394.58 440.254 1394.59 440.371C1394.55 441.216 1394.25 442.042 1393.72 442.782C1393.18 443.523 1392.42 444.158 1391.5 444.635C1389.58 445.639 1387.35 446.252 1385.03 446.415L1384.33 431.705C1385.9 431.06 1387.42 430.395 1388.92 429.749C1390.32 429.08 1391.63 428.299 1392.81 427.422C1393.88 426.601 1394.75 425.649 1395.39 424.605C1395.98 423.624 1396.34 422.571 1396.45 421.495C1396.61 419.677 1396.07 417.864 1394.9 416.272C1393.66 414.529 1391.83 413.07 1389.59 412.047C1387.67 411.16 1385.54 410.55 1383.32 410.247V407.509C1383.33 407.273 1383.22 407.045 1383 406.873C1382.79 406.702 1382.5 406.6 1382.19 406.589C1381.9 406.573 1381.6 406.636 1381.36 406.765C1381.23 406.834 1381.13 406.929 1381.06 407.039C1380.99 407.149 1380.96 407.27 1380.98 407.391L1381.16 410.13C1378.69 410.031 1376.26 410.569 1374.25 411.656C1373.24 412.301 1372.44 413.108 1371.89 414.018C1371.35 414.928 1371.08 415.918 1371.1 416.917C1370.96 417.718 1371.23 418.53 1371.85 419.187C1372.07 419.424 1372.34 419.624 1372.67 419.776C1372.99 419.927 1373.35 420.026 1373.73 420.067C1374.19 420.083 1374.65 419.964 1374.99 419.734C1375.2 419.571 1375.37 419.379 1375.48 419.167C1375.59 418.955 1375.64 418.729 1375.64 418.502V418.15C1375.66 418.014 1375.66 417.875 1375.64 417.739C1375.56 417.239 1375.56 416.733 1375.64 416.233C1375.72 415.091 1376.25 413.993 1377.16 413.084C1377.67 412.627 1378.31 412.265 1379.02 412.024C1379.74 411.783 1380.53 411.671 1381.31 411.695L1381.98 428.028L1378.17 429.534C1376.08 430.331 1374.05 431.212 1372.08 432.175C1370.7 432.816 1369.51 433.661 1368.57 434.659C1367.79 435.613 1367.33 436.704 1367.26 437.828V438.16C1367.28 438.29 1367.28 438.422 1367.26 438.552C1367.3 439.779 1367.68 440.986 1368.38 442.093C1369.09 443.199 1370.09 444.179 1371.33 444.968C1374.63 446.97 1378.65 448.158 1382.86 448.371L1383.01 451.383C1383.01 451.507 1383.04 451.63 1383.1 451.745C1383.17 451.859 1383.26 451.962 1383.38 452.049C1383.57 452.203 1383.84 452.294 1384.12 452.303C1384.43 452.322 1384.73 452.252 1384.97 452.107C1385.05 452.035 1385.1 451.953 1385.12 451.865C1385.15 451.778 1385.15 451.687 1385.13 451.599ZM1384.07 427.011L1383.4 411.988C1384.91 412.298 1386.28 412.921 1387.35 413.788C1388.47 414.638 1389.35 415.657 1389.93 416.781C1390.52 417.904 1390.75 419.116 1390.62 420.321C1390.54 421.119 1390.31 421.903 1389.93 422.649C1389.51 423.423 1388.89 424.123 1388.1 424.703C1387.52 425.147 1386.9 425.553 1386.24 425.915C1385.54 426.308 1384.82 426.674 1384.07 427.011ZM1382.63 446.572H1381.78C1380.91 446.529 1380.05 446.438 1379.2 446.298C1378.37 446.17 1377.57 445.973 1376.8 445.711C1375.43 445.32 1374.23 444.642 1373.34 443.755C1372.64 443.096 1372.17 442.317 1371.95 441.486C1371.89 441.07 1371.89 440.65 1371.95 440.234C1372.05 439.152 1372.62 438.125 1373.58 437.319C1374.67 436.402 1375.92 435.6 1377.29 434.933C1378.81 434.19 1380.44 433.466 1382.14 432.781L1382.63 446.572Z" fill="#F89520"/>
<path d="M1685.53 414.57C1686.13 414.57 1686.7 414.391 1687.12 414.072C1687.54 413.752 1687.78 413.32 1687.78 412.868V274.965C1687.81 274.728 1687.78 274.487 1687.68 274.26C1687.59 274.033 1687.43 273.823 1687.22 273.646C1687.01 273.468 1686.75 273.326 1686.46 273.229C1686.17 273.131 1685.86 273.081 1685.55 273.081C1685.23 273.081 1684.92 273.131 1684.63 273.229C1684.35 273.326 1684.09 273.468 1683.88 273.646C1683.67 273.823 1683.51 274.033 1683.41 274.26C1683.32 274.487 1683.28 274.728 1683.32 274.965V412.868C1683.31 413.091 1683.37 413.312 1683.48 413.518C1683.59 413.724 1683.75 413.912 1683.96 414.07C1684.16 414.229 1684.41 414.354 1684.68 414.44C1684.95 414.526 1685.24 414.57 1685.53 414.57Z" fill="#42A147"/>
<path d="M1685.82 322.126C1678.93 314.114 1669.93 307.269 1659.38 302.021C1648.84 296.773 1636.98 293.236 1624.55 291.631C1621.4 291.24 1618.23 290.986 1615.03 290.712C1618.51 300.273 1626.28 308.614 1637 314.292C1647.72 319.971 1660.72 322.631 1673.75 321.814C1677.85 321.54 1682.13 320.796 1685.82 322.126Z" fill="#42A147"/>
<path d="M1684.58 349.042C1691.48 341.034 1700.48 334.192 1711.02 328.945C1721.57 323.698 1733.42 320.158 1745.85 318.546C1749 318.155 1752.2 317.901 1755.37 317.627C1751.89 327.188 1744.12 335.529 1733.4 341.207C1722.68 346.886 1709.68 349.546 1696.65 348.729C1692.55 348.455 1688.27 347.653 1684.58 349.042Z" fill="#42A147"/>
<path d="M1684.76 284.726C1655.38 284.726 1631.56 266.659 1631.56 244.372C1631.56 222.086 1655.38 204.019 1684.76 204.019C1714.14 204.019 1737.96 222.086 1737.96 244.372C1737.96 266.659 1714.14 284.726 1684.76 284.726Z" fill="#F89520"/>
<path d="M1684.76 278.095C1693.55 278.095 1702.15 276.117 1709.46 272.412C1716.77 268.706 1722.47 263.439 1725.84 257.277C1729.2 251.115 1730.08 244.335 1728.37 237.793C1726.65 231.252 1722.42 225.243 1716.2 220.527C1709.98 215.81 1702.06 212.599 1693.43 211.297C1684.81 209.996 1675.87 210.664 1667.75 213.216C1659.62 215.769 1652.68 220.091 1647.8 225.637C1642.91 231.182 1640.3 237.702 1640.3 244.372C1640.32 253.313 1645 261.884 1653.34 268.206C1661.67 274.528 1672.97 278.084 1684.76 278.095Z" fill="white"/>
<path d="M1687.62 270.31V266.73H1688.66C1689 266.75 1689.34 266.75 1689.69 266.73C1693.45 266.873 1697.16 266.054 1700.23 264.402C1701.4 263.693 1702.36 262.803 1703.03 261.791C1703.71 260.778 1704.09 259.668 1704.15 258.534C1704.33 257.095 1703.87 255.653 1702.86 254.426C1702.39 253.846 1701.73 253.364 1700.94 253.022C1700.16 252.681 1699.28 252.492 1698.38 252.47C1697.86 252.47 1697.6 252.568 1697.58 252.822C1697.58 252.931 1697.61 253.037 1697.68 253.133C1697.75 253.228 1697.85 253.31 1697.96 253.37C1698.27 253.704 1698.51 254.074 1698.66 254.466C1698.9 254.903 1699.04 255.364 1699.1 255.835C1699.12 255.997 1699.12 256.161 1699.1 256.324C1699.1 256.48 1699.1 256.617 1699.1 256.735C1699.06 257.759 1698.7 258.761 1698.05 259.659C1697.4 260.557 1696.48 261.325 1695.36 261.899C1693.07 263.111 1690.4 263.859 1687.62 264.07L1686.8 246.25C1688.71 245.487 1690.54 244.685 1692.34 243.825C1694.05 243.018 1695.63 242.073 1697.06 241.008C1698.35 240.013 1699.41 238.863 1700.21 237.604C1700.94 236.416 1701.37 235.136 1701.5 233.829C1701.69 231.631 1701.05 229.438 1699.64 227.511C1698.07 225.42 1695.8 223.679 1693.06 222.464C1690.69 221.376 1688.06 220.64 1685.33 220.293V216.968C1685.32 216.668 1685.17 216.381 1684.89 216.166C1684.64 215.981 1684.31 215.87 1683.96 215.853C1683.6 215.841 1683.25 215.917 1682.96 216.068C1682.8 216.149 1682.68 216.262 1682.6 216.393C1682.52 216.524 1682.49 216.669 1682.52 216.811L1682.75 220.156C1679.77 220.02 1676.82 220.662 1674.39 221.975C1673.18 222.758 1672.2 223.736 1671.54 224.839C1670.88 225.941 1670.55 227.141 1670.58 228.352C1670.4 229.319 1670.72 230.301 1671.48 231.09C1671.74 231.376 1672.08 231.618 1672.47 231.803C1672.86 231.988 1673.3 232.112 1673.75 232.166C1674.03 232.178 1674.3 232.148 1674.56 232.077C1674.83 232.006 1675.07 231.897 1675.27 231.756C1675.78 231.358 1676.07 230.825 1676.07 230.269V229.839C1676.11 229.677 1676.11 229.511 1676.07 229.35C1675.99 228.745 1675.99 228.135 1676.07 227.53C1676.16 226.145 1676.81 224.813 1677.93 223.716C1678.54 223.168 1679.31 222.732 1680.18 222.441C1681.04 222.15 1681.98 222.01 1682.93 222.034L1683.76 241.79L1679.14 243.629C1676.61 244.597 1674.15 245.661 1671.76 246.817C1670.01 247.57 1668.49 248.589 1667.28 249.81C1666.3 250.983 1665.74 252.334 1665.68 253.722C1665.65 253.885 1665.65 254.049 1665.68 254.211C1665.69 254.374 1665.69 254.537 1665.68 254.7C1665.71 256.198 1666.17 257.673 1667.02 259.024C1667.88 260.374 1669.11 261.568 1670.63 262.525C1674.6 264.962 1679.46 266.404 1684.55 266.652L1684.74 270.29C1684.74 270.591 1684.89 270.88 1685.17 271.092C1685.42 271.274 1685.74 271.385 1686.08 271.405C1686.45 271.421 1686.81 271.338 1687.11 271.17C1687.31 271.089 1687.46 270.961 1687.56 270.806C1687.65 270.65 1687.67 270.476 1687.62 270.31ZM1686.36 240.597L1685.53 222.406C1687.37 222.781 1689.03 223.532 1690.33 224.577C1691.65 225.627 1692.68 226.863 1693.37 228.215C1694.07 229.579 1694.36 231.041 1694.23 232.499C1694.12 233.466 1693.82 234.415 1693.35 235.316C1692.86 236.252 1692.11 237.099 1691.16 237.8C1690.47 238.339 1689.72 238.83 1688.91 239.267C1688.11 239.697 1687.24 240.147 1686.36 240.597ZM1684.58 264.246H1683.57C1682.5 264.194 1681.43 264.083 1680.38 263.913C1679.38 263.768 1678.41 263.531 1677.49 263.209C1675.83 262.729 1674.37 261.91 1673.29 260.842C1672.44 260.039 1671.87 259.093 1671.61 258.084C1671.52 257.585 1671.52 257.078 1671.61 256.578C1671.71 255.267 1672.39 254.02 1673.54 253.038C1674.87 251.933 1676.39 250.966 1678.06 250.162C1679.89 249.262 1681.85 248.382 1683.94 247.541L1684.58 264.246Z" fill="#F89520"/>
<path d="M1920 291.827L1733.6 358.568C1710.19 367.345 1692.11 382.591 1683.06 401.172L1682.72 401.817C1674.22 419.244 1657.75 433.773 1636.31 442.758L1481.86 507.602C1465.8 514.373 1452.44 524.299 1443.18 536.336C1435.66 546.112 1425.4 554.52 1413.14 560.968C1400.87 567.416 1386.89 571.747 1372.18 573.658L1242.42 590.539C1228.73 592.331 1215.67 596.222 1204.03 601.973C1192.39 607.724 1182.42 615.215 1174.72 623.988L1164.23 635.959C1150.67 651.373 1130.29 662.599 1106.77 667.608L998.618 690.494C984.307 693.546 971.046 698.926 959.755 706.26L940.672 718.642C919.732 732.237 884.609 721.381 857.17 719.503L775.525 711.053C750.511 709.351 724.387 734.408 704.221 745.773L661.129 770.067C643.495 780.008 622.111 785.378 600.14 785.384H557.306C538.743 785.383 520.53 789.217 504.621 796.474L446.882 822.803C430.973 830.06 412.76 833.894 394.197 833.894H355.772C335.481 833.891 315.649 838.474 298.807 847.059L267.655 862.922H1920V291.827Z" fill="#1E3D44"/>
<path d="M1257.56 214.464C1265.29 212.038 1272.69 210.552 1279.89 207.461C1295.7 200.419 1319.19 188.761 1338.53 183.734C1340.59 183.206 1342.45 182.032 1344.62 182.169C1346.78 182.306 1348.95 183.891 1348.25 185.455C1347.77 186.289 1346.93 186.977 1345.88 187.412C1341.96 189.368 1326.8 194.062 1322.88 196.096C1320.61 197.27 1318.11 198.757 1318.08 200.83C1318.08 202.61 1319.96 204.351 1319.16 206.014C1318.18 208.087 1314.01 208.224 1312.67 210.18C1311.04 212.586 1314.93 214.953 1318.26 215.872C1321.59 216.792 1325.82 218.22 1325.51 220.899C1325.26 221.779 1324.64 222.572 1323.74 223.156C1322.84 223.74 1321.71 224.081 1320.53 224.127C1318.17 224.165 1315.82 223.887 1313.59 223.305C1295.95 219.902 1277.49 224.557 1260.44 229.174C1258.25 224.949 1259.83 218.67 1257.56 214.464Z" fill="#FCBA9D"/>
<path d="M1082.74 248.695C1082.74 248.695 1111.57 257.517 1132.79 254.564C1154.02 251.61 1197.5 238.915 1197.5 238.915C1197.5 238.915 1195.43 232.264 1205.8 236.959L1278.01 202.062L1291.98 224.949C1291.98 224.949 1224.93 253.879 1208.43 262.446C1191.93 271.014 1128.31 288.697 1128.31 288.697L1101.13 259.356L1091.33 254.564L1082.74 248.695Z" fill="#1E3D44"/>
<path d="M1208.09 247.795C1206.41 245.384 1204.15 243.234 1201.42 241.458C1201.23 241.315 1201.12 241.121 1201.12 240.92C1201.12 240.718 1201.23 240.525 1201.42 240.382C1201.61 240.25 1201.85 240.177 1202.11 240.177C1202.37 240.177 1202.62 240.25 1202.81 240.382C1205.67 242.252 1208.04 244.515 1209.8 247.052C1210.42 247.893 1208.69 248.656 1208.09 247.795Z" fill="#375A60"/>
<path d="M1196 248.421L1191.85 242.123C1191.76 241.953 1191.76 241.766 1191.84 241.595C1191.93 241.425 1192.09 241.282 1192.29 241.192C1192.5 241.103 1192.75 241.072 1192.98 241.107C1193.21 241.141 1193.43 241.238 1193.58 241.379L1197.7 247.658C1197.83 247.833 1197.87 248.039 1197.8 248.233C1197.73 248.427 1197.57 248.593 1197.34 248.695C1197.23 248.744 1197.11 248.776 1196.98 248.789C1196.85 248.801 1196.72 248.795 1196.6 248.77C1196.47 248.744 1196.35 248.7 1196.25 248.64C1196.15 248.581 1196.06 248.506 1196 248.421Z" fill="#375A60"/>
<path d="M1048.36 665.3C1048.36 665.3 1041.35 683.472 1061.88 682.376C1082.4 681.281 1098.34 680.029 1100.97 673.222C1103.6 666.415 1078.87 665.652 1078.87 665.652L1048.36 665.3Z" fill="#1E3D44"/>
<path d="M1045.96 406.726L1049.99 523.406C1049.99 523.406 1040.21 532.521 1051.61 535.475L1044.7 665.241L1083.38 665.925L1105.56 520.667L1115.88 369.424L1045.96 406.726Z" fill="#92CEE0"/>
<path d="M1072.71 416.273C1071.92 420.97 1069.35 425.393 1065.31 429.004C1061.28 432.615 1055.94 435.26 1049.96 436.616C1049.72 436.646 1049.46 436.606 1049.25 436.503C1049.04 436.401 1048.89 436.242 1048.83 436.059C1048.76 435.876 1048.79 435.682 1048.91 435.514C1049.02 435.345 1049.21 435.215 1049.45 435.149C1055.01 433.889 1059.98 431.438 1063.75 428.09C1067.53 424.742 1069.95 420.638 1070.72 416.273C1070.85 415.314 1072.84 415.314 1072.71 416.273Z" fill="#1E3D44"/>
<path d="M1054.53 433.661C1056.49 449.062 1058.45 464.456 1060.43 479.844C1062.72 495.058 1063.74 510.364 1063.5 525.675C1062.31 556.268 1056.82 586.685 1055.76 617.278C1054.95 634.847 1056.11 652.436 1059.22 669.857C1059.4 670.796 1057.49 671.207 1057.31 670.248C1051.51 639.988 1053.55 609.356 1056.62 578.978C1058.19 563.545 1060.07 548.131 1061.1 532.678C1061.95 517.014 1061.3 501.325 1059.17 485.732C1057.03 468.343 1054.73 450.973 1052.51 433.583C1052.39 432.625 1054.37 432.625 1054.5 433.583L1054.53 433.661Z" fill="#1E3D44"/>
<path d="M1086.84 562.782C1084.8 565.532 1081.81 567.801 1078.17 569.335C1077.06 569.805 1076.06 568.494 1077.17 568.025C1080.49 566.617 1083.25 564.547 1085.14 562.039C1085.27 561.868 1085.48 561.743 1085.73 561.692C1085.98 561.64 1086.25 561.667 1086.48 561.765C1086.7 561.864 1086.87 562.026 1086.94 562.217C1087 562.408 1086.97 562.611 1086.84 562.782Z" fill="#1E3D44"/>
<path d="M1080.65 558.87C1078.33 562.055 1075.47 564.994 1072.14 567.614C1071.24 568.318 1069.84 567.242 1070.72 566.558C1073.94 564.024 1076.7 561.183 1078.95 558.107C1079.57 557.266 1081.27 558.01 1080.65 558.87Z" fill="#1E3D44"/>
<path d="M1243.91 573.13C1243.91 573.13 1238.27 587.585 1258.82 587.566C1279.37 587.546 1295.41 587.155 1298.66 580.504C1301.91 573.854 1277.31 571.8 1277.31 571.8L1243.91 573.13Z" fill="#1E3D44"/>
<path d="M1151.52 377.248L1246.42 438.512C1253.32 442.969 1257.7 449.275 1258.64 456.117L1274.58 573.286L1241.05 575.907L1212.68 471.746C1212.68 471.746 1199.61 473.096 1207.91 465.682L1082.74 401.132L1097.98 370.695L1151.52 377.248Z" fill="#92CEE0"/>
<path d="M1248.07 467.502L1240.33 480.216C1239.79 481.097 1238.06 480.334 1238.6 479.454L1246.34 466.739C1246.88 465.859 1248.58 466.622 1248.04 467.502H1248.07Z" fill="#1E3D44"/>
<path d="M1244.35 462.24L1233.08 480.373C1232.54 481.253 1230.81 480.49 1231.36 479.61L1242.62 461.496C1243.17 460.616 1244.89 461.379 1244.35 462.24Z" fill="#1E3D44"/>
<path d="M1073.74 202.903C1072.83 200.245 1071.03 197.81 1068.51 195.838C1065.99 193.866 1062.84 192.424 1059.36 191.653C1055.89 190.882 1052.21 190.809 1048.68 191.441C1045.16 192.072 1041.91 193.386 1039.26 195.255C1036.58 196.993 1034.91 199.458 1034.59 202.121C1034.65 202.649 1034.54 203.181 1034.26 203.666C1033.93 203.948 1033.54 204.178 1033.09 204.342C1032.65 204.507 1032.17 204.603 1031.68 204.625C1029.2 204.891 1026.84 205.631 1024.84 206.776C1023.87 207.368 1023.12 208.144 1022.66 209.027C1022.21 209.91 1022.07 210.868 1022.27 211.804C1023.04 214.444 1027.01 216.107 1027.42 218.787C1027.6 219.98 1027.04 221.173 1027.14 222.386C1027.42 225.418 1031.68 227.12 1034.88 229.076C1039.34 231.912 1043.15 236.567 1048.96 236.157C1054.76 235.746 1057.36 230.836 1058.16 226.611C1058.96 222.386 1059.22 217.554 1063.55 214.875C1064.84 214.073 1066.36 213.544 1067.73 212.919C1068.88 212.222 1069.94 211.435 1070.88 210.571C1072.35 209.625 1073.42 208.374 1073.97 206.972C1074.35 205.623 1074.27 204.223 1073.74 202.903Z" fill="#1E3D44"/>
<path d="M1076.52 216.791C1079.8 225.32 1077.81 237.31 1064.76 237.819C1056.07 238.152 1046.71 232.655 1043.41 224.127C1040.11 215.598 1041.61 206.326 1053.34 203.255C1068.22 199.363 1073.25 208.282 1076.52 216.791Z" fill="#FCBA9D"/>
<path d="M1046.45 222.992C1048.57 225.281 1050.19 229.486 1047.74 230.817C1045.29 232.147 1039.67 230.054 1037.56 227.765C1036.95 227.338 1036.47 226.813 1036.16 226.228C1035.86 225.644 1035.73 225.015 1035.78 224.387C1035.83 223.759 1036.07 223.148 1036.48 222.598C1036.88 222.049 1037.44 221.576 1038.12 221.212C1038.8 220.849 1039.57 220.605 1040.39 220.498C1041.21 220.391 1042.05 220.424 1042.85 220.595C1043.65 220.765 1044.38 221.069 1045.01 221.484C1045.63 221.899 1046.13 222.414 1046.45 222.992Z" fill="#FCBA9D"/>
<path d="M1050.01 244.509C1049.15 246.018 1048.78 247.661 1048.93 249.301C1049.3 250.322 1049.99 251.261 1050.94 252.04C1053.02 254.088 1055.66 255.77 1058.68 256.969C1060.19 257.552 1061.85 257.879 1063.55 257.926C1065.25 257.974 1066.94 257.74 1068.5 257.243C1070.05 256.716 1071.33 255.824 1072.16 254.7C1072.99 253.576 1073.31 252.279 1073.09 251.003C1072.17 247.267 1066.29 245.565 1063.91 242.24C1062.85 240.198 1061.99 238.099 1061.33 235.961C1060.53 234.342 1059.18 232.914 1057.41 231.821C1055.65 230.728 1053.53 230.011 1051.28 229.741C1048.96 229.623 1047.41 229.31 1047.67 230.64C1048 232.479 1050.12 236.509 1050.43 238.328C1050.82 240.389 1050.68 242.488 1050.01 244.509Z" fill="#FCBA9D"/>
<path d="M1044.6 245.468L1082.58 294.898L1072.27 244.842L1114.95 260.49C1119.37 262.13 1123.25 264.507 1126.29 267.444C1129.33 270.381 1131.46 273.801 1132.51 277.45L1170.42 377.62C1170.42 377.62 1144.4 401.347 1114.54 387.283C1114.54 387.283 1106.67 425.994 1040.29 416.253L1002.85 298.673C1001.61 295.235 1001.48 291.622 1002.46 288.137C1003.44 284.652 1005.51 281.396 1008.49 278.643L1044.6 245.468Z" fill="#1E3D44"/>
<path d="M1112.83 385.346C1107.39 366.822 1102.21 348.181 1096.51 329.755C1094.18 320.974 1089.4 312.671 1082.51 305.402C1074.89 298.241 1066.77 291.404 1058.16 284.921C1048.45 277.097 1038.56 269.442 1028.51 261.957C1027.58 261.272 1029 260.216 1029.9 260.881C1039.03 267.741 1048.03 274.691 1056.9 281.733C1065.28 288.364 1073.87 294.976 1081.55 302.076C1088.68 308.627 1093.87 316.256 1096.79 324.454C1099.94 333.51 1102.31 342.86 1105.1 352.093L1114.72 384.896C1115 385.835 1113.09 386.246 1112.81 385.288L1112.83 385.346Z" fill="#375A60"/>
<path d="M1094.39 258.3C1093.48 276.139 1092.19 293.959 1090.5 311.759C1090.5 312.718 1088.41 312.737 1088.51 311.759C1090.23 293.959 1091.53 276.139 1092.41 258.3C1092.41 257.322 1094.45 257.322 1094.39 258.3Z" fill="#375A60"/>
<path d="M1084.23 326.664C1083.49 326.612 1082.8 326.351 1082.3 325.933C1081.8 325.515 1081.52 324.97 1081.52 324.405C1081.52 323.839 1081.8 323.294 1082.3 322.877C1082.8 322.459 1083.49 322.198 1084.23 322.146C1084.98 322.198 1085.67 322.459 1086.17 322.877C1086.67 323.294 1086.95 323.839 1086.95 324.405C1086.95 324.97 1086.67 325.515 1086.17 325.933C1085.67 326.351 1084.98 326.612 1084.23 326.664Z" fill="#375A60"/>
<path d="M1091.17 342.157L1090.5 342.665C1090.24 342.892 1089.9 343.056 1089.52 343.135C1089.17 343.266 1088.78 343.334 1088.39 343.334C1087.99 343.334 1087.6 343.266 1087.25 343.135C1086.87 343.056 1086.53 342.892 1086.27 342.665L1085.81 342.215C1085.55 341.869 1085.42 341.478 1085.42 341.081V340.475C1085.54 340.096 1085.8 339.751 1086.17 339.477L1086.86 338.949C1087.44 338.541 1088.19 338.305 1088.98 338.284C1089.37 338.276 1089.76 338.344 1090.11 338.479C1090.48 338.569 1090.81 338.731 1091.07 338.949L1091.53 339.418C1091.81 339.759 1091.95 340.153 1091.94 340.553V341.159C1091.81 341.538 1091.54 341.883 1091.17 342.157Z" fill="#375A60"/>
<path d="M1093.9 362.715C1093.16 362.662 1092.47 362.402 1091.97 361.984C1091.47 361.566 1091.19 361.021 1091.19 360.456C1091.19 359.89 1091.47 359.345 1091.97 358.927C1092.47 358.509 1093.16 358.249 1093.9 358.196C1094.65 358.249 1095.34 358.509 1095.84 358.927C1096.34 359.345 1096.62 359.89 1096.62 360.456C1096.62 361.021 1096.34 361.566 1095.84 361.984C1095.34 362.402 1094.65 362.662 1093.9 362.715Z" fill="#375A60"/>
<path d="M1072.78 380.867C1064.08 377.444 1055.11 374.413 1045.94 371.791C1044.75 371.458 1045.27 370.011 1046.45 370.343C1055.8 373.003 1064.93 376.08 1073.79 379.556C1074.92 380.006 1073.92 381.297 1072.78 380.867Z" fill="#375A60"/>
<path d="M1147.75 353.091C1142.44 356.474 1137.69 360.329 1133.59 364.573C1132.84 365.356 1131.01 364.573 1131.86 363.83C1136.06 359.5 1140.92 355.561 1146.33 352.094C1147.31 351.487 1148.73 352.543 1147.75 353.169V353.091Z" fill="#375A60"/>
<path d="M1072.45 245.722L1067.32 252.998L1046.2 247.541L1082.58 294.897L1072.45 245.722Z" fill="white"/>
<path d="M1072.76 257.322L1068.01 254.505L1062.21 260.412H1067.32L1070.03 278.545L1082.58 294.898L1078.92 276.432L1070.72 259.63L1072.76 257.322Z" fill="#FE6083"/>
<path d="M1133.82 285.195L1126.29 267.982C1125.88 267.063 1127.79 266.652 1128.2 267.571L1135.73 284.785C1136.15 285.724 1134.21 286.115 1133.82 285.195Z" fill="#375A60"/>
<path d="M1004.16 397.083C1008.57 397.924 1028.92 406.492 1033.38 407.235C1036.19 407.638 1039.09 407.268 1041.57 406.193C1044.06 405.117 1045.95 403.406 1046.92 401.367C1047.49 399.997 1046.92 397.944 1045.06 397.983C1046.03 397.745 1046.87 397.279 1047.47 396.653C1048.06 396.026 1048.37 395.272 1048.36 394.501C1048.16 392.975 1045.37 391.899 1043.93 392.995C1045.71 392.383 1047.15 391.317 1048 389.982C1048.23 389.691 1048.38 389.366 1048.43 389.029C1048.48 388.692 1048.44 388.351 1048.31 388.026C1047.43 386.481 1044.39 387.048 1042.48 387.87C1044.03 387.562 1045.47 386.978 1046.66 386.168C1047.25 385.753 1047.63 385.199 1047.74 384.598C1047.85 383.997 1047.69 383.384 1047.28 382.862C1046.65 382.387 1045.82 382.089 1044.93 382.018C1044.05 381.946 1043.16 382.106 1042.41 382.471C1040.81 383.097 1039.6 384.153 1038.05 384.838C1037.61 385.165 1037.08 385.402 1036.49 385.524C1035.9 385.646 1035.28 385.651 1034.68 385.536C1034.09 385.422 1033.55 385.193 1033.11 384.872C1032.67 384.55 1032.34 384.148 1032.17 383.703C1031.55 382.434 1031.45 381.055 1031.87 379.742C1032.3 378.429 1033.22 377.24 1034.54 376.329C1035.37 375.872 1036.14 375.355 1036.84 374.784C1037.16 374.488 1037.36 374.126 1037.42 373.743C1037.47 373.36 1037.38 372.974 1037.15 372.632C1036.87 372.398 1036.53 372.211 1036.15 372.086C1035.78 371.961 1035.37 371.901 1034.95 371.908C1032.5 371.822 1030.1 372.448 1028.23 373.657C1026.36 374.867 1025.17 376.57 1024.9 378.422C1024.97 380.218 1025.19 382.008 1025.57 383.782C1025.74 384.665 1025.6 385.569 1025.14 386.394C1024.69 387.218 1023.94 387.932 1022.99 388.457C1020.18 388.104 1013.21 383.429 1010.76 382.295C1010.22 387.615 1001.3 391.978 1004.16 397.083Z" fill="#FCBA9D"/>
<path d="M1008.49 278.721C1008.49 278.721 944.746 336.875 944.746 340.552C944.746 344.23 1008.49 401.308 1008.49 401.308L1021.39 381.415L985.492 348.67C985.492 348.67 988.251 346.577 981.34 344.484L1029.1 319.857L1008.49 278.721Z" fill="#1E3D44"/>
<path d="M1012.54 286.369C1015.62 299.138 1016.23 312.178 1014.35 325.08C1014.22 326.038 1012.23 326.058 1012.36 325.08C1014.25 312.311 1013.67 299.401 1010.64 286.76C1010.4 285.821 1012.31 285.411 1012.54 286.369Z" fill="#375A60"/>
<path d="M973.578 342.958L968.42 340.65C968.196 340.545 968.036 340.378 967.973 340.184C967.911 339.99 967.951 339.785 968.085 339.614C968.223 339.449 968.437 339.33 968.685 339.28C968.933 339.229 969.197 339.251 969.426 339.34L974.583 341.667C974.809 341.769 974.972 341.934 975.038 342.126C975.103 342.319 975.065 342.523 974.931 342.694C974.798 342.866 974.58 342.99 974.327 343.039C974.073 343.089 973.803 343.06 973.578 342.958Z" fill="#375A60"/>
<path d="M970.689 347.203L963.443 346.421C963.317 346.396 963.199 346.352 963.095 346.292C962.992 346.232 962.905 346.157 962.84 346.072C962.776 345.986 962.734 345.892 962.718 345.794C962.702 345.696 962.711 345.597 962.746 345.501C962.819 345.311 962.986 345.15 963.212 345.052C963.438 344.953 963.706 344.925 963.958 344.973L971.205 345.736C971.461 345.791 971.678 345.921 971.809 346.097C971.939 346.273 971.973 346.481 971.901 346.675C971.823 346.862 971.656 347.021 971.431 347.119C971.206 347.217 970.942 347.247 970.689 347.203Z" fill="#375A60"/>
<path d="M758.918 403.577C763.919 401.773 768.453 399.302 772.302 396.281C775.19 394.012 777.82 391.039 777.15 387.909C776.376 384.369 771.528 381.591 771.992 378.031C772.353 375.351 775.603 373.532 777.588 371.282C783.184 364.945 777.073 355.497 767.634 352.837C764.075 351.839 759.433 350.881 758.892 348.103C758.829 346.975 759.039 345.848 759.511 344.778C759.975 342.655 759.504 340.475 758.17 338.576C756.836 336.677 754.713 335.165 752.131 334.274C749.549 333.383 746.652 333.162 743.888 333.647C741.124 334.131 738.648 335.293 736.843 336.953C733.31 328.679 712.525 326.117 706.877 333.687C703.757 337.892 704.299 343.467 700.172 347.144C694.086 352.661 680.006 351.976 677.195 358.881C675.055 364.123 681.708 370.089 678.381 374.96C676.215 378.148 670.955 379.068 666.725 380.672C661.46 382.802 657.367 386.285 655.179 390.497C652.991 394.708 652.851 399.373 654.785 403.655C657.983 410.032 665.926 415.763 664.017 422.414C662.109 429.065 649.86 433.877 651.639 440.821C653.419 447.765 666.957 449.447 668.401 456.176C669.407 460.968 663.476 465.35 664.095 470.162C664.894 476.226 674.668 478.612 682.585 479.59C695.479 481.194 709.379 482.661 720.932 478.064C728.22 474.815 734.148 470.068 738.029 464.372C746.125 453.691 749.993 441.467 749.17 429.163C748.557 425.674 748.696 422.133 749.582 418.678C750.975 415.001 754.431 411.988 756.519 408.506C758.608 405.025 762.915 405.905 758.918 403.577Z" fill="#1E3D44"/>
<path d="M770.909 487.063L855.262 556.053C859.904 559.965 864.726 563.878 866.583 568.885C867.774 573.047 867.897 577.344 866.944 581.541C861.425 620.662 855.898 659.836 850.362 699.062C850.391 701.134 849.481 703.15 847.783 704.774C845.618 706.068 842.932 706.759 840.176 706.73L818.488 708.138C815.239 669.271 812.943 629.895 819.7 591.36C816.966 593.062 812.866 590.402 810.829 588.211C809.868 587.083 809.538 585.711 809.91 584.398C810.283 583.085 811.327 581.938 812.815 581.208C782.823 556.855 746.9 535.906 720.416 509.303C718.25 507.112 722.479 497.567 721.396 495.024C717.94 486.711 727.894 477.791 739.215 476.363C750.536 474.935 763.095 480.705 770.909 487.063Z" fill="#1E3D44"/>
<path d="M699.734 477.028C679.413 521.587 708.682 570.821 686.659 614.911C683.771 620.643 678.923 618.824 681.089 624.829C672.966 635.47 667.679 657.886 664.817 669.994C658.593 696.408 648.678 722.244 635.238 747.064C645.269 749.02 657.364 751.582 667.679 750.78C707.006 688.088 738.132 621.093 748.396 552.121C750.078 542.705 750.63 533.192 750.046 523.7C749.122 510.588 743.486 497.918 733.748 487.062C729.962 483.076 724.735 480.007 718.699 478.226C712.663 476.446 706.075 476.029 699.734 477.028Z" fill="#1E3D44"/>
<path d="M722.505 494.398C719.758 498.144 715.775 501.285 710.947 503.514C706.12 505.742 700.612 506.982 694.963 507.112C693.674 507.112 693.674 505.645 694.963 505.606C700.259 505.473 705.42 504.299 709.94 502.201C714.46 500.103 718.185 497.151 720.751 493.635C721.37 492.774 723.072 493.537 722.479 494.398H722.505Z" fill="#375A60"/>
<path d="M702.003 506.838C704.118 526.568 705.158 546.344 705.124 566.166C705.124 575.438 705.382 584.885 704.195 594.138C703.422 600.26 701.23 606.715 693.88 610.138V608.847C695.597 609.502 696.957 610.592 697.725 611.929C698.493 613.265 698.62 614.763 698.084 616.163C697.253 617.968 696.071 619.669 694.576 621.21C692.746 623.42 691.018 625.67 689.419 627.978C683.221 636.873 678.169 646.201 674.333 655.832C666.597 674.767 662.496 694.347 657.132 713.712C654.465 724.848 649.778 735.65 643.207 745.812C642.614 746.672 640.912 745.909 641.505 745.049C653.161 728.168 656.333 708.764 661.207 690.279C665.926 672.537 671.316 654.776 680.78 638.091C683.451 633.319 686.499 628.675 689.909 624.183C692.694 620.525 701.049 613.151 692.874 610.138C692.724 610.073 692.6 609.979 692.513 609.866C692.426 609.753 692.38 609.624 692.38 609.493C692.38 609.362 692.426 609.233 692.513 609.12C692.6 609.006 692.724 608.912 692.874 608.847C701.256 604.935 702.21 596.661 702.545 589.912C703.035 580.68 703.164 571.428 703.138 562.195C703.035 543.73 701.995 525.277 700.018 506.838C700.018 505.88 701.9 505.88 702.003 506.838Z" fill="#375A60"/>
<path d="M749.762 532.659C748.163 524.111 749.763 515.395 754.379 507.504C754.894 506.623 756.596 507.386 756.081 508.267C751.741 515.81 750.259 524.121 751.8 532.268C751.98 533.207 750.046 533.617 749.866 532.659H749.762Z" fill="#375A60"/>
<path d="M755.023 515.953L763.018 510.183C763.92 509.518 765.339 510.574 764.41 511.259L756.442 517.01C755.513 517.675 754.095 516.618 755.023 515.953Z" fill="#375A60"/>
<path d="M757.474 520.629L760.439 518.164C760.624 518.024 760.874 517.945 761.135 517.945C761.397 517.945 761.647 518.024 761.832 518.164C762.016 518.304 762.12 518.494 762.12 518.692C762.12 518.89 762.016 519.08 761.832 519.22L758.892 521.705C758.7 521.842 758.447 521.919 758.183 521.919C757.919 521.919 757.665 521.842 757.474 521.705C757.298 521.557 757.201 521.365 757.201 521.167C757.201 520.968 757.298 520.776 757.474 520.629Z" fill="#375A60"/>
<path d="M858.099 591.987L849.95 597.581C849.762 597.717 849.513 597.793 849.253 597.793C848.994 597.793 848.744 597.717 848.557 597.581C848.465 597.512 848.392 597.429 848.342 597.339C848.292 597.248 848.267 597.151 848.267 597.053C848.267 596.954 848.292 596.857 848.342 596.767C848.392 596.676 848.465 596.594 848.557 596.525L856.706 590.911C856.893 590.774 857.143 590.698 857.402 590.698C857.662 590.698 857.911 590.774 858.099 590.911C858.195 590.98 858.271 591.064 858.323 591.156C858.375 591.248 858.402 591.348 858.402 591.449C858.402 591.549 858.375 591.649 858.323 591.741C858.271 591.834 858.195 591.917 858.099 591.987Z" fill="#375A60"/>
<path d="M850.697 589.855L843.966 596.466C843.774 596.592 843.526 596.657 843.273 596.65C843.019 596.643 842.779 596.563 842.599 596.427C842.42 596.291 842.315 596.109 842.305 595.916C842.296 595.724 842.383 595.536 842.548 595.39L849.279 588.779C849.47 588.641 849.724 588.564 849.988 588.564C850.252 588.564 850.506 588.641 850.697 588.779C850.873 588.926 850.97 589.118 850.97 589.317C850.97 589.515 850.873 589.707 850.697 589.855Z" fill="#375A60"/>
<path d="M695.324 454.67C695.736 447.295 694.911 439.764 694.756 432.351C694.473 420.184 696.665 406.922 707.651 398.198C712.737 394.399 719.026 391.657 725.913 390.235C732.801 388.813 740.055 388.76 746.977 390.08C779.651 395.948 790.198 421.651 786.485 444.263C784.525 456.137 780.657 468.01 782.204 479.923C782.539 482.309 782.874 485.087 780.528 486.691C779.394 487.358 778.069 487.814 776.659 488.021C750.873 493.167 723.62 492.149 698.625 485.106C696.123 484.552 693.851 483.522 692.023 482.113C687.974 478.495 690.605 473.076 692.436 468.538C694.148 464.023 695.118 459.365 695.324 454.67Z" fill="#92CEE0"/>
<path d="M753.296 360.955C756.442 369.503 754.25 381.474 741.201 381.865C732.511 382.119 723.15 376.545 720.055 367.997C716.961 359.449 718.534 350.196 730.37 347.223C745.276 343.448 750.15 352.407 753.296 360.955Z" fill="#FCBA9D"/>
<path d="M723.124 366.901C725.213 369.19 726.76 373.415 724.284 374.725C721.809 376.036 716.238 373.884 714.15 371.596C713.549 371.163 713.083 370.633 712.785 370.046C712.488 369.46 712.367 368.83 712.432 368.203C712.496 367.576 712.745 366.968 713.158 366.423C713.572 365.878 714.141 365.411 714.823 365.054C715.505 364.697 716.284 364.46 717.102 364.36C717.921 364.26 718.758 364.301 719.554 364.478C720.349 364.655 721.082 364.964 721.7 365.383C722.317 365.802 722.804 366.321 723.124 366.901Z" fill="#FCBA9D"/>
<path d="M726.347 388.398C725.469 389.897 725.063 391.531 725.161 393.17C725.536 394.193 726.216 395.136 727.147 395.928C729.198 398.012 731.842 399.717 734.883 400.916C736.381 401.518 738.033 401.865 739.726 401.932C741.418 402 743.11 401.787 744.683 401.308C746.202 400.772 747.459 399.886 748.274 398.776C749.089 397.665 749.421 396.388 749.221 395.126C748.344 391.41 742.491 389.63 740.17 386.285C739.172 384.238 738.371 382.14 737.771 380.006C736.995 378.377 735.661 376.933 733.908 375.823C732.154 374.713 730.044 373.976 727.791 373.688C725.496 373.551 723.949 373.199 724.181 374.549C724.491 376.407 726.554 380.417 726.76 382.255C727.133 384.304 726.993 386.388 726.347 388.398Z" fill="#FCBA9D"/>
<path d="M771.811 451.188L764.9 456.157C764.816 456.246 764.707 456.321 764.58 456.375C764.454 456.43 764.314 456.463 764.17 456.472C764.025 456.482 763.879 456.467 763.743 456.43C763.606 456.393 763.482 456.334 763.378 456.256C763.275 456.179 763.195 456.086 763.143 455.983C763.091 455.88 763.07 455.77 763.08 455.66C763.089 455.551 763.13 455.444 763.2 455.347C763.269 455.25 763.366 455.166 763.482 455.1L770.419 450.113C770.506 450.024 770.616 449.951 770.744 449.899C770.871 449.846 771.012 449.815 771.157 449.807C771.302 449.8 771.447 449.816 771.583 449.855C771.718 449.895 771.841 449.956 771.943 450.034C772.044 450.113 772.123 450.207 772.172 450.31C772.221 450.414 772.24 450.524 772.227 450.634C772.215 450.744 772.171 450.85 772.099 450.946C772.028 451.041 771.929 451.124 771.811 451.188Z" fill="#1E3D44"/>
<path d="M768.588 446.239C767.068 449.481 764.245 452.28 760.516 454.24C760.29 454.316 760.034 454.326 759.799 454.268C759.563 454.21 759.364 454.088 759.24 453.926C759.115 453.764 759.074 453.572 759.124 453.388C759.174 453.204 759.311 453.041 759.51 452.929C762.813 451.192 765.319 448.717 766.679 445.848C766.752 445.658 766.919 445.497 767.145 445.398C767.371 445.3 767.639 445.272 767.892 445.32C768.017 445.345 768.136 445.389 768.239 445.449C768.342 445.508 768.429 445.583 768.494 445.669C768.559 445.755 768.6 445.849 768.616 445.947C768.633 446.045 768.623 446.144 768.588 446.239Z" fill="#1E3D44"/>
<path d="M621.751 540.229L628.456 525.03C628.803 524.236 628.729 523.37 628.247 522.618C627.765 521.865 626.915 521.285 625.877 521.001L598.877 514.174C598.356 514.039 597.806 513.984 597.257 514.01C596.708 514.037 596.172 514.146 595.679 514.331C594.677 514.713 593.916 515.381 593.564 516.189L586.885 531.387L621.751 540.229ZM597.458 517.186L624.458 524.013L619.12 536.219L592.094 529.373L597.458 517.186Z" fill="#DD436B"/>
<path d="M565.732 517.942L649.218 539.082C652.906 540.015 654.898 543.04 653.667 545.838L634.11 590.275C632.879 593.073 628.891 594.583 625.203 593.649L541.717 572.51C538.029 571.576 536.037 568.552 537.268 565.754L556.825 521.317C558.056 518.519 562.044 517.008 565.732 517.942Z" fill="#FE6083"/>
<path d="M637.275 569.844L637.894 569.726C638.177 569.608 638.389 569.412 638.487 569.179L649.808 543.456C649.851 543.357 649.867 543.253 649.856 543.15C649.845 543.046 649.808 542.945 649.745 542.852C649.683 542.76 649.598 542.677 649.493 542.61C649.389 542.542 649.268 542.491 649.138 542.459C649.007 542.427 648.87 542.414 648.733 542.423C648.597 542.431 648.464 542.459 648.341 542.506C648.219 542.554 648.111 542.619 648.022 542.698C647.933 542.777 647.865 542.868 647.823 542.967L636.785 568.064C598.103 558.596 558.39 548.738 552.69 546.899L563.805 521.685L561.82 521.196L550.447 547.036V547.349L550.627 547.642C550.911 548.073 551.453 548.875 636.966 569.746L637.275 569.844Z" fill="#DD436B"/>
<path d="M615.501 559.265L625.701 561.848L622.296 569.585L612.096 567.002L615.501 559.265Z" fill="#FCD936"/>
<path d="M566.491 546.863L576.691 549.445L573.286 557.182L563.086 554.6L566.491 546.863Z" fill="#FCD936"/>
<path d="M553.515 565.011L550.756 558.224C550.738 558.081 550.786 557.938 550.894 557.82C551.001 557.703 551.16 557.617 551.342 557.58C551.525 557.542 551.719 557.555 551.89 557.616C552.061 557.676 552.198 557.781 552.277 557.911L555.037 564.698C555.32 565.422 553.825 565.735 553.515 565.011Z" fill="#DD436B"/>
<path d="M557.383 562.547L556.146 559.124C556.118 559.05 556.111 558.972 556.123 558.895C556.135 558.818 556.168 558.744 556.218 558.677C556.268 558.61 556.336 558.551 556.416 558.503C556.497 558.456 556.589 558.421 556.687 558.4C556.785 558.38 556.888 558.374 556.989 558.383C557.09 558.393 557.188 558.417 557.277 558.455C557.365 558.494 557.443 558.545 557.506 558.606C557.568 558.667 557.614 558.737 557.641 558.811L558.879 562.234C558.935 562.387 558.91 562.551 558.809 562.69C558.707 562.829 558.538 562.932 558.337 562.978C558.136 563.014 557.924 562.989 557.746 562.909C557.568 562.828 557.438 562.699 557.383 562.547Z" fill="#DD436B"/>
<path d="M630.39 554.469L628.714 547.935C628.507 547.192 630.029 546.879 630.209 547.622L631.911 554.156C632.092 554.899 630.57 555.231 630.39 554.469Z" fill="#DD436B"/>
<path d="M624.871 551.339L623.917 546.214C623.89 546.139 623.883 546.061 623.895 545.985C623.908 545.908 623.94 545.834 623.99 545.767C624.041 545.7 624.108 545.641 624.188 545.593C624.269 545.546 624.36 545.51 624.459 545.49C624.557 545.469 624.659 545.464 624.761 545.473C624.862 545.483 624.959 545.507 625.048 545.545C625.136 545.584 625.214 545.635 625.277 545.696C625.34 545.756 625.386 545.826 625.413 545.901L626.393 551.026C626.411 551.168 626.362 551.311 626.255 551.429C626.148 551.547 625.989 551.632 625.806 551.67C625.624 551.707 625.43 551.695 625.259 551.634C625.088 551.573 624.95 551.469 624.871 551.339Z" fill="#DD436B"/>
<path d="M607.387 500.383C604.367 505.958 601.741 511.652 599.521 517.44C599.099 518.15 598.881 518.92 598.881 519.699C598.881 520.478 599.099 521.248 599.521 521.958C600.137 522.578 600.942 523.075 601.868 523.406C604.667 524.643 607.644 525.634 610.739 526.359C613.318 526.985 616.748 527.259 618.476 525.577C619.097 524.746 619.549 523.85 619.817 522.917C620.229 521.997 621.055 521.058 622.396 520.961C623.737 520.863 625.31 521.391 625.696 520.511C625.786 520.114 625.666 519.706 625.361 519.376C623.86 517.252 623.01 514.898 622.876 512.49C622.742 510.081 623.327 507.681 624.588 505.469C620.487 503.239 615.974 500.578 610.92 500.657C609.811 500.754 607.696 501.224 607.387 500.383Z" fill="#FCBA9D"/>
<path d="M714.459 394.012C714.459 394.012 625 424.096 617.393 437.045C609.785 449.995 601.739 500.539 601.739 500.539C601.739 500.539 607.748 508.364 628.121 508.872L633.175 455.159C633.175 455.159 640.525 456.45 636.321 450.581L705.046 428.536L714.459 394.012Z" fill="#92CEE0"/>
<path d="M711.777 400.252C711.525 410.929 706.629 421.244 697.851 429.593C697.052 430.356 695.659 429.28 696.459 428.536C704.888 420.449 709.573 410.482 709.791 400.173C709.829 399.994 709.95 399.832 710.132 399.714C710.314 399.597 710.545 399.532 710.784 399.532C711.023 399.532 711.254 399.597 711.436 399.714C711.618 399.832 711.739 399.994 711.777 400.173V400.252Z" fill="#1E3D44"/>
<path d="M630.364 451.051L624.948 447.315C624.857 447.246 624.784 447.163 624.735 447.073C624.685 446.982 624.66 446.885 624.66 446.787C624.66 446.689 624.685 446.592 624.735 446.501C624.784 446.41 624.857 446.328 624.948 446.259C625.04 446.189 625.148 446.134 625.268 446.097C625.387 446.059 625.515 446.04 625.644 446.04C625.774 446.04 625.902 446.059 626.021 446.097C626.141 446.134 626.249 446.189 626.341 446.259L631.782 449.975C631.97 450.118 632.075 450.312 632.075 450.513C632.075 450.715 631.97 450.908 631.782 451.051C631.588 451.184 631.335 451.258 631.073 451.258C630.811 451.258 630.558 451.184 630.364 451.051Z" fill="#1E3D44"/>
<path d="M625.851 454.572L622.705 453.907C622.579 453.882 622.461 453.838 622.358 453.778C622.254 453.718 622.168 453.643 622.103 453.558C622.038 453.472 621.996 453.378 621.98 453.28C621.964 453.182 621.974 453.082 622.009 452.987C622.042 452.892 622.099 452.802 622.178 452.724C622.257 452.645 622.356 452.58 622.469 452.53C622.582 452.481 622.706 452.45 622.835 452.437C622.964 452.425 623.095 452.433 623.221 452.459L626.367 453.124C626.62 453.176 626.835 453.302 626.966 453.474C627.096 453.647 627.131 453.852 627.063 454.043C626.995 454.235 626.828 454.399 626.601 454.498C626.374 454.597 626.104 454.624 625.851 454.572Z" fill="#1E3D44"/>
<path d="M892.654 368.485C892.211 364.678 893.534 360.873 896.394 357.727C897.055 356.864 898.056 356.18 899.256 355.771C899.861 355.587 900.534 355.584 901.142 355.762C901.749 355.94 902.246 356.285 902.531 356.729C904.154 356.064 905.89 355.57 907.689 355.262C908.448 355.11 909.245 355.105 910.007 355.249C910.769 355.393 911.47 355.68 912.047 356.083C912.46 356.436 912.821 356.905 913.44 357.042C914.059 357.179 914.781 356.886 915.477 356.925C916.173 356.964 917.076 357.629 917.617 358.216C919.243 359.88 920.513 361.729 921.382 363.693C921.896 364.92 921.977 366.229 921.614 367.487C920.385 369.998 917.992 372.084 914.884 373.356C910.036 375.938 904.878 378.598 898.973 378.95C897.917 379.101 896.828 379.035 895.817 378.76C894.806 378.485 893.91 378.011 893.222 377.385C892.803 376.816 892.532 376.192 892.422 375.546C891.752 372.964 890.746 370.637 892.654 368.485Z" fill="#FCBA9D"/>
<path d="M732.252 423.412C732.252 423.412 828.7 436.028 844.637 428.38C860.574 420.732 903.949 382.158 903.949 382.158C903.949 382.158 904.749 373.043 888.115 364.123L844.637 406.863C844.637 406.863 839.479 402.697 838.654 409.348L761.831 394.833L732.252 423.412Z" fill="#92CEE0"/>
<path d="M775.164 404.712L787.155 427.833C787.619 428.732 785.685 429.143 785.247 428.243L773.23 405.123C772.766 404.223 774.7 403.832 775.164 404.712Z" fill="#1E3D44"/>
<path d="M841.646 415.823L840.227 411.167C840.163 410.973 840.199 410.767 840.329 410.592C840.458 410.418 840.671 410.287 840.924 410.228C841.177 410.18 841.444 410.208 841.67 410.306C841.897 410.405 842.063 410.566 842.136 410.756L843.554 415.431C843.611 415.623 843.572 415.824 843.443 415.994C843.314 416.164 843.105 416.292 842.858 416.351C842.605 416.399 842.337 416.371 842.111 416.272C841.885 416.174 841.718 416.013 841.646 415.823Z" fill="#1E3D44"/>
<path d="M833.161 415.372L831.872 411.46C831.836 411.365 831.826 411.265 831.841 411.167C831.856 411.069 831.896 410.974 831.96 410.888C832.023 410.801 832.109 410.726 832.211 410.664C832.313 410.603 832.43 410.558 832.555 410.531C832.681 410.504 832.812 410.496 832.941 410.507C833.07 410.518 833.195 410.549 833.309 410.597C833.423 410.645 833.523 410.71 833.604 410.788C833.685 410.865 833.745 410.954 833.78 411.049L835.095 414.961C835.135 415.148 835.083 415.339 834.947 415.498C834.812 415.657 834.603 415.772 834.362 415.821C834.121 415.87 833.864 415.849 833.642 415.762C833.42 415.676 833.249 415.529 833.161 415.352V415.372Z" fill="#1E3D44"/>
<path d="M861.528 712.324C862.922 712.805 864.04 713.653 864.674 714.71C864.883 715.412 864.794 716.146 864.418 716.807C864.043 717.467 863.402 718.021 862.586 718.388C860.926 719.097 859.073 719.506 857.17 719.581C847.45 720.461 837.62 720.382 827.926 719.346C826.216 719.278 824.561 718.867 823.13 718.153C822.158 717.355 821.424 716.407 820.979 715.374C820.534 714.341 820.388 713.247 820.551 712.167C820.551 709.311 820.732 706.182 823.336 704.128C826.792 701.409 833.651 701.722 837.803 703.287C839.97 704.108 840.382 705.732 842.961 706.299C846.004 707.003 849.021 707.688 851.961 708.607C855.266 709.666 858.464 710.908 861.528 712.324Z" fill="#1E3D44"/>
<path d="M674.668 769.167C675.387 770.192 675.606 771.377 675.287 772.512C674.886 773.165 674.225 773.705 673.396 774.057C672.567 774.408 671.613 774.552 670.671 774.468C668.82 774.266 667.055 773.744 665.513 772.942C657.042 769.191 649.241 764.628 642.304 759.367C640.997 758.53 640.008 757.443 639.441 756.218C639.282 755.141 639.429 754.051 639.874 753.022C640.319 751.993 641.051 751.048 642.02 750.252C644.238 747.963 646.92 745.557 650.633 745.127C655.559 744.54 660.742 747.885 662.831 750.995C663.94 752.638 662.96 754.125 664.456 755.709C666.338 757.666 668.169 759.622 669.794 761.578C671.66 764.014 673.289 766.551 674.668 769.167Z" fill="#1E3D44"/>
<path d="M250.273 655.441L251.95 639.48C252 639.062 251.94 638.64 251.772 638.24C251.603 637.84 251.33 637.47 250.97 637.152C250.612 636.833 250.176 636.57 249.685 636.379C249.193 636.187 248.657 636.071 248.107 636.037L219.74 634.316C218.635 634.256 217.542 634.528 216.698 635.073C215.854 635.618 215.326 636.393 215.227 637.23L213.526 653.192L250.273 655.441ZM219.328 637.485L247.695 639.206L246.354 652.038L217.987 650.297L219.328 637.485Z" fill="#DD436B"/>
<path d="M188.892 644.09L276.622 649.456C280.497 649.693 283.386 652.268 283.073 655.208L278.109 701.904C277.797 704.844 274.402 707.035 270.526 706.798L182.796 701.432C178.92 701.195 176.032 698.619 176.344 695.68L181.308 648.983C181.621 646.044 185.016 643.853 188.892 644.09Z" fill="#FE6083"/>
<path d="M275.391 681.418L275.623 680.538L278.511 653.505C278.533 653.295 278.445 653.087 278.266 652.926C278.088 652.765 277.833 652.664 277.557 652.644C277.419 652.63 277.278 652.639 277.145 652.668C277.011 652.698 276.887 652.749 276.78 652.817C276.673 652.885 276.586 652.969 276.525 653.064C276.463 653.159 276.428 653.262 276.422 653.368L273.612 679.755C240.551 677.995 191.967 675.276 185.313 674.474C185.752 670.288 188.124 647.969 188.124 647.969L186.061 647.832C186.061 647.832 183.25 674.337 183.173 674.982V675.315L183.482 675.589C183.843 675.902 184.668 676.645 274.411 681.457L275.391 681.418Z" fill="#DD436B"/>
<path d="M250.256 675.173L260.975 675.828L260.111 683.959L249.392 683.303L250.256 675.173Z" fill="#FCD936"/>
<path d="M198.742 672.023L209.461 672.679L208.597 680.809L197.878 680.154L198.742 672.023Z" fill="#FCD936"/>
<path d="M191.838 691.903L187.015 685.819C186.474 685.154 187.841 684.568 188.356 685.213L193.179 691.316C193.229 691.383 193.262 691.457 193.276 691.533C193.289 691.609 193.282 691.687 193.256 691.762C193.229 691.836 193.184 691.906 193.122 691.967C193.06 692.028 192.983 692.079 192.895 692.118C192.807 692.157 192.71 692.182 192.609 692.192C192.508 692.202 192.406 692.197 192.308 692.177C192.209 692.157 192.117 692.122 192.037 692.075C191.956 692.028 191.888 691.97 191.838 691.903Z" fill="#DD436B"/>
<path d="M194.778 688.812L192.482 685.721C192.378 685.583 192.35 685.42 192.403 685.266C192.456 685.113 192.586 684.981 192.766 684.9C192.95 684.83 193.162 684.814 193.361 684.853C193.56 684.893 193.733 684.986 193.849 685.115L196.119 688.225C196.169 688.292 196.202 688.365 196.216 688.442C196.229 688.518 196.222 688.596 196.196 688.67C196.169 688.745 196.124 688.815 196.062 688.876C196 688.937 195.923 688.988 195.835 689.027C195.747 689.065 195.65 689.09 195.549 689.1C195.448 689.111 195.346 689.105 195.247 689.085C195.149 689.065 195.057 689.031 194.977 688.984C194.896 688.937 194.828 688.879 194.778 688.812Z" fill="#DD436B"/>
<path d="M263.142 667.725L259.454 661.681C259.356 661.542 259.331 661.38 259.384 661.228C259.437 661.075 259.563 660.944 259.738 660.859C259.917 660.786 260.126 660.768 260.323 660.808C260.519 660.848 260.688 660.943 260.795 661.074L264.405 667.118C264.511 667.253 264.542 667.415 264.492 667.567C264.441 667.719 264.312 667.85 264.135 667.93C263.957 668.011 263.744 668.034 263.543 667.996C263.343 667.957 263.17 667.86 263.064 667.725H263.142Z" fill="#DD436B"/>
<path d="M256.669 665.534L254.09 660.742C254.04 660.589 254.069 660.428 254.169 660.29C254.269 660.152 254.435 660.048 254.632 659.999C254.833 659.963 255.045 659.987 255.223 660.068C255.401 660.148 255.531 660.277 255.586 660.429L258.164 665.221C258.213 665.371 258.184 665.53 258.083 665.665C257.982 665.799 257.818 665.899 257.623 665.945C257.421 665.987 257.205 665.968 257.022 665.891C256.839 665.815 256.703 665.686 256.643 665.534H256.669Z" fill="#DD436B"/>
<path d="M223.84 619.352C222.66 625.309 221.903 631.309 221.571 637.328C221.394 638.097 221.436 638.886 221.694 639.641C221.952 640.397 222.42 641.102 223.067 641.71C223.819 642.182 224.699 642.523 225.645 642.707C228.762 643.397 231.972 643.817 235.213 643.959C237.947 644.096 241.325 643.724 242.408 641.807C242.75 640.885 242.898 639.928 242.846 638.971C242.841 638.491 243.009 638.018 243.331 637.604C243.654 637.191 244.119 636.852 244.677 636.624C245.812 636.311 247.617 636.506 247.746 635.587C247.728 635.388 247.657 635.193 247.537 635.015C247.418 634.837 247.252 634.679 247.05 634.55C244.914 632.761 243.34 630.627 242.446 628.31C241.553 625.992 241.364 623.552 241.892 621.171C237.199 619.743 231.989 618.002 227.115 619C226.187 619.215 224.305 620.075 223.84 619.352Z" fill="#FCBA9D"/>
<path d="M379.291 563.192L481.025 624.359C490.335 629.953 499.851 635.724 505.911 643.47C511.378 650.433 513.647 658.551 515.607 666.512C524.974 704.628 528.856 743.403 527.186 782.155C513.494 784.734 499.236 785.074 485.358 783.153C473.908 748.55 464.727 713.399 456.707 678.268C452.323 678.953 447.991 676.058 445.928 673.046C444.944 671.517 444.622 669.793 445.006 668.117C445.391 666.442 446.462 664.902 448.068 663.715C413.022 644.311 378.44 625.415 343.497 606.011C333.182 600.358 322.196 593.609 320.727 584.103C319.463 576.005 326.116 567.985 335.245 563.701C347.108 558.165 368.409 556.659 379.291 563.192Z" fill="#1E3D44"/>
<path d="M499.593 671.031L491.16 679.324C491.03 679.496 490.816 679.621 490.564 679.672C490.313 679.723 490.045 679.697 489.819 679.598C489.593 679.5 489.428 679.337 489.361 679.146C489.293 678.956 489.328 678.752 489.458 678.581L497.865 670.268C498.004 670.099 498.223 669.976 498.477 669.925C498.731 669.874 499.001 669.899 499.232 669.994C499.459 670.096 499.625 670.262 499.693 670.456C499.76 670.65 499.724 670.857 499.593 671.031Z" fill="#375A60"/>
<path d="M493.919 661.348L491.16 667.627C491.127 667.723 491.069 667.813 490.991 667.891C490.912 667.969 490.813 668.035 490.7 668.084C490.587 668.133 490.462 668.165 490.333 668.177C490.204 668.19 490.073 668.182 489.948 668.156C489.697 668.101 489.485 667.974 489.355 667.803C489.225 667.631 489.188 667.428 489.252 667.236L492.011 660.938C492.099 660.751 492.272 660.595 492.5 660.498C492.727 660.401 492.993 660.37 493.249 660.409C493.5 660.468 493.711 660.599 493.837 660.775C493.962 660.951 493.992 661.156 493.919 661.348Z" fill="#375A60"/>
<path d="M361.033 599.145L363.612 590.734C363.895 589.776 365.804 590.187 365.52 591.125L362.941 599.556C362.658 600.495 360.749 600.104 361.033 599.145Z" fill="#375A60"/>
<path d="M491.624 795.359C493.524 796.467 495.638 797.344 497.891 797.961C502.192 798.633 506.655 798.389 510.785 797.257L535.542 792.367C537.938 792.015 540.218 791.304 542.246 790.274C543.257 789.747 544.041 789.005 544.499 788.143C544.958 787.28 545.071 786.334 544.825 785.423C544.366 784.486 543.538 783.68 542.453 783.114C536.908 779.965 529.12 781.765 522.183 781.745C513.751 781.745 505.653 778.713 497.143 779.672C491.573 780.298 490.051 782.958 489.407 786.909C488.994 790.039 487.73 793.345 491.624 795.359Z" fill="#1E3D44"/>
<path d="M351.698 591.184L389.452 685.447C392.907 694.054 396.389 702.915 395.563 711.893C394.815 719.991 390.612 727.64 386.228 735.034C365.304 770.416 339.363 803.964 308.864 835.087C295.67 831.299 283.695 825.417 273.74 817.834C290.374 784.385 309.276 751.621 328.875 719.248C324.749 717.918 323.331 713.673 323.924 710.309C324.255 708.625 325.282 707.064 326.858 705.851C328.434 704.638 330.477 703.836 332.692 703.56C318.431 672.459 304.325 642.042 290.038 610.94C285.912 601.884 281.838 591.556 287.769 583.105C292.927 575.887 304.299 572.19 315.053 572.601C329.03 573.129 347.675 581.11 351.698 591.184Z" fill="#1E3D44"/>
<path d="M312.81 582.402C313.747 587.382 312.254 592.45 308.612 596.653C304.969 600.857 299.428 603.907 293.03 605.229C291.792 605.464 291.277 603.997 292.515 603.782C298.364 602.554 303.435 599.768 306.797 595.935C310.16 592.101 311.589 587.478 310.824 582.91C310.618 581.952 312.526 581.541 312.732 582.5L312.81 582.402Z" fill="#375A60"/>
<path d="M303.242 601.316C311.649 617.356 320.038 633.396 328.411 649.436L340.97 673.495C343.11 677.584 345.328 681.672 347.365 685.799C349.302 689.186 350.268 692.846 350.202 696.538C349.712 702.23 343.755 707.844 335.683 706.925C334.548 706.788 334.858 705.458 335.941 705.438C344.812 705.301 346.256 713.262 344.09 718.133C341.98 722.08 339.578 725.933 336.895 729.674L329.159 741.762L296.795 791.896L278.588 820.084C278.021 820.964 276.319 820.201 276.86 819.321L313.402 762.497L331.609 734.29C334.677 729.576 337.875 724.881 340.763 720.109C342.751 717.502 343.506 714.459 342.904 711.482C342.577 710.231 341.701 709.1 340.417 708.276C339.134 707.452 337.519 706.982 335.838 706.944L336.121 705.458C342.594 706.201 347.443 701.545 348.087 696.988C348.758 692.195 346.05 687.501 343.781 683.158L329.778 656.301C320.288 638.11 310.763 619.919 301.204 601.727C300.74 600.827 302.674 600.436 303.139 601.316H303.242Z" fill="#375A60"/>
<path d="M373.463 727.855L365.185 732.06C364.959 732.136 364.703 732.146 364.468 732.088C364.233 732.03 364.034 731.909 363.909 731.746C363.785 731.584 363.743 731.393 363.793 731.209C363.843 731.025 363.981 730.861 364.179 730.75L372.457 726.564C372.57 726.512 372.696 726.477 372.826 726.463C372.957 726.448 373.09 726.454 373.218 726.48C373.345 726.505 373.465 726.55 373.569 726.612C373.673 726.673 373.76 726.75 373.824 726.838C373.948 727.01 373.979 727.212 373.912 727.401C373.845 727.59 373.684 727.753 373.463 727.855Z" fill="#375A60"/>
<path d="M368.074 719.073C365.883 721.957 362.276 724.067 358.042 724.941C357.789 724.993 357.519 724.966 357.291 724.867C357.064 724.768 356.898 724.605 356.83 724.413C356.761 724.221 356.796 724.016 356.927 723.844C357.057 723.671 357.273 723.545 357.526 723.493C361.263 722.722 364.444 720.858 366.371 718.31C366.505 718.139 366.722 718.015 366.976 717.965C367.23 717.916 367.5 717.945 367.725 718.046C367.951 718.147 368.114 718.312 368.18 718.504C368.245 718.697 368.207 718.901 368.074 719.073Z" fill="#375A60"/>
<path d="M359.28 614.52C353.618 606.217 351.534 596.775 353.322 587.526C353.503 586.568 355.437 586.978 355.257 587.937C353.548 596.786 355.551 605.819 360.982 613.757C361.575 614.618 359.847 615.381 359.28 614.52Z" fill="#375A60"/>
<path d="M268.557 832.446C268.997 834.237 269.797 835.966 270.93 837.571C273.527 840.242 277.041 842.319 281.09 843.576L303.809 852.516C305.892 853.47 308.208 854.096 310.617 854.354C311.546 854.499 312.508 854.46 313.411 854.241C314.314 854.022 315.127 853.63 315.772 853.103C316.418 852.577 316.873 851.933 317.095 851.234C317.317 850.535 317.297 849.804 317.039 849.112C315.672 843.948 308.322 841.288 303.19 837.786C296.95 833.483 293.572 827.145 286.428 823.546C281.709 821.179 278.254 822.392 274.385 825.053C271.317 827.185 267.448 828.984 268.557 832.446Z" fill="#1E3D44"/>
<path d="M324.337 469.673C338.778 468.226 353.374 473.468 363.586 481.41C373.798 489.351 380.245 499.523 385.326 509.89C392.511 524.536 397.334 539.786 399.69 555.31C400.29 557.777 400.176 560.313 399.354 562.743C397.647 565.754 394.802 568.313 391.179 570.098C374.212 579.748 354.189 585.833 333.131 587.739C312.073 589.645 290.724 587.305 271.239 580.954C270.388 571.917 267.706 562.841 266.855 553.824C265.179 536.219 263.606 517.93 271.291 501.225C278.976 484.52 298.446 469.458 321.784 469.243C322.429 468.128 323.718 470.788 324.337 469.673Z" fill="#92CEE0"/>
<path d="M341.769 406.961C339.733 404.623 336.644 402.926 333.079 402.189C331.285 401.834 329.386 401.948 327.687 402.512C325.989 403.076 324.591 404.058 323.718 405.299C323.449 406.024 322.963 406.694 322.3 407.255C320.262 408.507 317.013 406.316 314.563 407.255C311.623 408.448 314.563 411.969 313.532 414.394C312.5 416.82 308.709 417.113 305.666 416.761C302.623 416.409 299.322 415.646 296.615 416.761C292.308 418.541 293.03 423.412 295.067 426.816C295.575 427.473 295.834 428.225 295.815 428.987C295.506 431.08 291.225 432.058 291.56 434.131C291.818 435.657 294.371 436.263 295.325 437.593C297.362 440.469 291.044 443.227 291.431 446.455C291.818 449.682 297.904 450.151 301.179 452.323C304.454 454.494 304.996 457.917 308.606 459.11C312.216 460.304 317.064 457.604 318.509 454.494C319.953 451.384 319.592 447.941 320.855 444.714C322.154 441.518 324.977 438.805 328.772 437.104C331.712 435.755 335.039 434.992 338.004 433.681C344.503 430.865 346.721 423.588 346.54 418.346C346.492 414.274 344.83 410.307 341.769 406.961Z" fill="#1E3D44"/>
<path d="M341.77 439.432C344.839 447.98 342.518 459.951 329.469 460.264C320.778 460.479 311.417 454.846 308.451 446.278C305.486 437.711 307.11 428.478 318.921 425.563C334.033 421.866 338.804 430.864 341.77 439.432Z" fill="#FCBA9D"/>
<path d="M311.623 445.203C313.686 447.511 315.234 451.756 312.732 453.027C310.231 454.299 304.686 452.147 302.623 449.839C302.04 449.402 301.593 448.873 301.312 448.289C301.031 447.705 300.924 447.082 300.999 446.463C301.074 445.844 301.328 445.246 301.744 444.711C302.16 444.176 302.728 443.717 303.405 443.368C304.083 443.019 304.854 442.788 305.663 442.692C306.473 442.596 307.3 442.637 308.086 442.813C308.871 442.988 309.596 443.293 310.208 443.707C310.82 444.12 311.303 444.631 311.623 445.203Z" fill="#FCBA9D"/>
<path d="M314.64 466.719C313.76 468.192 313.337 469.798 313.402 471.414C313.753 472.441 314.415 473.392 315.337 474.191C317.338 476.275 319.929 477.992 322.918 479.218C324.41 479.83 326.062 480.186 327.755 480.26C329.448 480.334 331.142 480.126 332.718 479.649C334.28 479.143 335.586 478.268 336.441 477.155C337.296 476.041 337.654 474.748 337.463 473.467C336.612 469.731 330.809 467.932 328.488 464.567C327.525 462.511 326.749 460.406 326.168 458.269C325.409 456.636 324.092 455.186 322.352 454.065C320.612 452.945 318.512 452.195 316.265 451.892C313.944 451.755 312.397 451.403 312.629 452.753C312.938 454.591 314.95 458.621 315.208 460.479C315.562 462.567 315.369 464.688 314.64 466.719Z" fill="#FCBA9D"/>
<path d="M292.772 477.282C273.884 491.234 256.451 506.276 240.629 522.272C232.892 529.577 226.483 537.636 221.571 546.234C217.546 554.697 215.107 563.546 214.325 572.523C212.292 588.76 212.412 605.11 214.686 621.327C224.976 622.658 235.461 622.895 245.838 622.032C245.322 604.427 247.333 586.255 246.818 568.709C248.803 568.22 252.311 565.795 251.975 564.23C251.824 563.445 251.33 562.722 250.573 562.176C249.815 561.63 248.838 561.292 247.798 561.217C281.219 542.674 296.95 508.579 292.772 477.282Z" fill="#92CEE0"/>
<path d="M440.899 457.447C437.76 454.455 436.092 450.727 436.18 446.904C436.123 445.921 436.475 444.95 437.186 444.126C437.557 443.721 438.117 443.437 438.754 443.332C439.39 443.227 440.055 443.308 440.615 443.559C441.476 442.311 442.57 441.165 443.865 440.156C444.387 439.712 445.049 439.376 445.788 439.178C446.527 438.979 447.32 438.926 448.094 439.021C448.677 439.216 449.318 439.29 449.951 439.236C450.595 439.08 450.956 438.532 451.575 438.278C451.997 438.168 452.445 438.127 452.89 438.157C453.334 438.187 453.765 438.289 454.154 438.454C456.72 439.173 459.128 440.182 461.297 441.447C462.627 442.253 463.65 443.313 464.263 444.518C465.011 447.114 464.508 449.827 462.845 452.166C460.679 456.352 458.306 460.734 453.638 463.492C452.873 464.058 451.921 464.458 450.883 464.651C449.844 464.843 448.757 464.821 447.733 464.587C446.964 464.287 446.273 463.882 445.696 463.394C443.426 461.633 440.873 460.029 440.899 457.447Z" fill="#FCBA9D"/>
<path d="M354.354 475.581C375.887 486.046 390.457 498.212 408.87 511.651C408.276 510.301 408.169 508.856 408.56 507.465C408.558 506.715 408.915 505.99 409.565 505.425C410.215 504.86 411.114 504.493 412.093 504.393C414.337 504.393 415.781 506.154 416.735 507.699C422.409 489.097 430.738 471.179 436.437 452.597C445.349 455.061 453.975 458.084 462.226 461.634C454.489 483.6 448.816 506.741 441.182 528.707C439.79 532.62 437.649 537.334 432.44 538.488C429.728 538.925 426.909 538.79 424.291 538.097C403.841 533.95 385.609 525.167 368.15 516.169C358.712 511.318 348.784 505.821 345.225 497.606C341.769 489.899 351.233 483.405 354.354 475.581Z" fill="#92CEE0"/>
<path d="M286.325 488.549C286.599 508.528 280.968 528.299 269.847 546.41C269.305 547.29 267.603 546.527 268.145 545.647C279.085 527.768 284.618 508.259 284.339 488.549C284.377 488.37 284.498 488.208 284.68 488.09C284.862 487.973 285.093 487.908 285.332 487.908C285.571 487.908 285.802 487.973 285.984 488.09C286.166 488.208 286.287 488.37 286.325 488.549Z" fill="#1E3D44"/>
<path d="M243.775 560.65L235.471 561.432C235.211 561.422 234.965 561.338 234.784 561.197C234.602 561.055 234.498 560.867 234.491 560.669C234.498 560.474 234.603 560.287 234.786 560.149C234.968 560.011 235.213 559.931 235.471 559.926L243.775 559.144C244.035 559.153 244.28 559.237 244.462 559.379C244.644 559.52 244.748 559.709 244.755 559.906C244.748 560.102 244.643 560.288 244.46 560.426C244.278 560.565 244.033 560.645 243.775 560.65Z" fill="#1E3D44"/>
<path d="M240.938 555.349L235.781 556.17C235.655 556.197 235.524 556.205 235.395 556.194C235.266 556.182 235.14 556.152 235.027 556.103C234.913 556.055 234.813 555.991 234.732 555.913C234.651 555.836 234.591 555.747 234.556 555.652C234.52 555.557 234.51 555.457 234.525 555.359C234.54 555.261 234.58 555.166 234.644 555.08C234.707 554.994 234.792 554.918 234.895 554.856C234.997 554.795 235.114 554.75 235.239 554.723L240.397 553.901C240.649 553.858 240.914 553.888 241.139 553.986C241.363 554.084 241.531 554.242 241.609 554.429C241.644 554.524 241.653 554.624 241.637 554.722C241.621 554.82 241.579 554.914 241.515 555C241.45 555.085 241.363 555.16 241.26 555.22C241.156 555.28 241.038 555.324 240.912 555.349H240.938Z" fill="#1E3D44"/>
<path d="M392.727 528.14C390.002 515.655 383.467 503.825 373.643 493.596C372.896 492.794 374.624 492.05 375.371 492.833C385.288 503.176 391.884 515.131 394.635 527.749C394.841 528.688 392.933 529.098 392.727 528.14Z" fill="#1E3D44"/>
<path d="M417.045 516.404L414.027 512.491C413.9 512.319 413.864 512.115 413.926 511.923C413.988 511.731 414.144 511.563 414.363 511.455C414.592 511.355 414.864 511.328 415.12 511.379C415.376 511.43 415.595 511.556 415.73 511.729L418.747 515.641C418.88 515.81 418.919 516.011 418.856 516.202C418.793 516.392 418.633 516.556 418.412 516.658C418.184 516.755 417.916 516.782 417.662 516.735C417.409 516.688 417.188 516.569 417.045 516.404Z" fill="#1E3D44"/>
<path d="M408.303 517.107L404.228 509.283C404.156 509.094 404.187 508.89 404.312 508.718C404.438 508.546 404.649 508.418 404.898 508.364C405.155 508.315 405.426 508.342 405.656 508.44C405.887 508.539 406.059 508.7 406.136 508.892L410.211 516.716C410.246 516.811 410.256 516.91 410.24 517.008C410.223 517.106 410.182 517.201 410.117 517.286C410.052 517.372 409.965 517.447 409.862 517.507C409.759 517.567 409.641 517.61 409.515 517.635C409.265 517.685 409 517.659 408.775 517.565C408.549 517.47 408.38 517.313 408.303 517.127V517.107Z" fill="#1E3D44"/>
<path d="M366.139 549.403C364.923 554.372 361.39 558.844 356.185 562C355.205 562.587 353.787 561.53 354.792 560.924C359.735 557.95 363.088 553.718 364.231 549.012C364.463 548.053 366.371 548.464 366.139 549.403Z" fill="#1E3D44"/>
<path d="M356.495 543.144C352.527 549.747 346.843 555.675 339.784 560.572C338.83 561.237 337.411 560.161 338.366 559.516C345.295 554.693 350.88 548.867 354.793 542.381C355.308 541.5 357.036 542.263 356.495 543.144Z" fill="#1E3D44"/>
<path d="M2.63037 465.546C3.02637 465.551 3.41858 465.486 3.77637 465.357C4.13416 465.228 4.44788 465.038 4.69336 464.803L131.055 347.693L474.346 333.374L475.094 332.748L690.94 148.877L981.623 159.773L1300.21 30.5544C1300.52 30.426 1300.79 30.253 1301 30.0454C1301.22 29.8378 1301.39 29.5996 1301.48 29.3444C1301.58 29.0891 1301.61 28.822 1301.57 28.558C1301.53 28.2941 1301.42 28.0386 1301.25 27.8061C1301.08 27.5737 1300.86 27.3688 1300.58 27.2031C1300.31 27.0375 1300 26.9144 1299.66 26.8408C1299.32 26.7673 1298.97 26.7447 1298.62 26.7744C1298.27 26.8041 1297.94 26.8855 1297.63 27.0139L980.437 155.704L688.748 144.75L471.948 329.403L128.502 343.741L0.59314 462.221C0.361206 462.421 0.185791 462.656 0.0778809 462.91C-0.0300293 463.164 -0.0682373 463.432 -0.0344238 463.698C-0.000610352 463.964 0.104614 464.221 0.274658 464.455C0.44458 464.689 0.675903 464.894 0.954224 465.057C1.42334 465.36 2.01453 465.532 2.63037 465.546Z" fill="#42A147"/>
<path d="M1301.42 48.3734L1279.86 15.1201H1334.04L1301.42 48.3734Z" fill="#42A147"/>
<path d="M979.612 165.073C973.317 165.073 968.214 161.202 968.214 156.427C968.214 151.652 973.317 147.781 979.612 147.781C985.907 147.781 991.01 151.652 991.01 156.427C991.01 161.202 985.907 165.073 979.612 165.073Z" fill="#42A147"/>
<path d="M689.367 156.427C683.072 156.427 677.969 152.557 677.969 147.782C677.969 143.007 683.072 139.136 689.367 139.136C695.662 139.136 700.766 143.007 700.766 147.782C700.766 152.557 695.662 156.427 689.367 156.427Z" fill="#42A147"/>
<path d="M473.882 339.907C467.587 339.907 462.484 336.036 462.484 331.261C462.484 326.486 467.587 322.615 473.882 322.615C480.177 322.615 485.28 326.486 485.28 331.261C485.28 336.036 480.177 339.907 473.882 339.907Z" fill="#42A147"/>
<path d="M126.517 354.968C120.221 354.968 115.118 351.098 115.118 346.323C115.118 341.548 120.221 337.677 126.517 337.677C132.812 337.677 137.915 341.548 137.915 346.323C137.915 351.098 132.812 354.968 126.517 354.968Z" fill="#42A147"/>
<path d="M212.674 255.952C296.021 255.43 379.343 256.356 462.638 258.73C460.781 252.685 455.34 245.702 447.346 244.392C443.319 243.784 439.148 244.035 435.297 245.116C431.446 246.196 428.065 248.065 425.529 250.514C423.621 237.389 418.051 221.936 403.945 214.17C389.838 206.405 368.125 206.053 356.211 215.677C348.939 221.545 346.334 229.799 344.013 237.663C343.575 226.552 340.454 214.483 331.119 205.896C321.784 197.309 307.084 191.754 292.566 193.123C283.186 194.047 274.616 197.632 268.583 203.158C257.365 213.544 257.391 228.274 257.958 241.673C255.379 237.213 252.362 231.892 246.741 229.428C238.437 225.848 227.219 229.076 221.623 234.944C215.735 241.033 212.596 248.401 212.674 255.952Z" fill="#92CEE0"/>
<path d="M717.063 72.7071C633.716 72.1724 550.395 73.0983 467.099 75.4847C468.956 69.4405 474.397 62.4377 482.392 61.1467C486.423 60.5355 490.598 60.7841 494.454 61.865C498.31 62.9458 501.696 64.8165 504.234 67.2692C506.142 54.144 511.713 38.691 525.793 30.9254C539.873 23.1598 561.638 22.7881 573.552 32.412C580.825 38.2802 583.429 46.5544 585.75 54.3983C586.189 43.3073 589.309 31.2384 598.644 22.6316C607.979 14.0249 622.679 8.50878 637.197 9.87804C646.575 10.7895 655.143 14.3779 661.155 19.9127C672.398 30.2994 672.372 45.0091 671.805 58.4278C674.384 53.9679 677.401 48.6474 683.023 46.1828C691.327 42.6031 702.544 45.8307 708.14 51.6793C714.011 57.7811 717.14 65.1533 717.063 72.7071Z" fill="#92CEE0"/>
<path d="M1713.26 51.2883C1645.43 50.858 1577.64 51.6143 1509.87 53.5574C1511.36 48.6281 1515.8 42.9359 1522.32 41.8209C1525.62 41.3409 1529.02 41.5661 1532.15 42.4713C1535.29 43.3765 1538.03 44.9259 1540.06 46.9459C1541.61 36.2657 1546.15 23.6881 1557.6 17.37C1569.05 11.0519 1586.77 10.7585 1596.46 18.5828C1602.39 23.3752 1604.51 30.0845 1606.39 36.4809C1606.75 27.4438 1609.28 17.6243 1616.71 10.6411C1624.13 3.65795 1636.33 -0.958379 1648.19 0.176144C1655.82 0.921835 1662.79 3.83746 1667.69 8.33297C1676.82 16.7832 1676.82 28.7544 1676.35 39.6301C1678.52 36.0114 1680.92 31.6298 1685.48 29.6737C1692.24 26.7983 1701.37 29.3412 1705.96 34.1923C1710.75 39.1488 1713.31 45.1431 1713.26 51.2883Z" fill="#92CEE0"/>
<path d="M1365.07 199.911C1448.41 199.389 1531.73 200.315 1615.03 202.688C1613.17 196.644 1607.73 189.661 1599.74 188.35C1595.71 187.745 1591.54 187.999 1587.69 189.083C1583.83 190.167 1580.45 192.039 1577.92 194.492C1576.01 181.347 1570.44 165.895 1556.36 158.129C1542.28 150.363 1520.52 150.011 1508.6 159.635C1501.33 165.503 1498.73 173.758 1496.41 181.621C1495.97 170.53 1492.85 158.461 1483.51 149.855C1474.18 141.248 1459.5 135.712 1444.83 137.082C1435.46 138.006 1426.9 141.592 1420.87 147.116C1409.63 157.503 1409.65 172.232 1410.22 185.651C1407.64 181.171 1404.63 175.87 1399 173.386C1390.7 169.807 1379.48 173.034 1373.89 178.902C1368.06 185.008 1364.97 192.372 1365.07 199.911Z" fill="#92CEE0"/>
<path d="M73.7798 476.852C131.82 475.887 189.852 476.721 247.875 479.355C247.694 475.169 244.239 469.027 238.901 467.951C236.219 467.446 233.396 467.584 230.823 468.348C228.25 469.112 226.053 470.464 224.537 472.216L225.388 471.727C215.924 449.486 190.729 430.767 160.376 426.737C151.215 425.333 141.745 425.615 132.757 427.559C111.198 432.723 97.9175 450.014 95.3902 467.052C90.9547 462.768 83.2955 458.954 76.7454 461.183C70.1952 463.413 71.1495 471.961 73.7798 476.852Z" fill="#92CEE0"/>
<path d="M891.416 94.8308C937.697 94.0744 983.987 94.7265 1030.29 96.7869C1030.13 93.4615 1027.37 88.5518 1023.14 87.6911C1021 87.2923 1018.75 87.4053 1016.69 88.0145C1014.64 88.6238 1012.88 89.6996 1011.67 91.0947L1012.36 90.7035C1004.78 72.9619 984.692 58.0371 960.477 54.79C953.173 53.6709 945.622 53.8922 938.454 55.4355C921.253 59.5628 910.654 73.3531 908.643 86.9478C905.084 83.5247 898.998 80.4928 893.763 82.2924C888.528 84.092 889.302 90.9382 891.416 94.8308Z" fill="#92CEE0"/>
<path d="M1148.45 172.663C1187.3 172.024 1226.15 172.578 1264.98 174.326C1264.98 171.548 1262.56 167.421 1259 166.697C1257.2 166.361 1255.32 166.455 1253.59 166.966C1251.87 167.477 1250.4 168.381 1249.38 169.553L1249.95 169.22C1243.6 154.335 1226.74 141.835 1206.42 139.077C1200.28 138.137 1193.94 138.332 1187.93 139.645C1173.49 143.087 1164.59 154.667 1162.91 166.071C1159.92 163.196 1154.82 160.653 1150.43 162.159C1146.05 163.665 1146.69 169.396 1148.45 172.663Z" fill="#92CEE0"/>
</svg>
