<svg width="1161" height="564" viewBox="0 0 1161 564" fill="none" xmlns="http://www.w3.org/2000/svg">
<g filter="url(#filter0_d_828_3899)">
<path d="M712.305 289.389L781.119 479.2C782.396 482.72 784.39 485.938 786.973 488.648C789.557 491.359 792.674 493.505 796.129 494.949C799.584 496.394 803.301 497.106 807.045 497.041C810.79 496.976 814.48 496.135 817.882 494.571C903.068 455.497 977.375 396.133 1034.3 321.679C1036.57 318.706 1038.2 315.295 1039.08 311.662C1039.97 308.028 1040.09 304.25 1039.45 300.565C1038.8 296.881 1037.4 293.371 1035.33 290.256C1033.26 287.14 1030.57 284.488 1027.42 282.465L857.548 173.366C851.984 169.811 845.314 168.405 838.788 169.413C832.263 170.42 826.327 173.771 822.094 178.839C795.262 210.668 762.428 236.904 725.464 256.053C719.595 259.063 715.024 264.107 712.602 270.241C710.181 276.376 710.075 283.182 712.305 289.389V289.389Z" fill="white"/>
<path d="M817.674 494.117L817.674 494.117C814.334 495.652 810.712 496.477 807.037 496.541C803.362 496.605 799.713 495.906 796.322 494.488C792.931 493.07 789.871 490.964 787.335 488.303C784.799 485.643 782.843 482.485 781.59 479.03L712.776 289.22C712.776 289.22 712.775 289.22 712.775 289.22C710.587 283.127 710.69 276.446 713.067 270.425C715.444 264.403 719.932 259.453 725.692 256.498L725.694 256.497C762.716 237.318 795.602 211.04 822.476 179.161L822.478 179.159C826.633 174.185 832.459 170.896 838.865 169.907C845.27 168.918 851.816 170.297 857.278 173.787C857.278 173.787 857.279 173.787 857.279 173.787L1027.15 282.886C1030.24 284.871 1032.88 287.475 1034.91 290.532C1036.94 293.59 1038.32 297.036 1038.95 300.652C1039.59 304.268 1039.47 307.976 1038.6 311.543C1037.73 315.11 1036.13 318.457 1033.9 321.375C977.027 395.765 902.785 455.077 817.674 494.117Z" stroke="#BDC4C6"/>
</g>
<g filter="url(#filter1_d_828_3899)">
<path d="M574.316 301.016C551.107 301.028 527.967 298.49 505.311 293.45C498.92 292.054 492.238 293.033 486.516 296.204C480.793 299.374 476.419 304.518 474.212 310.677L405.397 500.488C404.115 503.989 403.573 507.718 403.804 511.44C404.035 515.161 405.035 518.795 406.741 522.11C408.447 525.426 410.822 528.352 413.715 530.704C416.609 533.056 419.958 534.783 423.553 535.775C472.687 549.169 523.389 555.939 574.316 555.906C625.211 555.933 675.882 549.163 724.984 535.775C728.579 534.782 731.929 533.055 734.823 530.704C737.717 528.352 740.093 525.427 741.801 522.112C743.508 518.797 744.511 515.164 744.746 511.442C744.98 507.721 744.442 503.991 743.164 500.488L674.444 310.677C672.227 304.515 667.845 299.369 662.114 296.199C656.383 293.03 649.695 292.052 643.297 293.45C620.65 298.491 597.517 301.028 574.316 301.016V301.016Z" fill="white"/>
<path d="M505.096 294.426C527.822 299.482 551.035 302.028 574.316 302.016C597.59 302.028 620.795 299.483 643.512 294.426C649.673 293.081 656.112 294.022 661.63 297.074C667.149 300.126 671.369 305.082 673.503 311.015L673.504 311.017L742.223 500.828L742.224 500.83C743.455 504.204 743.974 507.796 743.748 511.38C743.522 514.963 742.556 518.462 740.912 521.654C739.267 524.846 736.979 527.663 734.192 529.928C731.405 532.192 728.18 533.855 724.719 534.811C675.703 548.175 625.122 554.933 574.317 554.906H574.315C523.479 554.938 472.866 548.181 423.819 534.811C420.358 533.856 417.132 532.193 414.346 529.928C411.56 527.663 409.273 524.846 407.631 521.653C405.988 518.46 405.025 514.961 404.802 511.378C404.579 507.794 405.102 504.203 406.336 500.831L406.337 500.828L475.152 311.018L475.153 311.014C477.278 305.084 481.49 300.131 487 297.078C492.51 294.026 498.942 293.083 505.096 294.426Z" stroke="#367FD3" stroke-width="2"/>
</g>
<g filter="url(#filter2_d_828_3899)">
<path d="M290.944 180.505L121.145 289.604C117.996 291.624 115.3 294.275 113.228 297.391C111.155 300.506 109.752 304.017 109.105 307.702C108.459 311.387 108.584 315.167 109.473 318.801C110.362 322.436 111.994 325.846 114.268 328.817C171.169 403.263 245.45 462.626 330.61 501.71C334.013 503.274 337.703 504.115 341.447 504.18C345.191 504.245 348.908 503.533 352.363 502.088C355.818 500.643 358.936 498.498 361.519 495.787C364.103 493.076 366.096 489.859 367.373 486.339L436.187 296.528C438.404 290.321 438.289 283.52 435.864 277.392C433.438 271.263 428.869 266.225 423.005 263.215C386.046 244.059 353.219 217.814 326.398 185.977C322.165 180.91 316.23 177.559 309.704 176.551C303.178 175.544 296.509 176.949 290.944 180.505V180.505Z" fill="white"/>
<path d="M326.398 185.977C353.219 217.814 386.046 244.059 423.005 263.215C428.869 266.225 433.438 271.263 435.864 277.392C438.289 283.52 438.404 290.321 436.187 296.528L367.373 486.339C366.096 489.859 364.103 493.076 361.519 495.787C358.936 498.498 355.818 500.643 352.363 502.088C348.908 503.533 345.191 504.245 341.447 504.18C337.703 504.115 334.013 503.274 330.61 501.71L326.398 185.977ZM326.398 185.977C322.165 180.91 316.23 177.559 309.704 176.551M326.398 185.977L309.704 176.551M309.704 176.551C303.178 175.544 296.509 176.949 290.944 180.505L309.704 176.551ZM121.415 290.024L121.415 290.024L291.213 180.926C296.675 177.436 303.222 176.057 309.628 177.045C316.034 178.034 321.859 181.324 326.015 186.298L326.016 186.3C352.879 218.187 385.757 244.473 422.775 263.659L422.777 263.66C428.532 266.614 433.018 271.56 435.399 277.576C437.779 283.591 437.892 290.267 435.717 296.36L366.903 486.168C365.65 489.623 363.693 492.781 361.157 495.442C358.622 498.103 355.561 500.209 352.17 501.627C348.779 503.045 345.131 503.744 341.456 503.68C337.781 503.616 334.159 502.791 330.819 501.256L330.819 501.256C245.733 462.206 171.516 402.894 114.666 328.514L114.665 328.513C112.434 325.597 110.831 322.25 109.959 318.682C109.086 315.115 108.964 311.406 109.598 307.789C110.232 304.171 111.61 300.725 113.644 297.667C115.678 294.61 118.324 292.007 121.415 290.024Z" stroke="#BDC4C6"/>
</g>
<g filter="url(#filter3_d_828_3899)">
<path d="M232.968 0.152483H31.1652C27.4194 0.140486 23.7119 0.905765 20.277 2.39994C16.8421 3.89411 13.7546 6.08468 11.2096 8.83315C8.66468 11.5816 6.71763 14.8282 5.49159 18.3677C4.26554 21.9071 3.78718 25.6624 4.08673 29.3962C10.3127 107.357 32.5823 183.191 69.4985 252.139C71.267 255.425 73.6963 258.31 76.6336 260.612C79.5709 262.914 82.9527 264.583 86.5664 265.515C90.1801 266.447 93.9475 266.622 97.6317 266.027C101.316 265.433 104.837 264.082 107.975 262.061L277.726 152.962C283.279 149.366 287.328 143.867 289.116 137.497C290.903 131.128 290.305 124.325 287.435 118.365C273.334 88.5366 264.019 56.6737 259.833 23.9472C259.021 17.3896 255.844 11.3536 250.898 6.97248C245.951 2.59131 239.576 0.166226 232.968 0.152483V0.152483Z" fill="white"/>
<path d="M31.1652 0.652483H31.1636C27.487 0.640705 23.8479 1.39185 20.4764 2.85844C17.105 4.32502 14.0745 6.47514 11.5765 9.17286C9.07855 11.8706 7.16745 15.0572 5.96405 18.5313C4.76064 22.0054 4.29111 25.6914 4.58513 29.3562L4.58514 29.3564C10.8056 107.248 33.0554 183.015 69.9388 251.902C71.6746 255.127 74.059 257.959 76.942 260.218C79.8251 262.478 83.1443 264.117 86.6912 265.031C90.2381 265.946 93.9359 266.117 97.5521 265.533C101.168 264.95 104.625 263.625 107.704 261.641L107.704 261.641L277.455 152.543L31.1652 0.652483ZM31.1652 0.652483H232.968M31.1652 0.652483H232.968M232.968 0.652483C239.454 0.666098 245.711 3.04647 250.566 7.34677C255.421 11.6472 258.54 17.5719 259.337 24.0086L259.337 24.0107C263.53 56.7892 272.859 88.7028 286.983 118.578L286.984 118.582C289.802 124.432 290.389 131.11 288.634 137.362C286.88 143.614 282.905 149.011 277.456 152.542L232.968 0.652483Z" stroke="#BDC4C6"/>
</g>
<g filter="url(#filter4_d_828_3899)">
<path d="M900.488 23.9471C896.29 56.6798 886.95 88.5446 872.815 118.365C869.946 124.328 869.352 131.132 871.144 137.502C872.936 143.872 876.99 149.369 882.547 152.962L1052.35 262.061C1055.48 264.082 1059 265.432 1062.69 266.027C1066.37 266.621 1070.14 266.447 1073.75 265.515C1077.37 264.583 1080.75 262.914 1083.69 260.612C1086.62 258.31 1089.05 255.425 1090.82 252.139C1127.71 183.183 1149.94 107.35 1156.14 29.3961C1156.44 25.6703 1155.96 21.923 1154.74 18.39C1153.52 14.8571 1151.58 11.6151 1149.05 8.86805C1146.51 6.12102 1143.44 3.92848 1140.01 2.42849C1136.59 0.92849 1132.89 0.153512 1129.16 0.152344L927.257 0.152344C920.667 0.194258 914.318 2.6315 909.392 7.00958C904.467 11.3877 901.302 17.4077 900.488 23.9471V23.9471Z" fill="white"/>
<path d="M873.265 118.581L873.267 118.579C887.425 88.7112 896.779 56.7956 900.984 24.0107L900.488 23.9471L900.984 24.0089C901.783 17.5899 904.89 11.6807 909.725 7.38329C914.559 3.08618 920.791 0.693866 927.259 0.652344L1129.16 0.652344C1132.82 0.653491 1136.45 1.41416 1139.81 2.88646C1143.17 4.35876 1146.19 6.5108 1148.68 9.20711C1151.17 11.9034 1153.07 15.0856 1154.27 18.5533C1155.47 22.021 1155.93 25.6991 1155.64 29.3561L1155.64 29.3565C1149.45 107.242 1127.23 183.007 1090.38 251.902C1088.65 255.127 1086.26 257.959 1083.38 260.218C1080.5 262.478 1077.18 264.116 1073.63 265.031C1070.08 265.946 1066.38 266.117 1062.77 265.533C1059.15 264.95 1055.7 263.625 1052.62 261.641L1052.62 261.641L882.818 152.542C882.818 152.542 882.818 152.542 882.818 152.542C877.364 149.015 873.384 143.619 871.625 137.367C869.867 131.114 870.45 124.435 873.265 118.581Z" stroke="#BDC4C6"/>
</g>
<defs>
<filter id="filter0_d_828_3899" x="706.706" y="169.095" width="337.148" height="335.95" filterUnits="userSpaceOnUse" color-interpolation-filters="sRGB">
<feFlood flood-opacity="0" result="BackgroundImageFix"/>
<feColorMatrix in="SourceAlpha" type="matrix" values="0 0 0 0 0 0 0 0 0 0 0 0 0 0 0 0 0 0 127 0" result="hardAlpha"/>
<feOffset dy="4"/>
<feGaussianBlur stdDeviation="2"/>
<feComposite in2="hardAlpha" operator="out"/>
<feColorMatrix type="matrix" values="0 0 0 0 0 0 0 0 0 0 0 0 0 0 0 0 0 0 0.25 0"/>
<feBlend mode="normal" in2="BackgroundImageFix" result="effect1_dropShadow_828_3899"/>
<feBlend mode="normal" in="SourceGraphic" in2="effect1_dropShadow_828_3899" result="shape"/>
</filter>
<filter id="filter1_d_828_3899" x="399.752" y="292.828" width="349.047" height="271.077" filterUnits="userSpaceOnUse" color-interpolation-filters="sRGB">
<feFlood flood-opacity="0" result="BackgroundImageFix"/>
<feColorMatrix in="SourceAlpha" type="matrix" values="0 0 0 0 0 0 0 0 0 0 0 0 0 0 0 0 0 0 127 0" result="hardAlpha"/>
<feOffset dy="4"/>
<feGaussianBlur stdDeviation="2"/>
<feComposite in2="hardAlpha" operator="out"/>
<feColorMatrix type="matrix" values="0 0 0 0 0 0 0 0 0 0 0 0 0 0 0 0 0 0 0.25 0"/>
<feBlend mode="normal" in2="BackgroundImageFix" result="effect1_dropShadow_828_3899"/>
<feBlend mode="normal" in="SourceGraphic" in2="effect1_dropShadow_828_3899" result="shape"/>
</filter>
<filter id="filter2_d_828_3899" x="104.699" y="176.233" width="337.071" height="335.95" filterUnits="userSpaceOnUse" color-interpolation-filters="sRGB">
<feFlood flood-opacity="0" result="BackgroundImageFix"/>
<feColorMatrix in="SourceAlpha" type="matrix" values="0 0 0 0 0 0 0 0 0 0 0 0 0 0 0 0 0 0 127 0" result="hardAlpha"/>
<feOffset dy="4"/>
<feGaussianBlur stdDeviation="2"/>
<feComposite in2="hardAlpha" operator="out"/>
<feColorMatrix type="matrix" values="0 0 0 0 0 0 0 0 0 0 0 0 0 0 0 0 0 0 0.25 0"/>
<feBlend mode="normal" in2="BackgroundImageFix" result="effect1_dropShadow_828_3899"/>
<feBlend mode="normal" in="SourceGraphic" in2="effect1_dropShadow_828_3899" result="shape"/>
</filter>
<filter id="filter3_d_828_3899" x="0" y="0.152344" width="294.126" height="274.22" filterUnits="userSpaceOnUse" color-interpolation-filters="sRGB">
<feFlood flood-opacity="0" result="BackgroundImageFix"/>
<feColorMatrix in="SourceAlpha" type="matrix" values="0 0 0 0 0 0 0 0 0 0 0 0 0 0 0 0 0 0 127 0" result="hardAlpha"/>
<feOffset dy="4"/>
<feGaussianBlur stdDeviation="2"/>
<feComposite in2="hardAlpha" operator="out"/>
<feColorMatrix type="matrix" values="0 0 0 0 0 0 0 0 0 0 0 0 0 0 0 0 0 0 0.25 0"/>
<feBlend mode="normal" in2="BackgroundImageFix" result="effect1_dropShadow_828_3899"/>
<feBlend mode="normal" in="SourceGraphic" in2="effect1_dropShadow_828_3899" result="shape"/>
</filter>
<filter id="filter4_d_828_3899" x="866.129" y="0.152344" width="294.097" height="274.22" filterUnits="userSpaceOnUse" color-interpolation-filters="sRGB">
<feFlood flood-opacity="0" result="BackgroundImageFix"/>
<feColorMatrix in="SourceAlpha" type="matrix" values="0 0 0 0 0 0 0 0 0 0 0 0 0 0 0 0 0 0 127 0" result="hardAlpha"/>
<feOffset dy="4"/>
<feGaussianBlur stdDeviation="2"/>
<feComposite in2="hardAlpha" operator="out"/>
<feColorMatrix type="matrix" values="0 0 0 0 0 0 0 0 0 0 0 0 0 0 0 0 0 0 0.25 0"/>
<feBlend mode="normal" in2="BackgroundImageFix" result="effect1_dropShadow_828_3899"/>
<feBlend mode="normal" in="SourceGraphic" in2="effect1_dropShadow_828_3899" result="shape"/>
</filter>
</defs>
</svg>
