<svg width="93" height="143" viewBox="0 0 93 143" fill="none" xmlns="http://www.w3.org/2000/svg">
<path d="M0.829024 3.14437L3.14437 15.171L15.171 12.8556L12.8556 0.829024L0.829024 3.14437ZM92.5 133.033L77.0459 125.212L77.9996 142.506L92.5 133.033ZM8 8C7.15898 9.24205 7.15892 9.24201 7.15887 9.24198C7.15886 9.24197 7.15881 9.24193 7.15878 9.24192C7.15873 9.24188 7.15869 9.24186 7.15867 9.24184C7.15862 9.24181 7.15863 9.24181 7.15869 9.24185C7.15881 9.24193 7.15915 9.24216 7.15971 9.24254C7.16082 9.2433 7.1628 9.24464 7.16564 9.24658C7.17133 9.25046 7.18045 9.25669 7.19296 9.26527C7.21797 9.28244 7.2565 9.30899 7.30803 9.34483C7.41108 9.41652 7.56614 9.52537 7.7691 9.67061C8.17504 9.96109 8.77247 10.397 9.5287 10.9722L11.3449 8.58447C10.5641 7.99056 9.94311 7.53732 9.51491 7.23091C9.3008 7.0777 9.13486 6.96117 9.02118 6.88209C8.96434 6.84255 8.92056 6.81237 8.89037 6.79165C8.87527 6.78129 8.86356 6.77329 8.85532 6.76767C8.8512 6.76486 8.84794 6.76265 8.84555 6.76103C8.84436 6.76021 8.84338 6.75955 8.84263 6.75904C8.84225 6.75878 8.84193 6.75857 8.84166 6.75838C8.84152 6.75829 8.8414 6.75821 8.8413 6.75814C8.84124 6.7581 8.84117 6.75806 8.84115 6.75804C8.84108 6.75799 8.84102 6.75795 8 8ZM14.2019 14.7414C15.5743 15.9086 17.0912 17.251 18.701 18.7587L20.7518 16.5691C19.1043 15.0261 17.5514 13.6519 16.1454 12.4561L14.2019 14.7414ZM22.9893 22.9701C24.3297 24.3507 25.6989 25.8251 27.0732 27.3885L29.3265 25.408C27.9174 23.8049 26.5143 22.2941 25.1418 20.8804L22.9893 22.9701ZM30.9218 32.0045C32.135 33.5414 33.3342 35.145 34.5024 36.8121L36.9592 35.0904C35.7562 33.3738 34.5228 31.7244 33.2764 30.1456L30.9218 32.0045ZM37.7904 41.8246C38.8205 43.5088 39.8085 45.2462 40.7405 47.0339L43.4007 45.647C42.4353 43.7952 41.4134 41.9984 40.3497 40.2593L37.7904 41.8246ZM43.3035 52.4256C44.0829 54.2401 44.7977 56.0986 45.4356 57.9986L48.2796 57.0438C47.6143 55.0623 46.87 53.1274 46.0599 51.2415L43.3035 52.4256ZM47.0807 63.7138C47.5394 65.6251 47.9152 67.573 48.1972 69.5556L51.1673 69.1332C50.8716 67.0538 50.4777 65.0132 49.9978 63.0137L47.0807 63.7138ZM48.7444 75.4597C48.8284 77.4105 48.8176 79.3916 48.7023 81.4015L51.6974 81.5733C51.8185 79.4614 51.8299 77.3798 51.7416 75.3306L48.7444 75.4597ZM48.0691 87.2909C47.9156 88.2635 47.7367 89.2423 47.5315 90.2273L50.4685 90.8391C50.6836 89.8064 50.8713 88.7795 51.0324 87.7586L48.0691 87.2909ZM47.5315 90.2273C47.3094 91.2936 47.1176 92.3356 46.9551 93.3538L49.9176 93.8266C50.0724 92.8566 50.2556 91.861 50.4685 90.8391L47.5315 90.2273ZM46.302 99.6127C46.2013 101.859 46.2622 103.972 46.4692 105.957L49.453 105.646C49.2625 103.819 49.2045 101.856 49.299 99.747L46.302 99.6127ZM47.7211 112.255C48.382 114.425 49.2488 116.396 50.2853 118.185L52.881 116.68C51.9613 115.093 51.1858 113.334 50.591 111.38L47.7211 112.255ZM54.198 123.367C55.7217 124.948 57.3982 126.31 59.1683 127.483L60.8256 124.982C59.2199 123.918 57.7155 122.693 56.3578 121.285L54.198 123.367ZM64.8066 130.511C66.7831 131.364 68.8018 132.048 70.8007 132.595L71.5931 129.702C69.7103 129.186 67.8259 128.547 65.9948 127.757L64.8066 130.511ZM76.9741 133.908C79.1928 134.257 81.3072 134.466 83.2221 134.585L83.4086 131.591C81.5731 131.477 79.5528 131.277 77.4394 130.945L76.9741 133.908Z" fill="#BDC4C6"/>
</svg>
