<svg width="150" height="150" viewBox="0 0 150 150" fill="none" xmlns="http://www.w3.org/2000/svg">
<path d="M138.795 90.2382L127.739 82.7681V60.3577L138.795 53.037C139.393 52.5888 139.841 51.9912 139.841 51.2442C139.841 50.4971 139.393 49.7501 138.795 49.4513L81.8729 11.2043C81.1259 10.7561 80.0801 10.7561 79.3331 11.2043L9.11394 58.1167C8.81514 58.2661 8.66574 58.4155 8.51633 58.7143C8.51633 58.7143 8.51633 58.7143 8.51633 58.8637C8.21753 59.3119 8.21753 59.6107 8.21753 60.0589V101.145C8.21753 101.892 8.66574 102.639 9.26335 102.937L66.1857 140.886C66.6339 141.184 66.9327 141.334 67.3809 141.334C67.8291 141.334 68.2773 141.184 68.5761 140.886L138.945 93.9732C139.542 93.525 139.99 92.9274 139.99 92.1804C139.841 91.284 139.393 90.537 138.795 90.2382ZM80.6777 15.8358L133.566 51.0948L124.901 56.772C124.453 56.9214 124.004 57.2203 123.706 57.5191L67.2315 95.1685L24.8012 66.9314C24.6518 66.782 24.5024 66.782 24.5024 66.6326L14.343 59.9095L80.6777 15.8358ZM25.5482 72.9075L65.8868 99.7999C66.6339 100.248 67.6797 100.248 68.4267 99.7999L123.257 63.1963V81.5728L67.5303 118.326L25.5482 91.4334V72.9075ZM67.2315 136.254L12.5502 99.7999V64.2422L21.2155 69.9195V92.6286C21.2155 93.3756 21.6637 94.1226 22.2614 94.5708L66.4845 122.957C66.7833 123.256 67.2315 123.256 67.6797 123.256C68.1279 123.256 68.5761 123.107 68.8749 122.957L124.751 86.2043L133.566 92.1804L67.2315 136.254Z" fill="#154672"/>
<path d="M70.9667 36.3033L97.5603 54.5304C98.0085 54.8292 98.4567 54.9786 98.7555 54.9786C99.5025 54.9786 100.1 54.6798 100.548 53.9328C101.295 52.887 100.997 51.5424 99.9507 50.7954L73.5065 32.5683C72.4607 31.8213 71.1161 32.1201 70.3691 33.1659C69.622 34.2117 69.9209 35.5563 70.9667 36.3033Z" fill="#154672"/>
</svg>
