<svg width="100" height="100" viewBox="0 0 100 100" fill="none" xmlns="http://www.w3.org/2000/svg">
<path d="M61.6667 24.9974C68.11 24.9974 73.3333 19.774 73.3333 13.3307C73.3333 6.88741 68.11 1.66406 61.6667 1.66406C55.2233 1.66406 50 6.88741 50 13.3307C50 19.774 55.2233 24.9974 61.6667 24.9974Z" stroke="#367FD3" stroke-width="2" stroke-miterlimit="10"/>
<path d="M56.6667 13.3311C56.6667 16.0927 58.9051 18.3311 61.6667 18.3311" stroke="#367FD3" stroke-width="2" stroke-miterlimit="10"/>
<path d="M85.0001 88.3307C92.3639 88.3307 98.3334 82.3612 98.3334 74.9974C98.3334 67.6336 92.3639 61.6641 85.0001 61.6641C77.6363 61.6641 71.6667 67.6336 71.6667 74.9974C71.6667 82.3612 77.6363 88.3307 85.0001 88.3307Z" stroke="#367FD3" stroke-width="2" stroke-miterlimit="10"/>
<path d="M75.5718 65.5684L82.6734 72.67" stroke="#367FD3" stroke-width="2" stroke-miterlimit="10"/>
<path d="M77.3435 75.6738L80.9918 79.3222" stroke="#367FD3" stroke-width="2" stroke-miterlimit="10"/>
<path d="M85.6418 78.9746L92.6135 85.9446" stroke="#367FD3" stroke-width="2" stroke-miterlimit="10"/>
<path d="M87.3267 70.6572L97.155 80.4856" stroke="#367FD3" stroke-width="2" stroke-miterlimit="10"/>
<path d="M33.3333 73.3307C43.4586 73.3307 51.6667 65.1226 51.6667 54.9974C51.6667 44.8722 43.4586 36.6641 33.3333 36.6641C23.2081 36.6641 15 44.8722 15 54.9974C15 65.1226 23.2081 73.3307 33.3333 73.3307Z" stroke="#367FD3" stroke-width="2" stroke-miterlimit="10"/>
<path d="M33.3333 43.3311C32.305 43.3311 31.305 43.4644 30.355 43.7144" stroke="#367FD3" stroke-width="2" stroke-miterlimit="10"/>
<path d="M26.0001 45.9258C23.3567 48.0641 21.6667 51.3341 21.6667 54.9974C21.6667 58.6808 23.3717 61.9658 26.0384 64.1024" stroke="#367FD3" stroke-width="2" stroke-miterlimit="10"/>
<path d="M2.55176 66.0396C4.56009 64.1463 8.33342 60.0496 8.33342 56.1096C8.33342 52.533 4.09676 49.1996 4.09676 49.1996C4.09676 49.1996 11.6668 46.1446 11.6668 42.8113C11.6668 38.9913 6.66676 34.998 6.66676 34.998C6.66676 34.998 9.99676 34.998 12.2401 34.998C15.9901 34.998 16.6668 31.8613 16.6668 29.998C16.6668 28.5396 16.3051 25.308 15.4851 20.793C19.6518 25.688 21.4101 28.3313 25.0001 28.3313C27.2918 28.3313 28.9751 23.858 28.9751 23.858" stroke="#367FD3" stroke-width="2" stroke-miterlimit="10"/>
<path d="M24.0267 81.1441C24.0267 81.1441 21.4917 74.9974 17.5334 74.9974C14.3834 74.9974 7.80005 81.0974 7.80005 81.0974C9.06505 77.2041 10 73.6957 10 66.6641" stroke="#367FD3" stroke-width="2" stroke-miterlimit="10"/>
<path d="M58.9933 50.6924C61.4267 53.4424 65.5217 55.7607 65.5217 55.7607C65.5217 55.7607 58.3333 58.6091 58.3333 62.3241C58.3333 65.9174 61.6667 69.9974 61.6667 69.9974C61.6667 69.9974 58.53 69.9974 56.6667 69.9974C52.5 69.9974 51.6667 72.3941 51.6667 74.4774C51.6667 75.7957 54.1317 83.9224 54.1317 83.9224C50.8767 81.7074 47.865 79.9974 45 79.9974C39.7567 79.9974 35.9717 91.9424 35.9717 91.9424C35.9717 91.9424 34.075 81.8824 30.8367 78.9157" stroke="#367FD3" stroke-width="2" stroke-miterlimit="10"/>
<path d="M31.6667 29.9974C34.9484 29.9974 38.8884 24.7891 38.8884 24.7891C38.8884 24.7891 39.9484 31.6641 43.3334 31.6641C46.1984 31.6641 50.0001 28.3307 50.0001 28.3307C50.0001 28.3307 50.0001 30.7791 50.0001 33.3307C50.0001 35.8324 51.4584 38.3307 55.0001 38.3307H60.2084C60.2084 38.3307 56.6667 42.3407 56.6667 46.6641" stroke="#367FD3" stroke-width="2" stroke-miterlimit="10"/>
<path d="M75.0101 57.1191C74.7235 57.9925 74.4085 58.8191 74.0735 59.5858" stroke="#367FD3" stroke-width="2" stroke-miterlimit="10"/>
<path d="M76.6669 46.6641C76.6669 48.8407 76.4485 50.9641 76.0752 52.9541" stroke="#367FD3" stroke-width="2" stroke-miterlimit="10"/>
<path d="M68.9934 22.4141C73.0901 28.0307 75.8751 34.9341 76.5234 43.0174" stroke="#367FD3" stroke-width="2" stroke-miterlimit="10"/>
<path d="M33.397 5.01374C33.9253 5.00374 34.4603 4.99707 35.0003 4.99707C40.282 4.99707 45.8353 6.14874 51.1036 8.3804" stroke="#367FD3" stroke-width="2" stroke-miterlimit="10"/>
<path d="M26.9019 5.46555C27.8335 5.35221 28.7869 5.25888 29.7635 5.18555" stroke="#367FD3" stroke-width="2" stroke-miterlimit="10"/>
<path d="M20.4436 6.66473C21.2569 6.45639 22.0936 6.26639 22.9536 6.09473" stroke="#367FD3" stroke-width="2" stroke-miterlimit="10"/>
<path d="M7.58179 12.6186C10.0918 10.7453 12.9851 9.16865 16.3051 7.94531" stroke="#367FD3" stroke-width="2" stroke-miterlimit="10"/>
<path d="M57.7836 96.0391C56.9769 96.4007 56.2519 96.6457 55.4319 96.8891" stroke="#367FD3" stroke-width="2" stroke-miterlimit="10"/>
<path d="M64.7436 93.0938C63.9402 93.4788 63.1186 93.8454 62.2886 94.1921" stroke="#367FD3" stroke-width="2" stroke-miterlimit="10"/>
<path d="M76.2917 85.0957C74.0584 87.179 71.6484 89.0707 69.0784 90.6974" stroke="#367FD3" stroke-width="2" stroke-miterlimit="10"/>
<path d="M85.6536 15.6465C91.4936 26.8382 93.3336 39.8215 93.3336 44.9982C93.3336 50.0682 93.1252 55.5532 90.8569 63.0165" stroke="#367FD3" stroke-width="2" stroke-miterlimit="10"/>
<path d="M81.2634 8.61523C81.8334 9.38523 82.3801 10.1686 82.9018 10.9602" stroke="#367FD3" stroke-width="2" stroke-miterlimit="10"/>
<path d="M75.7517 2.36719C76.4184 3.00385 77.0634 3.65385 77.685 4.31885" stroke="#367FD3" stroke-width="2" stroke-miterlimit="10"/>
<path d="M92.9485 15.3721C94.6285 19.0137 95.9218 22.7004 96.9168 26.3104" stroke="#367FD3" stroke-width="2" stroke-miterlimit="10"/>
<path d="M89.437 8.80469C89.9153 9.58469 90.3753 10.3714 90.8137 11.1614" stroke="#367FD3" stroke-width="2" stroke-miterlimit="10"/>
</svg>
