<?xml version="1.0" encoding="utf-8"?>
<!-- Generator: Adobe Illustrator 24.0.2, SVG Export Plug-In . SVG Version: 6.00 Build 0)  -->
<svg version="1.1" id="Слой_1" xmlns="http://www.w3.org/2000/svg" xmlns:xlink="http://www.w3.org/1999/xlink" x="0px" y="0px"
	 viewBox="0 0 121.4 115" style="enable-background:new 0 0 121.4 115;" xml:space="preserve">
<style type="text/css">
	.st0{fill:none;stroke:#367FD3;stroke-width:2;stroke-miterlimit:10;}
	.st1{fill:#367FD3;stroke:#367FD3;stroke-width:2;}
</style>
<path class="st0" d="M61.3,96c21.3,0,38.6-17.3,38.6-38.6c0-21.3-17.3-38.6-38.6-38.6S22.7,36,22.7,57.3C22.7,78.7,40,96,61.3,96z"
	/>
<path class="st0" d="M61.3,25.5v6.1"/>
<path class="st0" d="M61.3,35.7V58l15.3,15.3"/>
<path class="st0" d="M28.8,58h6.1"/>
<path class="st0" d="M93.9,58h-6.1"/>
<path class="st0" d="M61.3,90.6v-6.1"/>
<path class="st1" d="M40,38.7v-2.1H42v2.1H40z"/>
<path class="st1" d="M82.7,36.7v-2.1h2.1v2.1H82.7z"/>
<path class="st1" d="M40,79.4v-2.1H42v2.1H40z"/>
<path class="st1" d="M80.6,79.4v-2.1h2.1v2.1H80.6z"/>
<path class="st0" d="M91.6,26.1c8.1,7.9,13.1,18.9,13.1,31.1c0,24-19.5,43.5-43.5,43.5S17.7,81.2,17.7,57.2
	c0-24,19.5-43.5,43.5-43.5c7.5,0,14.6,1.9,20.7,5.2"/>
</svg>
