<svg width="140" height="140" viewBox="0 0 140 140" fill="none" xmlns="http://www.w3.org/2000/svg">
<path d="M76.5198 56.5612C75.6535 55.7967 74.3323 55.8776 73.5664 56.7453L44.5614 89.6049C43.7969 90.4713 43.8792 91.7938 44.7456 92.5583C45.1432 92.9099 45.637 93.0814 46.1295 93.0814C46.7084 93.0814 47.286 92.8429 47.6989 92.3741L76.7039 59.5145C77.4684 58.6482 77.3861 57.3271 76.5198 56.5612Z" fill="url(#paint0_linear_26_245)"/>
<path d="M50.0735 70.765C52.4256 69.7605 54.2476 67.8981 55.2046 65.5237C56.1616 63.1465 56.1351 60.5405 55.1334 58.1842C54.1304 55.8265 52.268 54.0004 49.8935 53.0447C44.9954 51.0679 39.3956 53.4521 37.4076 58.3614C36.4506 60.7386 36.4799 63.346 37.4913 65.705C38.5 68.0613 40.3666 69.8847 42.741 70.8403C43.8975 71.3063 45.107 71.5379 46.3166 71.5379C47.5903 71.5393 48.8654 71.2812 50.0735 70.765ZM41.3375 64.0589C40.7684 62.7294 40.7516 61.2617 41.2887 59.9294C42.1425 57.8201 44.1765 56.5352 46.318 56.5352C46.9876 56.5352 47.6698 56.6608 48.3283 56.9272C49.6675 57.4657 50.7152 58.4939 51.2816 59.822C51.848 61.1501 51.8606 62.6191 51.3207 63.9584C50.7808 65.2991 49.754 66.3482 48.4287 66.9146C47.102 67.4796 45.6386 67.4949 44.3035 66.9578C42.9614 66.4193 41.9081 65.3884 41.3375 64.0589Z" fill="url(#paint1_linear_26_245)"/>
<path d="M120.771 61.0976C120.756 60.5424 120.519 60.0165 120.114 59.6342C119.711 59.2533 119.185 59.0483 118.615 59.065L106.586 59.4319L109.301 50.8871C109.469 50.3584 109.42 49.7836 109.164 49.2911C108.909 48.7973 108.468 48.4262 107.94 48.2588L88.0709 41.946L84.6851 5.45924C84.5846 4.38364 83.562 3.56055 82.4809 3.56055C81.6076 3.56055 80.8263 4.10323 80.5208 4.92075L68.95 35.8719L34.447 24.908C33.3505 24.5606 32.1703 25.1675 31.8187 26.2696L8.46653 99.7594C8.11637 100.861 8.72602 102.038 9.82813 102.388L47.3222 114.303L47.8774 133.918C47.9095 135.052 48.84 135.952 49.9686 135.952C49.9896 135.952 50.0091 135.952 50.0286 135.952L120.734 133.958C121.288 133.943 121.814 133.707 122.196 133.304C122.577 132.901 122.782 132.362 122.766 131.807L120.771 61.0976ZM81.3397 14.6849L83.7406 40.5691L72.9441 37.1386L81.3397 14.6849ZM35.1753 29.5299L104.679 51.6139L82.5953 121.118L13.0898 99.0311L35.1753 29.5299ZM52.0027 131.704L51.5479 115.642L83.3221 125.74C83.5286 125.805 83.742 125.837 83.9555 125.837C84.2875 125.837 84.6181 125.758 84.9167 125.603C85.4105 125.348 85.7816 124.907 85.949 124.378L105.242 63.6604L116.645 63.3116L118.523 129.829L52.0027 131.704Z" fill="#1565C0"/>
<path d="M75.1441 81.6585C72.7683 80.7001 70.1595 80.7238 67.799 81.7296C65.4414 82.7341 63.6152 84.5951 62.6582 86.9723C61.7012 89.3468 61.7291 91.9528 62.7349 94.3104C63.7408 96.6681 65.606 98.4929 67.9818 99.4457C69.1397 99.9131 70.3534 100.146 71.5644 100.146C72.8381 100.146 74.1104 99.888 75.3157 99.3746C77.6734 98.3715 79.4981 96.5091 80.4552 94.1305C81.4122 91.7533 81.3857 89.1473 80.384 86.7938C79.3823 84.4375 77.5199 82.6141 75.1441 81.6585ZM76.5741 92.568C76.0356 93.9073 75.0074 94.9564 73.6793 95.5228C72.3526 96.0892 70.8863 96.1017 69.5443 95.5618C68.2036 95.0247 67.1531 93.9965 66.5853 92.667C66.0189 91.3389 66.0036 89.8713 66.5421 88.5348C67.0806 87.1955 68.1101 86.145 69.4397 85.5786C70.1205 85.2885 70.8375 85.1434 71.556 85.1434C72.241 85.1434 72.9259 85.2759 73.5816 85.5396C74.9209 86.0781 75.97 87.1063 76.535 88.4316C77.0986 89.7583 77.1126 91.2273 76.5741 92.568Z" fill="url(#paint2_linear_26_245)"/>
<defs>
<linearGradient id="paint0_linear_26_245" x1="60.6327" y1="56.0371" x2="60.6327" y2="93.0814" gradientUnits="userSpaceOnUse">
<stop stop-color="#FD8C04"/>
<stop offset="1" stop-color="#FD8C04"/>
</linearGradient>
<linearGradient id="paint1_linear_26_245" x1="46.3073" y1="52.3496" x2="46.3073" y2="71.5379" gradientUnits="userSpaceOnUse">
<stop stop-color="#FD8C04"/>
<stop offset="1" stop-color="#FD8C04"/>
</linearGradient>
<linearGradient id="paint2_linear_26_245" x1="71.5573" y1="80.957" x2="71.5573" y2="100.146" gradientUnits="userSpaceOnUse">
<stop stop-color="#FD8C04"/>
<stop offset="1" stop-color="#FD8C04"/>
</linearGradient>
</defs>
</svg>
