<svg width="100" height="100" viewBox="0 0 100 100" fill="none" xmlns="http://www.w3.org/2000/svg">
<path d="M88.9819 42.3653C92.6952 45.997 95.0002 51.062 95.0002 56.667C95.0002 67.712 86.0452 76.667 75.0002 76.667C63.9552 76.667 55.0002 67.712 55.0002 56.667C55.0002 45.622 63.9552 36.667 75.0002 36.667C78.4519 36.667 81.7002 37.542 84.5336 39.0803" stroke="#367FD3" stroke-width="2" stroke-miterlimit="10"/>
<path d="M88.3337 71.5732V94.9999L75.0003 86.2766L61.667 94.9999V71.5732" stroke="#367FD3" stroke-width="2" stroke-miterlimit="10"/>
<path d="M68.3335 66.667H81.6668" stroke="#367FD3" stroke-width="2" stroke-miterlimit="10"/>
<path d="M68.3335 46.667H75.0002V66.667" stroke="#367FD3" stroke-width="2" stroke-miterlimit="10"/>
<path d="M56.6637 64.667C52.4287 68.987 46.527 71.667 40.0003 71.667C27.1137 71.667 16.667 61.2203 16.667 48.3337V21.667H63.3337V40.4203" stroke="#367FD3" stroke-width="2" stroke-miterlimit="10"/>
<path d="M40.0002 71.667V86.667" stroke="#367FD3" stroke-width="2" stroke-miterlimit="10"/>
<path d="M28.3335 86.667H51.6668" stroke="#367FD3" stroke-width="2" stroke-miterlimit="10"/>
<path d="M31.4653 62.6517C30.4703 62.0567 29.542 61.3617 28.6953 60.5801" stroke="#367FD3" stroke-width="2" stroke-miterlimit="10"/>
<path d="M25.4185 56.41C24.0902 54.0167 23.3335 51.2633 23.3335 48.3333V45" stroke="#367FD3" stroke-width="2" stroke-miterlimit="10"/>
<path d="M16.6669 21.6667V16.6667C16.6669 15.7467 15.9202 15 15.0002 15H6.66691C5.74691 15 5.00024 15.7467 5.00024 16.6667V35C5.00024 39.6017 8.73191 43.3333 13.3336 43.3333H16.6669" stroke="#367FD3" stroke-width="2" stroke-miterlimit="10"/>
<path d="M63.3335 21.6667V16.6667C63.3335 15.7467 64.0802 15 65.0002 15H73.3335C74.2535 15 75.0002 15.7467 75.0002 16.6667V35C75.0002 35.57 74.9435 36.1283 74.8335 36.6667" stroke="#367FD3" stroke-width="2" stroke-miterlimit="10"/>
<path d="M85.0002 10V26.6667" stroke="#367FD3" stroke-width="2" stroke-miterlimit="10"/>
<path d="M93.3335 13.333V18.333" stroke="#367FD3" stroke-width="2" stroke-miterlimit="10"/>
<path d="M93.3335 21.667V38.3337" stroke="#367FD3" stroke-width="2" stroke-miterlimit="10"/>
<path d="M13.3335 63.333V79.9997" stroke="#367FD3" stroke-width="2" stroke-miterlimit="10"/>
<path d="M13.3335 83.333V88.333" stroke="#367FD3" stroke-width="2" stroke-miterlimit="10"/>
<path d="M40.0002 5V13.3333" stroke="#367FD3" stroke-width="2" stroke-miterlimit="10"/>
<path d="M47.3318 16.0017L52.6685 10.665" stroke="#367FD3" stroke-width="2" stroke-miterlimit="10"/>
<path d="M32.6685 16.0017L27.3318 10.665" stroke="#367FD3" stroke-width="2" stroke-miterlimit="10"/>
</svg>
