<svg width="169" height="168" viewBox="0 0 169 168" fill="none" xmlns="http://www.w3.org/2000/svg">
<path d="M152.136 55.3124L83.5028 9.55693C82.6605 8.99535 81.564 8.99535 80.7217 9.55693L12.0884 55.3124C11.3914 55.7771 10.9719 56.5609 10.9719 57.3983C10.9719 58.2357 11.3898 59.0195 12.0884 59.4842L22.5128 66.4337V103.059C22.5128 103.913 22.9473 104.708 23.666 105.169L81.1596 142.028C81.5724 142.292 82.042 142.424 82.5134 142.424C83.0064 142.424 83.5012 142.279 83.9257 141.988L113.922 121.524V135.794L102.747 158.144C102.359 158.921 102.401 159.845 102.856 160.584C103.312 161.321 104.121 161.772 104.988 161.772H127.868C128.737 161.772 129.544 161.321 130 160.584C130.455 159.845 130.498 158.921 130.109 158.144L118.934 135.794V118.103L137.949 105.129C138.633 104.663 139.043 103.888 139.043 103.059V68.2121L152.134 59.4842C152.831 59.0195 153.251 58.2357 153.251 57.3983C153.251 56.5609 152.833 55.7771 152.136 55.3124ZM109.046 156.758L116.429 141.993L123.811 156.758H109.046ZM82.4699 136.912L27.5269 101.688V69.7765L80.7217 105.241C81.1428 105.522 81.6275 105.663 82.1122 105.663C82.5969 105.663 83.0816 105.522 83.5028 105.241L113.922 84.9609V115.453L82.4699 136.912ZM134.03 101.735L118.936 112.034V81.6182L134.03 71.5548V101.735ZM135.666 64.4381C135.297 64.5752 134.971 64.7941 134.707 65.0783L116.429 77.2642L83.5028 55.3124C82.3479 54.5436 80.7935 54.8561 80.0264 56.0077C79.2592 57.1593 79.5701 58.717 80.7217 59.4842L111.909 80.2761L82.1122 100.142L17.9984 57.3983L82.1122 14.6563L146.226 57.3983L135.666 64.4381Z" fill="#154672"/>
</svg>
