<svg width="140" height="140" viewBox="0 0 140 140" fill="none" xmlns="http://www.w3.org/2000/svg">
<path d="M109.427 59.6152C109.427 37.8602 91.7279 20.1621 69.9745 20.1621C48.2211 20.1621 30.5217 37.8616 30.5217 59.6152C30.5217 81.3689 48.2211 99.0684 69.9745 99.0684C91.7279 99.0684 109.427 81.3689 109.427 59.6152ZM34.7056 59.6152C34.7056 40.1691 50.5271 24.3474 69.9731 24.3474C89.419 24.3474 105.241 40.1691 105.241 59.6152C105.241 79.0614 89.419 94.8831 69.9731 94.8831C50.5271 94.8831 34.7056 79.0614 34.7056 59.6152Z" fill="url(#paint0_linear_26_236)"/>
<path d="M130.445 60.5188H125.271C124.346 30.809 99.9045 6.9209 69.9731 6.9209C40.0432 6.9209 15.6056 30.809 14.6821 60.5188H9.1827C8.02618 60.5188 7.09009 61.4549 7.09009 62.6115V85.1129C7.09009 86.268 8.02618 87.2055 9.1827 87.2055H24.1853C25.3419 87.2055 26.278 86.268 26.278 85.1129V62.6115C26.278 61.4549 25.3419 60.5188 24.1853 60.5188H18.8673C19.7895 33.1165 42.352 11.1062 69.9731 11.1062C97.5984 11.1062 120.162 33.1179 121.084 60.5188H115.443C114.288 60.5188 113.35 61.4549 113.35 62.6115V85.1129C113.35 86.268 114.288 87.2055 115.443 87.2055H121.283C120.31 105.981 105.107 121.049 86.2788 121.819V116.08C86.2788 114.925 85.3413 113.987 84.1861 113.987H61.6878C60.5312 113.987 59.5951 114.925 59.5951 116.08V131.082C59.5951 132.238 60.5312 133.175 61.6878 133.175H84.1861C85.3413 133.175 86.2788 132.238 86.2788 131.082V126.004C107.414 125.227 124.49 108.288 125.469 87.2055H130.445C131.601 87.2055 132.538 86.268 132.538 85.1129V62.6115C132.538 61.4563 131.601 60.5188 130.445 60.5188ZM22.0927 83.0202H11.2753V64.7041H22.0927V83.0202ZM82.0935 128.99H63.7804V118.172H82.0935V128.99ZM128.353 83.0202H117.535V64.7041H128.353V83.0202Z" fill="#1565C0"/>
<defs>
<linearGradient id="paint0_linear_26_236" x1="69.9745" y1="20.1621" x2="69.9745" y2="99.0684" gradientUnits="userSpaceOnUse">
<stop stop-color="#FD8C04"/>
<stop offset="1" stop-color="#FD8C04"/>
</linearGradient>
</defs>
</svg>
