<svg width="150" height="150" viewBox="0 0 150 150" fill="none" xmlns="http://www.w3.org/2000/svg">
<path d="M30.4789 28.8346L47.8096 36.4542C44.3733 41.5338 42.5805 47.3605 42.5805 53.486C42.5805 70.2191 56.1761 83.9641 73.0586 83.9641C89.9411 83.9641 103.537 70.3685 103.537 53.486C103.537 47.5099 101.744 41.5338 98.457 36.6036L113.696 29.4322V58.4163L109.065 68.2769C108.766 69.0239 108.766 69.7709 109.214 70.3685C109.662 70.9661 110.409 71.4143 111.156 71.4143H119.971C120.718 71.4143 121.465 71.1155 121.764 70.3685C122.212 69.7709 122.212 69.0239 121.913 68.2769L117.879 58.4163V27.49C117.879 26.2948 117.73 25.3984 115.638 24.502C115.19 24.3526 74.1044 6.12547 74.1044 6.12547C73.5068 5.82667 72.9092 5.82667 72.3116 6.12547L30.4789 24.6514C29.7319 24.9502 29.1343 25.8466 29.1343 26.743C29.1343 27.6394 29.5825 28.3864 30.4789 28.8346ZM98.9052 53.486C98.9052 67.8287 87.2518 79.482 72.9092 79.482C58.5665 79.482 46.9132 67.8287 46.9132 53.486C46.9132 47.9581 48.706 42.7291 51.8434 38.247L72.1622 47.3605C72.461 47.5099 72.7598 47.5099 73.0586 47.5099C73.3574 47.5099 73.6562 47.5099 73.955 47.3605L93.9749 38.3964C97.2618 42.8785 98.9052 48.1075 98.9052 53.486ZM114.592 66.9322L115.638 64.6912L116.535 66.9322H114.592ZM73.208 10.6075L109.513 26.743L73.208 42.8785L36.9032 26.743L73.208 10.6075Z" fill="#154672"/>
<path d="M73.8057 89.3428C44.6722 89.3428 20.9172 113.098 20.9172 142.231C20.9172 143.426 21.9631 144.472 23.1583 144.472H124.453C125.648 144.472 126.694 143.426 126.694 142.231C126.694 113.098 102.939 89.3428 73.8057 89.3428ZM25.5487 139.99C26.7439 114.293 47.9591 93.8248 73.9551 93.8248C99.9511 93.8248 121.017 114.442 122.212 139.99H25.5487Z" fill="#154672"/>
</svg>
