<svg width="114" height="122" viewBox="0 0 114 122" fill="none" xmlns="http://www.w3.org/2000/svg">
<path d="M91.0591 19.9641C84.4729 14.0713 75.9755 11.0956 67.1698 11.5853C58.3487 12.075 50.2461 15.97 44.3547 22.552C32.1924 36.1428 33.3545 57.0954 46.9454 69.2577C53.2483 74.8966 61.1291 77.67 68.9862 77.67C78.0751 77.67 87.1277 73.9563 93.6511 66.6671C105.812 53.079 104.65 32.1264 91.0591 19.9641ZM90.5303 63.8783C79.9096 75.749 61.6076 76.7646 49.7355 66.1383C37.8634 55.5148 36.8492 37.2142 47.4713 25.3435C52.6177 19.593 59.6964 16.1904 67.4 15.7635C67.9482 15.7342 68.4923 15.7189 69.0364 15.7189C76.1499 15.7189 82.9244 18.3012 88.2675 23.0821C100.14 33.707 101.154 52.0076 90.5303 63.8783Z" fill="url(#paint0_linear_26_241)"/>
<path d="M51.1892 28.6087C50.4177 29.4708 50.4917 30.7934 51.3524 31.5634C51.7528 31.9206 52.2509 32.0964 52.7475 32.0964C53.3223 32.0964 53.8943 31.862 54.3072 31.3988C61.5951 23.2558 74.1452 22.561 82.2882 29.8461C83.149 30.6176 84.4701 30.5436 85.243 29.6829C86.0131 28.8207 85.9392 27.4982 85.0784 26.7281C75.2152 17.9029 60.0131 18.7483 51.1892 28.6087Z" fill="url(#paint1_linear_26_241)"/>
<path d="M113.5 41.9157C112.79 30.0688 107.51 19.2095 98.6315 11.3343C89.7533 3.45909 78.3499 -0.475022 66.4918 0.223911C54.6462 0.934004 43.7855 6.21436 35.9117 15.0926C20.1265 32.8896 21.262 59.9331 38.1229 76.3685L30.9062 84.6023L28.5918 82.5501C27.7282 81.7828 26.4113 81.8609 25.644 82.7203L0.532615 110.782C0.161525 111.195 -0.0282056 111.739 0.00248602 112.293C0.0331777 112.847 0.282897 113.367 0.695839 113.737L8.58499 120.797C8.98538 121.155 9.48342 121.33 9.98007 121.33C10.5548 121.33 11.1268 121.095 11.5398 120.633L36.6846 92.5346C37.0557 92.1203 37.2468 91.5748 37.2147 91.0182C37.1826 90.4644 36.9301 89.9426 36.5144 89.5743L34.0381 87.3784L41.2507 79.1503C49.1789 85.5635 58.9123 89.0051 69.0908 89.0051C69.9934 89.0051 70.9016 88.9772 71.8098 88.9228C83.6554 88.2113 94.5161 82.931 102.391 74.0527C110.266 65.1744 114.21 53.7627 113.5 41.9157ZM9.81684 116.283L5.04708 112.014L27.3739 87.0646L32.1646 91.3126L9.81684 116.283ZM99.2593 71.2765C92.1263 79.3191 82.2882 84.1014 71.5587 84.7445C60.8306 85.4058 50.4903 81.8135 42.4477 74.6819C25.8463 59.9569 24.3187 34.4702 39.0437 17.8688C46.1767 9.82622 56.0148 5.04389 66.7443 4.40077C67.5674 4.35054 68.3877 4.32683 69.2066 4.32683C79.0475 4.32683 88.4307 7.87869 95.8567 14.4648C103.899 21.5979 108.682 31.4359 109.325 42.1655C109.967 52.8964 106.391 63.2353 99.2593 71.2765Z" fill="#1565C0"/>
<defs>
<linearGradient id="paint0_linear_26_241" x1="69.0023" y1="11.5332" x2="69.0023" y2="77.67" gradientUnits="userSpaceOnUse">
<stop stop-color="#FD8C04"/>
<stop offset="1" stop-color="#FD8C04"/>
</linearGradient>
<linearGradient id="paint1_linear_26_241" x1="68.2155" y1="20.624" x2="68.2155" y2="32.0964" gradientUnits="userSpaceOnUse">
<stop stop-color="#FD8C04"/>
<stop offset="1" stop-color="#FD8C04"/>
</linearGradient>
</defs>
</svg>
