<svg width="100" height="100" viewBox="0 0 100 100" fill="none" xmlns="http://www.w3.org/2000/svg">
<path d="M65.7666 49.9984H94.1666C96.4682 49.9984 98.3332 48.1334 98.3332 45.8317C98.3332 43.53 96.4682 41.665 94.1666 41.665H49.9999L45.8333 45.8317L49.9999 49.9984H58.3333" stroke="#367FD3" stroke-width="2" stroke-miterlimit="10"/>
<path d="M89.1399 76.6647C91.6616 70.5181 93.4016 65.1364 93.3332 58.3314V49.998" stroke="#367FD3" stroke-width="2" stroke-miterlimit="10"/>
<path d="M75 38.3311V41.6644" stroke="#367FD3" stroke-width="2" stroke-miterlimit="10"/>
<path d="M75 49.9982L75.0016 58.6282C75.0016 59.4649 74.3266 59.9982 73.6333 59.9982C73.23 59.9982 72.8083 59.8266 72.52 59.4249L64.3849 48.0682C63.6599 47.0482 62.375 46.4532 60.9783 46.7332C59.745 46.9799 58.7133 47.9716 58.4266 49.1966C58.2166 50.0982 58.3716 50.9566 58.7749 51.6566L67.055 66.0616C68.7666 69.0382 72.8466 74.2682 75.45 76.6649" stroke="#367FD3" stroke-width="2" stroke-miterlimit="10"/>
<path d="M61.0601 41.665L71.6317 33.0517C72.7317 32.155 74.1084 31.665 75.5284 31.665C76.2801 31.665 77.0267 31.805 77.7284 32.0734L88.1084 36.045C89.6751 36.645 90.9584 37.8134 91.7017 39.3167L92.8651 41.665" stroke="#367FD3" stroke-width="2" stroke-miterlimit="10"/>
<path d="M18.6482 17.1025L61.9215 8.22754L67.8432 36.1375" stroke="#367FD3" stroke-width="2" stroke-miterlimit="10"/>
<path d="M69.7083 13.584L72.0516 24.639" stroke="#367FD3" stroke-width="2" stroke-miterlimit="10"/>
<path d="M67.9382 5.22949L68.8999 9.76449" stroke="#367FD3" stroke-width="2" stroke-miterlimit="10"/>
<path d="M16.8533 79.6972L4.53162 19.9972L14.7249 17.9072" stroke="#367FD3" stroke-width="2" stroke-miterlimit="10"/>
<path d="M24.965 40.206L23.4983 33.031C23.31 32.106 22.415 31.5093 21.4983 31.6993L16.3533 32.766C15.435 32.956 14.845 33.8627 15.035 34.7893L16.5016 41.9643C16.69 42.8893 17.585 43.486 18.5016 43.296L23.6466 42.2293C24.5633 42.0393 25.1533 41.1327 24.965 40.206Z" stroke="#367FD3" stroke-width="2" stroke-miterlimit="10"/>
<path d="M8.92161 73.0783L6.61328 62" stroke="#367FD3" stroke-width="2" stroke-miterlimit="10"/>
<path d="M13.7449 96.2349L9.72827 76.9482" stroke="#367FD3" stroke-width="2" stroke-miterlimit="10"/>
<path d="M66.6667 84.9574L20 94.9408L17.655 83.5791" stroke="#367FD3" stroke-width="2" stroke-miterlimit="10"/>
<path d="M30.47 36.9192L56.255 31.3242" stroke="#367FD3" stroke-width="2" stroke-miterlimit="10"/>
<path d="M66.6665 89.9984V79.9984C66.6665 78.1567 68.1582 76.665 69.9998 76.665H93.3332C95.1748 76.665 96.6665 78.1567 96.6665 79.9984V89.9984" stroke="#367FD3" stroke-width="2" stroke-miterlimit="10"/>
<path d="M72.6667 83.9993V82.666H74.0001V83.9993H72.6667Z" fill="#367FD3" stroke="#367FD3" stroke-width="2"/>
<path d="M37.1367 61.9203L54.6134 57.8887" stroke="#367FD3" stroke-width="2" stroke-miterlimit="10"/>
<path d="M20.7966 62.5285L26.6666 65.6235L31.9516 56.8418" stroke="#367FD3" stroke-width="2" stroke-miterlimit="10"/>
<path d="M47.6667 82.3324V80.999H49.0001V82.3324H47.6667Z" fill="#367FD3" stroke="#367FD3" stroke-width="2"/>
<path d="M56 80.6654V79.332H57.3333V80.6654H56Z" fill="#367FD3" stroke="#367FD3" stroke-width="2"/>
<path d="M39.3333 83.9993V82.666H40.6666V83.9993H39.3333Z" fill="#367FD3" stroke="#367FD3" stroke-width="2"/>
</svg>
