<svg width="114" height="103" viewBox="0 0 114 103" fill="none" xmlns="http://www.w3.org/2000/svg">
<path d="M74.8584 76.967C73.7032 76.967 72.7657 77.9045 72.7657 79.0597V98.1875H4.45866V8.06706H72.7644V23.9709C72.7644 25.1274 73.7018 26.0635 74.857 26.0635C76.0121 26.0635 76.9496 25.1274 76.9496 23.9709V5.97445C76.9496 4.81793 76.0121 3.88184 74.857 3.88184H2.36605C1.20953 3.88184 0.273438 4.81793 0.273438 5.97445V100.279C0.273438 101.434 1.20953 102.371 2.36605 102.371H74.857C76.0121 102.371 76.9496 101.434 76.9496 100.279V79.0597C76.951 77.9031 76.0135 76.967 74.8584 76.967Z" fill="#1565C0"/>
<path d="M113.015 9.45718C112.904 8.9131 112.58 8.43598 112.117 8.13046L101.61 1.20252C101.147 0.898389 100.585 0.790968 100.035 0.899784C99.4913 1.01139 99.0155 1.33505 98.71 1.79961L91.019 13.4862C90.9394 13.6075 90.8739 13.7345 90.8223 13.8642L50.1363 75.6005C50.0512 75.7302 49.9842 75.8697 49.9298 76.0134C49.694 76.2911 49.5211 76.6287 49.4569 77.0137L46.816 92.7962C46.6765 93.6276 47.0504 94.4591 47.7619 94.9111C48.1037 95.126 48.4915 95.2334 48.8793 95.2334C49.2992 95.2334 49.7192 95.1064 50.0777 94.8553L63.1816 85.6994C63.3072 85.6115 63.4188 85.5111 63.5192 85.4023C63.7508 85.2502 63.9629 85.0633 64.1247 84.8177L104.833 23.0508C104.914 22.9266 104.979 22.7955 105.032 22.6602L112.71 11.0322C113.017 10.5677 113.127 10.0027 113.015 9.45718ZM53.1817 80.1136L58.6825 83.738L51.7657 88.5705L53.1817 80.1136ZM61.7824 80.7678L54.7819 76.1557L93.1869 17.882L100.187 22.4956L61.7824 80.7678ZM102.45 18.9744L95.4525 14.3623L101.055 5.84951L108.064 10.4714L102.45 18.9744Z" fill="url(#paint0_linear_26_265)"/>
<path d="M52.2067 30.321C53.3632 30.321 54.2993 29.3849 54.2993 28.2284C54.2993 27.0718 53.3632 26.1357 52.2067 26.1357H13.2757C12.1192 26.1357 11.1831 27.0718 11.1831 28.2284C11.1831 29.3849 12.1192 30.321 13.2757 30.321H52.2067Z" fill="#1565C0"/>
<path d="M13.7625 47.5583H52.6837C53.8403 47.5583 54.7764 46.6222 54.7764 45.4657C54.7764 44.3091 53.8403 43.373 52.6837 43.373H13.7625C12.606 43.373 11.6699 44.3091 11.6699 45.4657C11.6699 46.6222 12.606 47.5583 13.7625 47.5583Z" fill="#1565C0"/>
<defs>
<linearGradient id="paint0_linear_26_265" x1="79.9224" y1="0.858398" x2="79.9224" y2="95.2334" gradientUnits="userSpaceOnUse">
<stop stop-color="#FD8C04"/>
<stop offset="1" stop-color="#FD8C04"/>
</linearGradient>
</defs>
</svg>
