<svg width="140" height="140" viewBox="0 0 140 140" fill="none" xmlns="http://www.w3.org/2000/svg">
<path d="M87.8584 94.967C86.7032 94.967 85.7657 95.9045 85.7657 97.0597V116.188H17.4587V26.0671H85.7644V41.9709C85.7644 43.1274 86.7018 44.0635 87.857 44.0635C89.0121 44.0635 89.9496 43.1274 89.9496 41.9709V23.9744C89.9496 22.8179 89.0121 21.8818 87.857 21.8818H15.3661C14.2095 21.8818 13.2734 22.8179 13.2734 23.9744V118.279C13.2734 119.434 14.2095 120.371 15.3661 120.371H87.857C89.0121 120.371 89.9496 119.434 89.9496 118.279V97.0597C89.951 95.9031 89.0135 94.967 87.8584 94.967Z" fill="#1565C0"/>
<path d="M126.015 27.4572C125.904 26.9131 125.58 26.436 125.117 26.1305L114.61 19.2025C114.147 18.8984 113.585 18.791 113.035 18.8998C112.491 19.0114 112.016 19.335 111.71 19.7996L104.019 31.4862C103.939 31.6075 103.874 31.7345 103.822 31.8642L63.1363 93.6005C63.0512 93.7302 62.9842 93.8697 62.9298 94.0134C62.694 94.2911 62.5211 94.6287 62.4569 95.0137L59.816 110.796C59.6765 111.628 60.0504 112.459 60.7619 112.911C61.1037 113.126 61.4915 113.233 61.8793 113.233C62.2992 113.233 62.7192 113.106 63.0777 112.855L76.1816 103.699C76.3072 103.612 76.4188 103.511 76.5192 103.402C76.7508 103.25 76.9629 103.063 77.1247 102.818L117.833 41.0508C117.914 40.9266 117.979 40.7955 118.032 40.6602L125.71 29.0322C126.017 28.5677 126.127 28.0027 126.015 27.4572ZM66.1817 98.1136L71.6825 101.738L64.7657 106.571L66.1817 98.1136ZM74.7824 98.7678L67.7819 94.1557L106.187 35.882L113.187 40.4956L74.7824 98.7678ZM115.45 36.9744L108.453 32.3623L114.055 23.8495L121.064 28.4714L115.45 36.9744Z" fill="url(#paint0_linear_26_264)"/>
<path d="M65.2067 48.321C66.3632 48.321 67.2993 47.3849 67.2993 46.2284C67.2993 45.0718 66.3632 44.1357 65.2067 44.1357H26.2757C25.1192 44.1357 24.1831 45.0718 24.1831 46.2284C24.1831 47.3849 25.1192 48.321 26.2757 48.321H65.2067Z" fill="#1565C0"/>
<path d="M26.7625 65.5583H65.6837C66.8403 65.5583 67.7764 64.6222 67.7764 63.4657C67.7764 62.3091 66.8403 61.373 65.6837 61.373H26.7625C25.606 61.373 24.6699 62.3091 24.6699 63.4657C24.6699 64.6222 25.606 65.5583 26.7625 65.5583Z" fill="#1565C0"/>
<defs>
<linearGradient id="paint0_linear_26_264" x1="92.9224" y1="18.8584" x2="92.9224" y2="113.233" gradientUnits="userSpaceOnUse">
<stop stop-color="#FD8C04"/>
<stop offset="1" stop-color="#FD8C04"/>
</linearGradient>
</defs>
</svg>
