<svg width="75" height="75" viewBox="0 0 75 75" fill="none" xmlns="http://www.w3.org/2000/svg">
<g clip-path="url(#clip0_847_7052)">
<path d="M66.9032 20.8406L36.9921 0.550058C36.625 0.301022 36.1472 0.301022 35.7801 0.550058L5.86902 20.8406C5.56528 21.0466 5.38245 21.3942 5.38245 21.7656C5.38245 22.1369 5.56455 22.4845 5.86902 22.6906L10.4121 25.7724V42.0139C10.4121 42.3926 10.6014 42.7454 10.9146 42.95L35.9709 59.2952C36.1508 59.4123 36.3555 59.4709 36.5609 59.4709C36.7758 59.4709 36.9914 59.4064 37.1764 59.2774L50.249 50.2024V56.5306L45.3789 66.4417C45.2099 66.7863 45.2281 67.1962 45.4263 67.5238C45.6251 67.8506 45.9777 68.0508 46.3557 68.0508H56.3268C56.7056 68.0508 57.0574 67.8506 57.2562 67.5238C57.4543 67.1962 57.4733 66.7863 57.3036 66.4417L52.4335 56.5306V48.6852L60.7205 42.9322C61.0184 42.7254 61.1969 42.3815 61.1969 42.0139V26.561L66.9024 22.6906C67.2062 22.4845 67.389 22.1369 67.389 21.7656C67.389 21.3942 67.2069 21.0466 66.9032 20.8406ZM48.1243 65.8272L51.3416 59.2796L54.559 65.8272H48.1243ZM36.542 57.0265L12.5973 41.4061V27.2548L35.7801 42.9818C35.9636 43.1064 36.1749 43.1686 36.3861 43.1686C36.5973 43.1686 36.8086 43.1064 36.9921 42.9818L50.249 33.9884V47.5105L36.542 57.0265ZM59.0124 41.4268L52.4342 45.994V32.506L59.0124 28.0434V41.4268ZM59.7255 24.8874C59.5645 24.9482 59.4225 25.0453 59.3074 25.1713L51.3416 30.5752L36.9921 20.8406C36.4888 20.4996 35.8114 20.6382 35.477 21.1489C35.1427 21.6596 35.2782 22.3504 35.7801 22.6906L49.372 31.9108L36.3861 40.7205L8.44464 21.7656L36.3861 2.8114L64.3275 21.7656L59.7255 24.8874Z" fill="#154672"/>
</g>
<defs>
<clipPath id="clip0_847_7052">
<rect x="0.953735" y="0.363281" width="73.0972" height="74.3796" rx="5.25919" fill="white"/>
</clipPath>
</defs>
</svg>
