<svg width="96" height="115" viewBox="0 0 96 115" fill="none" xmlns="http://www.w3.org/2000/svg">
<path d="M93.2123 0.916992H2.43925C1.28154 0.916992 0.344482 1.85405 0.344482 3.01176V111.939C0.344482 113.096 1.28154 114.034 2.43925 114.034H93.2123C94.3686 114.034 95.3071 113.096 95.3071 111.939V3.01176C95.3071 1.85405 94.3686 0.916992 93.2123 0.916992ZM91.1175 109.845H4.53401V5.10652H91.1175V109.845Z" fill="#1565C0"/>
<path d="M41.5413 34.4337H75.0575C76.2138 34.4337 77.1523 33.4966 77.1523 32.3389C77.1523 31.1812 76.2138 30.2441 75.0575 30.2441H41.5413C40.3836 30.2441 39.4465 31.1812 39.4465 32.3389C39.4465 33.4966 40.3836 34.4337 41.5413 34.4337Z" fill="url(#paint0_linear_26_226)"/>
<path d="M41.5413 59.5704H75.0575C76.2138 59.5704 77.1523 58.6333 77.1523 57.4756C77.1523 56.3179 76.2138 55.3809 75.0575 55.3809H41.5413C40.3836 55.3809 39.4465 56.3179 39.4465 57.4756C39.4465 58.6333 40.3836 59.5704 41.5413 59.5704Z" fill="url(#paint1_linear_26_226)"/>
<path d="M41.5413 84.7081H75.0575C76.2138 84.7081 77.1523 83.7696 77.1523 82.6133C77.1523 81.457 76.2138 80.5186 75.0575 80.5186H41.5413C40.3836 80.5186 39.4465 81.457 39.4465 82.6133C39.4465 83.7696 40.3836 84.7081 41.5413 84.7081Z" fill="url(#paint2_linear_26_226)"/>
<path d="M20.0965 39.8187C21.454 40.8647 23.0823 41.4163 24.7679 41.4163C25.1002 41.4163 25.4368 41.3939 25.772 41.3507C27.8067 41.0867 29.6165 40.0463 30.8678 38.4222C32.1191 36.798 32.6651 34.7815 32.3998 32.7482C32.1358 30.7134 31.0954 28.9036 29.4713 27.6523C27.8458 26.3996 25.8278 25.855 23.7973 26.1203C21.7626 26.3843 19.9527 27.4247 18.7014 29.0488C17.4502 30.6729 16.9027 32.6881 17.1667 34.7228C17.4306 36.7575 18.471 38.5674 20.0965 39.8187ZM22.0181 31.6058C22.5865 30.8671 23.4105 30.3936 24.335 30.2735C24.4872 30.254 24.6394 30.2442 24.7916 30.2442C25.5569 30.2442 26.2984 30.4956 26.9143 30.9704C27.6531 31.5388 28.1265 32.3627 28.2466 33.2872C28.3653 34.2117 28.1195 35.1278 27.5497 35.8666C26.9813 36.6053 26.1574 37.0787 25.2329 37.1988C24.3056 37.3175 23.3923 37.0718 22.6536 36.502C21.9148 35.9336 21.4414 35.1097 21.3213 34.1852C21.2026 33.2593 21.4484 32.3432 22.0181 31.6058Z" fill="url(#paint3_linear_26_226)"/>
<path d="M24.7833 65.1565C29.0189 65.1565 32.4641 61.7099 32.4641 57.4757C32.4641 53.2401 29.0189 49.7949 24.7833 49.7949C20.5477 49.7949 17.1025 53.2401 17.1025 57.4757C17.1025 61.7099 20.5477 65.1565 24.7833 65.1565ZM24.7833 53.9844C26.7077 53.9844 28.2746 55.5513 28.2746 57.4757C28.2746 59.4015 26.7077 60.967 24.7833 60.967C22.8589 60.967 21.2921 59.4015 21.2921 57.4757C21.2921 55.5513 22.8589 53.9844 24.7833 53.9844Z" fill="url(#paint4_linear_26_226)"/>
<path d="M24.7833 90.2932C29.0189 90.2932 32.4641 86.8466 32.4641 82.6124C32.4641 78.3782 29.0189 74.9316 24.7833 74.9316C20.5477 74.9316 17.1025 78.3782 17.1025 82.6124C17.1025 86.8466 20.5477 90.2932 24.7833 90.2932ZM24.7833 79.1212C26.7077 79.1212 28.2746 80.6867 28.2746 82.6124C28.2746 84.5382 26.7077 86.1037 24.7833 86.1037C22.8589 86.1037 21.2921 84.5382 21.2921 82.6124C21.2921 80.6867 22.8589 79.1212 24.7833 79.1212Z" fill="url(#paint5_linear_26_226)"/>
<defs>
<linearGradient id="paint0_linear_26_226" x1="58.2994" y1="30.2441" x2="58.2994" y2="34.4337" gradientUnits="userSpaceOnUse">
<stop stop-color="#FD8C04"/>
<stop offset="1" stop-color="#FD8C04"/>
</linearGradient>
<linearGradient id="paint1_linear_26_226" x1="58.2994" y1="55.3809" x2="58.2994" y2="59.5704" gradientUnits="userSpaceOnUse">
<stop stop-color="#FD8C04"/>
<stop offset="1" stop-color="#FD8C04"/>
</linearGradient>
<linearGradient id="paint2_linear_26_226" x1="58.2994" y1="80.5186" x2="58.2994" y2="84.7081" gradientUnits="userSpaceOnUse">
<stop stop-color="#FD8C04"/>
<stop offset="1" stop-color="#FD8C04"/>
</linearGradient>
<linearGradient id="paint3_linear_26_226" x1="24.7836" y1="26.0547" x2="24.7836" y2="41.4163" gradientUnits="userSpaceOnUse">
<stop stop-color="#FD8C04"/>
<stop offset="1" stop-color="#FD8C04"/>
</linearGradient>
<linearGradient id="paint4_linear_26_226" x1="24.7833" y1="49.7949" x2="24.7833" y2="65.1565" gradientUnits="userSpaceOnUse">
<stop stop-color="#FD8C04"/>
<stop offset="1" stop-color="#FD8C04"/>
</linearGradient>
<linearGradient id="paint5_linear_26_226" x1="24.7833" y1="74.9316" x2="24.7833" y2="90.2932" gradientUnits="userSpaceOnUse">
<stop stop-color="#FD8C04"/>
<stop offset="1" stop-color="#FD8C04"/>
</linearGradient>
</defs>
</svg>
