<svg width="100" height="100" viewBox="0 0 100 100" fill="none" xmlns="http://www.w3.org/2000/svg">
<g clip-path="url(#clip0_28_737)">
<path d="M8.33325 28.334C11.0947 28.334 13.3333 26.0954 13.3333 23.334C13.3333 20.5726 11.0947 18.334 8.33325 18.334C5.57183 18.334 3.33325 20.5726 3.33325 23.334C3.33325 26.0954 5.57183 28.334 8.33325 28.334Z" stroke="#367FD3" stroke-width="2" stroke-miterlimit="10"/>
<path d="M18.3333 15.001C21.0947 15.001 23.3333 12.7624 23.3333 10.001C23.3333 7.23955 21.0947 5.00098 18.3333 5.00098C15.5718 5.00098 13.3333 7.23955 13.3333 10.001C13.3333 12.7624 15.5718 15.001 18.3333 15.001Z" stroke="#367FD3" stroke-width="2" stroke-miterlimit="10"/>
<path d="M38.3333 15.001C41.0947 15.001 43.3333 12.7624 43.3333 10.001C43.3333 7.23955 41.0947 5.00098 38.3333 5.00098C35.5718 5.00098 33.3333 7.23955 33.3333 10.001C33.3333 12.7624 35.5718 15.001 38.3333 15.001Z" stroke="#367FD3" stroke-width="2" stroke-miterlimit="10"/>
<path d="M61.6667 15.001C64.4282 15.001 66.6667 12.7624 66.6667 10.001C66.6667 7.23955 64.4282 5.00098 61.6667 5.00098C58.9053 5.00098 56.6667 7.23955 56.6667 10.001C56.6667 12.7624 58.9053 15.001 61.6667 15.001Z" stroke="#367FD3" stroke-width="2" stroke-miterlimit="10"/>
<path d="M81.6667 15.001C84.4282 15.001 86.6667 12.7624 86.6667 10.001C86.6667 7.23955 84.4282 5.00098 81.6667 5.00098C78.9053 5.00098 76.6667 7.23955 76.6667 10.001C76.6667 12.7624 78.9053 15.001 81.6667 15.001Z" stroke="#367FD3" stroke-width="2" stroke-miterlimit="10"/>
<path d="M28.3333 28.334C31.0947 28.334 33.3333 26.0954 33.3333 23.334C33.3333 20.5726 31.0947 18.334 28.3333 18.334C25.5718 18.334 23.3333 20.5726 23.3333 23.334C23.3333 26.0954 25.5718 28.334 28.3333 28.334Z" stroke="#367FD3" stroke-width="2" stroke-miterlimit="10"/>
<path d="M35 46.668H0" stroke="#367FD3" stroke-width="2" stroke-miterlimit="10"/>
<path d="M3.45825 33.9673C4.89992 33.564 6.56325 33.334 8.33325 33.334C13.8566 33.334 18.3332 35.5723 18.3332 38.334V46.6673" stroke="#367FD3" stroke-width="2" stroke-miterlimit="10"/>
<path d="M33.2083 33.9673C31.7666 33.564 30.1033 33.334 28.3333 33.334C22.8099 33.334 18.3333 35.5723 18.3333 38.334" stroke="#367FD3" stroke-width="2" stroke-miterlimit="10"/>
<path d="M73.3333 28.334C76.0947 28.334 78.3333 26.0954 78.3333 23.334C78.3333 20.5726 76.0947 18.334 73.3333 18.334C70.5718 18.334 68.3333 20.5726 68.3333 23.334C68.3333 26.0954 70.5718 28.334 73.3333 28.334Z" stroke="#367FD3" stroke-width="2" stroke-miterlimit="10"/>
<path d="M93.3333 28.334C96.0947 28.334 98.3333 26.0954 98.3333 23.334C98.3333 20.5726 96.0947 18.334 93.3333 18.334C90.5718 18.334 88.3333 20.5726 88.3333 23.334C88.3333 26.0954 90.5718 28.334 93.3333 28.334Z" stroke="#367FD3" stroke-width="2" stroke-miterlimit="10"/>
<path d="M100 46.668H65" stroke="#367FD3" stroke-width="2" stroke-miterlimit="10"/>
<path d="M68.4583 33.9673C69.8999 33.564 71.5632 33.334 73.3332 33.334C78.8566 33.334 83.3332 35.5723 83.3332 38.334V46.6673" stroke="#367FD3" stroke-width="2" stroke-miterlimit="10"/>
<path d="M98.2082 33.9673C96.7666 33.564 95.1032 33.334 93.3332 33.334C87.8099 33.334 83.3333 35.5723 83.3333 38.334" stroke="#367FD3" stroke-width="2" stroke-miterlimit="10"/>
<path d="M38.5217 20.056C39.0034 20.0193 39.4984 20.001 40.0001 20.001C45.5234 20.001 50.0001 22.2393 50.0001 25.001" stroke="#367FD3" stroke-width="2" stroke-miterlimit="10"/>
<path d="M61.4783 20.056C60.9967 20.0193 60.5017 20.001 60 20.001C54.4767 20.001 50 22.2393 50 25.001" stroke="#367FD3" stroke-width="2" stroke-miterlimit="10"/>
<path d="M50 53.3343C55.5228 53.3343 60 48.111 60 41.6676C60 35.2243 55.5228 30.001 50 30.001C44.4772 30.001 40 35.2243 40 41.6676C40 48.111 44.4772 53.3343 50 53.3343Z" stroke="#367FD3" stroke-width="2" stroke-miterlimit="10"/>
<path d="M38.3333 83.334H28.3333C26.4917 83.334 25 84.8257 25 86.6673V96.6673" stroke="#367FD3" stroke-width="2" stroke-miterlimit="10"/>
<path d="M61.6667 83.334H71.6667C73.5084 83.334 75.0001 84.8257 75.0001 86.6673V96.6673" stroke="#367FD3" stroke-width="2" stroke-miterlimit="10"/>
<path d="M61.6666 96.6673V70.9156L75.2899 74.809C75.7282 74.934 76.1899 75.0006 76.6666 75.0006C77.6916 75.0006 78.6432 74.6923 79.4366 74.164L89.4366 67.4973C90.7816 66.6007 91.6666 65.0706 91.6666 63.334C91.6666 60.5723 89.4282 58.334 86.6666 58.334C85.6416 58.334 84.6899 58.6423 83.8966 59.1706L75.8182 64.5557L61.8916 60.5773C60.5516 60.1957 59.1632 60.0007 57.7699 60.0007H42.2299C40.8366 60.0007 39.4499 60.1957 38.1099 60.5773L24.1833 64.5557L16.1049 59.1706C15.3099 58.6423 14.3583 58.334 13.3333 58.334C10.5716 58.334 8.33325 60.5723 8.33325 63.334C8.33325 65.0706 9.21825 66.6007 10.5633 67.4973L20.5633 74.164C21.3566 74.6923 22.3083 75.0006 23.3333 75.0006C23.8099 75.0006 24.2716 74.934 24.7099 74.809L38.3332 70.9156V96.6673" stroke="#367FD3" stroke-width="2" stroke-miterlimit="10"/>
</g>
<defs>
<clipPath id="clip0_28_737">
<rect width="100" height="100" fill="white"/>
</clipPath>
</defs>
</svg>
