<svg width="140" height="140" viewBox="0 0 140 140" fill="none" xmlns="http://www.w3.org/2000/svg">
<path d="M53.7399 65.625C52.0421 66.7411 50.1184 68.0078 47.9881 69.6819C47.7356 69.8647 41.7899 74.2146 39.3556 78.2743C36.9101 82.3549 36.1149 89.0472 36.0814 89.3304C36.013 89.9233 36.2014 90.5176 36.599 90.9626C36.9965 91.4076 37.5643 91.663 38.1614 91.663H64.2627C65.4192 91.663 66.3553 90.7255 66.3553 89.5703C66.3553 88.4152 65.4192 87.4777 64.2627 87.4777H40.6167C41.0129 85.4116 41.7495 82.4219 42.945 80.4269C44.6009 77.666 48.9228 74.1783 50.5118 73.0204C52.5653 71.4076 54.4109 70.1925 56.0403 69.1211C60.3064 66.3142 63.6754 64.0974 63.6754 58.4152C63.6754 50.9431 57.5958 44.8633 50.1239 44.8633C42.6493 44.8633 36.5669 50.9417 36.5669 58.4152C36.5669 59.5717 37.5029 60.5078 38.6594 60.5078C39.8159 60.5078 40.752 59.5717 40.752 58.4152C40.752 53.2506 44.9567 49.0485 50.1239 49.0485C55.2884 49.0485 59.4903 53.2506 59.4903 58.4152C59.4903 61.6853 58.1078 62.7497 53.7399 65.625Z" fill="#1565C0"/>
<path d="M89.8351 91.9048C90.9902 91.9048 91.9277 90.9673 91.9277 89.8122V79.9461H98.0575C99.2126 79.9461 100.15 79.0086 100.15 77.8535C100.15 76.6983 99.2126 75.7608 98.0575 75.7608H91.9277V47.1992C91.9277 46.2714 91.3167 45.4553 90.428 45.193C89.5394 44.9308 88.581 45.2851 88.0774 46.0636L68.2663 76.7165C67.8506 77.361 67.8199 78.1799 68.1854 78.8524C68.5509 79.5248 69.2568 79.9447 70.0227 79.9447H87.7426V89.8108C87.7426 90.9673 88.68 91.9048 89.8351 91.9048ZM73.8674 75.7608L87.7426 54.2918V75.7608H73.8674Z" fill="#1565C0"/>
<path d="M137.297 60.4291C136.414 59.6841 135.092 59.7971 134.35 60.6802L130.674 65.0413C128.249 31.5605 100.253 5.05664 66.1654 5.05664C30.4912 5.05664 1.46729 34.0801 1.46729 69.7539C1.46729 105.429 30.4912 134.451 66.1654 134.451C89.0177 134.451 109.731 122.76 121.573 103.179C122.171 102.19 121.854 100.903 120.865 100.305C119.878 99.7051 118.59 100.023 117.991 101.012C106.915 119.33 87.5403 130.266 66.1654 130.266C32.7987 130.266 5.65243 103.12 5.65243 69.7539C5.65243 36.3876 32.7987 9.24191 66.1654 9.24191C98.2124 9.24191 124.506 34.2866 126.537 65.8295L121.85 61.9149C120.96 61.1727 119.643 61.2941 118.902 62.18C118.162 63.0672 118.28 64.387 119.166 65.1278L127.49 72.0795C127.882 72.406 128.358 72.5664 128.831 72.5664C129.427 72.5664 130.02 72.3125 130.431 71.8228L137.549 63.3797C138.294 62.4953 138.182 61.1741 137.297 60.4291Z" fill="url(#paint0_linear_26_254)"/>
<defs>
<linearGradient id="paint0_linear_26_254" x1="69.7544" y1="5.05664" x2="69.7544" y2="134.451" gradientUnits="userSpaceOnUse">
<stop stop-color="#FD8C04"/>
<stop offset="1" stop-color="#FD8C04"/>
</linearGradient>
</defs>
</svg>
