<svg width="27" height="22" viewBox="0 0 27 22" fill="none" xmlns="http://www.w3.org/2000/svg">
<path opacity="0.5" d="M22.0312 9.875L21.8906 9.21875C21.7969 9.5 21.6094 9.96875 21.6562 9.92188C21.6562 9.92188 21.0469 11.5625 20.9062 11.9844H22.4531C22.3594 11.6094 22.0312 9.875 22.0312 9.875ZM27 2.75C27 1.53125 25.9688 0.5 24.75 0.5H2.25C0.984375 0.5 0 1.53125 0 2.75V19.25C0 20.5156 0.984375 21.5 2.25 21.5H24.75C25.9688 21.5 27 20.5156 27 19.25V2.75ZM7.125 14.5625H5.15625L3.46875 8.23438C2.85938 7.85938 2.20312 7.625 1.5 7.4375V7.25H4.54688C4.96875 7.29688 5.29688 7.4375 5.39062 7.90625L6.04688 11.2344L6.23438 12.2188L8.10938 7.25H10.0781L7.125 14.5625ZM11.5312 14.5625H9.65625L10.8281 7.25H12.75L11.5312 14.5625ZM18.0938 12.1719C18.0938 13.6719 16.8281 14.6562 14.8125 14.6562C13.9688 14.6562 13.1719 14.4688 12.75 14.2812L12.9844 12.6406L13.2188 12.7344C13.875 13.0156 14.25 13.1562 15 13.1562C15.5625 13.1562 16.125 12.9219 16.125 12.4062C16.125 12.125 15.8906 11.8906 15.1406 11.5156C14.4375 11.1875 13.5 10.5781 13.5 9.54688C13.5 8.14062 14.8125 7.15625 16.6875 7.15625C17.4375 7.15625 18 7.29688 18.375 7.4375L18.1406 9.03125L17.9531 8.9375C17.625 8.79688 17.1562 8.65625 16.5469 8.65625C15.7969 8.65625 15.4688 8.98438 15.4688 9.3125C15.4688 9.64062 15.8906 9.875 16.5469 10.2031C17.625 10.7188 18.1406 11.3281 18.0938 12.1719ZM24.75 14.5625H22.9688C22.9688 14.5625 22.8281 13.7188 22.7812 13.4844H20.3438C20.25 13.6719 19.9688 14.5625 19.9688 14.5625H17.9531L20.7656 7.85938C20.9531 7.39062 21.2812 7.25 21.75 7.25H23.2031L24.75 14.5625Z" fill="white"/>
</svg>
